<svg xmlns="http://www.w3.org/2000/svg" viewBox="0 0 1800 1200"><defs><style>.cls-1{fill:#fff;}.cls-15,.cls-2{fill:#89611a;}.cls-3{fill:#c9a763;}.cls-4{fill:#d1ae6f;}.cls-5{fill:#997239;}.cls-6{fill:#8fb230;}.cls-7{fill:#bcdb5a;}.cls-8{fill:#b1c94c;}.cls-9{fill:#96c048;}.cls-10{fill:#a6c950;}.cls-11,.cls-12{fill:#265c52;}.cls-12{font-size:60px;font-family:Adventuring;}.cls-13{font-size:51px;}.cls-13,.cls-15{font-family:HvDTrial_BrandonGrotesque-Medium, HvDTrial Brandon Grotesque;font-weight:500;}.cls-14{font-family:MyriadPro-Regular, Myriad Pro;font-weight:400;}.cls-15{font-size:46px;}</style></defs><title>Asset 7</title><g id="Layer_2" data-name="Layer 2"><g id="Layer_2-2" data-name="Layer 2"><rect class="cls-1" width="1800" height="1200" rx="35.81"/><path class="cls-2" d="M95,1092.49c-3.46,2.42-7.86,1.34-10.11-2.36-5.65-9.23,6.25-14.53,13.24-15.61,6-.92,17-3.45,22.22,1a8.25,8.25,0,0,1,2.66,6.59,13.52,13.52,0,0,1-.46,3.38A3.6,3.6,0,0,1,120,1088a6.4,6.4,0,0,1-2.92,1c0,.14,2.41,13.12,2.68,17.71a53.66,53.66,0,0,1-2,18.09c-1,3.58-2.51,7.15-5.15,9.77a19.11,19.11,0,0,1-9.81,4.82c-15.46,3.11-27.17-4.9-27.17-20.69a21.67,21.67,0,0,1,.57-4.55,24.23,24.23,0,0,1,1.63-5,15.47,15.47,0,0,1,2.56-4,4.5,4.5,0,0,1,3.42-1.63,6.92,6.92,0,0,1,3,.66,9.42,9.42,0,0,1,2.4,1.64,7.73,7.73,0,0,1,1.59,2.09,4.77,4.77,0,0,1,.56,2c0,3.52-1.75,10.06,4.25,9.89,3.44-.1,5.62-3.75,6.47-7.09,1.66-6.5.13-13-.86-19.46q-.36-2.36-.36-2.76Z"/><path class="cls-3" d="M92.11,1091.51c-3.46,2.43-7.85,1.34-10.11-2.35-5.65-9.24,6.26-14.53,13.25-15.61,6-.93,17-3.46,22.22,1a8.28,8.28,0,0,1,2.66,6.6,13,13,0,0,1-.47,3.37,3.56,3.56,0,0,1-2.6,2.45,6.25,6.25,0,0,1-2.92,1c0,.14,2.41,13.12,2.68,17.72a53.94,53.94,0,0,1-2,18.09c-1,3.57-2.52,7.14-5.15,9.77a19.09,19.09,0,0,1-9.82,4.81c-15.45,3.11-27.16-4.9-27.16-20.69a22.35,22.35,0,0,1,.56-4.55,24.16,24.16,0,0,1,1.64-5,15.44,15.44,0,0,1,2.55-4,4.52,4.52,0,0,1,3.43-1.64,6.85,6.85,0,0,1,3,.67,9.45,9.45,0,0,1,2.41,1.63,7.53,7.53,0,0,1,1.58,2.1,4.56,4.56,0,0,1,.56,2c0,3.51-1.74,10.06,4.26,9.88,3.44-.1,5.62-3.75,6.47-7.08,1.66-6.5.13-13-.86-19.47q-.36-2.36-.36-2.76Z"/><path class="cls-4" d="M103.11,1081.21a3.65,3.65,0,0,0-1,2.18c0,.54,0,1.11,0,1.66,0,1.13.1,2.27.16,3.41a40.45,40.45,0,0,0,.4,4.39c.09.6.23,1.22.27,1.82,0-.14-.13-1.08,0-.19,0,.37.09.73.13,1.09.28,2.47.42,5,.55,7.46.06,1.14.08,2.29.06,3.44,0,.59,0,1.19-.08,1.79l-.06.71c0,.21-.3,1.63-.06.69s0,.16-.05.32l-.12.69c-.11.58-.23,1.15-.38,1.72a31,31,0,0,1-1.12,3.5c-.28.75.6-1.29.08-.21l-.3.64c-.27.53-.55,1-.85,1.56s-.64,1-1,1.51c-.59.89.2-.31.22-.28a9.45,9.45,0,0,1-.84,1c-.4.42-.82.79-1.24,1.19-1,.88,1.09-.64,0,0-.22.13-.43.28-.64.41s-.57.29-.84.44c-.71.42,1.42-.46.21-.09l-.71.23-.73.17c.93-.11,1.16-.13.68-.09s-1.07-.06-1.56,0c1.32-.18,1.25.21.45,0l-.57-.14c-.23-.07-.46-.18-.69-.24-.75-.19,1.53.77.58.24l-.63-.35c-1.19-.6,1.05,1,.28.25s-1.56-1.45-2.25-2.26l-.38-.46c1.42,1.58.58.75.26.26a15.93,15.93,0,0,1-.86-1.43c-.31-.58-1-2.6-.22-.33-.16-.48-.36-1-.52-1.43a21.11,21.11,0,0,1-.8-3.5l.24,1.8c-.12-.93-.16-1.87-.27-2.8a7.31,7.31,0,0,0-2-4.75,6.7,6.7,0,0,0-9.49,0,7.76,7.76,0,0,0-2,4.75,17.61,17.61,0,0,0,.42,4.9,20.29,20.29,0,0,0,.92,3.48,27.51,27.51,0,0,0,4.79,8.51,16.52,16.52,0,0,0,18.18,4.68c6.86-2.75,11.22-9.32,13.29-16.21a39.72,39.72,0,0,0,.71-18.83,46.66,46.66,0,0,0-2.86-9.93c-.62-1.37-1.34-2.7-2-4-.83-1.56-1.88-3.37-3.62-3.93a2.12,2.12,0,0,0-2.1.56Z"/><path class="cls-4" d="M115.69,1078c-1.69-2-4.56-2.13-7-2.32-2.17-.17-4.35-.27-6.53-.32a97.41,97.41,0,0,0-13.34.55,7.33,7.33,0,0,0-4.53,1.87,6.18,6.18,0,0,0-1.76,5.39,6,6,0,0,0,2.41,4.18c1.45,1.13,3.76,1.91,5.59,1.15a65,65,0,0,1,12.2-3.77c1-.2,2-.39,2.94-.53-.69.1,1-.09,1.15-.11l1.4-.12c2-.15,4,.08,6-.42,2.59-.67,3-3.71,1.47-5.55Z"/><path class="cls-5" d="M110.41,1104.94a12.92,12.92,0,0,1,.33,5.07c-.15,1.54-.31,3.07-.59,4.6a31.75,31.75,0,0,1-2.68,8.57,20.89,20.89,0,0,1-5.25,6.87,17.21,17.21,0,0,1-7.18,3.56,14.08,14.08,0,0,1-3.9.35,14.33,14.33,0,0,1-3.86-.7,6.94,6.94,0,0,1-.9-.34c-.27-.13-.51.28-.24.41s.61.33.93.47.66.28,1,.4a11,11,0,0,0,2,.47,14.22,14.22,0,0,0,4.17-.09,17.37,17.37,0,0,0,7.64-3.33,20.35,20.35,0,0,0,5.58-6.78,31.9,31.9,0,0,0,3-8.68c.3-1.5.52-3,.67-4.55a14.82,14.82,0,0,0-.24-5.1,7.46,7.46,0,0,0-.4-1.21s0,0,0,0Z"/><path class="cls-2" d="M95.11,1092.48c-3.44,2.41-7.82,1.33-10.07-2.35-5.63-9.2,6.23-14.47,13.2-15.55,6-.92,16.94-3.44,22.13,1.05a8.2,8.2,0,0,1,2.64,6.56,13.29,13.29,0,0,1-.45,3.36A3.59,3.59,0,0,1,120,1088a6.25,6.25,0,0,1-2.91,1c0,.14,2.4,13.07,2.67,17.65a53.53,53.53,0,0,1-2,18c-1,3.56-2.51,7.11-5.13,9.73a19.06,19.06,0,0,1-9.78,4.8c-15.39,3.09-27-4.88-27-20.61a21.42,21.42,0,0,1,.56-4.53,24,24,0,0,1,1.62-4.94,15.58,15.58,0,0,1,2.55-4,4.47,4.47,0,0,1,3.41-1.63,6.87,6.87,0,0,1,3,.66,9.26,9.26,0,0,1,2.39,1.63,7.54,7.54,0,0,1,1.58,2.09,4.62,4.62,0,0,1,.56,2c0,3.5-1.74,10,4.24,9.84,3.42-.1,5.59-3.73,6.44-7,1.65-6.48.13-13-.86-19.4-.23-1.56-.35-2.47-.35-2.75Z"/><path class="cls-3" d="M92.2,1091.51c-3.44,2.41-7.82,1.33-10.07-2.35-5.63-9.2,6.23-14.47,13.19-15.55,6-.92,17-3.44,22.14,1.05a8.2,8.2,0,0,1,2.64,6.56,12.87,12.87,0,0,1-.46,3.36,3.57,3.57,0,0,1-2.59,2.45,6.25,6.25,0,0,1-2.91,1c0,.14,2.4,13.07,2.67,17.65a53.53,53.53,0,0,1-2,18c-1,3.56-2.5,7.11-5.12,9.73a19,19,0,0,1-9.78,4.79c-15.39,3.1-27.06-4.87-27.06-20.6a22.09,22.09,0,0,1,.56-4.53,24.46,24.46,0,0,1,1.63-4.94,15.32,15.32,0,0,1,2.55-4,4.47,4.47,0,0,1,3.41-1.63,6.83,6.83,0,0,1,3,.66,9.15,9.15,0,0,1,2.4,1.63,7.85,7.85,0,0,1,1.58,2.08,4.7,4.7,0,0,1,.56,2c0,3.5-1.74,10,4.23,9.84,3.43-.1,5.6-3.73,6.45-7,1.65-6.48.13-13-.86-19.4-.24-1.56-.35-2.47-.35-2.75Z"/><path class="cls-4" d="M103.15,1081.24a3.69,3.69,0,0,0-1,2.17c0,.55,0,1.11-.05,1.66,0,1.13.1,2.26.16,3.4a42.72,42.72,0,0,0,.39,4.37c.1.6.23,1.21.28,1.82,0-.15-.14-1.08,0-.19,0,.36.09.72.13,1.08.28,2.46.42,5,.56,7.43.06,1.14.08,2.28,0,3.42,0,.6,0,1.19-.08,1.79l-.06.71c0,.21-.3,1.62-.06.68s0,.17,0,.32l-.12.69c-.11.58-.23,1.15-.37,1.71a33,33,0,0,1-1.12,3.49c-.28.74.6-1.29.08-.21l-.3.64c-.26.52-.54,1-.84,1.55s-.64,1-1,1.5c-.59.9.2-.31.22-.28a7.74,7.74,0,0,1-.84,1c-.39.42-.82.8-1.24,1.18-1,.89,1.09-.63,0,0-.22.13-.42.28-.64.4s-.56.29-.83.45c-.71.41,1.41-.46.21-.09-.24.08-.47.16-.71.22s-.48.12-.72.17l.68-.08a13.52,13.52,0,0,0-1.56,0c1.31-.18,1.24.21.45,0-.19,0-.38-.09-.57-.15s-.46-.17-.69-.23c-.74-.19,1.53.77.58.23l-.62-.34c-1.2-.6,1,1,.27.24a31.7,31.7,0,0,1-2.24-2.25c-.13-.14-.25-.31-.38-.45,1.41,1.57.58.74.26.26a15.83,15.83,0,0,1-.85-1.43c-.32-.58-1-2.59-.23-.33-.16-.48-.36-.94-.51-1.43a20.66,20.66,0,0,1-.8-3.48l.24,1.8c-.12-.93-.16-1.87-.27-2.8a7.32,7.32,0,0,0-2-4.73,6.71,6.71,0,0,0-9.46,0,7.78,7.78,0,0,0-2,4.73,17.41,17.41,0,0,0,.42,4.88,20.85,20.85,0,0,0,.91,3.47,27.75,27.75,0,0,0,4.78,8.48,16.45,16.45,0,0,0,18.11,4.66c6.83-2.74,11.17-9.28,13.23-16.14a39.73,39.73,0,0,0,.72-18.77,47,47,0,0,0-2.86-9.88c-.62-1.36-1.33-2.69-2-4-.82-1.55-1.87-3.36-3.6-3.91a2.11,2.11,0,0,0-2.1.55Z"/><path class="cls-4" d="M115.68,1078.06c-1.68-2-4.54-2.12-6.94-2.31-2.16-.18-4.33-.27-6.5-.32A96.68,96.68,0,0,0,89,1076a7.37,7.37,0,0,0-4.51,1.87,6.14,6.14,0,0,0-1.76,5.37,6,6,0,0,0,2.4,4.16c1.45,1.12,3.75,1.9,5.57,1.15a64.59,64.59,0,0,1,12.16-3.76c1-.19,2-.39,2.93-.52-.69.09,1-.1,1.14-.11.47-.05.93-.09,1.4-.12,2-.16,4,.07,5.94-.42,2.58-.67,3-3.7,1.46-5.53Z"/><path class="cls-6" d="M75.09,1080.77s2.82-2.81,5.59-2.32,4.45,4.1,4.45,4.1-2.82,2.81-5.59,2.32S75.09,1080.77,75.09,1080.77Z"/><path class="cls-7" d="M78.11,1081.32s2-1.66,3.92-1.32,3.08,2.55,3.08,2.55-2,1.65-3.92,1.31S78.11,1081.32,78.11,1081.32Z"/><path class="cls-6" d="M86.46,1081.16a6.66,6.66,0,0,1-1.77-1.69,5.82,5.82,0,0,1,1.92-8.88,6.71,6.71,0,0,1,2.31-.81s.32,1,.62,2.24a6.63,6.63,0,0,1-1.59,7.36C87.16,1080.37,86.46,1081.16,86.46,1081.16Z"/><path class="cls-7" d="M86.12,1081.49a4.2,4.2,0,0,1-1.16-1.1,3.83,3.83,0,0,1,1.26-5.84,4.38,4.38,0,0,1,1.51-.53s.21.67.41,1.47a5.8,5.8,0,0,1,.23,2.58,6,6,0,0,1-1.27,2.26C86.58,1081,86.12,1081.49,86.12,1081.49Z"/><path class="cls-6" d="M82.7,1077.6a6.48,6.48,0,0,1-1.6.12,4.13,4.13,0,0,1-4.22-4,6.3,6.3,0,0,1,0-1.6,9.32,9.32,0,0,1,1.57.12,4.3,4.3,0,0,1,4,3.76A9.46,9.46,0,0,1,82.7,1077.6Z"/><path class="cls-7" d="M82.38,1077.93a4.41,4.41,0,0,1-1.1.08,2.84,2.84,0,0,1-2.9-2.72,4.4,4.4,0,0,1,0-1.1,6.57,6.57,0,0,1,1.09.09,3.47,3.47,0,0,1,1.83.79,3.54,3.54,0,0,1,.91,1.78A6.47,6.47,0,0,1,82.38,1077.93Z"/><path class="cls-5" d="M110.43,1104.88a13,13,0,0,1,.32,5c-.14,1.54-.31,3.06-.58,4.58a32.07,32.07,0,0,1-2.67,8.55,20.81,20.81,0,0,1-5.23,6.83,17,17,0,0,1-7.15,3.55,14,14,0,0,1-3.88.35,14.26,14.26,0,0,1-3.86-.7,7.34,7.34,0,0,1-.89-.33c-.27-.14-.51.27-.24.4s.61.33.93.47.66.28,1,.4a10.15,10.15,0,0,0,2,.46,13.75,13.75,0,0,0,4.15-.08,17.41,17.41,0,0,0,7.61-3.32,20.23,20.23,0,0,0,5.56-6.76,32.18,32.18,0,0,0,3-8.64c.3-1.5.52-3,.67-4.53a15.21,15.21,0,0,0-.24-5.08,10.71,10.71,0,0,0-.4-1.21s0,0,0,0Z"/><path class="cls-2" d="M163.42,1099c.61-1.49,1.17-2.92,1.68-4.31a106.94,106.94,0,0,1,7.22-15.45c2-3.45,5.08-6.63,9-7,3.38-.35,6.71,1.47,8.91,4.06,4.84,5.74,5.24,13.6,5.7,20.74.76,11.55,1.79,23.22,2.19,34.78.09,2.41-.36,5-2,6.73a7.63,7.63,0,0,1-5.62,2.06c-9-.18-11.68-8.35-11.85-16.12-.16-7-.78-24-.92-26-.2,0-3.67,9.8-3.67,9.8l-1,3.3c-1.13,3.64-2,7.75-3.86,11.07-4.26,7.44-12.44,6.55-15.36-1.36-1.66-4.49-4-15.25-4.89-15.89-3.11,21.81,2.13,28-1.23,32.84a6.87,6.87,0,0,1-3.56,2.45c-17.88,5.89-15.13-21.82-13.51-30.83a143.69,143.69,0,0,1,5.3-19.87c1.48-4.47,2.53-11.76,7-14.34,3.75-2.18,9.74-2.37,12.9,1,1.85,2,5.42,24,5.89,24h1Z"/><path class="cls-3" d="M160.37,1099c.61-1.49,1.18-2.92,1.69-4.31a108,108,0,0,1,7.21-15.45c2-3.45,5.08-6.63,9-7,3.38-.35,6.71,1.47,8.9,4.06,4.85,5.74,5.24,13.6,5.71,20.74.75,11.55,1.78,23.22,2.19,34.78.09,2.41-.37,5-2,6.73a7.59,7.59,0,0,1-5.61,2.06c-9-.18-11.68-8.35-11.86-16.12-.16-7-.77-24-.91-26-.2,0-3.68,9.8-3.68,9.8l-1,3.3c-1.12,3.64-1.94,7.75-3.85,11.07-4.26,7.44-12.44,6.55-15.36-1.36-1.66-4.49-4-15.25-4.89-15.89-3.11,21.81,2.12,28-1.23,32.84a6.86,6.86,0,0,1-3.57,2.45c-17.88,5.89-15.13-21.82-13.51-30.83a145.11,145.11,0,0,1,5.3-19.87c1.49-4.47,2.54-11.76,7-14.34,3.75-2.18,9.73-2.37,12.9,1,1.84,2,5.42,24,5.89,24h1Z"/><path class="cls-4" d="M188.49,1133.22c1.87-1.34,2.28-3.86,2.7-6a37,37,0,0,0,.46-7.29c0-4.31-.22-8.56-.52-12.87a97.67,97.67,0,0,0-1.69-13.74q-.65-3-1.58-5.84c-1-2.94-1.83-6.13-4.62-7.83a6,6,0,0,0-8.71,3.55c-.8,2.86.57,5.38,1.35,8.07q.78,2.68,1.3,5.42a19.15,19.15,0,0,1,.48,2.89c-.06-1.63,0-.12,0,.28q.18,1.47.39,2.94c0,.19.26,1.84.12.88-.06-.52-.06-.47,0,.14.05.33.09.66.13,1,.13,1,.25,2,.38,3,.57,4.56,1.21,9.07,2.09,13.58a30.39,30.39,0,0,0,1.44,5.82c.77,1.9,1.65,5.07,3.68,6a2.56,2.56,0,0,0,2.54,0Z"/><path class="cls-4" d="M142.66,1083.3c-3.44,2.76-4.8,6.9-6.14,10.94a81.26,81.26,0,0,0-3,11.9,119.65,119.65,0,0,0-1.71,13.33c-.12,2.09-.07,4.2,0,6.29,0,1,.05,1.94.08,2.91a8,8,0,0,0,2.34,5.91c2.06,2,5.93,2.32,7.94,0a7.7,7.7,0,0,0,2.2-5.67q0-1.58-.06-3.15c0-1.93,0-3.87.08-5.81.06-4.11-.05-8.21.17-12.32s.41-8,.67-12a45.44,45.44,0,0,0,.42-5.92,20.94,20.94,0,0,0-1.05-5.94,1.16,1.16,0,0,0-1.91-.5Z"/><path class="cls-4" d="M171,1091.27a9.62,9.62,0,0,0-1.85,2.08c-.54.89-1,1.86-1.45,2.77s-1.12,1.74-1.59,2.66a21.38,21.38,0,0,0-1.14,3.14,29.91,29.91,0,0,1-2.27,5.56,25.92,25.92,0,0,0-1.53,3.35c-.12.28-.23.57-.34.85-.19.47-.24.57-.13.3-.17.36-.41.72-.56,1.09s-.11.2.15-.15c-.54.5-.27.38.82-.37a2.7,2.7,0,0,1,2.45.72q-.44-.48-.09-.06c.36.56-.3-.7-.35-.82-.22-.42-.44-.84-.64-1.27-.1-.22-.74-1.72-.28-.6-.2-.48-.39-1-.57-1.45-.36-1-.7-2-1-3-.6-2-1.15-4-1.81-6-.19-.53-.41-1-.65-1.56.28.65.29.69.05.1a12.59,12.59,0,0,0-1-2.23,18.39,18.39,0,0,0-2.41-2.72,3.41,3.41,0,0,0-5.3.68,11.35,11.35,0,0,0-1.86,6.58,21,21,0,0,0,1.48,6.73,50,50,0,0,0,3,6.17,18.58,18.58,0,0,0,3.69,5.18c2,1.66,4.52,2.76,7.17,2.07s4.1-2.74,5-5.12a20,20,0,0,0,1.26-6.06c0-1,0-1.92,0-2.87s.27-1.76.42-2.64c.2-1.13.44-2.25.62-3.38a27.39,27.39,0,0,0,.17-3.26,20.08,20.08,0,0,1,.49-3.17,16.64,16.64,0,0,0,.27-3.23.1.1,0,0,0-.16-.07Z"/><path class="cls-6" d="M180.64,1072.82a5.67,5.67,0,0,1-1.48-.67,3.14,3.14,0,0,1-.65-5.19,5.57,5.57,0,0,1,1.26-1,13.57,13.57,0,0,1,1.21,1,4,4,0,0,1,1.37,2.15,4.06,4.06,0,0,1-.8,2.42A14.72,14.72,0,0,1,180.64,1072.82Z"/><path class="cls-7" d="M180.62,1072.81a3.22,3.22,0,0,1-.9-.4,1.9,1.9,0,0,1-.39-3.15,3.28,3.28,0,0,1,.76-.61,7.35,7.35,0,0,1,.73.62,2.36,2.36,0,0,1,.83,1.3,2.43,2.43,0,0,1-.48,1.46A7.72,7.72,0,0,1,180.62,1072.81Z"/><path class="cls-6" d="M182.79,1073.17a9.7,9.7,0,0,1,.54-2.17,8.07,8.07,0,0,1,7.1-5.57,9.58,9.58,0,0,1,2.23,0,13.39,13.39,0,0,1-.83,2,9.21,9.21,0,0,1-6.86,5.38A13.61,13.61,0,0,1,182.79,1073.17Z"/><path class="cls-7" d="M182.79,1073.17a6.66,6.66,0,0,1,.38-1.53,5.71,5.71,0,0,1,5-3.93,6.39,6.39,0,0,1,1.57,0,9.09,9.09,0,0,1-.58,1.44,6.52,6.52,0,0,1-4.85,3.8A9.7,9.7,0,0,1,182.79,1073.17Z"/><path class="cls-6" d="M184.59,1073.92s2.82-1.69,5.35-.87,3.82,3.84,3.82,3.84-2.81,1.68-5.34.86S184.59,1073.92,184.59,1073.92Z"/><path class="cls-7" d="M184.59,1073.92a4.07,4.07,0,0,1,6.29,2,4.07,4.07,0,0,1-6.29-2Z"/><path class="cls-6" d="M183.33,1074.27s-.45,3.06-2.45,4.14-4.81-.21-4.81-.21.45-3,2.46-4.14S183.33,1074.27,183.33,1074.27Z"/><path class="cls-7" d="M183.36,1074.27s-.33,2.32-1.87,3.16-3.71-.15-3.71-.15.32-2.32,1.86-3.15S183.36,1074.27,183.36,1074.27Z"/><path class="cls-5" d="M182.1,1084.9a.9.9,0,0,1,.22,1.18,1.14,1.14,0,0,1-.45.52.73.73,0,0,1-.63,0,1.62,1.62,0,0,1,.23-3.1,2.25,2.25,0,0,1,1.79.37,2,2,0,0,1,.33.32,2.13,2.13,0,0,1,.27.46,2.7,2.7,0,0,1-1.5,3.56l-.27.08-.26,0h-.5s0,0,0,0a3,3,0,0,1-1.06-.41,3.78,3.78,0,0,1-.87-.79s0,0,0,0a.1.1,0,0,1,0-.05l-.08-.1-.16-.26-.13-.24a.61.61,0,0,1-.05-.12l0-.06c0-.07,0,.06,0,0a5.05,5.05,0,0,1-.18-.55,2.21,2.21,0,0,1-.05-.25l0-.13s0-.18,0-.09a4.66,4.66,0,0,1,0-1.12s0-.08,0,0,0,0,0,0a.51.51,0,0,1,0-.13l.06-.27a5.22,5.22,0,0,1,.18-.56l0-.06s0,.06,0,0a.61.61,0,0,1,.05-.12c0-.09.09-.18.14-.27l.15-.23.07-.11,0,0,0,0s0,0,0,0l.06-.07.08-.09.19-.2.2-.18.1-.08c-.07.06.05,0,.07,0a4.34,4.34,0,0,1,.46-.28l.23-.12.13-.06h0l.08,0a4.51,4.51,0,0,1,.52-.17l.26-.06.13,0h.33l.29,0a5.07,5.07,0,0,1,.55,0h.06s-.08,0,0,0l.14,0,.27.05.53.17,0,0,.11.06.26.13a4.27,4.27,0,0,1,.44.3s.1.07,0,0l.11.09.2.18a3.33,3.33,0,0,1,.36.39l.09.11h0l0,.05.16.23a4.25,4.25,0,0,1,.27.46l.12.25c0,.06,0,0,0,.05a.58.58,0,0,1,.05.14,4.36,4.36,0,0,1,.17.51,4.9,4.9,0,0,1,.13.55c0,.21.05.29.07.47a6.73,6.73,0,0,1,0,1.1,5.39,5.39,0,0,1-.18,1.09,8.94,8.94,0,0,1-1,2.32,24.45,24.45,0,0,1-1.51,2.11c-.25.33-.52.65-.79,1a.23.23,0,0,0,.32.32c.37-.31.72-.63,1.07-1a9.41,9.41,0,0,0,1-1.14,10.63,10.63,0,0,0,1.41-2.53,7.09,7.09,0,0,0,.1-5,5.84,5.84,0,0,0-1.3-2.09,4.65,4.65,0,0,0-2.21-1.22,4.81,4.81,0,0,0-5.64,6.41,4.39,4.39,0,0,0,1.66,2.16,3.31,3.31,0,0,0,2.73.5,3.49,3.49,0,0,0,2.25-4.34,2.72,2.72,0,0,0-4-1.51,2.13,2.13,0,0,0-1,1.87,2.28,2.28,0,0,0,.93,1.82,1.88,1.88,0,0,0,.95.31,1.18,1.18,0,0,0,.83-.33,1.68,1.68,0,0,0,.51-1.65,1.08,1.08,0,0,0-.53-.67.22.22,0,0,0-.22.37Z"/><path class="cls-5" d="M145.12,1128.54l-1.05.29a9.09,9.09,0,0,1-1,.2,17.15,17.15,0,0,1-2.15.17c-1.54,0-3.07,0-4.61,0-.9,0-1.81,0-2.71.13a.17.17,0,0,0,0,.34,46.13,46.13,0,0,0,4.85,0,31,31,0,0,0,4.52-.22,9.22,9.22,0,0,0,1.16-.25,4.25,4.25,0,0,0,1.14-.48.15.15,0,0,0-.11-.27Z"/><path class="cls-5" d="M145.41,1130.45a13.6,13.6,0,0,0-1.57.3c-.53.1-1.05.2-1.57.28-1,.16-2.09.25-3.14.31a55.16,55.16,0,0,1-6.43-.08l-1.79-.11-.92-.07c-.31,0-.62-.06-.92,0a.38.38,0,0,0-.37.33.37.37,0,0,0,.27.41,13.3,13.3,0,0,0,1.67.16l1.61.11c1.08.07,2.17.11,3.25.13a38.35,38.35,0,0,0,6.51-.41c.59-.1,1.18-.2,1.76-.35.29-.08.58-.15.86-.24a5,5,0,0,0,.88-.35.2.2,0,0,0-.1-.37Z"/><path class="cls-5" d="M127.65,1132.61a3.13,3.13,0,0,0,.72.33c.24.06.5.1.75.15.51.1,1,.19,1.54.27,1,.17,2.09.29,3.14.38a50.62,50.62,0,0,0,6.28.19c.58,0,1.17-.06,1.75-.1l.85-.07.46,0a2.09,2.09,0,0,0,.49-.13.35.35,0,0,0,.24-.32.33.33,0,0,0-.24-.32c-.13,0-.27,0-.4,0a2.58,2.58,0,0,0-.39,0l-.8.07-1.53.1c-1,.05-2.08.07-3.13.08a42.08,42.08,0,0,1-6.14-.45l-1.73-.25-.88-.16a3,3,0,0,0-.9,0,.16.16,0,0,0-.08.29Z"/><path class="cls-5" d="M178,1080a5.65,5.65,0,0,0-1.16,1.23,6.21,6.21,0,0,0-.77,1.52,7,7,0,0,0-.3,3.39,6.14,6.14,0,0,0,.61,1.81.16.16,0,0,0,.2,0,.16.16,0,0,0,.05-.2,6.87,6.87,0,0,1-.53-3.17,7.57,7.57,0,0,1,.87-3.08A7,7,0,0,1,178,1080s0,0,0,0Z"/><path class="cls-7" d="M126,1079.94l0,0a28.89,28.89,0,0,0,3.78-14.92c0-.14-.06-3.07-.51-2.76-.09.07-.68.67-.57.78a3.37,3.37,0,0,0-.58-.48,3,3,0,0,0,.91-.82c.07-.08.19-.22.18-.33s-.18-.27-.26-.35a1.36,1.36,0,0,0-.36-.27s-.31-.18-.37-.15a4.25,4.25,0,0,0,.76-.58,1.91,1.91,0,0,0,.37.43.5.5,0,0,0,.25.13c.2,0,.34-.3.41-.44a1.31,1.31,0,0,0,.21-.64l.43.24a6.32,6.32,0,0,0,.6.25,2.18,2.18,0,0,0-.49.37c-.26.25-.37.47-.1.79l.19.16a4.07,4.07,0,0,0,1.45.59s.08,0,.09.06a.08.08,0,0,1,0,0,4,4,0,0,1-.4.58,1.56,1.56,0,0,1-.3.28l-.06,0a.66.66,0,0,1-.2-.24c-.16-.26-.42-.69-.77-.69l-.05,0a0,0,0,0,0,0,.06c.11.75.27,1.69.34,2.22a33.38,33.38,0,0,1-.86,13.26,28.67,28.67,0,0,1-1.13,3.39C128.78,1081.18,126.61,1080.9,126,1079.94Z"/><path class="cls-8" d="M127.31,1080.66a27.22,27.22,0,0,0,2.55-6.65,32.78,32.78,0,0,0,.76-11.51h0c.11.63.22,1.31.27,1.73a33.38,33.38,0,0,1-.86,13.26,28.67,28.67,0,0,1-1.13,3.39c-.07.18-.88.15-1.66-.11Z"/><path class="cls-9" d="M129.27,1061c-.18-3.2.43-11-2.55-12.88-3.6-2.32-7,1.14-6.5,5.1a11.57,11.57,0,0,0-3.79,1,3.69,3.69,0,0,0-1,5.36c1.82,2.73,9.22,1.21,13.83,1.41"/><path class="cls-10" d="M129.26,1061c-.12-2.27.3-7.77-1.81-9.14-2.54-1.65-5,.81-4.6,3.61a8.32,8.32,0,0,0-2.69.72,2.62,2.62,0,0,0-.7,3.8c1.29,1.93,6.53.87,9.8,1"/><path class="cls-7" d="M129.27,1061c-.07-1.33.16-4.53-1.08-5.33-1.49-1-2.92.48-2.69,2.12a4.52,4.52,0,0,0-1.57.42,1.52,1.52,0,0,0-.41,2.22c.75,1.13,3.84.49,5.75.57"/><path class="cls-9" d="M129,1062.08c-.21,3.15.32,10.73-2.61,12.71-3.53,2.39-6.88-.92-6.3-4.83a10.57,10.57,0,0,1-3.7-.89c-1.85-1-2.14-3.42-.93-5.25,1.8-2.73,10.09-2,13.54-1.74"/><path class="cls-10" d="M129,1062.08c-.16,2.34.24,8-1.94,9.44-2.62,1.77-5.11-.69-4.68-3.59a8,8,0,0,1-2.75-.66,2.67,2.67,0,0,1-.69-3.9c1.34-2,7.5-1.47,10.06-1.29"/><path class="cls-7" d="M129,1062.08c-.09,1.33.13,4.53-1.1,5.37-1.49,1-2.91-.39-2.67-2a5,5,0,0,1-1.56-.38,1.52,1.52,0,0,1-.39-2.22c.76-1.15,4.26-.83,5.72-.73"/><path class="cls-9" d="M130,1060.52c3-.42,10.9.61,12.88-2.33,2.39-3.55-1-7.07-5-6.58a11.3,11.3,0,0,0-1-3.81,3.69,3.69,0,0,0-5.35-1.08c-2.75,1.77-1.19,10-1.6,13.8"/><path class="cls-10" d="M129.94,1060.54c2.19-.3,8,.45,9.48-1.71,1.76-2.61-.75-5.2-3.67-4.84a8.41,8.41,0,0,0-.69-2.8,2.71,2.71,0,0,0-3.93-.8c-2,1.3-.88,7.38-1.19,10.15"/><path class="cls-7" d="M129.94,1060.54c1.27-.22,4.76.24,5.62-1,1-1.54-.44-3.07-2.17-2.86A5,5,0,0,0,133,1055a1.61,1.61,0,0,0-2.32-.47c-1.2.77-.53,4.39-.72,6"/><path class="cls-9" d="M131,1061.69c1.48,4.11.47,10.56,3.48,12.41,3.89,2.4,7.23-.78,5.84-5a10.3,10.3,0,0,0,3.57-1c1.74-1,1.85-3.46.53-5.21-2-2.62-10.05-1.52-13.42-1.14"/><path class="cls-10" d="M131,1061.69c1.09,3,.34,7.83,2.57,9.18,2.69,1.63,4.95-.89,4.32-3.72a7.66,7.66,0,0,0,2.64-.76,2.6,2.6,0,0,0,.39-3.86c-1.45-1.93-7.43-1.12-9.92-.84"/><path class="cls-7" d="M131,1061.68c.75,1.73.53,4.55,1.88,5.25,1.63.85,2.84-.7,2.37-2.32a4.42,4.42,0,0,0,1.51-.55,1.48,1.48,0,0,0,.08-2.25c-.93-1-4.42-.22-5.84-.13"/><path class="cls-2" d="M1628.21,95.09c-3.46,2.42-7.85,1.34-10.11-2.35-5.65-9.24,6.26-14.54,13.25-15.62,6-.92,17-3.45,22.22,1a8.25,8.25,0,0,1,2.66,6.59,13,13,0,0,1-.47,3.38,3.56,3.56,0,0,1-2.6,2.45,6.25,6.25,0,0,1-2.92,1c0,.14,2.41,13.12,2.68,17.71a53.88,53.88,0,0,1-2,18.09c-1,3.58-2.52,7.15-5.15,9.78A19.09,19.09,0,0,1,1636,142c-15.45,3.11-27.16-4.9-27.16-20.69a22.35,22.35,0,0,1,.56-4.55,24.25,24.25,0,0,1,1.64-5,15.55,15.55,0,0,1,2.55-4,4.52,4.52,0,0,1,3.43-1.64,6.84,6.84,0,0,1,3,.66,9.48,9.48,0,0,1,2.41,1.64,7.53,7.53,0,0,1,1.58,2.1,4.56,4.56,0,0,1,.56,2c0,3.51-1.74,10,4.26,9.88,3.44-.1,5.62-3.75,6.47-7.08,1.66-6.51.13-13-.86-19.47q-.36-2.35-.36-2.76Z"/><path class="cls-3" d="M1625.29,94.12c-3.46,2.42-7.85,1.34-10.11-2.36-5.65-9.24,6.25-14.53,13.25-15.61,6-.93,17-3.45,22.21,1a8.25,8.25,0,0,1,2.66,6.59,12.94,12.94,0,0,1-.46,3.37,3.6,3.6,0,0,1-2.61,2.46,6.34,6.34,0,0,1-2.91,1c0,.13,2.4,13.12,2.68,17.71a53.69,53.69,0,0,1-2,18.09c-1,3.57-2.51,7.14-5.15,9.77A19,19,0,0,1,1633,141c-15.45,3.11-27.16-4.89-27.16-20.68a21.51,21.51,0,0,1,.56-4.55,23.66,23.66,0,0,1,1.64-5,15.19,15.19,0,0,1,2.55-4,4.51,4.51,0,0,1,3.43-1.63,6.91,6.91,0,0,1,3,.66,9.18,9.18,0,0,1,2.4,1.64,7.73,7.73,0,0,1,1.59,2.09,4.7,4.7,0,0,1,.56,2c0,3.52-1.75,10.06,4.26,9.89,3.43-.1,5.62-3.76,6.47-7.09,1.65-6.5.13-13-.86-19.47q-.36-2.34-.36-2.76Z"/><path class="cls-4" d="M1636.29,83.81a3.65,3.65,0,0,0-1,2.18c0,.55,0,1.11,0,1.66,0,1.13.1,2.28.16,3.41a40.45,40.45,0,0,0,.4,4.39c.09.61.22,1.22.27,1.83,0-.15-.14-1.08,0-.19,0,.36.09.72.13,1.08.28,2.48.43,5,.56,7.46.06,1.14.08,2.29,0,3.44,0,.6,0,1.19-.08,1.79,0,.24,0,.48,0,.71s-.3,1.63-.06.69,0,.16-.06.32-.07.46-.12.69c-.1.58-.23,1.15-.37,1.72a30.32,30.32,0,0,1-1.12,3.5c-.28.75.6-1.29.08-.2-.11.21-.2.42-.31.63q-.39.8-.84,1.56c-.31.52-.64,1-1,1.51-.6.89.2-.31.22-.28a8.68,8.68,0,0,1-.85,1c-.39.42-.82.8-1.23,1.19-1,.88,1.08-.64,0,0-.21.13-.42.28-.64.41s-.56.29-.83.45c-.71.41,1.41-.47.21-.09l-.71.22c-.24.07-.49.12-.73.17.93-.1,1.16-.13.68-.09s-1.07,0-1.56,0c1.32-.17,1.24.21.45,0l-.57-.14c-.23-.07-.46-.17-.69-.23-.75-.2,1.53.77.58.23-.21-.12-.42-.24-.63-.34-1.2-.61,1,1,.28.24a30.12,30.12,0,0,1-2.26-2.26c-.13-.15-.24-.31-.38-.46,1.43,1.58.58.75.26.27a16,16,0,0,1-.85-1.44c-.31-.58-1-2.6-.23-.33-.15-.48-.36-1-.51-1.43a20.88,20.88,0,0,1-.8-3.5l.24,1.81c-.12-.94-.17-1.88-.27-2.81a7.36,7.36,0,0,0-2-4.75,6.74,6.74,0,0,0-9.5,0,7.81,7.81,0,0,0-2,4.75,16.86,16.86,0,0,0,.42,4.9,21,21,0,0,0,.91,3.48,27.91,27.91,0,0,0,4.8,8.52,16.51,16.51,0,0,0,18.18,4.67c6.85-2.75,11.22-9.32,13.28-16.2a39.77,39.77,0,0,0,.72-18.84,46.58,46.58,0,0,0-2.86-9.92c-.63-1.37-1.34-2.7-2-4-.83-1.55-1.88-3.37-3.62-3.92a2.09,2.09,0,0,0-2.1.55Z"/><path class="cls-4" d="M1648.86,80.62c-1.68-2-4.55-2.14-7-2.33-2.17-.17-4.36-.26-6.53-.32a97.41,97.41,0,0,0-13.34.55,7.4,7.4,0,0,0-4.53,1.88,6.44,6.44,0,0,0,.64,9.57c1.46,1.12,3.77,1.9,5.59,1.14a65.33,65.33,0,0,1,12.21-3.77c1-.19,2-.39,2.94-.52-.69.09,1-.1,1.15-.11l1.4-.13c2-.15,4,.08,6-.42,2.59-.66,3-3.71,1.46-5.54Z"/><path class="cls-5" d="M1643.59,107.54a12.93,12.93,0,0,1,.32,5.07c-.14,1.54-.31,3.07-.58,4.6a32.66,32.66,0,0,1-2.68,8.58,21.12,21.12,0,0,1-5.25,6.86,17.15,17.15,0,0,1-7.18,3.56,14.15,14.15,0,0,1-3.9.36,14.67,14.67,0,0,1-3.86-.71,8.74,8.74,0,0,1-.9-.33c-.27-.14-.51.27-.24.4s.61.33.93.48.66.28,1,.39a9.34,9.34,0,0,0,2,.47,13.88,13.88,0,0,0,4.17-.09,17.22,17.22,0,0,0,7.63-3.33,20.38,20.38,0,0,0,5.59-6.78,32.46,32.46,0,0,0,3-8.68c.3-1.5.52-3,.67-4.55a14.75,14.75,0,0,0-.24-5.09,8.7,8.7,0,0,0-.4-1.22s0,0,0,0Z"/><path class="cls-2" d="M1628.29,95.08c-3.45,2.41-7.82,1.34-10.07-2.34-5.63-9.21,6.23-14.48,13.19-15.55,6-.93,16.95-3.45,22.13,1a8.21,8.21,0,0,1,2.65,6.57,13,13,0,0,1-.46,3.36,3.56,3.56,0,0,1-2.59,2.44,6.38,6.38,0,0,1-2.91,1c0,.13,2.4,13.07,2.67,17.64a53.53,53.53,0,0,1-2,18c-1,3.56-2.5,7.12-5.13,9.73a19,19,0,0,1-9.77,4.8c-15.39,3.1-27.06-4.88-27.06-20.61a22.09,22.09,0,0,1,.56-4.53,24,24,0,0,1,1.63-4.94,15.06,15.06,0,0,1,2.55-4,4.47,4.47,0,0,1,3.41-1.63,6.83,6.83,0,0,1,3,.66,9.39,9.39,0,0,1,2.4,1.63,7.64,7.64,0,0,1,1.57,2.09,4.53,4.53,0,0,1,.56,2c0,3.5-1.74,10,4.24,9.85,3.43-.1,5.6-3.74,6.45-7.06,1.65-6.48.13-12.94-.86-19.39-.24-1.57-.36-2.48-.36-2.75Z"/><path class="cls-3" d="M1625.38,94.11c-3.45,2.41-7.82,1.34-10.07-2.34-5.63-9.21,6.23-14.48,13.19-15.55,6-.93,17-3.45,22.13,1a8.21,8.21,0,0,1,2.65,6.57,13,13,0,0,1-.46,3.36,3.56,3.56,0,0,1-2.6,2.44,6.32,6.32,0,0,1-2.9,1c0,.13,2.4,13.06,2.67,17.64a53.53,53.53,0,0,1-2,18c-1,3.56-2.5,7.12-5.13,9.73a19,19,0,0,1-9.77,4.8c-15.39,3.1-27.06-4.88-27.06-20.61a22.09,22.09,0,0,1,.56-4.53,24,24,0,0,1,1.63-4.94,15.06,15.06,0,0,1,2.55-4,4.47,4.47,0,0,1,3.41-1.63,6.86,6.86,0,0,1,3,.66,9.34,9.34,0,0,1,2.39,1.63,7.49,7.49,0,0,1,1.58,2.09,4.66,4.66,0,0,1,.56,2c0,3.5-1.74,10,4.24,9.85,3.43-.1,5.6-3.74,6.45-7.06,1.65-6.48.13-12.94-.86-19.39-.24-1.57-.36-2.48-.36-2.75Z"/><path class="cls-4" d="M1636.33,83.85a3.68,3.68,0,0,0-1,2.17c0,.54,0,1.1,0,1.65,0,1.13.1,2.27.16,3.4a42.72,42.72,0,0,0,.39,4.37c.1.6.23,1.22.27,1.82,0-.14-.13-1.08,0-.19,0,.36.09.72.13,1.08.28,2.47.42,4.95.55,7.43.06,1.14.08,2.28.06,3.43,0,.59,0,1.19-.09,1.78,0,.24,0,.47,0,.71s-.3,1.62-.06.68,0,.17-.05.32l-.12.69c-.11.58-.23,1.15-.37,1.71a34.59,34.59,0,0,1-1.12,3.49c-.28.75.59-1.28.08-.2-.11.21-.2.42-.31.63-.26.53-.54,1-.84,1.55s-.64,1-1,1.51c-.59.89.2-.31.23-.28a11.11,11.11,0,0,1-.85,1c-.39.42-.81.79-1.23,1.18-.95.88,1.08-.64,0,0-.22.13-.42.28-.64.41s-.56.29-.83.44c-.71.41,1.41-.46.21-.09l-.71.23c-.24.06-.48.12-.73.16l.68-.08c-.49,0-1.06-.06-1.55,0,1.31-.18,1.24.21.44,0a5.12,5.12,0,0,1-.56-.15c-.23-.06-.46-.17-.69-.23-.75-.19,1.52.77.58.24l-.63-.35c-1.19-.6,1,1,.28.25s-1.56-1.45-2.25-2.25c-.13-.15-.24-.31-.37-.46,1.41,1.57.57.75.25.26s-.59-.94-.85-1.42-1-2.6-.22-.33c-.16-.48-.36-1-.52-1.43a21.77,21.77,0,0,1-.79-3.49l.24,1.8c-.12-.93-.17-1.86-.27-2.79a7.33,7.33,0,0,0-2-4.73,6.69,6.69,0,0,0-9.46,0,7.73,7.73,0,0,0-2,4.73,17.1,17.1,0,0,0,.42,4.88,21,21,0,0,0,.91,3.46,27.5,27.5,0,0,0,4.78,8.49A16.44,16.44,0,0,0,1633,136c6.83-2.75,11.18-9.29,13.24-16.15a39.69,39.69,0,0,0,.71-18.76,46.46,46.46,0,0,0-2.85-9.89c-.62-1.36-1.33-2.69-2-4-.82-1.54-1.87-3.36-3.61-3.91a2.1,2.1,0,0,0-2.09.56Z"/><path class="cls-4" d="M1648.86,80.66c-1.68-2-4.54-2.12-6.94-2.31-2.16-.17-4.34-.27-6.51-.32a98.2,98.2,0,0,0-13.28.54,7.38,7.38,0,0,0-4.52,1.88,6.13,6.13,0,0,0-1.75,5.36,6,6,0,0,0,2.4,4.17c1.45,1.12,3.75,1.89,5.57,1.14A64.72,64.72,0,0,1,1636,87.36c1-.19,2-.38,2.93-.52-.68.1,1-.09,1.15-.11l1.39-.12c2-.16,4,.08,6-.42,2.58-.66,3-3.69,1.46-5.53Z"/><path class="cls-6" d="M1608.27,83.37s2.82-2.81,5.59-2.32,4.45,4.1,4.45,4.1-2.82,2.81-5.59,2.32S1608.27,83.37,1608.27,83.37Z"/><path class="cls-7" d="M1611.29,83.92s2-1.66,3.92-1.32,3.08,2.55,3.08,2.55-2,1.66-3.92,1.32S1611.29,83.92,1611.29,83.92Z"/><path class="cls-6" d="M1619.63,83.76a6.55,6.55,0,0,1-1.76-1.69,5.82,5.82,0,0,1,1.92-8.88,6.47,6.47,0,0,1,2.3-.8s.32,1,.63,2.23a9.19,9.19,0,0,1,.35,3.93,9.14,9.14,0,0,1-1.94,3.43C1620.34,83,1619.63,83.76,1619.63,83.76Z"/><path class="cls-7" d="M1619.29,84.1a4.41,4.41,0,0,1-1.15-1.11,4.09,4.09,0,0,1-.77-3.22,4,4,0,0,1,2-2.61,4.31,4.31,0,0,1,1.51-.53s.21.66.41,1.46a5.8,5.8,0,0,1,.23,2.58,6,6,0,0,1-1.27,2.26C1619.76,83.58,1619.29,84.1,1619.29,84.1Z"/><path class="cls-6" d="M1615.88,80.2a6,6,0,0,1-1.6.12,4.12,4.12,0,0,1-4.22-4,6.07,6.07,0,0,1,0-1.6,9.41,9.41,0,0,1,1.58.12,5.16,5.16,0,0,1,2.68,1.16,5.06,5.06,0,0,1,1.32,2.6A9.46,9.46,0,0,1,1615.88,80.2Z"/><path class="cls-7" d="M1615.55,80.53a4.41,4.41,0,0,1-1.1.08,2.84,2.84,0,0,1-2.89-2.72,4.4,4.4,0,0,1,0-1.1,6.49,6.49,0,0,1,1.08.09,3.46,3.46,0,0,1,1.84.79,3.54,3.54,0,0,1,.91,1.78A7.07,7.07,0,0,1,1615.55,80.53Z"/><path class="cls-5" d="M1643.61,107.48a13,13,0,0,1,.32,5c-.15,1.54-.31,3.07-.58,4.59a32,32,0,0,1-2.68,8.54,20.78,20.78,0,0,1-5.22,6.83,16.9,16.9,0,0,1-7.15,3.55,14.08,14.08,0,0,1-3.89.36,14.28,14.28,0,0,1-3.85-.71,7.34,7.34,0,0,1-.89-.33c-.27-.13-.51.27-.24.41s.61.33.93.47.65.27,1,.39a10.87,10.87,0,0,0,2,.47,14.15,14.15,0,0,0,4.16-.09,17.09,17.09,0,0,0,7.6-3.32,20.44,20.44,0,0,0,5.57-6.75,32.22,32.22,0,0,0,3-8.65,43,43,0,0,0,.67-4.53,14.7,14.7,0,0,0-.24-5.08,9,9,0,0,0-.39-1.21s0,0,0,0Z"/><path class="cls-2" d="M1696.59,101.59c.62-1.49,1.18-2.93,1.69-4.31a108.07,108.07,0,0,1,7.21-15.46c2-3.45,5.09-6.63,9-7,3.38-.35,6.71,1.47,8.9,4.07,4.85,5.74,5.24,13.6,5.71,20.73.75,11.55,1.78,23.22,2.19,34.78.09,2.41-.37,5-2,6.73a7.59,7.59,0,0,1-5.62,2.06c-9-.18-11.68-8.34-11.86-16.12-.16-7-.77-24-.91-26-.2,0-3.68,9.8-3.68,9.8l-1,3.3c-1.12,3.64-1.94,7.75-3.85,11.08-4.26,7.43-12.44,6.55-15.36-1.37-1.66-4.49-4-15.25-4.89-15.89-3.11,21.81,2.12,28-1.23,32.85a6.9,6.9,0,0,1-3.57,2.44c-17.88,5.89-15.12-21.81-13.51-30.83a145.11,145.11,0,0,1,5.3-19.87c1.49-4.47,2.54-11.75,7-14.34,3.75-2.18,9.73-2.37,12.9,1,1.85,1.94,5.42,24,5.89,24h1Z"/><path class="cls-3" d="M1693.55,101.59c.61-1.49,1.17-2.93,1.68-4.31a108.13,108.13,0,0,1,7.22-15.46c2-3.45,5.08-6.63,9-7,3.37-.35,6.71,1.47,8.9,4.07,4.85,5.74,5.24,13.6,5.71,20.73.75,11.55,1.78,23.22,2.19,34.78.08,2.41-.37,5-2,6.73a7.57,7.57,0,0,1-5.62,2.06c-9-.18-11.68-8.34-11.85-16.12-.16-7-.78-24-.91-26-.21,0-3.68,9.8-3.68,9.8l-1,3.3c-1.12,3.64-2,7.75-3.85,11.08-4.27,7.43-12.44,6.55-15.36-1.37-1.66-4.49-4-15.25-4.89-15.89-3.11,21.81,2.12,28-1.24,32.85a6.87,6.87,0,0,1-3.56,2.44c-17.88,5.89-15.13-21.81-13.51-30.83a143.69,143.69,0,0,1,5.3-19.87c1.48-4.47,2.53-11.75,7-14.34,3.75-2.18,9.74-2.37,12.9,1,1.85,1.94,5.43,24,5.89,24h1Z"/><path class="cls-4" d="M1721.67,135.82c1.86-1.34,2.28-3.86,2.69-6a36.93,36.93,0,0,0,.47-7.28c0-4.32-.23-8.57-.53-12.88a94.8,94.8,0,0,0-1.69-13.74,58.26,58.26,0,0,0-1.57-5.83c-1-2.94-1.83-6.14-4.63-7.83a6,6,0,0,0-8.71,3.54c-.79,2.86.57,5.39,1.35,8.07q.78,2.68,1.31,5.43a19,19,0,0,1,.48,2.88c-.06-1.62,0-.11,0,.28.13,1,.25,2,.39,2.94,0,.19.27,1.84.13.88-.07-.52-.06-.47,0,.14,0,.34.09.67.13,1,.12,1,.25,2,.37,3,.57,4.56,1.22,9.07,2.09,13.58a31.17,31.17,0,0,0,1.45,5.82c.77,1.9,1.65,5.07,3.68,6a2.53,2.53,0,0,0,2.54,0Z"/><path class="cls-4" d="M1675.83,85.9c-3.43,2.76-4.8,6.9-6.13,10.94a81.58,81.58,0,0,0-3,11.9,119.67,119.67,0,0,0-1.72,13.33c-.11,2.09-.06,4.2,0,6.3,0,1,0,1.93.08,2.9a8,8,0,0,0,2.34,5.91c2,2,5.92,2.33,7.93,0a7.61,7.61,0,0,0,2.2-5.66c0-1.05,0-2.1,0-3.15,0-1.94,0-3.88.07-5.82.07-4.11,0-8.21.18-12.32s.41-8,.67-12a43.74,43.74,0,0,0,.41-5.92,20.6,20.6,0,0,0-1-5.94,1.16,1.16,0,0,0-1.91-.5Z"/><path class="cls-4" d="M1704.2,93.87a9.49,9.49,0,0,0-1.86,2.09c-.54.89-.95,1.85-1.45,2.76s-1.12,1.74-1.58,2.66a21.85,21.85,0,0,0-1.15,3.14,31,31,0,0,1-2.26,5.57,26.6,26.6,0,0,0-1.54,3.34c-.11.29-.22.57-.34.85l-.12.3c-.17.37-.41.72-.56,1.09s-.12.21.15-.15c-.55.5-.27.38.82-.37a2.73,2.73,0,0,1,2.45.72q-.45-.48-.09-.06c.36.57-.3-.7-.36-.82-.21-.42-.43-.84-.63-1.27-.1-.22-.74-1.71-.29-.6-.19-.48-.38-1-.56-1.45-.37-1-.7-2-1-3-.6-2-1.14-4-1.8-6-.19-.53-.41-1-.65-1.56.27.66.29.69,0,.1a12.59,12.59,0,0,0-1-2.23,18.39,18.39,0,0,0-2.41-2.72,3.42,3.42,0,0,0-5.31.68,11.38,11.38,0,0,0-1.85,6.59,20.73,20.73,0,0,0,1.48,6.72,50.76,50.76,0,0,0,3,6.18c1,1.75,2.12,3.88,3.7,5.17,2,1.66,4.52,2.76,7.17,2.07s4.1-2.73,5-5.11a20.47,20.47,0,0,0,1.26-6.06c0-1,0-1.93,0-2.87a26.35,26.35,0,0,1,.42-2.64c.2-1.13.44-2.26.62-3.39a29.54,29.54,0,0,0,.17-3.26,19.15,19.15,0,0,1,.49-3.17,17.46,17.46,0,0,0,.27-3.23.1.1,0,0,0-.16-.07Z"/><path class="cls-6" d="M1713.82,75.42a5.67,5.67,0,0,1-1.48-.67,3.59,3.59,0,0,1-1.72-2.42,3.53,3.53,0,0,1,1.07-2.77,5.57,5.57,0,0,1,1.26-1,14.88,14.88,0,0,1,1.21,1,4,4,0,0,1,1.36,2.14,3.94,3.94,0,0,1-.79,2.42A14.72,14.72,0,0,1,1713.82,75.42Z"/><path class="cls-7" d="M1713.79,75.42a3.33,3.33,0,0,1-.89-.41,1.9,1.9,0,0,1-.4-3.14,3.33,3.33,0,0,1,.77-.62,7.35,7.35,0,0,1,.73.62,1.8,1.8,0,0,1,.35,2.76A7.7,7.7,0,0,1,1713.79,75.42Z"/><path class="cls-6" d="M1716,75.77a9.05,9.05,0,0,1,.54-2.16,8.63,8.63,0,0,1,2.7-3.87,8.81,8.81,0,0,1,4.4-1.71,9.58,9.58,0,0,1,2.23,0,13.39,13.39,0,0,1-.83,2,9.21,9.21,0,0,1-6.86,5.38A13.77,13.77,0,0,1,1716,75.77Z"/><path class="cls-7" d="M1716,75.77a6.66,6.66,0,0,1,.38-1.53,6.08,6.08,0,0,1,1.91-2.73,6.2,6.2,0,0,1,3.1-1.2,6.76,6.76,0,0,1,1.58,0,10.41,10.41,0,0,1-.59,1.44,7.32,7.32,0,0,1-1.94,2.51,7.41,7.41,0,0,1-2.9,1.28A9.7,9.7,0,0,1,1716,75.77Z"/><path class="cls-6" d="M1717.77,76.52s2.82-1.69,5.35-.87,3.82,3.84,3.82,3.84-2.81,1.69-5.35.87S1717.77,76.52,1717.77,76.52Z"/><path class="cls-7" d="M1717.77,76.52a4.08,4.08,0,0,1,6.29,2,4.06,4.06,0,0,1-6.29-2Z"/><path class="cls-6" d="M1716.51,76.88s-.45,3.05-2.46,4.13-4.8-.21-4.8-.21.45-3,2.45-4.13S1716.51,76.88,1716.51,76.88Z"/><path class="cls-7" d="M1716.53,76.87s-.32,2.33-1.86,3.16-3.71-.15-3.71-.15.32-2.32,1.86-3.15S1716.53,76.87,1716.53,76.87Z"/><path class="cls-5" d="M1715.28,87.5a.91.91,0,0,1,.21,1.19,1.1,1.1,0,0,1-.44.51.73.73,0,0,1-.63,0,1.72,1.72,0,0,1-.56-2.69,1.7,1.7,0,0,1,.78-.42,2.38,2.38,0,0,1,.92,0,2.23,2.23,0,0,1,.88.38,2.56,2.56,0,0,1,.33.33,1.86,1.86,0,0,1,.27.45,2.7,2.7,0,0,1-1.51,3.56l-.26.08-.26,0h-.5s0,0,0,0a2.64,2.64,0,0,1-1.06-.41,3.37,3.37,0,0,1-.87-.78s0,0,0,0l0-.06-.08-.1a2.26,2.26,0,0,1-.16-.26c0-.08-.09-.16-.13-.24l-.06-.12,0-.06c0-.06,0,.06,0,0a5.05,5.05,0,0,1-.18-.55l-.06-.25s0-.09,0-.13,0-.18,0-.09a4.66,4.66,0,0,1,0-1.12s0-.08,0,0,0,0,0,0l0-.13a1.31,1.31,0,0,1,.06-.27,3.5,3.5,0,0,1,.17-.55l0-.06s0,.06,0,0l.06-.12a2.15,2.15,0,0,1,.14-.26,1.88,1.88,0,0,1,.14-.24l.08-.11,0,0,0,0s0,0,0,0l.06-.07.08-.09.19-.2.2-.18.1-.08.07,0a4.34,4.34,0,0,1,.46-.28l.22-.11.14-.06c.05,0,0,0,0,0l.08,0,.52-.17.26-.06.13,0h.62a3.25,3.25,0,0,1,.54,0h.07s-.08,0,0,0l.15,0a2,2,0,0,1,.26.06,3.09,3.09,0,0,1,.54.17l0,0,.11,0,.26.14a3,3,0,0,1,.44.29l0,0,.11.09.2.17q.18.18.36.39l.09.11h0l0,0,.16.24a3.47,3.47,0,0,1,.27.46,1.75,1.75,0,0,1,.11.24c0,.06,0,0,0,0a.78.78,0,0,0,0,.14c.06.17.12.34.17.51s.09.37.13.55a4.64,4.64,0,0,1,.07.48,6.61,6.61,0,0,1,0,1.09,6.19,6.19,0,0,1-.18,1.09,8.5,8.5,0,0,1-1,2.32,20.78,20.78,0,0,1-1.51,2.11c-.25.33-.51.65-.78,1a.22.22,0,0,0,.32.31c.36-.31.72-.63,1.07-1a9.32,9.32,0,0,0,1-1.13,11.27,11.27,0,0,0,1.41-2.54,7.14,7.14,0,0,0,.1-5,6,6,0,0,0-1.31-2.09,4.48,4.48,0,0,0-2.2-1.21,4.79,4.79,0,0,0-5.64,6.4,4.34,4.34,0,0,0,1.66,2.16,3.36,3.36,0,0,0,2.73.51,3.52,3.52,0,0,0,2.25-4.35,2.73,2.73,0,0,0-4-1.51,2.13,2.13,0,0,0-1,1.87,2.28,2.28,0,0,0,.93,1.82,1.88,1.88,0,0,0,1,.31,1.17,1.17,0,0,0,.82-.32,1.73,1.73,0,0,0,.52-1.66,1.15,1.15,0,0,0-.53-.67.22.22,0,0,0-.22.37Z"/><path class="cls-5" d="M1678.29,131.14c-.34.11-.69.2-1,.29a9.58,9.58,0,0,1-1,.21,19.44,19.44,0,0,1-2.15.16c-1.54,0-3.08,0-4.61,0-.91,0-1.81,0-2.71.13a.18.18,0,0,0,0,.35c1.6.14,3.23.06,4.84,0a31,31,0,0,0,4.52-.22,9,9,0,0,0,1.17-.25,4.73,4.73,0,0,0,1.14-.47.15.15,0,0,0-.12-.28Z"/><path class="cls-5" d="M1678.58,133.06a14.41,14.41,0,0,0-1.57.29l-1.57.29c-1,.16-2.09.24-3.14.3a55.19,55.19,0,0,1-6.43-.08l-1.79-.11-.92-.06a5.62,5.62,0,0,0-.92-.05.38.38,0,0,0-.37.32.39.39,0,0,0,.27.42,13.44,13.44,0,0,0,1.68.15l1.61.11c1.08.07,2.16.12,3.25.13a36.39,36.39,0,0,0,6.51-.41c.59-.1,1.18-.2,1.76-.35.28-.07.57-.14.85-.24a5.17,5.17,0,0,0,.88-.34.2.2,0,0,0-.1-.37Z"/><path class="cls-5" d="M1660.83,135.22a3.5,3.5,0,0,0,.71.32,7.11,7.11,0,0,0,.75.15l1.54.28c1,.16,2.09.28,3.14.37a49,49,0,0,0,6.29.19c.58,0,1.16-.06,1.74-.1l.86-.07.46-.05a1.63,1.63,0,0,0,.48-.13.33.33,0,0,0,.24-.32.32.32,0,0,0-.24-.31,2.44,2.44,0,0,0-.39-.06c-.13,0-.27,0-.4,0l-.79.07-1.53.1c-1,.05-2.09.07-3.13.08a43.51,43.51,0,0,1-6.14-.44c-.58-.08-1.16-.16-1.73-.26l-.88-.15a3,3,0,0,0-.9,0,.16.16,0,0,0-.08.3Z"/><path class="cls-5" d="M1711.17,82.55a5.88,5.88,0,0,0-1.16,1.23,6.21,6.21,0,0,0-.77,1.52,7,7,0,0,0-.3,3.39,5.87,5.87,0,0,0,.61,1.81.15.15,0,0,0,.2,0,.16.16,0,0,0,0-.2,6.87,6.87,0,0,1-.53-3.17,7.62,7.62,0,0,1,1.93-4.6s0,0,0,0Z"/><path class="cls-7" d="M1659.13,82.55l0,0a29.08,29.08,0,0,0,3.78-14.92c0-.13-.07-3.07-.51-2.75-.09.06-.68.66-.57.77a3.79,3.79,0,0,0-.58-.48,3.23,3.23,0,0,0,.91-.82c.07-.08.19-.21.17-.33s-.17-.27-.25-.35a1.88,1.88,0,0,0-.36-.27c-.06,0-.32-.18-.38-.14a4.91,4.91,0,0,0,.77-.59,1.69,1.69,0,0,0,.37.43.41.41,0,0,0,.25.13c.19,0,.33-.3.41-.44a1.3,1.3,0,0,0,.2-.63l.43.23a6.5,6.5,0,0,0,.61.25,2.29,2.29,0,0,0-.49.38c-.27.24-.38.46-.1.78a1,1,0,0,0,.19.16,4,4,0,0,0,1.45.59s.08,0,.08.07a.17.17,0,0,1,0,0,4.52,4.52,0,0,1-.39.58,2.49,2.49,0,0,1-.31.27,0,0,0,0,1,0,0,.66.66,0,0,1-.2-.24c-.16-.26-.43-.68-.78-.68h0a.11.11,0,0,0,0,.06c.12.75.28,1.69.35,2.22a33.55,33.55,0,0,1-.86,13.26,29.44,29.44,0,0,1-1.13,3.4C1662,83.78,1659.78,83.5,1659.13,82.55Z"/><path class="cls-8" d="M1660.49,83.27a27.42,27.42,0,0,0,2.54-6.66,32.78,32.78,0,0,0,.77-11.51h0c.1.64.21,1.31.27,1.73a33.55,33.55,0,0,1-.86,13.26,29.44,29.44,0,0,1-1.13,3.4c-.07.17-.88.14-1.66-.12A.61.61,0,0,1,1660.49,83.27Z"/><path class="cls-9" d="M1662.45,63.63c-.18-3.2.42-11-2.56-12.88-3.59-2.32-7,1.15-6.49,5.1a11.51,11.51,0,0,0-3.79,1,3.7,3.7,0,0,0-1,5.37c1.82,2.72,9.21,1.2,13.83,1.4"/><path class="cls-10" d="M1662.44,63.63c-.13-2.27.3-7.77-1.81-9.14-2.55-1.64-5,.81-4.6,3.62a8,8,0,0,0-2.69.71,2.62,2.62,0,0,0-.7,3.81c1.29,1.93,6.53.86,9.8,1"/><path class="cls-7" d="M1662.45,63.63c-.08-1.33.16-4.53-1.08-5.33-1.49-1-2.92.48-2.69,2.12a4.57,4.57,0,0,0-1.58.42,1.53,1.53,0,0,0-.41,2.22c.76,1.13,3.84.49,5.76.57"/><path class="cls-9" d="M1662.13,64.68c-.2,3.15.33,10.73-2.6,12.71-3.53,2.39-6.88-.92-6.31-4.83a10.67,10.67,0,0,1-3.7-.89c-1.84-1-2.13-3.42-.92-5.25,1.8-2.73,10.09-2,13.53-1.74"/><path class="cls-10" d="M1662.13,64.68c-.15,2.34.25,8-1.93,9.44-2.62,1.78-5.11-.68-4.68-3.59a7.81,7.81,0,0,1-2.75-.66,2.66,2.66,0,0,1-.69-3.89c1.34-2,7.5-1.48,10.05-1.3"/><path class="cls-7" d="M1662.13,64.68c-.08,1.33.14,4.53-1.1,5.37-1.49,1-2.9-.39-2.66-2a4.36,4.36,0,0,1-1.56-.38,1.51,1.51,0,0,1-.39-2.21c.76-1.16,4.26-.84,5.71-.74"/><path class="cls-9" d="M1663.13,63.12c3-.41,10.91.62,12.89-2.33,2.38-3.55-1-7.06-5-6.58a11.34,11.34,0,0,0-.94-3.81,3.69,3.69,0,0,0-5.35-1.08c-2.75,1.77-1.19,10-1.61,13.8"/><path class="cls-10" d="M1663.12,63.14c2.19-.3,8,.46,9.48-1.71,1.75-2.61-.75-5.2-3.67-4.84a8.18,8.18,0,0,0-.7-2.8,2.71,2.71,0,0,0-3.93-.8c-2,1.31-.87,7.38-1.18,10.15"/><path class="cls-7" d="M1663.12,63.14c1.27-.22,4.76.25,5.62-1,1-1.54-.45-3.07-2.17-2.86a4.88,4.88,0,0,0-.41-1.65,1.6,1.6,0,0,0-2.33-.47c-1.19.77-.53,4.38-.71,6"/><path class="cls-9" d="M1664.22,64.29c1.48,4.11.47,10.57,3.47,12.42,3.9,2.39,7.23-.79,5.85-5a10.44,10.44,0,0,0,3.57-1c1.74-1,1.84-3.46.53-5.21-2-2.61-10.06-1.52-13.42-1.14"/><path class="cls-10" d="M1664.22,64.29c1.09,3,.33,7.83,2.57,9.18,2.69,1.63,5-.89,4.32-3.72a7.45,7.45,0,0,0,2.64-.76,2.59,2.59,0,0,0,.39-3.85c-1.46-1.94-7.44-1.13-9.92-.85"/><path class="cls-7" d="M1664.18,64.28c.75,1.73.53,4.55,1.88,5.25,1.62.85,2.84-.7,2.37-2.32a4.56,4.56,0,0,0,1.5-.54,1.49,1.49,0,0,0,.09-2.26c-.94-.95-4.42-.21-5.84-.13"/><path class="cls-11" d="M1718.23,1174.45H81.77A41.82,41.82,0,0,1,40,1132.68V67.32A41.82,41.82,0,0,1,81.77,25.55H1718.23A41.82,41.82,0,0,1,1760,67.32V1132.68A41.82,41.82,0,0,1,1718.23,1174.45ZM81.77,35.55A31.8,31.8,0,0,0,50,67.32V1132.68a31.8,31.8,0,0,0,31.77,31.77H1718.23a31.8,31.8,0,0,0,31.77-31.77V67.32a31.8,31.8,0,0,0-31.77-31.77Z"/><text class="cls-12" transform="translate(89.5 278.96)">Encouraging honesty with kindness</text><path class="cls-7" d="M102.48,147.12l.07-.09c10.15-17.14,10-33.73,10.12-39.92,0-.37-.18-8.22-1.37-7.38-.25.18-1.82,1.77-1.53,2.08a8.7,8.7,0,0,0-1.54-1.3,8.07,8.07,0,0,0,2.43-2.19c.19-.22.5-.57.46-.88s-.46-.72-.67-.93a4.57,4.57,0,0,0-1-.73c-.15-.08-.85-.48-1-.39a12.38,12.38,0,0,0,2-1.56,5.21,5.21,0,0,0,1,1.16,1.15,1.15,0,0,0,.67.33c.52,0,.89-.79,1.11-1.16a3.74,3.74,0,0,0,.54-1.71s1,.58,1.15.63c.53.25,1.06.47,1.61.67a6,6,0,0,0-1.3,1c-.72.65-1,1.25-.28,2.1a2.77,2.77,0,0,0,.53.43,10.79,10.79,0,0,0,3.86,1.58c.1,0,.23.07.23.17a.19.19,0,0,1,0,.14,10.35,10.35,0,0,1-1.06,1.55,4.62,4.62,0,0,1-.82.73s-.1,0-.15,0a1.88,1.88,0,0,1-.53-.65c-.42-.7-1.14-1.83-2.07-1.83a.21.21,0,0,0-.13,0,.17.17,0,0,0,0,.16c.31,2,.73,4.53.92,6a89.42,89.42,0,0,1-2.31,35.47,78,78,0,0,1-3,9.09C110,150.43,104.22,149.69,102.48,147.12Z"/><path class="cls-8" d="M106.1,149.05a72.27,72.27,0,0,0,6.81-17.81,87.54,87.54,0,0,0,2.06-30.8c.27,0-.26,0,0,0,.27,1.7.57,3.51.72,4.64a89.42,89.42,0,0,1-2.31,35.47,78,78,0,0,1-3,9.09c-.2.47-2.37.39-4.45-.3Z"/><path class="cls-9" d="M111.35,96.5c-.48-8.56,1.14-29.3-6.84-34.46C94.9,55.82,85.66,65.1,87.14,75.68,83.84,76.11,80,76.8,77,78.39c-5.06,2.74-5.91,9.48-2.65,14.36C79.21,100,99,96,111.35,96.5"/><path class="cls-10" d="M111.33,96.51c-.34-6.07.8-20.8-4.85-24.46-6.81-4.41-13.36,2.17-12.31,9.67A21.41,21.41,0,0,0,87,83.64c-3.6,1.94-4.19,6.72-1.88,10.18,3.45,5.16,17.48,2.31,26.23,2.69"/><path class="cls-7" d="M111.35,96.5c-.2-3.55.42-12.11-2.88-14.25-4-2.58-7.82,1.27-7.21,5.65A12.76,12.76,0,0,0,97.05,89C95,90.16,94.6,93,96,95c2,3,10.28,1.3,15.4,1.52"/><path class="cls-9" d="M110.51,99.31c-.55,8.44.88,28.72-7,34-9.46,6.39-18.42-2.47-16.89-12.93-3.23-.33-7-.9-9.9-2.38-4.94-2.54-5.71-9.16-2.48-14,4.83-7.31,27-5.3,36.23-4.67"/><path class="cls-10" d="M110.51,99.31c-.41,6.27.65,21.33-5.17,25.27-7,4.75-13.68-1.83-12.54-9.6a21.35,21.35,0,0,1-7.35-1.77c-3.67-1.89-4.24-6.8-1.84-10.43,3.58-5.43,20.06-3.94,26.9-3.47"/><path class="cls-7" d="M110.51,99.31c-.23,3.57.37,12.13-2.94,14.37-4,2.7-7.78-1.05-7.13-5.46a12.15,12.15,0,0,1-4.18-1c-2.08-1.07-2.41-3.86-1-5.93,2-3.08,11.4-2.23,15.29-2"/><path class="cls-9" d="M113.19,95.14c8-1.11,29.19,1.65,34.48-6.24,6.38-9.5-2.74-18.9-13.34-17.6-.37-3.31-1-7.22-2.54-10.19-2.64-5.12-9.37-6.08-14.3-2.9-7.37,4.74-3.19,26.84-4.3,36.93"/><path class="cls-10" d="M113.15,95.2c5.85-.82,21.47,1.21,25.36-4.59,4.7-7-2-13.9-9.81-13a22.41,22.41,0,0,0-1.86-7.49c-2-3.77-6.9-4.47-10.53-2.13-5.42,3.48-2.34,19.74-3.16,27.16"/><path class="cls-7" d="M113.15,95.2c3.39-.6,12.73.65,15-2.78,2.78-4.14-1.18-8.22-5.8-7.66a13.18,13.18,0,0,0-1.1-4.43c-1.15-2.23-4.08-2.65-6.22-1.26-3.21,2.06-1.42,11.74-1.91,16.13"/><path class="cls-9" d="M116.1,98.28c4,11,1.25,28.27,9.29,33.22,10.41,6.41,19.35-2.11,15.64-13.46,3.15-.46,6.84-1.19,9.55-2.77,4.66-2.72,4.94-9.26,1.42-14-5.27-7-26.91-4.06-35.9-3"/><path class="cls-10" d="M116.09,98.28c2.92,8.13.9,21,6.87,24.57,7.21,4.36,13.25-2.39,11.57-10a20.21,20.21,0,0,0,7.06-2c3.45-2,3.65-6.85,1-10.31-3.9-5.17-19.9-3-26.55-2.25"/><path class="cls-7" d="M116,98.25c2,4.62,1.41,12.17,5,14,4.35,2.26,7.6-1.88,6.35-6.22a11.88,11.88,0,0,0,4-1.45c1.93-1.3,2-4.24.22-6-2.49-2.54-11.83-.58-15.61-.34"/><path class="cls-7" d="M1675.93,1143.88l.07-.09c10.15-17.15,10-33.74,10.11-39.92,0-.37-.18-8.22-1.36-7.38-.25.18-1.83,1.77-1.54,2.07a9.08,9.08,0,0,0-1.54-1.29,8.08,8.08,0,0,0,2.43-2.19c.19-.22.51-.57.47-.89s-.47-.71-.68-.92a4.27,4.27,0,0,0-1-.73c-.15-.08-.85-.48-1-.39a12.46,12.46,0,0,0,2-1.56,4.72,4.72,0,0,0,1,1.15,1.17,1.17,0,0,0,.66.34c.52,0,.9-.79,1.11-1.16a3.52,3.52,0,0,0,.54-1.72s1,.59,1.15.64c.53.25,1.07.47,1.62.67a6.32,6.32,0,0,0-1.31,1c-.71.65-1,1.25-.27,2.1a2.71,2.71,0,0,0,.52.43,10.84,10.84,0,0,0,3.87,1.58c.1,0,.22.07.23.17a.22.22,0,0,1-.06.13,10.64,10.64,0,0,1-1,1.56,5.45,5.45,0,0,1-.82.73.17.17,0,0,1-.15,0,2.13,2.13,0,0,1-.54-.65c-.41-.71-1.13-1.84-2.06-1.83a.18.18,0,0,0-.13,0,.17.17,0,0,0-.06.16c.31,2,.74,4.53.93,5.95a89.46,89.46,0,0,1-2.32,35.48,75,75,0,0,1-3,9.09C1683.48,1147.18,1677.67,1146.45,1675.93,1143.88Z"/><path class="cls-8" d="M1679.54,1145.81a72.77,72.77,0,0,0,6.82-17.82,87.74,87.74,0,0,0,2.06-30.8c.26,0-.27,0,0,0,.27,1.71.57,3.51.72,4.64a89.46,89.46,0,0,1-2.32,35.48,75,75,0,0,1-3,9.09c-.2.47-2.36.39-4.44-.3C1679.42,1146,1679.49,1145.91,1679.54,1145.81Z"/><path class="cls-9" d="M1684.8,1093.26c-.49-8.56,1.13-29.31-6.84-34.46-9.61-6.22-18.86,3.06-17.38,13.64-3.3.42-7.19,1.12-10.14,2.71-5.07,2.73-5.91,9.47-2.65,14.35,4.87,7.29,24.66,3.23,37,3.76"/><path class="cls-10" d="M1684.78,1093.26c-.35-6.06.8-20.8-4.85-24.45-6.82-4.41-13.37,2.17-12.32,9.67a21.47,21.47,0,0,0-7.19,1.92c-3.59,1.94-4.19,6.72-1.88,10.17,3.45,5.17,17.48,2.32,26.24,2.69"/><path class="cls-7" d="M1684.8,1093.26c-.2-3.55.42-12.12-2.89-14.26-4-2.58-7.82,1.27-7.21,5.66a12.64,12.64,0,0,0-4.2,1.13c-2.11,1.13-2.46,3.93-1.1,6,2,3,10.27,1.3,15.4,1.52"/><path class="cls-9" d="M1684,1096.07c-.54,8.44.88,28.72-7,34-9.45,6.4-18.42-2.47-16.88-12.92-3.23-.33-7-.9-9.91-2.38-4.93-2.55-5.7-9.16-2.47-14,4.82-7.31,27-5.31,36.22-4.67"/><path class="cls-10" d="M1684,1096.07c-.4,6.27.66,21.33-5.17,25.27-7,4.75-13.68-1.84-12.54-9.6a21.41,21.41,0,0,1-7.35-1.77c-3.67-1.89-4.24-6.8-1.84-10.43,3.58-5.43,20.06-3.94,26.9-3.47"/><path class="cls-7" d="M1684,1096.07c-.23,3.56.37,12.13-2.94,14.36-4,2.7-7.77-1-7.12-5.45a12.09,12.09,0,0,1-4.18-1c-2.09-1.07-2.41-3.86-1-5.93,2-3.08,11.4-2.24,15.29-2"/><path class="cls-9" d="M1686.63,1091.89c7.95-1.1,29.19,1.65,34.48-6.23,6.39-9.5-2.73-18.9-13.34-17.61-.36-3.31-1-7.21-2.53-10.19-2.65-5.11-9.37-6.07-14.31-2.89-7.36,4.74-3.18,26.84-4.3,36.92"/><path class="cls-10" d="M1686.59,1092c5.85-.82,21.47,1.21,25.37-4.59,4.69-7-2-13.9-9.81-12.95a22.72,22.72,0,0,0-1.87-7.5c-1.94-3.76-6.89-4.46-10.52-2.13-5.42,3.49-2.34,19.74-3.17,27.17"/><path class="cls-7" d="M1686.59,1092c3.4-.6,12.74.65,15-2.78,2.78-4.14-1.19-8.23-5.8-7.66a13.3,13.3,0,0,0-1.11-4.44c-1.15-2.22-4.07-2.64-6.22-1.26-3.2,2.07-1.42,11.75-1.91,16.14"/><path class="cls-9" d="M1689.54,1095c4,11,1.25,28.27,9.3,33.23,10.41,6.41,19.34-2.12,15.64-13.46,3.14-.46,6.83-1.19,9.55-2.77,4.66-2.72,4.94-9.27,1.41-14-5.26-7-26.91-4.07-35.9-3"/><path class="cls-10" d="M1689.53,1095c2.93,8.14.9,21,6.88,24.57,7.21,4.36,13.24-2.38,11.57-9.95a20.56,20.56,0,0,0,7.06-2.05c3.45-2,3.65-6.85,1-10.31-3.89-5.18-19.89-3-26.55-2.26"/><path class="cls-7" d="M1689.44,1095c2,4.61,1.4,12.17,5,14,4.35,2.26,7.61-1.89,6.35-6.22a12,12,0,0,0,4-1.46c1.93-1.29,2-4.23.22-6-2.49-2.54-11.83-.58-15.61-.34"/><text class="cls-13" transform="translate(89.5 516.13)">Give your child one compliment, followed by a gentle suggestion for improvement, <tspan x="0" y="61.2">and then fnish with another compliment. </tspan><tspan x="0" y="122.4">This </tspan><tspan class="cls-14" x="89.55" y="122.4">“</tspan><tspan x="107.25" y="122.4">compliment sandwich</tspan><tspan class="cls-14" x="532.48" y="122.4">”</tspan><tspan x="550.18" y="122.4" xml:space="preserve"> helps encourage growth while keeping confdence </tspan><tspan x="0" y="183.6">strong and motivation high.</tspan></text><text class="cls-15" transform="translate(89.5 981.2)">Materials<tspan class="cls-14" x="164.91" y="0">: </tspan><tspan x="183.54" y="0" xml:space="preserve">	None</tspan></text></g></g></svg>