<svg xmlns="http://www.w3.org/2000/svg" viewBox="0 0 43.07 70.08"><defs><style>.cls-1{fill:#626264;}.cls-2{fill:#c9c9c9;}.cls-3{fill:#fff;}</style></defs><title>Asset 228</title><g id="Layer_2" data-name="Layer 2"><g id="Layer_2-2" data-name="Layer 2"><path class="cls-1" d="M43,16.1c-.45,5.63-3.5,11.25-5,16.75q-2.44,9.21-4.88,18.43C31.79,56.55,30.9,63.61,27,67.71,22.82,72,18.17,70,15.41,65.32c-2.62-4.41-3.14-9-4.47-13.83-1.08-3.87-1.74-7.86-2.53-11.8-1-4.76-2.09-9.49-3.21-14.23-.73-3.09-2.26-6-2.53-9.2A6.7,6.7,0,0,1,5.94,9.83c2.93-1.55,5.39.45,7.39,2.33a9.11,9.11,0,0,1,2-7.72,10.62,10.62,0,0,1,12-3.27C31,2.7,35.48,9.51,32.61,13.36,35.89,9,43.62,8.84,43,16.1Z"/><path class="cls-1" d="M31.19,41.55c0,.45-.09.9-.15,1.33a52.36,52.36,0,0,1-2,8.93c-1,3.3-5,15.79-10,9.68A23.25,23.25,0,0,1,15.46,54a47.83,47.83,0,0,1-2.25-14c-.1-5.25.73-10.67,5.76-13.31a7.49,7.49,0,0,1,7.65.24C31.17,30.14,31.7,36.38,31.19,41.55Z"/><path class="cls-1" d="M39.44,16.56a5.64,5.64,0,0,1-1.2,4.51c-1.17,1.6-3.79,3.18-5.1.82a5.83,5.83,0,0,1,.8-6.31c1.09-1.43,3.39-1.94,4.7-.51A3.46,3.46,0,0,1,39.44,16.56Z"/><path class="cls-1" d="M28.77,14.71A10.61,10.61,0,0,1,26,20.13c-1.68,1.71-4.08,2.14-5.76.21-2.34-2.68-2.87-6.7-2.19-10.09a7.78,7.78,0,0,1,1-2.7A4.47,4.47,0,0,1,23,5.21a6.74,6.74,0,0,1,1.19,0c4.42.54,5.21,5.41,4.67,9C28.82,14.4,28.79,14.55,28.77,14.71Z"/><path class="cls-1" d="M8.59,13.43c4.08-1.65,6.41,5.59,4.2,8.15a2.25,2.25,0,0,1-1.72.77c-2.57-.05-4.42-3.47-4.4-5.71A3.47,3.47,0,0,1,8.59,13.43Z"/><path class="cls-2" d="M40.39,15.64c-.44,5.63-3.5,11.25-5,16.75Q33,41.6,30.55,50.81c-1.4,5.28-2.3,12.34-6.24,16.44-4.14,4.3-8.78,2.27-11.55-2.39-2.61-4.41-3.14-9-4.47-13.84-1.07-3.87-1.74-7.85-2.53-11.79-1-4.77-2.09-9.5-3.2-14.23C1.83,21.9.29,19,0,15.79A6.72,6.72,0,0,1,3.29,9.36c2.93-1.55,5.39.45,7.39,2.34a9.14,9.14,0,0,1,2-7.73A10.66,10.66,0,0,1,24.61.7C28.33,2.23,32.83,9.05,30,12.9,33.24,8.5,41,8.38,40.39,15.64Z"/><path class="cls-3" d="M28.54,41.08c0,.46-.09.9-.14,1.34a53.8,53.8,0,0,1-2,8.93c-1,3.3-5,15.79-10,9.68a23.61,23.61,0,0,1-3.61-7.51,48.16,48.16,0,0,1-2.25-14c-.09-5.25.73-10.68,5.76-13.31a7.48,7.48,0,0,1,7.66.23C28.53,29.68,29.05,35.92,28.54,41.08Z"/><path class="cls-3" d="M36.8,16.09a5.7,5.7,0,0,1-1.2,4.52c-1.18,1.59-3.8,3.18-5.11.81a5.85,5.85,0,0,1,.8-6.31c1.1-1.42,3.4-1.94,4.7-.5A3.39,3.39,0,0,1,36.8,16.09Z"/><path class="cls-3" d="M26.12,14.24a10.6,10.6,0,0,1-2.74,5.42c-1.69,1.72-4.08,2.15-5.77.21-2.34-2.68-2.86-6.7-2.19-10.09a7.83,7.83,0,0,1,1-2.69,4.41,4.41,0,0,1,3.92-2.34,6.65,6.65,0,0,1,1.18,0c4.42.54,5.21,5.42,4.67,9C26.18,13.93,26.15,14.09,26.12,14.24Z"/><path class="cls-3" d="M6,13c4.07-1.64,6.4,5.6,4.2,8.16a2.25,2.25,0,0,1-1.73.76C5.85,21.84,4,18.41,4,16.17A3.43,3.43,0,0,1,6,13Z"/></g></g></svg>