<svg xmlns="http://www.w3.org/2000/svg" xmlns:xlink="http://www.w3.org/1999/xlink" viewBox="0 0 406.27 681.72"><defs><style>.cls-1{isolation:isolate;}.cls-2{fill:#24336c;}.cls-3{fill:#2e3f73;}.cls-4{fill:#1f2e61;}.cls-5{fill:#263d6c;}.cls-6{fill:#1a224b;}.cls-7{fill:#374c82;}.cls-8{fill:#42598e;}.cls-9{fill:#081231;}.cls-10{fill:#68c0f1;}.cls-11{fill:#a9e4ff;}.cls-12{fill:#70849d;}.cls-13{fill:url(#linear-gradient);}.cls-14{fill:url(#linear-gradient-2);}.cls-15,.cls-20,.cls-41{fill:none;}.cls-16{fill:#a1b5c9;}.cls-17{fill:#0070c4;}.cls-18{fill:#0067b2;}.cls-19{fill:#0069ae;}.cls-20{stroke:#fff;stroke-width:1.21px;}.cls-20,.cls-41{stroke-miterlimit:10;}.cls-21{fill:#014b86;}.cls-22{fill:#dee4ed;}.cls-23{fill:#00bd4e;}.cls-24{opacity:0.53;mix-blend-mode:multiply;fill:url(#linear-gradient-3);}.cls-25{fill:#a2b5c9;}.cls-26{fill:url(#radial-gradient);}.cls-27{fill:#b1b7bb;}.cls-28{fill:url(#linear-gradient-4);}.cls-29{fill:url(#linear-gradient-5);}.cls-30{fill:#42617a;}.cls-31{fill:#d7c3c0;}.cls-32{fill:#c7aeab;}.cls-33{fill:#5b7185;}.cls-34{fill:url(#linear-gradient-6);}.cls-35{fill:#926058;}.cls-36{fill:#783630;}.cls-37{fill:url(#radial-gradient-2);}.cls-38{fill:#133243;}.cls-39{fill:#241f20;}.cls-40{fill:#e6e7eb;}.cls-41{stroke:#241f20;stroke-width:1.13px;}.cls-42{fill:#090806;}.cls-43{fill:#d2d0ce;}.cls-44{fill:#3e3a3b;}.cls-45{fill:url(#linear-gradient-7);}.cls-46{fill:url(#linear-gradient-8);}.cls-47{fill:#70869f;}.cls-48{fill:#ff5b46;}.cls-49{fill:#ec3e34;}.cls-50{fill:#010101;}.cls-51{fill:#fff;}.cls-52{fill:url(#linear-gradient-9);}.cls-53{fill:#42617b;}.cls-54{fill:#2f1a17;}</style><linearGradient id="linear-gradient" x1="-37.79" y1="-101.2" x2="32.55" y2="-101.2" gradientTransform="matrix(-0.99, 0.15, 0.15, 0.99, 312.12, 414.32)" gradientUnits="userSpaceOnUse"><stop offset="0" stop-color="#607e91"/><stop offset="0.76" stop-color="#355a71"/></linearGradient><linearGradient id="linear-gradient-2" x1="399.34" y1="514.99" x2="295.54" y2="395.18" gradientTransform="matrix(-1, 0.04, 0.04, 1, 582.13, -139.34)" gradientUnits="userSpaceOnUse"><stop offset="0.01" stop-color="#acbed3"/><stop offset="1" stop-color="#dee4ed"/></linearGradient><linearGradient id="linear-gradient-3" x1="376.22" y1="318.08" x2="610.13" y2="318.08" gradientTransform="matrix(-1, 0.02, 0.02, 1, 585.35, -5.47)" gradientUnits="userSpaceOnUse"><stop offset="0.05" stop-color="#dee4ed" stop-opacity="0"/><stop offset="0.63" stop-color="#acbed3"/></linearGradient><radialGradient id="radial-gradient" cx="379.15" cy="254.37" r="85.89" gradientTransform="matrix(-1, 0.02, 0.02, 1, 585.35, -5.47)" gradientUnits="userSpaceOnUse"><stop offset="0.23" stop-color="#bd7c5f"/><stop offset="0.99" stop-color="#224662"/></radialGradient><linearGradient id="linear-gradient-4" x1="-310.93" y1="-676.13" x2="-247.36" y2="-676.13" gradientTransform="matrix(-0.94, 0.34, 0.34, 0.94, 50.64, 1059.33)" gradientUnits="userSpaceOnUse"><stop offset="0.23" stop-color="#42617b"/><stop offset="1" stop-color="#70849d"/></linearGradient><linearGradient id="linear-gradient-5" x1="-403.43" y1="-683.15" x2="-234.62" y2="-721.29" gradientTransform="matrix(-0.94, 0.34, 0.34, 0.94, 50.64, 1059.33)" xlink:href="#linear-gradient-2"/><linearGradient id="linear-gradient-6" x1="9213.68" y1="42.01" x2="9271.14" y2="42.01" gradientTransform="matrix(0.98, -0.18, 0.18, 0.98, -8899.36, 1652.44)" gradientUnits="userSpaceOnUse"><stop offset="0" stop-color="#70829b"/><stop offset="1" stop-color="#eaa181"/></linearGradient><radialGradient id="radial-gradient-2" cx="376.34" cy="248.56" r="120.12" gradientTransform="matrix(-0.98, 0.18, 0.18, 0.98, 541.3, -74.26)" gradientUnits="userSpaceOnUse"><stop offset="0.24" stop-color="#eaa181"/><stop offset="1" stop-color="#70829b"/></radialGradient><linearGradient id="linear-gradient-7" x1="482.88" y1="65.79" x2="563.22" y2="65.79" gradientTransform="matrix(-0.98, 0.18, 0.18, 0.98, 541.3, -74.26)" xlink:href="#linear-gradient-6"/><linearGradient id="linear-gradient-8" x1="13687.37" y1="301.18" x2="13689.23" y2="73.32" gradientTransform="matrix(-0.98, 0.18, 0.18, 0.98, 13671.28, -2475.75)" gradientUnits="userSpaceOnUse"><stop offset="0.24" stop-color="#eda384"/><stop offset="1" stop-color="#6f849d"/></linearGradient><linearGradient id="linear-gradient-9" x1="13691.05" y1="122.39" x2="13776.39" y2="122.39" gradientTransform="matrix(-0.98, 0.18, 0.18, 0.98, 13671.28, -2475.75)" gradientUnits="userSpaceOnUse"><stop offset="0" stop-color="#7a97b3"/><stop offset="1" stop-color="#6f849d"/></linearGradient></defs><title>Asset 234</title><g class="cls-1"><g id="Layer_2" data-name="Layer 2"><g id="Layer_2-2" data-name="Layer 2"><path class="cls-2" d="M75.28,618.31c12,2.34,40.79,8.9,52.23,9.05a12.83,12.83,0,0,0,3.6-.31c6.79-2,23.2-7.1,23.2-7.1s32.32,21,39,20.86c1,0,2.69-.16,4.93-.4,12.4-1.39,42.63-6,83.47-10.81,47.88-5.61,72.83,0,70.46-17.45-2.29-17-24.55-92.9-24.55-92.9l-161.3-11.73L123,503.86S90.36,535.32,86.91,546c-3.5,10.89-18.67,53.53-18.67,53.53s-6.45,16.13,7,18.78"/><path class="cls-3" d="M232.19,567a124.75,124.75,0,0,0,11.22,28.2c3.89,7.11,9.31,14.51,17.4,16,5.28,1,10.68-.78,16.05-1,4-.12,8,.64,12,1.06,11.44,1.19,22.91-.49,34.21-2.15,9.27-1.37,19.08-3,27-7.3-6.2-27-22.49-82.61-22.49-82.61l-62.7-4.56c-8.45,11.17-14,24.56-18.52,38.34-1.24,3.78-2.35,8.23-.06,11.49,1.58,2.24,4.53,5.34,2.19,7A41,41,0,0,1,232.19,567"/><path class="cls-4" d="M66.8,609.38c.45,3.9,2.51,7.75,8.49,8.93,11.94,2.34,40.78,8.9,52.22,9.05a12.83,12.83,0,0,0,3.6-.31c6.79-2,23.2-7.1,23.2-7.1s32.32,21,39,20.86c1,0,2.69-.16,4.94-.41,4.79-.53,12.28-1.55,22-2.89q-4.56-21.35-7.21-42.06c-1.38-10.69,3.9-23.36,5.46-33.74.45-2.93,6.5-21.38,9.52-20.37a26.25,26.25,0,0,1-15.32-13.28c-7.64-.42-15.38,1.07-23.1,1.56s-15.84-.14-21.73-4.27c-1.25,2.35-4.66,4.07-5.74,6.52q-8.13,18.3-16.62,37.48a105.7,105.7,0,0,0-29.27,20.33A74.35,74.35,0,0,0,98,587.32a12.1,12.1,0,0,0-5.16.78c-2.17,1-3.8,2.94-5.42,4.77A79.31,79.31,0,0,1,66.8,609.38"/><path class="cls-5" d="M176.57,630.23c4.31,4.49,9.63,10.69,16.73,10.58,1,0,2.69-.16,4.94-.4,4.8-.54,12.28-1.56,22-2.91q-4.56-21.33-7.21-42c-1.38-10.69,3.9-23.36,5.46-33.74.45-2.93,6.5-21.38,9.52-20.37a26.25,26.25,0,0,1-15.32-13.28c-4.85-.27-9.3.46-12.34,4.77-2.05,2.9-2.89,6.36-3.7,9.75q-3.25,13.65-6.63,27.77c-2.48,10.34-5,20.94-5.79,31.82-.68,9.27-.09,18.76-2.23,28.24l-5.48-.18"/><path class="cls-6" d="M127.51,627.36a12.83,12.83,0,0,0,3.6-.31c6.79-2,23.2-7.1,23.2-7.1s32.32,21,39,20.86c1,0,2.69-.16,4.93-.4-.26-5.54-1.15-11-1.41-16.47a71,71,0,0,1,2.75-23c1.4-4.75,3.29-9.35,4.43-14.07,2.1-8.75,1.57-17.58,2.37-26.18.49-5.27,7.32-28.73,14.11-51.23l-48.9-1.73c-10,27.15-24.78,67.09-31.23,84.68q-3.79,10.35-7.7,21l-5.14,14"/><path class="cls-7" d="M297.66,501.17a355,355,0,0,0-60.15-8.12c-4.26-.2-8.83-.26-12.52,1.86l-102,8.95s-15.79,16.39-9.93,17.09,50,12.16,50,12.16l51-.79a10.22,10.22,0,0,0,8.33,8.95c7.8,1.54,14.71,4.79,39.23-.6,24.28-5.35,52.87-6.61,60.29-13.27s7.86-11.38-.85-14.42-23.48-11.81-23.48-11.81"/><path class="cls-8" d="M270.39,525l-9.68,1.06a4.36,4.36,0,0,0,3.77,3.22,24.8,24.8,0,0,0-2.2,11.27C286.43,535.3,314.63,534,322,527.4s7.86-11.38-.85-14.42c-1.19-.41-2.49-.93-3.86-1.53a98.2,98.2,0,0,0-14.73-2.54c-1.05-.1-2.59.78-1.76,1.4l-22.14,3a4.61,4.61,0,0,0-2.55.86c-.48.43-.73,1-1.22,1.45a4.51,4.51,0,0,1-2.66.64,55.76,55.76,0,0,0-18.35,3.75A39,39,0,0,0,270.39,525"/><path class="cls-9" d="M154.31,620l7.38-19.35s8.34-32.11,8.6-32.79L179,544.58l-5.51,23.18s-8.23,33.2-8.12,33.81-6.16,21.48-6.16,21.48Z"/><path class="cls-9" d="M214.14,532.32s18-3.85,17.11-4.62,3.61-6.76,3.61-6.76,39.3-3.86,38.16-3.81-36.49,5.26-36.49,5.26-3.47,6.92-3.4,7.46-18.4,4.91-18.4,4.91l-5.2,12.31Z"/><polygon class="cls-9" points="252.68 520.02 257.52 522.67 284.77 526.87 259.09 521.77 254.58 519.74 252.68 520.02"/><path class="cls-10" d="M347.92,626.11a2.83,2.83,0,0,1,.95.31,2.43,2.43,0,0,1,.89,1,4.05,4.05,0,0,1,.41,1.88,6,6,0,0,1-.46,2.33,13.08,13.08,0,0,1-1.47,2.29,20.53,20.53,0,0,1-4.83,4.45c-4,2.76-9.61,4.72-16.25,6.27s-14.41,3.09-22.94,4.7-18,3.23-28.14,4.7a297.17,297.17,0,0,1-32.49,3.07c-11.46.38-23.49,0-36-.76l-19-1.16a132.75,132.75,0,0,1-18.95-2.32,97.28,97.28,0,0,1-13.87-4.31c-2.31-.84-4.64-1.68-7-2.41-1.19-.38-2.4-.7-3.61-1s-2.41-.61-3.62-.81c-9.62-1.9-19-2-27.69-2.5s-16.74-1.06-23.74-2.93l-2.58-.71-2.44-.87a18.61,18.61,0,0,1-4.3-2,10.47,10.47,0,0,1-3.06-2.87,4.54,4.54,0,0,1-.71-1.55l0-.19a4,4,0,0,1,0-.51c0-.41.05-.76.12-1.21.16-.94.32-1.87.49-2.7l-.36-.16-.52,0-1-.09-2.05-.17-2.86-.26c-1.58-.15-3.14-.33-4.67-.52q-4.57-.59-8.84-1.4c-2.83-.54-5.54-1.14-8.15-1.79l-1.93-.5c-.61-.16-1.2-.34-1.78-.55a17.94,17.94,0,0,1-3.22-1.5,9.11,9.11,0,0,1-2.46-2.11,3.5,3.5,0,0,1-.83-2.58c.11-1.8,2.18-3.71,4.18-5.14a103.13,103.13,0,0,1,20.06-11.27c-7.17,3-14.3,4.67-20.9,8.89a20.16,20.16,0,0,0-3.48,2.74,10.9,10.9,0,0,0-1.67,2.16,7.15,7.15,0,0,0-.64,1.37,6.36,6.36,0,0,0-.4,1.48,6.94,6.94,0,0,0-.11,1.5,9.67,9.67,0,0,0,.2,1.36,7.27,7.27,0,0,0,1,2.18A11.26,11.26,0,0,0,40,622.77a19.5,19.5,0,0,0,3.54,2c.63.27,1.28.52,1.94.75l1.92.64c2.61.84,5.33,1.63,8.18,2.36s5.82,1.38,8.92,2c1.55.28,3.12.56,4.74.8l1.21.17.55.08.2,0,.41.07.19,0,.09,0,0,.13a3.1,3.1,0,0,0-.09.5c0,.1,0,.24,0,.35a1.36,1.36,0,0,0,0,.24l.08.49a10.25,10.25,0,0,0,1.25,3.41,14.8,14.8,0,0,0,4.09,4.45,22.42,22.42,0,0,0,5,2.8l2.63,1.09,2.74.93c7.47,2.4,15.91,3.39,24.69,4.11s18,1.14,27,3.09c1.14.21,2.24.54,3.36.82s2.23.59,3.34,1c2.23.72,4.48,1.56,6.79,2.43a97.32,97.32,0,0,0,14.74,4.67,129.11,129.11,0,0,0,20,2.38c6.55.35,12.94.65,19.29.89a340.54,340.54,0,0,0,36.82-.32,266.43,266.43,0,0,0,33.15-4.69c10.23-2,19.66-4.29,28.21-6.5s16.14-4.36,22.8-6.44,12.27-4.64,16.27-7.91a22.42,22.42,0,0,0,4.71-5.11,14.13,14.13,0,0,0,1.38-2.59,6.72,6.72,0,0,0,.33-2.6,4.5,4.5,0,0,0-.58-2,2.42,2.42,0,0,0-1-.94,2.78,2.78,0,0,0-1-.21"/><path class="cls-10" d="M350.42,594c7.46,2,19.78,9.72,13.18,19.45-5,7.4-20.94,16.85-29.75,12.65-1.07-.5-.87-2.05-.17-2.66,2.51-2.2,5.53-2.33,8.6-3.22a48.48,48.48,0,0,0,10.91-4.48c3.63-2.11,8.4-4.87,7.91-10.34-.34-3.94-8.32-8.59-10.92-10.57-.38-.29-.25-1,.24-.83"/><path class="cls-10" d="M49.14,640.19c6.46-3,11.84-.92,16.09,3.53,2.9,3,5.18,6.93,8.48,9.5,3.69,2.86,8.1,4.35,12.6,5.41,18.56,4.35,38.44,5.53,57.61,8.4,19.64,2.93,38.9,7.85,59,9.59,19.35,1.68,38.94.53,58.39-1.14,22.34-1.91,44.63-4.54,66.59-8.39,1-.17,1.29,1.9.35,2.13-48.09,11.8-97,16.69-145.64,8.3-24.8-4.28-49.78-6.58-74.16-11.26-10.72-2.06-22.64-2.79-32.21-7.88S62,638.48,49.17,641c-.45.09-.49-.6,0-.81"/><path class="cls-10" d="M65.43,599.72c-.71-.2-1.08-.8-1.5-1.4a2,2,0,0,1,.41-2.31,5.26,5.26,0,0,1,2-1.44c1.5-.44,2.72.77,2.41,2.53s-2,3-3.32,2.62"/><path class="cls-10" d="M58.31,601.14a2.57,2.57,0,0,1,2.36-1.88,4.43,4.43,0,0,1,2.12.09,1.4,1.4,0,0,1,.1,2.27,7.31,7.31,0,0,1-2.7,1.41,1.47,1.47,0,0,1-1.88-1.89"/><path class="cls-10" d="M64.54,604.84a4.3,4.3,0,0,1-1.94.41,9.21,9.21,0,0,1-1.49-.34c-1.1-.29-.86-2.2.21-2.9a9,9,0,0,1,1.56-1,4.66,4.66,0,0,1,1.92-.33,1.51,1.51,0,0,1,1.41,1.79,2.73,2.73,0,0,1-1.67,2.32"/><path class="cls-10" d="M54.05,604.73l0-.1c0,.21,0,.43-.05.65a1.63,1.63,0,0,1-.12-1.08,2.06,2.06,0,0,1,.73-1.2,4.63,4.63,0,0,1,.73-.45.83.83,0,0,1,1.26,1,6.59,6.59,0,0,1-.27,1.06,2,2,0,0,1-.84,1,1.3,1.3,0,0,1-1.14.12l.56-.1-.08.06a.54.54,0,0,1-.73,0,.84.84,0,0,1-.09-.84"/><path class="cls-10" d="M61.66,603.53a4.63,4.63,0,0,1-1.09.16,3.37,3.37,0,0,1-.78-.15c-.09,0-.49-.12-.09,0s.06,0,0,0a4.06,4.06,0,0,1-.7-.09c-.23-.06.47,0,.22,0s.52-.14.14,0a1.49,1.49,0,0,1-1.82-1.94,4.83,4.83,0,0,1,2.06-3c1.21-.75,2.72-1.05,3.62-.15a2.69,2.69,0,0,1,.64,2.83,3.53,3.53,0,0,1-2.16,2.41"/><path class="cls-10" d="M47.58,606.64l-.17-.28a2.47,2.47,0,0,1,.54-2.81l.28-.29a1.77,1.77,0,0,1,3.11,1.64A3.38,3.38,0,0,1,50,607a1.67,1.67,0,0,1-2.37-.34"/><path class="cls-10" d="M46,609.6l-.1.08a2,2,0,0,1-2.42,0,2.48,2.48,0,0,1-.7-2.45,3.88,3.88,0,0,1,1.66-2.48,2,2,0,0,1,2.41,0l.06.07a1.93,1.93,0,0,1,.65,1,3.07,3.07,0,0,1,0,1.39A4,4,0,0,1,47,608.6a3.59,3.59,0,0,1-1,1"/><path class="cls-10" d="M42.06,609.19c.13-.26.3-.53.41-.8a7.79,7.79,0,0,1,.37-1,7.74,7.74,0,0,1,1.44-1.53c.71-.68,1.77,0,1.25,1a10.26,10.26,0,0,1-1,1.88,3.39,3.39,0,0,1-.78.6A6.24,6.24,0,0,0,43,610c-.55.53-1.37,0-1-.77"/><path class="cls-10" d="M55.71,599.53c.13-.24.26-.49.4-.73l-.28,1.5s0-.09,0-.14a3.29,3.29,0,0,1,.7-2.88,2.42,2.42,0,0,1,2.47-1H59a2,2,0,0,1,1.1,2.37s0,.06,0,.09a3.45,3.45,0,0,1-1.78,2.4,1.78,1.78,0,0,1-2.3-.51l-.07-.09,1.15.37-.68.13a.71.71,0,0,1-.88-.37,1.3,1.3,0,0,1,.15-1.19"/><path class="cls-10" d="M55.84,601.59s-.05-.05-.11,0l.67-.31c.34-.39-.19.22-.32.32a2.18,2.18,0,0,1-.6.32l-.33.1c.49-.15-.37.13-.51.16a1.52,1.52,0,0,1-.6,0c-.12,0-.53,0-.19,0h-.27c.36,0-.17.12.11,0-1.25.66-2.32-.66-1.38-2.07a4,4,0,0,1,2.77-1.87,1.82,1.82,0,0,1,1.63,2.61l.06-.8a3,3,0,0,1,.08.6c0,.6-.52,1.12-1,1"/><path class="cls-10" d="M45.88,606.8l-.1.08a2,2,0,0,1-2.43,0,2.47,2.47,0,0,1-.7-2.45A3.85,3.85,0,0,1,44.32,602a2,2,0,0,1,2.42,0l.06.07a1.93,1.93,0,0,1,.65,1,3.07,3.07,0,0,1,0,1.39,4,4,0,0,1-.59,1.41,3.53,3.53,0,0,1-1,1"/><path class="cls-10" d="M45.24,605.63l0,0a2,2,0,0,1,.35,1,2.6,2.6,0,0,1,0,1.24c-.09.28-.18.57-.26.85a4.47,4.47,0,0,1-1,1.43l0,0-.66.53-.72.34a1.83,1.83,0,0,1-1.1.07,1,1,0,0,1-.65-.21,1,1,0,0,1-.52-.42,1.08,1.08,0,0,1-.38-.58,1.38,1.38,0,0,1-.21-.71,2.69,2.69,0,0,1,0-1.26l.27-.87c.15-.26.29-.52.43-.78l.56-.67.65-.51.72-.34a1.83,1.83,0,0,1,1.1-.08,1,1,0,0,1,.64.22,1.48,1.48,0,0,1,.75.65"/><path class="cls-10" d="M56.35,598.8l.29-.18c-.15.29-.3.58-.46.87a5,5,0,0,1,1.76-3.32,3.45,3.45,0,0,1,3.5-.59c1,.34,1.09,1.63.45,2.71a4.88,4.88,0,0,1-3.15,2.6,2.34,2.34,0,0,1-2.52-1.21l.66.34-.3.11c-.72.28-.91-.92-.23-1.33"/><path class="cls-10" d="M66.14,595.77a9.34,9.34,0,0,1-1.49,0,.93.93,0,0,1-.9-.81,1.77,1.77,0,0,1,.5-1.47,13.07,13.07,0,0,1,1.29-1.18,1.82,1.82,0,0,1,1.75-.55,1.37,1.37,0,0,1,.9,1.15,2.47,2.47,0,0,1-2,2.82"/><path class="cls-10" d="M59.59,598.25a3,3,0,0,1-2.21-1.13,2.07,2.07,0,0,1,.46-2.46,4.54,4.54,0,0,1,2.62-1.2,1.81,1.81,0,0,1,1.6,2.36,2.93,2.93,0,0,1-2.47,2.43"/><path class="cls-10" d="M132.07,648.67l.09-.09-.6,1.84a.81.81,0,0,0,0-.16,2.09,2.09,0,0,1,1.21-2.14,2.59,2.59,0,0,1,.53-.1l-.41.07a1.6,1.6,0,0,1,2.17,1,3,3,0,0,1-.84,3.09,2,2,0,0,1-1.23.54,1.55,1.55,0,0,1-1.29-.68,2.51,2.51,0,0,1-.38-1.69,3.05,3.05,0,0,1,.76-1.7"/><path class="cls-10" d="M125.75,651.42l-2.35.1c-.91,0-.69-1.74.2-1.74l2.34,0c.83,0,.65,1.57-.19,1.61"/><path class="cls-10" d="M118.41,652.05l-.07.05a1.8,1.8,0,0,1-1,.34,1.12,1.12,0,0,1-.72-.19,1.23,1.23,0,0,1-.55-.49,2.1,2.1,0,0,1-.37-1v-.06a3.12,3.12,0,0,1,.16-1.24,2.31,2.31,0,0,1,.44-.8,2.1,2.1,0,0,1,1.59-.94h0a1.4,1.4,0,0,1,.93.3,1.82,1.82,0,0,1,.58.84,3,3,0,0,1-.29,2.4,2.77,2.77,0,0,1-.73.82"/><path class="cls-10" d="M118.72,649.86a7.94,7.94,0,0,0,2-1.21,5.65,5.65,0,0,1,2-1.23,4.51,4.51,0,0,1,4.26.8,2.22,2.22,0,0,1-.38,3.3,7.52,7.52,0,0,1-3.68.81c-1.47,0-2.42-1.09-4-.8-.91.16-1-1.22-.16-1.67"/><path class="cls-10" d="M133.05,647a3.13,3.13,0,0,1,3.92-.07c1.91,1.61,1.72,5.7-.8,7.33a3.33,3.33,0,0,1-3.94.07,4,4,0,0,1-1.28-3.65,5.4,5.4,0,0,1,2.1-3.68"/><path class="cls-10" d="M140.94,650.21a2.67,2.67,0,0,1,1.68.51l-.65-.35a3.65,3.65,0,0,0,.54.23c1.48.5,2,2.8,1,4.53a4.23,4.23,0,0,1-3.36,2.39c-1.54,0-2.84-1.63-2.56-3.62a4,4,0,0,1,3.33-3.69"/><path class="cls-10" d="M147.87,649.66a8.84,8.84,0,0,1,1.15.16c1.61.37,2,3.44.55,4.82-.32.31-.65.59-1,.87-1.49,1.2-3.33,0-3.55-1.83s1.2-4.19,2.84-4"/><path class="cls-10" d="M150.83,654.63a2.88,2.88,0,0,1,3.17.74,4.24,4.24,0,0,1,1.08,1.49c.06.13.11.26.17.38a3.51,3.51,0,0,1-.65,3.35c-1.12,1.5-3.06,2.74-4.53,2a3.29,3.29,0,0,1-1.58-1.45,4.2,4.2,0,0,1-.46-2.49,4.81,4.81,0,0,1,2.8-4"/><path class="cls-10" d="M165.25,654.23c.24.24.49.48.72.74a4,4,0,0,1,.67,2.67,4.75,4.75,0,0,1-1.12,2.7c-.27.28-.56.53-.85.78a3,3,0,0,1-1.67.57,2.49,2.49,0,0,1-1.57-.52,3.9,3.9,0,0,1-1.29-3.43,4.85,4.85,0,0,1,1.89-3.46,2.93,2.93,0,0,1,1.66-.56,2.48,2.48,0,0,1,1.56.51"/><path class="cls-10" d="M168.79,657.08c1.72-.64,3.27.72,3.79,2.57a2.49,2.49,0,0,1-.76,2.68c-1.43,1.26-3.44,1.47-4.54-.08a3.65,3.65,0,0,1,1.51-5.17"/><path class="cls-10" d="M179.13,663.94a6.65,6.65,0,0,1,0-1c.16-1.9,1.49-3.43,3-3.49a2.46,2.46,0,0,1,1.69.6,3.07,3.07,0,0,1,1,2.27A3.75,3.75,0,0,1,184,665c-.3.31-.59.61-.92.89l-.68.36a1.71,1.71,0,0,1-1.11.08,2.3,2.3,0,0,1-1.53-.93.18.18,0,0,0,0-.07l.48.5a2.81,2.81,0,0,1-1-1.87"/><path class="cls-10" d="M190.31,661.69a2.4,2.4,0,0,1,1.94-1.23,7.66,7.66,0,0,1,1.42.24c1.13.2,1.47,2.45.51,3.36a15.52,15.52,0,0,1-1.19,1.12,1.88,1.88,0,0,1-2.14.14,2.38,2.38,0,0,1-.54-3.63"/><path class="cls-10" d="M200.91,666.46a2.25,2.25,0,0,1-1.2-1.24l-.19-.64a2.62,2.62,0,0,1,0-1.08,3,3,0,0,1,.68-1.56,2.19,2.19,0,0,1,1.68-.84,1.93,1.93,0,0,1,1.11.36,2.08,2.08,0,0,1,.8,1,2.41,2.41,0,0,1,.07,1.41,2.11,2.11,0,0,1-.73,1.11l-.06.05.33-.31-.09.12c.09-.15.19-.29.28-.43a1,1,0,0,0,0,.1c.06-.18.13-.36.2-.54,0,0,0,.11-.05.17,0-.21.07-.43.11-.65a1.09,1.09,0,0,0,0,.18c0-.24,0-.47,0-.7a3.67,3.67,0,0,1,0,1.1,4.27,4.27,0,0,1-.33,1l-.37.56a2.14,2.14,0,0,1-2.14.73h0l.55.09h-.08l.51-.09h0l.44-.23a1.58,1.58,0,0,1-1.38.25"/><path class="cls-10" d="M207.9,661.72a3.19,3.19,0,0,1,2.72-1.1,2,2,0,0,1,1.65.77,2.69,2.69,0,0,1,.5,1.08,3.4,3.4,0,0,1-1.22,3,7.72,7.72,0,0,1-.72.56,2.67,2.67,0,0,1-2.16.36c-1.64-.35-2-3.35-.77-4.71"/><path class="cls-10" d="M220,664.2c-2-.27-3.37-2-3.42-4.56a4.69,4.69,0,0,1,4.53-4.88,4.77,4.77,0,0,1,4.62,5c0,3.18-2.61,5.43-5,5.24-1.73-.14-2.17-3.37-.29-4a1.73,1.73,0,0,0,.79-.46c.12-.16.17-.51.3-.63s-.11,0,0,.14l.19.38c-.16-.19-.19-.23-.09-.13s.05.06-.14-.09c.24.14-.13,0-.23-.08s-.14,0,0,0l-.36,0a2.73,2.73,0,0,0-1,0l-.63.23c.06,0,.14-.16,0,0s0,0,0-.06a2,2,0,0,0,.1.44,1.76,1.76,0,0,0,.94.92c1,.4.83,2.65-.36,2.48"/><path class="cls-10" d="M228,662.94l.06.12-.31-.53a2.07,2.07,0,0,0,.17.24l-.38-.38.17.15c.21.18-.43-.19-.17-.1a2.15,2.15,0,0,1,.88,3,3.43,3.43,0,0,1-1.88,1.64,1.94,1.94,0,0,1-2.13-.68,3.29,3.29,0,0,1-.36-3,2.47,2.47,0,0,1,1.78-1.68,2,2,0,0,1,2.17,1.29"/><path class="cls-10" d="M234,660.73a3.8,3.8,0,0,1,2.39-.78,2.91,2.91,0,0,1,2.39,1.81,2.3,2.3,0,0,1-1,3c.26-.15.3-.17.15-.06s-.12.09.17-.17a2.05,2.05,0,0,1-.72.69c-.2.17-.14.1.19-.2-.06.06-.11.13-.17.2.28-.46.34-.56.2-.31a2.56,2.56,0,0,0-.11.24,2.37,2.37,0,0,1-4.12.73,3.88,3.88,0,0,1,.66-5.14"/><path class="cls-10" d="M239.7,661.58c0-.38.08-.86.15-1.22a5,5,0,0,1,1-2,4.76,4.76,0,0,1,.94-.86,3.16,3.16,0,0,1,2.75-.51,4.13,4.13,0,0,1,1.59,1.16,4.55,4.55,0,0,1,.78,4,5.41,5.41,0,0,1-1,2.09,11.62,11.62,0,0,1-1,.9l.71-.69a4.67,4.67,0,0,1-1.19,1,3.4,3.4,0,0,1-1.41.4,3,3,0,0,1-2.41-1.23,4.6,4.6,0,0,1-.94-3"/><path class="cls-10" d="M247.63,659.71a3.38,3.38,0,0,1,2.16-1.36,2.94,2.94,0,0,1,1.53.06,2.06,2.06,0,0,1,.88,2.76,4.7,4.7,0,0,1-.94,1.46,3,3,0,0,1-1.82,1.06,1.78,1.78,0,0,1-2.15-1.07,2.94,2.94,0,0,1,.34-2.91"/><path class="cls-10" d="M257,661.67a4.07,4.07,0,0,1,.25-2.73,2.9,2.9,0,0,1,2.56-1.78,2.85,2.85,0,0,1,2.63,1.33,2.68,2.68,0,0,1-.38,3.56c.44-.41.19-.17.09,0a3.23,3.23,0,0,1-.63.68c-.35.29.29-.43.14-.15a3,3,0,0,1-.49.55,2.34,2.34,0,0,1-3,.32,3.14,3.14,0,0,1-1.13-1.75"/><path class="cls-10" d="M265.73,659.78a3.86,3.86,0,0,1,0-1.91,3.38,3.38,0,0,1,.82-1.5,2.07,2.07,0,0,1,1.4-.64,2.59,2.59,0,0,1,2.72,2.12,2.62,2.62,0,0,1-.08,1.39,2.27,2.27,0,0,1-.69,1s.4-.42.26-.24a2.32,2.32,0,0,1-.47.42,1.57,1.57,0,0,0-.25.2l.42-.42-.18.24.35-.57a.54.54,0,0,0-.07.13,2.32,2.32,0,0,1-2,1.46,7.64,7.64,0,0,1-.79-.13l.57.08a1.08,1.08,0,0,0-.18,0l.51-.09H268a1.67,1.67,0,0,1-1.42-.21,2.59,2.59,0,0,1-.86-1.37"/><path class="cls-10" d="M275.67,656.93a5.15,5.15,0,0,0,.95-1.26,2.57,2.57,0,0,1,.66-1,1.39,1.39,0,0,1,1.36-.17,1.65,1.65,0,0,1,.88,1.87,1.71,1.71,0,0,1-1.8,1.59,3.64,3.64,0,0,0-1.4.28c-.59.2-1.15-.79-.65-1.35"/><path class="cls-10" d="M87.14,645a3.07,3.07,0,0,1-1.23-.89,4.06,4.06,0,0,1-.53-1.36,5.36,5.36,0,0,1-.28-1.78c.06-1.36.07.69,0,0,0-.14.18.66,0,.14a3,3,0,0,1,1.16-3.16,4,4,0,0,1,1.89-.68,2.42,2.42,0,0,1,2.29,1.37,4.55,4.55,0,0,1,.08,4.3,4.1,4.1,0,0,1-1.44,1.68,2.23,2.23,0,0,1-1.94.37"/><path class="cls-10" d="M79.38,634.55a4.2,4.2,0,0,1-.37-1.2c0-.4,0-.83,0-1.24,0-.92,1.06-1.46,1.36-.66.13.35.29.7.4,1.06a5.2,5.2,0,0,1,.11,1.32c0,1-1.14,1.57-1.46.72"/><path class="cls-10" d="M79.08,630.23a3.28,3.28,0,0,1-1.79.51,2.68,2.68,0,0,1-1.35-.45c-.06,0-.55-.4-.26-.2s-.47-.26-.4-.22a2.5,2.5,0,0,1-.53-.39,4.15,4.15,0,0,0-.32-.27s-.4-.21-.17-.11c-1.45-.68-1.37-3.05.24-4.22a4.89,4.89,0,0,1,3.41-1.17c1.41.22,3,.93,2.92,3,0,1.26-.55,3-1.75,3.56"/><path class="cls-10" d="M65.46,628.61a2.13,2.13,0,0,0-1,.23,1.82,1.82,0,0,1-1.45-.22,4.81,4.81,0,0,1-1.58-1.47,1.55,1.55,0,0,1,.81-2.09,5.16,5.16,0,0,1,2.47,0,1.64,1.64,0,0,1,1,.83,1.84,1.84,0,0,0,.71.86c.83.51-.13,2-1,1.86"/><path class="cls-10" d="M56.94,624.53a5.69,5.69,0,0,1,1.81-3.18,4.92,4.92,0,0,1,3-1.47,4.28,4.28,0,0,1,3,1.11c1.19,1.13.47,3.35-1.15,4.09.22-.1-.53.51-.09.06a2.72,2.72,0,0,0-.34.34l.26-.34a6,6,0,0,1-.44.56,4.29,4.29,0,0,1-.84.86c-.42.34-.48.39-.19.16s.23-.19.09-.05a3.64,3.64,0,0,1-2,1.31,2.63,2.63,0,0,1-3.18-3.45"/><path class="cls-10" d="M65.85,595.43a1.43,1.43,0,0,1-.92-.24,1.46,1.46,0,0,1-.7-.6,1.8,1.8,0,0,1-.35-1,2.27,2.27,0,0,1,0-1.13c.07-.26.15-.52.23-.79a3.86,3.86,0,0,1,.87-1.3l.59-.47a2.63,2.63,0,0,1,1.33-.42,1.45,1.45,0,0,1,.92.24,1.43,1.43,0,0,1,.7.59,1.94,1.94,0,0,1,.35.94,2.39,2.39,0,0,1,0,1.13l-.22.79a4.06,4.06,0,0,1-.87,1.31l-.59.47a2.58,2.58,0,0,1-1.34.43"/><path class="cls-10" d="M59.43,599.75a1.5,1.5,0,0,1-1-.26,1.52,1.52,0,0,1-.75-.65,2.06,2.06,0,0,1-.37-1,2.56,2.56,0,0,1,0-1.23l.25-.85a4.35,4.35,0,0,1,1-1.42,3.22,3.22,0,0,1,2.08-1,1.54,1.54,0,0,1,1,.25,1.57,1.57,0,0,1,.75.65,2,2,0,0,1,.38,1,2.68,2.68,0,0,1,0,1.23c-.09.28-.17.57-.25.85a4.39,4.39,0,0,1-1,1.43,3.19,3.19,0,0,1-2.09,1"/><path class="cls-10" d="M55.1,599.58l-.11,0,.51-.24a2.89,2.89,0,0,1-1.31.45,1.68,1.68,0,0,1-1-.33,2.4,2.4,0,0,1-.61-.94c.07.17.15.33.23.5l0-.06a2.44,2.44,0,0,1-.18-2,3.32,3.32,0,0,1,1.29-1.75l.12-.09a1.85,1.85,0,0,1,2.14,0,2.21,2.21,0,0,1,.78,1.75,2.86,2.86,0,0,1-1.78,2.7"/><path class="cls-11" d="M48,614.65a1.7,1.7,0,0,1-1.12-.29,1.79,1.79,0,0,1-.83-.74,2.27,2.27,0,0,1-.4-1.16,2.89,2.89,0,0,1,0-1.4c.09-.32.19-.64.29-1A5,5,0,0,1,47,608.49a3.63,3.63,0,0,1,2.34-1.09,2.44,2.44,0,0,1,1.94,1,2.31,2.31,0,0,1,.41,1.16,3.11,3.11,0,0,1,0,1.39c-.09.32-.19.64-.28,1a4.87,4.87,0,0,1-1.09,1.62,3.57,3.57,0,0,1-2.34,1.1"/><path class="cls-11" d="M44.57,614.32a3.45,3.45,0,0,1-.14.42l.08-.43,0,.25a2.25,2.25,0,0,1-1.4,2.12,1.47,1.47,0,0,1-1.72-2.17,1.53,1.53,0,0,1,1.18-.83c-.2,0-.23,0-.11,0s.1,0-.12.06a.7.7,0,0,1,.21-.14,1.65,1.65,0,0,1,.84-.26,1.15,1.15,0,0,1,1,.62h-.95c.06-.06.07-.07,0,0a.74.74,0,0,1,.77-.36.59.59,0,0,1,.32.72"/><path class="cls-11" d="M50.67,604.41l-.22.05-.6.1-.56-.08-.47-.26a1.28,1.28,0,0,1-.48-.65,1.16,1.16,0,0,1-.17-.57,1.25,1.25,0,0,1,0-.64,1.54,1.54,0,0,1,.13-.69,2.61,2.61,0,0,1,.44-1c0-.08.09-.16.14-.24a3.33,3.33,0,0,1,1-1,2.26,2.26,0,0,1,1.21-.38,1.65,1.65,0,0,1,1.08.35,1.42,1.42,0,0,1,.51.68,1.78,1.78,0,0,1,.23.91,3.35,3.35,0,0,1-.27,1.44,3.54,3.54,0,0,1-.81,1.2,2.93,2.93,0,0,1-1.14.72"/><path class="cls-11" d="M41.87,608.14a3.5,3.5,0,0,1,.82-.46c.57-.15,1,.29.9,1a1.18,1.18,0,0,1-1.29,1,2.2,2.2,0,0,1-.65-.44c-.29-.24-.17-.85.22-1.1"/><path class="cls-11" d="M53.55,603.29a1.09,1.09,0,0,1-.94-.5,1.65,1.65,0,0,1-.2-1.22,2.39,2.39,0,0,1,.66-1.24,1.73,1.73,0,0,1,1.13-.52,1.09,1.09,0,0,1,.94.49,1.71,1.71,0,0,1,.21,1.22,2.46,2.46,0,0,1-.66,1.24,1.8,1.8,0,0,1-1.14.53"/><path class="cls-11" d="M52.49,605c-1.48,0-1-2.71.51-2.73s1,2.71-.51,2.73"/><path class="cls-11" d="M58.14,600.17l.52-.42a3.07,3.07,0,0,1,.35-.28,1,1,0,0,1,.5-.13c.37,0,.57.45.39.85a2.26,2.26,0,0,1-.24.43,2.35,2.35,0,0,1-.29.26l-.49.4a.92.92,0,0,1-.52.24.51.51,0,0,1-.43-.23,1,1,0,0,1,.21-1.12"/><path class="cls-11" d="M63.92,599.68c-1.23,0-.83-2.24.4-2.25s.83,2.23-.4,2.25"/><path class="cls-11" d="M66.91,596.1a2.1,2.1,0,0,1,.55-.56,1.44,1.44,0,0,1,.67-.2l.29-.05a.68.68,0,0,1,.66.43,1.16,1.16,0,0,1,0,1l-.15.32a2.14,2.14,0,0,1-.43.67,2,2,0,0,1-.64.38.91.91,0,0,1-.61,0,.86.86,0,0,1-.51-.48,1.58,1.58,0,0,1,.17-1.5"/><path class="cls-11" d="M58.28,596.58l.35-.53c.43-.66,1.28-.67,1.47,0l.16.52a1.7,1.7,0,0,1-.25,1.36,1.46,1.46,0,0,1-1.11.69.89.89,0,0,1-.87-.66,1.69,1.69,0,0,1,.25-1.36"/><path class="cls-11" d="M62.55,600.25a2.59,2.59,0,0,1-1.08.18c-.29,0-.57-.13-.85-.2-.73-.19-.47-1.65.34-1.86.31-.08.62-.17.93-.23a2.15,2.15,0,0,1,1,.15c.78.22.51,1.71-.35,2"/><path class="cls-11" d="M50.61,606.11c-.1.16-.11.16,0,0s.06-.17,0,0a2.75,2.75,0,0,1-.14.49,2.51,2.51,0,0,1-1,1.1,3.93,3.93,0,0,1-.67.45,1.26,1.26,0,0,1-1,0,.88.88,0,0,1-.47-1,2.68,2.68,0,0,1,.35-1,4.09,4.09,0,0,1,.72-.72,2.3,2.3,0,0,1,1.06-.65,1.16,1.16,0,0,1,.56,0c.21.08-.38.07,0,0,.73-.26,1.14.69.65,1.41"/><path class="cls-11" d="M43.88,611.87l-.52-.34c-.41-.27-.23-1.2.29-1.49l.66-.36a.93.93,0,0,1,1.06,0,1.12,1.12,0,0,1,.32,1.09,1.72,1.72,0,0,1-.74,1.1.93.93,0,0,1-1.07,0"/><path class="cls-11" d="M42.28,614.57a2.19,2.19,0,0,1,.95.71c.21.3-.23-.18-.08-.07l.2.15a2,2,0,0,1,.26,2.69,2.24,2.24,0,0,1-2.54,1.07,1.86,1.86,0,0,1-1.38-2,2.86,2.86,0,0,1,.83-2,1.72,1.72,0,0,1,1.76-.55"/><path class="cls-11" d="M46,620.59c.6.13,1.25,0,1.85.11.82.16,1.19,1,1.63,1.67.7,1.16-.57,3-1.78,2.68-.76-.2-1.6-.32-2-1.12-.28-.6-.39-1.29-.7-1.86s.3-1.64,1-1.48"/><path class="cls-11" d="M52.65,624.34c1.29-.05,2.51-.62,3.78-.76a6.35,6.35,0,0,1,3.45.57c.92.41.85,2-.19,2.69A5.27,5.27,0,0,1,55.4,628c-1.24-.31-2.34-1.46-3.29-2.29-.42-.36,0-1.3.54-1.32"/><path class="cls-11" d="M65.86,626.08a7,7,0,0,1,2.83-.88,4.51,4.51,0,0,1,2.48,1.3,1.69,1.69,0,0,1-.72,2.61,5.51,5.51,0,0,1-3,.46c-1-.24-1.41-1-2.12-1.65a1.2,1.2,0,0,1,.52-1.84"/><path class="cls-11" d="M77.06,628.38c.3.28.29.39,0,.34a.74.74,0,0,1,.47.12,3.27,3.27,0,0,1,.75.78,7.59,7.59,0,0,1,.77,2.94c.1.89-.28.41.72.39a2.57,2.57,0,0,1,1.43.54,4.82,4.82,0,0,1,1.22,3.31,2.26,2.26,0,0,1-1.84,2.39,2.94,2.94,0,0,1-3.21-1.73,3.6,3.6,0,0,1-.21-1.81c.08-.32.17-.64.26-1-.19.23-.3.19-.32-.12a6.53,6.53,0,0,1-1.58-2.39c-.32-1.15.19-2.07.37-3.24.1-.65.88-1.05,1.18-.56"/><path class="cls-11" d="M86.62,637.62c2.62.64,5.3-1.09,7.95-.1a23.08,23.08,0,0,1,6.07,3.51c1,.78.47,2.9-.82,3.35a15,15,0,0,1-8,.59c-3.09-.75-3.71-3.78-6.07-5.57-.72-.55.06-2,.88-1.78"/><path class="cls-11" d="M112,649.16c-.64,0-.48-1.22.16-1.23s.48,1.22-.16,1.23"/><path class="cls-11" d="M103.18,648c-.64.44-1.44.62-1.94.08a1.76,1.76,0,0,1-.43-1.89c.19-.42.63-.86,1-.66a1.74,1.74,0,0,1,.27.14s.24.23.08.1c.08.06.19.07,0,0,0,0,.23.09.09,0s-.07,0,.08,0a.3.3,0,0,1,.21,0,1.07,1.07,0,0,1,.32.2c.06.07-.12,0,0,0s.25,0,.09,0c.76.06.93,1.29.15,1.83"/><path class="cls-11" d="M68.13,650.9l-.47.17c-2.64.95-1.73-4.55.61-3.68l.42.15c1.26.47.87,2.85-.56,3.36"/><path class="cls-11" d="M70,656.13a1.7,1.7,0,0,1-1.42-.77,2.75,2.75,0,0,1-.32-1.91,3.69,3.69,0,0,1,1-1.92,2.52,2.52,0,0,1,1.67-.81,1.65,1.65,0,0,1,1.4.76,2.68,2.68,0,0,1,.33,1.9,3.67,3.67,0,0,1-.95,1.93,2.51,2.51,0,0,1-1.67.82"/><path class="cls-11" d="M75,656a5,5,0,0,1,1.24.14,2.54,2.54,0,0,1,.88.68,2,2,0,0,1-.46,2.92,4,4,0,0,1-1.11.71,5.21,5.21,0,0,1-1.29.18c-1,.1-1.72-1.09-1.48-2.29S74,655.91,75,656"/><path class="cls-11" d="M84.87,657.13c-.07.3-.14.6-.22.89a3.69,3.69,0,0,1-1.1,1.82,4.91,4.91,0,0,1-1.3.92,2.21,2.21,0,0,1-.91.13,1.36,1.36,0,0,1-1.28-1.4,4.34,4.34,0,0,1,.11-1.24,5.39,5.39,0,0,1,.64-1.45A4,4,0,0,1,82,655.49a4.56,4.56,0,0,1,1-.44,1.59,1.59,0,0,1,1.9,2.08"/><path class="cls-11" d="M77.74,663.25a4.8,4.8,0,0,1,1.9-1.73,2,2,0,0,1,2.32.4,1.89,1.89,0,0,1,.52,1.68,2.57,2.57,0,0,1-1,1.7l-.11.08c-.13.09-.06,0,.21-.19a2.09,2.09,0,0,1-.2.22l.38-.49a5,5,0,0,1-.75.87l-.49.39.48-.41a1.72,1.72,0,0,0-.29.31l.4-.53c-.06.08-.11.17-.17.26-.73,1.18-2.15,1.72-3,1a2.84,2.84,0,0,1-.19-3.53"/><path class="cls-11" d="M90.58,656.51a1.36,1.36,0,0,0,0,.2c0-.17,0-.34,0-.52,0,.16,0,.3,0,.46a3.75,3.75,0,0,1-.18.92c0-.17.09-.35.13-.52a1.22,1.22,0,0,0,0,.26l0-.49c0,.07,0,.14,0,.21-.07-.31-.08-.38,0-.23l0,.1c0,.1,0,0-.08-.18a1,1,0,0,1,.11.21c0,.05.25.54,0,.09a1.54,1.54,0,0,1,.13,1.15,1.6,1.6,0,0,1-.67,1,1.63,1.63,0,0,1-1.34.2,1.84,1.84,0,0,1-.91-.68,2.52,2.52,0,0,1-.44-1.22,3.28,3.28,0,0,1,.87-2.27,1.84,1.84,0,0,1,.74-.49,1.22,1.22,0,0,1,1,.08,1.6,1.6,0,0,1,.67,1.7"/><path class="cls-11" d="M90.7,663.25v0a2.9,2.9,0,0,1,2.38-2h.08l-.59.11.12,0-.54.28.11-.07-.48.41.06-.06c-.14.18-.27.36-.41.53l0-.07.4-.53.27-.22a1.12,1.12,0,0,1,.49-.34.56.56,0,0,1,.27-.13h0l-.5.25,0,0-.42.36,0,0c-.12.14-.23.29-.34.44l0,0-.24.49s0,0,0,0l-.12.49a2.41,2.41,0,0,1,.33-.93,2.55,2.55,0,0,1,.69-.73,1.72,1.72,0,0,1,1.53-.26,1.82,1.82,0,0,1,1.07,1.17,3.27,3.27,0,0,1-.11,2.15,4.26,4.26,0,0,1-.82,1.32,3.26,3.26,0,0,1-1.23.84l-.59.11a1.26,1.26,0,0,1-.81-.22,1.88,1.88,0,0,1-.87-1.1,3.22,3.22,0,0,1,.08-2.07"/><path class="cls-11" d="M94.09,664.88a2.84,2.84,0,0,1-2.6-.33,3.56,3.56,0,0,1-.92-1.57,2.66,2.66,0,0,1,.32-2.16,5.36,5.36,0,0,1,1.37-1.6,3.15,3.15,0,0,1,2.69-.4,2.65,2.65,0,0,1,1.41,3,4,4,0,0,1-2.27,3.07"/><path class="cls-11" d="M85.84,665.58a1.79,1.79,0,0,1-1.48-.81,1.91,1.91,0,0,1-.33-.91,2.34,2.34,0,0,1,0-1.09,3.76,3.76,0,0,1,1-2,2.6,2.6,0,0,1,1.72-.85,1.73,1.73,0,0,1,1.47.8,1.88,1.88,0,0,1,.33.9,2.33,2.33,0,0,1,0,1.09,3.9,3.9,0,0,1-1,2,2.59,2.59,0,0,1-1.73.86"/><path class="cls-11" d="M95.65,664c.86-.26,1.72-.57,2.58-.79a12.46,12.46,0,0,1,2.49-.22c1,0,.93,1.81-.06,2.11a12.89,12.89,0,0,1-2.51.65c-.86.08-1.71.08-2.57.12s-.8-1.6.07-1.87"/><path class="cls-11" d="M106.79,664.54a2.61,2.61,0,0,1,2-1.33c.46,0,.91.07,1.36.11,1.09.08,1.27,1.78.22,2.58-.42.32-.83.67-1.26,1a1.85,1.85,0,0,1-2.14,0,1.9,1.9,0,0,1-.18-2.37"/><path class="cls-11" d="M111.74,667l-.09-.1a1.83,1.83,0,0,1-.33-.85,2.31,2.31,0,0,1,0-1,3.58,3.58,0,0,1,.86-1.89,2.31,2.31,0,0,1,1.6-.8l.55.09a1.75,1.75,0,0,1,.85.66l.08.1a1.84,1.84,0,0,1,.34.85,2.3,2.3,0,0,1,0,1,3.5,3.5,0,0,1-.86,1.89,2.27,2.27,0,0,1-1.6.81l-.55-.09a1.69,1.69,0,0,1-.85-.67"/><path class="cls-11" d="M90.36,665.14a8.42,8.42,0,0,1-2.42.7,4,4,0,0,1-2.72-.91,2.56,2.56,0,0,1-.49-2.83c.36-1,1.37-2,2.22-1.88a4,4,0,0,1,2.87,1.38,9.46,9.46,0,0,1,1.2,2.14,1.2,1.2,0,0,1-.66,1.4"/><path class="cls-11" d="M80.5,663.08,79,661.82a1.6,1.6,0,0,1,0-2.12c.52-.68,1.36-.79,1.75-.17s.75,1.16,1.12,1.75c.57.9-.58,2.46-1.37,1.8"/><path class="cls-11" d="M80.69,659.18a3.48,3.48,0,0,1,1-.63,2.18,2.18,0,0,1,1.41.11,3,3,0,0,1,1.77,1.26,2.18,2.18,0,0,1-1.06,3,3.21,3.21,0,0,1-1.15.34,5.63,5.63,0,0,1-1.17-.22c-.87-.19-1.25-.72-1.56-1.66a2.06,2.06,0,0,1,.78-2.15"/><path class="cls-11" d="M87.47,663.86c-1.28.27-2.76.66-3.89.14a4.93,4.93,0,0,1-2.67-2.57,1.75,1.75,0,0,1,1.34-2.19,8,8,0,0,1,2.88.58,19.62,19.62,0,0,1,2.7,1.61c.73.39.78,2.19-.36,2.43"/><path class="cls-11" d="M70.12,656.71l-.15-.3c-.08-.17-.17-.34-.24-.53a2.71,2.71,0,0,1,0-1.21c0-.2.11-.4.16-.6a2.91,2.91,0,0,1,1.52-1.59h0a1.15,1.15,0,0,1,.75-.05.67.67,0,0,1,.44.15l.26.14.25.16a1.89,1.89,0,0,1,.66,1.43,3.06,3.06,0,0,1-.2,1.29,2.64,2.64,0,0,1-.49.83,2.05,2.05,0,0,1-.65.63,1.52,1.52,0,0,1-.77.3,1.13,1.13,0,0,1-.77,0,1.46,1.46,0,0,1-.76-.61"/><path class="cls-11" d="M71,653.41a1.75,1.75,0,0,1-1,0c-.17,0,.17,0,.17,0a1.29,1.29,0,0,0-.25,0,1.6,1.6,0,0,1-.33-.07,1.7,1.7,0,0,1-.9-.89,3,3,0,0,1,.74-3.1,1.77,1.77,0,0,1,1.75-.57,1.53,1.53,0,0,1,1,1.46,3.11,3.11,0,0,1-.9,2.45l.34-.43a1.63,1.63,0,0,0-.11.17c.08-.15.16-.3.23-.46,0,.07,0,.13-.07.19,0-.15.08-.3.13-.45a.41.41,0,0,0,0,.16c0-.26,0-.52,0-.78l0,.13c0,.12,0,.08-.06-.11,0,.05.09.14.14.2.5.56-.07,1.87-.78,2.07"/><path class="cls-11" d="M69.6,650l-.63-.35-.3-.16s-.36-.12-.16-.13l.62-.21a1.24,1.24,0,0,1-1.49.08c-.66-.47-.58-1.74,0-2.52s1.48-.91,2-.34a1.83,1.83,0,0,1,.15,1.91l.13-.76c0-.21.06.09.09.15s.11.27.17.4l.32.74c.23.53-.45,1.45-.92,1.19"/><path class="cls-11" d="M64.8,648.79a2.3,2.3,0,0,1-2.11.38c-1.15-.4-1.64-1.85-1.41-3.35a3.85,3.85,0,0,1,1.33-2.31,2.33,2.33,0,0,1,2.16-.56c1.13.27,1.88,1.77,1.58,3.26a4.16,4.16,0,0,1-1.55,2.58"/><path class="cls-11" d="M61.65,644.37l2.25.6c1.31.35.25,3.1-1,2.61l-2.16-.84c-1.15-.44-.25-2.68.93-2.37"/><path class="cls-11" d="M134.37,658.21a7.58,7.58,0,0,1,.41-1.64,4.62,4.62,0,0,1,1.47-2,3.9,3.9,0,0,1,2.62-.6c1,.14,1.5,1,1.2,2.34a6.52,6.52,0,0,1-1.4,2.92,3.7,3.7,0,0,1-1.68,1,3.07,3.07,0,0,1-1.62-.08,1.77,1.77,0,0,1-1-2"/><path class="cls-11" d="M128.79,648.16c1.83-1.51,3.17-2.95,5.39-2.92s3.94,1.4,5.37,3.1c1,1.18.48,4-1,4.86-2.2,1.18-4.51,1.92-6.67,1.08-2-.79-2.55-2.64-3.56-4.6a1.41,1.41,0,0,1,.5-1.52"/><path class="cls-11" d="M148.38,651.7a13.84,13.84,0,0,1,4.22.17c1.32.33.77,3.23-.63,3a6.7,6.7,0,0,1-2.06-.51l-1.91-.87a1,1,0,0,1,.38-1.84"/><path class="cls-11" d="M158.39,656a2.32,2.32,0,0,0,1.32.28c.55,0,1,.09,1.56.11,1,0,1.38,1.83.32,2.44a2.57,2.57,0,0,1-2.46.39,4.3,4.3,0,0,1-1.73-1.43c-.49-.69.2-2.2,1-1.79"/><path class="cls-11" d="M169,659.3l3.11.66c.62.14.27,1.38-.36,1.22l-3.08-.79c-.56-.14-.22-1.21.33-1.09"/><path class="cls-11" d="M181.36,661.36a10,10,0,0,1,3.31,0c.51.16.45,1.17-.09,1.34a9.75,9.75,0,0,1-3.32.08c-.71,0-.62-1.35.1-1.39"/><path class="cls-11" d="M167.6,658.59a20.17,20.17,0,0,1-2.25.5c-1,.12-1.79-.72-2.56-1.37-1.08-.9-.48-3.43,1-3.38.92,0,2.07-.12,2.78.58a15.93,15.93,0,0,1,1.5,2c.36.49.13,1.54-.49,1.68"/><path class="cls-11" d="M148.38,652.66c-1-.09-2-.09-3-.27a10.83,10.83,0,0,1-2.77-1.27c-1-.51-.75-2.86.57-2.67a12.64,12.64,0,0,1,3.09.52,26.57,26.57,0,0,1,2.77,1.61c.76.44.2,2.16-.66,2.08"/><path class="cls-11" d="M136,649.58a10.46,10.46,0,0,0-4.46-.7c-.55,0-.57-1,0-1.2a6.29,6.29,0,0,1,4.89.59c.59.31.21,1.6-.44,1.31"/><path class="cls-11" d="M123.3,649.6a1.22,1.22,0,0,0-.79-.15c-.37.14-1,.84-1.61,1a3.46,3.46,0,0,1-2.81-.34,1.74,1.74,0,0,1-.56-1.64,3.63,3.63,0,0,1,1.55-2.59,3.83,3.83,0,0,1,2.48-.82c.78.12,1.21.75,1.73,1.34a15.6,15.6,0,0,1,1.16,1.26c.56.8-.28,2.3-1.15,2"/><path class="cls-11" d="M118.05,650.65a5.65,5.65,0,0,1-1.69,1.17,2.83,2.83,0,0,1-2.42-.24,2.92,2.92,0,0,1-.91-.81s-.67-1.28-.5-1.48c0,0,.08.41.11.51a3.24,3.24,0,0,1-.1-1.25A4.23,4.23,0,0,1,115.3,645c2-.6,3.32.6,3.75,2.72a3.76,3.76,0,0,1-1,2.95"/><path class="cls-11" d="M105.49,650.06c.05.11-.28-.36-.15-.22l1,.15a1.64,1.64,0,0,1-1.37,0c-.63-.35.43.23-.22-.13a1.65,1.65,0,0,1-.61-.54c-.11-.15-.21-.32-.33-.46.21.25-.1-.1-.15-.14a1.7,1.7,0,0,1-.26-.38,2,2,0,0,1,1-2.78,2.5,2.5,0,0,1,2,.07,2.45,2.45,0,0,1,1,3.26l0-1.21a6,6,0,0,1,.17,1.71,1.56,1.56,0,0,1-.94,1.26.87.87,0,0,1-1.1-.58"/><path class="cls-11" d="M48.25,610.7c-1.32,1.5-1.46,2.45-2.71,3.85a2.13,2.13,0,0,1-3.35.05c-4.91-6.42,11.6-15.87,15.29-18.51,4-2.89,8.88-4.25,13.35-6.28l-5.71,9.74c-1.64,2.8-5.38,3.37-8.15,4.67A26.51,26.51,0,0,0,48.25,610.7Z"/><path class="cls-11" d="M46,616.89a2.34,2.34,0,0,1,.44.79,2.48,2.48,0,0,1,.09.87,4.83,4.83,0,0,1-.25,1l.18-1V619a1.93,1.93,0,0,1-1.59,1.95l-.29,0,.8-.26a2,2,0,0,1-1.64.3,2.74,2.74,0,0,1-.71-.47,2.46,2.46,0,0,1,.12-3.33c.92-1.12,2.19-1.17,2.85-.28"/><path class="cls-11" d="M45.85,619.41c2.39,0,3.73,1,5.68,2.06,1.59.87,2.77.7,4.6.53a4.08,4.08,0,0,1,2.88.71c.89.56.43,2.31-.53,2.95a4,4,0,0,1-3.95.64,29,29,0,0,0-4.75-1.1c-2.59-.47-4.3-1.75-4.72-4.81a1,1,0,0,1,.79-1"/><path class="cls-11" d="M64.86,625.2c1.08-3.63,5.92-3.41,7.72-2.39,2.32,1.32,4.68,3.79,4.37,7.34A3.09,3.09,0,0,1,73.52,633c-1.21-.24-1.8-1.22-2.78-1.84s-2-.73-2.89-1.31c-1.2-.78-3.65-2.36-3-4.61"/><path class="cls-11" d="M80.44,630.91A4.81,4.81,0,0,1,81.91,633a11.53,11.53,0,0,1,.25,3.08c0,.3,0,.23,0-.2l.12.37c.16.32.28.7.43,1,.32.68.7,1.31,1,2a1.47,1.47,0,0,1-1,2.08c-2,.14-3.23-1-4.73-2a4.27,4.27,0,0,1-1.79-2.53c-.46-1.7,0-3.14.9-4.81.68-1.29,2.57-1.92,3.36-1.07"/><path class="cls-11" d="M88.79,641.3c.8-.28,1.78-.78,2.53-.52a6.09,6.09,0,0,1,2.06,1.37,1.56,1.56,0,0,1-.92,2.51,5.71,5.71,0,0,1-2.57,0c-.74-.25-1.19-1.15-1.66-1.8a1.12,1.12,0,0,1,.56-1.53"/><path class="cls-11" d="M100.2,644.22l4.58.62c.9.13.52,1.72-.39,1.57l-4.55-.74c-.64-.11-.29-1.54.36-1.45"/><path class="cls-11" d="M140.65,651.63a56.07,56.07,0,0,1,6.94,1.26c.42.13.25,1-.2,1a56.16,56.16,0,0,1-7.06-1.28c-.5-.1-.17-1,.32-1"/><path class="cls-10" d="M57.17,613.06c1.67,2.19,4.78,3.42,7.45,4,.48.11.31,1-.19,1.13-4,1.09-7.23,0-9.19-3.32-.73-1.21,1.07-3,1.93-1.82"/><path class="cls-10" d="M65.16,620.45c3.59.13,7,.3,10.64.25,3.2-.05,5.44,1.85,8.41,2.49,4,.86,8.23-.3,12,1.59s7.75,3.74,11.33,6c.58.37,0,1.55-.66,1.32-4.54-1.6-7.24-2.5-12.45-1.69-3.76.58-9.49.83-12.85-.41-2.64-1-4.86-3.53-7-5.33-2.87-2.4-5.68-3-9.47-3.7-.22,0-.1-.47.13-.47"/><path class="cls-10" d="M116.1,630c.12.48,1.11.6,1.5.52.67-.14,1.05.87.32,1.3a2.09,2.09,0,0,1-3.29-1.36c-.18-1,1.25-1.43,1.47-.46"/><path class="cls-10" d="M119.65,632.15c3.35-3.06,6.56-1.7,10.29-1.35q8.42.81,16.83,1.75t16.81,2c4.36.57,8.94.64,12.71,3,1.13.7.74,3-.62,3.33-4.95,1.29-10.14-.22-15-.88Q152.86,639,145,638t-15.68-1.76c-3.85-.41-7.72.43-9.8-3.18a.77.77,0,0,1,.12-.94"/><path class="cls-10" d="M181.42,639.68c1.47-.66,2.54-1.72,4.11-2a14.4,14.4,0,0,1,5.11.43c3.48.63,6.26,1.44,9.05,3.81,1.08.91.63,3-.88,3.08-3.29.16-6.09-.48-9.28-1-1.63-.26-3.46-.2-5-.84-1.28-.54-2.1-1.7-3.32-2.36-.44-.24-.19-.94.21-1.12"/><path class="cls-10" d="M206,643a16.21,16.21,0,0,1,11.4-1.93,50.69,50.69,0,0,0,8.26,1c2.42,0,3.48-.06,5.41,1.54a2.23,2.23,0,0,1-.08,3.5c-3.93,2.43-8.57.45-12.84.82-4.65.41-8.49-.23-12.23-3.17A1.13,1.13,0,0,1,206,643"/><path class="cls-10" d="M233.54,644.38a12.42,12.42,0,0,1,2.82-2c1.18-.42,2.75,0,3.93,0,2.64,0,5.14-.37,7.68.55a1,1,0,0,1-.25,1.93c-2.7.45-5.4,0-8.09.72a12.81,12.81,0,0,1-2.87.88,19.51,19.51,0,0,1-3.08-.61c-.64-.11-.59-1.11-.14-1.46"/><path class="cls-10" d="M255.05,642.83c2.34-.81,4.8-1.73,7.1-2.67s3.64-1.9,6-1.36c1.18.27,1.13,2,.32,2.66-1.84,1.58-3.52,1.33-5.63,1.56-2.46.27-5.06.68-7.49,1.1a.67.67,0,0,1-.31-1.29"/><path class="cls-10" d="M269.63,638.54c1.76-3,3.43-4.81,6.46-5.92,2.16-.79,4.31-1,6.43-2a48.49,48.49,0,0,1,4.82-2.33,95.11,95.11,0,0,1,25-4.21c5.54-.09,9.54.1,14.44-3a32.82,32.82,0,0,0,8.2-7.46,31,31,0,0,0,4.3-8.6c.8-2.13,1.43-3.18,3.32-4.08,3-1.42,6.57,2,6.79,5.28.48,6.93-3.57,13-8.63,16.4-6.7,4.52-14.28,4.16-21.59,6.87-3.39,1.26-6.22,2.65-9.84,3.17-5,.73-10.17,1.14-15.1,2.46-4.58,1.22-9.59,2.07-14,3.62-3.94,1.38-5.82,2.36-10,1.25a1,1,0,0,1-.52-1.42"/><path class="cls-12" d="M281.75,355.89c-9-13.11-21.06-31.94-16.6-48.59,3.45-12.86,13.15-24.4,26-27.93s28.23,2.47,33.54,14.67l-.13.06c11.71,22.31,15,37.84,19.24,56.28,0,0-20.69,16.7-38,17.53A27.3,27.3,0,0,1,281.75,355.89Z"/><path class="cls-13" d="M280,352.85c19.28-16.07,44.17-28,55.89-33.15a185.56,185.56,0,0,0-11.33-25.59l.12-.07c-5.3-12.2-20.7-18.2-33.53-14.67s-22.54,15.07-26,27.92C261,322.76,272.09,339.48,280,352.85Z"/><path class="cls-14" d="M261.41,239c-13.46,37.35-1.69,78.78,12.81,112.89,28.59-19,61.65-32.23,63.25-41-12.92-37.32-41-73.41-70.5-82.23Z"/><path class="cls-15" d="M274.22,351.93c28.21-18.18,62.57-31.43,63.25-41"/><path class="cls-16" d="M254.88,280.29a14.34,14.34,0,0,0-.07,2.94c0,.95.07,2.1.18,3.44,0,.67.11,1.39.16,2.15s.18,1.56.28,2.4c.37,3.37,1.07,7.34,1.95,11.73s2.14,9.14,3.58,14.1A263.87,263.87,0,0,0,269.73,342c1.28,3.13,2.37,5.63,3.16,7.35a15.27,15.27,0,0,0,1.33,2.62,15.64,15.64,0,0,0-.93-2.79c-.67-1.76-1.64-4.31-2.83-7.47-2.37-6.31-5.53-15.07-8.44-24.93-1.43-4.93-2.66-9.67-3.64-14s-1.71-8.28-2.17-11.61c-.13-.84-.25-1.63-.36-2.38s-.17-1.46-.24-2.12c-.17-1.33-.3-2.48-.37-3.42A15.81,15.81,0,0,0,254.88,280.29Z"/><path class="cls-12" d="M322.74,516.51A241.29,241.29,0,0,0,348.58,471c11.56-26.72,4.91-39.84,4.91-39.84-12.66-6-36-22.53-55.7-30.07,0,0-28.48-5.47-41.89,37.66-11.46,36.87,6.28,48.51,6.28,48.51,7.05,2.91,26.06,6.23,28.74,8.06C304.5,504.59,316.06,513.21,322.74,516.51Z"/><path class="cls-17" d="M223.94,476.05c17.52,5.45,40.95,11.94,42.43,12.63,8.36-47.36,43.22-68.18,68.71-69.3-9.55-6.23-23-15.28-26.6-18.73-10.9-10.32-5.25-17.49-14.91-27.76,0,0-48.77-36.79-82,20.93C175.86,455.8,223.94,476.05,223.94,476.05Z"/><path class="cls-17" d="M155.06,462.69a131,131,0,0,0,77-4.91S276.2,434.34,286.13,382s-33.45-85.34-100.85-80.45-114.84,6-107.61,77.34S155.06,462.69,155.06,462.69Z"/><path class="cls-18" d="M69.53,400.14s-2.88,12.77-1.59,13.73c31.38,23.27,73.73,31.94,112.27,32.51,32.27.49,68.06-4.13,96.92-19.26,3.17-1.67,14.67-8.35,17.91-10.21A222.69,222.69,0,0,1,297.6,392c9.88-55.95-44.91-95.58-112.33-90.43S85.52,318.65,69.53,400.14Z"/><path class="cls-19" d="M190.35,478.37c9.47-38.57,33.67-37.32,34.54-36.64,1.16.91,18.92,61.57-29.95,93.35C192.75,528.93,183.21,507.46,190.35,478.37Z"/><path class="cls-12" d="M239.49,528.78l28.83-67.65c-5.06-2.85-26.12-15.27-39.23-17.79-18.72-3.61-46.3-4.5-50-4.44,0,0-33.46-.52-38.93,42.39S166,531.42,166,531.42c30.29,3,30.67-1.18,69.75-6.09Z"/><path class="cls-17" d="M80.14,495c38.92,36.51,95.23,40.43,114.8,40.13-13.42-71.82,29.95-93.35,29.95-93.35s-18.14-2.71-27.62-3.31c-15.46-1-37.93-2.93-44.64-4.31-60.75-12.5-65.92-49.71-78.88-76.78,0,0-11,28.82-15.62,46.12C43.66,457.69,80.14,495,80.14,495Z"/><path class="cls-20" d="M85.89,385.31c-8.58,17.44-15.54,36.76-15.7,56.41-.16,19.89,9.82,37.2,24.53,50,13.77,12,33.42,19.86,53.34,24.3,13,2.89,33.1,4.2,44.76,4.3"/><path class="cls-21" d="M224.89,441.73l-3.11-.59c-1-.19-2.23-.41-3.66-.63s-3.05-.51-4.86-.75c-7.21-1-17.23-2.09-28.3-3s-21.09-1.69-28.31-2.61c-3.61-.44-6.52-.89-8.52-1.24l-3.11-.57,3.07.76c2,.46,4.88,1.06,8.48,1.65,7.19,1.23,17.21,2.3,28.28,3.23s21.1,1.64,28.34,2.39c1.81.16,3.44.36,4.88.52s2.67.3,3.68.44Z"/><path class="cls-22" d="M79.39,252c1.67-10.26,7.81-19.23,17.51-26.59,19.54-14.84,53.5-23.26,94.29-23,38.16.28,60.41,7.81,73.36,20.55,7.77,7.64,12.2,17.17,14.7,28.12,11.54,50.56,28.78,98.76,32.31,150.49,0,0-9.16,28.25-114.71,34.69S58.13,403.45,58.13,403.45,74.38,283,79.39,252Z"/><ellipse class="cls-17" cx="208.82" cy="335.13" rx="42.21" ry="43.31" transform="translate(-5.12 3.24) rotate(-0.88)"/><path class="cls-23" d="M181.76,312.58c-.2.35-.32.74-.52,1.08a.6.6,0,0,1-.23.19c.7.37-.49,1-.51,1s-.18,0-.21,0v0c-.23.31-.23.31-.3.42a2.49,2.49,0,0,1,.43-.29c-1.12,1.11-1.09,2.56-.78,2.56.15,0,.41,0-.16,1.19,1-.62,1.58,1,1.69,1.3a.46.46,0,0,1-.13.54.72.72,0,0,0-.21.32c0-.1,0-.11,0-.12s0,0,0,0a7.19,7.19,0,0,1-.85,1.14s-.23.1-.16-.33a3.19,3.19,0,0,1,.83-1.56.57.57,0,0,1,.21-.12c-.15-.39-1.17-.78-1.49-.36.15.1.2.21.32.49s.24.47.47.48a1.48,1.48,0,0,0-.74.54,1.47,1.47,0,0,1,0-.31.47.47,0,0,0,0-.21c0-.06-.11,0-.26.08,0-.17.05-.33.08-.5V320l.05-.28L179,320c-.06.09-.23.35-.31,0h0a1.75,1.75,0,0,1,0-.61.61.61,0,0,1-.23.05h0a.5.5,0,0,0-.22,0c.11-.28.08-.31,0-.37l-.08.05c.1.12-.08.28-.16.3-.05-.16.05-.3.06-.45s-.05,0-.12.07a2.14,2.14,0,0,1,.09-.27l0,0c-.17.18-.13.48-.36.62l0,0a4.11,4.11,0,0,1,.68-1.58.67.67,0,0,1-.06.17,10.73,10.73,0,0,1,2-3.3,1.1,1.1,0,0,1-.74-.89c.15-.14.37-.19.5-.37h0l-.08,0c0-.09,0-.12,0-.39h0l-.08,0a5.06,5.06,0,0,1,0-.55c.2.23.2.23.15.52v0a.18.18,0,0,1,.16.19l.1-.14c0,.11-.11.32.37.09s.85-.5,1.28-.74Zm43.33-15.2c0-.06,0-.06-.83-.35.17-.08.35,0,.52-.06s.07.13.1.08-.06-.17-.11-.17,0,0,0,.06-.1-.12-.17-.16h0a.42.42,0,0,1-.35,0c.06.08,0,.13,0,.2-.15-.15-.27-.19-.38-.13l-.09,0a.19.19,0,0,0,.13,0s0,0-.06-.05a1.23,1.23,0,0,0-.19,0h0a2.65,2.65,0,0,0-1-.22.47.47,0,0,0-.24,0s-.14.25.3.32a6.5,6.5,0,0,0,1.05.1c-.09.06-.21.08-.27.18s0,.1,0,.22a1.53,1.53,0,0,1,.3,0c.24.05.33.05.39,0-.29-.16-.31-.24-.3-.28s.13,0,.52.2a2.14,2.14,0,0,0,.57.24S225.06,297.46,225.09,297.38Zm9.55,3.55c.24.15,1,.81,1.45,1.17-.93-.81-1.89-1.58-2.88-2.3a42.14,42.14,0,0,0-5.59-3.44l-.34-.17.14.07-.14-.06.05,0-.24-.11a.57.57,0,0,1,.17.12,1.66,1.66,0,0,0-.64-.25l0,0h0l0,0h0l0,0a2.47,2.47,0,0,0-.58-.14.31.31,0,0,0-.13,0c.17.61.88.23,1.16.65-.9-.32-.9-.32-1.18-.24l.17.07c.72.3,1.49.48,2.2.84-.18-.05-.18-.05-.22,0a.63.63,0,0,0,.2.1h-.05c.18.16.44.11.64.23v.07h-.06c.3.14.52.44.84.54a1.22,1.22,0,0,1,.6.25.5.5,0,0,0-.21-.07c.14.05.24.22.42.16v-.05a.2.2,0,0,0,.26.11,5.1,5.1,0,0,1,.51.47l-.12-.06a4.05,4.05,0,0,0,.35.21.67.67,0,0,0-.12-.06,2,2,0,0,0,.56.3,2.29,2.29,0,0,1-.23-.21l.57.32a1.46,1.46,0,0,0-.3-.07c.25.47.78.43,1.15.67h0c.39.21.42.22.54.23l0,0s1.17.8,1.42.95C234.88,301.12,234.75,301,234.64,300.93Zm-52.41,10.8a1.1,1.1,0,0,1,.24-.15,2,2,0,0,1-.29.51,10.76,10.76,0,0,0,1-1.09,29.7,29.7,0,0,1,3.25-3.28h0c.14-.21.39-.28.54-.47l-.12,0a1.11,1.11,0,0,0-.61.28c-.51.41-.89.94-1.39,1.34s-1.11.57-1.59,1a1.24,1.24,0,0,0-.45.63c.27-.1.31-.09.39-.07l0,0c0,.13-.14.24-.63.71a4.27,4.27,0,0,0-.78.84S182.05,311.87,182.23,311.73Zm37.34-12.46c.07-.06.18,0,.26-.11s-1.05-.82-1.06-.82c-.24-.12-.26-.15-.21-.23-.33-.13-.69-.17-1-.29-.1,0-.17-.11-.27-.14a1.33,1.33,0,0,0-.42-.06,5.52,5.52,0,0,0-1,.09l.2.07a6.27,6.27,0,0,1,1.47.34c.43.25.61.36.76.28a.88.88,0,0,0,.61.54c-.09.21-.25.37-.34.58.38.26.7.17,1-.26l0,.06,0,.05.07.07c.1,0,.11-.06.12-.09S219.67,299.3,219.57,299.27Zm-37.44,20v0Zm55.28-12.71h.05a1.16,1.16,0,0,0-.36-.42c.16,0,.16,0,.19-.05s0-.16-.31-.44c.32.3.37.3.39.3a1.17,1.17,0,0,0-.19-.26,1.25,1.25,0,0,0,.19.15,1.3,1.3,0,0,0-.41-.34l.07.06a3.78,3.78,0,0,1-.37-.32,4.54,4.54,0,0,0,.5.3l-.68-.57c.11.08.13.08.16.07v0c0,.07.06.1.1.08a1.8,1.8,0,0,0-.26-.3l.06,0,0,0v0c.09.09.18.19.27.27a2.06,2.06,0,0,0-.27-.27s0,0-.24-.22-.21-.18-.28-.18a2,2,0,0,0,.39.38h0c0,.05,0,.08.07.13a2.55,2.55,0,0,1-.87-.46l-.15-.13a4.44,4.44,0,0,0,.69.54c-.33-.14-.41-.17-.46-.12a2.44,2.44,0,0,0,1,.88l0,0s.27,1.18.42,1.12c0,.09.16.32.28.47h-.08c-.11,0-.31,0-.09.24s.47.28.56.57c0-.17.17-.33.83,0l-.14-.11a.68.68,0,0,0,.3.12c.16,0,.1-.19.1-.19-.59-.67-.59-.67-.91-.88A2.22,2.22,0,0,1,237.41,306.54Zm-57.6,5,0,0a.41.41,0,0,0,0-.15v0a.49.49,0,0,0-.08.23S179.78,311.54,179.81,311.5Zm53.91-10.16,0,0a2.48,2.48,0,0,1,.37.29l.24.16a1.94,1.94,0,0,0,.84.31s.23-.06-.3-.45h.05c0-.09-.34-.23-.34-.23h0s0,0,0,0l-.07,0h0s0,0,0-.07h0c-.16-.11-.17-.11-.19-.1s0,0,0,0c-.23-.22-.25-.21-.27-.21a.15.15,0,0,0,0,.06,3.38,3.38,0,0,0-.31-.25h0a3.49,3.49,0,0,0,.57.54c-.3-.22-.51-.34-.56-.31s0,.07.12.16a1.14,1.14,0,0,0-.37-.25c-.1,0-.19,0-.29,0C233.68,301.24,233.7,301.31,233.72,301.34Zm-51.6,17.93,0,0h0Zm54-17.17.25.21,0,0h0ZM212,296.84l-.32,0,.31-.05c-.17,0-.17-.06-.15-.15h-.32a1.17,1.17,0,0,0-.69.16,1.05,1.05,0,0,1-.62.16c.09.07.11.1,0,.14l-.09,0h0a1.2,1.2,0,0,0,.12.12.64.64,0,0,0,.49.09,7,7,0,0,0,.85-.36c0-.07-.09-.12-.28-.14a2.49,2.49,0,0,1,.56.07h0C211.94,297,212,296.87,212,296.84Zm-10.61,1.22s0-.05-.09-.06c-.28,0-.49.22-.76.21l-.45.09h0s-.61.1-.65.19a.71.71,0,0,0,.44,0c.36,0,.7-.16,1.06-.22.1,0,.21,0,.31,0h0C201.27,298.18,201.37,298.14,201.41,298.06Zm8.55-.63c.09-.08,0-.41-.26-.42a1.4,1.4,0,0,0-.76.28l.05,0a1.92,1.92,0,0,0,.85.15h0A.16.16,0,0,0,210,297.43Zm-10.9.92a1,1,0,0,1,.31-.1,1,1,0,0,0-.38-.08,1.53,1.53,0,0,0-.89.28,0,0,0,0,1,0,0C198.21,298.66,198.72,298.47,199.06,298.35Zm-18.61,11.7a.55.55,0,0,0,.1-.18h0a.76.76,0,0,0-.18.21.08.08,0,0,0,0,0S180.43,310.08,180.45,310.05Zm-.37.73h0s-.06,0-.06,0,0,0,0,0S180.08,310.84,180.08,310.78Zm-.36,1.53a1.24,1.24,0,0,0,.11-.26v0c0-.07,0-.12,0-.13h0v0C179.62,312.2,179.67,312.27,179.72,312.31ZM180,311s-.05,0-.08.06h0s0,0,0,0S180,311,180,311Zm38.61-14.23a.17.17,0,0,0,0-.1.63.63,0,0,0-.26,0h0s0,0,0-.06-.06,0-.08,0v0l0,0a2.2,2.2,0,0,1-.57-.1c0-.06,0-.06,0-.08s0,0-.18.07-.12,0-.17,0a0,0,0,0,0,0,0c0,.09.22,0,.31,0a1,1,0,0,0,.23,0,1.52,1.52,0,0,0-.32.06l.22.07-.15,0v0a1.65,1.65,0,0,0-.4-.07h0l-.24-.07c.13,0,.14-.05.14-.05a2.44,2.44,0,0,0-.39-.07l.1.08a.53.53,0,0,0-.31,0,.13.13,0,0,0,0,.08v0l0,0,.12,0s0,0-.05-.07l0,0c.68.22.68.22.72.09.39.16.39.16.58.08h0a.06.06,0,0,0,0,.05.31.31,0,0,0,.15,0l.21,0S218.25,296.71,218.58,296.72Zm-38.35,13.73c.05-.1.07-.14.05-.15h0l0,.05A.12.12,0,0,0,180.23,310.45Zm39.41-13.82h.1a2.29,2.29,0,0,0-.73-.16c-.31,0-.32.1-.32.16l.27.07h0l.11.05a.38.38,0,0,0-.28,0h0l.22.05c.12,0,.07-.05.05-.08h.08l-.07,0c.29.06.41,0,.45,0a.68.68,0,0,1-.19,0s0,0,0,0l-.13,0a1.86,1.86,0,0,1,.43,0Zm-34.79,73.59c.84.57,4,2.33,4.24,2.21,0-.06-.07-.14-.68-.48a11.87,11.87,0,0,0-1.43-.66c-.8-.35-1.5-.89-2.26-1.3l-.11,0c0,.05,0,.05.44.34l-.42-.24Zm-2.67-1.92a1.07,1.07,0,0,0,.16.14l-.35-.26a5.84,5.84,0,0,1,.79.7c-.13-.05-.21-.18-.35-.22l0,0a16.85,16.85,0,0,0,2.57,1.68S182.91,368.92,182.18,368.3ZM181,367.18c.35.3.69.62,1,.94l-.05-.05a1,1,0,0,0,.13.09c-.35-.3-.67-.63-1-.92Zm4.51-65h0Zm0,0h0Zm53.76,5.23c-.32-.31-.44-.45-.37-.53a.49.49,0,0,1-.25-.31c-.34-.14-.58-.45-.93-.56h0c-.19,0,.1.34.19.45a4.63,4.63,0,0,0,1.58,1.41C239.93,308.1,239.42,307.6,239.25,307.44Zm-51.6,60.24,0,0h0Zm-8.84-5.36h0l.06.09Zm3.37,6-.19-.18A1.13,1.13,0,0,0,182.18,368.3Zm6.24,1.77c.1,0,.52.32,1,.67a2.16,2.16,0,0,0,1.09.48c-.4-.3-.75-.67-1.17-.94a1.23,1.23,0,0,0-.68-.24l-.31,0Zm35-46.12c-.05,0-.1,0-.09,0s0,0,.16,0A.07.07,0,0,0,223.46,324Zm10.13-7h0Zm5.89-2.62a.85.85,0,0,0-.28-.12s-.16,0,.05.43a3.39,3.39,0,0,0,.68,1c.2.13-.05-.57-.19-1-.08-.22-.1-.29-.12-.36h0C239.62,314.39,239.62,314.4,239.48,314.32Zm4.83,1.24h0l0,0Zm-5.13-1.87h0a1.83,1.83,0,0,0-.51-.69l0,0s.07.17.14.31a5.3,5.3,0,0,0,.45.77C239.28,314,239.27,313.89,239.18,313.69Zm-56.1,25.47a3.77,3.77,0,0,0-.28-.57l-.05-.07h0s-.44-.68-.8-1.28c.08.11.1.11.12.12s-.08-.36-.16-.54l0-.05a1,1,0,0,0-.14.63A2.65,2.65,0,0,0,183.08,339.16Zm-3.15,6-.09-.11c.21.2.25.24.73.17a1.45,1.45,0,0,1,1.29.2c.41.3.5.46.3.56-.5.25-1,0-1.53.06h0c.47.11.71,1.32,1.09.8a11,11,0,0,0-.16,1.9.54.54,0,0,0-.24-.14c0,.24.22.88.46,1l.05,0a1.23,1.23,0,0,0-.12-.63c.09,0,.51.18.4-.61-.08-.56-.06-.59.06-.77a7.6,7.6,0,0,1,.64,2,.69.69,0,0,1,.53,0,14.9,14.9,0,0,0-.16-1.89c-.19-.62-.66-1.08-.86-1.68a9.78,9.78,0,0,0-.31-1,1.74,1.74,0,0,0-.1-.19.59.59,0,0,0-.38-.23c-.6-.14-1.23-.17-1.84-.29l-.23-.05a.66.66,0,0,0,0,.28C179.51,344.66,179.51,344.66,179.93,345.15ZM177.85,348a.3.3,0,0,0,.07-.15.22.22,0,0,0,0,.28c.12.2.52.17.9-.06l0,0h0l0,0,.11-.08c.26-.25-.06-.37-.29-.38A.89.89,0,0,0,177.85,348Zm2.79-11.67h0Zm0,9.66h0Zm0-9.39c0-.16,0-.2,0-.24v0c0,.05,0,.06,0,.05a2.08,2.08,0,0,1-.33.45c-.11.13-.15.18-.14.27a.33.33,0,0,0,.12.2s.4.36.49.14A2.58,2.58,0,0,0,180.67,336.64ZM183,351.73l0,0s1.38-.18,1.28.1c.36-.07.72.09,1.08,0h0c.22-.29.36-.49.14-.56,0,0-.17.06-.24.3a1.18,1.18,0,0,0-.41-.06c-.1.14-.16.22-.29.12a.17.17,0,0,0,.12-.11,1.77,1.77,0,0,1-.46.07c-.21,0-.4-.17-.61-.21a3.63,3.63,0,0,0-1.35,0s-.23-.17-.38,0l-.28,0c-.06,0-.12,0-.18,0h0l0,0s0,.11.1.15a.53.53,0,0,0,.18.05l0-.07c.14,0,.27.11.41.15h0c.14,0,.14,0,.18-.1l-.23,0v0l.2-.06A7.35,7.35,0,0,1,183,351.73Zm6-.81c-1.92.52-2.56.7-2.65.38,0,.46-.46.28-.55.18l0,0c0-.09-.12-.37.58-.49.46-.08.48-.12.63-.37a.69.69,0,0,1-.71-.12.46.46,0,0,1,.42-.4l.12,0a10.92,10.92,0,0,1,1.51.18c.59,0,.95-.64,1.56-.56a11.65,11.65,0,0,0,1,.56,8.37,8.37,0,0,1-1.94.7h0Zm-2-.35Zm2,.33a.33.33,0,0,0-.14,0h.09Zm-7.14,1.63h0a3.6,3.6,0,0,0,.7.33,3.19,3.19,0,0,0-2-1.52c-.09,0-.16,0-.13.06A5.15,5.15,0,0,0,181.8,352.53Zm3.72-4.66c.27.14,1.2.08,1.27-.36.06.1.18.31.31.3.44,0,.74-2.64.74-2.66a1.33,1.33,0,0,0-.5-1.35c0,.4-.46.33-.68.51a2.61,2.61,0,0,0-.23-1s0,0,0,0c-.15.25-1.27-.69-1.53-1.38-.21,0-.13.36-.34.42a2.48,2.48,0,0,0-.24-.66.35.35,0,0,0-.12.28c-.28-1.65-.93-1.68-.94-1.68v0a.2.2,0,0,0-.13-.09c-.09,0-.45.24-.23.73-.2,0-.2,0-.27,0s0,0,.12.11a1.55,1.55,0,0,0-.46-.15c-.34,0,.28.73.36.81h0a.43.43,0,0,0,0,.16c0,.17.13.43.35.22a2,2,0,0,0-.06.29l0,0,0,0c-.08.31.2.31.29.3-.2.35-.2.35-.2.38l.15-.09c-.64,1-.66,1.48-.56,1.73,0,.1.15.3.41-.05a1.3,1.3,0,0,0,.13.73c.22.49.64.82.87,1.3s.15.84.35,1.23a2.78,2.78,0,0,0,.29.41c-.34-.42.06-.29.07-.29C185,348.25,185.67,348.48,185.52,347.87Zm.4-19.55h0a.1.1,0,0,0,0,.05s0,0,0-.05Zm-3.22-.21,0,0-.05.05h0a.89.89,0,0,0-.26.28,2.27,2.27,0,0,0-.08-1,3.3,3.3,0,0,1-.12-.8.59.59,0,0,1,.09-.33l0,0c0,.14,0,.26.22.59C182.85,327.43,183,327.76,182.7,328.11Zm-.08.07.06,0h0l-.07.07Zm0,0h0l0,0Zm-.19.26h0l-.14.18h0A.32.32,0,0,0,182.44,328.41Zm8.39,21.67h0a.16.16,0,0,0-.05.06h0S190.83,350.1,190.83,350.08Zm4.58-9Zm-5,3.24Zm4.49-12.42a8.39,8.39,0,0,0-1.19,5.6,4,4,0,0,1,0,2c-.66-.52-.85.08-1.21,1.9-.44,2.17-.85,3.17-2,3,0,0,.14-.09.16-.15.54-1.3.27-2.82,1.05-4.05.45-.72,1.24-1.21,1.42-2.12,0-.22.39-2.21-.81-3-.54,1.4-2.2,1.93-2.55,3.47l.23.37c-.67.38-1.16-1-1.2-1.49-1,.78-1.32-1.61-1.23-2.31.24-2,2.3-2.95,2.5-4.93.11-1.06-1.73-1.2-1.89-1.12s-.29.62-.29.83c.23.14.23.14.31,1.57l.2.35a1,1,0,0,1-1-.65,1.09,1.09,0,0,1,.32-1.3c-.24-1.8-1.22-1-1.23-1-.43-.55-.4-.62-.23-1a.55.55,0,0,0-.29.41c-.56-.48-1.3-.65-1.83-1.17a1.55,1.55,0,0,1-.61-1.22l0,.06h0a4.27,4.27,0,0,0,0-1.89l-.17,0a1,1,0,0,1,.13-.71s-.08-.08-.09-.13c.13-.54.13-.54.84-.71l-.1-.11a1.43,1.43,0,0,1,.74-1.18c-.29.08-.45.36-.7.48l-.13-.09a13.36,13.36,0,0,0,1.64-1.61c.73-.86.75-1,.77-1.21.05-.5-.43-.76-.52-1.2.82-.45,1.91.09,2.62-.75.58-.68-.66-1.53-.68-1.54-.43-.17-.66.47-.63.61a.52.52,0,0,0,.11.19c-.2.07-.25.08-.29.49a1.09,1.09,0,0,1-.17.05c-.47,0-.24-.72-.71-.71s-.66.53-1,.73a.6.6,0,0,1,0,.35,8,8,0,0,1-.95.29h0l0,0c-.43.23-.45.31-.49.6l.13-.11c0,.18-.32,2-1.28,1.67v-.16a1.16,1.16,0,0,0-.32-.08,3.74,3.74,0,0,1,.33-1.27c.33-.71,1.17-.87,1.59-1.5s-.23-1.69.5-2.34l-.18,0a1.05,1.05,0,0,1,.07-.43l-.08.14-.12-.12a1,1,0,0,1-.44.37l-.19-.06c-.46-1,.21-4.32,3.06-6.12l-.17,0a2,2,0,0,1,1.53-.72,1,1,0,0,1-.2.3,1.51,1.51,0,0,1,.29.13c.13-.39.84-.86.85-.87-.06.18-.06.18-.6.69,1.88-.06,1.81-2.23,1.4-2.67s-1.07.06-1.6-.07l0,0a2.71,2.71,0,0,1-.4,0h-.17a1.84,1.84,0,0,0-.33,0h0l.14.11a.56.56,0,0,1-.92-.06c1.12-1,1.12-1,1.15-1.29l-.11-.12c-.39.1-.49.13-1.35.75a3,3,0,0,0,.15-.42h-.17a6.89,6.89,0,0,0,.65-.47c-.29,0-1.3.5-1.82,2a1.88,1.88,0,0,0,.12.18h0c-1.4,1.3-3.1,2.22-4.38,3.67,0,.06.06.16,0,.21h0l-.13.15a1.49,1.49,0,0,1,.1-.43,4.4,4.4,0,0,0,.57-1.07l-.07,0h0a5.93,5.93,0,0,0,.61-.68c0-.06,0-.15,0-.22a9.6,9.6,0,0,1,1.93-1.6s1.12-.68,1.18-1.13a2.2,2.2,0,0,0-1.18.11l-.08-.15a1.88,1.88,0,0,1,.47-.64l-.12-.14a1.79,1.79,0,0,1,.12-.24,1.65,1.65,0,0,0-.57.13,18.7,18.7,0,0,1,2-1.08l-.09-.14a4.59,4.59,0,0,1,.51-.37c-.76.17-1.27,1.18-2.22.68a5.33,5.33,0,0,1,.82-.52h-.18c.63-.74,4.57-1.92,6.19-1.85-.09.18-.09.18-.82.51a4.9,4.9,0,0,0,1.11-.34l-.16.05a.87.87,0,0,1,.31-.14c.82-.11,1.65-.14,2.48-.26s1.94.34,2.8-.38c.49-.42.62-.53,2.53-.4,0,.05,0,.12-.05.17l-.4.19a1.7,1.7,0,0,1,.51,0l-.12.11-.12,0c.5-.05,1-.33,1.49-.16l-.05.2c1.15.22,2-.6,3-.87a1.09,1.09,0,0,1-.05.17l.1.14c2.07,0,3.71-1.6,5.79-1.59.24.05.24.05.42.29h.16l-.14.12a3.42,3.42,0,0,0,1-.07.62.62,0,0,1,.32.17c1,0,1.28,0,1.19.44l-.17.08a9.36,9.36,0,0,0,1.4.15l.08,0h0a.94.94,0,0,0-.78.5,9.5,9.5,0,0,0,1.32-.23l-.14.1.14.11.16,0c-.47.25-.47.25-.53.34.66,0,.66,0,.77-.11s0-.32.05-.46l.14-.11c.08.28.08.28.35.46-.38.71-1.14.94-1.69,1.44h0c.4-.11.66-.66,1.18-.39-.07.26-.19.74,1,.81-.52-.22-.54-.26-.69-.65.26-.54.16-1.17.39-1.71l.17-.06h0a1.58,1.58,0,0,1,.36-.09c.11.41.64.43.73.85a1,1,0,0,1-.35.88c.09,0,.09,0,2.43-.73a4.42,4.42,0,0,0-.53.44c.27.14.48.25,1.91.3-.09-.08-.22-.17-.31-.24.95-.08,1.63.83,2.59.73-.06-.32-.14-.33-.55-.34,0-.45.25-.55.72-.31l-.09.16a3.47,3.47,0,0,0,.33.82l.11-.15c.71,0,1.25.57,1.95.58a1.58,1.58,0,0,0-.14.36c.34.08.34.08.63-1.18-.48.07-.86.49-1.37.39-.28-.05-.87-.45-.73-.79s.45-.33,1.41-.56l0-.17.65-.06-.41-.14.17-.11.21.06-.14-.1a3.1,3.1,0,0,1,.88.25,3.39,3.39,0,0,0-.34-.23l.16-.1a.87.87,0,0,1,.58.39l.19,0c.07.07.07.07.51.17,0-.05,0-.12,0-.17.4.11.72.42,1.14.45l-.12-.14c.34.17.7.27,1,.47a2,2,0,0,1-.42-.07l.09.09h0a4.73,4.73,0,0,0,.58.39h0c.87.5,1.69,1.11,2.6,1.55l.74.35c.56.25.81.83,1.23,1.22,0,.2.14.36.17.55l-.14.1a3.17,3.17,0,0,1-1.14-.68c.19.6.65,2,1.33,1.85.06.37.06.37.37.49l-.16.07a4.53,4.53,0,0,1-.65-.62l.07.21c-.6,0-.6,0-3.08-2.18,0-.34.16-1.05-2.15-1.93-.06-.19-.26-.79-.94-.28,1.71,1.31,1.71,1.31,2.17,2-.27.1-.27.1-1.75-.15l0,.13-.18.1-.06.23c1.64.08,1.64.08,1.85.26s.2.95.79,1a.69.69,0,0,1,.25-.26,5.4,5.4,0,0,1,1.34,1.53,8.69,8.69,0,0,0,2,.35,1.4,1.4,0,0,0,.09-.17l-.15-.1.76.06c.1-.2.12-.22-.09-.55,0,.06.06.14.09.19-.25,0-.25,0-.44-.32l.19,0a5.75,5.75,0,0,1-.91-1,1,1,0,0,1,.61.29h0l.23.21c.4.44.64,1,1,1.44l.12-.13s3.7,2,4.05,2.89a2.32,2.32,0,0,1,.89.35c-.56,1.05,1,2.91,1.56,2.87,1.14-.06,1.14-.06,2.53,2.84l0-.05h0c.18.34.18.34.54,1.14l-.18-.05c-.14.23-.11.56-.35.74a3.53,3.53,0,0,1-1.89-1.81,12.22,12.22,0,0,0-2.6-2.89h-.13c-.51,0-1.16-.6-1.54,0,0,0-1.12,2-.33,3.12.25.36,1.21.34.92.87-.36,0-.6-.35-1-.3a3.16,3.16,0,0,1-.54-1.51h0c-.24,0-.46.16-.71.07.11-.77.87-1.22.94-2s-.14-.91-.66-1.29l-.16.09-.17-.06-.08.18a.84.84,0,0,1,.13.46c0,.16-.12.36-.14.52-.08.62-.53,1.15-.38,1.81a3.63,3.63,0,0,1,.07,1.06.4.4,0,0,1-.41.37.76.76,0,0,1-.12,1.23l-.16-.1c0-.14,0-.31,0-.44l-.29-.24.11-.17a.5.5,0,0,0-.31.1.51.51,0,0,1-.13-.31l-.11.16c-.09-.56.32-1.05.18-1.62a3,3,0,0,0-.2.4l0-.19a2.09,2.09,0,0,0-.35,0,1.08,1.08,0,0,0,.06-.4.78.78,0,0,0-1,.07c-.06.51.62,1,.15,1.49a3.13,3.13,0,0,1,.18.9,2.32,2.32,0,0,0-.38.06c0,.05.06.11.08.16a3.4,3.4,0,0,1-1.33.17c-.38,0-2.16-.05-2.16-.05s-.34.4.41,2c.39.79.88,1.77,2,1.89a1.65,1.65,0,0,0,.22-.36c.73-.18,1.38.44,2.12.23s1.22-1,2-1.14a1.22,1.22,0,0,1,.27,0c.19,0,.47.15.71.89.51,1.6,3.08-.54,3.22-1.67a5.62,5.62,0,0,0-.74-1.59c-.34-.76-.11-.76.25-.75a11,11,0,0,1,1.75.13,3.61,3.61,0,0,1,1.24.64c.68.47.75.5.92.46s.33-.24.55-.15.42.37,1,1.19c0,.05,3.72,6,4,9.44l0-.19c0,1.62.64,3.16.56,4.79a28.82,28.82,0,0,1-1.13,6.9c-.4,1-.64,1.6-2.7.08-.44-.32-.44-.32-1.94,1.27a.58.58,0,0,1-.31-.18l-.19.07-.14-.14c-1.08.89-.16,2.4-1,3.36.78,1.38-1.16,3.88-2.14,4.39.32.64-1.15,3.26-1.16,3.29l-.06.12c-.58,1.39-.37,3-1,4.34a59.92,59.92,0,0,1-3.68,5.36c-.16.18-4,4.47-4.31,4.63a2,2,0,0,1-2.43-1.43c-.78-2-.22-2.57.36-3.16a1.61,1.61,0,0,1-.69-.89c-.31-1.23,1.22-2,.77-3.29-.35-1-1.77-1.19-1.72-2.47,0-1,.67-1.89.72-2.9l0-.21s3-3-1.13-8.11-3.77-7.95-3.76-8.07,0-.14,2.61.61c.49.14.49.14,2.45-.65-.39-.31-.6-.48-.41-1a4.88,4.88,0,0,1,1.21-1.24A5.68,5.68,0,0,0,230,330.5c1-4,1-4,1.73-5.33.93-1.76.87-2.4.38-3.24a3,3,0,0,1-.65,1.68,1.66,1.66,0,0,0-.47-1.33,3.29,3.29,0,0,1-.1,1.73c0,.12-.09.28-.14.4l-3.7,10.48c-1,1-5.75-2.67-5.8-2.7-2.44-1.92-3.33-3.62-3.46-4.25a1,1,0,0,1,.07-.66c.31-.55,1.05-.44,1.39-.94s0-1.18.41-1.66a1.84,1.84,0,0,0,3,1.22l1.1-2.52c.15-.75.2-.84.57-.94h0a3.24,3.24,0,0,1-.62-.53,1.5,1.5,0,0,0-.22,0c-1.06.39-.94,1.79-1.89,2.28-.74.38-1.62-.1-2.36.36l-.51.36c-1.56,1.09-3.4-.32-5,.58a2.86,2.86,0,0,1-1,1.4,1.87,1.87,0,0,1-1.36.53c.06.14.12.29.62.34-.5.31-.36,1.17-1.06,1.29-.38.06-1-.44-.93-.95a1.76,1.76,0,0,1,.09-.2L210,328a1.73,1.73,0,0,0-.07.31l-.14.11c1.42,2.7-2.88,11-3.86,10.38a2.06,2.06,0,0,1-.54-.78c-.87-1.71-.4-3.73-1.18-5.46s-2.85-2.48-3.65-4.28a.62.62,0,0,1-.12.29l-.13-.08-.11.11a1.34,1.34,0,0,0-.11-.14,1.13,1.13,0,0,0-.32.05.8.8,0,0,1-.22-.23,2.19,2.19,0,0,1-.16.3c-.2-.23-.2-.23-.27-.74l-.34,0-.25.36c-.06.12-.14.28-.21.39-.55,1-1.52,1.73-1.67,3a2.74,2.74,0,0,1-.39,1.28c-.2.28-.2.28-.94-.19l-.08.14C195,332.64,194.88,332.58,194.89,331.92Zm28.84-20.37a.25.25,0,0,1-.2.12c-.64-.13-.92-1-1.65-.91s-.59.37-.54.59,0,.35-.09.46c.9.18.9.18.77.48a.57.57,0,0,1,.33.16c0,.22,0,.35-.6.92-.78.81-.78,2-.77,3.87h0c.49-.08.94.46,1.46.13h0c0-.05,0-.07.12-.13.37-.21.83-.47.88-1,0-.33-.23-1.31-.76-1.21,0-.26.15-.4.61-.8.74-.64.82-.93.42-1.54.15.06.15.06.26,0C224.07,312.26,223.74,311.94,223.73,311.55Zm5.16-.35h0l-.06-.06.05.05-.17-.14,0,0a2,2,0,0,0-1.75-.42l.08.05a.77.77,0,0,0,.61.17c0,.12,0,.14-.11.2s-.11.07-.12.18c.23-.09.36.24.44.44.85-.16,1.17-.22,1-.5Zm.78,2.57c.8-.2,1.36.68,2.16.48.14,0,.27-.31.36-.49a.74.74,0,0,1,.28-.35,2.68,2.68,0,0,1-.85-1,3.13,3.13,0,0,0-1-1.25l0,0,0-.05-.06.07c-.44-.22-.75-.07-1.22.2.58.51.58.51.55.65-.64.35-1.29-.38-1.93,0-.88.58-1.58,1.49-1.2,2a1.25,1.25,0,0,0,1.18.51C228.63,314.47,229.06,313.92,229.67,313.77Zm-25.84,24.87a.11.11,0,0,0,0,.08v0h0v.06s0,0,.07-.12-.08-.08-.11-.09S203.83,338.63,203.83,338.64Zm-13.43,5.7Zm-19.12,4.53h0v0l0,.08a.46.46,0,0,0,.13.22h0s0-.1,0-.32c.49,1.4,1.08,1.09,1.1,1.07-.09-.43-.09-.43-.12-.47-.21-.2-.28-.15-.41,0s-.07,0-.15-.06a6.42,6.42,0,0,1-.34-.56s-.07-.07-.09-.11a8.49,8.49,0,0,1,0-.88s0,0,.07,0a.2.2,0,0,0-.06-.09l0,0a1.32,1.32,0,0,1,0-.16c-.06-.08-.09-.11-.13-.12s-.22.66,0,1.35a0,0,0,0,1,0,0ZM204,338.68c-.13-.18,0-.4.09-.52.36-.47.66-.49.71-.49a.25.25,0,0,1,.13.05l0,0,0,0a.15.15,0,0,1-.12.13c-.19.32-.12.69,0,1.28a2,2,0,0,1,0,1.44s-.52.8-.77-.05a6.41,6.41,0,0,1-.11-1.77C204,338.69,204,338.69,204,338.68Zm.58-.77h.08c.07,0,.05-.06.05-.06s-.05-.05-.13.05ZM173,349.43a1.55,1.55,0,0,0,0,.48c.07.49.4.89.48,1.39s-.14.94-.06,1.42a.83.83,0,0,0,.13.42s.25.24.45-.26-.05-.82,0-1.23c.05-.25.31-.38.37-.63a.81.81,0,0,0,.18.32v0c.06.06.06.06.32.19h0c-.08.19.42.58.48.61s.63,0,.34-.76c.27.12.58.1.85.22-.54-1-.65-.78-.68-.69,0-1.68,0-1.71.29-2s.41-.19.54-.39a.68.68,0,0,0,.08-.55c.27.52.31.52.38.51.18-.32-.26-.7.08-1h0c-.24-.17-.58-.14-.78-.4.54.14.81-.36,1.13-.94-.06-.1-.08-.11-.13-.13s-.12.09-.07.35a1.28,1.28,0,0,0-.73-.5c-.55-.05-.51.33-.4,1.18l0,0s.18.92-.11.87c-.7-.1-.79-1.11-1.57-1.11S173,349.41,173,349.43Zm19.57-2.86c1.26-3.18,2.23-5.33,2.88-5.47h-.12a1.58,1.58,0,0,0-.9.35c-.45.34-.72.85-1.14,1.22s-.74.44-1.08.73c0,0-.42.36-.33.66.07,0,.07,0,.15,0a1.33,1.33,0,0,0-.29.29.31.31,0,0,0-.06-.23c-.21.08-.31.12-.41.32s-.06.62-.17.91a10.45,10.45,0,0,1-.75,1.4c-.3-.2-.3-.2-1.09.6h0l0,0h0l-.07.08s.07,0,.09,0a.2.2,0,0,1,0,.32c.42.23.52,0,.93-.7a2.81,2.81,0,0,0-.07,1.74,1.16,1.16,0,0,0,.42.46c.14.09.32,0,.47.1h0a.67.67,0,0,1-.06.17C191.27,349.71,191.66,348.76,192.53,346.57Zm-15.35,1Zm-1.61,5.66h0a3.45,3.45,0,0,1,.59,2c0,.7,0,.7,1,2.65.25.49.14,1.06.31,1.57s.47,1.12.69,1.69a5.47,5.47,0,0,0,.76,1.34l-.06-.08.08.11,0,0,0,0-.07-.07.3.36-.17-.2a24.47,24.47,0,0,0,8.63,6.65.82.82,0,0,1-.22-.33h.1a.61.61,0,0,1-.28-.2c1.11.35,1.11.35,1.2.27-.08-.65-.8-.81-1-1.38l.08,0h0a9.46,9.46,0,0,1-.76-.67c.64.46.73.52,1,.55-.57-.46-1.36-.62-1.73-1.34.57.47,1.22.8,1.83,1.22-.82-1.39-.82-1.39-.8-1.54.8-.63,5.25,1,5.29,1,.68.27,1.61.63,1.94.35a.78.78,0,0,0,0-.16c-.33-.6-1-.9-1.35-1.43-.63-.88-.4-2.1-1.12-2.94a.58.58,0,0,0,0,.19c-.09-.1-.09-.1-.17-.38a3.64,3.64,0,0,0-1.63-2.43.48.48,0,0,1,.06.26c-.77-.06-1.25-.72-1.91-1s-1.11-.27-1.62-.55a3.52,3.52,0,0,1-1.06-1,4,4,0,0,0-1.1-1,2.54,2.54,0,0,1,.1.69c-.09-.21-.09-.21-.18-.29l0,.09a1.56,1.56,0,0,1-.17-.59h0a8.73,8.73,0,0,1-1.79-1.48c-.09.33-.53.44-.48.85-.31-.12-.34-.11-.55,0a2.31,2.31,0,0,0-1.42-1.77c-.21-.06-.21-.06-.66-.89-1.09.72-1.09.72-1.24.4,0,.15.1.27.11.42l-.31-.3c1.25,2.29,1.25,2.29,1.23,2.7,0,0-.15,1.42-.83.74-1.18-1.18-1.6-2.86-2.61-4.16Zm4.27-5.28a.21.21,0,0,0-.17-.19.35.35,0,0,0-.37.28h0a.28.28,0,0,0,0,.09.31.31,0,0,0,.42.15C179.87,348.17,179.85,348,179.84,347.92Zm2.06-16.7h0Zm-1.28,9a.59.59,0,0,1-.08-.08h0Zm-1.46,1c.13-.22.4-.3.48-.57s-.1-.51-.1-.77.53.12.72-.15a1.87,1.87,0,0,0,.28.45,4.86,4.86,0,0,1-.15-.66c-.1-.36-.63-.38-.71-.22l0,.07c-.64-.71-.64-.71-.73-1l.39-.74.13-.27h0a1,1,0,0,0,0-.69l0,.06c0-.12,0-.13,0-.17a.26.26,0,0,0,0,.19h0c-.06.1-.12.08-.2,0,.38-.59.38-.59.34-.84h0a2.79,2.79,0,0,1,.36-.58c.29-.32.31,0,.32.06a.46.46,0,0,0-.19.35c.24-.18.34-.5.64-.61-.06.17,0,.19,0,.21s.14-.09.09-.25a.93.93,0,0,1,.47,0c-.22.2-.55.6-.26,1,.47-.57.6-.72.5-1h-.12c-.09-.63-.09-.63.09-.75-.08.15-.06.24.06.3a1.58,1.58,0,0,0,.41-1.37.17.17,0,0,0-.15,0c.29-.64,0-1.31.09-2a.11.11,0,0,0,0-.06v0c-.23.52-1,.18-1.17.73a6.48,6.48,0,0,0-.06,2.24s0,.06,0,.08a.68.68,0,0,0,0,.2h0a3.14,3.14,0,0,1,0,.48.29.29,0,0,0-.07-.16.43.43,0,0,0-.62.35c0-.12,0-.12-.1-.17s-.11,0-.35.94c-.34,0-.39-.05-.53.31s-.21.88.17.71c0,.88,0,.88-.22,1a.59.59,0,0,0,0-.13c0-.1-.07-.19-.11-.29,0,.49,0,.49,0,.52h0a3.85,3.85,0,0,0-.3,2.32,1.92,1.92,0,0,0,.09.4c.08-.07.09-.08.1-.52C178.86,340.62,179.16,340.86,179.16,341.23Zm.88-4.12s-.2,0-.16.4c0,.14.06.42.06.42.09.18.3.52.39.51S180.24,337.27,180,337.11Zm0-.8s0,0,0,.09a.17.17,0,0,0,0,.07v0h0c-.19-.19-.33-.15-.45.13a1.06,1.06,0,0,1,0-.14.91.91,0,0,1,.26-.65v0a1.4,1.4,0,0,0,.18.51S180.05,336.31,180.06,336.31Zm-.07,0v0h0Zm1.91-5.1Zm-4,13.16a1.61,1.61,0,0,1,.13,1s.53,0,.35.8c.05,0,.13,0,.18-.33a6.42,6.42,0,0,0,0-1l0,0c-.08-.67-.23-.87-.37-1l-.05,0c.08.07.08.07.1.24s0,.42.05.63a.71.71,0,0,1-.1-.14C178.22,344.58,178,344.34,177.91,344.37Zm26-5.62v-.07l-.08.21v0Zm18,15.82c.11-.53.3-1.14.56-1.07a3.55,3.55,0,0,1,.41.71c.24.39.29.89.63,1.23a1.74,1.74,0,0,1,.12.14c.07.09.1.21.16.3.22.3.67.43.7.88,0,0-.19,3.42-.37,4.08s-.76,1.13-1.05,1.11c-.83-.05-1.15-2.94-1-4.43.12-1.2.11-1.43-.08-1.9a.93.93,0,0,1-.12.29h0a3.62,3.62,0,0,0,0-.78c-.06,0-.06,0-.1.15v0l0,.07A3.32,3.32,0,0,0,222,354.57Zm-.11.52v0s0,.06,0,.09Zm-40-23.85v0Z"/><path class="cls-24" d="M58.13,403.45s22.13,26.19,87.71,32.29a73.67,73.67,0,0,1-7.06-4.86c-13-10.12-21.7-24.63-28.78-39.47a92.66,92.66,0,0,0,42.46,8.85c-11-3-22.79-4.67-29.86-18.79-10.35-20.7-8.86-79.8,5.34-99.15,28,14.93,48.6,19.16,79.79,24.8,28,5.06,58.39,2.38,82.68-11.9-3.89-14.59-7.77-29.24-11.16-44.1-2.5-11-6.93-20.48-14.7-28.12-13-12.74-35.2-20.27-73.36-20.55-40.79-.29-74.75,8.13-94.29,23-9.7,7.36-15.84,16.33-17.51,26.59C74.38,283,58.13,403.45,58.13,403.45Z"/><path class="cls-25" d="M287.69,285a4.62,4.62,0,0,0,.2,1.2c.18.78.45,1.92.79,3.39.7,2.93,1.78,7.17,3.11,12.39,2.66,10.46,6.44,24.88,10.09,40.92,1.8,8,3.35,15.71,4.63,22.71.62,3.51,1.22,6.85,1.68,10s.91,6.05,1.27,8.72.64,5.09.9,7.22.46,4,.61,5.46.29,2.66.38,3.45a4.79,4.79,0,0,0,.21,1.2,4.87,4.87,0,0,0,0-1.21l-.18-3.48c-.08-1.5-.2-3.35-.41-5.48s-.4-4.58-.74-7.25-.67-5.62-1.14-8.77-1-6.49-1.58-10c-1.24-7-2.76-14.74-4.57-22.78-3.65-16.07-7.55-30.47-10.41-40.88l-3.44-12.3c-.43-1.45-.77-2.57-1-3.33A5.72,5.72,0,0,0,287.69,285Z"/><path class="cls-26" d="M96.9,225.42c34.86,12.08,64.86,40.09,101.72,41.29,28.23.92,56.77-17.14,65.93-43.71-13-12.74-35.2-20.27-73.36-20.55C150.4,202.16,116.44,210.58,96.9,225.42Z"/><path class="cls-17" d="M88.35,233.39c35.17,12,74.52,43,111.65,44.23,29.27,1,61.78-21.17,69.77-49.34L265.48,220c-8,28.17-37.59,47.62-66.86,46.67-37.13-1.22-67.29-29.61-102.46-41.56Z"/><path class="cls-27" d="M52.64,350.57c2.38,7.13,73.27,1.83,72.52-1.11-.33-1.28-12.66-12.85-37.94-11.33C56.36,340,52.22,349.3,52.64,350.57Z"/><path class="cls-12" d="M115.79,356.65c.61-15.87,4-38-7.67-50.78-9-9.81-12.45-16.07-25.47-13.29s-25.87,15.55-25,28.82h.13c-.94,21.34-5.37,24.89,3.84,52.41a44.64,44.64,0,0,0,7,16.82C75,399.65,115.08,375.14,115.79,356.65Z"/><path class="cls-28" d="M60.07,353.88c21.43-1,34.41-.61,55.8,1,.75-15.72,3.47-36.77-7.75-49-9-9.82-14.41-15.72-27.43-12.94s-23.91,15.19-23,28.47h.14A236,236,0,0,0,60.07,353.88Z"/><path class="cls-29" d="M98.29,242.37c28.72,26.58,27.38,70,26.87,107.09-42.18-18.17-72.52,1.11-72.52,1.11C56,309.24,67.35,258.28,88.35,233.39Z"/><path class="cls-16" d="M119.94,278.08a14.64,14.64,0,0,0,.44,2.8c.18.88.39,2,.61,3.24s.5,2.71.74,4.32c.55,3.19,1,7,1.55,11.27s.88,9,1.19,13.9c.59,9.87.68,18.84.64,25.33,0,3.24,0,5.87,0,7.69a13.52,13.52,0,0,0,.1,2.83,14.57,14.57,0,0,0,.33-2.81c.15-1.82.3-4.45.41-7.7.23-6.5.27-15.49-.33-25.41-.31-5-.76-9.67-1.28-14s-1.14-8.1-1.79-11.29c-.29-1.6-.62-3-.91-4.3s-.54-2.34-.79-3.22A13,13,0,0,0,119.94,278.08Z"/><path class="cls-12" d="M294.17,365.15c-.59,21.19,14.71,29.4,14.71,29.4,17.64,8.15,37.89-8.74,39.11-24.55.79-10.34-1.95-23.71-10.58-29.47a31.55,31.55,0,0,0-24.9-4.32,24.61,24.61,0,0,0-2.87.93,20.87,20.87,0,0,0-4.88,2.78C295.32,347.06,294,355.33,294.17,365.15Z"/><path class="cls-30" d="M300.16,380.28l-1.42-1.61c-.43-.54-.88-1.26-1.42-2.07a18.12,18.12,0,0,1-1.31-3,18.66,18.66,0,0,1-.59-8.5,30.61,30.61,0,0,1,3.4-9.93,46.51,46.51,0,0,1,6-8.7,31.28,31.28,0,0,1,6.39-5.78,18.35,18.35,0,0,1,5.29-2.4,14.87,14.87,0,0,1,1.56-.31l.55-.09-.55.06c-.37,0-.9.12-1.58.25a17.77,17.77,0,0,0-5.43,2.23,30.78,30.78,0,0,0-6.61,5.7,44.24,44.24,0,0,0-6.13,8.76A29.55,29.55,0,0,0,294.92,365a18.46,18.46,0,0,0,.81,8.67,17.27,17.27,0,0,0,1.43,3c.58.8,1.06,1.5,1.51,2Z"/><path class="cls-12" d="M293,495.06s21.06,19.09,40.51,26.36c13,4.85,26.82,1.83,31.49-1.06,1.4-.86,24-8.18,37-52.95C409.67,440.65,406,421.72,399,414c-15.46-17-41.94-12.47-60.17,6.27-6.88,7.07-14.34,17.41-17.39,29.25C319.13,455,315.17,475.43,293,495.06Z"/><path class="cls-31" d="M349,432.19c4.41-6.6,6.4-9.31,13.48-14.22-1.27-2-2.15-4.94-5.91-7.33-2.21-1.4-5.6.16-8,1.45a10.37,10.37,0,0,0-5.8,9.2A14,14,0,0,0,349,432.19Z"/><path class="cls-32" d="M356.7,422.45c-.49-4.45-4.66-10.73-7.16-10.89-.26.12-1.68,1-1.92,1.15-3.57,1.9-5.17,4.73-4.91,8.58s2.23,8.89,6.26,10.9A46.64,46.64,0,0,1,356.7,422.45Z"/><path class="cls-31" d="M401.12,431.4a13.71,13.71,0,0,0,.77-13.09c-1.88-4.11-7.11-8.59-7.18-8.1a15.33,15.33,0,0,1-4.11,8.13A78.84,78.84,0,0,0,401.12,431.4Z"/><path class="cls-31" d="M366.48,416.31c8.12-4.5,15.11-3.47,22.6.88,0-1.73-1.91-9-4.36-11.31a31.89,31.89,0,0,0-15.63-2S366.13,414.58,366.48,416.31Z"/><path class="cls-32" d="M366.48,416.31a25.57,25.57,0,0,1,8.26-2.8c1.7-.29,2.55-2.15,2.75-3.69a3.87,3.87,0,0,0-2.41-4.46c-.81-.32-5.32-2.27-6-1.44C369.09,403.92,365.82,408,366.48,416.31Z"/><path class="cls-33" d="M329.23,484.51c.39,11.7,3.63,25.09,11.4,33.71a18,18,0,0,0,9.05,5.84c9.88,2.25,21.19-5.63,28.22-11.73,15.91-13.8,22.81-35.19,26.3-55.31,2.93-16.92,2.24-36.88-17.55-42.22-15.29-4.12-29.85,2-39.59,14.1-11.5,14.28-17.69,34.24-17.87,52.43C329.18,482.37,329.19,483.44,329.23,484.51Z"/><path class="cls-30" d="M321.89,448.18l.44-1.26c.28-.83.72-2,1.33-3.58a56.39,56.39,0,0,1,6.66-12.28,81.23,81.23,0,0,1,6.17-7.43,73.12,73.12,0,0,1,8-7.65,56.88,56.88,0,0,1,10.15-6.66,47.86,47.86,0,0,1,12.27-4.25,37.43,37.43,0,0,1,12.88-.49,33.38,33.38,0,0,1,11.35,3.88,27.73,27.73,0,0,1,8.26,7,26.59,26.59,0,0,1,4.37,8.43,49.6,49.6,0,0,1,2.05,13.79c0,1.66,0,3,0,3.83l0,1.33.1-1.33c.05-.87.13-2.16.16-3.83a47.73,47.73,0,0,0-1.54-14,26.9,26.9,0,0,0-4.27-8.86,28.61,28.61,0,0,0-8.44-7.53A34.23,34.23,0,0,0,380,403.1a37.56,37.56,0,0,0-13.42.44A47.71,47.71,0,0,0,353.94,408a56.69,56.69,0,0,0-10.32,7,72.45,72.45,0,0,0-7.93,8,78.27,78.27,0,0,0-6,7.7,54.5,54.5,0,0,0-6.25,12.64c-.54,1.57-.93,2.81-1.16,3.65Z"/><path class="cls-12" d="M206.22,521.59S226,542,245,550.44c12.67,5.66,21.69,5.12,31.5.92,1.51-.65,25.17-7,40.13-56,8.12-26.64,1.43-40-2.61-44.75-15.48-18.18-35.78-19.19-59.5-.32-7.72,6.14-13.05,17.29-17,27.68C234.82,483.28,229.6,503.4,206.22,521.59Z"/><path class="cls-31" d="M266,462.35c4.81-6.31,7-8.89,14.34-13.35-1.14-2.11-1.84-5.06-5.44-7.68-2.12-1.54-6.31-.7-8.82.44-3.68,1.67-5.45,5.47-5.65,9.32A13.94,13.94,0,0,0,266,462.35Z"/><path class="cls-32" d="M274.36,453.12c-.21-4.48-5-11.37-7.46-11.68-.26.1-.53.2-.78.32a10,10,0,0,0-5.65,9.32c0,3.9,1.67,9,5.57,11.27A46.92,46.92,0,0,1,274.36,453.12Z"/><path class="cls-31" d="M318.13,464.83l1.69-1.31a32.88,32.88,0,0,0-2.79-8.19c-2-4-5.44-8.11-5.78-7.75a39.82,39.82,0,0,0-2.81,3.56C307.24,454.18,315.69,464.67,318.13,464.83Z"/><path class="cls-31" d="M284.5,447.6c8.39-4,15.3-2.52,22.51,2.29a13.89,13.89,0,0,0-3.26-8.39s-5.32-4.35-16-5.09C287.73,436.41,284.26,445.85,284.5,447.6Z"/><path class="cls-32" d="M284.5,447.6a25.42,25.42,0,0,1,8.42-2.28c2.74-.29,4.77-6.52,1.1-8a21.76,21.76,0,0,0-6.29-.93S284.36,439.26,284.5,447.6Z"/><path class="cls-33" d="M251,509.72s-6.15,18.71,1.42,31.42c10.28,17.27,19.25,12.81,24.1,10.22,1.45-.78,25.17-7,40.13-56,8.12-26.64-.51-34.68-4.2-39.69-12.76-17.33-29.2-9-36.19-4.28C268.08,456.9,263,466.58,259,477,256.3,482.3,254.43,491.4,251,509.72Z"/><path class="cls-30" d="M233.34,487.71s.87-1.91,2.3-5.43,3.36-8.66,6.37-14.72a56.2,56.2,0,0,1,5.77-9.35,62.32,62.32,0,0,1,20.6-16.32,44.41,44.41,0,0,1,6.83-2.61,58.24,58.24,0,0,1,7.37-1.63,29.62,29.62,0,0,1,7.45-.21,24.07,24.07,0,0,1,3.59.63,35.76,35.76,0,0,1,3.48,1A33.29,33.29,0,0,1,308.92,446a39.58,39.58,0,0,1,4.4,4.71,31.19,31.19,0,0,1,3.38,5,33.44,33.44,0,0,1,3.09,10.43,51.85,51.85,0,0,1,.4,9.08c0,1.34-.17,2.59-.24,3.74s-.23,2.19-.37,3.13-.26,1.77-.37,2.49-.25,1.32-.34,1.81l-.28,1.5.35-1.48c.11-.49.25-1.09.41-1.81s.3-1.54.48-2.48.3-2,.48-3.12.3-2.4.37-3.75a50.18,50.18,0,0,0-.11-9.2,33.78,33.78,0,0,0-2.91-10.82,31.58,31.58,0,0,0-3.39-5.29,40.12,40.12,0,0,0-4.45-4.94,34,34,0,0,0-12.23-7.34,35.76,35.76,0,0,0-3.61-1.06,26,26,0,0,0-3.78-.7,31.23,31.23,0,0,0-7.84.21,56.39,56.39,0,0,0-7.58,1.69,45.21,45.21,0,0,0-7,2.74,58.09,58.09,0,0,0-11.87,7.81,65.85,65.85,0,0,0-4.85,4.49,43.75,43.75,0,0,0-4.09,4.74,54.82,54.82,0,0,0-5.61,9.65c-2.86,6.19-4.58,11.42-5.9,15S233.34,487.71,233.34,487.71Z"/><path class="cls-30" d="M270.1,553.74l-.75.13c-.49.09-1.21.19-2.14.31a33.38,33.38,0,0,1-7.9,0c-6.62-.74-15.3-4.33-23.84-9.87a206.2,206.2,0,0,1-21.06-15.55c-2.58-2.16-4.62-4-6-5.22l-2.17-2,2,2.15c1.3,1.36,3.21,3.31,5.66,5.62a143.86,143.86,0,0,0,20.75,16.29c8.67,5.63,17.77,9,24.62,9.33a31,31,0,0,0,8-.56c.93-.19,1.64-.36,2.12-.49Z"/><path class="cls-12" d="M119.92,352.62c-9.13-1.7-22.26-4.46-34.06,2.53a10.8,10.8,0,0,0-2.3,1.46c-12.14,13-23.36,19.28-16.32,31.79,7.6,13.5,17.56,20.87,28.25,24.39,27.43,9,58.67-4.32,69.41-10.54,15.07-8.74,6.19-28.76-8-32.45a56,56,0,0,1-7-2.93C137.44,359,120.17,352.67,119.92,352.62Z"/><path class="cls-30" d="M94.39,351l2.45-.16,3-.19c1.17-.06,2.52,0,4,0a49.29,49.29,0,0,1,5.05.27c1.86.08,3.83.49,6,.8a65.58,65.58,0,0,1,14,4.36,131,131,0,0,1,15.59,8.55c2.74,1.67,5.6,3.37,8.67,4.93,1.57.72,3.16,1.46,4.74,2.16a39.88,39.88,0,0,1,4.59,2.56,22.24,22.24,0,0,1,7.5,7.62,14,14,0,0,1,1.25,10.72,16.88,16.88,0,0,1-6.68,9.12,55.39,55.39,0,0,1-10.82,5.53A117.93,117.93,0,0,1,142,411c-3.9,1.07-7.74,2.07-11.59,2.74A84.88,84.88,0,0,1,108,415a55.54,55.54,0,0,1-19.5-5.19,44.13,44.13,0,0,1-14-10.68,52.94,52.94,0,0,1-8-12.21,71.56,71.56,0,0,1-4-10.31c-.87-2.92-1.43-5.22-1.77-6.79l-.5-2.4.44,2.41c.31,1.58.82,3.89,1.63,6.84a72.26,72.26,0,0,0,3.87,10.43A53.19,53.19,0,0,0,74.1,399.5a45.18,45.18,0,0,0,6.17,6l1.81,1.38c.61.46,1.28.86,1.93,1.29l1,.65,1,.59c.69.39,1.39.79,2.12,1.13a55.7,55.7,0,0,0,19.8,5.48A84.53,84.53,0,0,0,130.63,415c3.89-.66,7.8-1.65,11.71-2.72a113.56,113.56,0,0,0,11.8-3.77,54.8,54.8,0,0,0,11.07-5.68,18.06,18.06,0,0,0,7.15-9.84A15.17,15.17,0,0,0,171,381.34a23.15,23.15,0,0,0-7.93-8,41.57,41.57,0,0,0-4.75-2.6c-1.64-.71-3.2-1.41-4.74-2.1-3-1.51-5.9-3.16-8.66-4.8a128,128,0,0,0-15.79-8.38,64.78,64.78,0,0,0-14.14-4.17c-2.15-.28-4.15-.65-6-.7a48.06,48.06,0,0,0-5.08-.17c-1.53,0-2.89,0-4.06.09l-3,.26Z"/><path class="cls-12" d="M182.37,368.51c.33-.37,1.29-3.26,11.28-10.68,1.28-1-.6-3.14-1.36-3.79a10.39,10.39,0,0,0-4.48-2.16c-4.53-1-9.06.12-13.44,1.26-.46.12-.93.2-1.38.34-15,4.55-23.69,11.77-30.64,24.23l.28,20.81c4.4,5.65,15.48,11.58,27.17,14.38,11.37,2.72,25.31,3.11,30.24-3.85,2.26-6.35-10.64-11.92-13.57-13.36-.27-1.77-.07-4.42,1.52-4.21,18.78,2.53,26.84-3.34,25.79-8.14C211.34,372.09,193.18,367.18,182.37,368.51Z"/><path class="cls-31" d="M188.11,396.49c-.51-.3-7.29,8.76-2.34,18.24.06.11,11-.17,14.27-5.68,1.13-3.18-1.64-5.94-3.86-7.8A40.69,40.69,0,0,0,188.11,396.49Z"/><path class="cls-31" d="M194.67,392.06c13.38.32,19.25-3.75,19.11-8.72-.24-4.21-3.74-8.61-10.29-11.13-3.83-1.47-5.55-2-5.55-2s-5.08,4.46-5.84,9.56A19.77,19.77,0,0,0,194.67,392.06Z"/><path class="cls-31" d="M182.37,368.51a19.3,19.3,0,0,1,4.17-4.7c2.56-2.23,5.59-4.26,7.11-6,.36-.37,1.08-1.15-.53-2.93-5.75-5.31-12.88-3.12-15.21-2.63-.67.14-2.46.61-3.89.92-.46.11-1.34,2.71.92,8.23C176.61,365.48,182.31,368.63,182.37,368.51Z"/><path class="cls-30" d="M142.35,377.71l.39-.75c.26-.5.66-1.22,1.22-2.11a41.26,41.26,0,0,1,5.48-7c5.17-5.43,14.18-11.31,25.28-14.19a51.87,51.87,0,0,1,8.22-1.42c.66-.05,1.35-.13,2-.16a8.31,8.31,0,0,1,1.86.17,13.81,13.81,0,0,1,3.47,1.25,8.63,8.63,0,0,1,2.78,2,2.07,2.07,0,0,1,.51,1.32,2.17,2.17,0,0,1-.56,1.28,13.32,13.32,0,0,1-2.42,2c-.84.61-1.63,1.23-2.35,1.85a41,41,0,0,0-6,6.69c-1.26,1.71-1.89,2.7-1.89,2.7s.69-.95,2-2.59a43.56,43.56,0,0,1,6.26-6.35c.73-.59,1.53-1.16,2.38-1.74a13.36,13.36,0,0,0,2.62-2,2.67,2.67,0,0,0,.16-3.67,9.25,9.25,0,0,0-3-2.35,14.55,14.55,0,0,0-3.72-1.41,8.48,8.48,0,0,0-2.09-.22c-.71,0-1.36.09-2.06.13a49.7,49.7,0,0,0-8.41,1.4C163.07,355.44,154,361.7,149,367.42a39.17,39.17,0,0,0-5.22,7.33c-.51.94-.87,1.68-1.1,2.19Z"/><path class="cls-30" d="M182.05,393.52l3.09,1.62,3.62,1.9c1.41.76,3,1.58,4.69,2.66a21.66,21.66,0,0,1,4.91,4.17,9.3,9.3,0,0,1,1,1.4,4.79,4.79,0,0,1,.51,1.62,3.8,3.8,0,0,1-1,3.18,5.82,5.82,0,0,1-1.49,1.12,19.94,19.94,0,0,1-1.79.9,22.88,22.88,0,0,1-3.92,1.33,32.14,32.14,0,0,1-8.73.7c-12.08-1-22.93-4.06-29.94-7.86a39.1,39.1,0,0,1-7.8-5.32c-.86-.72-1.45-1.37-1.87-1.78l-.64-.64.6.68a24.31,24.31,0,0,0,1.79,1.87,37.38,37.38,0,0,0,7.64,5.7c7,4.11,17.84,7.51,30.17,8.51a31.82,31.82,0,0,0,9-.78,23.15,23.15,0,0,0,4.1-1.45,19.47,19.47,0,0,0,1.87-1,6.79,6.79,0,0,0,1.69-1.34,4.61,4.61,0,0,0,1.2-4,5.58,5.58,0,0,0-.65-1.89,9.79,9.79,0,0,0-1.12-1.52,21.83,21.83,0,0,0-5.2-4.14c-1.74-1-3.4-1.8-4.83-2.5L185.22,395Z"/><path class="cls-30" d="M182.62,390.82l3.21.51c2.07.3,5.07.73,8.82.93a52.73,52.73,0,0,0,6.15,0,25.61,25.61,0,0,0,7-1.36,12.53,12.53,0,0,0,3.46-1.9,8.79,8.79,0,0,0,2.58-3.29,6.37,6.37,0,0,0,.22-4.39,10.23,10.23,0,0,0-2.29-3.81,26.06,26.06,0,0,0-6.8-5.06,33.16,33.16,0,0,0-7.3-2.95,53.32,53.32,0,0,0-13.1-1.53,26.56,26.56,0,0,0-8.74,1.54,19.46,19.46,0,0,0-2.2,1l-.74.4.76-.35a19,19,0,0,1,2.24-.88,27.19,27.19,0,0,1,8.68-1.13,57.06,57.06,0,0,1,12.86,1.9,33.91,33.91,0,0,1,7,3,26,26,0,0,1,6.48,4.86,9.24,9.24,0,0,1,2,3.36,5.26,5.26,0,0,1-.15,3.63,9.2,9.2,0,0,1-5.36,4.7,25.62,25.62,0,0,1-6.71,1.49,53.63,53.63,0,0,1-6.06.23c-3.73-.06-6.74-.34-8.82-.53Z"/><path class="cls-12" d="M288.55,362.21c-.43-.21-.85-.43-1.26-.67-4.21-2.38-8.12-5-12.56-7a3,3,0,0,1-1.26-.82c-1.8-2.36,3.64-5.18,5.2-5.88a30.49,30.49,0,0,1,6.86-2.13c16.49-2.9,29.47-1,40.34,7.83l10,20.58c-2.08,13.41-14.85,26.9-38.51,30.84a23.75,23.75,0,0,1-14.59-2.06c-1.82-4.3,6.47-10.67,9.72-16.54-13.87,3.08-22-.63-22.41-3.18,1.05-5.6,5.86-12.12,12.21-16.78a46,46,0,0,1,6.59-4.13Z"/><path class="cls-31" d="M290.67,389.16c-.52,11.31,10.75,14,12.63,14.44-7.32,3.45-19.88.83-20.5-.69-.92-2.25,1.08-5.25,2.56-7.16C287.94,392.42,290.67,389.16,290.67,389.16Z"/><path class="cls-31" d="M282,366.63c-1.58,8.53,3.45,17,7.21,20.39-14.88,2.13-19.15-3-19.13-3.83,0-1.95.33-4.11,3-7.63A48.5,48.5,0,0,1,282,366.63Z"/><path class="cls-31" d="M285.67,360.48c-4.63-2.5-6.1-3.81-10.94-5.93a3,3,0,0,1-1.26-.82c-1.8-2.36,3.64-5.18,5.2-5.88a30.49,30.49,0,0,1,6.86-2.13,40.47,40.47,0,0,1,10.68-.93C284.08,348.17,285.67,360.48,285.67,360.48Z"/><path class="cls-30" d="M325.87,353.55l-.6-.48c-.4-.3-1-.8-1.74-1.36a39.16,39.16,0,0,0-7-4.07,40.75,40.75,0,0,0-11.66-3.19,59.93,59.93,0,0,0-14.8.18c-1.31.14-2.59.36-3.85.57a26.76,26.76,0,0,0-3.72.83,25.43,25.43,0,0,0-6.57,2.93,9.59,9.59,0,0,0-2.56,2.27,2.59,2.59,0,0,0-.5,1.7l.1.45c.07.14.15.26.23.39a1.81,1.81,0,0,0,.62.61,10.1,10.1,0,0,0,1.38.66c.44.19.87.39,1.29.59.84.4,1.64.81,2.39,1.21,3,1.62,5.39,3.07,7.07,4,.84.47,1.5.82,1.95,1l.69.35-.67-.38c-.44-.24-1.08-.62-1.9-1.12-1.64-1-4-2.52-6.93-4.24-.75-.43-1.54-.87-2.38-1.29l-1.29-.64a10.33,10.33,0,0,1-1.29-.64,1.29,1.29,0,0,1-.44-.46l-.16-.28-.06-.31a2,2,0,0,1,.43-1.26,9,9,0,0,1,2.41-2.05,25.13,25.13,0,0,1,6.42-2.75,26.25,26.25,0,0,1,3.63-.79c1.25-.2,2.52-.41,3.81-.55a64,64,0,0,1,14.62-.31A42.09,42.09,0,0,1,316.32,348a40.62,40.62,0,0,1,7.13,3.8c.8.53,1.38,1,1.8,1.28Z"/><path class="cls-30" d="M292.52,386.37a33.35,33.35,0,0,1-2,2.77c-1.37,1.74-3.5,4.12-5.92,7.28a17.81,17.81,0,0,0-1.66,2.67,9.62,9.62,0,0,0-.62,1.58,2.92,2.92,0,0,0,0,1.85,2.37,2.37,0,0,0,1.41,1.36l1.77.6a26.35,26.35,0,0,0,3.78.81,39.4,39.4,0,0,0,17-1.82,52.72,52.72,0,0,0,15.34-7.5,43.9,43.9,0,0,0,5.66-4.89,35.33,35.33,0,0,0,4.09-5.06,28.08,28.08,0,0,0,3.91-8.52,19.41,19.41,0,0,0,.55-2.49l.17-.88-.2.87a21.14,21.14,0,0,1-.65,2.46,28.8,28.8,0,0,1-4.12,8.33,38.72,38.72,0,0,1-4.15,4.89,44.57,44.57,0,0,1-5.67,4.71,54.43,54.43,0,0,1-15.18,7.29,40.1,40.1,0,0,1-16.62,1.91,27.21,27.21,0,0,1-3.7-.73l-1.71-.54a1.77,1.77,0,0,1-1.1-1,2.3,2.3,0,0,1,0-1.51,8.78,8.78,0,0,1,.55-1.51,17.44,17.44,0,0,1,1.55-2.64c2.31-3.19,4.37-5.66,5.68-7.44A33.89,33.89,0,0,0,292.52,386.37Z"/><path class="cls-30" d="M295.68,385l-.61.26c-.4.16-1,.39-1.78.63a30.3,30.3,0,0,1-6.83,1.26,35,35,0,0,1-10.22-.69,18,18,0,0,1-2.79-.87,6.8,6.8,0,0,1-2.47-1.56,1.87,1.87,0,0,1-.49-1.19,9.72,9.72,0,0,1,.27-1.5,15.12,15.12,0,0,1,1.18-3,35.4,35.4,0,0,1,8-9.56,46.78,46.78,0,0,1,8.37-6,44.71,44.71,0,0,1,6.32-2.91c.78-.27,1.38-.48,1.8-.61l.63-.2-.64.17c-.42.1-1,.28-1.83.52a41.26,41.26,0,0,0-6.48,2.66,44.53,44.53,0,0,0-8.64,5.8,34.33,34.33,0,0,0-8.29,9.71,15.69,15.69,0,0,0-1.23,3.19,10.05,10.05,0,0,0-.28,1.7,2.58,2.58,0,0,0,.7,1.72,7.38,7.38,0,0,0,2.78,1.74,18.32,18.32,0,0,0,2.93.86,33.8,33.8,0,0,0,10.41.42,29.57,29.57,0,0,0,6.83-1.55,17.83,17.83,0,0,0,1.76-.73Z"/><path class="cls-34" d="M169.81,26.67c2.76,1.48,5.57,3,8.44,3.29a7.35,7.35,0,0,0,7.47-3.64c1.31-2.33,1.63-5.48,2.11-8.44,1-6.4,3.2-12.66,7.27-15.82,3.47-2.7,8.13-2.75,12.09-.12,7.23,4.78,10.83,16.56,17.45,23,2,1.91,4.5,4.05,4.47,7.14,0,2-1.13,3.33-1.91,4.85-1.9,3.7-2,8.79-3.32,13-2.35,7.34-9,11.11-15,8.56-3.59-1.51-6.93-4.94-10.58-5.36-3.16-.37-6,1.58-9,2.32A7,7,0,0,1,180.88,51Z"/><path class="cls-35" d="M189.16,44.38c1.31-.61,6.22,2.1,7.8,2.62,3,1,6,2.21,9.09,2.37a11.82,11.82,0,0,0,10.72-5c1.87-2.76,2.94-6.7,5.45-8.35.59-.38,1.31-.71,1.5-1.57.36-1.53-1.11-2.87-2.24-3.69-5.41-3.92-6.39-11.53-10.66-17-2.09-2.71-4.79-4.76-7.5-4.8-3.32,0-6.07,2.94-7.68,6.65s-2.32,8.09-3.19,12.32-2,8.49-4.27,11.46a9.33,9.33,0,0,1,5.58-2C193.22,40.62,191.47,43.3,189.16,44.38Z"/><path class="cls-36" d="M221.48,30.72l-.5-.44a12.84,12.84,0,0,1-1.33-1.34,24.13,24.13,0,0,1-3.48-6c-1.22-2.67-2.37-6.05-4.7-9.35a15.07,15.07,0,0,0-4.61-4.35,7.4,7.4,0,0,0-3.35-1,6.31,6.31,0,0,0-3.54.9,12.11,12.11,0,0,0-4.47,5.21,28.28,28.28,0,0,0-2,5.91c-.89,3.85-1.33,7.34-2,10.21a30.45,30.45,0,0,1-2.08,6.62,14.6,14.6,0,0,1-.9,1.66l-.36.56.41-.53a16.23,16.23,0,0,0,1-1.6,28.64,28.64,0,0,0,2.54-6.56c.8-2.86,1.41-6.34,2.4-10.08a29.33,29.33,0,0,1,2.06-5.62,11.16,11.16,0,0,1,4-4.63,5.25,5.25,0,0,1,2.83-.75,6.55,6.55,0,0,1,2.79.84,14.36,14.36,0,0,1,4.32,3.91c2.31,3,3.62,6.34,5,9a23.21,23.21,0,0,0,3.93,5.84,14,14,0,0,0,1.44,1.25Z"/><path class="cls-37" d="M265.67,215.9A128.32,128.32,0,0,1,253,224.58c-29.05,17.54-61.05,24.55-94.35,26.93-29.68,2.11-62,1.28-90-11.46-11.34-5.17-17.53-16.34-21.06-28.27-4.58-15.48-4.62-31.94-3.74-48C47.19,102.16,86.75,11,157.76,21.2c32.58,4.7,60.76,25.72,82.56,51.06,20.55,23.9,44.74,58.23,49.67,90.67C293.57,186.48,281.73,203.34,265.67,215.9Z"/><path class="cls-38" d="M265.67,215.91s-1.56,1.19-4.5,3.18a147,147,0,0,1-12.86,7.74,179.48,179.48,0,0,1-20.17,9.33,205.38,205.38,0,0,1-25.95,8.1c-18.78,4.55-36.28,6.26-48.92,7.21-6.33.47-11.46.69-15,.8s-5.51.12-5.51.12,2,.08,5.52.11,8.69,0,15-.27c12.68-.58,30.31-1.92,49.23-6.5a181.88,181.88,0,0,0,26.07-8.39,163.82,163.82,0,0,0,20.07-9.85,138,138,0,0,0,12.63-8.2C264.17,217.18,265.67,215.91,265.67,215.91Z"/><path class="cls-39" d="M129.81,38.34s.5.91,1.34,2.32,2,3.32,3.14,5.46a23.63,23.63,0,0,1,2.15,5.77,14.67,14.67,0,0,1,.27,1.9c0,.46,0,.72,0,.72s.09-.25.2-.7a10,10,0,0,0,.26-2,13.37,13.37,0,0,0-1.54-6.42,21.66,21.66,0,0,0-3.91-5.23C130.61,39,129.81,38.34,129.81,38.34Z"/><path class="cls-39" d="M127.63,40.35l1.1,1.83c.67,1.12,1.53,2.66,2.44,4.37s1.7,3.28,2.26,4.46l.9,1.94a12.62,12.62,0,0,0-.15-2.16,15.14,15.14,0,0,0-4.84-9.11A12.74,12.74,0,0,0,127.63,40.35Z"/><path class="cls-39" d="M133.23,51.89a16.21,16.21,0,0,0-12.52-8.42A21.11,21.11,0,0,0,106,47.7a30.16,30.16,0,0,0-9.42,12.35A53.86,53.86,0,0,1,134.8,53.1"/><path class="cls-39" d="M178.25,34.55s0,.58.14,1.46a25.33,25.33,0,0,0,.6,3.37,13.1,13.1,0,0,0,1.3,3.24,9,9,0,0,0,.82,1.23s0-.57-.14-1.45a25.4,25.4,0,0,0-.61-3.38,12.79,12.79,0,0,0-1.3-3.23A10.45,10.45,0,0,0,178.25,34.55Z"/><path class="cls-39" d="M179.8,34.27c2.92-5,7.61-5.75,9.66-4.86,1,.43,8.38,4.87,10,7.05-1.37-1.37-5.26-.9-7-.6-5,.87-8.86,3.52-10.3,7.08"/><ellipse class="cls-40" cx="129.9" cy="96.06" rx="24.53" ry="27.98" transform="translate(-15.16 24.94) rotate(-10.36)"/><ellipse class="cls-41" cx="129.9" cy="96.06" rx="24.53" ry="27.98" transform="translate(-15.16 24.94) rotate(-10.36)"/><ellipse class="cls-17" cx="134.32" cy="89.81" rx="18.39" ry="20.98" transform="translate(-23.16 53.66) rotate(-20.84)"/><ellipse class="cls-42" cx="134.32" cy="89.81" rx="12.16" ry="13.87" transform="translate(-23.16 53.66) rotate(-20.84)"/><ellipse class="cls-43" cx="139.09" cy="80.2" rx="3.22" ry="3.68" transform="translate(-19.43 54.73) rotate(-20.84)"/><path class="cls-44" d="M105.77,100.47c.2,0,.17-1.2.12-3.26a36.45,36.45,0,0,1,1-8.55l.34-1.34c.12-.46.31-.9.46-1.37s.31-.94.51-1.41.43-.94.64-1.42a11.2,11.2,0,0,1,.73-1.42c.27-.47.53-1,.82-1.44a26.14,26.14,0,0,1,2-2.76,21.09,21.09,0,0,1,27.28-5,27.87,27.87,0,0,1,2.88,1.86c.44.34.85.71,1.27,1A10.25,10.25,0,0,1,145,76.5l1.1,1.1c.35.37.66.77,1,1.14s.64.73.91,1.12l.8,1.13a36.77,36.77,0,0,1,3.94,7.65c.68,1.94,1.07,3,1.27,3s.14-1.21-.24-3.3a28.22,28.22,0,0,0-3.33-8.41l-.78-1.26c-.26-.43-.6-.83-.91-1.26s-.63-.86-1-1.28l-1.14-1.24a11.09,11.09,0,0,0-1.24-1.23c-.44-.39-.88-.81-1.34-1.2A28.46,28.46,0,0,0,141,70.32a23,23,0,0,0-30.52,5.58A28.76,28.76,0,0,0,108.3,79c-.3.53-.56,1.08-.84,1.6a11.27,11.27,0,0,0-.72,1.59l-.62,1.56c-.19.52-.32,1-.47,1.55s-.31,1-.41,1.5-.18,1-.27,1.45a27.89,27.89,0,0,0-.14,9C105.21,99.4,105.6,100.51,105.77,100.47Z"/><ellipse class="cls-40" cx="211.7" cy="70.87" rx="16.83" ry="26.5" transform="translate(-8.2 109.39) rotate(-28.44)"/><ellipse class="cls-41" cx="211.7" cy="70.87" rx="16.83" ry="26.5" transform="translate(-8.2 109.39) rotate(-28.44)"/><ellipse class="cls-17" cx="210.75" cy="63.23" rx="12.62" ry="19.87" transform="translate(-5.85 101.95) rotate(-26.83)"/><ellipse class="cls-42" cx="210.75" cy="63.23" rx="8.34" ry="13.13" transform="translate(-5.85 101.95) rotate(-26.83)"/><ellipse class="cls-43" cx="212.8" cy="52.8" rx="2.21" ry="3.48" transform="translate(-0.92 101.75) rotate(-26.83)"/><path class="cls-44" d="M196.9,78.89c.42-.21-1.45-3.65-2.72-9.61-.16-.74-.26-1.53-.4-2.34s-.17-1.67-.27-2.55a27.07,27.07,0,0,1,.22-5.57,17.75,17.75,0,0,1,1.78-5.69,10.12,10.12,0,0,1,10.17-5.51,18.12,18.12,0,0,1,5.75,1.61,28.12,28.12,0,0,1,4.78,2.86c.68.57,1.37,1.08,2,1.62s1.21,1.08,1.74,1.62c4.29,4.32,6.16,7.76,6.56,7.52s-1-3.93-5.14-8.85a28.64,28.64,0,0,0-8.84-7,19.37,19.37,0,0,0-6.6-2,12.54,12.54,0,0,0-12.79,6.93,19.51,19.51,0,0,0-1.92,6.62,28.84,28.84,0,0,0,1.08,11.26C194.14,75.91,196.66,79.05,196.9,78.89Z"/><path class="cls-45" d="M76.41,67.91c-3,2.54-6.1,5.12-9.75,6.62s-8,1.8-11.41-.18c-2.72-1.59-4.48-4.37-6.36-6.89C44.81,62,39.29,57.14,32.58,56a18.53,18.53,0,0,0-16,5C9,68.45,9.29,80.85,3.27,89.57,1.48,92.16-1,95.21.39,98.05c.86,1.79,2.9,2.59,4.58,3.66,4.08,2.61,6.34,7.27,9.89,10.56a19.25,19.25,0,0,0,23.47,1.52c4.1-2.92,7.05-7.5,11.69-9.44,4-1.67,8.56-1.08,12.86-1.67s9.05-3.31,9.23-7.64Z"/><path class="cls-35" d="M58.37,92.47c-2,0-7.32,4.57-9.18,5.73-3.59,2.24-7,4.58-11,6-5.24,1.9-11.26,2.31-16.28-.11-3.64-1.75-6.73-4.92-10.75-5.37-.94-.11-2-.11-2.64-.82-1.12-1.26.25-3.12,1.4-4.36,5.47-5.91,3.54-13.35,6.83-20.25,1.61-3.38,4.31-6.42,7.86-7.61,4.37-1.45,9.27.14,13,2.87s6.49,6.49,9.44,10,6.26,7,10.51,8.75a17.79,17.79,0,0,0-8.2.56A11.57,11.57,0,0,0,58.37,92.47Z"/><path class="cls-36" d="M9.91,93.58l.51-.55a15.93,15.93,0,0,0,1.35-1.71,21.06,21.06,0,0,0,2.77-7.51c.7-3.29,1.13-7.33,3.25-11.08a14.8,14.8,0,0,1,4.38-4.93A10.3,10.3,0,0,1,28.76,66a15.68,15.68,0,0,1,6.72,2.14,25.55,25.55,0,0,1,5.29,4.2c3.07,3.12,5.5,6.34,7.88,8.76a27.9,27.9,0,0,0,6.21,5,18.42,18.42,0,0,0,2,1l.71.28L56.84,87A18.41,18.41,0,0,1,55,85.91a29.77,29.77,0,0,1-5.76-5.36C47,78,44.78,74.73,41.72,71.4a25.68,25.68,0,0,0-5.48-4.58,16.7,16.7,0,0,0-7.39-2.41,11.63,11.63,0,0,0-7.54,2.16,15.86,15.86,0,0,0-4.68,5.52,22.57,22.57,0,0,0-2,6.13c-.38,2-.57,3.81-.81,5.46a21.6,21.6,0,0,1-2.21,7.51A14.36,14.36,0,0,1,10.37,93Z"/><path class="cls-46" d="M127.89,157.52c-6.59,8.14-6.29,20.44-1.42,29.76,5,9.47,13.83,16.32,23.13,21.62,39.43,22.49,100.55,29.61,137.54,7.42,3.08-1.84,16.05-6.08,22.59-18.25,2.92-5.43,2.58-15,6.88-21.89,4.66-7.51,14-16.82,36.69-29.82-11.8,7.07-36.17,3.82-68.27,16.6-15.83,6.3-47.3,22.13-64.22,24.17C191.78,190.64,157.14,175.85,127.89,157.52Z"/><path class="cls-47" d="M130.71,156.33a24.24,24.24,0,0,0-3.11.95,1.16,1.16,0,0,0,.29.24l.35-.43A15.47,15.47,0,0,0,130.71,156.33Z"/><path d="M321.16,154.31c-8.44,6.53-14.14,15.4-15.79,24.57-1,5.47-.8,11.45-5,15.93l-.7-1.13c-4.09-10.55-18.67-19.26-34.38-22.12a245.27,245.27,0,0,1,24.5-10.31,212.25,212.25,0,0,1,31.2-7.93Z"/><path class="cls-48" d="M232.8,184.55a191.31,191.31,0,0,0,19.25-7.12c4.48-1.85,8.85-3.86,13.23-5.87,15.71,2.86,30.29,11.57,34.38,22.12l.7,1.13c-2.58,2.76-6.46,4.48-10.31,5.84-9.27,3.26-19.37,5-29,4.1s-21.46-3.69-29.08-15.84l1-4.06Z"/><path class="cls-49" d="M243.69,181.15l1.32.17c.84.12,2.05.32,3.51.59a112.21,112.21,0,0,1,11.11,2.86,51.14,51.14,0,0,1,10.45,4.28,19.44,19.44,0,0,1,1.69,1.06,9.82,9.82,0,0,1,1.24.9l1.06.81s-.21-.42-.65-1.17a9.16,9.16,0,0,0-.88-1.33,17.72,17.72,0,0,0-1.37-1.63,24.6,24.6,0,0,0-10.51-6.24,31.67,31.67,0,0,0-12.05-1.27,27.1,27.1,0,0,0-3.63.59Z"/><path class="cls-50" d="M265.09,171.52l1.59.6c1,.35,2.48.94,4.26,1.64a112.27,112.27,0,0,1,13.25,6.43,52.72,52.72,0,0,1,11.67,8.63,27.79,27.79,0,0,1,2.87,3.45l.94,1.41-.45-1.65a20,20,0,0,0-2-4.27,31.54,31.54,0,0,0-11.31-10.58,44,44,0,0,0-14.52-5.1,44.94,44.94,0,0,0-4.62-.5Z"/><path class="cls-50" d="M231.93,188.9l.65,1.06c.22.35.48.79.82,1.29l1.23,1.67c.47.62,1.06,1.26,1.68,2s1.39,1.43,2.24,2.15a30.07,30.07,0,0,0,6.3,4.27,38.78,38.78,0,0,0,8.68,3.16A59.94,59.94,0,0,0,264,206a68.13,68.13,0,0,0,24-3.33c4.06-1.32,8.13-2.77,11.53-5.44a14.52,14.52,0,0,0,4-4.91,20.3,20.3,0,0,0,1.77-5.67c.63-3.74.73-7.18,1.54-10.25a36.76,36.76,0,0,1,3.16-8.31,45,45,0,0,1,7.67-10.49c1.08-1.1,2-1.93,2.58-2.46l.94-.83-1,.75c-.66.48-1.61,1.23-2.78,2.26a42.65,42.65,0,0,0-8.5,10.16,36.67,36.67,0,0,0-3.72,8.47c-1,3.22-1.26,6.82-2,10.3a18.39,18.39,0,0,1-1.71,5,12.46,12.46,0,0,1-3.46,4.07c-3,2.26-6.84,3.65-10.81,4.93a72.06,72.06,0,0,1-23.11,3.6c-7.22-.19-13.73-1.42-18.7-3.68a31,31,0,0,1-10.46-7.53l-1.35-1.55c-.37-.47-.66-.88-.91-1.21Z"/><path class="cls-50" d="M312.33,189.11l-.15.71a15.7,15.7,0,0,1-.49,2,25.19,25.19,0,0,1-3.18,6.93,38.61,38.61,0,0,1-7.53,8.39A69.12,69.12,0,0,1,289.52,215a121.65,121.65,0,0,1-23.36,9.66c-3.11.93-5.67,1.59-7.44,2l-2.76.62s1-.13,2.8-.43,4.39-.8,7.56-1.59a99.41,99.41,0,0,0,23.81-9.16A62.2,62.2,0,0,0,301.69,208a37,37,0,0,0,7.36-8.87,23.94,23.94,0,0,0,2.83-7.2,16.15,16.15,0,0,0,.35-2.08Z"/><path class="cls-51" d="M353.33,139.17c3.05,6.73,4.67,15.5-.51,21.35-4,4.58-11.28,6.23-15.21,2.29-2-2-3.74-4.16-3.3-11.81Z"/><path class="cls-51" d="M205.68,186.64c18.18-.32,29.27-4.77,29.29-4.7,2.13,7.14,2.09,15.95-.14,17.71-5.15,4-17.59,6.49-21.46,2.85C208.55,198,206.36,190.38,205.68,186.64Z"/><path class="cls-47" d="M222.94,93a55.46,55.46,0,0,1-22.26,8.48c-12.29,1.82-25.82-.29-36.33,6.35-9,5.69-13.26,16.29-17.88,25.85-4.22,8.77-7.29,19.24-15.76,22.65a15.47,15.47,0,0,1-2.47.76l-.35.43c15.88,10.82,33,18.14,49.37,23.37,14.93,4.76,29,8,45.39,6,16.91-2.13,62.07-24,69.44-26.38,33.75-10.93,49.33-8.17,58.73-12.8,8.07-4,11.56-11.34,12.73-20.55.73-5.77,0-14.24-5.27-16.57A55,55,0,0,0,352.56,88c-4.28-8.91-10.43-16.81-17.06-24.15l-.3,0a35.43,35.43,0,0,0-11.5-22.58,18.52,18.52,0,0,0-7.42-4.3c-7.55-2-15.42,3.68-18.68,10.78-.25.56-.47,1.1-.68,1.66A84.71,84.71,0,0,1,257,61.28a19.86,19.86,0,0,0-3.13-.86c-9.3-1.74-18.65,4.29-23.73,12.26C226.26,78.79,224.36,85.85,222.94,93Z"/><path class="cls-52" d="M144.44,138.13a77.93,77.93,0,0,1,16.84-5c13.57-2.38,28.31-1.38,40.11-8.49,10.39-6.27,18.3-13.13,20.37-25.11.37-2.17.75-4.36,1.18-6.57a55.33,55.33,0,0,1-22.26,8.49c-12.29,1.82-25.82-.29-36.33,6.35-9,5.69-13.26,16.29-17.88,25.85C145.77,135.13,145.1,136.62,144.44,138.13Z"/><path class="cls-53" d="M221.76,99.57l.68-3.18c.44-2,1.07-5,2.05-8.59a56.87,56.87,0,0,1,4.68-12.09,30.4,30.4,0,0,1,10.48-11.42A23.37,23.37,0,0,1,247,61.23a18.44,18.44,0,0,1,7.4,0,25,25,0,0,1,6.39,2.41A43.07,43.07,0,0,1,266,66.81a42.58,42.58,0,0,1,6.53,5.87c1.39,1.55,2.09,2.48,2.09,2.48s-.61-1-1.9-2.64a40,40,0,0,0-11.33-9.84,24.81,24.81,0,0,0-6.6-2.76,19.13,19.13,0,0,0-8-.16,23.85,23.85,0,0,0-7.93,3.2A30.1,30.1,0,0,0,228,75.1a52.84,52.84,0,0,0-4.27,12.51c-.8,3.67-1.23,6.67-1.54,8.74S221.76,99.57,221.76,99.57Z"/><path class="cls-53" d="M294.83,70.85s0-1.29,0-3.64a74.6,74.6,0,0,1,.61-9.87A36.1,36.1,0,0,1,297,50.77a21.51,21.51,0,0,1,3.66-6.69,19.4,19.4,0,0,1,6.48-5.21,13,13,0,0,1,8.56-1.15,17.55,17.55,0,0,1,7.69,4.37,33,33,0,0,1,5.59,6.4,36.83,36.83,0,0,1,5.51,13.32,35.64,35.64,0,0,1,.55,9.81,26.9,26.9,0,0,1-.33,2.68l-.15.93.22-.92a25,25,0,0,0,.5-2.66,34.14,34.14,0,0,0,0-10,36.07,36.07,0,0,0-5.17-13.91A33,33,0,0,0,324.42,41a18.61,18.61,0,0,0-8.35-4.79,14.28,14.28,0,0,0-9.57,1.34,20.16,20.16,0,0,0-6.86,5.73A22.42,22.42,0,0,0,296,50.43a34.68,34.68,0,0,0-1.31,6.82,67.32,67.32,0,0,0-.09,10C294.75,69.56,294.83,70.85,294.83,70.85Z"/><path class="cls-50" d="M363.44,121.62l.05.69c.05.45.07,1.13.09,2A28.64,28.64,0,0,1,362.5,132a27.79,27.79,0,0,1-5.71,10.69c-3,3.78-8.28,5.76-14.13,6.84-3,.56-6.09.89-9.38,1.24s-6.73.78-10.27,1.32a206.7,206.7,0,0,0-22.36,4.71c-3.89,1.05-7.85,2.22-11.85,3.57s-8,2.93-12.06,4.66c-8.06,3.45-16.16,7.46-24.64,11s-16.87,6.92-25.26,8.81a68.3,68.3,0,0,1-24.59.93,146.36,146.36,0,0,1-22.05-4.91c-6.84-2-13.16-3.94-18.84-6A135.43,135.43,0,0,1,135.5,162.7c-1.44-.89-2.71-1.7-3.77-2.45s-2-1.36-2.69-1.91l-2.19-1.63,2.12,1.72c.68.57,1.57,1.23,2.63,2s2.28,1.64,3.69,2.59a130.78,130.78,0,0,0,25.62,13c5.67,2.21,12,4.37,18.8,6.47A143.3,143.3,0,0,0,202,187.89a69.73,69.73,0,0,0,25.4-.68c8.67-1.9,17.17-5.29,25.71-8.84s16.67-7.65,24.63-11.11c4-1.75,7.92-3.34,11.84-4.72s7.84-2.59,11.68-3.68a215.33,215.33,0,0,1,22.07-5.06q5.25-.93,10.16-1.54c3.28-.42,6.46-.84,9.45-1.49a35.62,35.62,0,0,0,8.34-2.71c.62-.31,1.23-.63,1.81-1a12.82,12.82,0,0,0,1.66-1.14,18.1,18.1,0,0,0,2.69-2.71,28.58,28.58,0,0,0,6.28-18.89c-.05-.89-.09-1.57-.16-2Z"/><path class="cls-54" d="M266.28,90a28.65,28.65,0,0,0-6.06-9.29c-2.06-2.12-4.68-4-7.64-4s-6.05,2.45-5.66,5.39c.28,2.14,2.17,3.67,4,4.75a27.6,27.6,0,0,0,16,3.58"/><path class="cls-54" d="M316.1,71.71l-2.88-7.85c-.72-2-1.44-4.17-.57-6.06s3.14-2.86,5.19-3.56a6.67,6.67,0,0,1,2.59-.5c1.93.17,3.34,2.1,3.55,4a11.09,11.09,0,0,1-1.27,5.6A59.2,59.2,0,0,1,316.64,74"/><path class="cls-50" d="M145.18,157.16l-1.24-.63a11.61,11.61,0,0,0-1.52-.64,15.7,15.7,0,0,0-2.11-.64l-1.25-.28c-.44-.1-.91-.13-1.39-.19a20.56,20.56,0,0,0-3.1-.14,24,24,0,0,0-7,1.31,24.28,24.28,0,0,0-6.24,3.41,21.37,21.37,0,0,0-2.3,2.07c-.34.35-.67.67-1,1l-.79,1a14.51,14.51,0,0,0-1.22,1.83,9.57,9.57,0,0,0-.77,1.46l-.57,1.27.9-1.06a9.84,9.84,0,0,1,1.08-1.19,16.42,16.42,0,0,1,1.51-1.46l.91-.81c.32-.27.69-.51,1-.79.7-.57,1.54-1.06,2.38-1.61a35.65,35.65,0,0,1,5.88-2.79,36.19,36.19,0,0,1,6.32-1.57c1-.1,1.95-.25,2.86-.25.45,0,.89-.06,1.31-.05l1.21,0a20.36,20.36,0,0,1,2.1.18,11.24,11.24,0,0,1,1.59.24Z"/></g></g></g></svg>