<svg xmlns="http://www.w3.org/2000/svg" viewBox="0 0 42.39 44.33"><defs><style>.cls-1{fill:#0079b9;}.cls-2{fill:#8ec3ea;}</style></defs><title>Asset 247</title><g id="Layer_2" data-name="Layer 2"><g id="Layer_2-2" data-name="Layer 2"><path class="cls-1" d="M4.15,29.77c.47-.29,8-.71,8-12.67,0,0,7,.47,9.36-5.07,0,0,4.56,5.41,9.14,3.86.23-.36-1.69,7.06,10,11.74C42.32,45.87,8.29,52.72,4.15,29.77Z"/><path class="cls-1" d="M32.37,11.6c1.26-1.89,3-3.47,2-5.88C33.58,4,31.73,3,30.11,2.21c-1.93-.88-5.79-1.58-6.82.92s-1,5.48-.79,8.2a12,12,0,0,1,1.2,1.09,8.36,8.36,0,0,0,1.89,1.35,6,6,0,0,0,4.17.43C31,13.82,31.71,12.59,32.37,11.6Z"/><path class="cls-1" d="M20.29,9.55a4.62,4.62,0,0,1-.43,2.38c-1,1.64-3.3,2.56-5.06,3a5.19,5.19,0,0,1-3.14.13c-1.87-.79-3.07-3-3.57-4.84A4.9,4.9,0,0,1,10,4.74c2.06-1.67,4.58-3.12,7.3-2.83,1.79.19,2.51.49,2.92,2.2a17.87,17.87,0,0,1,.1,5.06C20.3,9.3,20.29,9.42,20.29,9.55Z"/><path class="cls-1" d="M8.8,15.32A12.38,12.38,0,0,1,7.44,13.6C6.92,12.76,6.19,11.51,5,12c-1.57.55-2.42,3.15-2.77,4.56C1.57,19,0,29.2,5.29,27.9c2.63-.64,4.81-4,5.39-6.48a5.91,5.91,0,0,0-.1-3.81A12.73,12.73,0,0,0,8.8,15.32Z"/><path class="cls-1" d="M36.62,24.09a6.19,6.19,0,0,0,4.7,1.28c.62-.05,1-3.7,1-4.12a28.52,28.52,0,0,0-.19-4.8c-.26-2.46-.95-5.4-3.23-6.77-1-.59-2.25.06-3.16.77a23.68,23.68,0,0,0-4.17,4.14c-.26.34-.09.62,0,1a17.24,17.24,0,0,0,3.37,7A13.92,13.92,0,0,0,36.62,24.09Z"/><path class="cls-2" d="M2.67,28.21c.46-.3,8-.72,8-12.67,0,0,7,.47,9.36-5.07,0,0,4.57,5.41,9.15,3.85.22-.35-1.7,7.07,10,11.74C40.83,44.31,6.8,51.16,2.67,28.21Z"/><path class="cls-2" d="M30.89,10.2c1.26-1.89,3-3.47,2-5.88-.77-1.75-2.61-2.77-4.23-3.51-1.93-.88-5.8-1.58-6.83.92s-1,5.48-.79,8.2A11,11,0,0,1,22.22,11a7.93,7.93,0,0,0,1.89,1.35,6,6,0,0,0,4.16.43C29.48,12.42,30.22,11.19,30.89,10.2Z"/><path class="cls-2" d="M18.8,8.15a4.62,4.62,0,0,1-.43,2.38c-1,1.64-3.3,2.56-5.06,3a5.19,5.19,0,0,1-3.14.13c-1.87-.79-3.07-3-3.57-4.84a4.9,4.9,0,0,1,1.89-5.5C10.55,1.67,13.07.22,15.8.51c1.78.19,2.5.49,2.91,2.2a17.87,17.87,0,0,1,.11,5.06C18.81,7.9,18.81,8,18.8,8.15Z"/><path class="cls-2" d="M7.31,13.92A12.31,12.31,0,0,1,6,12.2c-.52-.84-1.26-2.09-2.49-1.65C1.9,11.1,1.06,13.7.7,15.11.09,17.6-1.48,27.8,3.8,26.5c2.63-.64,4.81-4,5.39-6.48a6,6,0,0,0-.09-3.81A13.26,13.26,0,0,0,7.31,13.92Z"/><path class="cls-2" d="M35.14,22.69A6.16,6.16,0,0,0,39.84,24c.62,0,1-3.7,1-4.12a29.61,29.61,0,0,0-.19-4.8c-.27-2.46-1-5.4-3.24-6.77-1-.59-2.25.06-3.16.77a24,24,0,0,0-4.17,4.14c-.26.34-.08.62,0,1a17.26,17.26,0,0,0,3.38,7A13.92,13.92,0,0,0,35.14,22.69Z"/></g></g></svg>