<svg xmlns="http://www.w3.org/2000/svg" viewBox="0 0 39.19 36.42"><defs><style>.cls-1{fill:#767678;}.cls-2{fill:#c7c7c7;}.cls-3{fill:#fff;}</style></defs><title>Asset 226</title><g id="Layer_2" data-name="Layer 2"><g id="Layer_2-2" data-name="Layer 2"><path class="cls-1" d="M12.32,4.06A9.11,9.11,0,0,1,16.43,1a11.09,11.09,0,0,1,7-.66c3.85,1,7.49,5.05,6.17,9.23.33-1,4.62-1.66,5.48-1.42,5.05,1.41,4.34,7.78,3.4,11.71-2.08,8.72-8.77,16.49-18.1,16.59C15.17,36.47,9.6,33.2,6.68,29a24,24,0,0,1-3.36-7C2,17.52.34,11.35,5.6,8.7c2-1,4.86-1.23,6.29.81A5.85,5.85,0,0,1,12.32,4.06Z"/><ellipse class="cls-1" cx="20.73" cy="25.4" rx="11.02" ry="7.1" transform="translate(-0.22 0.18) rotate(-0.49)"/><path class="cls-1" d="M36.26,14.67c0,.06,0,.13,0,.2A5.34,5.34,0,0,1,35,17.31c-1.27,1.37-3.33,1.7-4.61.14a4,4,0,0,1,1.08-5.74c1.17-.83,3.14-1.06,4,.18A3.38,3.38,0,0,1,36.26,14.67Z"/><path class="cls-1" d="M4.92,14.79a4.7,4.7,0,0,0,1.13,2.68c1.24,1.4,3.29,1.79,4.61.26A4,4,0,0,0,9.73,12c-1.15-.86-3.11-1.15-4,.07A4,4,0,0,0,4.92,14.79Z"/><path class="cls-1" d="M25.92,6.24a7.26,7.26,0,0,1-.15,5.19c-.57,1.4-1.7,3.12-3.2,3.6-4.35,1.4-7.9-2.76-7.51-6.92A5.5,5.5,0,0,1,21,3,5.52,5.52,0,0,1,25.92,6.24Z"/><path class="cls-2" d="M10.32,4.06A9.11,9.11,0,0,1,14.43,1a11.09,11.09,0,0,1,7-.66c3.85,1,7.49,5.05,6.17,9.23.33-1,4.62-1.66,5.48-1.42,5.05,1.41,4.34,7.78,3.4,11.71-2.08,8.72-8.77,16.49-18.1,16.59C13.17,36.47,7.6,33.2,4.68,29a24,24,0,0,1-3.36-7C0,17.52-1.66,11.35,3.6,8.7c2-1,4.86-1.23,6.29.81A5.85,5.85,0,0,1,10.32,4.06Z"/><ellipse class="cls-3" cx="18.73" cy="25.4" rx="11.02" ry="7.1" transform="translate(-0.22 0.16) rotate(-0.49)"/><path class="cls-3" d="M34.26,14.67c0,.06,0,.13,0,.2A5.34,5.34,0,0,1,33,17.31c-1.27,1.37-3.33,1.7-4.61.14a4,4,0,0,1,1.08-5.74c1.17-.83,3.14-1.06,4,.18A3.38,3.38,0,0,1,34.26,14.67Z"/><path class="cls-3" d="M2.92,14.79a4.7,4.7,0,0,0,1.13,2.68c1.24,1.4,3.29,1.79,4.61.26A4,4,0,0,0,7.73,12c-1.15-.86-3.11-1.15-4,.07A4,4,0,0,0,2.92,14.79Z"/><path class="cls-3" d="M23.92,6.24a7.26,7.26,0,0,1-.15,5.19c-.57,1.4-1.7,3.12-3.2,3.6-4.35,1.4-7.9-2.76-7.51-6.92A5.5,5.5,0,0,1,19,3,5.52,5.52,0,0,1,23.92,6.24Z"/></g></g></svg>