<svg xmlns="http://www.w3.org/2000/svg" viewBox="0 0 60.55 63.33"><defs><style>.cls-1{fill:#3b4558;}.cls-2{fill:#9ba5bb;}</style></defs><title>Asset 248</title><g id="Layer_2" data-name="Layer 2"><g id="Layer_2-2" data-name="Layer 2"><path class="cls-1" d="M5.93,42.53c.66-.42,11.48-1,11.47-18.1,0,0,9.94.68,13.37-7.24,0,0,6.52,7.73,13.06,5.51.32-.51-2.42,10.09,14.28,16.77C60.45,65.53,11.84,75.32,5.93,42.53Z"/><path class="cls-1" d="M46.25,16.57c1.8-2.69,4.33-5,2.82-8.4-1.1-2.5-3.74-4-6-5C40.26,1.9,34.74.9,33.27,4.48s-1.39,7.82-1.13,11.7a15.16,15.16,0,0,1,1.72,1.57,11.93,11.93,0,0,0,2.7,1.92,8.52,8.52,0,0,0,5.95.61C44.24,19.74,45.3,18,46.25,16.57Z"/><path class="cls-1" d="M29,13.64a6.64,6.64,0,0,1-.62,3.41c-1.4,2.34-4.71,3.65-7.23,4.31-1.33.35-3.16.75-4.48.19-2.67-1.14-4.39-4.25-5.1-6.92-.87-3.26.1-5.75,2.69-7.86,2.95-2.38,6.55-4.46,10.44-4,2.55.27,3.58.7,4.16,3.15A25.37,25.37,0,0,1,29,13.11C29,13.28,29,13.46,29,13.64Z"/><path class="cls-1" d="M12.57,21.89a18.89,18.89,0,0,1-1.94-2.46c-.74-1.2-1.79-3-3.55-2.37-2.24.8-3.45,4.52-3.95,6.53C2.25,27.14,0,41.72,7.56,39.86c3.76-.92,6.86-5.71,7.69-9.27.38-1.61.69-3.93-.13-5.43A18.63,18.63,0,0,0,12.57,21.89Z"/><path class="cls-1" d="M52.32,34.42A8.79,8.79,0,0,0,59,36.24c.89-.06,1.44-5.28,1.47-5.88a41.36,41.36,0,0,0-.27-6.86c-.37-3.51-1.36-7.72-4.62-9.67-1.42-.85-3.21.09-4.51,1.1a34,34,0,0,0-6,5.91c-.37.49-.12.89,0,1.48,1,3.5,2.33,7.19,4.83,10A19.88,19.88,0,0,0,52.32,34.42Z"/><path class="cls-2" d="M3.81,40.29c.66-.41,11.48-1,11.46-18.09,0,0,9.94.67,13.38-7.24,0,0,6.52,7.72,13.06,5.5C42,20,39.29,30.55,56,37.23,58.33,63.3,9.71,73.08,3.81,40.29Z"/><path class="cls-2" d="M44.12,14.57c1.81-2.69,4.33-5,2.82-8.4-1.09-2.5-3.73-4-6-5C38.14-.1,32.62-1.1,31.14,2.48S29.75,10.3,30,14.18a16.06,16.06,0,0,1,1.72,1.57,11.72,11.72,0,0,0,2.7,1.92,8.52,8.52,0,0,0,6,.61C42.12,17.74,43.18,16,44.12,14.57Z"/><path class="cls-2" d="M26.86,11.64a6.53,6.53,0,0,1-.61,3.41c-1.41,2.34-4.72,3.65-7.24,4.31-1.32.35-3.16.75-4.48.19-2.67-1.14-4.39-4.25-5.1-6.92-.86-3.26.1-5.75,2.7-7.86,2.94-2.38,6.54-4.46,10.44-4,2.55.27,3.58.7,4.16,3.15a25.37,25.37,0,0,1,.15,7.23C26.87,11.28,26.87,11.46,26.86,11.64Z"/><path class="cls-2" d="M10.44,19.89a18,18,0,0,1-1.93-2.46c-.74-1.2-1.8-3-3.55-2.37-2.24.8-3.45,4.52-3.95,6.53C.12,25.14-2.12,39.72,5.43,37.86c3.76-.92,6.87-5.71,7.7-9.27.37-1.61.68-3.93-.13-5.43A18.23,18.23,0,0,0,10.44,19.89Z"/><path class="cls-2" d="M50.19,32.42a8.83,8.83,0,0,0,6.72,1.82c.89-.06,1.43-5.28,1.47-5.88a42.47,42.47,0,0,0-.27-6.86c-.38-3.51-1.36-7.72-4.63-9.67-1.41-.85-3.2.09-4.51,1.1A34,34,0,0,0,43,18.84c-.38.49-.12.89,0,1.48,1,3.5,2.33,7.19,4.82,10A21.74,21.74,0,0,0,50.19,32.42Z"/></g></g></svg>