<svg xmlns="http://www.w3.org/2000/svg" viewBox="0 0 38.47 37.17"><defs><style>.cls-1{fill:#005e8c;}.cls-2{fill:#abe3ff;}</style></defs><title>Asset 225</title><g id="Layer_2" data-name="Layer 2"><g id="Layer_2-2" data-name="Layer 2"><g id="XMzjJ3"><path class="cls-1" d="M38,36c-17.76,2.6-31.58.45-38-2.61C.54,32.16,1,31,1.59,29.78c6-12.57,17.2-20.46,29.74-26.37C33.11,2.57,35,1.86,36.8,1.18a1.66,1.66,0,0,1,1.42.17,1.64,1.64,0,0,1,.17,1.39c-.63,1.75-1.09,3.53-1.55,5.33a.81.81,0,0,1-.15.34.87.87,0,0,1-.31.18L33.19,9.83a27,27,0,0,1,3,.09c-.23,0-.69,3.49-.73,3.82-.19,1.8.13,2.08-1.72,2.43a5,5,0,0,0,1.71.28c-.68.83-.44,2.33-.35,3.31.14,1.41.19,2.77.2,4.19-.93.05-1.73.72-2.67.67l2.87.17c-.33,1.4.59,3.79.9,5.2.11.53.17,1,.32,1.57a6,6,0,0,0-1.32.31,8.88,8.88,0,0,1,1.46.09,33.44,33.44,0,0,0,1,3.54C37.94,35.62,38,35.75,38,36Z"/></g><g id="XMzjJ3-2" data-name="XMzjJ3"><path class="cls-2" d="M36.37,34.91A75.42,75.42,0,0,1,.58,33.6L0,33.42C.54,32.18,1,31,1.59,29.79c6-12.57,15.55-21.57,28.09-27.48C31.45,1.47,33.3.76,35.15.09a1.6,1.6,0,0,1,1.41.16,1.58,1.58,0,0,1,.17,1.39C36.11,3.4,35.64,5.17,35.18,7a.79.79,0,0,1-.14.34.75.75,0,0,1-.31.18L31.54,8.73a29.77,29.77,0,0,1,3,.09c-.24,0-.69,3.49-.73,3.82-.19,1.8.13,2.09-1.73,2.43a4.78,4.78,0,0,0,1.72.28c-.68.84-.44,2.34-.35,3.31.14,1.41.19,2.77.2,4.19-.93.06-1.73.73-2.67.67l2.87.17c-.33,1.41.59,3.79.89,5.2.12.53.18,1,.32,1.57a5.45,5.45,0,0,0-1.31.32,7.9,7.9,0,0,1,1.46.08,29.32,29.32,0,0,0,1,3.54C36.29,34.53,36.31,34.65,36.37,34.91Z"/></g></g></g></svg>