<svg xmlns="http://www.w3.org/2000/svg" viewBox="0 0 48.1 46.87"><defs><style>.cls-1{fill:#2d2d2d;}.cls-2{fill:#7a7a7a;}</style></defs><title>Asset 224</title><g id="Layer_2" data-name="Layer 2"><g id="Layer_2-2" data-name="Layer 2"><path class="cls-1" d="M35.65,26.4c2.91,3.93,4.63,7.87,4.89,10.59.39,4-2.95,7.57-6.92,8.51-5,1.19-10.21,2.16-15.28.41-7.29-2.52-13.09-8.85-8-16A30.11,30.11,0,0,1,16,24.33c2.37-1.92,5-4,8-5C26.49,18.56,32.36,22,35.65,26.4Z"/><path class="cls-1" d="M43.89,27.46c-2.27,1.35-5.31,0-6.93-1.81a9.44,9.44,0,0,1-1-1.22c-2.09-3.26-.05-7.63,2.6-9.87a14.89,14.89,0,0,1,4.33-2.8c3.41-1.24,5,1.59,5.15,4.6.22,3.28-1,8.07-3.37,10.46A4.74,4.74,0,0,1,43.89,27.46Z"/><path class="cls-1" d="M5.2,25.79c2.24,1.4,5.31.14,7-1.68a8.93,8.93,0,0,0,1-1.21c2.14-3.21.18-7.62-2.43-9.91a14.76,14.76,0,0,0-4.28-2.87c-3.39-1.3-5,1.5-5.24,4.5-.27,3.28.88,8.09,3.2,10.52A4,4,0,0,0,5.2,25.79Z"/><path class="cls-1" d="M26.9,17.6c1.15.56,2.67,1.42,4,1,2.35-.78,2.22-2.92,2.18-4.58a19.08,19.08,0,0,0-1-4.93,18.45,18.45,0,0,0-3.11-5.85A6,6,0,0,0,25.22,1c-2.08-.26-3.49,1.11-4.64,2.64a17.87,17.87,0,0,0-3.4,8.07c-.28,1.79-.29,4.61,1,6,2.09,2.23,4.22-.14,6.11-.58A3.74,3.74,0,0,1,26.9,17.6Z"/><path class="cls-2" d="M34.27,25.4c2.91,3.93,4.63,7.87,4.9,10.59,1,10.11-15.69,11.17-22.2,8.92-7.3-2.52-13.1-8.85-8-16a30.17,30.17,0,0,1,5.64-5.59c2.36-1.92,5-4,8-5C25.12,17.56,31,21,34.27,25.4Z"/><path class="cls-2" d="M42.37,26.46c-2.26,1.35-5.31,0-6.93-1.81a10.39,10.39,0,0,1-1-1.22c-2.09-3.26,0-7.63,2.6-9.87a14.89,14.89,0,0,1,4.33-2.8c3.41-1.24,5,1.59,5.16,4.6.21,3.28-1,8.07-3.38,10.46A4.38,4.38,0,0,1,42.37,26.46Z"/><path class="cls-2" d="M4,26.09c2.24,1.39,5.31.13,7-1.68a11.37,11.37,0,0,0,1-1.21c2.15-3.22.18-7.63-2.42-9.91a14.67,14.67,0,0,0-4.29-2.87c-3.38-1.3-5,1.5-5.23,4.5C-.23,18.2.91,23,3.23,25.44A4.39,4.39,0,0,0,4,26.09Z"/><path class="cls-2" d="M25.52,16.6c1.16.56,2.67,1.42,4,1,2.36-.78,2.23-2.92,2.19-4.58a19,19,0,0,0-1-4.93,18.06,18.06,0,0,0-3.11-5.85A6,6,0,0,0,23.85,0c-2.08-.26-3.49,1.11-4.65,2.64a18.1,18.1,0,0,0-3.4,8.07c-.28,1.79-.29,4.61,1.05,6,2.08,2.23,4.21-.14,6.1-.58A3.74,3.74,0,0,1,25.52,16.6Z"/></g></g></svg>