<svg xmlns="http://www.w3.org/2000/svg" xmlns:xlink="http://www.w3.org/1999/xlink" viewBox="0 0 352.42 572.91"><defs><style>.cls-1{isolation:isolate;}.cls-2{fill:#eb8f52;}.cls-3{fill:#fde0aa;}.cls-4{fill:#b45b28;}.cls-5{fill:#833224;}.cls-10,.cls-11,.cls-15,.cls-17,.cls-23,.cls-36,.cls-44,.cls-45,.cls-48,.cls-6{fill:none;}.cls-15,.cls-36,.cls-6{stroke:#000;}.cls-11,.cls-36,.cls-44,.cls-45,.cls-48,.cls-6{stroke-miterlimit:10;}.cls-6{stroke-width:0.54px;}.cls-7{fill:#bc4b40;}.cls-8{fill:#010101;}.cls-9{fill:#007e73;}.cls-10,.cls-11,.cls-48{stroke:#014039;}.cls-10{stroke-linecap:round;stroke-linejoin:round;}.cls-10,.cls-11,.cls-45{stroke-width:0.64px;}.cls-12{fill:#02413a;}.cls-13{fill:#874334;}.cls-14{fill:#7a372a;}.cls-15,.cls-17{stroke-miterlimit:10.46;}.cls-15{stroke-width:0.56px;}.cls-16{fill:#df935e;}.cls-17{stroke:#aa5c29;stroke-width:1.06px;}.cls-18{fill:#aa5d2a;}.cls-19{fill:#fff;}.cls-20{fill:#cfcdcd;}.cls-21{opacity:0.25;mix-blend-mode:multiply;}.cls-22{fill:url(#linear-gradient);}.cls-24{fill:#493523;}.cls-25{fill:url(#linear-gradient-2);}.cls-26{fill:url(#linear-gradient-3);}.cls-27{fill:url(#linear-gradient-4);}.cls-28{fill:#a74931;}.cls-29{fill:#f9ac77;}.cls-30{fill:url(#radial-gradient);}.cls-31{fill:#8d6b34;}.cls-32{fill:#71523c;}.cls-33{fill:#5f4330;}.cls-34{fill:#b6886f;}.cls-35{fill:#c55e31;}.cls-36{stroke-width:1.31px;}.cls-37{fill:#202020;}.cls-38{fill:#d17377;}.cls-39{fill:url(#linear-gradient-5);}.cls-40{fill:url(#linear-gradient-6);}.cls-41{fill:#61a49a;}.cls-42{fill:#83c1bb;}.cls-43{fill:#913f30;}.cls-44{stroke:#b45a27;stroke-width:1.09px;}.cls-45{stroke:#cfcdcd;}.cls-46{fill:url(#linear-gradient-7);}.cls-47{fill:url(#linear-gradient-9);}.cls-48{stroke-width:0.6px;}</style><linearGradient id="linear-gradient" x1="121.94" y1="293.49" x2="95.86" y2="340.07" gradientTransform="translate(3.25 0.09) rotate(0.84)" gradientUnits="userSpaceOnUse"><stop offset="0.02"/><stop offset="0.86" stop-opacity="0.51"/><stop offset="1" stop-opacity="0.18"/></linearGradient><linearGradient id="linear-gradient-2" x1="-116.32" y1="-500.87" x2="-163.5" y2="-621.49" gradientTransform="translate(64.22 653.51) rotate(15.6)" gradientUnits="userSpaceOnUse"><stop offset="0.04" stop-color="#eb8f52"/><stop offset="0.38" stop-color="#e98d51"/><stop offset="0.57" stop-color="#e1844d"/><stop offset="0.73" stop-color="#d37747"/><stop offset="0.87" stop-color="#c0633d"/><stop offset="0.99" stop-color="#a84a31"/><stop offset="0.99" stop-color="#a74931"/></linearGradient><linearGradient id="linear-gradient-3" x1="-136.99" y1="-528.89" x2="-92.01" y2="-528.89" gradientTransform="translate(64.22 653.51) rotate(15.6)" gradientUnits="userSpaceOnUse"><stop offset="0.03" stop-color="#ef803f"/><stop offset="0.08" stop-color="#f18e4e"/><stop offset="0.2" stop-color="#f3a767"/><stop offset="0.32" stop-color="#f5ba7b"/><stop offset="0.47" stop-color="#f7c888"/><stop offset="0.64" stop-color="#f8d091"/><stop offset="0.96" stop-color="#f8d293"/></linearGradient><linearGradient id="linear-gradient-4" x1="-117.59" y1="-629.81" x2="-83.95" y2="-419.76" gradientTransform="translate(64.22 653.51) rotate(15.6)" gradientUnits="userSpaceOnUse"><stop offset="0.01" stop-color="#a74931"/><stop offset="0.01" stop-color="#a84a31"/><stop offset="0.13" stop-color="#c0633d"/><stop offset="0.27" stop-color="#d37747"/><stop offset="0.42" stop-color="#e1844d"/><stop offset="0.62" stop-color="#e98d51"/><stop offset="0.96" stop-color="#eb8f52"/></linearGradient><radialGradient id="radial-gradient" cx="-75.41" cy="-392.98" r="129.93" gradientTransform="translate(76.59 609.19) rotate(15.6) scale(1 0.88)" gradientUnits="userSpaceOnUse"><stop offset="0.03" stop-color="#fdda9e"/><stop offset="0.37" stop-color="#fcd89c"/><stop offset="0.56" stop-color="#fbd093"/><stop offset="0.72" stop-color="#f7c286"/><stop offset="0.85" stop-color="#f3af72"/><stop offset="0.97" stop-color="#ed9659"/><stop offset="1" stop-color="#eb8f52"/></radialGradient><linearGradient id="linear-gradient-5" x1="40.04" y1="-449.51" x2="121.89" y2="-627.98" xlink:href="#linear-gradient-2"/><linearGradient id="linear-gradient-6" x1="61.3" y1="-477.87" x2="105.68" y2="-574.65" gradientTransform="translate(64.22 653.51) rotate(15.6)" gradientUnits="userSpaceOnUse"><stop offset="0.04" stop-color="#f8d293"/><stop offset="0.2" stop-color="#f7c889"/><stop offset="0.48" stop-color="#f4ae6e"/><stop offset="0.83" stop-color="#ef8443"/><stop offset="0.86" stop-color="#ef803f"/></linearGradient><linearGradient id="linear-gradient-7" x1="-391.52" y1="1334.58" x2="-384.99" y2="1379.18" gradientTransform="matrix(0.99, -0.04, 0.01, 0.99, 446.33, -819.25)" gradientUnits="userSpaceOnUse"><stop offset="0.09" stop-color="#eb8f52"/><stop offset="0.19" stop-color="#d97f4b"/><stop offset="0.49" stop-color="#a55138"/><stop offset="0.64" stop-color="#913f30"/></linearGradient><linearGradient id="linear-gradient-9" x1="-673.04" y1="3478.2" x2="-667.72" y2="3514.57" gradientTransform="matrix(0.59, -0.66, 0.65, 0.61, -1724.45, -2078.56)" xlink:href="#linear-gradient-7"/></defs><title>Asset 219</title><g class="cls-1"><g id="Layer_2" data-name="Layer 2"><g id="Layer_2-2" data-name="Layer 2"><path class="cls-2" d="M169.39,434.19c-6.15,4.38-13,8.53-20.59,8.5s-14.24-4.11-20.57-8c0,0-6.54-.14-7.26,3.25-.38,1.74.84,6.64,2.1,11,1.12,3.83,2.29,7.25,2.42,7.64h0a27.46,27.46,0,0,0,16.38,13.6,17.41,17.41,0,0,0,7.88.64c.48.12.59.47,1.72.6a16.52,16.52,0,0,0,10.68-5.86,29.56,29.56,0,0,0,5.65-11A49.3,49.3,0,0,0,169.39,434.19Z"/><path class="cls-2" d="M169.39,434.19c-1.12,6.52-7.5,13.49-13.24,16.81a33.31,33.31,0,0,1-19.22,3.88c-5.11-.38-10.69-2.27-13.86-6-1.26-4.36-2.48-9.26-2.1-11,.72-3.39,7.26-3.25,7.26-3.25,6.33,3.93,13.11,8,20.57,8S163.24,438.57,169.39,434.19Z"/><path class="cls-3" d="M169.39,434.19a49.3,49.3,0,0,1-1.61,20.31,29.56,29.56,0,0,1-5.65,11,16.52,16.52,0,0,1-10.68,5.86c-1.13-.13-1.24-.48-1.72-.6a17.41,17.41,0,0,1-7.88-.64,27.46,27.46,0,0,1-16.38-13.6h0c-.13-.39-1.3-3.81-2.42-7.64,3.17,3.71,8.75,5.6,13.86,6A33.31,33.31,0,0,0,156.15,451C161.89,447.68,168.27,440.71,169.39,434.19Z"/><path class="cls-4" d="M148.7,470.83l.31,0a1.89,1.89,0,0,1,.9.09,3.73,3.73,0,0,0,1.4.52,8.77,8.77,0,0,0,2-.25,15.27,15.27,0,0,0,5.16-2.19,19.42,19.42,0,0,0,5.33-5.19,30.81,30.81,0,0,0,4-8.11,48.22,48.22,0,0,0,2.2-10.13,49.1,49.1,0,0,0,.29-5.61c0-1-.05-1.93-.11-2.91,0-.49-.08-1-.12-1.47l-.11-1-.08-.71,0-.36,0-.18s0-.08,0-.07l-.08,0-1.91,1.34-1.24.83c-.83.56-1.67,1.1-2.53,1.62a45,45,0,0,1-5.42,2.84A23.59,23.59,0,0,1,147,442.06a30.17,30.17,0,0,1-10.64-3.26c-1.61-.79-3.14-1.64-4.62-2.51L129.58,435l-1.1-.67c-.12-.13-.36-.07-.46-.08h-.32l-.62,0a11,11,0,0,0-4.62,1.25,3.8,3.8,0,0,0-1.62,1.72l-.18.56,0,.57a7.57,7.57,0,0,0,0,1.08,45.74,45.74,0,0,0,1.63,7.26c.6,2.1,1.18,3.89,1.66,5.34,1,2.92,1.56,4.51,1.56,4.51S125,455,124.11,452c-.43-1.47-1-3.27-1.49-5.38a49.28,49.28,0,0,1-1.41-7.21,6.69,6.69,0,0,1,0-1l0-.48.16-.45a3.17,3.17,0,0,1,1.38-1.38,10.52,10.52,0,0,1,4.35-1.06l.59,0H128c.1,0,.09,0,.12,0l1,.64,2.16,1.34c1.48.89,3,1.78,4.65,2.61a30.87,30.87,0,0,0,11,3.49,21.92,21.92,0,0,0,6.14-.3,28.42,28.42,0,0,0,6-1.9,43.63,43.63,0,0,0,5.55-2.92c.87-.53,1.73-1.09,2.57-1.65l1.24-.85.49-.35,0,0c0-.38.13,1.07.19,1.94s.12,1.9.13,2.84a52.2,52.2,0,0,1-.2,5.5,49.36,49.36,0,0,1-2,10,31,31,0,0,1-3.7,8A17.59,17.59,0,0,1,153.31,471a9.05,9.05,0,0,1-2,.32,3.55,3.55,0,0,1-1.39-.47,2,2,0,0,0-.92-.05Z"/><path class="cls-4" d="M158.77,464.19l-.25.41a10.59,10.59,0,0,1-.81,1.12,13,13,0,0,1-3.82,3.2,12.72,12.72,0,0,1-7,1.59,23.27,23.27,0,0,1-8.64-2.39,29.19,29.19,0,0,1-12.07-10.92,30,30,0,0,1-2.23-4.53l-.62-1.76.45,1.82a27.5,27.5,0,0,0,1.91,4.75,27.23,27.23,0,0,0,12.07,11.66,22.22,22.22,0,0,0,9.1,2.32,12.87,12.87,0,0,0,7.37-2,12.69,12.69,0,0,0,3.66-3.59,10.58,10.58,0,0,0,.71-1.19Z"/><path class="cls-2" d="M141.5,421.88c-.22,21.53-1.78,47.62-2.72,76.12v0c-.61,1.76-2.61,3.32-3.37,4.4A12.38,12.38,0,0,1,122,506.69a16.63,16.63,0,0,1-5.6-3.44c0-.13-.1-.24-.15-.37-9.06-22.13-14.84-29.78-20.12-60.74-4.23-24.8,2.55-50.06,33.41-37.79A18.45,18.45,0,0,1,141.5,421.88Z"/><path class="cls-5" d="M87.27,552.84s2.73,8.43,2.36,13.26c0,0-9.8,7-24.85,4.66,0,0,1.78-8.44,9.72-17.24C74.5,553.52,80.64,548.84,87.27,552.84Z"/><path class="cls-6" d="M87.27,552.84s2.73,8.43,2.36,13.26c0,0-9.8,7-24.85,4.66,0,0,1.78-8.44,9.72-17.24C74.5,553.52,80.64,548.84,87.27,552.84Z"/><path class="cls-5" d="M74,560a33,33,0,0,0-6,12.47A24.51,24.51,0,0,0,79.33,571a74.13,74.13,0,0,0,10.36-5Z"/><path class="cls-7" d="M77.71,558.53a15.42,15.42,0,0,0-1.65,1.33,17.52,17.52,0,0,0-5.25,8.64,14.17,14.17,0,0,0-.42,2.07l1-1.82c.63-1.12,1.52-2.63,2.52-4.27s1.92-3.12,2.63-4.19Z"/><path class="cls-8" d="M74,560s-.34.39-.9,1.14a32,32,0,0,0-2.17,3.33,32.36,32.36,0,0,0-2.41,5.38c-.18.52-.35,1.07-.51,1.63-.09.36-.19.72-.28,1.08-.12.19.13.14.25.17l.39,0,.45.05a20.68,20.68,0,0,0,3.77,0A34,34,0,0,0,85,568.64c1.48-.78,2.65-1.46,3.46-1.93l1.25-.73-1.29.65c-.84.42-2,1-3.55,1.76a37.46,37.46,0,0,1-12.31,3.85,20.53,20.53,0,0,1-3.67,0l-.44,0h-.06l0-.19.11-.42c.14-.55.3-1.09.46-1.62a35.84,35.84,0,0,1,2.21-5.39,33.24,33.24,0,0,1,2-3.4C73.7,560.43,74,560,74,560Z"/><path class="cls-2" d="M100.24,426.28c-6,20.41-9,53.36-17.55,80.2v0a19,19,0,0,1-3.2,3.68c-3.72,3.09-8.81,3.75-12.86,1.06a16.07,16.07,0,0,1-4.46-4.65c0-.14,0-.26,0-.39-2.77-23.27-8-60.38-4.77-91.11,2.59-24.62,23.11-36.72,49.49-17.42C113.1,402.24,102.46,418.77,100.24,426.28Z"/><path class="cls-2" d="M128.52,303.27c.6.55.79,8,1.4,9.52a30.94,30.94,0,0,0,6.15,9.15c5.86,6.41,10.49,10.18,13.34,18.89a24.2,24.2,0,0,1,1,3.92,31.49,31.49,0,0,1,.22,4.66c0,10.32-.5,20.14-4.45,29.8-1.87,4.59-4.6,9.21-4.36,14.13,1,20.68,2.35,48.58-17.26,62.19-20.53,14.24-51.47,5.91-61.88-15.94-6.32-13.24-7.78-30-6.63-44.41a157,157,0,0,1,3.29-21.11c1.53-7,8.53-43.12,10.3-44.29,4-2.67,10.89-5.22,13.67-9,3.07-4.12,3.74-12,4.17-16.91,0,0,3.74-7.85,16.88-9.18S128.52,303.27,128.52,303.27Z"/><path class="cls-3" d="M132.13,388a93.69,93.69,0,0,1,.68-15.23c.92-6.79,1.64-14-1.29-20.22a11.14,11.14,0,0,1,2,3.23,15.64,15.64,0,0,0-3.68-10.13,12.33,12.33,0,0,1,2.47,2.88,12.78,12.78,0,0,0-4.11-7.78,4.88,4.88,0,0,1,2.29,1.52,17,17,0,0,0-5-6.88l1.9.49c-8-10.59-7.19-24.17-4.26-36.37-4.46-2.62-11.28-5.52-18.81-4.76-6.81.69-11.1,3.12-13.64,5.32a61.39,61.39,0,0,0,.9,8.68c1,5.7-.48,12.43-3.27,17.49-3.12,5.63-9.06,7.57-13.18,12.27a9.06,9.06,0,0,1,5-1.76,25.62,25.62,0,0,0-6.65,6A6.41,6.41,0,0,1,77,341.15a11.68,11.68,0,0,0-4.64,5.37l2.29-1.73c-2.73,2.94-4,6.77-4.65,10.57-.32,1.85-.25,3.88-.87,5.66-.55,1.6-1.41,3.06-1.9,4.73-3.95,13.45-6.12,27.73-5,41.72S65.4,437.16,77.27,447c9.67,8,24.54,9.17,35.86,3.9,16.64-7.71,21.88-24.65,20.55-41.16C133.11,402.42,132.33,395.2,132.13,388Z"/><path class="cls-9" d="M141.5,421.88c-.22,21.53-1.78,47.62-2.72,76.12v0c-6.46,9.34-29.64,9.13-29.68,9C103.36,487.58,100.75,481,94,446.3c-4.83-24.69,4.66-54.22,35.52-41.95A18.45,18.45,0,0,1,141.5,421.88Z"/><path class="cls-10" d="M141.5,421.88c-.22,21.53-1.78,47.62-2.72,76.12"/><path class="cls-9" d="M109.1,507C103.36,487.58,100.75,481,94,446.3"/><path class="cls-11" d="M109.1,507C103.36,487.58,100.75,481,94,446.3"/><path class="cls-9" d="M103.41,429.36c-6,20.4-12.16,50.28-20.72,77.12v0c-.59.84-5.47,8.36-18.32,6.36a17,17,0,0,1-12-8c-.68-26.07,1.79-59.06,5-89.79,2.59-24.62,26.62-40.66,45.44-13.95C108.6,409.39,103.41,429.36,103.41,429.36Z"/><path class="cls-11" d="M103.41,429.36c-6,20.4-12.16,50.28-20.72,77.12"/><path class="cls-11" d="M52.32,504.88c-.68-26.07,1.79-59.06,5-89.79"/><path class="cls-9" d="M110.61,471.35c-8.63-4.91-14.55-6-22.64-5.84,0,0-17.92-23.27-20.73-45.36,0,0,13.51-3.28,34.13-3.34A88.7,88.7,0,0,1,137,424s-11.27,31.41-26.41,47.32"/><path class="cls-12" d="M88,465.51l3.41.55c2.11.35,5,.79,8.18,1.48a48,48,0,0,1,7.91,2.38c1,.4,1.77.76,2.3,1l.84.41-.79-.5a24.92,24.92,0,0,0-2.21-1.23,33.83,33.83,0,0,0-7.91-2.73,61.1,61.1,0,0,0-8.28-1.15C89.29,465.57,88,465.51,88,465.51Z"/><path class="cls-12" d="M96.08,442.14s-.1.77-.22,2.17-.23,3.43-.3,5.94-.1,5.51-.06,8.83c0,1.66.06,3.41.13,5.21,0,.46.05.91.07,1.37l0,.47c-.08.31.27.26.46.34l.68.19,2.74.74,1.37.37,1,.25c.1,0,.26.1.31.06v-.35l0-.61c0-.93,0-1.84,0-2.74,0-1.81,0-3.55,0-5.21,0-3.32,0-6.3,0-8.81.06-5,.1-8.13.1-8.13s-.23,3.1-.44,8.12c-.1,2.51-.2,5.5-.26,8.82,0,1.66,0,3.4,0,5.21,0,.91,0,1.83,0,2.76v.1h0l-.41-.11-1.38-.37L97,466l-.67-.18s0,.12,0-.22-.06-.91-.08-1.36c-.1-1.8-.16-3.53-.21-5.19-.11-3.32-.16-6.3-.17-8.81C95.85,445.24,96.08,442.14,96.08,442.14Z"/><g id="Duplicate_Items_Folder_Symbol_16_copy_8_0_Layer0_0_MEMBER_0_MEMBER_0_FILL" data-name="Duplicate Items Folder Symbol 16 copy 8 0 Layer0 0 MEMBER 0 MEMBER 0 FILL"><path class="cls-13" d="M21.92,250.74c2.17-2.31,2.8-4.61,1.87-6.92-2-2.81-3.57-5-4.81-6.5q-3.81-4.71-5.67-5.23A13.59,13.59,0,0,0,9,231.94a26.09,26.09,0,0,0-7.42,1.82,1.9,1.9,0,0,0-1.24,1.51,1.77,1.77,0,0,0,.62,1.8,54.84,54.84,0,0,1,14.13,18.1A18.76,18.76,0,0,0,21.92,250.74Z"/></g><g id="Duplicate_Items_Folder_Symbol_16_copy_8_0_Layer0_0_MEMBER_0_MEMBER_1_FILL" data-name="Duplicate Items Folder Symbol 16 copy 8 0 Layer0 0 MEMBER 0 MEMBER 1 FILL"><path class="cls-14" d="M13.82,241.73a8.76,8.76,0,0,1-1.8-5,6.06,6.06,0,0,1,.43-2.67,4.59,4.59,0,0,1,1.33-1.74l-.47-.19A13.59,13.59,0,0,0,9,231.94a26.09,26.09,0,0,0-7.42,1.82,1.9,1.9,0,0,0-1.24,1.51,1.77,1.77,0,0,0,.62,1.8,57.86,57.86,0,0,1,8.26,8.66,38.15,38.15,0,0,1,8.92-.82A8.63,8.63,0,0,1,13.82,241.73Z"/></g><path id="Duplicate_Items_Folder_Symbol_16_copy_8_0_Layer0_0_MEMBER_0_MEMBER_2_1_STROKES" data-name="Duplicate Items Folder Symbol 16 copy 8 0 Layer0 0 MEMBER 0 MEMBER 2 1 STROKES" class="cls-15" d="M23.79,243.82c-2-2.81-3.57-5-4.81-6.5q-3.81-4.71-5.67-5.23A13.59,13.59,0,0,0,9,231.94a26.09,26.09,0,0,0-7.42,1.82,1.9,1.9,0,0,0-1.24,1.51,1.77,1.77,0,0,0,.62,1.8,54.84,54.84,0,0,1,14.13,18.1,18.76,18.76,0,0,0,6.85-4.43C24.09,248.43,24.72,246.13,23.79,243.82Z"/><g id="Duplicate_Items_Folder_Symbol_16_copy_8_0_Layer0_0_MEMBER_1_FILL" data-name="Duplicate Items Folder Symbol 16 copy 8 0 Layer0 0 MEMBER 1 FILL"><path class="cls-13" d="M17.92,255.17a4.52,4.52,0,0,0,3,.48,3.73,3.73,0,0,0,1.49-.77,4,4,0,0,0,1-1.37,4.07,4.07,0,0,0,.24-2.41,5.55,5.55,0,0,0-.95-2.27,15.7,15.7,0,0,0-4.86-4.43,19.73,19.73,0,0,0-6-2.6,9.89,9.89,0,0,0-3.86-.12,7.53,7.53,0,0,0-3.45,1.52A15.86,15.86,0,0,0,10.26,251a33.35,33.35,0,0,0,4.9,2.77C16.36,254.4,17.28,254.89,17.92,255.17Z"/></g><g id="Duplicate_Items_Folder_Symbol_16_copy_8_0_Layer0_0_MEMBER_2_MEMBER_0_MEMBER_0_FILL" data-name="Duplicate Items Folder Symbol 16 copy 8 0 Layer0 0 MEMBER 2 MEMBER 0 MEMBER 0 FILL"><path class="cls-8" d="M14.29,242.47a11.39,11.39,0,0,0-5.48-1.15,8.45,8.45,0,0,0-3.25.85l-1.19.75a1.13,1.13,0,0,0-.16.13.14.14,0,0,0,0,.19l.14.33A9.91,9.91,0,0,0,5,245.24a16.51,16.51,0,0,0,4.3,5.33,29.46,29.46,0,0,0,4.83,2.85l4.67,2.11-4.54-2.4a25.08,25.08,0,0,1-4.64-2.94A16.13,16.13,0,0,1,5.56,245a15.72,15.72,0,0,1-.7-1.61l-.05-.07.13-.08.18-.15.71-.42a7.65,7.65,0,0,1,3-.83,10.89,10.89,0,0,1,5.32.94,21.75,21.75,0,0,1,3.29,1.74l1.14.77-1.08-.84A21.55,21.55,0,0,0,14.29,242.47Z"/></g><g id="Duplicate_Items_Folder_Symbol_14_copy_9_1_Layer0_0_MEMBER_0_FILL" data-name="Duplicate Items Folder Symbol 14 copy 9 1 Layer0 0 MEMBER 0 FILL"><path class="cls-16" d="M49.48,332.05a51.74,51.74,0,0,0,7.64,10.75A21.14,21.14,0,0,0,68.52,349q7-6.78-.93-29.83a208.21,208.21,0,0,0-10.8-25.35q0-.14-1.65-4.26a43.74,43.74,0,0,0-2-4.61q-2.82-5.26-6.78-6.05a11.07,11.07,0,0,0-9,2.1,10.25,10.25,0,0,0-4.42,8,24.09,24.09,0,0,0,.93,7.23q.61,2.22,2.38,6.89A216.27,216.27,0,0,0,49.48,332.05Z"/></g><path id="Duplicate_Items_Folder_Symbol_14_copy_9_1_Layer0_0_MEMBER_1_1_STROKES" data-name="Duplicate Items Folder Symbol 14 copy 9 1 Layer0 0 MEMBER 1 1 STROKES" class="cls-17" d="M32.21,287.92a23.37,23.37,0,0,0,.93,7.22q.6,2.22,2.38,6.9c.47,1.29,1.31,3.42,2.5,6.36"/><g id="Duplicate_Items_Folder_Symbol_14_copy_9_1_Layer0_0_MEMBER_2_MEMBER_0_MEMBER_0_FILL" data-name="Duplicate Items Folder Symbol 14 copy 9 1 Layer0 0 MEMBER 2 MEMBER 0 MEMBER 0 FILL"><path class="cls-18" d="M48,329.31c-.8-1.59-1.53-3.09-2.18-4.48q-2.93-6.1-6.6-15l-3.42-8.36q-1.87-4.68-2.51-6.88a23.81,23.81,0,0,1-1-4.83l-.08-1.83-.06.46,0,1.37a22.06,22.06,0,0,0,.61,5,52.1,52.1,0,0,0,2.19,7.09q1.57,4.46,3.25,8.43a135.14,135.14,0,0,0,7.13,14.82q1.55,2.78,2.51,4.31l1,1.56Z"/></g><g id="Duplicate_Items_Folder_Symbol_14_copy_9_1_Layer0_1_FILL" data-name="Duplicate Items Folder Symbol 14 copy 9 1 Layer0 1 FILL"><path class="cls-19" d="M62.78,369.7q1.61-1.81,5.1-8.68t6.77-14.7q8.37-20.08,5.7-22.87-6.85-7.11-9.53-10.12a85.5,85.5,0,0,1-10.2-13.81l-2.77,1.26a66.54,66.54,0,0,0-6.58,3.71q-10,6.5-13.48,14.13Z"/></g><g id="Duplicate_Items_Folder_Symbol_15_copy_8_0_Layer0_0_MEMBER_0_FILL" data-name="Duplicate Items Folder Symbol 15 copy 8 0 Layer0 0 MEMBER 0 FILL"><path class="cls-16" d="M54.19,291.91a11.31,11.31,0,0,0-.52-5.16s-.68-1.43-2-4.19q-2.57-5.15-5.69-10.42a149.18,149.18,0,0,0-21.85-28.82l-.39,0a11.46,11.46,0,0,0-2.63,3.47c-.61-.74-1.08-.77-1.41-.08a1.76,1.76,0,0,0,0,1.82c-.95-.19-1.61-.3-2-.34a15.67,15.67,0,0,0-2.85.06c-.14,0,.08.57.64,1.72a6.63,6.63,0,0,0-2.48.14l-.21.38q2.85,5.76,6.83,14.25,8,17,13.71,30.77a9.44,9.44,0,0,0,3.23,3.95q4.57,3.39,11.17.54Q53.57,297.56,54.19,291.91Z"/></g><path id="Duplicate_Items_Folder_Symbol_15_copy_8_0_Layer0_0_MEMBER_1_1_STROKES" data-name="Duplicate Items Folder Symbol 15 copy 8 0 Layer0 0 MEMBER 1 1 STROKES" class="cls-17" d="M12.87,250.53l5.21,11.08q9.53,20.55,15.81,35.75"/><path class="cls-19" d="M146.11,383.36c-2.15,4.7-4.61,9.66-4.37,14.82.53,11.76,1.17,25.75-1.49,38.37-24.09,14.73-68.16,12.2-84.46-2.32A255,255,0,0,1,56,400.18,172.63,172.63,0,0,1,59.26,378c1.54-7.34,2.42-19.73,2.42-19.73-2-7.68-2.33-16.73,3-22.64a27.6,27.6,0,0,1,5-4.1c2.61-1.82,8.59-5.21,11.69-7.3,14,9.26,34.94,7.91,52.89-3.25-1,.63,10.77,9.33,11.57,10,4.7,4,8.63,11.47,9.11,17.34C155.84,360.61,151.09,372.42,146.11,383.36Z"/><path class="cls-20" d="M81.29,324.25l1.85,1.19a18.14,18.14,0,0,0,2.25,1.26l1.44.74,1.68.67a41.71,41.71,0,0,0,19.58,2.49,50.42,50.42,0,0,0,10.72-2.2,59.11,59.11,0,0,0,8.28-3.3c2.26-1.17,4.06-2.15,5.24-2.93l1.85-1.17-1.93,1c-1.23.71-3.08,1.57-5.37,2.61a68,68,0,0,1-8.31,3,56.34,56.34,0,0,1-10.57,2,45.64,45.64,0,0,1-19.32-2L87,327.06l-1.46-.64a19.38,19.38,0,0,1-2.31-1.12Z"/><path class="cls-20" d="M76.53,327.12l.46.52a19.27,19.27,0,0,0,1.37,1.44,28.62,28.62,0,0,0,5.82,4.46,37.77,37.77,0,0,0,10.09,4.1,41.42,41.42,0,0,0,6.37,1.12,44,44,0,0,0,6.93.21,48.24,48.24,0,0,0,13.13-2.43,43.65,43.65,0,0,0,9.84-4.68,41.21,41.21,0,0,0,5.81-4.47c.64-.58,1.09-1.09,1.42-1.4l.48-.49-.51.46c-.35.29-.83.77-1.5,1.31a44.44,44.44,0,0,1-6,4.17,47.14,47.14,0,0,1-9.84,4.3A51.32,51.32,0,0,1,107.52,338a47.68,47.68,0,0,1-6.79-.15,44.51,44.51,0,0,1-6.26-1,39.53,39.53,0,0,1-10-3.72,30.65,30.65,0,0,1-6-4.14c-.66-.55-1.11-1.05-1.44-1.36Z"/><path class="cls-20" d="M154.62,354.71l0,1.75a32.87,32.87,0,0,1-.64,5,51,51,0,0,1-2.21,7.63c-1.06,2.91-2.48,6.15-4,9.74-.79,1.79-1.56,3.7-2.37,5.67s-1.77,4-2.56,6.15a20.12,20.12,0,0,0-1.42,7.08q.14,3.67.27,7.56c.15,5.16.23,10.58,0,16.19-.15,2.8-.38,5.64-.74,8.51-.18,1.43-.41,2.87-.65,4.31-.13.65-.26,1.29-.38,1.94l-1.74,1a62.42,62.42,0,0,1-8,3.62,81.62,81.62,0,0,1-8.15,2.48,95.14,95.14,0,0,1-16,2.44,101.58,101.58,0,0,1-27.25-1.65,61.18,61.18,0,0,1-17.38-6.05,36.06,36.06,0,0,1-4.22-2.74l-1.37-1.1,1.35,1.14a36.27,36.27,0,0,0,4.16,2.84,60.75,60.75,0,0,0,17.36,6.4,99.84,99.84,0,0,0,27.41,2,94.93,94.93,0,0,0,16.11-2.35,81.2,81.2,0,0,0,8.27-2.49,61.08,61.08,0,0,0,8.11-3.67l2.14-1.23c.16-.8.31-1.6.47-2.4.25-1.46.48-2.92.66-4.37.36-2.9.58-5.77.71-8.59.25-5.64.13-11.09-.07-16.26q-.18-3.87-.34-7.54a19.37,19.37,0,0,1,1.29-6.84c.75-2.15,1.67-4.17,2.47-6.16s1.52-3.89,2.28-5.7c1.49-3.61,2.86-6.88,3.87-9.83a51,51,0,0,0,2.07-7.7,32.67,32.67,0,0,0,.52-5Z"/><path class="cls-20" d="M140.25,436.55l-.79.43c-.53.27-1.26.74-2.28,1.2a61.9,61.9,0,0,1-8.79,3.52,97.89,97.89,0,0,1-30.8,4.22,106.72,106.72,0,0,1-17.09-1.61A73.91,73.91,0,0,1,67,440.59a44.61,44.61,0,0,1-8.42-4.28l-1.23-.84-.86-.68-.71-.56.69.59.83.72c.33.27.74.56,1.19.89a42.18,42.18,0,0,0,8.32,4.62,70.27,70.27,0,0,0,13.54,4.09,96.2,96.2,0,0,0,17.22,1.77,90,90,0,0,0,31-4.74,57.07,57.07,0,0,0,8.71-3.85c1-.51,1.72-1,2.23-1.3Z"/><path class="cls-20" d="M140.37,428.87l-.79.45c-.52.29-1.26.76-2.27,1.26a61.49,61.49,0,0,1-8.73,3.75A90.28,90.28,0,0,1,97.74,439a93.79,93.79,0,0,1-17.12-1.86A72.56,72.56,0,0,1,67.17,433a51.16,51.16,0,0,1-8.41-4.43c-1-.59-1.65-1.13-2.13-1.47l-.73-.54.7.57c.47.36,1.14.94,2.07,1.57a48.31,48.31,0,0,0,8.3,4.75,68.25,68.25,0,0,0,13.47,4.47,86.1,86.1,0,0,0,17.28,2,89.48,89.48,0,0,0,17.34-1.37,76.38,76.38,0,0,0,13.69-3.77,57.44,57.44,0,0,0,8.64-4.09c1-.53,1.71-1,2.21-1.35Z"/><path class="cls-20" d="M55.78,434.23s-.05-1.06-.16-3-.18-4.73-.18-8.18c0-6.9.38-16.45,1.4-26.92.56-5.22,1.33-10.18,2.16-14.66.4-2.24.86-4.37,1.15-6.4s.52-3.9.7-5.62c.35-3.45.54-6.24.66-8.17s.17-3,.17-3-.12,1.07-.32,3-.53,4.7-1,8.12c-.24,1.71-.51,3.58-.87,5.57s-.86,4.1-1.31,6.35c-.92,4.48-1.76,9.46-2.32,14.72a208.65,208.65,0,0,0-.91,27c.13,3.46.35,6.25.53,8.18S55.78,434.23,55.78,434.23Z"/><g class="cls-21"><path class="cls-22" d="M134.18,321a149.21,149.21,0,0,1-28.69,6.59c-4.2.53-7.23,1.25-11.55.44-1.14-.22-12-4.14-11.92-4.22,4.58-4.72,4.93-13.31,5.43-19.44,0,0,3.77-8.25,16.91-9.64s24.15,9,24.15,9C127.89,310.51,130.35,316.08,134.18,321Z"/></g><path class="cls-23" d="M154,462.78a10.74,10.74,0,0,1-2.13-.54"/><path class="cls-23" d="M139.26,460.05a4.83,4.83,0,0,1-.85.12"/><path class="cls-24" d="M153.44,141.26c-.85-26.9,9.3-61.79,20.93-86.06,0,0,.89-11-7.54-4.86s-30.75,44-32.86,86.51c0,0,8.88,9.51,19.47,4.41"/><path class="cls-24" d="M206.26,158.69c6.59-23.6,24.07-52.12,36.88-66.39,1.48-1.64,3-3.34,3.58-5.48s-.32-4.81-2.42-5.48c-1.54-.49-3.19.22-4.62,1-7.82,4.18-14.32,10.43-20.2,17.06-6.92,7.8-17.85,19.32-31.65,52.53"/><path class="cls-24" d="M212.81,112.05l10.81-7.3s-5.11-17.26,1.73-40.63c1.15-3.94-4.48-6.09-6.18-2.35l-.21.46C212,77.76,209.44,90.5,212.81,112.05Z"/><path class="cls-24" d="M145.44,117.27l1.22-13s17.59-3.8,34.81-21c2.91-2.91,7.5,1,5,4.29l-.3.4C175.9,101.49,166,109.88,145.44,117.27Z"/><path class="cls-24" d="M161.64,73.53s-13.28-9.9-13-29.94a6.17,6.17,0,0,0-2.26-5.05c-1.62-1.23-4.71.39-5.84,6.41a71.42,71.42,0,0,0,11.37,41.56Z"/><path class="cls-2" d="M131.59,102.27c-3-14.06-9-27.34-15.64-40S102,37.45,96,24.62a142.9,142.9,0,0,1-8.08-21A6.07,6.07,0,0,0,86.53.81c-1.34-1.28-3.65-.93-5.1.27A11.42,11.42,0,0,0,78.56,5.8C75.77,12.62,73,19.47,70.19,26.3c-3,7.35-6,14.88-8.42,22.52-.11.33-.22.64-.3.93-3.3,10.75-5.33,21.75-4.23,32.9,1.9,19.54,20.18,47.41,38.26,68.16,0,0,10.6-5.94,14.55-7.19a5.74,5.74,0,0,1,1-.18c5.13-.29,18.69,4.24,18.69,4.24C132.63,132.91,134.72,117.11,131.59,102.27Z"/><path class="cls-25" d="M111.09,143.44a5.74,5.74,0,0,0-1,.18c-4,1.25-14.55,7.19-14.55,7.19-18.08-20.75-36.36-48.62-38.26-68.16-1.1-11.15.93-22.14,4.23-32.9.08-.29.19-.6.3-.93,3.72-11,19.89-34.46,32.38-25.7,4.68,20.45,2.71,41.94,2.95,63C97.33,106.08,100.1,127.2,111.09,143.44Z"/><path class="cls-26" d="M111.09,143.44a5.74,5.74,0,0,0-1,.18c-4,1.25-14.55,7.19-14.55,7.19-4.71-5.41-9.44-11.31-13.89-17.41a57.07,57.07,0,0,0-9.51-17.59A106.77,106.77,0,0,0,86.68,128,30.54,30.54,0,0,1,84,113.8c2.07,4.27,4.16,8.56,6.24,12.83A206.35,206.35,0,0,1,86.64,73q3.94,21.12,7.88,42.28.3-9.44.58-18.83a82.53,82.53,0,0,0,4.09,15C101.11,123,104.72,134,111.09,143.44Z"/><path class="cls-27" d="M96,24.62c6,12.83,13.37,25.1,20,37.65s12.67,25.94,15.64,40c3.13,14.84,1,30.64-1.81,45.41,0,0-13.56-4.53-18.69-4.24-11-16.24-13.76-37.36-14-57.29-.24-21.09,1.73-42.58-2.95-63A14.6,14.6,0,0,1,96,24.62Z"/><path class="cls-28" d="M87.89,3.58a142.9,142.9,0,0,0,8.08,21,14.6,14.6,0,0,0-1.82-1.5c-12.49-8.76-28.66,14.74-32.38,25.7,2.38-7.64,5.43-15.16,8.42-22.52C73,19.47,75.77,12.62,78.56,5.8a11.42,11.42,0,0,1,2.87-4.72c1.45-1.2,3.76-1.55,5.1-.27A6.07,6.07,0,0,1,87.89,3.58Z"/><path class="cls-29" d="M96,24.62s.7,1.7,2.08,4.74,3.47,7.37,6.19,12.67l9.7,18.5a247.85,247.85,0,0,1,10.74,23.08c1.66,4.18,3.08,8.34,4.25,12.42a87.81,87.81,0,0,1,2.63,11.89,99.85,99.85,0,0,1,.5,20.68c-.41,5.91-1.07,10.68-1.53,14l-.76,5.11s.43-1.79,1.11-5.05,1.61-8,2.31-13.93a92.78,92.78,0,0,0,.26-21A82.8,82.8,0,0,0,131,95.44a119.73,119.73,0,0,0-4.23-12.66,198.48,198.48,0,0,0-11.16-23.15c-3.82-6.89-7.43-13-10.38-18.14s-5.31-9.36-6.87-12.29Z"/><path class="cls-4" d="M93,18.56l.31,1.34c.19.89.55,2.18.85,3.87a120.21,120.21,0,0,1,1.93,14.39c.5,6.11.63,13.41.53,21.53s-.43,17-.34,26.45a153.8,153.8,0,0,0,2.38,26.43,87.86,87.86,0,0,0,6.4,20.71,61.82,61.82,0,0,0,7.55,12.48,18.66,18.66,0,0,0,1.45,1.78l1.1,1.26.92,1-.86-1.08-1-1.31a20.28,20.28,0,0,1-1.36-1.83,64.75,64.75,0,0,1-7-12.67A92.39,92.39,0,0,1,100,112.32,173.8,173.8,0,0,1,98,86.12c-.08-9.35.14-18.29.08-26.43a203.56,203.56,0,0,0-1.12-21.61A110.89,110.89,0,0,0,94.4,23.71c-.38-1.68-.81-2.95-1-3.82Z"/><path class="cls-2" d="M179.34,125.86a34.55,34.55,0,0,1,27.34,4.62l-.14.32a25,25,0,0,1,5.17,2.89A128.66,128.66,0,0,0,194.18,139l.25.63c20.64,8,54,42.64,48.51,84.08-1.1,8.29-4.33,16.83-7.53,24.51a128.61,128.61,0,0,1-5.69,11.91c-1.59,2.93-4.74,6.79-4.44,10.34s2.23,7.06,2.93,10.54a18.94,18.94,0,0,1-3.7,15.44l-.37,0a9.55,9.55,0,0,0-4.24-9.31C181,314,46.28,278.31,42,235.88a12.15,12.15,0,0,0-8.61,4.66c1.4-5.09,5.89-8.59,9.76-12.17,9.67-9,8.77-24.27,8.8-36.3A112.17,112.17,0,0,1,53,175.46a65.52,65.52,0,0,1,8-22c.16-.24.32-.49.5-.74a52.36,52.36,0,0,1,13.28-13.19c1.62-1,3.3-2,5-2.84a110.55,110.55,0,0,1,53.89-12.36c.69,0,1.39,0,2.08.08a42.56,42.56,0,0,1,29.36-18.84c-4.39,3.25-8.83,6.56-12.4,10.7a26.3,26.3,0,0,0-6.25,12.27c4.69-7,13-10.88,21.36-12.08,8.06-1.16,16.25-.1,24.31,1a20.06,20.06,0,0,0-12.84,8.09Z"/><path class="cls-3" d="M119.29,140.42a5.81,5.81,0,0,0,.71,4.74,4.76,4.76,0,0,0,3.56,1.8,5.8,5.8,0,0,0,1.25-.07,8.59,8.59,0,0,0,4.6-2.61C137.13,136.44,121,132.64,119.29,140.42Z"/><path class="cls-3" d="M169.42,145.28c-4.2-3.6-12-2.62-13.61,3.11a11.09,11.09,0,0,0-.31,3.85,5.43,5.43,0,0,0,1.87,4.2,4.91,4.91,0,0,0,2.24.76l.4.05C165.57,157.76,175.79,150.75,169.42,145.28Z"/><path class="cls-3" d="M132.7,157.32a2.58,2.58,0,0,0,0,2.09,2.38,2.38,0,0,0,.82.82c2.5,1.58,8.33-.56,7.1-4.12C139.24,152.18,133.79,154.45,132.7,157.32Z"/><path class="cls-3" d="M115.84,156.92a4.18,4.18,0,0,0-1.62-.45c-.13,0-.15.18,0,.22a4.74,4.74,0,0,1,.51.24,3.57,3.57,0,0,0-.73,0,2.62,2.62,0,0,0-2.47.17,5.78,5.78,0,0,0-1.58,1.42,10.42,10.42,0,0,0-1.59,2.55h0a5.56,5.56,0,0,0-1.07,4.56,3.9,3.9,0,0,0,3.49,3,7.21,7.21,0,0,0,4.54-1.37,8,8,0,0,0,2.88-3.31A5.44,5.44,0,0,0,115.84,156.92Z"/><path class="cls-3" d="M191.71,157.18a1.64,1.64,0,0,0-.18-.48,1.52,1.52,0,0,0-.33-.39,3,3,0,0,0-.4-.31,3.31,3.31,0,0,0-.47-.22,2.08,2.08,0,0,0-.74-.15,2,2,0,0,0-.35,0l-.25,0a1.06,1.06,0,0,0-.46.26,1.14,1.14,0,0,0-.29.5.6.6,0,0,0-.06.19,1.91,1.91,0,0,0-.05.48,1.86,1.86,0,0,0,.22.86,1.08,1.08,0,0,0,.26.31,1.5,1.5,0,0,0,.57.34,1.31,1.31,0,0,0,.95-.09.6.6,0,0,0,.13-.09,1,1,0,0,0,.24.07.48.48,0,0,0,.29,0,.75.75,0,0,0,.4-.12,1.35,1.35,0,0,0,.4-.39A1.12,1.12,0,0,0,191.71,157.18Zm-1.06-.11s0,0-.05-.06,0,0,0-.06Z"/><path class="cls-3" d="M170.45,167.92a1.31,1.31,0,0,0,0-.28,1,1,0,0,0-.14-.47,1.24,1.24,0,0,0-.78-.6l-.87-.19-.32,0a.87.87,0,0,0-.45.1.46.46,0,0,0-.26.15.85.85,0,0,0-.32.33,2,2,0,0,0-.28.85,1.27,1.27,0,0,0-.14.6s0,0,0,0,0,.25,0,.37,0,0,0,0l.14.34a1.36,1.36,0,0,0,.27.36l.16.13.16.13.06,0a1.92,1.92,0,0,0,.94.23l.2,0a1.81,1.81,0,0,0,.4,0,1.29,1.29,0,0,0,.7-.37,1.72,1.72,0,0,0,.51-1.15A1.4,1.4,0,0,0,170.45,167.92Zm-1.34.16h0Z"/><path class="cls-3" d="M130.88,173.79a2.42,2.42,0,0,0-2.45-.08,4.88,4.88,0,0,0-1.48,1.52l-.11.19a4.07,4.07,0,0,0-.72.58,3.56,3.56,0,0,0-.72,1.17,2.05,2.05,0,0,0-.76,1.53,2,2,0,0,0,.24,1,1.86,1.86,0,0,0,.56.62,1.67,1.67,0,0,0,1.87.87,5.4,5.4,0,0,0,.77-.36,2.36,2.36,0,0,0,.54-.12l.07,0a2.61,2.61,0,0,0,1.8-.84,5.39,5.39,0,0,0,1.07-1.61c.06-.08.12-.15.17-.23a3.36,3.36,0,0,0,.41-2.42A3,3,0,0,0,130.88,173.79Z"/><path class="cls-3" d="M107.05,137.68a1.32,1.32,0,0,0,0-.71,2,2,0,0,0-.67-1.14,2.51,2.51,0,0,0-.85-.5,2.58,2.58,0,0,0-.67-.14,2.41,2.41,0,0,0-1.27.24,1.9,1.9,0,0,0-.89.88.81.81,0,0,0-.14.42.79.79,0,0,0,0,.43c0,.09.07.17.1.26a1.2,1.2,0,0,0,.27.28,1.52,1.52,0,0,0,.64.84l.66.36a2.36,2.36,0,0,0,.67.25l.38.08a1.35,1.35,0,0,0,.84-.06,1.2,1.2,0,0,0,.64-.53A1.48,1.48,0,0,0,107,138s0-.08,0-.12A1.4,1.4,0,0,0,107.05,137.68Z"/><path class="cls-29" d="M194.43,139.64l.95.45c.63.28,1.53.75,2.68,1.37a67.77,67.77,0,0,1,9.12,6.18,102.73,102.73,0,0,1,23.61,27.19,90.59,90.59,0,0,1,8.35,18,77.93,77.93,0,0,1,3.59,15.84,81.35,81.35,0,0,1,.45,11c-.15,2.62-.24,4.06-.24,4.06l.59-4a69.9,69.9,0,0,0,.32-11.13A70.89,70.89,0,0,0,241,192.24a80.84,80.84,0,0,0-8.23-18.57,89.76,89.76,0,0,0-24.88-26.94,60.24,60.24,0,0,0-9.63-5.58c-1.2-.53-2.14-.92-2.8-1.15Z"/><path class="cls-29" d="M179.34,125.86l2.1-.27a39.42,39.42,0,0,1,5.71-.17,37.35,37.35,0,0,1,17.58,5.16l1.32.83-.41-1.37-.13.33-.43,1,1,.42c.53.21,1,.44,1.55.68l.72.36.34.18.17.09h0a1.19,1.19,0,0,1,.28.11l-.18.1-.07,0-.39.11-.9.26c-1.18.36-2.29.71-3.33,1.07-2.08.7-3.88,1.39-5.36,2-3,1.22-4.65,2.08-4.79,2.17h0l.26.63-.24-.64h0c.17,0,2-.54,5.06-1.36,1.54-.41,3.38-.89,5.5-1.4l3.37-.77,5.95-1.31c-.39-.33-1-.75-1.58-1.2a25,25,0,0,0-2.2-1.5l-.87-.51-.77-.41c-.53-.28-1.09-.54-1.67-.78l.6,1.46.14-.32.37-.87-.78-.49-1.4-.9a32.83,32.83,0,0,0-5.05-2.43,33.5,33.5,0,0,0-5-1.41,32.65,32.65,0,0,0-14.46.43C180.05,125.61,179.34,125.86,179.34,125.86Z"/><path class="cls-29" d="M146.45,128.55l.43-.51c.28-.34.69-.83,1.27-1.42a27.1,27.1,0,0,1,5.42-4.29,34.89,34.89,0,0,1,9.39-3.84,49.8,49.8,0,0,1,12.35-1.38c6.49,0,12.57.81,16.72,1.15l0-1.56a19.91,19.91,0,0,0-10.1,5.5,18.51,18.51,0,0,0-2,2.41c-.4.59-.6.93-.61,1h0l.05.29-.05-.29h0l.75-.85a23,23,0,0,1,2.25-2.1,20.47,20.47,0,0,1,10-4.36l4.9-.7-4.93-.86a97.34,97.34,0,0,0-16.93-1.85,42.73,42.73,0,0,0-12.87,1.81,31.91,31.91,0,0,0-9.5,4.73,24.76,24.76,0,0,0-5.06,5,17.38,17.38,0,0,0-1.08,1.6Z"/><path class="cls-29" d="M135.75,124.43s.57-.74,1.63-2a46.85,46.85,0,0,1,13.44-10.89,49.55,49.55,0,0,1,5.54-2.5c1-.36,2-.71,3-1l.79-.22.21-.06h0l0,0s0,0,0,0,0,0-.1.11l-1.06.87c-1.55,1.28-3,2.59-4.29,3.89a33.78,33.78,0,0,0-5.88,7.72,23.52,23.52,0,0,0-2.31,6,17,17,0,0,0-.31,1.69l-.07.59s0-.2.15-.57.27-.93.53-1.62a26,26,0,0,1,2.88-5.54,37.17,37.17,0,0,1,6.23-7c1.33-1.19,2.79-2.37,4.36-3.57l1.31-1,2.37-1.77,5.22-3.82c-1.11.18-3.36.53-5.48.93l-3.06.6a7.79,7.79,0,0,0-.8.2l-.6.17-.82.24c-1.1.34-2.16.73-3.18,1.14a42.56,42.56,0,0,0-5.69,2.86,41,41,0,0,0-8.33,6.72,39.27,39.27,0,0,0-4.45,5.61C136.2,123.62,135.75,124.43,135.75,124.43Z"/><path class="cls-29" d="M74.78,139.54,77,138.46l2.63-1.28c1-.48,2.24-1,3.56-1.56,2.65-1.09,5.82-2.35,9.41-3.56s7.56-2.38,11.79-3.42,8.3-1.85,12-2.46,7.12-1,10-1.23l3.87-.28,2.93-.15,2.51-.09s-.89-.11-2.5-.26l-2.94-.22c-1.15,0-2.46-.1-3.91-.12a96.57,96.57,0,0,0-10.19.46,92.21,92.21,0,0,0-12.32,2.16A91.18,91.18,0,0,0,92,130.27a98.37,98.37,0,0,0-9.24,4.33c-1.27.71-2.42,1.34-3.4,1.94l-2.48,1.62Z"/><path class="cls-30" d="M224.51,296.46l-.37,0c.92.08-2.23-8.8-4.57-9.68,2.51,4.36,1.13,8.39-.62,12.77a7.72,7.72,0,0,0-3.92-9.21c1.27.78,1.62,2.46,1.65,3.95a16.66,16.66,0,0,1-3.42,10.37,6.44,6.44,0,0,0-.41-4.87,1.68,1.68,0,0,0-.8-.86,1.73,1.73,0,0,0-1.52.36c-34.57,24.89-84,28.47-123.59,14.6A73.42,73.42,0,0,1,54.7,291.65c-8.29-9.87-15.46-22-18.73-34.57a27.22,27.22,0,0,1-.79-3.9c-.71-6.47,1.47-13.55,6.79-17.3a12.13,12.13,0,0,0-8.61,4.66c1.4-5.09,5.89-8.59,9.76-12.17,9.67-9,8.77-24.27,8.8-36.3A112.17,112.17,0,0,1,53,175.46a65.34,65.34,0,0,1,6.6-19.41c.47-.23,1-.48,1.43-.68a16.31,16.31,0,0,1,12-.68,17.82,17.82,0,0,1,8.55,7.25c3.25,4.89,4.31,9.69,5.39,15.31a88.44,88.44,0,0,1,.72,27.22c-1.51,12.16-5.25,23.95-9.45,35.47a21.2,21.2,0,0,0,21.19,9.79l5.22-.79c9.67-13.48,13-22.19,19.74-32.84,6.39-10.1,17.44-25.21,29.72-28.5,11.65-3.13,26.71,2.82,34.56,11.32s11.7,20.19,12.59,31.78c.91,12.1-1.25,23.91-3.46,35.72A28.68,28.68,0,0,1,219,270.36a21.15,21.15,0,0,0-6.39-.59c4.15,1.28,8.24,3.15,11.3,6.23C229.63,281.74,229.44,290.29,224.51,296.46Z"/><path class="cls-31" d="M88.32,249.22l-.79.71c-.5.46-1.22,1.12-2,2a27.73,27.73,0,0,0-5.23,8A31.77,31.77,0,0,0,78,269.24c-.13,1.21-.13,2.2-.14,2.88v1.05s.1-.36.27-1,.38-1.61.72-2.76a69.89,69.89,0,0,1,3-8.77,52.72,52.72,0,0,1,4.33-8.15Z"/><path class="cls-2" d="M135.75,124.43c-.69-.05-1.39-.07-2.08-.08C134.36,124.36,135.06,124.38,135.75,124.43Z"/><path class="cls-2" d="M64.77,148a38.42,38.42,0,0,1,10-8.45A52.36,52.36,0,0,0,61.5,152.74c-.18.25-.34.5-.5.74A44.1,44.1,0,0,1,64.77,148Z"/><path class="cls-32" d="M98.57,245.3a9.69,9.69,0,0,1,6.6,3.81c1.17,1.66,1.11,4.42.42,6.22-3.59-1-7.75-.77-11.45-.51a47.22,47.22,0,0,0-6,.82c-.69.14-5.2,1.76-5.55,1.48a33.71,33.71,0,0,1-6.49-7,12.68,12.68,0,0,1-2.19-4.6A5.69,5.69,0,0,1,75,240.69c2-2.28,4.19-.84,6.4,0,2.69,1,5.19,2.53,8,3.31C92.33,244.86,95.51,244.75,98.57,245.3Z"/><path class="cls-33" d="M105.72,254.93a2.21,2.21,0,0,1-.14.41c-3.58-1-7.74-.78-11.44-.52a45.15,45.15,0,0,0-6,.83c-.7.14-5.22,1.75-5.57,1.47a34.19,34.19,0,0,1-6.49-7,12.94,12.94,0,0,1-2.18-4.61,6.32,6.32,0,0,1,.35-3.68,9,9,0,0,0,4.31,5.47c4.16,2.52,9.25,2.79,14.1,3.26C97.29,251,102.26,251.85,105.72,254.93Z"/><path class="cls-34" d="M77.07,242.07s-.46,1.23,0,1.85,1.8.43,1.8.43.48-1.2,0-1.85S77.07,242.07,77.07,242.07Z"/><path d="M191.94,197.45a33.16,33.16,0,0,0-3.9-5.26l-.16-.39a22,22,0,0,0-3.22-2.89,29.74,29.74,0,0,0-16.17-7.06c-5.38-.51-11.49,1-14.35,5.55a1.29,1.29,0,0,0-.26.72c0,.73,1,.94,1.71,1,7.34.32,14.19,3.5,20.72,7,1.47,1,2.92,2,4.37,3.06,4.3,3,8.64,6.12,12.07,10.11a64.83,64.83,0,0,1,6.47,9.63l.6,0A61.78,61.78,0,0,0,191.94,197.45Z"/><path class="cls-8" d="M87.6,157.46a13,13,0,0,0-.95,1.13,15.1,15.1,0,0,0-1.74,2.78,14.61,14.61,0,0,0-1,3.11,14.21,14.21,0,0,0-.27,1.45,6.81,6.81,0,0,0,1.23-.86A8,8,0,0,0,87.72,159,7.14,7.14,0,0,0,87.6,157.46Z"/><path d="M77.19,148.51a21,21,0,0,0-8.17.85,19.3,19.3,0,0,0-6.27,2.86,12.68,12.68,0,0,0-4.94,8.41l1-.54c7.45-3.19,17.2-4.3,22.71,2.93a33.68,33.68,0,0,1,4.15,8.26,45.89,45.89,0,0,0,1.86-9,15.4,15.4,0,0,0-1.74-8.86C83.83,150.11,80.83,149,77.19,148.51Z"/><ellipse class="cls-19" cx="153.54" cy="241.33" rx="30.08" ry="28.22" transform="translate(-127.15 296.39) rotate(-68.63)"/><ellipse class="cls-35" cx="146.25" cy="237.54" rx="21.83" ry="20.47" transform="translate(-128.25 287.2) rotate(-68.63)"/><ellipse cx="146.25" cy="237.54" rx="15.22" ry="14.28" transform="translate(-128.25 287.2) rotate(-68.63)"/><ellipse class="cls-19" cx="160.23" cy="240.07" rx="4.27" ry="4" transform="translate(-121.71 301.83) rotate(-68.63)"/><ellipse class="cls-36" cx="153.54" cy="241.33" rx="30.08" ry="28.22" transform="translate(-127.15 296.39) rotate(-68.63)"/><path class="cls-8" d="M127.74,229.93l.51-.79c.36-.51.78-1.3,1.47-2.23a34.18,34.18,0,0,1,6.57-6.88c.39-.3.78-.63,1.19-.93l1.32-.86a30.86,30.86,0,0,1,2.85-1.64,29.57,29.57,0,0,1,6.69-2.38A26.06,26.06,0,0,1,176,225a28.82,28.82,0,0,1,4.28,9.43c.13.52.26,1,.39,1.52s.16,1,.24,1.49A34.62,34.62,0,0,1,181,247c-.12,1.15-.35,2-.44,2.63l-.16.94.44-.84c.26-.56.74-1.35,1.18-2.46a29.41,29.41,0,0,0,2.2-10c0-.55.06-1.12.06-1.69s-.06-1.17-.1-1.78a28.74,28.74,0,0,0-.49-3.76,29.78,29.78,0,0,0-2.86-8,27.74,27.74,0,0,0-5.8-7.56,27.39,27.39,0,0,0-18.92-7.4,27.42,27.42,0,0,0-9.39,1.62,29,29,0,0,0-7.52,3.92,28.56,28.56,0,0,0-2.91,2.43L135,216.32c-.39.42-.75.87-1.11,1.28a29.41,29.41,0,0,0-5.13,8.82c-.44,1.1-.62,2-.81,2.61Z"/><path class="cls-8" d="M176.6,222.06a7.41,7.41,0,0,1,.75,1.17,15.76,15.76,0,0,1,1.26,3.49,68.47,68.47,0,0,1,2.12,12.07c.1,1.18.18,2.34.21,3.47l0,.83c0,.31,0,.61,0,.91v2s.06,0,.08,0h1.66l.61,0,.8-.08c.53-.08,1-.18,1.51-.29a15.23,15.23,0,0,0,2.58-.89,14.36,14.36,0,0,0,3.31-2,11.05,11.05,0,0,0,1-1s-.43.26-1.22.66a18.21,18.21,0,0,1-3.49,1.27,17.06,17.06,0,0,1-2.47.44c-.45,0-.91.07-1.39.08h-.72c-.16,0-.15,0-.17,0l0,0c-.1,0,0-.15,0-.2v-.34l0-.43c0-.29,0-.58,0-.87,0-1.18,0-2.4-.13-3.65a36.38,36.38,0,0,0-3.31-12.26,13.5,13.5,0,0,0-2-3.31A6,6,0,0,0,176.6,222.06Z"/><path class="cls-8" d="M182.32,241.84l-.08.69a12.47,12.47,0,0,1-.4,1.77,10.58,10.58,0,0,1-.42,1.13c-.19.45-.3.57-.78,1.63a4,4,0,0,0,.28.65,2.16,2.16,0,0,0,.17.34c.06.1.08.16.13.23a5.77,5.77,0,0,0,.59.81,6.3,6.3,0,0,0,1.6,1.29,7.43,7.43,0,0,0,3.66,1,11.1,11.1,0,0,0,2.9-.41,14.66,14.66,0,0,0,1.81-.64l.64-.28-.7-.06-1.86-.15a12.77,12.77,0,0,1-5.33-1.37,6.49,6.49,0,0,1-1.16-.83,5.07,5.07,0,0,1-.46-.47l-.1-.12h0l-.06,0c-.1.11.15-.7.18-1.14a8.36,8.36,0,0,0,.05-1.39,7.22,7.22,0,0,0-.37-1.93A4.66,4.66,0,0,0,182.32,241.84Z"/><path class="cls-8" d="M182.15,245.39l-2.8,5.55.33.5.19.3.15.24.46.74a6.75,6.75,0,0,0,2.24,2.24,6.5,6.5,0,0,0,2.4.85,5.72,5.72,0,0,0,1.68,0,3.68,3.68,0,0,0,.58-.13l-.54-.22a10.12,10.12,0,0,1-1.34-.71,8.84,8.84,0,0,1-1.63-1.3,10.42,10.42,0,0,1-1.5-1.94c-.16-.25-.32-.51-.49-.74l-.06-.08h-.06s0,0,0-.06l.17-.59c.1-.39.17-.76.23-1.12a12.26,12.26,0,0,0,.15-1.87A9.24,9.24,0,0,0,182.15,245.39Z"/><ellipse class="cls-19" cx="65.98" cy="208.62" rx="30.11" ry="15.74" transform="translate(-151.62 231.57) rotate(-78.47)"/><ellipse class="cls-35" cx="62.26" cy="208.95" rx="21.79" ry="11.4" transform="translate(-155.54 218.81) rotate(-76)"/><ellipse cx="62.54" cy="209.21" rx="15.2" ry="7.95" transform="translate(-155.58 219.28) rotate(-76)"/><ellipse class="cls-19" cx="70.6" cy="205.68" rx="4.26" ry="2.23" transform="translate(-146.06 224.42) rotate(-76)"/><ellipse class="cls-36" cx="65.98" cy="208.62" rx="30.11" ry="15.74" transform="translate(-151.62 231.57) rotate(-78.47)"/><path class="cls-37" d="M82,208.64c.54.1,2.12-3.92,2.16-10.89a31.32,31.32,0,0,0-2.28-12.17,16.85,16.85,0,0,0-4.59-6.43,9,9,0,0,0-1.87-1.25l-1-.53L73.19,177a11,11,0,0,0-4.75-.26,21.24,21.24,0,0,0-2.25.59c-.68.3-1.38.59-2,.92s-1.22.75-1.8,1.14l-1.6,1.28A30.76,30.76,0,0,0,56,186.41a42.29,42.29,0,0,0-5,11.17c-1.87,6.66-1.55,11-1,11,.73.12,1.61-4,4.16-9.92a52.26,52.26,0,0,1,5.39-9.8,29.84,29.84,0,0,1,4.26-4.68,11.47,11.47,0,0,1,5.4-2.77,6.45,6.45,0,0,1,5.11,1.35,13.25,13.25,0,0,1,3.52,4.62A34,34,0,0,1,80.75,198C81.56,204.37,81.2,208.54,82,208.64Z"/><path class="cls-8" d="M55.34,192.54s-.5.63-1.25,1.75c-.37.55-.81,1.23-1.27,2-.23.39-.46.81-.7,1.25l-.36.69s0,0-.07,0,0,0,0,0,0,0-.06,0l-.33-.14a8.86,8.86,0,0,1-3.84-4c-.38-.7-.66-1.31-.85-1.73l-.31-.66s0,.26,0,.73a11.67,11.67,0,0,0,.13,2,8.4,8.4,0,0,0,1,2.94,6.71,6.71,0,0,0,3,2.75,5.55,5.55,0,0,0,.52.2c.18.07.53.14.77.21a1.61,1.61,0,0,0,1.23-.25,2.25,2.25,0,0,0,.8-1.22l.24-.73c.16-.47.3-.93.43-1.37.26-.87.45-1.66.6-2.31C55.23,193.34,55.34,192.54,55.34,192.54Z"/><path class="cls-8" d="M53,196.35s-.22.44-.65,1.16c-.21.35-.47.77-.79,1.24-.16.23-.34.47-.53.72a1,1,0,0,1-.25.26.23.23,0,0,1-.11,0s0,0-.11-.07l-.53-.12a12.74,12.74,0,0,1-1.26-.39,12.13,12.13,0,0,1-4.06-2.48,11.26,11.26,0,0,1-1.08-1.17l-.37-.48s0,.22,0,.62a6.83,6.83,0,0,0,.48,1.66,7.4,7.4,0,0,0,4.21,4,6.85,6.85,0,0,0,1.69.39,5.16,5.16,0,0,0,.79,0,2,2,0,0,0,1-.24,1.84,1.84,0,0,0,.71-.64,3,3,0,0,0,.3-.59,9.6,9.6,0,0,0,.31-1,9.5,9.5,0,0,0,.27-1.58A6,6,0,0,0,53,196.35Z"/><path class="cls-8" d="M52.85,198.84a1.93,1.93,0,0,0-.39.33,4.83,4.83,0,0,0-.76,1.16,8.35,8.35,0,0,1-.82,1.48,4.52,4.52,0,0,1-1.3,1.06,10,10,0,0,1-3.42,1.07l-1.77.28a7,7,0,0,0,1.65.85,6.38,6.38,0,0,0,2,.4,5,5,0,0,0,2.64-.64,4.19,4.19,0,0,0,1.88-2.16,5.25,5.25,0,0,0,.23-2.1,9.39,9.39,0,0,1,0-1.25A4.52,4.52,0,0,1,52.85,198.84Z"/><path d="M106.59,280.19a53.86,53.86,0,0,0,6.1-1.82A10,10,0,0,0,106.59,280.19Z"/><path d="M85,277.68c-3.45-2.3-6.32-5.8-10.38-6.68a32.24,32.24,0,0,0-4.06-.37,11.4,11.4,0,0,1-1.47-.16l-.09.64A22.73,22.73,0,0,1,71,281c0,1.71-.68,3.57-.76,5.33a5.76,5.76,0,0,0,.2,2c3.3,10.65,14.28,6.95,22.75,1.84a63.55,63.55,0,0,0,8.16-5.91c.51-.44,1-.88,1.57-1.32a27.51,27.51,0,0,1,3.7-2.78,38.1,38.1,0,0,1-3.83.75C96.67,281.82,90.14,281.08,85,277.68Z"/><path d="M106.59,280.19a10,10,0,0,1,6.1-1.82A53.86,53.86,0,0,1,106.59,280.19Z"/><path class="cls-38" d="M76.84,285.76a18.43,18.43,0,0,1,15.59,3.81l-.28.44a29.71,29.71,0,0,1-9.46,1.46c-3.2-.22-6.49-1.65-8.11-4.42a3.44,3.44,0,0,0,1.55-.31A1.27,1.27,0,0,0,76.84,285.76Z"/><path class="cls-19" d="M70.43,286.35c0-.61.79-1.05,1.42-1.21a18.41,18.41,0,0,1,2.85-.56c.84-.09,2,0,2.14.86a.58.58,0,0,1,0,.32,1.27,1.27,0,0,1-.71,1,3.44,3.44,0,0,1-1.55.31c1.62,2.77,4.91,4.2,8.11,4.42A29.71,29.71,0,0,0,92.15,290l.28-.44c.24.2.49.41.73.63-8.47,5.11-19.46,8.81-22.75-1.84a5.76,5.76,0,0,1-.2-2Z"/><path class="cls-19" d="M74,277.15c-.22.62-1.19.62-1.65.13a3,3,0,0,1-.59-1.84c-.14-1.53-.26-3.06-.39-4.59l-.78-.22a32.24,32.24,0,0,1,4.06.37c4.06.88,6.93,4.38,10.38,6.68,5.14,3.4,11.67,4.14,17.76,3.26a38.1,38.1,0,0,0,3.83-.75,27.51,27.51,0,0,0-3.7,2.78l-.16-.21A25.81,25.81,0,0,1,74,277.15Z"/><path d="M71.85,285.14c-.63.16-1.41.6-1.42,1.21l-.22,0c.08-1.76.71-3.62.76-5.33a22.73,22.73,0,0,0-2-9.89l.09-.64a11.4,11.4,0,0,0,1.47.16l.78.22c.13,1.53.25,3.06.39,4.59a3,3,0,0,0,.59,1.84c.46.49,1.43.49,1.65-.13a25.81,25.81,0,0,0,28.76,5.61l.16.21c-.53.44-1.06.88-1.57,1.32a63.55,63.55,0,0,1-8.16,5.91c-.24-.22-.49-.43-.73-.63a18.43,18.43,0,0,0-15.59-3.81.58.58,0,0,0,0-.32c-.18-.82-1.3-.95-2.14-.86A18.41,18.41,0,0,0,71.85,285.14Z"/><path class="cls-8" d="M63.9,254.75s-.33,1-.82,2.79a22,22,0,0,0-.63,3.39,11.57,11.57,0,0,0,.39,4.64,8.35,8.35,0,0,0,3.41,4.72,8,8,0,0,0,3.16,1.11c1.1.17,2.2.2,3.26.3a10.47,10.47,0,0,1,3,.68A14.1,14.1,0,0,1,78.51,274c1.86,1.34,3.64,3.1,5.88,4.61a21.44,21.44,0,0,0,7.19,3,27.15,27.15,0,0,0,7.14.6,39.7,39.7,0,0,0,11.66-2.48c3.18-1.14,5.64-2.28,7.34-3.06l2.63-1.25-2.76.92c-1.78.59-4.34,1.46-7.54,2.32a43.63,43.63,0,0,1-11.36,1.64,23.85,23.85,0,0,1-13-3.57c-2-1.33-3.81-3.06-5.89-4.48a14.69,14.69,0,0,0-3.34-1.79,11.76,11.76,0,0,0-3.61-.67c-2.28-.07-4.27,0-5.77-.84a7.23,7.23,0,0,1-3.12-3.76,11.25,11.25,0,0,1-.75-4.24,23.39,23.39,0,0,1,.27-3.35C63.7,255.76,63.9,254.75,63.9,254.75Z"/><path class="cls-8" d="M116.06,274s.46.34,1,.85,1.26,1.19,2,1.89,1.43,1.37,2,2,.86,1,.86,1a2.63,2.63,0,0,0,.1-.37,3.49,3.49,0,0,0,.09-1.06,4.74,4.74,0,0,0-4.62-4.51,4,4,0,0,0-1,.11A3.52,3.52,0,0,0,116.06,274Z"/><path class="cls-31" d="M69,271.1l.24.66c.15.43.37,1.07.59,1.91a23.31,23.31,0,0,1,.71,7.22c-.07,1.48-.65,3.08-.89,5a6.44,6.44,0,0,0,.29,3.05,10.78,10.78,0,0,0,.54,1.46l.33.73.42.7a8.51,8.51,0,0,0,5.6,4,12.68,12.68,0,0,0,3.64.2,21.37,21.37,0,0,0,3.6-.69,42.63,42.63,0,0,0,12.1-6.19,57.88,57.88,0,0,0,4.65-3.63c1.4-1.22,2.6-2.4,3.79-3.38a14.73,14.73,0,0,1,6.27-3.51,8.16,8.16,0,0,1,2-.17l.69.06-.69-.13a7.64,7.64,0,0,0-2,0,14.68,14.68,0,0,0-6.74,3.1c-1.28.92-2.59,2.05-4,3.16s-3,2.23-4.72,3.34a46.62,46.62,0,0,1-11.76,5.74,20.36,20.36,0,0,1-3.29.65,11.46,11.46,0,0,1-3.16-.11A7.16,7.16,0,0,1,72.43,291l-.39-.6-.32-.63a9.2,9.2,0,0,1-.55-1.3A5.37,5.37,0,0,1,70.8,286c.12-1.73.61-3.43.59-5.07a22.11,22.11,0,0,0-1.31-7.32c-.3-.82-.58-1.44-.77-1.86Z"/><path class="cls-2" d="M347.32,66.12c-.69-2.16-1.76-4.58-3.93-5.21-2.5-.72-4.86,1.34-6.72,3.13C329,71.34,320.4,76.15,311.34,80c-15.46,6.56-32.16,10.3-47.36,18.86-12.86,7.23-24.51,17.67-30.88,31.18-6.62,14-6.15,31-16.16,43.45,0,0-7.75,13,1.19,23.88a56.89,56.89,0,0,0,19.69,15.39c20.42-17.88,48.83-12.48,71.41-24.46,13.92-7.39,24.28-19.54,31.38-33.94.68-1.4,1.35-2.82,2-4.25C354.13,123.58,355.25,90.72,347.32,66.12Z"/><path class="cls-2" d="M264,98.84c15.2-8.56,31.9-12.3,47.36-18.86-1.18.64-2.35,1.28-3.54,2-16.95,9.43-32.94,21.08-39.66,38.82-4.35,11.53-4.18,24.27-7.7,36.08-4.46,15-16.65,23.81-22.63,37.87-.5,1.13-.8,2.77.23,3.39,9.36-7.2,20.6-7.08,32.65-9.24,12.83-2.27,23.29-1.71,35.71-5.66s28.28-17.25,33.87-29l.34.17c-7.1,14.4-17.46,26.55-31.38,33.94-22.58,12-51,6.58-71.41,24.46a56.89,56.89,0,0,1-19.69-15.39c-8.93-10.89-1.19-23.88-1.19-23.88C227,161.05,226.48,144,233.1,130,239.47,116.51,251.12,106.07,264,98.84Z"/><path class="cls-28" d="M326.85,79.12c-6.4-.42-12.71,1.34-18.88,3.11l-.17-.3c1.19-.67,2.36-1.31,3.54-2C320.39,76.15,329,71.34,336.67,64c1.86-1.79,4.22-3.85,6.72-3.13,2.17.63,3.24,3.05,3.93,5.21,7.93,24.6,6.81,57.46-4.73,84l-.29-.12A136.47,136.47,0,0,0,345,96.24a25.27,25.27,0,0,0-2.18-7.91C339.86,82.62,333.27,79.56,326.85,79.12Z"/><path class="cls-39" d="M270.69,188.85c-12.05,2.16-23.29,2-32.65,9.24-1-.62-.73-2.26-.23-3.39,6-14.06,18.17-22.85,22.63-37.87,3.52-11.81,3.35-24.55,7.7-36.08,6.72-17.74,22.71-29.39,39.66-38.82l.17.3c6.17-1.77,12.48-3.53,18.88-3.11s13,3.5,15.94,9.21A25.27,25.27,0,0,1,345,96.24,136.47,136.47,0,0,1,342.3,150l.29.12c-.63,1.43-1.3,2.85-2,4.25l-.34-.17c-5.59,11.77-21.48,25.06-33.87,29S283.52,186.58,270.69,188.85Z"/><path class="cls-40" d="M321.06,175.4a56.06,56.06,0,0,1-14.66,7.79c-12.42,3.95-22.88,3.39-35.71,5.66-12.05,2.16-23.29,2-32.65,9.24-1-.62-.73-2.26-.23-3.39,6-14.06,18.17-22.85,22.63-37.87a69.6,69.6,0,0,0,1.66-6.92A61.23,61.23,0,0,1,257,173.73a45.89,45.89,0,0,0,7.45-11.95l-3.21,13.43a56.83,56.83,0,0,0,23.9-45.54,82.55,82.55,0,0,1-6.65,42.7,36.09,36.09,0,0,0,12-13.36c-2,4.45-4.13,8.83-6.48,13.1a124.63,124.63,0,0,0,42.54-38.65c-6.93,15.74-15.27,32.22-30.25,40.66a33.4,33.4,0,0,0,14.32-10.26,63.9,63.9,0,0,1-9.59,11.9,33.66,33.66,0,0,0,17.81-12.91c-4.53,6.73-11.21,11.7-18.12,15.87A45.37,45.37,0,0,0,321.06,175.4Z"/><path class="cls-4" d="M237.81,194.7s.21-.43.63-1.25c.21-.41.45-.93.77-1.51l1.16-2A115.07,115.07,0,0,1,249,178c1.92-2.46,4.06-5.15,6.12-8.23a49.54,49.54,0,0,0,5.52-10.53c2.94-7.95,3.77-17.14,5.46-26.41a64.44,64.44,0,0,1,3.66-13.14,53.48,53.48,0,0,1,6.16-11.07,66.88,66.88,0,0,1,7.57-8.72,87.59,87.59,0,0,1,7.63-6.66,143.92,143.92,0,0,1,12.08-8.45c1.46-.94,2.63-1.64,3.41-2.12l1.19-.73-1.24.65c-.81.43-2,1-3.54,1.9a124.51,124.51,0,0,0-12.58,7.85,81.6,81.6,0,0,0-8,6.44,64.16,64.16,0,0,0-8,8.71,53.27,53.27,0,0,0-6.63,11.37,62.55,62.55,0,0,0-3.88,13.56c-1.71,9.44-2.41,18.5-5,26.18s-7.16,13.65-10.74,18.72a102.66,102.66,0,0,0-8,12.45l-1,2.08c-.29.61-.5,1.15-.68,1.57C238,194.25,237.81,194.7,237.81,194.7Z"/><path class="cls-41" d="M102.11,381.3c-.91-6.36-7.17-11.65-13.57-7.84-5.43,3.25-7.69,10.3-6.8,16.56a14.18,14.18,0,0,0,2.93,7.19,8.26,8.26,0,0,0,6.91,3.09,9,9,0,0,0,4.18-1.68C101.07,394.92,103,387.71,102.11,381.3ZM94,396.7a5.41,5.41,0,0,1-2.51,1,5,5,0,0,1-4.13-1.85,8.48,8.48,0,0,1-1.75-4.31c-.54-3.74.82-8,4.07-9.9,3.82-2.28,7.57.88,8.11,4.69S97.17,394.48,94,396.7Z"/><path class="cls-42" d="M71.73,361.33a11.21,11.21,0,0,1,9.71.81s-4.74,22.18-3.27,23.07,9.92,0,13.78.44,5.69,9.91-2.72,10.41-19.73-.54-19.65-4.76S71.73,361.33,71.73,361.33Z"/><path class="cls-42" d="M119.65,369.11a2.25,2.25,0,0,1,3.09-1c1.33.6,1.1,2.1.73,3.08q-1.25,3.36-2.77,6.52t-3,6.36c-.94,2-1.85,3.91-2.76,5.81s-1.24,2.65-2.29,4.51a4.43,4.43,0,0,1-3.66,2.16A4.69,4.69,0,0,1,104.5,394c-1.59-3.72-7.75-26.13-9.31-30.16.37-2.27,4.76-3.94,7-2.35,1.18,3.14,7.59,27.61,7.59,27.61S118.78,371.34,119.65,369.11Z"/><path class="cls-41" d="M119.45,391.62v.71a3.75,3.75,0,0,0,.78,2.6,2.75,2.75,0,0,0,2.13,1,7.13,7.13,0,0,0,2.87-.61,15.71,15.71,0,0,0,3-1.68q1.49-1,3.62-2.82l0,1.38a55.15,55.15,0,0,1-6.66,6.67,9.59,9.59,0,0,1-5.7,2,4.67,4.67,0,0,1-3.95-2c-3.25-4.43-.86-10.09,2.31-13.82a20.76,20.76,0,0,1,5.22-4.44c2-1.14,4.49-2.24,6.82-2.06a2.48,2.48,0,0,1,2.44,2.44,5.9,5.9,0,0,1-1.38,3.52,17.69,17.69,0,0,1-4.75,3.94A41,41,0,0,1,119.45,391.62Zm.31-1.83a16,16,0,0,0,4.38-2.39,12.44,12.44,0,0,0,2.71-2.77,4.38,4.38,0,0,0,.89-1.95c0-.43-.19-.65-.58-.66a4.14,4.14,0,0,0-1.66.63,13.16,13.16,0,0,0-2.34,1.66,12.24,12.24,0,0,0-2.14,2.42A7.77,7.77,0,0,0,119.76,389.79Z"/><path class="cls-43" d="M76.86,268.4c-1.22-2.69-5.26-11.72-7.9-13-1.25-.61-5.87-1.62-11.51-.48a1.91,1.91,0,0,0-1.17,3.05,54.19,54.19,0,0,1,10.28,19.73c4.64-.89,11.38-4,10.3-9.27"/><path class="cls-5" d="M69.37,255.63a2.43,2.43,0,0,0-.42-.25c-1.24-.63-5.86-1.63-11.5-.48a1.89,1.89,0,0,0-1.16,3,54.79,54.79,0,0,1,6.33,9.72,38.26,38.26,0,0,1,8.66.79,9,9,0,0,1-4.37-8.93,5.58,5.58,0,0,1,.89-2.45A4.69,4.69,0,0,1,69.37,255.63Z"/><path class="cls-6" d="M76.86,268.4c-1.22-2.69-5.26-11.72-7.9-13-1.25-.61-5.87-1.62-11.51-.48a1.91,1.91,0,0,0-1.17,3.05,54.19,54.19,0,0,1,10.28,19.73c4.64-.89,11.38-4,10.3-9.27"/><path class="cls-43" d="M66.88,276.32a31.9,31.9,0,0,1-4.18-3.5,15.87,15.87,0,0,1-4.12-8.42,8.32,8.32,0,0,1,7.21,0c3.44,1.48,7.64,5.14,9.15,8.61a4.91,4.91,0,0,1-.15,4.61,3.66,3.66,0,0,1-2.77,1.6C70,279.31,68.37,277.43,66.88,276.32Z"/><path class="cls-8" d="M70.06,278.69l-3.89-3.08A24.11,24.11,0,0,1,62.28,272a16,16,0,0,1-3-5.7,14,14,0,0,1-.38-1.65v-.07h0s.2-.11.31-.15a6.61,6.61,0,0,1,.74-.28,8.19,8.19,0,0,1,3.05-.27,11,11,0,0,1,4.9,1.84,20.94,20.94,0,0,1,2.82,2.25l1,.92s-.31-.36-.9-1a18.92,18.92,0,0,0-2.72-2.42,10.75,10.75,0,0,0-5-2.08,8.22,8.22,0,0,0-3.25.22,7.87,7.87,0,0,0-.81.3,3.56,3.56,0,0,0-.46.22c-.1.07-.32.08-.23.26l.06.34a14.72,14.72,0,0,0,.39,1.72,15.83,15.83,0,0,0,3.17,5.85A22.9,22.9,0,0,0,66,275.84Z"/><path class="cls-2" d="M94.6,319.68c-.17-.17-18.68-19.11-29.4-44.15l.19-.36a10.8,10.8,0,0,1,4.25-1.11c-1-1.89,1.56-1.53,2.15-.64a13.18,13.18,0,0,1,1.57-4.63c.09-.19,1.35,1.25,1.35,1.25a7.45,7.45,0,0,1,1.09-2.25,3.11,3.11,0,0,1,.44-.08s17.18,19.46,34.31,36.36c0,0,7,7.07-1.29,15.18C102,326.37,94.6,319.68,94.6,319.68Z"/><path class="cls-44" d="M76.24,267.71s3.3,3.64,8.39,9.11c7,7.55,17.47,18.59,27.4,28.39"/><path class="cls-2" d="M150.36,360.91c-14.06-2.77-25.1-13.33-35.28-23.43-3.74-3.7-7.62-7.24-11.48-10.81C99.57,323,92,318,93,311.62c1-6.51,7.73-11.24,14.17-9.29,4.78,1.45,8.58,4.76,12.31,7.94a211.55,211.55,0,0,1,23,22.44c6,6.91,11.2,14.24,9.67,23.86"/><path class="cls-44" d="M107.15,302.33c4.78,1.45,8.58,4.76,12.31,7.94,1.74,1.49,3.48,3,5.19,4.54"/><path class="cls-4" d="M107.15,302.33l.44.17c.3.11.72.29,1.26.53a26.33,26.33,0,0,1,4.27,2.57c1.71,1.23,3.6,2.88,5.7,4.75l6.78,6.08c4.79,4.34,9,8.37,12,11.37s4.8,4.91,4.8,4.91-1.58-2.1-4.39-5.3a148,148,0,0,0-11.67-11.82c-2.4-2.18-4.76-4.18-6.93-6a57.43,57.43,0,0,0-6-4.49,23.69,23.69,0,0,0-4.52-2.26c-.57-.19-1-.34-1.31-.41Z"/><path class="cls-19" d="M154.39,360.61a33.6,33.6,0,0,0-6.33-26.77c-6.83-8.84-21.54-22.56-21.54-22.56-14,5.9-19.67,22.58-19.67,22.58,8.16,7.88,25.55,29.59,30.62,32.74,4.88,3,15.13,2.46,16.92-6"/><path class="cls-20" d="M106.85,333.86s1.75,1.8,4.43,4.85l10.42,12c4.09,4.65,7.88,8.79,10.78,11.64a45.15,45.15,0,0,0,3.56,3.25,11.79,11.79,0,0,0,1.05.78l.38.26-.36-.29a9.87,9.87,0,0,1-1-.82c-.84-.77-2-1.92-3.38-3.41-2.77-3-6.44-7.2-10.52-11.85s-7.86-8.82-10.67-11.74S106.85,333.86,106.85,333.86Z"/><path class="cls-45" d="M155,354.29a34.63,34.63,0,0,0-6.94-20.45c-6.83-8.84-21.54-22.56-21.54-22.56-14,5.9-19.67,22.58-19.67,22.58"/><path class="cls-2" d="M83.22,502.53C83,496,77.38,491.06,70.68,492.7c-4.37,1.07-7,4.92-7.77,9.09-.54,2.73.48,4.56,1.51,7,1.15,2.68,2.24,5.39,3.24,8.14,1.64,4.48,4.48,18.82,5.65,23.45a84.91,84.91,0,0,1,2.45,13,14.56,14.56,0,0,0,12.78-.69C85.56,541.58,83.21,517.67,83.22,502.53Z"/><path class="cls-46" d="M88.54,552.65a14.51,14.51,0,0,1-12.77.68,84.7,84.7,0,0,0-2.47-13c-1.16-4.65-4-19-5.64-23.47,0-.1-.07-.21-.12-.31a10.74,10.74,0,0,0,9.17,1.71,12.77,12.77,0,0,0,6.69-4.71C83.82,524.48,86.31,544.31,88.54,552.65Z"/><path class="cls-46" d="M88.54,552.65a14.51,14.51,0,0,1-12.77.68,84.7,84.7,0,0,0-2.47-13c-1.16-4.65-4-19-5.64-23.47,0-.1-.07-.21-.12-.31a10.74,10.74,0,0,0,9.17,1.71,12.77,12.77,0,0,0,6.69-4.71C83.82,524.48,86.31,544.31,88.54,552.65Z"/><path class="cls-9" d="M82.92,501.77c-.27-6.49-5.23-15.78-15-14.29-4.44.68-15.37,5.07-15.12,18.27,0,0,8.54,33.63,15.34,51.39,4,1.77,16.49-2.3,20.38-4.49,0,0-4.55-33.48-5.24-50.12C83.27,502,82.94,502.33,82.92,501.77Z"/><path class="cls-11" d="M68.16,557.14c4,1.77,16.49-2.3,20.38-4.49"/><path class="cls-11" d="M88.54,552.65s-4.77-35.14-5.31-51.82"/><path class="cls-11" d="M52,503.1s9.34,36.28,16.14,54"/><path class="cls-5" d="M156.06,508.87s8.4,2.81,12.07,6c0,0-.23,12-11,22.75,0,0-5.73-6.45-8.09-18.06C149,519.55,148.9,511.82,156.06,508.87Z"/><path class="cls-6" d="M156.06,508.87s8.4,2.81,12.07,6c0,0-.23,12-11,22.75,0,0-5.73-6.45-8.09-18.06C149,519.55,148.9,511.82,156.06,508.87Z"/><path class="cls-5" d="M153.94,523.8A32.85,32.85,0,0,0,160.41,536a24.4,24.4,0,0,0,5.5-10,74.1,74.1,0,0,0,2.15-11.28Z"/><path class="cls-7" d="M155,519.94a14.64,14.64,0,0,0,.08,2.12,17.74,17.74,0,0,0,3.82,9.36,15.45,15.45,0,0,0,1.42,1.57l-.85-1.92c-.53-1.17-1.21-2.78-1.94-4.55s-1.36-3.41-1.81-4.61Z"/><path class="cls-8" d="M153.94,523.8s.12.5.39,1.4a29.5,29.5,0,0,0,1.38,3.72,31.47,31.47,0,0,0,2.89,5.14c.32.46.65.92,1,1.38l.7.87c.09.21.19,0,.29-.11l.26-.28.31-.33a21.12,21.12,0,0,0,2.22-3.05,34,34,0,0,0,4-12.43c.25-1.66.4-3,.51-3.93s.15-1.44.15-1.44-.08.51-.24,1.43-.38,2.25-.7,3.89a37.57,37.57,0,0,1-4.22,12.19,20.77,20.77,0,0,1-2.14,3l-.29.33-.05.05h0l-.12-.15-.28-.33c-.36-.45-.7-.89-1-1.34a34.21,34.21,0,0,1-4.58-8.61C154.09,524.3,153.94,523.8,153.94,523.8Z"/><path class="cls-2" d="M128.31,486.49c-4.38-3.91-11.06-3.49-14.17,1.83-2,3.46-1.14,7.54,1.06,10.69,1.44,2.06,3.26,2.56,5.45,3.41,2.45.95,4.89,2,7.29,3.06,3.92,1.77,9.77,4.73,13.51,6.9a77.75,77.75,0,0,1,9.94,6.63,12.85,12.85,0,0,0,7.51-8.6C149.87,505.34,138.11,496,128.31,486.49Z"/><path class="cls-47" d="M158.89,510.4a12.79,12.79,0,0,1-7.5,8.6,78,78,0,0,0-9.94-6.61c-3.74-2.19-9.59-5.13-13.52-6.91l-.27-.13a9.47,9.47,0,0,0,6.81-4.78,11.35,11.35,0,0,0,1.11-7.24A144.57,144.57,0,0,0,158.89,510.4Z"/><path class="cls-47" d="M158.89,510.4a12.79,12.79,0,0,1-7.5,8.6,78,78,0,0,0-9.94-6.61c-3.74-2.19-9.59-5.13-13.52-6.91l-.27-.13a9.47,9.47,0,0,0,6.81-4.78,11.35,11.35,0,0,0,1.11-7.24A144.57,144.57,0,0,0,158.89,510.4Z"/><path class="cls-9" d="M129,482.39c-1.45-.73-3.47-1-6.53-.5-12.59,2-19,12.75-12.95,24.57a1.72,1.72,0,0,0,.44.59,2.29,2.29,0,0,0,.56.29c1.95.81,3.54,2.19,5.49,3q4.26,2.19,8.54,4.32c7.44,3.71,16.94,8.33,24.57,11.65,3.63-1.45,8.76-12,9.76-15.85.19-.75-9.33-7.15-10.09-7.74-3.19-2.5-8.34-6-11.48-8.58C132.53,490.19,133.05,484.43,129,482.39Z"/><path class="cls-48" d="M149.14,526.26c3.63-1.45,8.76-12,9.76-15.85"/><path class="cls-48" d="M158.9,510.41a230.26,230.26,0,0,1-23.81-18.64"/><path class="cls-48" d="M109.28,506.79s24.12,12.62,39.86,19.47"/></g></g></g></svg>