<svg xmlns="http://www.w3.org/2000/svg" xmlns:xlink="http://www.w3.org/1999/xlink" viewBox="0 0 264.53 651.89"><defs><style>.cls-1{fill:#f6a468;}.cls-2{fill:#b0b0b0;}.cls-3{fill:url(#linear-gradient);}.cls-33,.cls-4,.cls-41,.cls-42,.cls-44,.cls-47,.cls-5{fill:none;}.cls-33,.cls-4{stroke:#c4c0bf;}.cls-4{stroke-linecap:round;stroke-linejoin:round;}.cls-4,.cls-41,.cls-5{stroke-width:1.58px;}.cls-47,.cls-5{stroke:#626264;}.cls-33,.cls-41,.cls-42,.cls-44,.cls-47,.cls-5{stroke-miterlimit:10;}.cls-6{fill:#636365;}.cls-7{fill:url(#linear-gradient-2);}.cls-8{fill:#dfebf5;}.cls-9{fill:url(#linear-gradient-3);}.cls-10{fill:#01313a;}.cls-11{fill:#005c6f;}.cls-12{fill:url(#linear-gradient-4);}.cls-13{fill:#010101;}.cls-14{fill:#a1c4dd;}.cls-15{fill:#002429;}.cls-16{fill:#bebebe;}.cls-17{fill:#eaeaea;}.cls-18{fill:#005665;}.cls-19{fill:#0596aa;}.cls-20{fill:#989898;}.cls-21{fill:url(#linear-gradient-5);}.cls-22{fill:#393939;}.cls-23{fill:url(#radial-gradient);}.cls-24{fill:url(#radial-gradient-2);}.cls-25{fill:url(#radial-gradient-3);}.cls-26{fill:#6b2713;}.cls-27{fill:#da6064;}.cls-28{fill:#aa8b69;}.cls-29{fill:#252021;}.cls-30{fill:#fff;}.cls-31{fill:#e8e3e1;}.cls-32{fill:#c4c0bf;}.cls-33,.cls-44{stroke-width:0.79px;}.cls-34{fill:url(#radial-gradient-4);}.cls-35{fill:#c97960;}.cls-36{fill:#f89380;}.cls-37{fill:#b56650;}.cls-38{fill:#241f20;}.cls-39{fill:url(#radial-gradient-5);}.cls-40{fill:#090806;}.cls-41,.cls-42{stroke:#241f20;}.cls-42,.cls-47{stroke-width:1.18px;}.cls-43{fill:url(#radial-gradient-6);}.cls-44{stroke:#a1c4dd;}.cls-45{fill:#8f8f93;}.cls-46{fill:url(#linear-gradient-6);}.cls-48{fill:#c8c8c8;}.cls-49{fill:url(#linear-gradient-7);}.cls-50{fill:url(#radial-gradient-7);}.cls-51{fill:url(#linear-gradient-8);}.cls-52{fill:url(#linear-gradient-9);}</style><linearGradient id="linear-gradient" x1="641.69" y1="659.12" x2="650.02" y2="602.04" gradientTransform="matrix(-1, 0, 0, 1, 749, 0)" gradientUnits="userSpaceOnUse"><stop offset="0.02" stop-color="#fff"/><stop offset="1" stop-color="#c8c8c8"/></linearGradient><linearGradient id="linear-gradient-2" x1="499.47" y1="630.59" x2="578.78" y2="630.59" gradientTransform="matrix(-1, 0, 0, 1, 749, 0)" gradientUnits="userSpaceOnUse"><stop offset="0.02" stop-color="#fff"/><stop offset="0.97" stop-color="#c8c8c8"/></linearGradient><linearGradient id="linear-gradient-3" x1="539.77" y1="589.43" x2="586.68" y2="589.43" gradientTransform="matrix(-1, 0, 0, 1, 749, 0)" gradientUnits="userSpaceOnUse"><stop offset="0.01" stop-color="#005c6f"/><stop offset="0.97" stop-color="#004d5b"/></linearGradient><linearGradient id="linear-gradient-4" x1="603.22" y1="593.73" x2="647.98" y2="593.73" xlink:href="#linear-gradient-3"/><linearGradient id="linear-gradient-5" x1="888.96" y1="-493.45" x2="951.37" y2="-493.45" gradientTransform="matrix(-0.99, -0.16, -0.16, 0.99, 1037.96, 741.83)" gradientUnits="userSpaceOnUse"><stop offset="0.13" stop-color="#d0d0d0"/><stop offset="0.36" stop-color="#a7a7a7"/><stop offset="0.68" stop-color="#727272"/><stop offset="0.84" stop-color="#5e5e5e"/></linearGradient><radialGradient id="radial-gradient" cx="934.95" cy="-493.62" r="73.49" gradientTransform="matrix(-0.99, -0.16, -0.16, 0.99, 1037.96, 741.83)" gradientUnits="userSpaceOnUse"><stop offset="0.38" stop-color="#b0b0b0"/><stop offset="0.62" stop-color="#aaacac"/><stop offset="0.95" stop-color="#98a09f"/><stop offset="1" stop-color="#959e9d"/></radialGradient><radialGradient id="radial-gradient-2" cx="938.67" cy="-314.93" r="101.12" gradientTransform="matrix(-0.99, -0.16, -0.16, 0.99, 1037.96, 741.83)" gradientUnits="userSpaceOnUse"><stop offset="0.38" stop-color="#d0d0d0"/><stop offset="0.52" stop-color="#cacbcb"/><stop offset="0.72" stop-color="#b8bcbc"/><stop offset="0.95" stop-color="#9ca4a3"/><stop offset="1" stop-color="#959e9d"/></radialGradient><radialGradient id="radial-gradient-3" cx="945.37" cy="-276.74" r="118.46" gradientTransform="matrix(-1.02, 0.02, 0.01, 0.48, 1115.55, 435.46)" gradientUnits="userSpaceOnUse"><stop offset="0.02" stop-color="#fff"/><stop offset="0.46" stop-color="#fdfdfd"/><stop offset="0.64" stop-color="#f6f6f6"/><stop offset="0.78" stop-color="#e9e9e9"/><stop offset="0.9" stop-color="#d8d8d8"/><stop offset="0.97" stop-color="#c8c8c8"/></radialGradient><radialGradient id="radial-gradient-4" cx="923.34" cy="-330.11" r="18.86" gradientTransform="matrix(0.92, 0.4, 0.7, -1.6, -436.74, -629.23)" gradientUnits="userSpaceOnUse"><stop offset="0" stop-color="#e2e2e2"/><stop offset="0.88" stop-color="#d0d0d0"/></radialGradient><radialGradient id="radial-gradient-5" cx="982.21" cy="-320.89" r="19.46" gradientTransform="matrix(0.08, -1, -1, -0.08, -275.36, 1223.91)" gradientUnits="userSpaceOnUse"><stop offset="0" stop-color="#fff"/><stop offset="0.13" stop-color="#f6fcfd"/><stop offset="0.33" stop-color="#dff3f9"/><stop offset="0.59" stop-color="#b9e5f2"/><stop offset="0.88" stop-color="#85d2e9"/><stop offset="0.98" stop-color="#71cae5"/></radialGradient><radialGradient id="radial-gradient-6" cx="885.63" cy="-337.07" r="16.42" gradientTransform="matrix(0.11, -0.99, -0.99, -0.11, -216.92, 1110.64)" xlink:href="#radial-gradient-5"/><linearGradient id="linear-gradient-6" x1="662.09" y1="546.84" x2="672.59" y2="515" gradientTransform="matrix(-1, 0, 0, 1, 749, 0)" gradientUnits="userSpaceOnUse"><stop offset="0.02" stop-color="#fff"/><stop offset="0.85" stop-color="#c8c8c8"/></linearGradient><linearGradient id="linear-gradient-7" x1="1169.74" y1="-511.19" x2="1024.39" y2="-440.18" xlink:href="#linear-gradient-5"/><radialGradient id="radial-gradient-7" cx="1066.54" cy="-467.49" r="85.72" xlink:href="#radial-gradient"/><linearGradient id="linear-gradient-8" x1="543.2" y1="177.83" x2="495.03" y2="224.86" gradientTransform="matrix(-0.99, 0.13, 0.13, 0.99, 680.39, 128.83)" gradientUnits="userSpaceOnUse"><stop offset="0.07" stop-color="#fff"/><stop offset="0.28" stop-color="#f5f5f5"/><stop offset="0.64" stop-color="#dbdbdb"/><stop offset="0.86" stop-color="#c8c8c8"/></linearGradient><linearGradient id="linear-gradient-9" x1="519.73" y1="169.6" x2="505.11" y2="185.35" xlink:href="#linear-gradient-8"/></defs><title>Asset 252</title><g id="Layer_2" data-name="Layer 2"><g id="Layer_2-2" data-name="Layer 2"><path class="cls-1" d="M137.18,612.41c2.7,7.08,2.88,16.07,1.63,23.54,0,0-33.48,16.5-53.57,15.06S69,642,69,642s2.58-22.61,19.63-22.92a82.3,82.3,0,0,0,29.87-6.18c1.57-6,7-8.94,10.44-8.27S135.76,608.66,137.18,612.41Z"/><path class="cls-2" d="M137.18,612.41c2.7,7.08,2.88,16.07,1.63,23.54,0,0-33.48,16.5-53.57,15.06S69,642,69,642s2.58-22.61,19.63-22.92a82.3,82.3,0,0,0,29.87-6.18c1.57-6,7-8.94,10.44-8.27S135.76,608.66,137.18,612.41Z"/><path class="cls-3" d="M85.24,651c20.09,1.46,53.57-15,53.57-15a52,52,0,0,0,.64-5.76,205.38,205.38,0,0,1-23.21,4.88c-2.42.24-5,.24-7-1.19a24.88,24.88,0,0,1-2.39-2.32A10.49,10.49,0,0,0,95,629.86a8.71,8.71,0,0,0-12.52-.51,7,7,0,0,0-8.18-4.21C69.92,629.89,69,642,69,642S65.13,649.57,85.24,651Z"/><path class="cls-4" d="M95,629.86c-4,3.25-6.14,15.19-5,21.07"/><path class="cls-4" d="M82.71,629.11a8.82,8.82,0,0,0-2.57,2.26c-2.74,3.36-3.87,14.16-3.72,18.49"/><path class="cls-5" d="M137.18,612.41c2.7,7.08,2.88,16.07,1.63,23.54,0,0-33.48,16.5-53.57,15.06S69,642,69,642s2.58-22.61,19.63-22.92a82.3,82.3,0,0,0,29.87-6.18c1.57-6,7-8.94,10.44-8.27S135.76,608.66,137.18,612.41Z"/><path class="cls-6" d="M80.22,620.56l1.18-.2c.38-.07.84-.15,1.38-.2s1.14-.17,1.82-.2a38.78,38.78,0,0,1,4.74-.14,42.45,42.45,0,0,1,11.32,1.89,39.23,39.23,0,0,1,4.43,1.66c.63.25,1.17.55,1.66.78s.9.45,1.24.64l1.05.57-.91-.78a12.79,12.79,0,0,0-1.11-.87c-.45-.32-.94-.71-1.54-1.06a27.39,27.39,0,0,0-4.36-2.25,29.88,29.88,0,0,0-5.79-1.63,28.49,28.49,0,0,0-6-.33,26.62,26.62,0,0,0-4.85.71,18.68,18.68,0,0,0-1.8.5,11.64,11.64,0,0,0-1.33.47Z"/><path class="cls-2" d="M173.49,612.41a15.36,15.36,0,0,0-2.13,5.07,36,36,0,0,0-.83,13.71s13,9.23,38.17,10.82c26,1.63,39.77-2.82,40.66-7.26S248,616.85,235.31,614s-24.24,3.18-43.83.15A131.89,131.89,0,0,0,173.49,612.41Z"/><path class="cls-7" d="M170.22,626.56a34.05,34.05,0,0,0,.32,4.62s13,9.24,38.17,10.82c26,1.65,39.76-2.81,40.65-7.25.61-3-.22-10.2-4.84-15.39l-.18.09a3.27,3.27,0,0,0-5.09,2,7.4,7.4,0,0,0-12.37,3.4,6.24,6.24,0,0,0-7.07-.19c-2.09,1.42-3.1,4-5,5.67-2.64,2.38-6.48,2.71-10,2.78-10,.19-19.95-2.37-29.69-4.49A9.94,9.94,0,0,1,170.22,626.56Z"/><path class="cls-4" d="M225.7,624.28c1.9-.44,4.11,5.86,4.5,7.14a18.17,18.17,0,0,1,0,10.23"/><path class="cls-4" d="M238.87,620.49c3,2.52,4.77,7.17,5.26,11a10.06,10.06,0,0,1-2.06,7.94"/><path class="cls-5" d="M173.49,612.41a15.36,15.36,0,0,0-2.13,5.07,36,36,0,0,0-.83,13.71s13,9.23,38.17,10.82c26,1.63,39.77-2.82,40.66-7.26S248,616.85,235.31,614s-24.24,3.18-43.83.15A131.89,131.89,0,0,0,173.49,612.41Z"/><path class="cls-8" d="M208.46,384.12a122.42,122.42,0,0,1,16.68,20.21c8.35,13,13.16,23.3,19.63,47.74A47,47,0,0,1,209,461s-4.48-9.9-9.6-25.3-6.91-30.76-6-39.86C194.42,385.34,208.46,384.12,208.46,384.12Z"/><ellipse class="cls-8" cx="226.52" cy="455.18" rx="18.51" ry="17.65" transform="translate(-55.91 32.41) rotate(-7.29)"/><path class="cls-9" d="M209.23,615.19s-3.66-5.48-4-7.73c0,0,2.37-19.84,2.35-32.51l-.34-2.86c-1-7.37-10.92-16.76-24.07-15.84-11.66.82-20.42,14.62-20.32,21.93a13,13,0,0,1-.49,4.15c3.85,15.09,7.09,40.34,7.09,40.34l21.93-6.35Z"/><path class="cls-10" d="M207.63,609.7a4.39,4.39,0,0,1-.86-.74,4.9,4.9,0,0,1-.75-1.06,4.75,4.75,0,0,1-.32-.72l-.13-.43a1.39,1.39,0,0,0-.34-.59,1.44,1.44,0,0,0-1.31-.29c-.41.1-.66.19-1,.28l-2.22.61c-1.55.46-3.25,1-5,1.61a92.76,92.76,0,0,0-9.06,3.71c-2.27,1.07-3.63,1.85-3.63,1.85s1.51-.4,3.92-1.09,5.71-1.67,9.31-2.93c1.76-.61,3.42-1.24,4.92-1.83l2.13-.85.92-.39c.27-.09.36-.11.51,0a.52.52,0,0,1,.17.22l.22.43a4.16,4.16,0,0,0,.5.74,4.69,4.69,0,0,0,1,1,4.29,4.29,0,0,0,.75.43Z"/><path class="cls-11" d="M208.41,507.08c2.84,23.65,1.25,43.18-.69,64l-.18,3.86c-2,12.22-16.46,16.8-27.38,15.78-13.48-1.25-18.06-9.55-18.06-9.55-3.95-10.33-6.95-25.79-13.21-35.86,0,0,4.67-21.26,23-32.54A48,48,0,0,1,208.41,507.08Z"/><path class="cls-12" d="M101,616.22s3.14-6.76,3.39-9c0,0-2-19.75-2.71-32.4a28.59,28.59,0,0,1,27.67-10.86c14.81,2.48,16.41,18.14,16.41,18.14C143.06,597.39,140,624,140,624l-24.11-6.67a24,24,0,0,0-7.25-.85Z"/><path class="cls-10" d="M100.83,616.72s.48-1,1.26-2.79l1.38-3.26,1.6-4c.06,0,0,0,.38.07s.84.25,1.3.39l3,.85c4.46,1.25,8.51,2.3,11.45,3.08l4.75,1.31s-1.66-.91-4.49-2.09a101.18,101.18,0,0,0-11.27-3.87c-1-.3-2.09-.57-3-.8-.47-.12-.93-.21-1.32-.32a2.36,2.36,0,0,0-.87-.07,1.45,1.45,0,0,0-1.19.91,3,3,0,0,0-.12.38l-.18.58c-.12.39-.23.77-.34,1.14-.22.74-.42,1.44-.62,2.09-.36,1.32-.68,2.46-.94,3.4C101.08,615.65,100.83,616.72,100.83,616.72Z"/><path class="cls-11" d="M96.79,507.08s1.33,43.17,4.5,63.85l.41,3.85c2.72,12.08,12.43,17,23.35,16,13.48-1.25,20.73-8.67,20.73-8.67,3.18-10.6,4.28-26.67,10.53-36.74,0,0-4.66-21.26-23-32.54A48,48,0,0,0,96.79,507.08Z"/><path class="cls-11" d="M174.25,555.23a61.07,61.07,0,0,0-34.77.78l-31.56-48.12L161.1,496l40.46,19.87Z"/><path class="cls-13" d="M174.25,555.23l-1.31-.47c-.85-.3-2.09-.68-3.65-1.08a46.79,46.79,0,0,0-24.92.56c-1.54.47-2.77.9-3.6,1.24l-1.29.53,1.37-.28c.87-.19,2.14-.43,3.7-.69a89.69,89.69,0,0,1,12.28-1.13,88.5,88.5,0,0,1,12.31.58c1.58.19,2.86.37,3.74.52Z"/><path class="cls-8" d="M86.92,388.86c7-8.34,21.67-21,29.76-27.16a65,65,0,0,1,33.77-11.33,48,48,0,0,1,31,9s4.34,4.79,10.77,10.75,16.24,14,16.24,14c-2.05,18.94-5,38.24-4.44,57.2.54,18.48,3.74,51.08,4.39,57.46-.3.64-15.82,10-30,11.56-34.17,3.71-79.25-5.23-82-9.22-.79-5.92.93-30.48,1.25-36.91a181.81,181.81,0,0,0-3.12-44C92.84,411.46,86.35,389.54,86.92,388.86Z"/><path class="cls-14" d="M205.35,411.91l-.45,3.39c-.28,2.19-.65,5.36-1,9.3s-.62,8.63-.64,13.87.18,10.95.45,17c.53,12,1.78,22.89,2.84,30.7s1.84,12.64,1.84,12.64-.4-4.87-1-12.72-1.49-18.7-2-30.7c-.27-6-.53-11.73-.7-16.91s0-9.87.07-13.8.3-7.12.42-9.32S205.35,411.91,205.35,411.91Z"/><path class="cls-14" d="M157.76,442.21s1,14.85,2.32,33.16,2.4,33.16,2.4,33.16.11-3.73.09-9.75-.22-14.35-.86-23.52-1.6-17.45-2.44-23.41S157.76,442.21,157.76,442.21Z"/><path class="cls-15" d="M94.56,506.61C126,522.94,175.51,523.12,210,511.55a32.13,32.13,0,0,0-1.25-13.74s-57.6,18-113.34-4.57A66.68,66.68,0,0,0,94.56,506.61Z"/><path class="cls-16" d="M151.8,521.33c5.37.86,18.48-.43,19-.84a4,4,0,0,0,1.15-1.77,9.2,9.2,0,0,0,.47-1.58c.85-3.76.63-9.3-.08-11.29-1.07-3-5-1.93-17.59-1.83h-2a1.38,1.38,0,0,0-.36,0c-1.49.19-2,1.57-2.07,3.35C150.13,510.59,149.36,520.87,151.8,521.33Z"/><path class="cls-17" d="M152.41,504.06A140.72,140.72,0,0,0,172,518.72a9.2,9.2,0,0,0,.47-1.58A133.82,133.82,0,0,1,154.79,504h-2A1.38,1.38,0,0,0,152.41,504.06Z"/><path class="cls-18" d="M188.83,501.89c1,5.3.7,17.93.78,18s5.41-.55,6-1.18c.68-1.65.18-16.88-.93-17.81A17.49,17.49,0,0,0,188.83,501.89Z"/><path class="cls-18" d="M133.91,502.69c-1,5.31-.7,17.93-.77,18s-5.41-.55-6-1.17c-.69-1.65-.19-16.88.92-17.82A17.7,17.7,0,0,1,133.91,502.69Z"/><path class="cls-18" d="M108.73,496.88c-1.68,5.13-3.15,17.67-3.24,17.76s-5.28-1.29-5.8-2c-.45-1.73,2.13-16.75,3.35-17.52A17.66,17.66,0,0,1,108.73,496.88Z"/><path class="cls-11" d="M157.77,382.91l4.15,3.84s6.94-2,18.46-18.75C180.38,368,172.4,373,157.77,382.91Z"/><path class="cls-11" d="M151.2,401.58l7.36-1.58a782.49,782.49,0,0,1,14.78,91.08,111.37,111.37,0,0,1-9.8,21.87,1.61,1.61,0,0,1-2.86.16,80.27,80.27,0,0,1-12.1-20.34S148.58,434.65,151.2,401.58Z"/><path class="cls-11" d="M141.52,386c6.29-4.25,15.2-5.77,21.44-1.43L158.56,400l-7.36,1.58Z"/><path class="cls-10" d="M151.2,401.58a18.8,18.8,0,0,0,3.72-1.2l.42-.19.24-.12,1.14,0,1,0c.55,0,.87-.07.87-.07s-.31-.11-.84-.25l-.94-.23-.58-.12-.32,0-.43-.07-.43.17-.43.18A19.08,19.08,0,0,0,151.2,401.58Z"/><path class="cls-11" d="M145.82,383.91l-2.1,5.66c-4.4-1.84-8.71-3.87-13-6-3.76-1.88-14.66-8.58-15.06-9.11-1-1.29.85-3.88,1.74-5.07,2.83.61,11.64,5.6,13.92,6.9C136.1,379,140.89,381.59,145.82,383.91Z"/><path class="cls-10" d="M145.85,383.92s-.74,1.22-1.46,2.7-1.18,2.84-1.18,2.84a5.62,5.62,0,0,0,.68-.65,7.71,7.71,0,0,0,1.24-1.83,7.82,7.82,0,0,0,.65-2.13A6.18,6.18,0,0,0,145.85,383.92Z"/><path class="cls-10" d="M158.3,382.53l.66.58c.39.35.89.84,1.42,1.39s1,1.09,1.44,1.45.67.57.67.57-.11-.32-.34-.81a6.45,6.45,0,0,0-1.18-1.77,4.7,4.7,0,0,0-1.8-1.18A4.39,4.39,0,0,0,158.3,382.53Z"/><path class="cls-19" d="M173.66,377.55l-.31.28a.42.42,0,0,1-.14.09.32.32,0,0,1-.17,0,.29.29,0,0,1-.16,0,.34.34,0,0,1-.14-.09l-.07-.09a.43.43,0,0,1-.06-.22l0-.11a.33.33,0,0,1,.11-.19l.28-.32a.42.42,0,0,1,.14-.09.42.42,0,0,1,.36,0,.42.42,0,0,1,.14.09l.07.1a.37.37,0,0,1,.07.23l0,.12a.47.47,0,0,1-.12.2Z"/><path class="cls-19" d="M176.89,371.66l-.31.28a.54.54,0,0,1-.16.1.34.34,0,0,1-.2,0,.31.31,0,0,1-.19,0,.48.48,0,0,1-.17-.1l-.08-.11a.55.55,0,0,1-.07-.25l0-.14a.61.61,0,0,1,.13-.22l.28-.32a.42.42,0,0,1,.17-.1.38.38,0,0,1,.21-.05.35.35,0,0,1,.2.05.37.37,0,0,1,.17.1l.09.11a.64.64,0,0,1,.07.27l0,.14a.58.58,0,0,1-.14.24Z"/><path class="cls-19" d="M164.69,380.27a1.62,1.62,0,0,1,.91-.57,1.12,1.12,0,0,1,1.12.45c.94,1.37-1.64,3.05-2.28,1.34A1.24,1.24,0,0,1,164.69,380.27Z"/><path class="cls-19" d="M169.7,378.57a1.57,1.57,0,0,1,0-3.13,1.57,1.57,0,0,1,0,3.13Z"/><path class="cls-19" d="M155.41,414.26l-.3,0a.34.34,0,0,1-.17,0,.33.33,0,0,1-.14-.1.34.34,0,0,1-.09-.14.33.33,0,0,1,0-.17l0-.12a.37.37,0,0,1,.11-.19l.09-.07a.43.43,0,0,1,.22-.06l.3,0a.34.34,0,0,1,.18,0,.46.46,0,0,1,.25.25.39.39,0,0,1,0,.18l0,.13a.47.47,0,0,1-.12.2l-.09.08a.5.5,0,0,1-.24.06Z"/><path class="cls-19" d="M158.38,425.55a.76.76,0,0,1,0-1.52.76.76,0,0,1,0,1.52Z"/><path class="cls-19" d="M152.14,439.44a1.57,1.57,0,0,1,0-3.14,1.57,1.57,0,0,1,0,3.14Z"/><path class="cls-19" d="M161.36,446.27a1.57,1.57,0,0,1,0-3.13,1.57,1.57,0,0,1,0,3.13Z"/><path class="cls-19" d="M155.7,457.69l.06.12v0a2.13,2.13,0,0,1,.15.36,1.44,1.44,0,0,1,0,.77l-.14.35a2.12,2.12,0,0,1-.27.34,1.06,1.06,0,0,1-.45.29,1,1,0,0,1-.54.12l-.37-.05a1.53,1.53,0,0,1-.63-.36,2.78,2.78,0,0,1-.26-.34,1.22,1.22,0,0,1-.14-.35,1.44,1.44,0,0,1,0-.77l.14-.35h0v0l.06-.12a1.35,1.35,0,0,1,.49-.49,1.35,1.35,0,0,1,1.38,0,1.35,1.35,0,0,1,.49.49Z"/><path class="cls-19" d="M160.17,438.84a1.57,1.57,0,0,1,0-3.13,1.57,1.57,0,0,1,0,3.13Z"/><path class="cls-19" d="M154.22,431.11a1.57,1.57,0,0,1,0-3.13,1.57,1.57,0,0,1,0,3.13Z"/><path class="cls-19" d="M159.17,418.65l-.28-.31a.42.42,0,0,1-.11-.18.46.46,0,0,1-.05-.21.54.54,0,0,1,.05-.21.45.45,0,0,1,.11-.17l.11-.09a.55.55,0,0,1,.28-.07l.14,0a.49.49,0,0,1,.24.14l.31.28a.36.36,0,0,1,.12.18.51.51,0,0,1,0,.44.36.36,0,0,1-.12.18l-.11.09a.57.57,0,0,1-.29.08l-.15,0a.64.64,0,0,1-.25-.15Z"/><path class="cls-19" d="M155.41,408.22a1.57,1.57,0,0,1,0-3.13,1.57,1.57,0,0,1,0,3.13Z"/><path class="cls-19" d="M152.74,421.6a1.57,1.57,0,0,1,0-3.13,1.57,1.57,0,0,1,0,3.13Z"/><path class="cls-19" d="M155.41,449.12a.25.25,0,0,1,0-.5.25.25,0,0,1,0,.5Z"/><path class="cls-19" d="M164.92,458.41a.33.33,0,0,1,0-.65.33.33,0,0,1,0,.65Z"/><path class="cls-19" d="M163.64,468.54l0,0v0l-.19.25a.94.94,0,0,1-.4.25.8.8,0,0,1-.47.11l-.33-.05a1,1,0,0,1-.42-.22.52.52,0,0,1-.22-.22.79.79,0,0,1-.11-.14l0,0a1.25,1.25,0,0,1,0-1.29,1.21,1.21,0,0,1,.45-.45,1.35,1.35,0,0,1,.65-.18,1.31,1.31,0,0,1,.64.18,1.21,1.21,0,0,1,.45.45,1.25,1.25,0,0,1,0,1.29Z"/><path class="cls-19" d="M161.36,456.41a.41.41,0,0,1,0-.81.41.41,0,0,1,0,.81Z"/><path class="cls-19" d="M153,471.46l.32-.28a.54.54,0,0,1,.26-.16.49.49,0,0,1,.31-.07.51.51,0,0,1,.32.07.54.54,0,0,1,.26.16l.13.17a.84.84,0,0,1,.11.41l0,.22a1,1,0,0,1-.21.36l-.27.32a.8.8,0,0,1-.27.18.78.78,0,0,1-.33.07.72.72,0,0,1-.33-.07.64.64,0,0,1-.27-.18l-.14-.17a1,1,0,0,1-.11-.43l0-.23a.78.78,0,0,1,.22-.37Z"/><path class="cls-19" d="M166.31,480.64a1.21,1.21,0,0,1-.56-.13,1.15,1.15,0,0,1-.46-.3,1.08,1.08,0,0,1-.3-.46,1.07,1.07,0,0,1-.12-.56l0-.38a1.42,1.42,0,0,1,.37-.64l.29-.23a1.45,1.45,0,0,1,.73-.19,1.07,1.07,0,0,1,.56.12,1.08,1.08,0,0,1,.46.3,1.12,1.12,0,0,1,.3.47,1.14,1.14,0,0,1,.13.55l-.06.39a1.35,1.35,0,0,1-.37.63l-.29.23a1.46,1.46,0,0,1-.73.2Z"/><path class="cls-19" d="M160.15,486.15l.1-.06.33-.14a1.11,1.11,0,0,1,.57,0,.75.75,0,0,1,.36.1,1,1,0,0,1,.45.29l.23.29.14.34a1,1,0,0,1,0,.56,1,1,0,0,1-.16.53.86.86,0,0,1-.07.1,1.49,1.49,0,0,1-.51.52,1.45,1.45,0,0,1-.73.19l-.39,0a1.44,1.44,0,0,1-.63-.37,1.08,1.08,0,0,1-.3-.46,1.21,1.21,0,0,1-.13-.56,1.57,1.57,0,0,1,.2-.73,1.52,1.52,0,0,1,.52-.52Z"/><path class="cls-19" d="M153.63,484.62a1.57,1.57,0,0,1,0-3.13,1.57,1.57,0,0,1,0,3.13Z"/><path class="cls-19" d="M157.52,496.19v0l.09.71,0,0-.1-.25a.72.72,0,0,1,0-.41.5.5,0,0,1,.07-.27.78.78,0,0,1,.21-.33l.07-.06,0,0a1,1,0,0,1,.46-.27.78.78,0,0,1,.4,0l.14,0a.94.94,0,0,1,.45.27,1,1,0,0,1,.27.45,1.23,1.23,0,0,1,0,.54.94.94,0,0,1-.27.45l0,0-.05.07-.21.16a.89.89,0,0,1-.39.12.42.42,0,0,1-.27,0,.89.89,0,0,1-.39-.12l0,0,.7.09h0a.79.79,0,0,1-.48,0,.86.86,0,0,1-.39-.23.84.84,0,0,1-.23-.4.79.79,0,0,1,0-.48Z"/><path class="cls-19" d="M164.92,460.39a.82.82,0,0,1,0-1.63.82.82,0,0,1,0,1.63Z"/><path class="cls-19" d="M160.76,457.57a1.57,1.57,0,0,1,0-3.13,1.57,1.57,0,0,1,0,3.13Z"/><path class="cls-19" d="M156.3,450.73a1.57,1.57,0,0,1,0-3.13,1.57,1.57,0,0,1,0,3.13Z"/><path class="cls-19" d="M155.41,443.31l-.3,0a.44.44,0,0,1-.25-.06.54.54,0,0,1-.34-.34.54.54,0,0,1-.06-.25l0-.18a.72.72,0,0,1,.17-.29l.13-.1a.68.68,0,0,1,.33-.09l.3,0a.78.78,0,0,1,.48.2.46.46,0,0,1,.14.22.55.55,0,0,1,.06.26l0,.18a.92.92,0,0,1-.18.3l-.14.1a.79.79,0,0,1-.34.1Z"/><path class="cls-19" d="M151.55,452.65a.51.51,0,0,1,0-1,.51.51,0,0,1,0,1Z"/><path class="cls-19" d="M164,452.22l-.3,0a.8.8,0,0,1-.36-.09.7.7,0,0,1-.3-.19.67.67,0,0,1-.19-.3.64.64,0,0,1-.08-.36l0-.25a1.1,1.1,0,0,1,.24-.42l.19-.14a.9.9,0,0,1,.47-.13l.3,0a.82.82,0,0,1,.38.09.87.87,0,0,1,.51.51.82.82,0,0,1,.09.38l0,.26a.94.94,0,0,1-.25.43l-.2.15a.92.92,0,0,1-.49.13Z"/><path class="cls-19" d="M161,428.67l.15,0h.08l.07,0a1.05,1.05,0,0,1,.49.28,1.1,1.1,0,0,1,0,1.55,1.05,1.05,0,0,1-.49.28,1,1,0,0,1-.58,0,1.05,1.05,0,0,1-.49-.28,1.17,1.17,0,0,1-.28-.48V430s0-.05,0-.07,0-.1-.05-.15a1,1,0,0,1,0-.49.83.83,0,0,1,.24-.4.84.84,0,0,1,.4-.23.79.79,0,0,1,.48,0Z"/><path class="cls-19" d="M155.77,403.65l-.27-.09-.2-.08a.7.7,0,0,1-.22-.2.32.32,0,0,1-.1-.18.57.57,0,0,1-.07-.31l0-.21.09-.19a.64.64,0,0,1,.2-.23.57.57,0,0,1,.28-.14l.27-.09a.94.94,0,0,1,.47,0,1,1,0,0,1,.39.23l.14.18a.89.89,0,0,1,.12.45.65.65,0,0,1-.07.34.7.7,0,0,1-.19.29.86.86,0,0,1-.39.23.94.94,0,0,1-.47,0Z"/><path class="cls-19" d="M167.9,493.24a1.57,1.57,0,0,1,0-3.13,1.57,1.57,0,0,1,0,3.13Z"/><path class="cls-19" d="M162.84,508.66c-1,0-1-9.42,0-9.42s1,9.42,0,9.42Z"/><path class="cls-19" d="M158.21,476.61l0-.13.22.84-.1-.12a.45.45,0,0,1-.12-.21.21.21,0,0,1-.05-.13l0-.25v-.19h0l0-.28v-.06l0-.06.11-.26.17-.23a1,1,0,0,1,.36-.23l.14-.05a.74.74,0,0,1,.44,0,.76.76,0,0,1,.41.13l.22.17a1.07,1.07,0,0,1,.28.48.82.82,0,0,1,0,.46.57.57,0,0,1-.08.28.79.79,0,0,1-.23.35l0,0,0,0a.41.41,0,0,1-.13.1.9.9,0,0,1-.12.1l-.08,0,0,0h0a.67.67,0,0,1-.36.12.33.33,0,0,1-.17,0l.6-.25-.08.09-.17.13a.63.63,0,0,1-.3.1.41.41,0,0,1-.22,0,.67.67,0,0,1-.31-.1l-.17-.13-.13-.16a.71.71,0,0,1-.1-.31.74.74,0,0,1,0-.33Z"/><path class="cls-19" d="M152.74,489.33l.29,0a.59.59,0,0,1,.32.08.74.74,0,0,1,.44.43.71.71,0,0,1,.07.32l0,.22a.91.91,0,0,1-.21.37l-.17.12a.79.79,0,0,1-.42.12l-.29,0a.67.67,0,0,1-.34-.07.61.61,0,0,1-.28-.18,1.09,1.09,0,0,1-.25-.61l0-.23a1,1,0,0,1,.22-.38l.18-.13a.83.83,0,0,1,.44-.12Z"/><path class="cls-19" d="M166.71,472.73a1.57,1.57,0,0,1,0-3.13,1.57,1.57,0,0,1,0,3.13Z"/><path class="cls-19" d="M155.85,464.83l.15-.1,0,0a1.48,1.48,0,0,1,.74-.19h.08a1.49,1.49,0,0,1,.36.05,1.31,1.31,0,0,1,.59.35,1.28,1.28,0,0,1,.35.59,1.49,1.49,0,0,1,.05.36V466a1.36,1.36,0,0,1-.21.76l-.1.15a1.47,1.47,0,0,1-1.28.73l-.39,0a1.57,1.57,0,0,1-.66-.38,1.15,1.15,0,0,1-.3-.48,1,1,0,0,1-.13-.57,1.53,1.53,0,0,1,.2-.75,1.5,1.5,0,0,1,.53-.53Z"/><path class="cls-19" d="M138,384.6l-.27-.08-.12,0a.49.49,0,0,1-.13-.12.24.24,0,0,1-.06-.11.34.34,0,0,1,0-.18l0-.12.05-.11a.41.41,0,0,1,.12-.14.4.4,0,0,1,.16-.08l.27-.08a.51.51,0,0,1,.3,0,.49.49,0,0,1,.24.14l.09.11a.55.55,0,0,1,.07.28.41.41,0,0,1,0,.22.44.44,0,0,1-.12.18.56.56,0,0,1-.54.14Z"/><path class="cls-19" d="M132.22,380.88a.39.39,0,0,1,0-.77.39.39,0,0,1,0,.77Z"/><path class="cls-19" d="M124.46,379l.05-.29-.05.35h0l.18.67,0,0h0a1.49,1.49,0,0,1-.19-.75l0-.38a1,1,0,0,1,.26-.49.78.78,0,0,1,.25-.26,1.29,1.29,0,0,1,.49-.26l.14,0a.89.89,0,0,1,.51,0,.86.86,0,0,1,.49.15l.26.2a1.26,1.26,0,0,1,.33.57l0,.15,0,.38a1.08,1.08,0,0,1-.13.56.68.68,0,0,1-.18.32,1,1,0,0,1-.41.37.93.93,0,0,1-.43.17l.59-.35-.11.11-.11.1-.25.2a.92.92,0,0,1-.46.14.58.58,0,0,1-.32,0,.92.92,0,0,1-.46-.14l-.25-.2-.19-.25a.93.93,0,0,1-.15-.46.91.91,0,0,1,0-.49Z"/><path class="cls-19" d="M123.08,375.38l-.29-.07a.79.79,0,0,1-.3-.12l-.11-.08a.51.51,0,0,1-.23-.23.65.65,0,0,1,0-.66.51.51,0,0,1,.23-.23l.11-.08h0l.11-.06.16,0,.29-.07a.86.86,0,0,1,.45,0,.84.84,0,0,1,.39.22l.13.17a.86.86,0,0,1,.12.44,1.09,1.09,0,0,1-.25.61.84.84,0,0,1-.39.22.86.86,0,0,1-.45,0Z"/><path class="cls-19" d="M118,373.66a.3.3,0,0,1,0-.6.3.3,0,0,1,0,.6Z"/><path class="cls-19" d="M135.12,383.11a1.36,1.36,0,0,1-.72-.16,1.31,1.31,0,0,1-.6-.39,1.26,1.26,0,0,1-.39-.6,1.36,1.36,0,0,1-.16-.72l.06-.5a1.86,1.86,0,0,1,.49-.83l.38-.29a1.82,1.82,0,0,1,.94-.26,1.93,1.93,0,0,1,1.88,1.88l-.07.5a1.84,1.84,0,0,1-.48.82l-.38.3a1.85,1.85,0,0,1-.95.25Z"/><path class="cls-19" d="M128.88,379.68a1.57,1.57,0,0,1,0-3.13,1.57,1.57,0,0,1,0,3.13Z"/><path class="cls-19" d="M154.52,393.82a.54.54,0,0,1,0-1.08.54.54,0,0,1,0,1.08Z"/><path class="cls-19" d="M147.27,390.61l0-.08v1.2a.86.86,0,0,1-.16-.35l0-.35a1.13,1.13,0,0,1,.12-.51.93.93,0,0,1,.27-.43,1.11,1.11,0,0,1,.43-.28,1,1,0,0,1,.51-.11,1,1,0,0,1,.52.11,1.11,1.11,0,0,1,.43.28l.2.27a1.44,1.44,0,0,1,.19.67l-.05.35a1.45,1.45,0,0,1-.34.59l-.27.21a1.13,1.13,0,0,1-.5.16,1,1,0,0,1-.53,0,1.09,1.09,0,0,1-.35-.15h1.2l-.08,0-.28.12a1,1,0,0,1-.46,0,.6.6,0,0,1-.29-.08.91.91,0,0,1-.37-.24l-.19-.24-.11-.27a.84.84,0,0,1,0-.47.86.86,0,0,1,.13-.43Z"/><path class="cls-19" d="M159,388.85l-.3,0a.66.66,0,0,1-.34-.08.75.75,0,0,1-.47-.47.68.68,0,0,1-.08-.34l0-.24a1,1,0,0,1,.23-.39l.18-.14a.89.89,0,0,1,.45-.12l.3,0a.69.69,0,0,1,.35.08.67.67,0,0,1,.3.19.7.7,0,0,1,.19.3.64.64,0,0,1,.08.36l0,.24a.82.82,0,0,1-.24.41l-.18.15a1,1,0,0,1-.47.12Z"/><path class="cls-19" d="M151,386.52a1.57,1.57,0,0,1,0-3.13,1.57,1.57,0,0,1,0,3.13Z"/><path class="cls-19" d="M152.74,390.54a1.13,1.13,0,0,1,0-2.25,1.13,1.13,0,0,1,0,2.25Z"/><path class="cls-19" d="M156.3,386.13a.29.29,0,0,1,0-.57.29.29,0,0,1,0,.57Z"/><path class="cls-19" d="M149.81,397.14l0-.29a.42.42,0,0,1,0-.2.48.48,0,0,1,.28-.28.45.45,0,0,1,.2,0l.14,0a.5.5,0,0,1,.22.13l.08.1a.53.53,0,0,1,.08.27l0,.29a.36.36,0,0,1-.05.21.42.42,0,0,1-.11.18.45.45,0,0,1-.17.11.54.54,0,0,1-.21.05l-.15,0a.72.72,0,0,1-.24-.14l-.08-.11a.57.57,0,0,1-.08-.28Z"/><path class="cls-19" d="M155.81,397.64l-.07-.07a.87.87,0,0,1-.2-.35.75.75,0,0,1,0-.42,1.36,1.36,0,0,1,.1-.21l0,0,0-.06a.67.67,0,0,1,.25-.25.7.7,0,0,1,1,.25l0,.06,0,0a1.33,1.33,0,0,1,.09.21.75.75,0,0,1,0,.42.69.69,0,0,1-.2.35l-.06.07a.51.51,0,0,1-.23.15.6.6,0,0,1-.27.06l-.18,0a.61.61,0,0,1-.31-.18Z"/><path class="cls-20" d="M139.42,384.82a120.13,120.13,0,0,1-20-9.44,3.16,3.16,0,0,1-1.22-1,3.61,3.61,0,0,1-.18-2.14,15.85,15.85,0,0,0-2.41-10.06c-.14-.23,13-6.92,14.33-7.43a67.39,67.39,0,0,1,20.47-4.34,49.68,49.68,0,0,1,24,4.8,46.39,46.39,0,0,1,5.77,3.32c3.62,2.45,2.44,5.9.8,9.59a34,34,0,0,1-12.52,14.85,29.3,29.3,0,0,1-18.77,4.58A44.42,44.42,0,0,1,139.42,384.82Z"/><path class="cls-8" d="M116.59,362.5s-4.78,1-4.79,3.48c0,10.44,7.93,31.23,10.18,42.16,12.19-16.34,30.88-21.32,31.67-21.3s21.13,3.38,28.89,17.36c2.82-13.9,2.39-30.77.49-44.27-.27-1.92-3.62-2.77-3.62-2.77-3.7,10.84-12.09,22.93-23,29.07l-3.66,2.06-4-1.44a67.78,67.78,0,0,1-32.16-24.35Z"/><path class="cls-14" d="M116.59,362.5s-.22,0-.65.16a11.53,11.53,0,0,0-1.85.67,7,7,0,0,0-1.25.74,2.91,2.91,0,0,0-1,1.43,23.15,23.15,0,0,0,.17,4.38c.72,6.58,3.36,15.77,6.62,27.06.8,2.82,1.64,5.78,2.38,8.89.24,1.11.49,2.23.74,3.36,0,.14.07,0,.12,0L122,409l.31-.39.63-.77,1-1.22.79-1,.85-.92,1.75-1.85a62.2,62.2,0,0,1,17.94-12.26,57.16,57.16,0,0,1,5.42-2.16c.92-.3,1.88-.62,2.79-.82.17-.11.74.07,1.21.13s1,.19,1.46.32a55.62,55.62,0,0,1,11.55,4.08,37.15,37.15,0,0,1,10.25,7.25l.57.57.5.61,1,1.24a4.78,4.78,0,0,1,.47.64l.58.91,1.77,2.78c.2.44.19,0,.25-.23l.13-.73.27-1.45.27-1.46.12-.66.07-.42c.17-1.11.36-2.22.48-3.34a135.41,135.41,0,0,0,.72-24.29c-.21-3.93-.57-7.77-1.05-11.53l-.19-1.4-.1-.7a2.68,2.68,0,0,0-.27-.88,4.88,4.88,0,0,0-2.46-2.07l-.35-.15-.42-.15a11.79,11.79,0,0,0-1.21-.36l-.08,0s0,0,0,.06l-.06.15-.12.28c-.08.18-.15.4-.23.6l-.27.76c-.29.85-.65,1.67-1,2.49a58.75,58.75,0,0,1-10.88,16.83,46.81,46.81,0,0,1-6.76,6c-.6.41-1.17.84-1.77,1.22l-1.8,1.1-3.4,2-2.27-.8c-.81-.28-1.62-.56-2.4-.86-1.57-.57-3.07-1.19-4.5-1.84a64.62,64.62,0,0,1-7.85-4.17,68.15,68.15,0,0,1-17.19-15.19c-1.26-1.58-1.89-2.43-1.89-2.43s.61.86,1.83,2.48a67.36,67.36,0,0,0,16.94,15.64A66.68,66.68,0,0,0,143.2,385c1.45.68,3,1.34,4.53,1.94.79.31,1.58.6,2.39.9l2.66,1,3.79-2.09,1.86-1.1c.63-.38,1.22-.81,1.84-1.23a47.54,47.54,0,0,0,7-6.08A59.66,59.66,0,0,0,178.6,361.2c.35-.84.72-1.68,1-2.55l.19-.52,0-.06.08,0,.22.09.29.13a3.58,3.58,0,0,1,1.74,1.39,1.21,1.21,0,0,1,.13.44l.08.69.18,1.39q.69,5.58,1,11.42a137.81,137.81,0,0,1-.77,24c-.12,1.1-.31,2.2-.48,3.29l-.12.75-.06.34h0l-.32-.5a5.4,5.4,0,0,0-.5-.68l-1.08-1.31-.54-.66-.59-.59a38.59,38.59,0,0,0-10.73-7.54,56.65,56.65,0,0,0-11.91-4.12c-.5-.12-1-.21-1.52-.32l-.77-.13-.46-.05a5.17,5.17,0,0,0-.55.07c-1,.24-2,.57-3,.89a57.44,57.44,0,0,0-5.52,2.26,63.13,63.13,0,0,0-18.17,12.73L124.74,404l-.86.95-.79,1-.57.73c-.09.1-.2.29-.28.33-.12-.46-.23-.92-.34-1.38-.79-3.13-1.69-6.08-2.54-8.89-3.45-11.24-6.27-20.34-7.14-26.86a22.72,22.72,0,0,1-.28-4.32,2.72,2.72,0,0,1,1-1.37,6.39,6.39,0,0,1,1.21-.77,12,12,0,0,1,1.83-.72Z"/><path class="cls-21" d="M181.76,101.71C172.48,127.17,163,172,169,198.46a23.93,23.93,0,0,0,5.4-1c5.62-26.75,33.37-44.43,46.87-61.39,11.84-14.91,18.6-33.32,22.15-52s4-37.83,4.56-56.84c.08-3-.34-6.63-1.9-9l-.42.05c-4.39.57-8.29,3-11.88,5.57C208.06,42.41,192.61,72,181.76,101.71Z"/><path class="cls-22" d="M173.08,153.85s-2.58,12.05-4.81,27.2l-.56,3.78,2.06-3.23.2-.32a75.72,75.72,0,0,1,12.44-15.07c1.85-1.71,3.42-3,4.53-3.9l1.73-1.36s-.68.39-1.88,1.15a55.69,55.69,0,0,0-4.91,3.49,59,59,0,0,0-13.29,14.82l-.21.33,1.5.55C172.09,166.13,173.08,153.85,173.08,153.85Z"/><path class="cls-23" d="M236.4,18a235.8,235.8,0,0,0-63.24,61.84,152.28,152.28,0,0,0-12.59,21.27c-.35.73-.69,1.49-1,2.22-10.61,24-14,58-15.25,89.29,0,0,8.77,5.53,17.3,6a52.52,52.52,0,0,0,7.34-.13c-5.92-26.45,3.53-71.29,12.81-96.75,10.85-29.76,26.3-59.3,52-77.86,3.59-2.58,7.49-5,11.88-5.57l.42-.05a5,5,0,0,0-3.71-2.37C240.19,15.61,238.18,16.82,236.4,18Z"/><path class="cls-24" d="M33,308.11C39.17,239.78,95,171.31,159.11,179.8c56,7.42,93.49,66.26,97.11,122.42,0,0-1.71,45.24-84,58S33,308.11,33,308.11Z"/><path class="cls-25" d="M42.45,336.33a18.26,18.26,0,0,0,7.33,6.59,30,30,0,0,1-3.29-7.65l.3-.09a17.68,17.68,0,0,0,5.83,7.52,30.5,30.5,0,0,0,8.56,4.46l.13-.15c25.63,22.08,68.58,33.6,104.36,31a106.09,106.09,0,0,0,35.88-8.81,129.56,129.56,0,0,0,15.45-8c3.4-2.14,11-7.05,12-11.18a25.77,25.77,0,0,1-3,7.18,56.06,56.06,0,0,0,9.89-9.82,18.19,18.19,0,0,1-2.82,6.4,30.93,30.93,0,0,0,12.22-15.06,15.28,15.28,0,0,1-2.73,10.88c13.23-11.2,27.84-33.79,19.53-50.14-8.11-16-32.53-16.48-48.32-13.82-18.64,3.17-37.33,6.44-56.28,7.08-18.2.64-36.66-1.09-54.73-3.18-16.51-1.88-33.58-5.81-50.11-2.32-14.11,3-27.06,13.45-25.67,28.82.38,4.24,1.88,8.31,3.4,12.32h.08a34,34,0,0,1,1.16-14.63A8.68,8.68,0,0,1,33,310.87C30.6,319.44,34.11,330.92,42.45,336.33Z"/><path class="cls-6" d="M112.48,372.55l2.66.79c1.71.49,4.2,1.16,7.31,1.89a146.52,146.52,0,0,0,24.68,3.53A123.63,123.63,0,0,0,172,377.71c3.15-.49,5.68-1,7.42-1.42s2.69-.65,2.69-.65l-2.73.47c-1.75.28-4.3.66-7.46,1a161,161,0,0,1-24.77.44,203.79,203.79,0,0,1-24.62-2.91c-3.12-.58-5.65-1.1-7.39-1.48Z"/><path class="cls-26" d="M176.58,319.81c-4.7,4-11.38,5.29-17.56,4.52-6.86-.87-13.21-4-19.18-7.49s-11.79-7.36-18.21-9.92c2.83,3.43,6.76,6.82,9.21,10.52l8.72,13.24c4.49,6.86,9.23,13.92,16.26,18.14s17,4.67,22.72-1.21c2.42-2.52,3.79-5.84,5-9.1q3.15-8.14,5.8-16.45l0-.21a13.48,13.48,0,0,1-11.25-3.47A14.63,14.63,0,0,1,176.58,319.81Z"/><path class="cls-27" d="M145,338.57a39.45,39.45,0,0,0,10.8,10.25c7,4.22,17,4.67,22.72-1.21a16.52,16.52,0,0,0,2.26-3,25.29,25.29,0,0,0-18.32-6,10.75,10.75,0,0,1-2,.08,10.32,10.32,0,0,1-1.9-.54A20.37,20.37,0,0,0,145,338.57Z"/><path class="cls-28" d="M121.63,306.92s.9,1.2,2.71,3.21c.9,1,2,2.21,3.28,3.67.62.72,1.27,1.51,1.91,2.38s1.22,1.83,1.87,2.86c2.58,4.09,5.64,8.95,9.1,14.33a84.74,84.74,0,0,0,5.91,8.2A36.83,36.83,0,0,0,154.5,349a23.12,23.12,0,0,0,10.39,3.7,18.39,18.39,0,0,0,10.16-1.7,15,15,0,0,0,3.91-2.9,17.43,17.43,0,0,0,2.62-3.71,52.46,52.46,0,0,0,3-7.38c1.62-4.56,2.8-8.29,3.59-10.88s1.19-4,1.19-4L188,326c-.93,2.54-2.31,6.2-4.11,10.67a57.08,57.08,0,0,1-3.24,7.12,16.49,16.49,0,0,1-2.55,3.38,14,14,0,0,1-3.62,2.54c-5.53,2.62-13.13,1.78-19.05-2.13a36.91,36.91,0,0,1-7.78-7,94,94,0,0,1-6-7.95l-9.56-14c-.69-1-1.33-2-2-2.82s-1.38-1.62-2.05-2.32c-1.32-1.4-2.52-2.54-3.47-3.5C122.61,308.05,121.63,306.92,121.63,306.92Z"/><path class="cls-29" d="M125.64,305.86l-.49-.07a5.9,5.9,0,0,0-1.37,0,7.21,7.21,0,0,0-4.08,2,7.31,7.31,0,0,0-2.1,4,6.25,6.25,0,0,0-.06,1.37l0,.49s.08-.16.21-.45a10.3,10.3,0,0,1,.58-1.14,15.21,15.21,0,0,1,5.65-5.5,9.24,9.24,0,0,1,1.15-.55Z"/><path class="cls-30" d="M190.84,321.51c-4,.64-9.8-.31-12.74-3.13a14.63,14.63,0,0,1-1.52,1.43c-4.7,4-11.38,5.29-17.56,4.52,0,0,3.71,10.54,5.45,15.57,0,0,13.53,3.73,22.19-1.35A102.84,102.84,0,0,0,190.84,321.51Z"/><path class="cls-31" d="M163.3,336.49c0-.29,0-.57.06-.85.47-3.72,2.7-7.48,6.29-8.58a25.27,25.27,0,0,1,5.58-.53c1.87-.13,3.89-.68,5-2.2a12.69,12.69,0,0,0,10,.72c.22-1.17.43-2.36.58-3.53-4,.63-9.79-.32-12.73-3.14a14.63,14.63,0,0,1-1.52,1.43c-4.7,4-11.38,5.29-17.56,4.52C159,324.33,161.45,331.18,163.3,336.49Z"/><path class="cls-32" d="M178,339.71s.06,0,0,.1a1.61,1.61,0,0,1-.1.27l-.1.2c0,.07-.12.21,0,.27h0v0c.06-.25.44-2.87,1-7,.25-2.05.51-4.47.58-7.18a38.53,38.53,0,0,0-.1-4.26c-.06-.73-.13-1.48-.26-2.24-.06-.38-.1-.76-.19-1.14l-.12-.58-.06-.28,0-.15v-.11h0c-.71.17,1.58-.4-1.6.37a40.79,40.79,0,0,1,1,8.41c.06,2.64,0,5.06-.06,7.11-.15,4.11-.13,6.78-.09,7h0c-.11,0,0-.18,0-.24l.09-.21a1.19,1.19,0,0,0,.09-.27c0-.13-.07-.09,0-.1s.06,0,0,.1a1.3,1.3,0,0,1-.1.26l-.1.21c0,.07-.12.21,0,.28h0v0c0-.25.43-2.87,1-7,.24-2.05.5-4.47.57-7.18a34.12,34.12,0,0,0-.8-8.79c-3.17.77-.88.22-1.58.39h0v.12l0,.14.06.27.12.54c.08.35.13.72.19,1.07.14.72.21,1.44.3,2.14.15,1.41.21,2.79.25,4.11.06,2.64,0,5.06-.06,7.11-.15,4.11-.13,6.78-.09,7h0c-.1,0,0-.18,0-.24l.09-.21a.84.84,0,0,0,.09-.27C178,339.68,177.94,339.72,178,339.71Z"/><path class="cls-33" d="M159,324.33s3.71,10.54,5.45,15.57c0,0,13.53,3.73,22.19-1.35a102.84,102.84,0,0,0,4.18-17"/><path class="cls-28" d="M174.83,292.07l.36,1.25c.23.8.54,2,.88,3.4a68.58,68.58,0,0,1,1.65,11.34,71.08,71.08,0,0,1-.13,10.55l.9.11c.14-3.59.11-5.75.11-5.75s-.45,2.11-1,5.66l.91.12a38.52,38.52,0,0,0-1.64-22.27c-.54-1.41-1-2.51-1.42-3.26Z"/><path class="cls-28" d="M204.81,306.24l-.29.95a28.29,28.29,0,0,1-1,2.67,24.07,24.07,0,0,1-2.09,3.94,16.87,16.87,0,0,1-4,4.27,15.45,15.45,0,0,1-6.37,2.8,16.14,16.14,0,0,1-7.9-.34,11.9,11.9,0,0,1-3.73-1.95c-.18-.11-.82-.71-1.32-1.14l-.09-.09s-.07,0-.1.08l-.2.19-.4.4-.58.57A17.6,17.6,0,0,1,175,320a20.76,20.76,0,0,1-8.75,3.4,26.85,26.85,0,0,1-9.52-.26,43.16,43.16,0,0,1-8.57-2.74,138.14,138.14,0,0,1-13.68-7.22,102.41,102.41,0,0,0-9.32-4.83c-2.27-1-3.57-1.44-3.57-1.44s1.26.54,3.46,1.67,5.28,2.94,9,5.31a121.79,121.79,0,0,0,13.54,7.78,42,42,0,0,0,8.82,3,27.39,27.39,0,0,0,10.08.35,21.76,21.76,0,0,0,9.42-3.75,18,18,0,0,0,1.89-1.58l.22-.22s0,0,0,0,0,0,0,0l.45.34a12.91,12.91,0,0,0,4.24,2.09,16.92,16.92,0,0,0,8.53.11,16.09,16.09,0,0,0,6.64-3.25,17.27,17.27,0,0,0,3.89-4.63,23.45,23.45,0,0,0,1.89-4.13,27.61,27.61,0,0,0,.81-2.74Z"/><path class="cls-34" d="M180.32,260.36a59.26,59.26,0,0,0,5.31,19.27,46.5,46.5,0,0,0,4.06,7.06c.22.3,4.55,6.41,3.66,6.4-5.28-.09-10.14-2.84-15.33-3.83a23.49,23.49,0,0,0-14.33,1.84c-1.74.82-4.06,1.75-5.31.3-.81-1-.58-2.39-.32-3.61a100.91,100.91,0,0,0,2.2-20.05c.08-9.5-1-19.82,4.33-27.7a7.39,7.39,0,0,1,3.53-3.11,6.91,6.91,0,0,1,5.76,1.18C181.77,243.22,179.45,252.45,180.32,260.36Z"/><path class="cls-35" d="M177.86,303.58a75,75,0,0,0-12.69-7c-2.87-1.1-5.85-2-8.25-3.9a24.89,24.89,0,0,1,37.18-1.32c-3.62,5.78-10.34,8.78-16.24,12.19"/><path class="cls-36" d="M170.59,292.8a6.51,6.51,0,0,0-.81-.32,5.84,5.84,0,0,0-1.82-.31,5.75,5.75,0,0,0-1.82.36,6.51,6.51,0,0,0-.8.34,4,4,0,0,0,4.52.43A3.93,3.93,0,0,0,170.59,292.8Z"/><path class="cls-37" d="M156.92,292.71c2.4,1.92,5.38,2.8,8.26,3.9a76,76,0,0,1,12.68,7c5.91-3.4,12.63-6.42,16.24-12.19l-.27-.28c-6.55,3.67-14.36,4.66-21.86,4.09a83.82,83.82,0,0,1-14.86-2.69Z"/><path class="cls-6" d="M179.93,252.31s0,.59-.12,1.68-.1,2.65-.06,4.6a53.13,53.13,0,0,0,2.61,15,40.9,40.9,0,0,0,7.25,13.4l.9,1.06.87.89a15.65,15.65,0,0,0,1.44,1.37l1.28,1.09-1.1-1.27a18.84,18.84,0,0,1-1.23-1.53l-.74-1-.76-1.14a55.1,55.1,0,0,1-6.36-13.42,81.55,81.55,0,0,1-3.34-14.55c-.25-1.9-.43-3.46-.5-4.54Z"/><path class="cls-29" d="M131.66,202s.22,1,.66,2.57,1.06,3.68,1.55,6a23.19,23.19,0,0,1,.58,6,14.91,14.91,0,0,1-.21,1.88c-.08.45-.13.7-.13.7a6.76,6.76,0,0,0,.37-.61,10.19,10.19,0,0,0,.78-1.82,13,13,0,0,0,.21-6.52,20.92,20.92,0,0,0-2.4-6C132.26,202.81,131.66,202,131.66,202Z"/><path class="cls-29" d="M129.06,203.33s.22.78.56,2,.75,2.94,1.18,4.8.78,3.56,1,4.82.38,2.08.38,2.08a11.58,11.58,0,0,0,.44-2.1,14.65,14.65,0,0,0-2.26-9.93A12.18,12.18,0,0,0,129.06,203.33Z"/><path class="cls-38" d="M131.42,215.76a16,16,0,0,0-9.75-11.24,20.73,20.73,0,0,0-15.14.23,29.77,29.77,0,0,0-12.16,9.33,53.12,53.12,0,0,1,38.24,3.25"/><ellipse class="cls-30" cx="116.73" cy="258.46" rx="27.61" ry="24.2" transform="translate(-150.57 353.22) rotate(-85.21)"/><ellipse class="cls-39" cx="119.23" cy="268.92" rx="20.7" ry="18.14" transform="translate(-158.7 365.29) rotate(-85.21)"/><ellipse class="cls-40" cx="119.98" cy="269.93" rx="12.96" ry="11.36" transform="translate(-159.02 366.96) rotate(-85.21)"/><ellipse class="cls-30" cx="110.48" cy="259.55" rx="3.63" ry="3.18" transform="translate(-157.39 347.99) rotate(-85.21)"/><path class="cls-41" d="M92.61,256.44c1.28-15.19,13.11-26.6,26.43-25.49s23.08,14.34,21.81,29.53"/><ellipse class="cls-42" cx="116.73" cy="258.46" rx="27.61" ry="24.2" transform="translate(-150.57 353.22) rotate(-85.21)"/><path class="cls-29" d="M196.74,210.87s-.12.57-.25,1.44a22.82,22.82,0,0,0-.28,3.38,11.49,11.49,0,0,0,.53,3.43,8.81,8.81,0,0,0,.57,1.36s.12-.56.25-1.43a22.82,22.82,0,0,0,.28-3.38,11.49,11.49,0,0,0-.53-3.43A9.29,9.29,0,0,0,196.74,210.87Z"/><path class="cls-38" d="M198.63,211c4.88-4,10.54-3.37,12.66-1.95,1,.69,8.28,6.93,9.52,9.45-1.19-1.69-5.84-2.31-7.9-2.49-6.08-.56-11.34.9-14.06,3.88"/><ellipse class="cls-30" cx="215.89" cy="258.3" rx="26.15" ry="16.61" transform="translate(-52.37 461.69) rotate(-87.28)"/><ellipse class="cls-43" cx="217.15" cy="268.29" rx="19.6" ry="12.45" transform="translate(-61.14 472.47) rotate(-87.28)"/><ellipse class="cls-40" cx="217.78" cy="268.93" rx="12.28" ry="7.8" transform="translate(-61.19 473.71) rotate(-87.28)"/><ellipse class="cls-30" cx="211.71" cy="259.63" rx="3.44" ry="2.18" transform="translate(-57.67 458.79) rotate(-87.28)"/><path class="cls-41" d="M199.3,257.51c.68-14.42,8.66-25.76,17.83-25.32s16,12.48,15.34,26.9"/><ellipse class="cls-42" cx="215.89" cy="258.3" rx="26.15" ry="16.61" transform="translate(-52.37 461.69) rotate(-87.28)"/><path class="cls-8" d="M86.92,388.86s-4.31,5.58-10,18.28c-6.63,14.64-10.66,34.42-14,60.72a45.21,45.21,0,0,0,36.63,4.52s3.75-19.33,6.88-36,1.43-32.36-4.77-39.42A25.53,25.53,0,0,0,86.92,388.86Z"/><circle class="cls-8" cx="81.39" cy="468.66" r="18.51"/><path class="cls-44" d="M99.19,473.87s4.08-20.82,7.21-37.53"/><path class="cls-14" d="M99.27,473.45l2.59-11.87c.77-3.68,1.68-8.06,2.7-12.92.49-2.43,1-5,1.53-7.63.26-1.33.53-2.67.8-4a8.58,8.58,0,0,0,.16-1.07,10.81,10.81,0,0,0,.09-1.11c0-.73,0-1.47,0-2.19a66.5,66.5,0,0,0-1-8.36c-.46-2.68-1.07-5.23-1.67-7.64a83,83,0,0,0-4.29-12.53,42.47,42.47,0,0,0-4.38-7.76,7.67,7.67,0,0,0-.86-1.1c-.27-.31-.49-.57-.68-.77l-.55-.64.51.67.63.81a8.27,8.27,0,0,1,.8,1.14,45.12,45.12,0,0,1,4,7.89,90.4,90.4,0,0,1,3.85,12.54c.55,2.41,1.1,4.94,1.53,7.59a71.89,71.89,0,0,1,1,8.22c.07.71,0,1.4,0,2.09,0,.35-.06.66-.08,1a7.28,7.28,0,0,1-.14,1c-.26,1.38-.51,2.73-.76,4.05-.49,2.66-1,5.22-1.4,7.66l-2.28,13Z"/><path class="cls-1" d="M69.41,536.58c-.14-.77-.28-1.55-.39-2.36C69.13,535,69.27,535.81,69.41,536.58Z"/><path class="cls-45" d="M84.24,542.77a27.23,27.23,0,0,0,1.67,5.56,7.64,7.64,0,0,1,3-.74v0a3.88,3.88,0,0,0,.6-2.86,3,3,0,0,0-1.85-2.19,4.12,4.12,0,0,0-1.16-.17,6.12,6.12,0,0,0-2.28.43Z"/><path class="cls-46" d="M84.47,535a13,13,0,0,0,2.3,4.43,5.27,5.27,0,0,0,4,1.56,3,3,0,0,0,3-2.08c.27-1.46-1-3-1.36-4.36a14.24,14.24,0,0,1-.74-5.63c.28-1.74,1.32-3.29,1.5-5a8.5,8.5,0,0,0-.3-2.91s0-.06,0-.18c-.37-1.69-3.63-15.3-12.15-15.62-9.08-.35-12.25,10.12-12.25,10.12a92.69,92.69,0,0,0,.37,17c.08.7.16,1.36.27,2s.25,1.59.39,2.36a44.87,44.87,0,0,0,1.81,7.08c2.31,6.55,9,12.47,15,11.29s6.27-5,4.67-6.63a2.72,2.72,0,0,0-1.9-.73,7.64,7.64,0,0,0-3,.74,27.23,27.23,0,0,1-1.67-5.56A16.88,16.88,0,0,1,84.47,535Z"/><path class="cls-6" d="M90.79,516a.08.08,0,0,1-.11,0c-.05,0-.13-.21,0-.29.36-.05.46.54.68,1.07a28.68,28.68,0,0,1,1.31,4.93,6.35,6.35,0,0,1-.24,3.32,23.64,23.64,0,0,0-1.34,3.93,12.1,12.1,0,0,0,.41,4.66l.3,1.17a8.11,8.11,0,0,0,.48,1.2,9.11,9.11,0,0,1,.82,2.12,1.62,1.62,0,0,1-.59,1.62,3.24,3.24,0,0,1-1.84.66,4.82,4.82,0,0,1-3.63-1.45,10.64,10.64,0,0,1-1.91-3.37,13.52,13.52,0,0,0-1.68-3.21,22.72,22.72,0,0,1-2.85-4.23,3.71,3.71,0,0,1-.51-1.78,2.3,2.3,0,0,0,0,.49,5,5,0,0,0,.34,1.37A21.11,21.11,0,0,0,83,532.7a13.52,13.52,0,0,1,1.4,3.15,10.91,10.91,0,0,0,1.93,3.77,5.81,5.81,0,0,0,4.43,1.93,4.39,4.39,0,0,0,2.57-.9,2.82,2.82,0,0,0,.9-1.23,2.88,2.88,0,0,0,.13-1.53,9.2,9.2,0,0,0-.94-2.44,8.48,8.48,0,0,1-.42-1c-.1-.38-.21-.75-.31-1.12a12,12,0,0,1-.53-4.23,26.45,26.45,0,0,1,1.13-3.82,7.26,7.26,0,0,0,.27-1.94,9.36,9.36,0,0,0-.24-1.75,25,25,0,0,0-1.73-4.88l-.37-.73c-.1-.21-.3-.38-.48-.32s-.06.28,0,.33A.07.07,0,0,0,90.79,516Z"/><path class="cls-47" d="M84.47,535c-1.41,4.49-.36,9,1.44,13.36,0,0,3.35-1.63,5,0s1.26,5.44-4.68,6.62-12.65-4.74-15-11.29a54.93,54.93,0,0,1-2.47-11.47"/><path class="cls-6" d="M71.22,543.66l-.26-1.1c-.16-.71-.38-1.74-.62-3-.45-2.55-.91-6.09-1.25-10s-.51-7.5-.59-10.09-.12-4.21-.12-4.21-.06.4-.16,1.12-.22,1.77-.34,3.07a62.48,62.48,0,0,0,0,10.21,49.64,49.64,0,0,0,1.88,10.05c.39,1.26.75,2.25,1,2.93Z"/><path class="cls-5" d="M84.27,542.77a6.1,6.1,0,0,1,2.27-.43,3.75,3.75,0,0,1,1.16.17,3,3,0,0,1,1.85,2.19,3.83,3.83,0,0,1-.59,2.86"/><path class="cls-48" d="M64.21,484.8c-.33.88,4.32,29.38,4.83,29.91,0,0,4.19,6,21.34.14.81-3.76,5.65-26.75,6-28.19Q80.3,486.21,64.21,484.8Z"/><path class="cls-8" d="M62.89,467.86c-.35,6.34-.25,17,1.3,17.77,1,.51,2.1,2.39,3.09,2.89,8.18,4.1,18,3.44,26.8.94a5.38,5.38,0,0,0,2.33-1.12c.9-.87,2.41-9.85,2.78-14.47-.84.31-6.77-4.65-18.52-6C69.68,466.69,62.89,467.86,62.89,467.86Z"/><path class="cls-44" d="M96.41,488.34c.9-.87,2.49-10.27,2.86-14.89"/><path class="cls-8" d="M61.68,478a3.82,3.82,0,0,0-1.25,3.24c0,1.22,1.34,2.6,1.16,3.81a5.91,5.91,0,0,1-.94,1.94,6.58,6.58,0,0,0-.76,4c.54,2.17,2.9,3,4.69,3.79,2.28,1,3.1,1.68,5.53,2.17a57.69,57.69,0,0,0,15.13.82c1.36-.08,2.72-.2,4.08-.34,3.12-.33,6.43-.87,8.75-3a3.64,3.64,0,0,0,1.39-3c-.11-.76-.58-1.42-.74-2.17a4.74,4.74,0,0,1,1.26-3.67,8.87,8.87,0,0,0,2-3.44,3.81,3.81,0,0,0-1.37-3.58,4.39,4.39,0,0,0-1.7-.47s-.08.75-.13,1.06c-.12.65-1.06.79-1.6,1-.72.24-1.45.43-2.19.6a42.33,42.33,0,0,1-4.49.7,60.29,60.29,0,0,1-8.28.43,59.31,59.31,0,0,1-9.5-.88c-1.58-.28-3.14-.63-4.69-1s-2.94-1-4.43-1.3a4.1,4.1,0,0,1,0-1.44A6.16,6.16,0,0,0,61.68,478Z"/><path class="cls-14" d="M62.89,477.39a3.77,3.77,0,0,0-.73.26,3.13,3.13,0,0,0-1.58,1.54,3.18,3.18,0,0,0-.3,1.62,6.35,6.35,0,0,0,.57,1.85,4.82,4.82,0,0,1,.51,2,4.23,4.23,0,0,1-.92,2.09,5.16,5.16,0,0,0-.63,1.24,6.31,6.31,0,0,0-.33,1.41,4.6,4.6,0,0,0,.59,3.06,6.93,6.93,0,0,0,2.4,2.29,16.3,16.3,0,0,0,3.11,1.43,53.34,53.34,0,0,0,14.7,2.49,63.24,63.24,0,0,0,7.73-.26,22.52,22.52,0,0,0,7.08-1.68A13.13,13.13,0,0,0,98,495a8,8,0,0,0,1.22-1.19,2.64,2.64,0,0,0,.56-1.7,17.29,17.29,0,0,0-.74-2.91,3.43,3.43,0,0,1,.44-2.37,22.57,22.57,0,0,1,1.33-2,9.52,9.52,0,0,0,1.07-2,3.83,3.83,0,0,0,.24-1.95,3.23,3.23,0,0,0-.66-1.5,3.14,3.14,0,0,0-1.83-1.23,2.37,2.37,0,0,0-.77-.07,2.43,2.43,0,0,1,.76.12,3,3,0,0,1,1.68,1.29,3.14,3.14,0,0,1,.22,3.2,9.66,9.66,0,0,1-1.11,1.82,19.44,19.44,0,0,0-1.47,2,4.11,4.11,0,0,0-.62,2.81,17.36,17.36,0,0,1,.62,2.76c0,.87-.68,1.49-1.52,2.15a13.31,13.31,0,0,1-2.77,1.56,22.1,22.1,0,0,1-6.78,1.46,72.62,72.62,0,0,1-7.58.21,57.08,57.08,0,0,1-14.41-2.26c-2.09-.67-4.1-1.6-5.12-3.17a3.86,3.86,0,0,1-.59-2.55,6.63,6.63,0,0,1,.24-1.27,5,5,0,0,1,.52-1.13,4.68,4.68,0,0,0,.9-2.4,5.08,5.08,0,0,0-.65-2.17,5.89,5.89,0,0,1-.64-1.74,2.84,2.84,0,0,1,.19-1.5,3,3,0,0,1,1.43-1.58A3.88,3.88,0,0,1,62.89,477.39Z"/><path class="cls-14" d="M99.81,479a10.86,10.86,0,0,1-1.38.67,18.1,18.1,0,0,1-4,1.1,76,76,0,0,1-13.72.82,62.09,62.09,0,0,1-13.57-2c-1.71-.47-3.07-.9-4-1.22l-1.45-.5,1.43.56c.92.36,2.27.84,4,1.35A55,55,0,0,0,80.69,482a64.91,64.91,0,0,0,13.76-1,17.36,17.36,0,0,0,4-1.24A11,11,0,0,0,99.81,479Z"/><path class="cls-14" d="M99.05,487.52a14.57,14.57,0,0,1-1.87.88,24.64,24.64,0,0,1-4.73,1.27c-1.9.33-3.65.51-4.92.66s-2.06.27-2.06.27.79.09,2.08.14a23.86,23.86,0,0,0,5-.27,13.86,13.86,0,0,0,4.77-1.71A9.42,9.42,0,0,0,99.05,487.52Z"/><path class="cls-14" d="M60.92,482.63l.16.43a6.23,6.23,0,0,0,.61,1.12A9.67,9.67,0,0,0,64.84,487a13.31,13.31,0,0,0,3.92,1.44c.53.1.95.16,1.25.19l.46,0-.43-.17c-.28-.1-.67-.26-1.16-.46a31.09,31.09,0,0,1-3.64-1.75A15.63,15.63,0,0,1,62,483.91a9.08,9.08,0,0,1-.82-.91Z"/><path class="cls-49" d="M3.28,17.44C-.82,29-2.52,116.56,7,138s58.23,53.55,71.24,80c-4.06-15.11,1.87-30.87,4.14-46.36,1.75-11.83,1.34-23.87.66-35.81C81.22,104.47,77.13,72,60.21,45.53,53.62,35.25,45.27,26.19,36.57,17.6c-7.13-7-15-14-24.71-16.37C6.44,4.27,5.11,12.31,3.28,17.44Z"/><path class="cls-22" d="M76.27,209.07s-.06-.59-.18-1.67q-.11-.79-.21-2c-.07-.76-.16-1.62-.21-2.58-.16-1.91-.25-4.2-.33-6.73s0-5.3,0-8.22c.17-5.83.62-11.1,1.1-14.92.23-1.9.44-3.45.62-4.51l.25-1.66-.5,1.6c-.33,1-.74,2.54-1.18,4.43a78.2,78.2,0,0,0-1.93,15,82.66,82.66,0,0,0,.23,8.35c.24,2.55.53,4.85.9,6.75.15,1,.35,1.81.51,2.56s.32,1.4.46,1.92C76.12,208.49,76.27,209.07,76.27,209.07Z"/><path class="cls-22" d="M76.66,210.6s-.3-2.48-.89-6.46-1.49-9.47-2.73-15.49-2.65-11.41-3.79-15.28-2-6.23-2-6.23.44,2.46,1.17,6.42,1.73,9.42,3,15.42S74,200.4,75,204.3,76.66,210.6,76.66,210.6Z"/><path class="cls-22" d="M77.22,213.06s-.09-.61-.26-1.7-.46-2.67-.93-4.59a58.81,58.81,0,0,0-2-6.66,69.56,69.56,0,0,0-3.47-7.8,87,87,0,0,0-8.45-12.95c-1.21-1.56-2.23-2.8-3-3.63L58,174.43l3.4,5.39c2.08,3.34,4.9,8,7.67,13.24,1.37,2.65,2.6,5.2,3.64,7.56s1.89,4.54,2.55,6.38,1.16,3.36,1.46,4.42Z"/><path class="cls-50" d="M82.34,171.62c-2.27,15.49-8.2,31.25-4.14,46.36C106.6,200.2,112,187.42,112,187.42c-4.1-3.34-6.47-8.44-7.52-13.63s-.88-10.56-.72-15.84c0,0,8.1-80.68-43.35-129.47C31.81,1.39,18.64-2.58,11.86,1.23c9.66,2.33,17.58,9.35,24.71,16.37,8.7,8.59,17,17.65,23.64,27.93C77.13,72,81.22,104.47,83,135.81,83.68,147.75,84.09,159.79,82.34,171.62Z"/><ellipse class="cls-8" cx="224.25" cy="450.73" rx="18.51" ry="17.65" transform="translate(-273.48 526.27) rotate(-72.18)"/><path class="cls-48" d="M232.66,431c-.15-.92-16-20.8-16.7-21,0,0-12-.19-16.72,10.49,1.18,3.65,4.23,23.59,4.61,25Q218,437.85,232.66,431Z"/><path class="cls-8" d="M241.54,445.62c-1.19-5.78-6.45-12.68-9.27-15.32-1.35,5.6-22.88,14-29.25,13.77-.35,1.21,2.84,9.73,4.83,13.92.57-.69,8.18.64,19-4.11C237,449.44,241.54,445.62,241.54,445.62Z"/><path class="cls-44" d="M203,444.07c-.35,1.21,3,10.13,5,14.32"/><path class="cls-8" d="M232.75,424.46a3.79,3.79,0,0,1,2.38,2.51c.4,1.06-.07,2.22.16,3.3.28,1.33,1.76,1.94,2.64,2.91,2.67,2.95,1.29,5.79-1.06,8.19-5.6,5.71-13.32,9.08-21,11.21-3.38.94-7.06,2.21-10.53.94a3.38,3.38,0,0,1-2.49-2.62c0-.46,0-.93,0-1.39a9.07,9.07,0,0,0-1.49-4.52c-.48-.65-1.52-1.13-1.81-1.89a2.89,2.89,0,0,1,.4-2.71,6.77,6.77,0,0,1,2.53-2.59,15.78,15.78,0,0,1,.3,1.56c.11,1,3.59-.45,4.32-.65a58.93,58.93,0,0,0,20.5-10c.72-.55,1.35-1.27,2.11-1.74-.28-.49-.76-.9-1.05-1.38a5,5,0,0,1,1.32-.82A4.53,4.53,0,0,1,232.75,424.46Z"/><path class="cls-14" d="M229,425.38a3.48,3.48,0,0,1,.67-.43,4.8,4.8,0,0,1,2.18-.47,3.3,3.3,0,0,1,1.54.36,2.91,2.91,0,0,1,1.27,1.3,4.07,4.07,0,0,1,.26,2.1,5.43,5.43,0,0,0,.28,2.62,5.94,5.94,0,0,0,2,2,4.28,4.28,0,0,1,.9,1l.21.28.16.32a3.15,3.15,0,0,1,.29.65,4,4,0,0,1-.11,2.84,8.46,8.46,0,0,1-1.82,2.64,33.55,33.55,0,0,1-5.67,4.43,60.58,60.58,0,0,1-6.78,3.84,63.41,63.41,0,0,1-7.23,2.94,27.43,27.43,0,0,1-7,1.64,13.77,13.77,0,0,1-3.29-.15,12.49,12.49,0,0,1-1.52-.37,2.35,2.35,0,0,1-1.18-.66,5.2,5.2,0,0,1-1-2.54c-.19-.93-.32-1.86-.57-2.74a5.23,5.23,0,0,0-1.25-2.32,11,11,0,0,1-1.5-1.62,1.87,1.87,0,0,1-.19-1.72,7.61,7.61,0,0,1,.78-1.42,9,9,0,0,1,1.47-1.71,2.78,2.78,0,0,1,.64-.46,2.68,2.68,0,0,0-.68.42,9.28,9.28,0,0,0-1.59,1.64,7,7,0,0,0-.88,1.42,2.17,2.17,0,0,0,.12,2,11,11,0,0,0,1.46,1.76,4.66,4.66,0,0,1,1,2.13c.2.83.29,1.75.45,2.72a5.92,5.92,0,0,0,1.14,3,3.22,3.22,0,0,0,1.51.93,12.82,12.82,0,0,0,1.64.46,14.16,14.16,0,0,0,3.52.25,27.32,27.32,0,0,0,7.3-1.55,58.58,58.58,0,0,0,7.38-3,54.19,54.19,0,0,0,6.9-4,33.2,33.2,0,0,0,5.78-4.7,9.41,9.41,0,0,0,1.94-3,4.86,4.86,0,0,0,0-3.46,3.49,3.49,0,0,0-.37-.75l-.2-.36-.24-.31c-.17-.21-.32-.42-.5-.62a4.68,4.68,0,0,0-.59-.52c-.81-.59-1.61-1-1.94-1.74-.71-1.43.07-3.26-.74-4.63a3.3,3.3,0,0,0-1.5-1.38,3.52,3.52,0,0,0-1.66-.29,4.84,4.84,0,0,0-2.2.61A3.94,3.94,0,0,0,229,425.38Z"/><path class="cls-14" d="M201.82,440a29.13,29.13,0,0,0,4.61-.93,61.77,61.77,0,0,0,10.72-3.78,53.41,53.41,0,0,0,9.73-5.88c1.16-.89,2.06-1.64,2.67-2.18l.95-.83-1,.78c-.64.51-1.57,1.22-2.75,2.06a62.1,62.1,0,0,1-9.78,5.67,74.75,74.75,0,0,1-10.6,4A34.82,34.82,0,0,1,201.82,440Z"/><path class="cls-14" d="M202.34,447.45a9.73,9.73,0,0,0,2,.53,12.32,12.32,0,0,0,4.9-.22,23.78,23.78,0,0,0,4.58-1.65c1.13-.53,1.8-.9,1.8-.9s-.75.18-1.94.52-2.82.81-4.63,1.23a19.81,19.81,0,0,1-4.68.61A16.51,16.51,0,0,1,202.34,447.45Z"/><path class="cls-14" d="M235.24,428.47l-.11.45a10,10,0,0,1-.41,1.16,16.2,16.2,0,0,1-2.1,3.39,29.34,29.34,0,0,1-2.7,3c-.37.37-.67.67-.89.87l-.34.32.41-.22a9,9,0,0,0,1.08-.65,13.08,13.08,0,0,0,3.08-2.82,9.51,9.51,0,0,0,1.85-3.78,6.27,6.27,0,0,0,.14-1.26Z"/><path class="cls-51" d="M178.44,383.65a6.59,6.59,0,0,0-1.56,5.58,10.61,10.61,0,0,0,.66,1.76l.74,1.61-1.22,1a4.5,4.5,0,0,0-1.52,1.9,4,4,0,0,0,0,1.88,10.22,10.22,0,0,0,3.15,5.58,4.52,4.52,0,0,0-1.42,2.24,5.46,5.46,0,0,0,.81,3.48,15.81,15.81,0,0,0,3.57,4.88,7.76,7.76,0,0,0,5.58,2,4.69,4.69,0,0,0,4-2.6,33.15,33.15,0,0,0,6.35,6.66,18.05,18.05,0,0,0,9.25,3.82c6.19-1.53,10.25-4.88,12.28-10a121.52,121.52,0,0,0-5-19.53c-.56-1.63-1.16-3.25-1.85-4.83l-.73.33a35.92,35.92,0,0,0-10.74-11.87c-9.66-6.61-22.4-5.94-33.56-5.6-2.87.09-6.28,1.38-5.89,4.89a6.41,6.41,0,0,0,3.94,4.92,19.18,19.18,0,0,0,6.43,1.29Z"/><path class="cls-52" d="M200.84,377.62a35.92,35.92,0,0,1,10.74,11.87l.73-.33a34.5,34.5,0,0,0-3.45-6.42c-2-2.91-4.6-5.41-6.64-8.33-1.63-2.35-2.5-5-4-7.32a4.66,4.66,0,0,0-4.08-1.9,5.65,5.65,0,0,0-4.78,8.29C193.74,373.62,197.2,375.15,200.84,377.62Z"/><path class="cls-6" d="M211.57,389.5l-.38-.73c-.26-.48-.65-1.18-1.21-2a36.08,36.08,0,0,0-5.63-6.69,28.87,28.87,0,0,0-4.82-3.68,32,32,0,0,0-6.36-2.9A56.77,56.77,0,0,0,177.45,371c-2.81-.09-5.56-.07-8.21,0a29.31,29.31,0,0,0-4,.23,7,7,0,0,0-1.93.59,5.57,5.57,0,0,0-1.63,1.22,4.29,4.29,0,0,0-.85,3.72,7.71,7.71,0,0,0,1.56,3.15,7.88,7.88,0,0,0,2.49,2.09,10.85,10.85,0,0,0,2.82.9,41.14,41.14,0,0,0,5,.48l3.74.21,3.19.17-3.17-.34-3.73-.4a41.27,41.27,0,0,1-4.88-.67,10.11,10.11,0,0,1-2.63-.94,7.19,7.19,0,0,1-2.2-2,7,7,0,0,1-1.32-2.84,3.38,3.38,0,0,1,.72-2.94,4.41,4.41,0,0,1,1.33-.95,6.15,6.15,0,0,1,1.68-.48,29.34,29.34,0,0,1,3.81-.16c2.65,0,5.38,0,8.17.06a59.79,59.79,0,0,1,15.47,2.24,32.64,32.64,0,0,1,6.25,2.66,29.39,29.39,0,0,1,4.84,3.44,37.46,37.46,0,0,1,5.85,6.37c.6.83,1,1.5,1.32,2Z"/><path class="cls-6" d="M190.2,377.13s-.33,0-.92.13a19.25,19.25,0,0,0-2.48.61,20.81,20.81,0,0,0-7.38,4,8.55,8.55,0,0,0-2.75,3.91,5.77,5.77,0,0,0,.06,3.91,22.6,22.6,0,0,0,1.18,2.26l.46.81-.3-.88c-.18-.56-.54-1.38-.8-2.37a5.35,5.35,0,0,1,.29-3.41,8.71,8.71,0,0,1,2.59-3.39,29.15,29.15,0,0,1,6.86-4.36c1-.44,1.75-.76,2.31-1Z"/><path class="cls-6" d="M186.84,386.36s-1.14.62-2.93,1.7a55.06,55.06,0,0,0-6.71,4.71,9,9,0,0,0-1.74,1.74,3,3,0,0,0-.49,1.22,4,4,0,0,0,0,1.2,9.53,9.53,0,0,0,1.37,3.54A9.77,9.77,0,0,0,178,402.4a9.11,9.11,0,0,0,.71.58s-.22-.24-.58-.7a11.08,11.08,0,0,1-1.26-2.08,10.3,10.3,0,0,1-.92-3.37,2.37,2.37,0,0,1,.43-1.71,9.54,9.54,0,0,1,1.58-1.49c2.42-2,4.68-3.8,6.31-5.11S186.84,386.36,186.84,386.36Z"/><path class="cls-6" d="M184.64,398.72a9.48,9.48,0,0,0-1.22.55,22.14,22.14,0,0,0-3.1,2c-.61.47-1.3.94-2,1.57a4.44,4.44,0,0,0-1.57,2.69,6.06,6.06,0,0,0,.77,3.32,19.31,19.31,0,0,0,1.78,3,9.91,9.91,0,0,0,5.52,4,6.2,6.2,0,0,0,5.43-1.09,3.66,3.66,0,0,0,1.19-1.82,3,3,0,0,0,0-1.61,5.08,5.08,0,0,0-.54-1.23l.12.32a3.86,3.86,0,0,1,.25.94,3.07,3.07,0,0,1-1.37,3,5.69,5.69,0,0,1-4.84.62,9.57,9.57,0,0,1-4.87-3.74,22.61,22.61,0,0,1-1.72-2.84,5.4,5.4,0,0,1-.79-2.76,3.75,3.75,0,0,1,1.17-2.24c.59-.62,1.25-1.16,1.82-1.67A21.66,21.66,0,0,1,184.64,398.72Z"/><path class="cls-6" d="M194.3,407.49l-.29.21a9.08,9.08,0,0,1-.79.52,10.17,10.17,0,0,1-2.74,1.06,10,10,0,0,1-2.93.27,7.41,7.41,0,0,1-.94-.11l-.35-.06.29.22a3.82,3.82,0,0,0,.87.49,5.37,5.37,0,0,0,6.16-1.45,4.14,4.14,0,0,0,.56-.83Z"/><path class="cls-6" d="M219.12,413.52s-.13-.94-.38-2.63-.7-4.15-1.39-7.14a107,107,0,0,0-2.92-10.39,40.64,40.64,0,0,0-5.84-11.93c-2.89-3.78-6.16-6.78-7.78-10.47-.46-.9-.9-1.8-1.38-2.64-.24-.43-.49-.84-.76-1.24a4.5,4.5,0,0,0-1-1.11,5.42,5.42,0,0,0-5.07-.81,6.1,6.1,0,0,0-3.27,2.65,5.74,5.74,0,0,0-.75,3.07,6.11,6.11,0,0,0,.41,1.94,4.92,4.92,0,0,0,.29.62,5.91,5.91,0,0,1-.24-.64,5.71,5.71,0,0,1-.28-1.93,5.45,5.45,0,0,1,.87-2.87,5.58,5.58,0,0,1,3.14-2.3,4.78,4.78,0,0,1,4.41.86,7.6,7.6,0,0,1,1.48,2.17c.44.83.85,1.72,1.28,2.64a28.22,28.22,0,0,0,1.49,2.8c.59.92,1.25,1.79,1.94,2.67,1.39,1.74,2.92,3.42,4.31,5.26a43.15,43.15,0,0,1,5.84,11.57c1.38,3.79,2.45,7.27,3.27,10.22s1.38,5.36,1.76,7S219.12,413.52,219.12,413.52Z"/><path class="cls-6" d="M191.16,412.89a24.52,24.52,0,0,0,1.56,2.42,22.32,22.32,0,0,0,4.85,5,16.14,16.14,0,0,0,6.39,2.89,12.73,12.73,0,0,0,2.11.24c.49,0,.77,0,.77,0l-.75-.17a19.54,19.54,0,0,1-2-.61,23.76,23.76,0,0,1-5.88-3.25,42.7,42.7,0,0,1-5.09-4.48Z"/></g></g></svg>