<svg xmlns="http://www.w3.org/2000/svg" viewBox="0 0 32.69 46.33"><defs><style>.cls-1{fill:#442702;}.cls-2{fill:#e29612;}</style></defs><title>Asset 220</title><g id="Layer_2" data-name="Layer 2"><g id="Layer_2-2" data-name="Layer 2"><path class="cls-1" d="M32.24,12.34a1.81,1.81,0,0,0-.34.08c-1.16.4-2.34,2-3.18,2.84-1.27,1.22-2.43,2.52-3.64,3.79A22.35,22.35,0,0,1,22.4,21.6c-.62.46-2.46,2.58-3.26,2a.91.91,0,0,1-.29-.61c-.63-3.47-.08-7.21-.33-10.74-.14-2-.35-4.08-.67-6.09-.17-1-.36-2-.58-3-.12-.57-.9-2.27-.68-2.77A37.74,37.74,0,0,0,14,11.77c-.17,1.92-.25,3.85-.29,5.78,0,1.66.34,3.86-.36,5.46.11-.25-2.43-2-2.79-2.28a110.75,110.75,0,0,0-8.62-7.21c-.18-.13-.46-.26-.64-.1s-.1.3-.06.45C2,16.79,4.46,19.4,6.5,21.64a37.59,37.59,0,0,1,6,8.59,19,19,0,0,1,1.65,7.12,42.54,42.54,0,0,0,1,7.48,3.08,3.08,0,0,0,.38,1,1.16,1.16,0,0,0,.93.52,1.6,1.6,0,0,0,1.14-.72c1.72-2.28,1.12-5.37,1.3-7.92s.64-5.46,2.32-7.73c2-2.71,3.36-5.36,5.23-8.12,1.24-1.83,2.51-3.65,3.82-5.43.67-.92,1.45-1.81,2.07-2.75C32.58,13.24,33.05,12.23,32.24,12.34Z"/><path class="cls-2" d="M31.06,12a1.93,1.93,0,0,0-.33.08c-1.16.4-2.34,2-3.19,2.85-1.27,1.21-2.43,2.51-3.64,3.78a20.87,20.87,0,0,1-2.68,2.55c-.61.46-2.46,2.58-3.26,2a.91.91,0,0,1-.29-.61c-.63-3.47-.08-7.21-.32-10.74-.15-2-.36-4.07-.68-6.09-.16-1-.35-2-.57-3C16,2.21,15.2.51,15.41,0a37.74,37.74,0,0,0-2.62,11.44c-.17,1.93-.25,3.86-.29,5.78,0,1.67.34,3.87-.36,5.46.11-.25-2.43-1.95-2.79-2.28A110.75,110.75,0,0,0,.73,13.19c-.18-.13-.46-.26-.64-.1a.47.47,0,0,0-.06.46c.8,2.91,3.25,5.53,5.29,7.76a37.5,37.5,0,0,1,6,8.59A19,19,0,0,1,13,37a42.55,42.55,0,0,0,1,7.47,3.08,3.08,0,0,0,.38,1,1.12,1.12,0,0,0,.93.52,1.6,1.6,0,0,0,1.14-.72c1.73-2.28,1.12-5.37,1.3-7.92s.64-5.46,2.32-7.73c2-2.71,3.37-5.36,5.23-8.12q1.86-2.75,3.82-5.43c.67-.92,1.45-1.8,2.07-2.75C31.4,12.91,31.87,11.9,31.06,12Z"/></g></g></svg>