<svg xmlns="http://www.w3.org/2000/svg" xmlns:xlink="http://www.w3.org/1999/xlink" viewBox="0 0 193.29 193.29"><defs><style>.cls-1{isolation:isolate;}.cls-2{fill:url(#Безымянный_градиент_69);}.cls-3{fill:url(#Безымянный_градиент_213);}.cls-4{fill:url(#Безымянный_градиент_213-2);}.cls-5{fill:url(#Безымянный_градиент_213-3);}.cls-6{opacity:0.8;fill:url(#Безымянный_градиент_252);}.cls-6,.cls-8{mix-blend-mode:multiply;}.cls-7{fill:url(#Безымянный_градиент_69-2);}.cls-8{fill:url(#Безымянный_градиент_84);}.cls-9{opacity:0.3;mix-blend-mode:screen;fill:url(#radial-gradient);}</style><radialGradient id="Безымянный_градиент_69" cx="5761.75" cy="2978.93" r="290.01" gradientTransform="translate(2126.41 840.57) rotate(172.79) scale(0.33)" gradientUnits="userSpaceOnUse"><stop offset="0.37" stop-color="#fffdf8"/><stop offset="0.59" stop-color="#fcfbf7"/><stop offset="0.75" stop-color="#f3f6f5"/><stop offset="0.88" stop-color="#e4ecf1"/><stop offset="1" stop-color="#cfdfeb"/><stop offset="1" stop-color="#cedfeb"/></radialGradient><radialGradient id="Безымянный_градиент_213" cx="5621.21" cy="2900.56" r="390.63" gradientTransform="translate(2126.41 840.57) rotate(172.79) scale(0.33)" gradientUnits="userSpaceOnUse"><stop offset="0" stop-color="#ffbf00"/><stop offset="0.36" stop-color="#ffbc00"/><stop offset="0.62" stop-color="#ffb300"/><stop offset="0.84" stop-color="#ffa300"/><stop offset="1" stop-color="#ff9300"/></radialGradient><radialGradient id="Безымянный_градиент_213-2" cx="5577.79" cy="2888.64" r="171.86" xlink:href="#Безымянный_градиент_213"/><radialGradient id="Безымянный_градиент_213-3" cx="5628.88" cy="2848.54" r="221.23" xlink:href="#Безымянный_градиент_213"/><radialGradient id="Безымянный_градиент_252" cx="1256.57" cy="-115.13" r="12.85" gradientTransform="matrix(1.45, 0.63, -0.67, 1.56, -1752.22, -490.74)" gradientUnits="userSpaceOnUse"><stop offset="0.13" stop-color="#7a7a7a"/><stop offset="0.17" stop-color="#878787"/><stop offset="0.35" stop-color="#b2b2b2"/><stop offset="0.51" stop-color="#d4d4d4"/><stop offset="0.67" stop-color="#ececec"/><stop offset="0.81" stop-color="#fafafa"/><stop offset="0.94" stop-color="#fff"/></radialGradient><radialGradient id="Безымянный_градиент_69-2" cx="5598.41" cy="2887.57" r="51.32" xlink:href="#Безымянный_градиент_69"/><radialGradient id="Безымянный_градиент_84" cx="5808.17" cy="3105.76" r="454.55" gradientTransform="translate(2126.41 840.57) rotate(172.79) scale(0.33)" gradientUnits="userSpaceOnUse"><stop offset="0.45" stop-color="#fffdf8"/><stop offset="0.6" stop-color="#fffcf5"/><stop offset="0.69" stop-color="#fdf8ec"/><stop offset="0.78" stop-color="#faf1dd"/><stop offset="0.85" stop-color="#f7e7c7"/><stop offset="0.93" stop-color="#f2daab"/><stop offset="0.99" stop-color="#ecca89"/><stop offset="1" stop-color="#ebc885"/></radialGradient><radialGradient id="radial-gradient" cx="41810.48" cy="-56817.72" r="938.53" gradientTransform="matrix(0, -0.02, 0.05, 0, 2613.57, 989.15)" gradientUnits="userSpaceOnUse"><stop offset="0.25" stop-color="#fff"/><stop offset="0.41" stop-color="#bdbdbd"/><stop offset="0.63" stop-color="#6d6d6d"/><stop offset="0.8" stop-color="#323232"/><stop offset="0.93" stop-color="#0e0e0e"/><stop offset="1"/></radialGradient></defs><title>Asset 218</title><g class="cls-1"><g id="Layer_2" data-name="Layer 2"><g id="Layer_2-2" data-name="Layer 2"><path class="cls-2" d="M1.44,80.14a96.63,96.63,0,1,1,78.7,111.72A96.62,96.62,0,0,1,1.44,80.14Z"/><path class="cls-3" d="M154.41,120c-12-58-54.25-93.1-101-109.74A96.72,96.72,0,0,0,2.75,119.56C101.43,168,154.41,120,154.41,120Z"/><path class="cls-4" d="M191.89,113A96.39,96.39,0,0,0,172,36.1q4,50.06-17.54,83.86C169.63,120.28,182.23,118.06,191.89,113Z"/><path class="cls-5" d="M80.14,191.86a96.58,96.58,0,0,0,91.06-33.72c-.52-11.68-5.89-24.35-15.52-37.88-14.76,45.68-42.89,63.57-75.77,71.55Z"/><path class="cls-6" d="M172,126c-5,11.49-17.67,17-28.4,12.43s-15.41-17.69-10.45-29.18,17.66-17,28.39-12.43S176.94,114.49,172,126Z"/><path class="cls-7" d="M140.16,114.9c3.5-9.78,12.75-15.42,20.65-12.59s11.48,13,8,22.83-12.75,15.42-20.65,12.59S136.67,124.68,140.16,114.9Z"/><path class="cls-8" d="M1.44,80.14a96.63,96.63,0,1,1,78.7,111.72A96.62,96.62,0,0,1,1.44,80.14Z"/><path class="cls-9" d="M91,2.69c23.53-.14,42,9.59,41.33,21.72S112,46.51,88.46,46.65,46.54,37.07,47.22,24.92,67.54,2.82,91,2.69Z"/></g></g></g></svg>