<svg xmlns="http://www.w3.org/2000/svg" viewBox="0 0 59.21 69.69"><defs><style>.cls-1{fill:#8e5623;}.cls-2{fill:#f4af69;}</style></defs><title>Asset 238</title><g id="Layer_2" data-name="Layer 2"><g id="Layer_2-2" data-name="Layer 2"><path class="cls-1" d="M50.47,52.48a6.27,6.27,0,0,1,.07.64,20,20,0,0,1-2.7,10c-1.25,2.33-2.73,5.65-5.64,6.09C36.88,70,35.11,67.79,32.11,67c-4-1.11-6.55,1.64-10.3,2.51a6.39,6.39,0,0,1-6-1.3A18.63,18.63,0,0,1,13.6,66,22.37,22.37,0,0,1,9.11,54.49c-.34-2.65,1.22-4.29,3.05-6s4.17-3.57,5.73-5.74,2.61-4.43,4.31-6.37a9.13,9.13,0,0,1,6-3.21c2.24-.19,5.24-.2,7.2,1.05,3.23,2.09,4.82,5.76,6.83,8.88a17.38,17.38,0,0,0,3.66,4.31C47.74,48.9,50,50,50.47,52.48Z"/><path class="cls-1" d="M59,38.36c-.62,5.44-3.79,9.24-7,9.14-3.48-.12-6.16-5.13-5.54-10.57.47-4.16,2.51-7.53,5-8.72a5.33,5.33,0,0,1,.39-2.36A12.82,12.82,0,0,1,52.59,24a3.67,3.67,0,0,0,.47-2.18,9.13,9.13,0,0,1,1.88,2.49,5.35,5.35,0,0,1,.56,3,6.75,6.75,0,0,0,0,.8A10.65,10.65,0,0,1,59,38.36Z"/><path class="cls-1" d="M2.2,38.36c.63,5.44,3.8,9.24,7,9.14,3.48-.12,6.16-5.13,5.54-10.57-.47-4.16-2.51-7.53-5-8.72a5.33,5.33,0,0,0-.39-2.36A14.16,14.16,0,0,0,8.66,24a3.67,3.67,0,0,1-.47-2.18,9.13,9.13,0,0,0-1.88,2.49,5.35,5.35,0,0,0-.56,3,6.75,6.75,0,0,1,0,.8A10.67,10.67,0,0,0,2.2,38.36Z"/><path class="cls-1" d="M12,21.35c.21,6.63,3.66,11.53,7.51,11.72,4.21.2,7.94-5.58,7.73-12.21-.17-5-2.29-9.32-5.16-11A6.68,6.68,0,0,0,21.87,7a17.64,17.64,0,0,0-.64-2.26A4.35,4.35,0,0,1,20.88,2a11.06,11.06,0,0,0-2.52,2.81,6.61,6.61,0,0,0-1,3.62c0,.33-.05,1-.05,1A12.89,12.89,0,0,0,12,21.35Z"/><path class="cls-1" d="M47.26,21.35C47,28,43.59,32.88,39.75,33.07c-4.21.2-7.94-5.58-7.73-12.21.17-5,2.29-9.32,5.16-11A6.53,6.53,0,0,1,37.42,7a17.64,17.64,0,0,1,.64-2.26A4.35,4.35,0,0,0,38.41,2a10.83,10.83,0,0,1,2.51,2.81,6.54,6.54,0,0,1,1,3.62,8.76,8.76,0,0,0,0,1A12.88,12.88,0,0,1,47.26,21.35Z"/><path class="cls-2" d="M48.43,50.44a4.48,4.48,0,0,1,.07.64,19.94,19.94,0,0,1-2.69,10c-1.26,2.34-2.74,5.66-5.65,6.09-5.31.8-7.08-1.37-10.09-2.21-4-1.11-6.55,1.65-10.29,2.51a6.37,6.37,0,0,1-6-1.29,18.63,18.63,0,0,1-2.23-2.21A22.57,22.57,0,0,1,7.07,52.45c-.33-2.65,1.22-4.29,3-6s4.18-3.57,5.73-5.73,2.61-4.43,4.31-6.38a9.12,9.12,0,0,1,6-3.2c2.25-.2,5.25-.21,7.2,1.05,3.23,2.08,4.83,5.75,6.83,8.87a17.45,17.45,0,0,0,3.67,4.31C45.7,46.86,48,48,48.43,50.44Z"/><path class="cls-2" d="M57,36.32c-.62,5.44-3.8,9.25-7,9.14-3.48-.12-6.16-5.12-5.54-10.57.48-4.16,2.51-7.53,5-8.71a5.39,5.39,0,0,1,.4-2.37A14.69,14.69,0,0,1,50.55,22,3.57,3.57,0,0,0,51,19.81,9.13,9.13,0,0,1,52.9,22.3a5.37,5.37,0,0,1,.56,3c0,.28,0,.81,0,.81A10.64,10.64,0,0,1,57,36.32Z"/><path class="cls-2" d="M.17,36.32c.62,5.44,3.79,9.25,7,9.14,3.47-.12,6.16-5.12,5.54-10.57-.48-4.16-2.52-7.53-5-8.71a5.53,5.53,0,0,0-.4-2.37A14.69,14.69,0,0,0,6.63,22a3.65,3.65,0,0,1-.48-2.18A9.34,9.34,0,0,0,4.27,22.3a5.45,5.45,0,0,0-.56,3,6.9,6.9,0,0,1,0,.81A10.62,10.62,0,0,0,.17,36.32Z"/><path class="cls-2" d="M10,19.32C10.21,26,13.66,30.85,17.51,31c4.2.2,7.93-5.57,7.72-12.2-.16-5.06-2.29-9.32-5.16-11a6.47,6.47,0,0,0-.24-2.89,19.38,19.38,0,0,0-.63-2.26A4.38,4.38,0,0,1,18.84,0a11.06,11.06,0,0,0-2.51,2.82,6.53,6.53,0,0,0-1,3.61,8.62,8.62,0,0,1,0,1A12.91,12.91,0,0,0,10,19.32Z"/><path class="cls-2" d="M45.22,19.32C45,26,41.56,30.85,37.71,31c-4.21.2-7.94-5.57-7.72-12.2.16-5.06,2.28-9.32,5.15-11a6.49,6.49,0,0,1,.25-2.89A16.11,16.11,0,0,1,36,2.68,4.38,4.38,0,0,0,36.37,0a11.1,11.1,0,0,1,2.52,2.82,6.52,6.52,0,0,1,1,3.61c0,.34,0,1,0,1A12.89,12.89,0,0,1,45.22,19.32Z"/></g></g></svg>