<svg xmlns="http://www.w3.org/2000/svg" viewBox="0 0 41.1 42.79"><defs><style>.cls-1{fill:#3d1114;}.cls-2{fill:#a06961;}</style></defs><title>Asset 236</title><g id="Layer_2" data-name="Layer 2"><g id="Layer_2-2" data-name="Layer 2"><path class="cls-1" d="M18.61,37.46C17.7,41.73,11.75,44,7.4,41.63,2.17,38.76,1,32,2.42,27.22A122.39,122.39,0,0,1,8.17,11.84C9.9,8,11.77,2.42,16.8,1c1.49-.86,1.46,14.37,1.71,18C18.58,19.94,19.79,32,18.61,37.46Z"/><path class="cls-1" d="M24.59,38c1.08,4.22,7.1,6.26,11.36,3.69,5.12-3.1,6-9.93,4.44-14.61a124.35,124.35,0,0,0-6.32-15.13C32.2,8.17,30.12,2.67,25,1.45c-1.52-.79-.92,14.42-1,18C24,20.46,23.21,32.57,24.59,38Z"/><path class="cls-2" d="M16.75,36.72C15.83,41,9.89,43.27,5.54,40.89.3,38-.86,31.22.56,26.48A124.65,124.65,0,0,1,6.3,11.09C8,7.27,9.91,1.68,14.93.24c1.5-.85,1.47,14.38,1.72,18C16.72,19.19,17.92,31.26,16.75,36.72Z"/><path class="cls-2" d="M22,36.55c1.08,4.23,7.1,6.26,11.36,3.69,5.12-3.09,6-9.93,4.44-14.61A124.35,124.35,0,0,0,31.46,10.5c-1.87-3.75-3.95-9.25-9-10.47-1.52-.79-.92,14.43-1,18C21.36,19,20.6,31.15,22,36.55Z"/></g></g></svg>