<svg xmlns="http://www.w3.org/2000/svg" viewBox="0 0 51.61 53.7"><defs><style>.cls-1{fill:#0c0a09;}.cls-2{fill:#483c3a;}</style></defs><title>Asset 243</title><g id="Layer_2" data-name="Layer 2"><g id="Layer_2-2" data-name="Layer 2"><path class="cls-1" d="M30.61,42.31c.61,6.43,2.84,12,9.6,11.33,5.36-.56,9.55-6.2,10.73-11.1,2.27-9.41-1.58-20.14-6.37-28.12-1.3-2.18-9.7-16.66-12.66-11.55a5.83,5.83,0,0,0-.56,2.78c-.23,7.29-.48,14.58-.56,21.87C30.75,30.77,30.09,36.84,30.61,42.31Z"/><path class="cls-1" d="M24.07,42.31c-.61,6.43-2.84,12-9.59,11.33-5.37-.56-9.56-6.2-10.74-11.1C1.47,33.13,5.32,22.4,10.11,14.42c1.3-2.18,9.7-16.66,12.66-11.55a5.83,5.83,0,0,1,.56,2.78c.23,7.29.48,14.58.57,21.87C23.93,30.77,24.59,36.84,24.07,42.31Z"/><path class="cls-2" d="M27.54,40.53c.61,6.42,2.84,12,9.6,11.33,5.36-.56,9.55-6.21,10.73-11.11,2.27-9.41-1.58-20.13-6.37-28.12C40.2,10.46,31.8-4,28.84,1.08a5.85,5.85,0,0,0-.56,2.78c-.23,7.29-.48,14.58-.56,21.88C27.68,29,27,35.05,27.54,40.53Z"/><path class="cls-2" d="M21,40.53c-.61,6.42-2.84,12-9.59,11.33C6,51.3,1.85,45.65.67,40.75-1.6,31.34,2.25,20.62,7,12.63,8.34,10.46,16.74-4,19.7,1.08a5.85,5.85,0,0,1,.56,2.78c.23,7.29.48,14.58.57,21.88C20.86,29,21.52,35.05,21,40.53Z"/></g></g></svg>