<svg xmlns="http://www.w3.org/2000/svg" viewBox="0 0 46.82 52.74"><defs><style>.cls-1{fill:#aa742d;}.cls-2{fill:#f0d5a4;}</style></defs><title>Asset 240</title><g id="Layer_2" data-name="Layer 2"><g id="Layer_2-2" data-name="Layer 2"><path class="cls-1" d="M42.52,19.5a8.82,8.82,0,0,0,1.06-4c.87,1.55,1.75,3.47.87,5"/><path class="cls-1" d="M3.66,22.41a7.59,7.59,0,0,1,.53-5.61,6.15,6.15,0,0,0,1.65,4.35"/><path class="cls-1" d="M14.37,6.71l1.11-5.65a18,18,0,0,1,1,5.22"/><path class="cls-1" d="M30.74,5.51A11.16,11.16,0,0,0,32,.79a6.71,6.71,0,0,1,.82,4.56"/><path class="cls-1" d="M15.72,32.26c-3.84,3.83-6.8,9.23-5.62,14.53,1.88,8.45,10.26.78,14.6.93a8.82,8.82,0,0,1,4.1,1.11c2.7,1.87,6.23,6,9.32,2.66,4.73-5.05-.31-14.43-4-18.46C28.74,27.27,21.45,26.54,15.72,32.26Z"/><path class="cls-1" d="M39.13,21.2c4-4,7.43.58,7.67,4.82a14.24,14.24,0,0,1-1.2,6.78c-1.51,3.31-4.75,4.18-7.68,1.73C33.31,30.67,35.54,24.81,39.13,21.2Z"/><path class="cls-1" d="M12.65,26.8a10.33,10.33,0,0,1,.91,2c1,3.07-1.45,5.51-3.93,7.2A6.37,6.37,0,0,1,7,37.18c-3,.43-4.93-3.48-5.22-5.9-.38-3.11-.11-7.65,2.65-9.75S11.29,24.49,12.65,26.8Z"/><path class="cls-1" d="M11.57,20.67a4.83,4.83,0,0,0,1.79,1.48,8.43,8.43,0,0,0,2.1.54,6.1,6.1,0,0,0,5.84-3A6.22,6.22,0,0,0,22,15.61c-.4-3.06-2.3-9.48-6.22-9.38-4.6.11-6.22,9.46-5.13,12.7A6.43,6.43,0,0,0,11.57,20.67Z"/><path class="cls-1" d="M26.46,11.62a32.59,32.59,0,0,0-.63,6.23c0,3.35,2.8,5,5.89,4.61,3.65-.46,5.39-2,5.53-5.89.13-3.41-.66-11.95-5.85-11.19C27.94,5.89,27.08,8.52,26.46,11.62Z"/><path class="cls-2" d="M40.84,18.72a8.87,8.87,0,0,0,1.06-4c.87,1.55,1.75,3.47.87,5"/><path class="cls-2" d="M2,21.62A7.59,7.59,0,0,1,2.51,16a6.19,6.19,0,0,0,1.64,4.35"/><path class="cls-2" d="M12.69,5.93,13.8.28a17.92,17.92,0,0,1,1,5.21"/><path class="cls-2" d="M29.06,4.73A11,11,0,0,0,30.26,0a6.68,6.68,0,0,1,.83,4.56"/><path class="cls-2" d="M14,31.47C10.2,35.3,7.24,40.71,8.42,46c1.88,8.45,10.26.78,14.6.93a9,9,0,0,1,4.1,1.12c2.7,1.86,6.23,6,9.32,2.65,4.73-5-.31-14.43-4-18.46C27.06,26.48,19.76,25.75,14,31.47Z"/><path class="cls-2" d="M37.45,20.41c4-4,7.42.59,7.67,4.83A14.23,14.23,0,0,1,43.92,32c-1.51,3.31-4.76,4.18-7.68,1.73C31.63,29.89,33.86,24,37.45,20.41Z"/><path class="cls-2" d="M11,26a10.62,10.62,0,0,1,.91,2c1,3.08-1.46,5.51-3.93,7.2a6.37,6.37,0,0,1-2.59,1.19C2.4,36.83.43,32.91.13,30.5c-.37-3.12-.11-7.66,2.66-9.76S9.61,23.7,11,26Z"/><path class="cls-2" d="M9.89,19.88a4.75,4.75,0,0,0,1.79,1.48,8.32,8.32,0,0,0,2.1.54,6.09,6.09,0,0,0,5.84-3,6.25,6.25,0,0,0,.71-4.12c-.4-3.05-2.3-9.48-6.22-9.38C9.51,5.56,7.89,14.9,9,18.14A6.28,6.28,0,0,0,9.89,19.88Z"/><path class="cls-2" d="M24.78,10.84a32.48,32.48,0,0,0-.63,6.22c0,3.36,2.8,5,5.89,4.61,3.65-.46,5.39-2,5.53-5.89.13-3.41-.66-11.95-5.85-11.18C26.26,5.11,25.4,7.74,24.78,10.84Z"/></g></g></svg>