<svg xmlns="http://www.w3.org/2000/svg" viewBox="0 0 42.22 57.7"><defs><style>.cls-1{fill:#122b09;}.cls-2{fill:#56794b;}</style></defs><title>Asset 237</title><g id="Layer_2" data-name="Layer 2"><g id="Layer_2-2" data-name="Layer 2"><path class="cls-1" d="M29.65,14.91a47.42,47.42,0,0,1-1.44,6.72,11.59,11.59,0,0,0,0,5.24,9.74,9.74,0,0,0,.67,2.78c1.4,3,4.3,1.16,5.77-.83A43.56,43.56,0,0,0,37,24.57a11.75,11.75,0,0,1,1.37-2c.51-.59.85-1.26,1.7-1.39a.31.31,0,0,0,.17-.05.25.25,0,0,0,.08-.15l.81-2.55a.72.72,0,0,1,.21-.37c-.19.15.14,1.32.18,1.52.14.83.14,1.66.2,2.5.11,1.28.76,2.21.31,3.52-.8,2.31-2.26,4.26-3.33,6.42a23.72,23.72,0,0,0-1.68,6.65A24.45,24.45,0,0,1,32,50.06a32.94,32.94,0,0,1-6.77,6.46c-2.5,1.68-4.93,1.35-7.61.37C15.29,56,13.5,53.43,12,51.54A45.09,45.09,0,0,1,5.72,41c-.9-2-1.61-4.14-2.37-6.23-.35-1-.62-2-.91-3a9.53,9.53,0,0,1-.51-5c.07-.38-.47-3.59,1.4-6.18-.36,1.59.94,3,.65,4.77a1.76,1.76,0,0,1,1.62.67,10.41,10.41,0,0,1,1.92,2.56,6.25,6.25,0,0,0,1.13,1.79,1.53,1.53,0,0,0,1.94.19c.85-.77-.06-1.94-.26-3.07-.51-2.93-.95-5.89-1.17-8.86-.16-2.15-1-4.86.29-6.82.2-.3.45-.57.63-.88a6.09,6.09,0,0,0,.6-2.44A16.7,16.7,0,0,1,11.53,5c-.13.37.65,2.13.75,2.62s.05,1.9.71,2.21a8.93,8.93,0,0,1,.87.3,1.71,1.71,0,0,1,.58.69,19.16,19.16,0,0,1,1.76,6.7c.18,1.38.36,6.48,2.29,6.58,2.39.14,3.52-4.87,3.91-6.52.52-2.17,1-4.36,1.69-6.49A16.52,16.52,0,0,1,26,6.4c.27-.38.61-.4.89-.78a11.17,11.17,0,0,0,1-2A13.06,13.06,0,0,1,29.39,1.1c.09-.12.23-.25.37-.19s.14.21.15.34a24.78,24.78,0,0,1-.23,3.22,17.9,17.9,0,0,0-.33,2.89,4.26,4.26,0,0,0,.59,1.44,7,7,0,0,1,0,4.34Q29.8,14,29.65,14.91Z"/><path class="cls-2" d="M27.86,14a45.65,45.65,0,0,1-1.44,6.71,11.78,11.78,0,0,0,0,5.25,9.74,9.74,0,0,0,.67,2.78c1.41,3,4.3,1.15,5.77-.83a43.64,43.64,0,0,0,2.44-4.25,12.19,12.19,0,0,1,1.36-2c.51-.58.85-1.25,1.71-1.38a.35.35,0,0,0,.17-.06.32.32,0,0,0,.08-.14l.81-2.55a.71.71,0,0,1,.2-.37c-.18.14.15,1.31.18,1.52.14.83.14,1.66.21,2.49.1,1.28.75,2.21.3,3.53C39.49,27,38,29,37,31.16a24.07,24.07,0,0,0-1.68,6.65,24.52,24.52,0,0,1-5,11.36,33.19,33.19,0,0,1-6.77,6.46C21,57.3,18.52,57,15.85,56c-2.35-.86-4.13-3.45-5.68-5.34a45.8,45.8,0,0,1-6.24-10.5c-.9-2-1.61-4.14-2.36-6.23-.36-1-.63-2-.92-3a9.54,9.54,0,0,1-.5-5c.07-.38-.48-3.6,1.39-6.18-.35,1.59.94,2.95.65,4.76a1.81,1.81,0,0,1,1.63.68,10.43,10.43,0,0,1,1.91,2.56,5.89,5.89,0,0,0,1.14,1.78,1.49,1.49,0,0,0,1.93.19c.85-.76-.05-1.93-.25-3.06-.51-2.94-1-5.89-1.17-8.86-.16-2.15-1-4.87.28-6.82.2-.3.45-.57.64-.88a6.13,6.13,0,0,0,.59-2.45,16.63,16.63,0,0,1,.86-3.54c-.14.37.65,2.12.74,2.61s.06,1.91.71,2.21c.28.13.61.15.87.3a1.65,1.65,0,0,1,.58.7,18.89,18.89,0,0,1,1.76,6.69c.18,1.39.36,6.48,2.29,6.59,2.39.13,3.52-4.88,3.92-6.52.52-2.18,1-4.36,1.68-6.5a16.87,16.87,0,0,1,1.95-4.7c.27-.38.62-.4.89-.78a11.21,11.21,0,0,0,1-2A12.14,12.14,0,0,1,27.61.21c.08-.12.22-.25.36-.2s.15.22.15.35a24.78,24.78,0,0,1-.23,3.22,19.11,19.11,0,0,0-.33,2.88,4.18,4.18,0,0,0,.59,1.44,7,7,0,0,1,0,4.35Q28,13.12,27.86,14Z"/></g></g></svg>