<svg xmlns="http://www.w3.org/2000/svg" viewBox="0 0 37.29 36.23"><defs><style>.cls-1{fill:#38100b;}.cls-2{fill:#833224;}</style></defs><title>Asset 239</title><g id="Layer_2" data-name="Layer 2"><g id="Layer_2-2" data-name="Layer 2"><path class="cls-1" d="M17.82,7.59c-.74,2.43-2.19,4.66-2.49,7.18-.35,2.9,1,5.49,1.85,8.17,1.13,3.51.94,10.59-3,12.41-3.25,1.49-6.62,0-9-2.42A9.87,9.87,0,0,1,2,24.28l.7-7.62a22,22,0,0,1,7.22-14A9,9,0,0,1,13.48.27C17.82-.95,18.75,4.58,17.82,7.59Z"/><path class="cls-1" d="M21.62,7.82c.72,2.43,2.14,4.68,2.42,7.2.31,2.91-1.06,5.48-1.95,8.15C20.93,26.67,21,33.75,25,35.61c3.24,1.53,6.62,0,9-2.32a9.87,9.87,0,0,0,3.23-8.61l-.62-7.63A22,22,0,0,0,29.56,2.93,9,9,0,0,0,26,.54C21.71-.72,20.72,4.79,21.62,7.82Z"/><path class="cls-2" d="M15.85,7.49c-.74,2.43-2.19,4.66-2.49,7.18-.34,2.9,1,5.49,1.86,8.17,1.13,3.51.94,10.59-3,12.41-3.25,1.5-6.63,0-9-2.41A9.88,9.88,0,0,1,.06,24.2l.69-7.62A22,22,0,0,1,8,2.53,8.9,8.9,0,0,1,11.5.17C15.84-1,16.78,4.48,15.85,7.49Z"/><path class="cls-2" d="M19.64,7.72c.73,2.43,2.15,4.67,2.43,7.2.32,2.9-1.05,5.48-1.94,8.15-1.16,3.5-1,10.58,2.92,12.44,3.25,1.52,6.63,0,9-2.33a9.87,9.87,0,0,0,3.22-8.62l-.62-7.62A22.06,22.06,0,0,0,27.58,2.82,8.92,8.92,0,0,0,24.06.44C19.73-.83,18.75,4.69,19.64,7.72Z"/></g></g></svg>