<svg xmlns="http://www.w3.org/2000/svg" viewBox="0 0 71.68 64.9"><defs><style>.cls-1{fill:#14232d;}.cls-2{fill:#54769b;}</style></defs><title>Asset 235</title><g id="Layer_2" data-name="Layer 2"><g id="Layer_2-2" data-name="Layer 2"><path class="cls-1" d="M27.79,1.36l1,.25a7.3,7.3,0,0,1,3.7,2.72,24.16,24.16,0,0,1,2.84,5.51,25.38,25.38,0,0,1,2,7.56,14.47,14.47,0,0,1-2,9.38,7.18,7.18,0,0,1-7.6,3.3c-5.13-.81-8.2-4-9.53-8.91a20.87,20.87,0,0,1,1.12-14A9.42,9.42,0,0,1,25.45,1.6c.34-.1.69-.17,1-.25Z"/><path class="cls-1" d="M2,25.25a22.74,22.74,0,0,1,.89-2.68A5.67,5.67,0,0,1,7,19.18a6.22,6.22,0,0,1,4.32.79,14.68,14.68,0,0,1,4.74,4.37,14.8,14.8,0,0,1,3.06,9.41A8.18,8.18,0,0,1,18,37.89a5.52,5.52,0,0,1-4.63,2.66A8.48,8.48,0,0,1,5.7,36.7a21.94,21.94,0,0,1-3.65-9.5C2,27.08,2,27,2,26.84Z"/><path class="cls-1" d="M71.66,31.13c-.13.86-.23,1.73-.4,2.58a10.45,10.45,0,0,1-3.89,6.65,6.19,6.19,0,0,1-4.84,1.22,4.85,4.85,0,0,1-3.89-3.06A13.78,13.78,0,0,1,57.57,32a15.66,15.66,0,0,1,3.88-9.46,11,11,0,0,1,3.27-2.67,3.75,3.75,0,0,1,5.43,1.74A13.1,13.1,0,0,1,71.4,26c.11.8.18,1.6.28,2.4Z"/><path class="cls-1" d="M40.75,64.9a42.9,42.9,0,0,1-16.52-3A7.76,7.76,0,0,1,19.59,57c-.37-1.09-.71-2.19-1-3.3a7.53,7.53,0,0,0-2.1-3.52c-.56-.54-1.16-1.05-1.67-1.63a21,21,0,0,1-1.65-2.14,3.49,3.49,0,0,1-.46-1.21,1.09,1.09,0,0,1,1-1.44c.41-.08.84,0,1.26-.09a20.57,20.57,0,0,0,2.48-.36,5,5,0,0,0,3.69-3.61c.34-1.06.62-2.12,1-3.18a8,8,0,0,1,.5-1.25,4.25,4.25,0,0,1,3.63-2.43,9,9,0,0,1,3.64.41,4.11,4.11,0,0,0,3.85-.62c.85-.64,1.61-1.38,2.41-2.07A17.54,17.54,0,0,1,37.86,29a2.67,2.67,0,0,1,3.88.6,20.53,20.53,0,0,0,1.56,1.8,6.38,6.38,0,0,0,5.9,2c.92-.12,1.84-.29,2.76-.43a5.56,5.56,0,0,1,.7-.08,2.13,2.13,0,0,1,2.47,1.83c.18.8.23,1.63.37,2.44a9,9,0,0,0,3.37,6.05,4.36,4.36,0,0,0,4.39.75A10.56,10.56,0,0,1,65,43.54a1.07,1.07,0,0,1,1.33,1.34,5.25,5.25,0,0,1-1.64,2.78c-.6.59-1.24,1.13-1.87,1.68A4.73,4.73,0,0,0,61.2,53c0,.9-.05,1.81-.15,2.71a7.17,7.17,0,0,1-2.18,4,13.59,13.59,0,0,1-5.72,3.41,30.11,30.11,0,0,1-6.71,1.33C44.17,64.68,41.9,64.81,40.75,64.9Z"/><path class="cls-1" d="M60.22,14.68a31.64,31.64,0,0,1-2,10.15,9.14,9.14,0,0,1-6.68,5.77,7.51,7.51,0,0,1-9.08-5,15.12,15.12,0,0,1-.6-8.55A24.22,24.22,0,0,1,46,7.34a9.79,9.79,0,0,1,4.48-3.61c4.11-1.51,7.91.5,9.17,4.82A20.16,20.16,0,0,1,60.22,14.68Z"/><path class="cls-2" d="M25.83,0l1,.25A7.26,7.26,0,0,1,30.52,3a23.77,23.77,0,0,1,2.84,5.51,25.38,25.38,0,0,1,2,7.56,14.47,14.47,0,0,1-2,9.38,7.18,7.18,0,0,1-7.6,3.3c-5.13-.81-8.2-4-9.53-8.91a20.87,20.87,0,0,1,1.12-14A9.42,9.42,0,0,1,23.49.25c.34-.1.69-.17,1-.25Z"/><path class="cls-2" d="M0,23.9A22.74,22.74,0,0,1,.9,21.22,5.69,5.69,0,0,1,5,17.83a6.2,6.2,0,0,1,4.31.79A14.68,14.68,0,0,1,14.09,23a14.8,14.8,0,0,1,3.06,9.41A8.18,8.18,0,0,1,16,36.54,5.5,5.5,0,0,1,11.4,39.2a8.49,8.49,0,0,1-7.66-3.85,22.07,22.07,0,0,1-3.65-9.5c0-.12-.06-.24-.09-.36Z"/><path class="cls-2" d="M69.7,29.78c-.13.86-.23,1.73-.4,2.58A10.45,10.45,0,0,1,65.41,39a6.18,6.18,0,0,1-4.84,1.22,4.87,4.87,0,0,1-3.89-3.06,13.92,13.92,0,0,1-1.07-6.53,15.66,15.66,0,0,1,3.88-9.46,11,11,0,0,1,3.27-2.67,3.74,3.74,0,0,1,5.43,1.74,13.1,13.1,0,0,1,1.25,4.42c.11.8.19,1.6.28,2.4Z"/><path class="cls-2" d="M38.79,63.55a42.66,42.66,0,0,1-16.51-3,7.71,7.71,0,0,1-4.65-4.86c-.37-1.09-.71-2.19-1-3.3a7.53,7.53,0,0,0-2.1-3.52c-.56-.54-1.16-1-1.67-1.63a21,21,0,0,1-1.65-2.14,3.7,3.7,0,0,1-.46-1.21,1.09,1.09,0,0,1,.95-1.44c.41-.08.84,0,1.26-.09A20.57,20.57,0,0,0,15.43,42a5,5,0,0,0,3.69-3.61c.34-1.06.62-2.12.95-3.18a8,8,0,0,1,.5-1.25,4.25,4.25,0,0,1,3.63-2.43,9,9,0,0,1,3.64.41,4.11,4.11,0,0,0,3.85-.62c.85-.64,1.61-1.38,2.41-2.07a17.54,17.54,0,0,1,1.8-1.55,2.67,2.67,0,0,1,3.88.6,20.53,20.53,0,0,0,1.56,1.8,6.38,6.38,0,0,0,5.9,2c.92-.12,1.84-.29,2.76-.43a5.56,5.56,0,0,1,.7-.08,2.13,2.13,0,0,1,2.47,1.83c.18.8.23,1.63.37,2.44a9.09,9.09,0,0,0,3.37,6,4.36,4.36,0,0,0,4.39.75,9.67,9.67,0,0,1,1.76-.45,1.07,1.07,0,0,1,1.33,1.34,5.34,5.34,0,0,1-1.63,2.78c-.61.59-1.24,1.13-1.88,1.68a4.73,4.73,0,0,0-1.64,3.63c0,.9-.05,1.81-.15,2.71a7.17,7.17,0,0,1-2.18,4,13.59,13.59,0,0,1-5.72,3.41,30.11,30.11,0,0,1-6.71,1.33C42.22,63.33,39.94,63.46,38.79,63.55Z"/><path class="cls-2" d="M58.26,13.33a31.64,31.64,0,0,1-2,10.15,9.16,9.16,0,0,1-6.68,5.77,7.51,7.51,0,0,1-9.08-5,15.12,15.12,0,0,1-.6-8.55A24.22,24.22,0,0,1,44,6a9.79,9.79,0,0,1,4.48-3.61c4.11-1.51,7.91.5,9.17,4.82A20.16,20.16,0,0,1,58.26,13.33Z"/></g></g></svg>