<svg xmlns="http://www.w3.org/2000/svg" viewBox="0 0 36.59 40.39"><defs><style>.cls-1{fill:#9b5100;}.cls-2{fill:#ff8e00;}</style></defs><title>Asset 245</title><g id="Layer_2" data-name="Layer 2"><g id="Layer_2-2" data-name="Layer 2"><g id="e2F89Z.tif"><path class="cls-1" d="M24.38,1.12a5.52,5.52,0,0,1,1.73,1.2,9.15,9.15,0,0,1,2.63,7A7.56,7.56,0,0,1,28.15,12a5.92,5.92,0,0,1-2.06,2.67,2.89,2.89,0,0,1-4.45-.91,8.07,8.07,0,0,1-1.13-3.21A15.86,15.86,0,0,1,20.86,4a4.53,4.53,0,0,1,2-2.82A1.83,1.83,0,0,1,24.38,1.12Z"/><path class="cls-1" d="M15.56,1.09a4.05,4.05,0,0,1,2.13,2.77,15.23,15.23,0,0,1,0,8.12,7,7,0,0,1-.33.91c-1.28,2.94-4,3.29-6,.79a8.46,8.46,0,0,1-.93-8.28A8.81,8.81,0,0,1,12,2.83,5.42,5.42,0,0,1,14.69,1,1.81,1.81,0,0,1,15.56,1.09Z"/><path class="cls-1" d="M31.65,32.54a12.43,12.43,0,0,1-1.55,5,5,5,0,0,1-6.2,2.6,13.56,13.56,0,0,0-9.19,0,5,5,0,0,1-6.17-2.5,12.76,12.76,0,0,1-1.63-6.28A5,5,0,0,1,8.39,27.6a40.34,40.34,0,0,0,6.92-8.85,3.47,3.47,0,0,1,3-1.65c3.11-.29,4.42.44,5.58,2.56a33.21,33.21,0,0,0,6.08,7.65C31.27,28.62,31.72,29.85,31.65,32.54Z"/><path class="cls-1" d="M10.31,19.23a8.05,8.05,0,0,1-.59,3.18c-1,2.33-3.11,3-5.18,1.52a6.48,6.48,0,0,1-2.63-5.34,8.42,8.42,0,0,1,2-6c1.84-2.16,3.92-1.88,5.18.65A14.46,14.46,0,0,1,10.31,19.23Z"/><path class="cls-1" d="M36.59,17.17v2.21a6.34,6.34,0,0,1-2.4,4.43c-2.1,1.61-4.51,1-5.35-1.5a11.59,11.59,0,0,1,1.09-9.8c1-1.66,2.62-1.83,4.07-.56A8.07,8.07,0,0,1,36.59,17.17Z"/></g><g id="e2F89Z.tif-2" data-name="e2F89Z.tif"><path class="cls-2" d="M22.48.17a5.52,5.52,0,0,1,1.73,1.2,9.15,9.15,0,0,1,2.63,7,7.56,7.56,0,0,1-.59,2.74,5.92,5.92,0,0,1-2.06,2.67,2.89,2.89,0,0,1-4.45-.91,8.07,8.07,0,0,1-1.13-3.21A15.86,15.86,0,0,1,19,3a4.53,4.53,0,0,1,2-2.82A1.83,1.83,0,0,1,22.48.17Z"/><path class="cls-2" d="M13.66.14a4.05,4.05,0,0,1,2.13,2.77,15.23,15.23,0,0,1,0,8.12,7,7,0,0,1-.33.91c-1.28,2.94-4,3.29-6,.79a8.46,8.46,0,0,1-.93-8.28,8.81,8.81,0,0,1,1.56-2.57A5.42,5.42,0,0,1,12.79.08,1.81,1.81,0,0,1,13.66.14Z"/><path class="cls-2" d="M29.75,31.59a12.43,12.43,0,0,1-1.55,5,5,5,0,0,1-6.2,2.6,13.56,13.56,0,0,0-9.19,0,5,5,0,0,1-6.17-2.5A12.76,12.76,0,0,1,5,30.37a5,5,0,0,1,1.48-3.72,40.34,40.34,0,0,0,6.92-8.85,3.47,3.47,0,0,1,2.95-1.65c3.11-.29,4.42.44,5.58,2.56A33.21,33.21,0,0,0,28,26.36C29.37,27.67,29.82,28.9,29.75,31.59Z"/><path class="cls-2" d="M8.41,18.28a8.05,8.05,0,0,1-.59,3.18c-1,2.33-3.11,3-5.18,1.52A6.48,6.48,0,0,1,0,17.64a8.42,8.42,0,0,1,2-6C3.87,9.49,6,9.77,7.21,12.3A14.46,14.46,0,0,1,8.41,18.28Z"/><path class="cls-2" d="M34.69,16.22v2.21a6.34,6.34,0,0,1-2.4,4.43c-2.1,1.61-4.51,1-5.35-1.5A11.59,11.59,0,0,1,28,11.56c1-1.66,2.62-1.83,4.07-.56A8.07,8.07,0,0,1,34.69,16.22Z"/></g></g></g></svg>