<svg xmlns="http://www.w3.org/2000/svg" viewBox="0 0 44.04 51.76"><defs><style>.cls-1{fill:#3f3f3f;}.cls-2{fill:#888d8c;}</style></defs><title>Asset 242</title><g id="Layer_2" data-name="Layer 2"><g id="Layer_2-2" data-name="Layer 2"><path class="cls-1" d="M11.25,51c-3.47-.88-4.41-4.9-3.6-8.11s3.44-6,5.17-8.75,3.73-5.94,6.77-7.26c9.9-4.3,20.74,17,14.53,23.43-2.52,2.59-7.61,1.08-10.62.52C19.33,50,15.46,52.05,11.25,51Z"/><path class="cls-1" d="M44,28.58a21.91,21.91,0,0,1-.86,5.47c-.51,1.6-2.11,3.16-3.79,3-5.29-.45-4.49-7.17-3-10.64A8.06,8.06,0,0,1,39,23.27a4.87,4.87,0,0,1,.88-.48,6.08,6.08,0,0,0,1-3.83A13.72,13.72,0,0,1,42,22.89C43.51,23.82,44.13,26.66,44,28.58Z"/><path class="cls-1" d="M1.69,28.16a21.84,21.84,0,0,0,.86,5.47c.51,1.6,2.1,3.16,3.79,3,5.29-.45,4.49-7.17,3-10.63a8,8,0,0,0-2.66-3.17,4.87,4.87,0,0,0-.88-.48,6.08,6.08,0,0,1-1-3.83,13.81,13.81,0,0,0-1.14,3.93C2.21,23.4,1.58,26.24,1.69,28.16Z"/><path class="cls-1" d="M31.63,23.5c-3,1.19-6.34-1.89-6.08-4.91.21-2.42,1.94-4,1.83-6.54-.08-1.47-1.14-4.13-.05-5.46A12.17,12.17,0,0,0,26.87.84a31.39,31.39,0,0,1,2.34,5.59A13.75,13.75,0,0,1,32.34,9.3a12.22,12.22,0,0,1,2.9,7C35.45,19.2,34.51,22.37,31.63,23.5Z"/><path class="cls-1" d="M13.36,23.5c3,1.19,6.35-1.89,6.09-4.91-.21-2.42-1.95-4-1.83-6.54.07-1.47,1.14-4.13.05-5.46A12,12,0,0,1,18.13.84a31.42,31.42,0,0,0-2.35,5.59A13.67,13.67,0,0,0,12.66,9.3a12.16,12.16,0,0,0-2.91,7C9.54,19.2,10.49,22.37,13.36,23.5Z"/><path class="cls-2" d="M9.58,50.14C6.1,49.26,5.17,45.24,6,42s3.45-6,5.17-8.74,3.74-5.95,6.77-7.27c9.91-4.3,20.74,17,14.53,23.43-2.51,2.6-7.61,1.08-10.61.52C17.65,49.2,13.78,51.21,9.58,50.14Z"/><path class="cls-2" d="M42.36,27.74a22.31,22.31,0,0,1-.87,5.47c-.5,1.6-2.1,3.16-3.78,3-5.3-.44-4.5-7.17-3.05-10.63a8,8,0,0,1,2.66-3.17,4.62,4.62,0,0,1,.89-.48,6.06,6.06,0,0,0,.95-3.83,14.16,14.16,0,0,1,1.15,3.93C41.83,23,42.46,25.82,42.36,27.74Z"/><path class="cls-2" d="M0,27.32a22.31,22.31,0,0,0,.87,5.47c.5,1.6,2.1,3.16,3.78,3,5.29-.44,4.5-7.17,3.05-10.63A8,8,0,0,0,5.05,22a4.2,4.2,0,0,0-.89-.49,6,6,0,0,1-1-3.83,13.49,13.49,0,0,0-1.15,3.94C.54,22.57-.09,25.4,0,27.32Z"/><path class="cls-2" d="M30,22.67c-3,1.19-6.35-1.9-6.09-4.92.21-2.42,1.95-4,1.83-6.54-.07-1.46-1.14-4.13-.05-5.46A12,12,0,0,0,25.19,0a31.74,31.74,0,0,1,2.35,5.59,13.67,13.67,0,0,1,3.12,2.87,12.16,12.16,0,0,1,2.91,7C33.78,18.36,32.83,21.53,30,22.67Z"/><path class="cls-2" d="M11.69,22.67c3,1.19,6.34-1.9,6.08-4.92-.21-2.42-1.94-4-1.83-6.54C16,9.75,17.08,7.08,16,5.75A12,12,0,0,1,16.45,0a31.7,31.7,0,0,0-2.34,5.59A13.75,13.75,0,0,0,11,8.46a12.3,12.3,0,0,0-2.91,7C7.87,18.36,8.81,21.53,11.69,22.67Z"/></g></g></svg>