<svg xmlns="http://www.w3.org/2000/svg" viewBox="0 0 43.63 52.74"><defs><style>.cls-1{fill:#345068;}</style></defs><title>Asset 231</title><g id="Layer_2" data-name="Layer 2"><g id="Layer_2-2" data-name="Layer 2"><path d="M38.08,22.05c2.2,3.56.91,8-.54,11.66C35.91,37.86,34.2,42,32.25,46c-2.07,4.25-7.61,7.57-12.36,6.56A7.77,7.77,0,0,1,18.26,52C14.6,50.34,14,46.5,14.61,42.94A32.73,32.73,0,0,1,16.53,37c1.62-4.3,2-9.69-.94-13.49-.89-1.13-2-2.14-2.42-3.51-.92-3.11,1.8-6.1,4.52-7.09a12.15,12.15,0,0,1,6.79-.27,25.61,25.61,0,0,1,6.38,2.54A18.79,18.79,0,0,1,38,22Z"/><path d="M14,26.75c1.78,2.86,1.73,5.64-.63,6.94a6.34,6.34,0,0,1-3.7.26c-3.44-.81-5.42-5.07-6.7-8-1.18-2.67-2.29-6.82-.47-9.72A2.4,2.4,0,0,1,4.78,15a4.24,4.24,0,0,1,3.07,1.21c1.75,1.57,2.49,3.42,3.48,5.52A48.93,48.93,0,0,0,14,26.75Z"/><path d="M17.28,9c-.33-2.71-1.83-7.39-5.22-7.8-1.55-.18-2,1.33-2.26,2.67A13.5,13.5,0,0,0,11,11.7a2.34,2.34,0,0,0,.86,1.07,3.69,3.69,0,0,0,3.31.45,3.34,3.34,0,0,0,2.16-3.67C17.32,9.38,17.3,9.2,17.28,9Z"/><path d="M21,8.88a2.9,2.9,0,0,0,1,1.69,2.48,2.48,0,0,0,1.34.34,4.68,4.68,0,0,0,2.24-.46,3.82,3.82,0,0,0,1.7-2.89,10.19,10.19,0,0,0-.08-3c-.29-1.94-2.35-4.91-4.57-3.24A4,4,0,0,0,21,3.71,8.53,8.53,0,0,0,21,8.88Z"/><path d="M30,5.83A8.39,8.39,0,0,0,29,9.08c-.22,1.54-.26,2.66,1.13,3.52.86.55,2.38,1.81,3.44,1.56a2.27,2.27,0,0,0,1.53-2.06c.22-2.17,1-6.92-2-7.66A2.73,2.73,0,0,0,30,5.83Z"/><path d="M42.41,20.43a3.44,3.44,0,0,1-3.17.69c-.87-.25-.91-.73-1.14-1.45A2.93,2.93,0,0,0,37,18.22a3.29,3.29,0,0,1-.94-2.86,5.14,5.14,0,0,1,1.41-2.74,2.87,2.87,0,0,1,2.15-1.18,3.06,3.06,0,0,1,2.63,1.21C43.66,14.53,44.39,18.71,42.41,20.43Z"/><path class="cls-1" d="M36.37,21.2c2.2,3.56.91,8-.54,11.65C34.2,37,32.49,41.13,30.54,45.14c-2.07,4.26-7.61,7.58-12.36,6.57a7.79,7.79,0,0,1-1.63-.54c-3.66-1.68-4.26-5.52-3.65-9.08a32.83,32.83,0,0,1,1.92-5.93c1.62-4.29,2-9.69-.94-13.48-.89-1.13-2-2.14-2.42-3.52-.92-3.11,1.8-6.1,4.52-7.09a12.25,12.25,0,0,1,6.79-.27,25.64,25.64,0,0,1,6.38,2.55,18.69,18.69,0,0,1,7.18,6.78Z"/><path class="cls-1" d="M12.46,26c1.78,2.85,1.74,5.64-.62,6.93a6.35,6.35,0,0,1-3.7.27c-3.45-.81-5.43-5.07-6.7-7.95C.25,22.61-.86,18.46,1,15.56a2.4,2.4,0,0,1,2.3-1.31,4.28,4.28,0,0,1,3.08,1.21C8.08,17,8.83,18.87,9.82,21A48.52,48.52,0,0,0,12.46,26Z"/><path class="cls-1" d="M15.57,8.17C15.24,5.46,13.74.78,10.35.38,8.8.19,8.39,1.71,8.09,3a13.47,13.47,0,0,0,1.2,7.8,2.42,2.42,0,0,0,.86,1.08,3.75,3.75,0,0,0,3.31.45A3.35,3.35,0,0,0,15.62,8.7C15.61,8.52,15.59,8.35,15.57,8.17Z"/><path class="cls-1" d="M19.28,8a3,3,0,0,0,1,1.7,2.56,2.56,0,0,0,1.34.33,4.45,4.45,0,0,0,2.24-.46,3.82,3.82,0,0,0,1.7-2.89,10.21,10.21,0,0,0-.08-3c-.29-1.94-2.35-4.91-4.57-3.24a4,4,0,0,0-1.59,2.36A8.53,8.53,0,0,0,19.28,8Z"/><path class="cls-1" d="M28.26,5a8.44,8.44,0,0,0-.93,3.25c-.22,1.54-.26,2.66,1.13,3.53.86.54,2.38,1.81,3.44,1.55a2.26,2.26,0,0,0,1.53-2.05c.22-2.18,1-6.93-2-7.67A2.74,2.74,0,0,0,28.26,5Z"/><path class="cls-1" d="M40.7,19.57a3.44,3.44,0,0,1-3.17.7c-.87-.25-.91-.74-1.14-1.45a2.89,2.89,0,0,0-1.07-1.45,3.3,3.3,0,0,1-.94-2.86,5.14,5.14,0,0,1,1.41-2.74,2.85,2.85,0,0,1,2.15-1.19,3.07,3.07,0,0,1,2.63,1.22C42,13.68,42.68,17.85,40.7,19.57Z"/></g></g></svg>