<svg xmlns="http://www.w3.org/2000/svg" viewBox="0 0 36.86 43.47"><defs><style>.cls-1{fill:#313d04;}.cls-2{fill:#c2cb55;}</style></defs><title>Asset 244</title><g id="Layer_2" data-name="Layer 2"><g id="Layer_2-2" data-name="Layer 2"><g id="_0Q95RG" data-name="0Q95RG"><path class="cls-1" d="M2.2,22c6.37,1.27,7.69.69,8.88-3.79,1.53.45,3.1,1.37,4.57,1.23s2.61-1.42,4-2.24c2.94,3,3.71,3.13,8.09.8,1.27,4.61,3,5.45,8.48,4.09,1.44,5.83-2,14.07-7.53,18.13A15.21,15.21,0,0,1,11,41C4.84,37.18,1.07,29.06,2.2,22Z"/><path class="cls-1" d="M16.36.85c.76,4,1.53,7.87,2.18,11.72.48,2.84-1.09,5.48-3.18,5.59-2.42.12-4.42-2-4.41-5C11,8.22,13.08,4.22,16.36.85Z"/><path class="cls-1" d="M22.57,1A17.14,17.14,0,0,1,28,12.42a4.87,4.87,0,0,1-.75,3.39,6.41,6.41,0,0,1-4,2.12c-.92,0-2-1.81-2.63-3a5.3,5.3,0,0,1-.06-3C21.1,8.35,21.83,4.78,22.57,1Z"/><path class="cls-1" d="M31.47,10.41c2.7,1.6,4.86,3.66,5.36,6.75.18,1.08-.63,3.13-1.42,3.38a8.82,8.82,0,0,1-5.08-.2c-.48-.16-.51-2.4-.33-3.62C30.29,14.67,30.92,12.67,31.47,10.41Z"/><path class="cls-1" d="M7.33,10.42A61.47,61.47,0,0,1,9,16.87c.18,1.2.09,3.29-.55,3.59a6.38,6.38,0,0,1-4.55.25A3.86,3.86,0,0,1,2,17.56C2.31,14.17,4.72,12.14,7.33,10.42Z"/></g><g id="_0Q95RG-2" data-name="0Q95RG"><path class="cls-2" d="M.2,21.15c6.37,1.28,7.69.7,8.88-3.79,1.53.46,3.1,1.38,4.57,1.23s2.61-1.41,4-2.23c2.94,3,3.71,3.12,8.09.79,1.27,4.62,3,5.45,8.48,4.1,1.44,5.83-2,14.07-7.53,18.13A15.19,15.19,0,0,1,9,40.16C2.84,36.33-.93,28.21.2,21.15Z"/><path class="cls-2" d="M14.36,0c.76,4,1.53,7.87,2.18,11.72.48,2.83-1.09,5.47-3.18,5.58-2.42.13-4.42-2-4.41-5C9,7.36,11.08,3.37,14.36,0Z"/><path class="cls-2" d="M20.57.15A17.14,17.14,0,0,1,26,11.56,4.85,4.85,0,0,1,25.2,15a6.42,6.42,0,0,1-4,2.13c-.92,0-2-1.81-2.63-3a5.3,5.3,0,0,1-.06-3C19.1,7.49,19.83,3.93,20.57.15Z"/><path class="cls-2" d="M29.47,9.56c2.7,1.59,4.86,3.65,5.36,6.75.18,1.08-.63,3.13-1.42,3.37a8.65,8.65,0,0,1-5.08-.2c-.48-.15-.51-2.39-.33-3.62C28.29,13.81,28.92,11.81,29.47,9.56Z"/><path class="cls-2" d="M5.33,9.56A61.63,61.63,0,0,1,7,16c.18,1.2.09,3.28-.55,3.59a6.38,6.38,0,0,1-4.55.24A3.85,3.85,0,0,1,0,16.71C.31,13.32,2.72,11.29,5.33,9.56Z"/></g></g></g></svg>