<svg xmlns="http://www.w3.org/2000/svg" viewBox="0 0 43.63 52.74"><defs><style>.cls-1{fill:#345068;}</style></defs><title>Asset 230</title><g id="Layer_2" data-name="Layer 2"><g id="Layer_2-2" data-name="Layer 2"><path d="M5.55,22.05c-2.2,3.56-.91,8,.54,11.66C7.72,37.86,9.43,42,11.38,46c2.07,4.25,7.61,7.57,12.36,6.56A7.77,7.77,0,0,0,25.37,52C29,50.34,29.63,46.5,29,42.94A32.73,32.73,0,0,0,27.1,37c-1.62-4.3-2-9.69.94-13.49.88-1.13,2-2.14,2.42-3.51.92-3.11-1.8-6.1-4.52-7.09a12.15,12.15,0,0,0-6.79-.27,25.61,25.61,0,0,0-6.38,2.54A18.79,18.79,0,0,0,5.59,22Z"/><path d="M29.65,26.75c-1.78,2.86-1.73,5.64.63,6.94A6.33,6.33,0,0,0,34,34c3.44-.81,5.42-5.07,6.7-8,1.18-2.67,2.29-6.82.47-9.72A2.4,2.4,0,0,0,38.85,15a4.24,4.24,0,0,0-3.07,1.21c-1.75,1.57-2.5,3.42-3.49,5.52A46.63,46.63,0,0,1,29.65,26.75Z"/><path d="M26.35,9c.33-2.71,1.82-7.39,5.22-7.8,1.55-.18,2,1.33,2.25,2.67a13.41,13.41,0,0,1-1.19,7.8,2.34,2.34,0,0,1-.86,1.07,3.69,3.69,0,0,1-3.31.45A3.34,3.34,0,0,1,26.3,9.55C26.31,9.38,26.33,9.2,26.35,9Z"/><path d="M22.64,8.88a2.92,2.92,0,0,1-1,1.69,2.42,2.42,0,0,1-1.33.34,4.68,4.68,0,0,1-2.24-.46,3.83,3.83,0,0,1-1.71-2.89,10.56,10.56,0,0,1,.09-3C16.73,2.65,18.79-.32,21,1.35A4,4,0,0,1,22.6,3.71,8.53,8.53,0,0,1,22.64,8.88Z"/><path d="M13.66,5.83a8.56,8.56,0,0,1,.93,3.25c.22,1.54.26,2.66-1.13,3.52-.86.55-2.38,1.81-3.45,1.56A2.26,2.26,0,0,1,8.49,12.1c-.22-2.17-1-6.92,2-7.66A2.74,2.74,0,0,1,13.66,5.83Z"/><path d="M1.22,20.43a3.44,3.44,0,0,0,3.17.69c.87-.25.91-.73,1.14-1.45A2.93,2.93,0,0,1,6.6,18.22a3.29,3.29,0,0,0,.94-2.86,5.21,5.21,0,0,0-1.41-2.74A2.89,2.89,0,0,0,4,11.44a3.06,3.06,0,0,0-2.63,1.21C0,14.53-.76,18.71,1.22,20.43Z"/><path class="cls-1" d="M7.26,21.2c-2.2,3.56-.91,8,.54,11.65,1.63,4.15,3.34,8.28,5.29,12.29,2.07,4.26,7.61,7.58,12.36,6.57a7.79,7.79,0,0,0,1.63-.54c3.66-1.68,4.26-5.52,3.65-9.08a32.83,32.83,0,0,0-1.92-5.93c-1.62-4.29-2-9.69.94-13.48.88-1.13,2-2.14,2.42-3.52.92-3.11-1.8-6.1-4.52-7.09a12.25,12.25,0,0,0-6.79-.27,25.64,25.64,0,0,0-6.38,2.55A18.69,18.69,0,0,0,7.3,21.13Z"/><path class="cls-1" d="M31.17,26c-1.78,2.85-1.74,5.64.62,6.93a6.35,6.35,0,0,0,3.7.27c3.44-.81,5.43-5.07,6.7-7.95,1.18-2.67,2.3-6.82.47-9.72a2.37,2.37,0,0,0-2.29-1.31,4.26,4.26,0,0,0-3.08,1.21C35.55,17,34.8,18.87,33.81,21A50.56,50.56,0,0,1,31.17,26Z"/><path class="cls-1" d="M28.06,8.17C28.39,5.46,29.88.78,33.28.38,34.83.19,35.23,1.71,35.53,3a13.39,13.39,0,0,1-1.19,7.8,2.42,2.42,0,0,1-.86,1.08,3.75,3.75,0,0,1-3.31.45A3.35,3.35,0,0,1,28,8.7C28,8.52,28,8.35,28.06,8.17Z"/><path class="cls-1" d="M24.35,8a3,3,0,0,1-1,1.7,2.51,2.51,0,0,1-1.33.33,4.45,4.45,0,0,1-2.24-.46A3.83,3.83,0,0,1,18.06,6.7a10.58,10.58,0,0,1,.09-3c.29-1.94,2.35-4.91,4.57-3.24a4,4,0,0,1,1.59,2.36A8.53,8.53,0,0,1,24.35,8Z"/><path class="cls-1" d="M15.37,5a8.62,8.62,0,0,1,.93,3.25c.22,1.54.26,2.66-1.13,3.53-.86.54-2.38,1.81-3.45,1.55a2.25,2.25,0,0,1-1.52-2.05c-.22-2.18-1-6.93,2-7.67A2.75,2.75,0,0,1,15.37,5Z"/><path class="cls-1" d="M2.93,19.57a3.44,3.44,0,0,0,3.17.7C7,20,7,19.53,7.24,18.82a2.89,2.89,0,0,1,1.07-1.45,3.3,3.3,0,0,0,.94-2.86,5.21,5.21,0,0,0-1.41-2.74,2.87,2.87,0,0,0-2.15-1.19A3.07,3.07,0,0,0,3.06,11.8C1.67,13.68,1,17.85,2.93,19.57Z"/></g></g></svg>