<svg xmlns="http://www.w3.org/2000/svg" xmlns:xlink="http://www.w3.org/1999/xlink" viewBox="0 0 300.06 507.69"><defs><style>.cls-1{fill:url(#linear-gradient);}.cls-2{fill:url(#linear-gradient-2);}.cls-3{fill:#c4945a;}.cls-4{fill:#f0f6ff;}.cls-5{fill:#878787;}.cls-6{fill:#d8ac75;}.cls-7{fill:#ddb27c;}.cls-8{fill:#e8eef6;}.cls-25,.cls-37,.cls-9{fill:none;}.cls-9{stroke:#82a0b2;stroke-width:0.35px;}.cls-25,.cls-9{stroke-miterlimit:10;}.cls-10{fill:#82a0b2;}.cls-11{fill:#adbdce;}.cls-12{fill:#000f11;}.cls-13{fill:#bababa;}.cls-14{fill:#fff;}.cls-15{fill:#cbd1d7;}.cls-16{fill:url(#linear-gradient-3);}.cls-17{fill:#e2b77c;}.cls-18{fill:#e0a066;}.cls-19{fill:#d18c53;}.cls-20{fill:url(#radial-gradient);}.cls-21{fill:#c69660;}.cls-22{fill:url(#linear-gradient-4);}.cls-23{fill:#955f2d;}.cls-24{fill:#d37b3f;}.cls-25{stroke:#000;stroke-width:0.7px;}.cls-26{fill:#010101;}.cls-27{fill:url(#linear-gradient-5);}.cls-28{fill:#282e35;}.cls-29{fill:url(#radial-gradient-2);}.cls-30{fill:#160e12;}.cls-31{fill:#252021;}.cls-32{fill:#c3c3c3;}.cls-33{fill:#241f20;}.cls-34{fill:#d2545c;}.cls-35{fill:#b1885a;}.cls-36{fill:#a3753e;}.cls-38{fill:#f6ddba;}.cls-39{fill:#636365;}</style><linearGradient id="linear-gradient" x1="2798.08" y1="450.28" x2="2927.3" y2="416.13" gradientTransform="translate(-2824.1 -50.32) rotate(0.84)" gradientUnits="userSpaceOnUse"><stop offset="0.14" stop-color="#fff4e5"/><stop offset="0.54" stop-color="#f4dcb8"/><stop offset="0.93" stop-color="#e9c28a"/></linearGradient><linearGradient id="linear-gradient-2" x1="2967.95" y1="467.56" x2="2820.44" y2="450.63" gradientTransform="translate(-2824.1 -50.32) rotate(0.84)" gradientUnits="userSpaceOnUse"><stop offset="0.11" stop-color="#ca9355"/><stop offset="0.62" stop-color="#e9be86" stop-opacity="0.26"/><stop offset="0.79" stop-color="#f4cd97" stop-opacity="0"/></linearGradient><linearGradient id="linear-gradient-3" x1="3054.45" y1="520.43" x2="3009.4" y2="589.12" gradientTransform="translate(-2888.97 198.13) rotate(-13.35)" gradientUnits="userSpaceOnUse"><stop offset="0" stop-color="#fcddb6"/><stop offset="0.99" stop-color="#e9c28a"/></linearGradient><radialGradient id="radial-gradient" cx="2979.52" cy="665.59" r="137.98" gradientTransform="translate(-2840.89 400.62) rotate(-13.35) scale(1 0.69)" gradientUnits="userSpaceOnUse"><stop offset="0" stop-color="#fcddb6"/><stop offset="0.23" stop-color="#f4d2a8"/><stop offset="0.67" stop-color="#e0b783"/><stop offset="0.82" stop-color="#d8ac75"/></radialGradient><linearGradient id="linear-gradient-4" x1="2861.41" y1="541.95" x2="2898.72" y2="599.46" gradientTransform="translate(-2888.97 198.13) rotate(-13.35)" gradientUnits="userSpaceOnUse"><stop offset="0" stop-color="#fcddb6"/><stop offset="0.98" stop-color="#d8ac75"/></linearGradient><linearGradient id="linear-gradient-5" x1="2910.63" y1="707.49" x2="3052" y2="707.49" gradientTransform="translate(-2888.97 198.13) rotate(-13.35)" gradientUnits="userSpaceOnUse"><stop offset="0.02" stop-color="#fff4e5"/><stop offset="0.2" stop-color="#fceeda"/><stop offset="0.51" stop-color="#f5ddbb"/><stop offset="0.93" stop-color="#e9c28b"/><stop offset="0.94" stop-color="#e9c28a"/></linearGradient><radialGradient id="radial-gradient-2" cx="2985.44" cy="672.87" r="38.03" gradientTransform="matrix(0.97, -0.23, 0.08, 0.36, -2790.49, 612.93)" gradientUnits="userSpaceOnUse"><stop offset="0" stop-color="#4b4f51"/><stop offset="0.15" stop-color="#44484a" stop-opacity="0.91"/><stop offset="0.36" stop-color="#323436" stop-opacity="0.66"/><stop offset="0.62" stop-color="#131415" stop-opacity="0.26"/><stop offset="0.76" stop-opacity="0"/></radialGradient></defs><title>Asset 259</title><g id="Layer_2" data-name="Layer 2"><g id="Layer_2-2" data-name="Layer 2"><path class="cls-1" d="M130.5,358.24a63.88,63.88,0,0,1-34.17,31.54c-17.18,6.62-36.44,5.49-54,11a25.64,25.64,0,0,1,10.17.59c-17.45,2.09-35.14,10.21-44.18,25.28C.91,439,.22,454.14,0,468.54a157.17,157.17,0,0,1,37.09-9.34L33,462.25a71.5,71.5,0,0,0,31.6-7.79c-.37,1.43-.75,2.85-1.12,4.27,15.95-1.35,30.26-10.82,41.24-22.48a110.73,110.73,0,0,0,28.5-57.66c.92-5.59,1.4-11.26,2.69-16.77"/><path class="cls-2" d="M108.2,432.31q-1.71,2-3.53,3.94c-11,11.66-25.29,21.13-41.25,22.48l1.14-4.27A71.58,71.58,0,0,1,33,462.25l4.14-3.05A157.29,157.29,0,0,0,0,468.54C.21,455.1.82,441,6.93,429.18c-1.15,6.13.23,12.73,4.94,16.62,5.56,4.58,13.83,4.05,20.52,1.39s12.53-7.1,19.13-10c-1.47.83-3,1.77-3.68,3.32s.22,3.81,1.9,3.84a3.52,3.52,0,0,0,1.76-.59,21.69,21.69,0,0,0,4.14-3c-1.31,1.94.11,4.76,2.22,5.74s4.57.68,6.88.33c12.85-2,26.76-5.66,34.26-16.28a6.4,6.4,0,0,0-1,5.49A39.86,39.86,0,0,0,108.2,432.31Z"/><path class="cls-3" d="M23.64,432.69A26.94,26.94,0,0,0,21.86,435c-.51.76-1.09,1.68-1.66,2.74a4,4,0,0,0-.57,2,1.63,1.63,0,0,0,.5,1.13,1.79,1.79,0,0,0,1.15.46,6.8,6.8,0,0,0,2.1-.33,12.8,12.8,0,0,0,1.81-.63,13.8,13.8,0,0,0,2.8-1.62,12.62,12.62,0,0,0,1.63-1.43c.36-.37.54-.58.54-.58s-.22.17-.61.5A16.91,16.91,0,0,1,25,439.8a16.55,16.55,0,0,1-1.76.53,7.38,7.38,0,0,1-1.88.28,1,1,0,0,1-1-.91,3.47,3.47,0,0,1,.41-1.64c.51-1.08,1-2,1.43-2.83C23,433.65,23.64,432.69,23.64,432.69Z"/><path class="cls-3" d="M93,426.67l-.93,1a30.53,30.53,0,0,1-2.75,2.55,29.66,29.66,0,0,1-10.89,5.58c-.58.17-1.16.28-1.73.41l-.85.16-.19,0h0s0,.05,0-.11a3.33,3.33,0,0,1,.69-2.8,23.16,23.16,0,0,1,3.75-4,25.38,25.38,0,0,1,3-2.21c.76-.47,1.2-.7,1.2-.7s-.46.19-1.25.6a22.34,22.34,0,0,0-3.2,2,21.68,21.68,0,0,0-4,4,5.84,5.84,0,0,0-.79,1.51,2.72,2.72,0,0,0,0,1.87,2.53,2.53,0,0,0,.34.64l.66-.11.88-.15c.59-.13,1.19-.24,1.78-.42a26.6,26.6,0,0,0,10.93-6,25.87,25.87,0,0,0,2.61-2.76Z"/><path class="cls-3" d="M49.93,402.53s1,.1,2.59.34,3.76.64,6.12,1.24,4.46,1.28,6,1.83,2.43.93,2.43.93-.84-.54-2.29-1.27a30,30,0,0,0-12.2-3.09A24.85,24.85,0,0,0,49.93,402.53Z"/><path class="cls-3" d="M56.38,411.28,54.89,411a17.07,17.07,0,0,0-1.76-.27c-.69-.08-1.47-.2-2.34-.24a42.14,42.14,0,0,0-6.15,0,45.47,45.47,0,0,0-7.43,1.26,45.44,45.44,0,0,0-7.09,2.56,41.72,41.72,0,0,0-5.36,3c-.75.46-1.37,1-1.93,1.36s-1,.78-1.4,1.1l-1.15,1,1.22-.89c.39-.29.88-.63,1.46-1s1.23-.82,2-1.24a47.44,47.44,0,0,1,5.42-2.76,53.75,53.75,0,0,1,7-2.42,53.5,53.5,0,0,1,7.31-1.35,47.77,47.77,0,0,1,6.07-.26c.87,0,1.65.06,2.34.1s1.28.09,1.77.15Z"/><path class="cls-3" d="M38.29,417.84s-.63.07-1.76.26a34,34,0,0,0-4.71,1.17A34.73,34.73,0,0,0,9.59,440.93,34.11,34.11,0,0,0,8.3,445.6c-.22,1.13-.3,1.75-.3,1.75s.13-.62.41-1.72a37.42,37.42,0,0,1,1.52-4.57,37.85,37.85,0,0,1,22-21.45,36.57,36.57,0,0,1,4.61-1.4C37.66,418,38.29,417.84,38.29,417.84Z"/><path class="cls-4" d="M195.49,340.73c8.77,18.11,15.27,30.29,23,54.07,0,0,8.67,21.58-6.21,29.11-17.26,8.74-28.39-10.44-28.39-10.44-9-16.66-18.58-33.73-23.66-41.85,0,0-12.81-24.31,3.52-35C178.2,327.14,189.19,334.72,195.49,340.73Z"/><path class="cls-4" d="M162.2,370.27c-3.54,19.81-6.15,36.42-13.9,60.18,0,0-4.44,14.89-20.9,12.24-19.1-3.08-18.07-17.47-18.07-17.47,2-18.37,5.8-64.88,7.52-76.08,0,0,9.82-9.15,23-7.35C164.22,345.09,163.28,364.26,162.2,370.27Z"/><path class="cls-5" d="M162.2,370.27s-.63,3.3-1.66,8.63-2.33,12.71-4.08,20.8-3.63,15.34-5.11,20.56c-.75,2.61-1.36,4.72-1.81,6.17s-.68,2.26-.68,2.26l.76-2.23c.5-1.44,1.17-3.53,2-6.12,1.61-5.18,3.64-12.42,5.39-20.52s2.93-15.52,3.81-20.87S162.2,370.27,162.2,370.27Z"/><path class="cls-6" d="M184.61,242.64c-1.79,1.89-38.55,6.41-50.71-3,0,0-.66-9.88-6.84-16-4.15-4.07-8.27-8.19-13-11.54,0,0,9.89-20.73,39-23.32,38-3.39,55,22.19,55,22.19C187.45,219.37,184.61,242.64,184.61,242.64Z"/><path class="cls-7" d="M186.69,234.22c-5.71,6.49-31.79,16.26-53,3.06a27.13,27.13,0,0,0-6.61-13.61,63.68,63.68,0,0,0-13-11.54s9.89-20.73,39-23.32c38-3.39,55,22.19,55,22.19-1.18-1.77-14.1,10.93-15.11,12.24C190,227,186.69,234.22,186.69,234.22Z"/><path class="cls-8" d="M186.56,247.16c1.25-2.22,3.19-6,5.42-7.34,2.91-1.78,10.9,0,14.28,1.11,6.64,2.23,13.07,5.06,19.77,7.12,6.25,1.93,12.65,4.11,18.64,6.29a13.74,13.74,0,0,1,8.56,16.43l-.07.26a13.73,13.73,0,0,1-16.4,9.85c-13.9-3.26-36.09-8.77-48.5-13.44C187.7,260.79,183.34,252.88,186.56,247.16Z"/><path class="cls-8" d="M188.26,267.44c7.06,3.38,15.68.12,19.25-7.26s.76-16.12-6.3-19.5-15.68-.13-19.26,7.26S181.2,264.06,188.26,267.44Z"/><path class="cls-6" d="M261.45,258.42c7.19-7,13-17.33,18.08-26.06,2.09-5.74-6-15.28-15.13-13.57A126.64,126.64,0,0,1,245,240.56Z"/><path class="cls-3" d="M264.4,218.79l-2.68,3.36c-1.66,2.07-3.9,5-6.64,7.92s-5.45,5.42-7.39,7.22l-3.16,2.92s1.32-1,3.4-2.64a72.94,72.94,0,0,0,7.68-7,72.21,72.21,0,0,0,6.4-8.2C263.51,220.17,264.4,218.79,264.4,218.79Z"/><path class="cls-8" d="M250.83,276.21c7.09-7,14.72-21,14.08-22.23-.4-.79-.24-2.54-.65-3.33-3.4-6.51-10.1-10.7-17-13.21a4.53,4.53,0,0,0-2-.37c-1,.15-10.85,11.06-13.26,13.89.69.2-11.45,11.75,4.45,22.41C249,281.81,250.83,276.21,250.83,276.21Z"/><path class="cls-9" d="M245.22,237.07c-1,.15-11.1,11.3-13.52,14.13"/><path class="cls-8" d="M262.94,260.16a3.08,3.08,0,0,0,2.33-1.52c.56-.82.36-2.32,1-3a4.9,4.9,0,0,1,1.53-.82,5.38,5.38,0,0,0,2.37-2.23,4.94,4.94,0,0,0-.72-4.54,22.22,22.22,0,0,0-3.13-4.16,46.74,46.74,0,0,0-9.46-7.64c-.93-.59-1.87-1.15-2.82-1.7-2.19-1.25-4.6-2.45-7.1-2.16a2.89,2.89,0,0,0-2.31,1.29c-.29.54-.29,1.2-.54,1.76a3.84,3.84,0,0,1-2.54,1.8A6.32,6.32,0,0,0,239,238.7a3,3,0,0,0-.79,3c.1.4.6.8.88,1.11,0,0,.4-.46.58-.63.38-.37.78-.21,1.21-.07a16.67,16.67,0,0,1,1.71.64,35.56,35.56,0,0,1,3.26,1.65A49.78,49.78,0,0,1,251.4,248a47.75,47.75,0,0,1,5.77,5.05c.89.92,1.75,1.88,2.56,2.88s1.43,2,2.27,2.93a3,3,0,0,1-.7.92A5.25,5.25,0,0,0,262.94,260.16Z"/><path class="cls-10" d="M261.88,260a3.09,3.09,0,0,0,.6.17,2.57,2.57,0,0,0,1.74-.28,2.5,2.5,0,0,0,.92-.91,4.65,4.65,0,0,0,.48-1.46,3.94,3.94,0,0,1,.61-1.58,3.35,3.35,0,0,1,1.6-1,4.69,4.69,0,0,0,1.82-1.25,3.58,3.58,0,0,0,1-2.19,8,8,0,0,0-1.82-4.89,43.7,43.7,0,0,0-8.37-8.47,53.31,53.31,0,0,0-5.11-3.45,18.23,18.23,0,0,0-5.32-2.25,10.34,10.34,0,0,0-2.7-.25,7.44,7.44,0,0,0-1.31.16,2,2,0,0,0-1.1.75,10.49,10.49,0,0,0-.91,2.2,2.85,2.85,0,0,1-1.43,1.41c-.6.31-1.24.45-1.83.69a6.13,6.13,0,0,0-1.56.85,2.93,2.93,0,0,0-1.19,2.49,2.46,2.46,0,0,0,.59,1.65,1.67,1.67,0,0,0,.46.41,2,2,0,0,1-.45-.42,2.51,2.51,0,0,1-.52-1.64,2.83,2.83,0,0,1,1.22-2.35,5.94,5.94,0,0,1,1.53-.78c.57-.22,1.22-.35,1.86-.66a3.1,3.1,0,0,0,1.62-1.52,11.75,11.75,0,0,1,.9-2.11c.44-.63,1.3-.68,2.14-.72a10.47,10.47,0,0,1,2.58.29,17.76,17.76,0,0,1,5.15,2.25,54.21,54.21,0,0,1,5,3.43,45.73,45.73,0,0,1,8.32,8.31,7.61,7.61,0,0,1,1.83,4.59,3.22,3.22,0,0,1-.88,2,4.3,4.3,0,0,1-1.68,1.22,3.64,3.64,0,0,0-1.68,1.09,4.27,4.27,0,0,0-.6,1.68,4.87,4.87,0,0,1-.42,1.44,2.31,2.31,0,0,1-.86.89,2.42,2.42,0,0,1-1.69.33A3,3,0,0,1,261.88,260Z"/><path class="cls-10" d="M238.9,241.75a10,10,0,0,1,1.2.19,13.26,13.26,0,0,1,3.12,1.1,58,58,0,0,1,9.22,5.86,48.66,48.66,0,0,1,7.77,7.67c.87,1.1,1.54,2,2,2.66l.69,1s-.23-.37-.66-1-1.09-1.59-1.94-2.7a44.81,44.81,0,0,0-7.73-7.76,52.64,52.64,0,0,0-9.3-5.8,13.41,13.41,0,0,0-3.14-1.05A10.38,10.38,0,0,0,238.9,241.75Z"/><path class="cls-10" d="M243.11,236.36a11.46,11.46,0,0,1,1.64.24,17,17,0,0,1,3.74,1.34c1.39.68,2.6,1.42,3.48,1.95l1.43.86s-.5-.4-1.33-1a21.72,21.72,0,0,0-3.43-2.12,12.08,12.08,0,0,0-3.86-1.19A8.45,8.45,0,0,0,243.11,236.36Z"/><path class="cls-10" d="M265.63,257.48l.08-.36a5.26,5.26,0,0,0,.07-1,8.3,8.3,0,0,0-.8-3.23,12,12,0,0,0-1.8-2.8c-.28-.32-.51-.57-.68-.74l-.26-.26.21.3a9.57,9.57,0,0,1,.58.81,18.31,18.31,0,0,1,1.62,2.84,10.62,10.62,0,0,1,1,3.09,6.38,6.38,0,0,1,0,1Z"/><path class="cls-4" d="M154.48,389.94c6.31-3.51,16-4.34,22.05-3.35,0,.05,19.13-16.16,25.29-32.87.25-2.75-.14-3.72-.56-6.23-23.92,5.56-58.88,2.59-81-5.36-.56,2.27-1.1,3.25-1.22,6.06C126.67,364.85,143.79,377.73,154.48,389.94Z"/><path class="cls-11" d="M201.26,347.49l-3.17.62-1.69.34-2,.29c-1.46.21-3.11.49-5,.64a162,162,0,0,1-29,.3,184.36,184.36,0,0,1-28.64-4.28c-3.62-.84-6.51-1.67-8.49-2.28l-3.07-1,3,1.07c2,.66,4.85,1.56,8.45,2.47a167.33,167.33,0,0,0,28.67,4.55,146.87,146.87,0,0,0,29-.57c1.85-.18,3.5-.5,5-.74l2-.34,1.69-.38Z"/><path class="cls-11" d="M201.82,353.72,201,354c-.53.2-1.32.45-2.35.75a68.41,68.41,0,0,1-8.88,1.8,158.44,158.44,0,0,1-29.85,1c-11.66-.62-22.15-2.4-29.48-4.6a55.4,55.4,0,0,1-8.48-3.19c-1-.44-1.7-.85-2.19-1.13l-.75-.42.74.44c.49.29,1.2.72,2.16,1.19a54.65,54.65,0,0,0,8.44,3.37c7.32,2.34,17.83,4.26,29.53,4.88a144.78,144.78,0,0,0,29.92-1.24,65.36,65.36,0,0,0,8.86-2c1-.32,1.82-.59,2.34-.81Z"/><path class="cls-5" d="M154.48,389.94l.87-.32c.55-.22,1.37-.5,2.38-.82A49.19,49.19,0,0,1,174,386.59c1.06,0,1.92.09,2.51.15l.92.08-.91-.16c-.59-.11-1.44-.23-2.5-.34a37.06,37.06,0,0,0-8.33.15,36.25,36.25,0,0,0-8.07,2.08c-1,.38-1.79.73-2.32,1Z"/><path class="cls-8" d="M108.86,249.76c5.87-6.45,18.1-16.09,24.79-20.77a52.2,52.2,0,0,1,27.48-8,38.56,38.56,0,0,1,24.56,8.29s3.31,4,8.27,9,12.56,11.77,12.56,11.77c-2.29,15.13-5,37-5.24,52.24-.2,14.84.13,37.79.43,42.93-23.72,14.86-82.18,5.16-84.28,1.86-.43-4.77,3.65-21.75-3.53-72C112.89,268.08,108.38,250.29,108.86,249.76Z"/><path class="cls-10" d="M203.72,270.79s-.12,1-.36,2.91-.54,4.59-.89,7.95c-.7,6.71-1.48,16-1.81,26.32s-.11,19.65.25,26.39c.19,3.37.39,6.1.54,8s.26,2.92.26,2.92l-.14-2.93c-.09-1.88-.2-4.61-.3-8-.18-6.75-.22-16.07.11-26.35s.93-19.59,1.45-26.32c.26-3.36.48-6.09.65-8S203.72,270.79,203.72,270.79Z"/><path class="cls-10" d="M166.78,253.85s-.07.33-.26.93-.48,1.49-.84,2.64a95.68,95.68,0,0,0-2.68,9.84,16,16,0,0,0-.33,3.39q.06,1.77.12,3.66c.09,2.53.18,5.23.28,8.07.22,5.68.46,11.92.72,18.47.56,13.11,1.1,25,1.37,33.57s.23,13.91.23,13.91.22-5.32.13-13.92-.45-20.48-1-33.59c-.29-6.55-.57-12.8-.83-18.48-.14-2.83-.27-5.53-.39-8.06-.07-1.26-.13-2.48-.19-3.65a15.59,15.59,0,0,1,.26-3.31,100.84,100.84,0,0,1,2.43-9.87c.33-1.15.58-2,.76-2.66S166.78,253.85,166.78,253.85Z"/><path class="cls-12" d="M116.68,350.36c24.66,14.18,57.95,11.13,86,3a25.72,25.72,0,0,0-.53-11.06s-40.89,17.1-84.83-2.93A34.35,34.35,0,0,0,116.68,350.36Z"/><path class="cls-13" d="M156.35,361.16c4.28.88,14.84.29,15.3,0a4.25,4.25,0,0,0,1.42-2.63c.43-3.07.82-7.44.32-9.06-.76-2.45-4-1.72-14-2.07l-1.63-.06a.93.93,0,0,0-.29,0c-1.2.1-1.62,1.18-1.77,2.61C155.38,352.49,154.4,360.71,156.35,361.16Z"/><path class="cls-14" d="M157.42,347.34a113.41,113.41,0,0,0,15.25,12.47,4.12,4.12,0,0,0,.4-1.3,106.32,106.32,0,0,1-13.73-11.13l-1.63-.06A.93.93,0,0,0,157.42,347.34Z"/><path class="cls-15" d="M188.65,345c.59,4.29,0,14.41,0,14.49s4.36-.25,4.87-.74c.61-1.3.72-13.81-.13-14.6C192.56,343.84,189.36,344.71,188.65,345Z"/><path class="cls-15" d="M146,347.81c-1,4.23-1.17,13.7-1.23,13.78s-4.32-.62-4.79-1.15c-.49-1.34.42-12.88,1.34-13.59A14.41,14.41,0,0,1,146,347.81Z"/><path class="cls-15" d="M126.34,342.86c-.8,4.26-.61,13.72-.71,13.73a5.47,5.47,0,0,1-4.63-2c-.54-1.33-.25-12.76.64-13.5C122.66,341,125.62,341.92,126.34,342.86Z"/><path class="cls-6" d="M154.08,254c-5.31-2.61-18.75-10.22-20.72-24.77,0-.21,4-3.42,11.2-5.43A54.23,54.23,0,0,1,161.13,221a39.87,39.87,0,0,1,19.1,4.68,35.47,35.47,0,0,1,4.52,2.86c2.82,2.08,1.76,4.81.32,7.72-2.34,4.72-13.73,14.9-18.29,17.55-2.32,7-4.36,14-3.77,18.94C159.41,263.34,155.59,254.78,154.08,254Z"/><path class="cls-8" d="M154.08,254c-6.06-2.5-16.09-12-20.52-24.41h0s-3.88.65-4,2.63c-.38,8.38,7.56,25.87,9,34.71C147.77,254.81,153.44,254,154.08,254Z"/><path class="cls-8" d="M166.78,253.85c5.87-.48,12.83.91,17.28,9.68a102.06,102.06,0,0,0,2.88-33.7c-.15-1.56-2.81-2.35-2.81-2.35C179.24,240.57,174.31,250.06,166.78,253.85Z"/><path class="cls-10" d="M154.08,254l-.86-.42-1-.52-1.35-.84a33.36,33.36,0,0,1-7.35-6.87,70.42,70.42,0,0,1-8-12.61c-.33-.63-.64-1.27-1-1.92-.16-.32-.31-.65-.47-1l-.27-.57-.22-.47-.48.22-.31.14-.25.1-.52.2c-.35.14-.71.28-1.07.46a3.33,3.33,0,0,0-1,.72,2.37,2.37,0,0,0-.58,1.2,20.19,20.19,0,0,0,.31,4.79c.12.79.27,1.58.46,2.37s.37,1.59.58,2.38c1.68,6.34,3.85,12.19,5.56,17.57.43,1.35.83,2.66,1.19,3.95.19.64.33,1.28.49,1.91.09.31.15.63.21.94s.17.82.25,1.23l.08.39,0,.09s0,0,.05,0l.13-.15.5-.6c.21-.27.43-.52.64-.78.38-.47.75-.94,1.14-1.37.76-.88,1.48-1.74,2.22-2.51a38.44,38.44,0,0,1,7.54-6.68,10.3,10.3,0,0,1,2.48-1.18,3.16,3.16,0,0,1,.94-.15,2.86,2.86,0,0,0-1,.12,10.22,10.22,0,0,0-2.52,1.11,37.47,37.47,0,0,0-7.76,6.53c-.75.76-1.49,1.61-2.28,2.48-.4.43-.77.89-1.17,1.35l-.54.64c-.06.05-.15.23-.15.05s-.08-.42-.11-.64-.12-.63-.2-.95c-.16-.63-.29-1.29-.48-1.93-.34-1.31-.73-2.63-1.14-4-1.64-5.42-3.77-11.28-5.44-17.57-.21-.79-.41-1.57-.57-2.35s-.34-1.56-.46-2.34A20.46,20.46,0,0,1,130,232c.17-1.36,2-1.7,3.21-2.27,0,0,0,0,0,0l.21.43.48,1c.32.65.65,1.29,1,1.92a68,68,0,0,0,8.31,12.56,32.45,32.45,0,0,0,7.57,6.73l1.38.81,1.06.49Z"/><path class="cls-10" d="M166.78,253.85l.93,0a18.88,18.88,0,0,1,2.65.09,16.14,16.14,0,0,1,8.82,3.66,17.34,17.34,0,0,1,4.14,5.17L184,264l.1.17c0,.05,0-.09.05-.13l.1-.39.19-.78.24-1c.08-.31.15-.63.22-.94.3-1.26.57-2.57.84-3.91a101.83,101.83,0,0,0,1.89-17.69,81.8,81.8,0,0,0-.36-9.22,2.26,2.26,0,0,0-.35-1.2,3.35,3.35,0,0,0-.86-.86,6.26,6.26,0,0,0-1-.57l-.52-.22c-.31-.08-.73-.38-.77.11-.54,1.37-1.06,2.72-1.57,4a79.7,79.7,0,0,1-6.25,13,38.86,38.86,0,0,1-3.26,4.49c-.56.59-1,1.17-1.56,1.65s-1,.92-1.42,1.28l-1.22.92c-.36.26-.7.43-.95.59l-.8.48.81-.45c.26-.15.6-.32,1-.56l1.26-.9c.46-.34.93-.79,1.47-1.24s1-1,1.62-1.62a38.4,38.4,0,0,0,3.38-4.45,75.83,75.83,0,0,0,6.52-13l1.5-3.75s0,0,0,0l.47.2a4.8,4.8,0,0,1,.88.51,2.59,2.59,0,0,1,.68.68,1.54,1.54,0,0,1,.24.9,88.14,88.14,0,0,1,.32,9.14,108.94,108.94,0,0,1-1.77,17.59c-.24,1.33-.5,2.64-.77,3.9-.13.6-.27,1.19-.4,1.77l0,.13s0,.15,0,.07l-.19-.31a17.36,17.36,0,0,0-4.34-5.21,16.16,16.16,0,0,0-9-3.49,18,18,0,0,0-2.66,0Z"/><path class="cls-10" d="M154.08,254l.16.15a2,2,0,0,1,.39.46,15.07,15.07,0,0,1,1.16,1.92c.89,1.67,2,4,3.2,6.68s2.25,5,2.92,6.81c.33.89.56,1.62.7,2.13l.17.81s0-.29-.05-.83-.23-1.29-.48-2.22a49.24,49.24,0,0,0-2.6-7,48.41,48.41,0,0,0-3.55-6.57,12.92,12.92,0,0,0-1.38-1.8,1.75,1.75,0,0,0-.46-.41Z"/><path class="cls-10" d="M168.25,278.72c.3-2-3-2.79-3.26-.63a1.79,1.79,0,0,0,1.34,1.93A1.67,1.67,0,0,0,168.25,278.72Z"/><path class="cls-10" d="M169.52,304.45c.3-2-3-2.78-3.26-.63a1.78,1.78,0,0,0,1.34,1.93A1.66,1.66,0,0,0,169.52,304.45Z"/><path class="cls-10" d="M170.77,331.33c.31-2-3-2.78-3.26-.63a1.79,1.79,0,0,0,1.34,1.93A1.66,1.66,0,0,0,170.77,331.33Z"/><path class="cls-8" d="M111.57,248.05a12.42,12.42,0,0,0-2.66,1.79c-2.75,2.42-3,3.75-3,7.41s1.52,6.93,3.33,10c8,13.55,19,25.16,30.57,35.77,0,0,16.26-6.64,21.56-23.09,0,0-11.77-11.41-21.28-21.21C133.9,252.3,120.93,243.48,111.57,248.05Z"/><path class="cls-10" d="M107.28,264.52s.45.81,1.3,2.23,2.11,3.47,3.79,5.92a154.05,154.05,0,0,0,14.6,18,73.26,73.26,0,0,0,9.36,8.7,44.8,44.8,0,0,0,8.95,5.37A31.92,31.92,0,0,0,152,307c.81.18,1.45.26,1.88.32l.66.1-.65-.12a18.67,18.67,0,0,1-1.87-.38,33.55,33.55,0,0,1-6.59-2.34,47.34,47.34,0,0,1-8.79-5.49,78,78,0,0,1-9.25-8.72,179.19,179.19,0,0,1-14.77-17.8c-1.73-2.41-3-4.42-3.94-5.81Z"/><path class="cls-10" d="M161.4,279.91,160,278.59c-.91-.83-2.18-2.09-3.75-3.66-3.14-3.12-7.27-7.64-12.06-12.42s-9.55-8.74-13.41-11l-1.37-.79c-.44-.25-.88-.43-1.27-.63a18.93,18.93,0,0,0-2.07-.91l-1.8-.67,1.77.74c.58.22,1.24.59,2,1,.39.21.81.41,1.24.67l1.34.83c3.76,2.32,8.39,6.35,13.16,11.12s9,9.19,12.26,12.23c1.62,1.51,2.94,2.73,3.89,3.53Z"/><path class="cls-6" d="M176.74,294.71c12.77-5.07,25.23-14.2,28.89-21.76,3.29-4.41-1.68-15.31-10-16.18-10.62,7.07-20.37,10.11-29.34,15.11Z"/><path class="cls-3" d="M195.67,256.77s-1.59,1-4.21,2.4-6.28,3.34-10.4,5.29l-10.59,5-4.38,2.07,4.53-1.74c2.78-1.11,6.62-2.66,10.75-4.63a95.33,95.33,0,0,0,10.28-5.64C194.18,257.88,195.67,256.77,195.67,256.77Z"/><path class="cls-8" d="M173,301.34c4.55-2.31,11.89-6.67,11.82-8.07-.05-.89.08-3.61,0-4.5-.45-7.33-5.23-14.47-10.51-19.58a4.41,4.41,0,0,0-1.72-1.16c-1-.28-7.81,2.29-11.17,3.9.55.46-24,8.43-20.08,22.75C147.28,316.3,173,301.34,173,301.34Z"/><path class="cls-10" d="M154.51,307.37a11.54,11.54,0,0,0,1.33-.11,32.44,32.44,0,0,0,3.58-.7,65,65,0,0,0,11.35-4,76.18,76.18,0,0,0,10.46-5.93,21.13,21.13,0,0,0,2.86-2.27,3,3,0,0,0,.6-.79.89.89,0,0,0,.09-.33.82.82,0,0,1-.1.33,3.05,3.05,0,0,1-.63.75,21.1,21.1,0,0,1-2.92,2.15,90.22,90.22,0,0,1-10.51,5.76,76,76,0,0,1-11.24,4.12c-1.48.41-2.7.68-3.54.83A12.27,12.27,0,0,1,154.51,307.37Z"/><path class="cls-10" d="M172.57,268l-.3-.07a4,4,0,0,0-.87,0,12,12,0,0,0-3.09.9l-2,.87-2.38.92c-1.67.65-3.48,1.43-5.37,2.3s-3.66,1.72-5.22,2.62a15.11,15.11,0,0,0-3.79,2.92,9.51,9.51,0,0,0-1.76,2.69,6.74,6.74,0,0,0-.37,1.12,6.36,6.36,0,0,1,.43-1.1,9.53,9.53,0,0,1,1.83-2.59,16.12,16.12,0,0,1,3.81-2.78c1.56-.85,3.35-1.68,5.23-2.56s3.68-1.65,5.33-2.34c.83-.35,1.62-.65,2.36-1l2-.92a12.17,12.17,0,0,1,3-1,3.78,3.78,0,0,1,.86,0Z"/><path class="cls-8" d="M180.47,298.11a3.09,3.09,0,0,0,2.75-.44c.83-.52,1.27-2,2.18-2.34a4.71,4.71,0,0,1,1.72-.13,4.41,4.41,0,0,0,2.79-1c1.29-1.25,1.24-3.19,1-4.74a31.83,31.83,0,0,0-1.46-6,56,56,0,0,0-5.75-11.6,33.81,33.81,0,0,0-2.9-3.91,13.85,13.85,0,0,0-3.27-2.84c-1.15-.66-2.92-1.33-4.1-.41-.49.38-.75,1-1.21,1.39a3.83,3.83,0,0,1-3.06.61,7,7,0,0,0-3.19,0,3.07,3.07,0,0,0-1.93,2.4,3.29,3.29,0,0,0,.36,1.37s.55-.25.78-.34c.5-.18,1,.42,1.32.72a15.7,15.7,0,0,1,1.3,1.28,35,35,0,0,1,2.3,2.83,60.78,60.78,0,0,1,4,6.17,47.17,47.17,0,0,1,3.22,7c.44,1.21.83,2.43,1.17,3.67s1.21,3.64,1.61,4.79a3,3,0,0,1-1,.55A4.65,4.65,0,0,0,180.47,298.11Z"/><path class="cls-10" d="M179.58,297.5a3.48,3.48,0,0,0,.49.4,2.56,2.56,0,0,0,3-.07,6.47,6.47,0,0,0,1-1.2,3.34,3.34,0,0,1,1.28-1.16,4.74,4.74,0,0,1,1.95-.16,3.32,3.32,0,0,0,1.12-.14c.18-.06.37-.1.55-.18l.54-.27a3.6,3.6,0,0,0,1.46-2,11,11,0,0,0-.19-5.37,47.66,47.66,0,0,0-4.3-11.46,54,54,0,0,0-3.35-5.39,22.2,22.2,0,0,0-3.94-4.43,11.33,11.33,0,0,0-2.35-1.49,9.6,9.6,0,0,0-1.26-.48,2.29,2.29,0,0,0-1.37,0c-.88.35-1.31,1.11-1.86,1.62a2.66,2.66,0,0,1-1.88.85,11.79,11.79,0,0,1-2-.1,8.63,8.63,0,0,0-1.83,0,3.15,3.15,0,0,0-1.49.55,2.68,2.68,0,0,0-.83,1,2.5,2.5,0,0,0-.17,1.79,1.75,1.75,0,0,0,.26.58,2,2,0,0,1-.24-.58,2.7,2.7,0,0,1,1.05-2.73,3.12,3.12,0,0,1,1.44-.48,9,9,0,0,1,1.78.06,11,11,0,0,0,2,.15,2.94,2.94,0,0,0,2.09-.89c.57-.53,1-1.25,1.76-1.5a3.36,3.36,0,0,1,2.32.48,11.22,11.22,0,0,1,2.24,1.47,22.68,22.68,0,0,1,3.81,4.38,58.22,58.22,0,0,1,3.29,5.35,49.28,49.28,0,0,1,4.33,11.31,10.62,10.62,0,0,1,.28,5.15,3.24,3.24,0,0,1-1.28,1.84l-.48.26a5.08,5.08,0,0,1-.51.17,2.83,2.83,0,0,1-1,.16,4.84,4.84,0,0,0-2,.23,3.45,3.45,0,0,0-1.33,1.26,5.76,5.76,0,0,1-1,1.2,2.31,2.31,0,0,1-1.17.52,2.4,2.4,0,0,1-1.72-.37A4.14,4.14,0,0,1,179.58,297.5Z"/><path class="cls-10" d="M164.72,269.43a9.68,9.68,0,0,1,1.09.73,15.34,15.34,0,0,1,2.53,2.51,63.1,63.1,0,0,1,6.45,9.84,58.57,58.57,0,0,1,4.49,10.89c.41,1.45.69,2.64.86,3.47s.24,1.29.24,1.29l-.22-1.3c-.15-.83-.4-2-.8-3.49A54.64,54.64,0,0,0,175,282.43a58.72,58.72,0,0,0-6.54-9.82,15.27,15.27,0,0,0-2.59-2.48A9,9,0,0,0,164.72,269.43Z"/><path class="cls-10" d="M170.94,266.52a11,11,0,0,1,1.48.94,17,17,0,0,1,3,3c1,1.3,1.86,2.55,2.49,3.44l1,1.46s-.32-.6-.86-1.55a28.39,28.39,0,0,0-2.36-3.57,12.89,12.89,0,0,0-3.18-2.88A8.29,8.29,0,0,0,170.94,266.52Z"/><path class="cls-10" d="M184,296.76l.23-.35a4,4,0,0,0,.41-1.06,11.1,11.1,0,0,0,.2-3.73,19.54,19.54,0,0,0-.74-3.65c-.29-.91-.51-1.46-.51-1.46s.13.58.33,1.5a36,36,0,0,1,.56,3.65,14.57,14.57,0,0,1,0,3.65,4.35,4.35,0,0,1-.28,1.08C184.08,296.63,184,296.76,184,296.76Z"/><path class="cls-16" d="M132.71,59A121.92,121.92,0,0,0,177.12,4.12a7.77,7.77,0,0,1,1.78-3c1.6-1.43,4-1.25,6.1-.62a29.57,29.57,0,0,1,9.41,5.38,75.3,75.3,0,0,1,19.43,95.33Z"/><path class="cls-17" d="M183.2,9.59C183,23,168.77,52.14,165.25,54.77c.72-1.63,1.45-3.26,2.18-4.87a103.55,103.55,0,0,1-25,14.13L132.72,59a122,122,0,0,0,44.4-54.86,7.89,7.89,0,0,1,1.78-3,4.39,4.39,0,0,1,2.49-1C182.91,2.79,183.24,6.35,183.2,9.59Z"/><path class="cls-18" d="M209.3,67c2.68,1.22-2.21,16.37-2.56,18.2A57.44,57.44,0,0,1,170.8,66.75a135.26,135.26,0,0,0,16.58-38.13c.48-1.81,1-3.77,2.48-4.91,3.82-3,10.73,6.88,12.54,9.45a60.22,60.22,0,0,1,10.73,38.18A7.15,7.15,0,0,0,209.3,67Z"/><path class="cls-19" d="M205.82,85.06a57.42,57.42,0,0,1-35-18.3,135.7,135.7,0,0,0,16.57-38.14c.47-1.81,1-3.77,2.48-4.92a2.89,2.89,0,0,1,2.92-.29c-2.49,8.53-5.1,17.09-5.73,25.92-.69,9.64,1.22,19.86,7.41,27.26A32.11,32.11,0,0,0,205.82,85.06Z"/><path class="cls-20" d="M101.36,66.64c-13.49,6.29-25.49,15-34.23,27.5-14.49,20.82-10.33,42.15-16,65.57-1.11,4.56-1.37,9.67-3.24,14,0,0-2.35,8.28-10.93,10.8a24.45,24.45,0,0,0,8.16-.94A48.74,48.74,0,0,1,22,199.43c8.9.95,25.51,6.22,25.79,8.24a101.88,101.88,0,0,1-11.15,3.84c5.84,4.78,15.33,10.29,28.2,15.84l.64.27c2.09.9,4.28,1.79,6.56,2.69l.3.12c28.17,10.7,69.38,16.37,117.75,0,42.82-16.1,66.69-62.61,67.71-80.09a9.24,9.24,0,0,1-9.64-2,33.44,33.44,0,0,0,6.91-7.53c-38.49-9.5-38.36-49.26-65.12-70.91-22.2-18-53.21-16.8-78.74-7.31C107.87,63.79,104.57,65.15,101.36,66.64Z"/><path class="cls-3" d="M155.59,56.19l-3.11-.29a84.8,84.8,0,0,0-8.51-.21,100.94,100.94,0,0,0-27.65,4.81A116.13,116.13,0,0,0,90.77,72.14c-3,1.91-5.41,3.63-7,4.85s-2.44,2-2.44,2,.87-.7,2.49-1.89,4-2.84,7.09-4.69A126.18,126.18,0,0,1,116.48,61,108,108,0,0,1,144,56c3.58-.16,6.49-.07,8.5,0Z"/><path class="cls-21" d="M44.08,208a16,16,0,0,1-9.33,2.28c1.85,2,6.86,4.87,8.62,6q5.31,3.33,10.88,6.23a162.1,162.1,0,0,0,50.16,16.35c5.43.82,10.16,1.13,15.59,1.76s11.26.27,16.13.32c-20.9-1.73-40-13.05-58.48-23a35.84,35.84,0,0,0,16-.77,114.06,114.06,0,0,1-39.4-15,26.8,26.8,0,0,0,13-6.08l-12.56-1.76Q64.9,191.4,75,188l-9.18-1.42c-.16,0-2.8-29.47-3.31-32.43-2.41-14,2.91-53.05,6.71-60.34C59.94,99.71,57.45,114.67,56,124.77c-1.69,11.65-2.1,23.46-4.89,34.94-1.11,4.56-4.76,20.21-14.17,24.8a24.45,24.45,0,0,0,8.16-.94A48.74,48.74,0,0,1,22,199.43C24.72,200.89,33.52,206.7,44.08,208Z"/><path class="cls-3" d="M67.13,94.14,65.28,97a36.06,36.06,0,0,0-2,3.4A49.2,49.2,0,0,0,61,105a70.14,70.14,0,0,0-4.07,13,154.47,154.47,0,0,0-2.38,16.48c-.61,5.87-1.16,11.45-1.95,16.5-.22,1.25-.43,2.48-.63,3.67s-.49,2.33-.71,3.44c-.45,2.23-1,4.27-1.53,6.12a83.88,83.88,0,0,1-3,8.64c-.82,2-1.34,3.08-1.34,3.08s.55-1.07,1.42-3.05A79.45,79.45,0,0,0,50,164.3c.56-1.85,1.15-3.89,1.63-6.11.24-1.12.54-2.26.76-3.45s.44-2.42.67-3.68c.84-5.05,1.43-10.65,2-16.52s1.26-11.44,2.29-16.44a73.08,73.08,0,0,1,3.87-12.95,51.1,51.1,0,0,1,2.19-4.72A37.73,37.73,0,0,1,65.35,97Z"/><path class="cls-22" d="M63.57,154.86C42.9,142.18,13.83,123.63,9.94,99.7S9.85,50.23,25.43,31.65c.77-.91,1.69-1.88,2.88-1.92a5.08,5.08,0,0,1,2.59,1.12c15.44,9.36,35.17,34.08,61.36,45.08-3,3.24-11.89,15.25-13.61,23a21.26,21.26,0,0,1-1.87-4.74,19.38,19.38,0,0,0-1.66,10.48l-3.85-6.08a23.5,23.5,0,0,0-1.53,12,4,4,0,0,1-1.36-3.71,42.27,42.27,0,0,0-1.86,12.79c0,2,.69,4.31.49,6.27-.17,1.55-1.56,3.3-1.76,4.85A177.13,177.13,0,0,0,63.57,154.86Z"/><path class="cls-3" d="M30.9,30.85l2.45,1.74c.8.55,1.76,1.24,2.84,2.08s2.35,1.77,3.68,2.88c2.7,2.15,5.8,4.87,9.22,7.9s7.12,6.44,11.11,9.9S68.13,62,71.86,64.63a101.54,101.54,0,0,0,10.28,6.51c3.06,1.63,5.57,2.88,7.36,3.61l2.76,1.18-2.72-1.26c-1.77-.77-4.25-2.08-7.27-3.76a110.68,110.68,0,0,1-10.14-6.65c-3.68-2.7-7.6-5.85-11.57-9.32L49.39,45.1c-3.46-3-6.6-5.66-9.36-7.76-1.34-1.09-2.63-2-3.73-2.8s-2.09-1.49-2.9-2Z"/><path class="cls-18" d="M77.32,78.34c-11-2-15.93-1-24.15-8.23-4.36-3.84-8.53-7.89-12.82-11.8-3.47-3.17-7.66-9.47-10.06-1.76C22,83.16,26.05,117.46,54.64,129.91a78,78,0,0,0,3.43-22.24A7.35,7.35,0,0,0,60.65,112,25.91,25.91,0,0,1,62.3,96.2L65.86,103a29.91,29.91,0,0,1,2.6-10.6l1.25,1.27c.76-3.69,2-5.75,3.87-8.92C74.13,83.77,76.18,78.61,77.32,78.34Z"/><path class="cls-23" d="M65.49,227.62c2.1.92,4.29,1.83,6.56,2.69C69.77,229.41,67.58,228.52,65.49,227.62Z"/><path class="cls-3" d="M253.88,165.4l-1.48,3.36c-1,2.15-2.49,5.23-4.55,8.92a134.91,134.91,0,0,1-8,12.48,128.73,128.73,0,0,1-11.6,14,113.76,113.76,0,0,1-25.8,20.39,96.87,96.87,0,0,1-9,4.44l-3.38,1.45L193.5,229a89.7,89.7,0,0,0,9.07-4.27,108.64,108.64,0,0,0,26.05-20.25,120.07,120.07,0,0,0,11.58-14.07,124.81,124.81,0,0,0,7.89-12.61c2-3.73,3.45-6.84,4.39-9Z"/><path class="cls-3" d="M181.38,64s1.17.65,3.19,2a61.73,61.73,0,0,1,8,6.32,72.12,72.12,0,0,1,9.85,11.49,171.82,171.82,0,0,1,9.63,15.89c3.2,5.77,6.25,11.29,9.42,16.07,1.59,2.39,3.2,4.59,4.79,6.58a65.09,65.09,0,0,0,4.78,5.25,47.68,47.68,0,0,0,8,6.38c1,.68,1.84,1.1,2.39,1.42l.85.48-.84-.5c-.54-.34-1.37-.77-2.36-1.47a49,49,0,0,1-7.87-6.51,67.36,67.36,0,0,1-4.68-5.28c-1.56-2-3.14-4.21-4.7-6.6-3.11-4.79-6.12-10.31-9.32-16.09a163.48,163.48,0,0,0-9.73-15.89,70.37,70.37,0,0,0-10.05-11.42,59.66,59.66,0,0,0-8.17-6.19C182.56,64.63,181.38,64,181.38,64Z"/><path class="cls-3" d="M87.11,235.18l4,1c1.28.33,2.87.66,4.71,1.07s3.94.81,6.27,1.24,4.9.81,7.65,1.23,5.72.73,8.85,1A151.13,151.13,0,0,0,139,241a170.46,170.46,0,0,0,36.49-6l6.14-1.8c1.8-.54,3.33-1.1,4.58-1.51l3.9-1.32-3.92,1.24c-1.27.38-2.8.91-4.61,1.43l-6.16,1.7A182.52,182.52,0,0,1,139,240.47a161.38,161.38,0,0,1-20.32-.27c-3.12-.2-6.07-.57-8.84-.87s-5.33-.7-7.66-1.13-4.44-.75-6.28-1.14-3.43-.68-4.72-1Z"/><circle class="cls-14" cx="102.84" cy="147.75" r="24.18"/><path class="cls-24" d="M126.51,142.67a17.31,17.31,0,1,0-12.74,20.89A17.31,17.31,0,0,0,126.51,142.67Z"/><circle cx="110.77" cy="146.61" r="12.07" transform="translate(-48.66 55.26) rotate(-23.11)"/><circle class="cls-25" cx="102.84" cy="147.75" r="24.18"/><path class="cls-26" d="M126.33,142.06l-.17-.76c-.14-.48-.24-1.24-.56-2.15a23.55,23.55,0,0,0-3.84-7.27,25.45,25.45,0,0,0-4-4.11A26.22,26.22,0,0,0,112,124.4a24.81,24.81,0,0,0-7.17-1.78,24.22,24.22,0,0,0-15.25,3.7A24.38,24.38,0,0,0,84,131.19a25.74,25.74,0,0,0-3.56,5.62,24.42,24.42,0,0,0-1.7,5.5,23.29,23.29,0,0,0-.08,8.22c.13,1,.38,1.67.48,2.17l.19.75s0-.27-.1-.77-.21-1.23-.23-2.19a24.41,24.41,0,0,1,.8-7.94,23.65,23.65,0,0,1,5.58-10.15,24.4,24.4,0,0,1,5.27-4.31,23.91,23.91,0,0,1,14-3.4,24.65,24.65,0,0,1,6.66,1.42,25.84,25.84,0,0,1,5.52,2.85,25.28,25.28,0,0,1,4.09,3.62,24.71,24.71,0,0,1,4.35,6.69c.41.87.6,1.59.79,2.06Z"/><path class="cls-14" d="M122.51,139.16a3.57,3.57,0,0,0-5.52-2.9,3.45,3.45,0,0,0-1.59,2.6,3.57,3.57,0,0,0,5.1,3.58A3.53,3.53,0,0,0,122.51,139.16Z"/><circle class="cls-14" cx="186.97" cy="127.36" r="24.18" transform="translate(13.27 272.3) rotate(-74.11)"/><circle class="cls-24" cx="192.95" cy="123.88" r="17.3" transform="translate(-34.68 151.45) rotate(-39.61)"/><circle cx="192.95" cy="123.88" r="12.07" transform="translate(44.1 298.29) rotate(-82.22)"/><path class="cls-14" d="M202.11,113.89a3.56,3.56,0,1,0-2.14,3.29A3.56,3.56,0,0,0,202.11,113.89Z"/><circle class="cls-25" cx="186.97" cy="127.36" r="24.18" transform="translate(13.27 272.3) rotate(-74.11)"/><path class="cls-26" d="M210.46,121.66l-.17-.75c-.14-.48-.24-1.24-.56-2.15a23.55,23.55,0,0,0-3.84-7.27,24.66,24.66,0,0,0-4-4.11,25.83,25.83,0,0,0-5.74-3.37,24.49,24.49,0,0,0-7.17-1.78,24.22,24.22,0,0,0-15.25,3.7,24.59,24.59,0,0,0-5.56,4.86,26,26,0,0,0-3.56,5.62,24.57,24.57,0,0,0-1.7,5.5,23.35,23.35,0,0,0-.08,8.23c.13,1,.38,1.67.48,2.17l.19.74s0-.26-.1-.76-.21-1.24-.24-2.19a24.83,24.83,0,0,1,.81-7.95,25.16,25.16,0,0,1,2-5.08,25.53,25.53,0,0,1,3.6-5.07,24.4,24.4,0,0,1,5.27-4.31,24,24,0,0,1,14-3.39,24.28,24.28,0,0,1,6.66,1.42,25.84,25.84,0,0,1,5.52,2.85,25.28,25.28,0,0,1,4.09,3.62,24.56,24.56,0,0,1,4.35,6.69c.41.86.6,1.59.79,2.06Z"/><path class="cls-27" d="M185.17,240.47c-7.91,1.18-17.14-1.42-24.37-3.54a57.74,57.74,0,0,1-6.63-2.18c-8.1-3-15.51-7.26-23-11.47a168.17,168.17,0,0,1-22.79-15.42,30.89,30.89,0,0,1,5.31.92,60.22,60.22,0,0,1-11-9.89,15.43,15.43,0,0,0,4.07-.12,8.14,8.14,0,0,1-3.15-5.14c3.35.21,5.79-1,8.86-1.76,3.22-.82,6.44-1.37,9.61-2.43a57.67,57.67,0,0,0,17.33-9.24c9-7.11,21-23.31,25.89-25,3-1,11.35.81,14.58,1.25,11.33,1.54,31.73,7.42,34.19,12a23.64,23.64,0,0,1,2.58,7.24c-.18-.7-1.1-.73-1.67-1.17a19.83,19.83,0,0,1,1.23,5.84c-.44-.75-.87-1.51-1.34-2.26,1.32,10.06-5.31,23.34-8.91,26.95-.87.87-.41,13.6-1.28,16.17a34.56,34.56,0,0,1-10.54,15.5A18.1,18.1,0,0,1,185.17,240.47Z"/><path class="cls-3" d="M204.73,221.18l-.19.51c-.13.34-.32.83-.59,1.45a35.63,35.63,0,0,1-2.66,5.08,34.26,34.26,0,0,1-5.34,6.57,21.05,21.05,0,0,1-3.91,3.07,18.21,18.21,0,0,1-4.94,2,31.54,31.54,0,0,1-10.3.48,67.65,67.65,0,0,1-8.38-1.43c-2.37-.53-4.27-1-5.58-1.39l-2-.55,2,.63c1.3.4,3.18,1,5.53,1.58a63,63,0,0,0,8.4,1.61,30.45,30.45,0,0,0,10.48-.4,18.33,18.33,0,0,0,5.08-2,21.51,21.51,0,0,0,4-3.19,33,33,0,0,0,5.25-6.76,34.68,34.68,0,0,0,2.51-5.19c.24-.63.42-1.13.53-1.47Z"/><path class="cls-28" d="M184.14,192.72c1.81-.39,3.18-1.79,4.76-2.75,13.31-8,18.12-25.17,14.54-27-9.11-4.58-27.2-6.17-31.65-6.21-2.28,0-4.71.11-6.57,1.42a39.47,39.47,0,0,0-8,9.43c-3.15,5.41-10.86,13.33-10.86,13.33,12.82,11.62,36.15,12.09,37.76,11.75"/><path class="cls-29" d="M184.14,192.72c1.81-.39,3.18-1.79,4.76-2.75,13.31-8,18.12-25.17,14.54-27-9.11-4.58-27.2-6.17-31.65-6.21-2.28,0-4.71.11-6.57,1.42a39.47,39.47,0,0,0-8,9.43c-3.15,5.41-10.86,13.33-10.86,13.33,12.82,11.62,36.15,12.09,37.76,11.75"/><path class="cls-30" d="M146.39,181c12.81,11.62,36.14,12.09,37.75,11.75,1.81-.39,3.18-1.79,4.76-2.75,13.31-8,18.12-25.17,14.55-27C193.09,172.57,166.09,182.69,146.39,181Z"/><path class="cls-31" d="M146.38,181l2.39.17,1.29.1h1.53c1.1,0,2.36,0,3.74-.07a86.76,86.76,0,0,0,21.23-4c2-.6,4-1.34,5.84-2s3.64-1.44,5.3-2.24a76,76,0,0,0,8.6-4.54,49.93,49.93,0,0,0,5.34-3.8l1.8-1.59s-.66.54-1.87,1.5a56.33,56.33,0,0,1-5.45,3.58,88.73,88.73,0,0,1-8.67,4.3c-1.66.76-3.46,1.4-5.3,2.14s-3.79,1.37-5.8,2a99.18,99.18,0,0,1-21,4.32c-1.37.16-2.62.15-3.71.21l-1.53,0-1.28,0Z"/><path class="cls-32" d="M174.89,177.25a21.46,21.46,0,0,0-5,.58,22.28,22.28,0,0,0-4.71,1.72,21.46,21.46,0,0,0,9.69-2.3Z"/><path class="cls-33" d="M153.8,211.23A84.64,84.64,0,0,1,128.17,206c41.68,21.93,49.35,15.1,58,12.26,3.83-1.25,7.82-2.79,10.34-5.93s2.62-8.75-.58-11.2l0-.3a7.93,7.93,0,0,1-3.78.71c-1.54-.24-2.95-1.05-4.49-1.22-3.43-.4-6.34,2.25-9.11,4.3C170.5,210.53,163.77,211.69,153.8,211.23Z"/><path class="cls-34" d="M159.1,218.9c5.62,1.16,10.51,3.13,16.51,2.4,3.72-.44,7-2,10.53-3.08,4.12-1.35,8.18-3,10.83-6.54C184.59,209.69,169.64,211.69,159.1,218.9Z"/><path class="cls-14" d="M185.46,200.4c-1.92.25-2.92,1.39-4.54,2.39-2.32,1.43-6.59,8.12-19.8,8.29,1,2.73,3.76,3.89,4.62,3.68a2.43,2.43,0,0,0,1.1-2.35c8.83-1.25,19.15-3.89,24.72-6.75.42.4,2.25,1.73,2.89,1.41,1.76-.91,1.84-4.08,1.74-6.2a8.38,8.38,0,0,1-5.06.44A13.26,13.26,0,0,0,185.46,200.4Z"/><path class="cls-35" d="M212.4,172.23a1.29,1.29,0,0,0,0-.32c0-.22-.07-.54-.13-.95l-.14,0c.12.73.35,1.75.47,3.07a22.29,22.29,0,0,1,0,4.77,23.49,23.49,0,0,1-1.49,6.07,25.77,25.77,0,0,1-3.77,6.55,30.75,30.75,0,0,1-6.3,6,26.39,26.39,0,0,1-4.07,2.4,10.49,10.49,0,0,1-4.61,1.19c-1.56-.15-3.14-1.18-5.1-1.27a9.12,9.12,0,0,0-5.35,1.74c-1.59,1-3,2.25-4.54,3.3a35.85,35.85,0,0,1-4.85,2.92,30.79,30.79,0,0,1-12.24,3,72.63,72.63,0,0,1-11.91-.45,94.7,94.7,0,0,1-19.68-4.57c-2.73-.93-5.15-1.93-7.24-2.85s-3.86-1.82-5.29-2.58l-1.88-1c-.54-.31-1-.57-1.36-.79a7,7,0,0,0-1.16-.61,5.87,5.87,0,0,0,1,.78l1.31.88,1.85,1.11c1.4.82,3.16,1.76,5.24,2.75s4.5,2,7.24,3a91.22,91.22,0,0,0,19.81,4.78,71.14,71.14,0,0,0,12.07.5,31.42,31.42,0,0,0,12.61-3.1,37,37,0,0,0,5-3c1.58-1.09,3-2.32,4.5-3.29a8.19,8.19,0,0,1,4.8-1.61c1.65,0,3.19,1,5,1.24a10.91,10.91,0,0,0,5.06-1.3,26.25,26.25,0,0,0,4.19-2.51,30.92,30.92,0,0,0,6.4-6.24,26.3,26.3,0,0,0,3.75-6.79,22.75,22.75,0,0,0,1.37-6.24,22.44,22.44,0,0,0-.15-4.84,30.19,30.19,0,0,0-.61-3.08l-.14,0,.22.94A1.87,1.87,0,0,0,212.4,172.23Z"/><path class="cls-36" d="M182,191.8l.41.47a12.92,12.92,0,0,1,1,1.36,9.49,9.49,0,0,1,1.34,5.15,11.24,11.24,0,0,1-.21,1.91l0,.16c0,.06.1,0,.15,0l.36-.06.57-.08c.24,0,.47-.06.7-.07a13.62,13.62,0,0,1,2.45.08,11.61,11.61,0,0,1,2.24.5s-.19-.11-.56-.28a9.49,9.49,0,0,0-1.61-.57,10.77,10.77,0,0,0-2.54-.34c-.24,0-.49,0-.75,0l-.16,0h0s0,0,0,0a7.92,7.92,0,0,0,.13-1.25,8.15,8.15,0,0,0-1.78-5.36,9.13,9.13,0,0,0-1.18-1.24Z"/><path class="cls-36" d="M115.34,195.19l-.41,0a3.8,3.8,0,0,0-1.12.21,6.2,6.2,0,0,0-3.06,2.22,7.48,7.48,0,0,0-1,1.87,5.47,5.47,0,0,0-.25,1.7,2.64,2.64,0,0,0,0,.65,1.89,1.89,0,0,0,.11.48l.13.4,0-.42a2.29,2.29,0,0,1,0-.47,3.62,3.62,0,0,1,.05-.63,6.17,6.17,0,0,1,.41-1.55,8.8,8.8,0,0,1,1-1.7,7.6,7.6,0,0,1,2.71-2.3,4.87,4.87,0,0,1,1-.38Z"/><path class="cls-36" d="M195.9,201.09a5.84,5.84,0,0,1,1.89,2.72,8.33,8.33,0,0,1,.4,3.87,8.75,8.75,0,0,1-2,4.69,14.92,14.92,0,0,1-5,3.68,30,30,0,0,1-3.26,1.33c-1.13.4-2.33.77-3.54,1.23a32.44,32.44,0,0,1-7.68,2.14c-.34,0-.68.1-1,.13l-1.05.06a18.7,18.7,0,0,1-2.12.05l-2.16-.08-2.18-.25a76,76,0,0,1-16.06-4.17l-3.52-1.28-3.26-1.35-3.05-1.26-2.77-1.26c-3.55-1.56-6.35-3-8.3-3.93l-3-1.47,3,1.55c1.93,1,4.7,2.47,8.23,4.1l2.75,1.3c1,.44,2,.86,3,1.31l3.26,1.4,3.51,1.32a73.54,73.54,0,0,0,16.15,4.28l2.21.25,2.19.07a19.36,19.36,0,0,0,2.16-.05l1.07-.06c.35,0,.7-.1,1-.15a31.74,31.74,0,0,0,7.77-2.22c1.19-.47,2.37-.85,3.53-1.27a33.43,33.43,0,0,0,3.27-1.38,15.1,15.1,0,0,0,5.07-3.84,8.94,8.94,0,0,0,1.94-4.86,8.49,8.49,0,0,0-.5-3.91A5.93,5.93,0,0,0,195.9,201.09Z"/><path class="cls-37" d="M97,57.36l.06.22"/><path d="M115.11,98.68a26.86,26.86,0,0,0,1.07,6.13,27.29,27.29,0,0,0,2.46,5.72,26.74,26.74,0,0,0-3.53-11.85Z"/><path d="M112.16,98.75a21.47,21.47,0,0,1,1.28,2.62c.7,1.64,1.46,4,2.53,6.55.38.87.3.66.36.74s0,0,0,0h0l-.41,0c-1.19-.13-2.27-.21-3.18-.27-1.81-.11-2.94-.12-2.94-.12s1.07.36,2.83.84c.87.23,1.92.49,3.09.76l.48.1.87.16.91.17.47.09.24,0c.07,0,0,0,0-.06l0-.1-1.29-2.93a37.48,37.48,0,0,0-3.24-6.33,15.23,15.23,0,0,0-1.35-1.71C112.37,98.94,112.16,98.75,112.16,98.75Z"/><path d="M109.42,99.05c3,2.41,6,7.32,8.09,10.51a56.35,56.35,0,0,0-26,5.4,164.87,164.87,0,0,0-18.78,11.61s7-13.9,15.61-19.53C99.75,99.58,109.42,99.05,109.42,99.05Z"/><path d="M158.63,88.52a22,22,0,0,0,3.62,11,22.39,22.39,0,0,0-1.09-5.73A22.63,22.63,0,0,0,158.63,88.52Z"/><path d="M160.2,87.24a14.93,14.93,0,0,0-.1,2.52,29.47,29.47,0,0,0,.9,6c.17.66.33,1.31.48,1.89.21.86.4,1.58.55,2.08,1-1.41,1.91-2.83,2.11-3.23.35-.62.65-1.17.89-1.62.48-.9.73-1.43.73-1.43s-.44.39-1.14,1.13c-.36.37-.78.82-1.26,1.36-.63.74-.63.63-.69.63a.64.64,0,0,1,0-.2v0s0,0,0,0l0-.18-.18-.74c-.56-2.26-1.21-4.24-1.63-5.71S160.2,87.24,160.2,87.24Z"/><path d="M161.78,86.26a69.91,69.91,0,0,0,.47,13.24s9.31-6.66,18.22-8.1a28.35,28.35,0,0,1,12.66,1.25s-7.76-8.5-13.3-9.16C172.44,82.61,161.78,86.26,161.78,86.26Z"/><path class="cls-38" d="M263.51,217.46a20.84,20.84,0,0,0,1.15,6.86,7.77,7.77,0,0,1,.21-2.63,15.65,15.65,0,0,0,1,5.37l.15-3a8,8,0,0,0,.92,3.66c.37.78,1.6,1.83,1.81,2.48a5.77,5.77,0,0,1-.25-2.3,4,4,0,0,0,1.59,2.92,7.48,7.48,0,0,0,3.11,1.35,4.45,4.45,0,0,1-2.48-.08,11.43,11.43,0,0,0,6.64,1.88,3.16,3.16,0,0,1-2.17.4c5.35,1.47,11.64-3.35,15.14-6.93,2.07-2.11,8-9.1,9.25-14.81.63-2.75.67-6.16-2.21-6.27a21.68,21.68,0,0,0,1-3c.34-1.33-.1-3.36-1.75-3.52a4.92,4.92,0,0,0-2.9,1.12c.56-1.36.8-3,0-4-1.18-1.54-3.54-1-5-.2-2.29,1.32-3.92,3.92-5.69,5.83-1.05,1.14-2.06,2.31-3.11,3.45a15.43,15.43,0,0,1-3.35,3.25,15.67,15.67,0,0,1,1.61-4c.74-1.59,1.22-3.66.45-5.32-.88-1.91-3.23-3.06-4.86-1.26-1,1.14-2.46,4.51-3.32,5.78-2.16,3.13-4,3.09-5.69,6.48A15.71,15.71,0,0,0,263.51,217.46Z"/><path class="cls-3" d="M279.37,211.81l.56.32c.37.2.89.52,1.51.93a25.91,25.91,0,0,1,7.88,8.39c.37.65.65,1.19.83,1.57l.29.58s-.08-.22-.21-.62a16.89,16.89,0,0,0-.67-1.65,19,19,0,0,0-3.31-4.89,18.76,18.76,0,0,0-4.67-3.61,14.28,14.28,0,0,0-1.61-.77Z"/><path class="cls-3" d="M272.71,216a2.93,2.93,0,0,1,.41.27,3.77,3.77,0,0,1,.86,1,10.26,10.26,0,0,1,1.1,4.18,15.36,15.36,0,0,1-.24,4.36c-.1.55-.23,1-.31,1.31s-.15.47-.15.47l.23-.44a13.53,13.53,0,0,0,.5-1.27,11.39,11.39,0,0,0,.51-4.48,8.39,8.39,0,0,0-1.42-4.28,3.53,3.53,0,0,0-1-.92A2.92,2.92,0,0,0,272.71,216Z"/><path class="cls-3" d="M284.49,225.24l-.31-.23a7.12,7.12,0,0,0-.94-.52,7.31,7.31,0,0,0-6.85.43,6.67,6.67,0,0,0-.86.63l-.28.26.33-.19a7.54,7.54,0,0,1,.94-.46,10.2,10.2,0,0,1,6.63-.41,8.39,8.39,0,0,1,1,.34Z"/><path class="cls-3" d="M263.9,219.54s0-.62-.06-1.74a18.24,18.24,0,0,1,.39-4.7,8.44,8.44,0,0,1,1.29-2.92,17,17,0,0,1,2.59-2.67,19.79,19.79,0,0,0,2.8-3.13,15.22,15.22,0,0,0,1.17-1.91c.34-.67.64-1.37,1-2a5.23,5.23,0,0,1,1.87-2.18,2.22,2.22,0,0,1,2.46.33,3.83,3.83,0,0,1,1.33,2.16,5.51,5.51,0,0,1,0,2.39,27.17,27.17,0,0,1-1.33,3.88c-.42,1.08-.74,1.94-1,2.51a.48.48,0,0,0,0,.12h.05a.56.56,0,0,1,.22.44,2.93,2.93,0,0,1,.07.48,4.77,4.77,0,0,1,0,.84,4.56,4.56,0,0,1-.24,1.17,3.46,3.46,0,0,1-.32.77,3.69,3.69,0,0,0,.36-.76,4.82,4.82,0,0,0,.27-1.18,4.63,4.63,0,0,0,0-1.34c0-.14-.08-.42-.22-.47h-.05l0-.08,1.06-2.41a24.41,24.41,0,0,0,1.48-3.89,6,6,0,0,0,0-2.58,4.29,4.29,0,0,0-1.45-2.44,2.74,2.74,0,0,0-3-.41,5.62,5.62,0,0,0-2.11,2.4c-.37.69-.67,1.38-1,2a16.17,16.17,0,0,1-1.11,1.85,19.36,19.36,0,0,1-2.7,3.09,17.62,17.62,0,0,0-2.57,2.8A8.77,8.77,0,0,0,264,213a18.13,18.13,0,0,0-.21,4.76C263.85,218.92,263.9,219.54,263.9,219.54Z"/><path class="cls-3" d="M276.49,209.64s.47-.42,1.27-1.21,1.94-2,3.32-3.43l2.26-2.4c.82-.87,1.6-1.87,2.48-2.87a13.47,13.47,0,0,1,3-2.73,5.65,5.65,0,0,1,2-.74,3.23,3.23,0,0,1,2,.23,2.15,2.15,0,0,1,1.12,1.6,5,5,0,0,1-.2,2.07,13.17,13.17,0,0,1-2,3.57,37.52,37.52,0,0,1-4.51,5.4c-1.44,1.41-2.69,2.45-3.56,3.16l-1.37,1.09s.51-.35,1.42-1a45.14,45.14,0,0,0,3.69-3,34.7,34.7,0,0,0,4.7-5.33c.39-.55.78-1.12,1.16-1.7a8.06,8.06,0,0,0,.93-2,5.52,5.52,0,0,0,.23-2.3,2.66,2.66,0,0,0-1.39-2,3.79,3.79,0,0,0-2.4-.28,6.31,6.31,0,0,0-2.14.82,13.51,13.51,0,0,0-3.11,2.89c-.86,1-1.62,2-2.4,2.91l-2.19,2.47c-1.33,1.51-2.42,2.73-3.18,3.55S276.49,209.64,276.49,209.64Z"/><path class="cls-3" d="M293.78,200.94a9.6,9.6,0,0,1,.94-.54,5.06,5.06,0,0,1,1.17-.43,2,2,0,0,1,1.53.25,2.35,2.35,0,0,1,.87,1.65,3.5,3.5,0,0,1,0,1.07,10.78,10.78,0,0,1-.32,1.13,27.11,27.11,0,0,1-2.14,4.87,36.26,36.26,0,0,1-5.79,7.75,22.09,22.09,0,0,1-2.2,2,7.2,7.2,0,0,1-.65.46l-.23.16.24-.14a5.3,5.3,0,0,0,.69-.42,17.35,17.35,0,0,0,2.34-1.84,30.64,30.64,0,0,0,6.08-7.68,24.34,24.34,0,0,0,2.1-5c.6-1.55.36-3.45-.83-4.21a2.18,2.18,0,0,0-1.72-.2,5,5,0,0,0-1.18.53A10.49,10.49,0,0,0,293.78,200.94Z"/><path class="cls-3" d="M297.34,206.33l.41,0a2.34,2.34,0,0,1,1.06.47,2.62,2.62,0,0,1,.89,1.55,7.25,7.25,0,0,1,.06,2.44c-.35,3.68-2.94,8.2-6.36,12.6a37.36,37.36,0,0,1-5.32,5.77,29.41,29.41,0,0,1-5.31,3.59,27.78,27.78,0,0,1-4,1.69c-.49.16-.87.27-1.14.34l-.39.12.4-.09c.26-.06.65-.15,1.15-.29a25.14,25.14,0,0,0,4.1-1.53,27.07,27.07,0,0,0,5.48-3.48,35,35,0,0,0,5.46-5.79,41.6,41.6,0,0,0,4.31-6.69,17,17,0,0,0,1.89-6.21,7.48,7.48,0,0,0-.16-2.51,2.8,2.8,0,0,0-1-1.58,2.31,2.31,0,0,0-1.11-.42Z"/><path class="cls-38" d="M203.49,250.91c-.17.65-.49,1.24-.68,1.87a4.2,4.2,0,0,1-.46,1.25c-.73,1.13-1.7,2.21-2.34,3.39a6.31,6.31,0,0,1-2.25,2.4,3.51,3.51,0,0,1-2.65.72,1.12,1.12,0,0,1-.79-.57c-.13-.28-.17-.51-.5-.62a1.7,1.7,0,0,0-.71,0,1.26,1.26,0,0,0,.52-.55,5.14,5.14,0,0,0-1.1.17l1.37-.55c.4-.17.31-.36.31-.74s0-.74,0-1.1c0-.72,0-1.44,0-2.16a3.56,3.56,0,0,1,.08-1,4,4,0,0,1,.64-1.16,19.71,19.71,0,0,0,2.51-5.13,2.81,2.81,0,0,1,.56-1.15,2.33,2.33,0,0,1,1.25-.57,4.94,4.94,0,0,1,2.56.07,3.4,3.4,0,0,1,2.11,2.29A8.82,8.82,0,0,1,203.49,250.91Z"/><path class="cls-39" d="M201.31,255.48a6.45,6.45,0,0,0-.72.5,5.16,5.16,0,0,0-.68.66,7.34,7.34,0,0,0-.63.9c-.38.61-.72,1.15-1,1.57l-.5.71a3.26,3.26,0,0,0,.85-.26,3.81,3.81,0,0,0,1.63-1.41,8,8,0,0,0,.48-1c.13-.3.24-.59.33-.84A8,8,0,0,0,201.31,255.48Z"/><path class="cls-3" d="M194.22,258.37s0-1.62.06-4.24a2.36,2.36,0,0,1,.19-.94,4.92,4.92,0,0,1,.58-.91,19.05,19.05,0,0,0,1.3-2.11,19.82,19.82,0,0,0,1.11-2.51,9.3,9.3,0,0,1,.49-1.3,1.53,1.53,0,0,1,1-.67,4.93,4.93,0,0,1,2.72,0,3.38,3.38,0,0,1,1.81,1.65,4.75,4.75,0,0,1,.07,2.31,9.67,9.67,0,0,1-.5,2,10.37,10.37,0,0,0-.53,1.69,3.75,3.75,0,0,1-.61,1.15l-.63.95.7-.9a3.79,3.79,0,0,0,.71-1.15,11.26,11.26,0,0,1,.61-1.64,10,10,0,0,0,.62-2.08,4.9,4.9,0,0,0,0-2.55,3.74,3.74,0,0,0-2.06-2,5.29,5.29,0,0,0-3,0,2,2,0,0,0-1.35.93,9.34,9.34,0,0,0-.52,1.39,20.72,20.72,0,0,1-1,2.48,21.74,21.74,0,0,1-1.2,2.11,5.77,5.77,0,0,0-.57,1,2.56,2.56,0,0,0-.16,1.07Z"/><path class="cls-38" d="M223.54,241.59c-6-.88-14.3,1-19.4,4.12a75.65,75.65,0,0,0-5.52,7.09c-1.59,2.27-2.88,5.43-5.72,6.3a2.75,2.75,0,0,1,1.72.5,1,1,0,0,1,0,1.56l1-.24a3.69,3.69,0,0,1-.32,2.29,4.38,4.38,0,0,0,1.12-1.07,16.94,16.94,0,0,1,1.4,5.12l.54-.92.3,3.29a2.07,2.07,0,0,0,1.22-1.86q.52,3.23,1.27,6.42a6.23,6.23,0,0,0,1.35-1.16,17.62,17.62,0,0,1-.34,3.62l2.68-2.23-.29,1a69.72,69.72,0,0,0,9.1-6.46,27.77,27.77,0,0,0,3.43-3.34c.92-1.08,1.87-2.06,2.75-3.18,0-.06.47-.67.45-.68a11.09,11.09,0,0,0,1.4.09,5,5,0,0,1,.67,0,2.65,2.65,0,0,0,.5.05,13.45,13.45,0,0,0,2.68-.33,7,7,0,0,0,4.62-3.29,3.6,3.6,0,0,0,.39-3.18,4.23,4.23,0,0,0,1.18-1.85c.26-.93-.23-1.6-.24-2.42a6.23,6.23,0,0,0-.49-2.55,11.92,11.92,0,0,0-.81-1.55,13.3,13.3,0,0,0-2.12-2.62l-.35-.32A9.52,9.52,0,0,0,223.54,241.59Z"/><path class="cls-3" d="M227.7,243.8a8.79,8.79,0,0,0-1-.84,8.64,8.64,0,0,0-3.25-1.52,31.3,31.3,0,0,0-17.84,3.2c-.44.22-.87.47-1.27.72-.12.08-.18.1-.33.21l-.24.28-.44.52c-.57.68-1.08,1.33-1.54,1.94-1.81,2.41-2.8,4-2.8,4s1.1-1.5,3-3.82c.48-.58,1-1.21,1.6-1.87l.45-.5.22-.24.27-.15c.41-.23.83-.46,1.27-.68a32.64,32.64,0,0,1,6-2.22,32.2,32.2,0,0,1,11.57-1.11,8.75,8.75,0,0,1,3.24,1.32A9.73,9.73,0,0,1,227.7,243.8Z"/><path class="cls-3" d="M217.12,250a21.75,21.75,0,0,1,2.85-.93,26.17,26.17,0,0,1,3.17-.65c1.21-.08,2.54-.3,3.94-.31a3.22,3.22,0,0,1,1.84.43,5.72,5.72,0,0,1,1.35,1.24,15,15,0,0,1,1,1.4,2.2,2.2,0,0,1,.45,1.33,3.66,3.66,0,0,1-.65,2,2.84,2.84,0,0,1-.52.61,2.67,2.67,0,0,0,.59-.56,3.78,3.78,0,0,0,.85-2.05,2.49,2.49,0,0,0-.4-1.53,13.67,13.67,0,0,0-1-1.5,5.63,5.63,0,0,0-1.44-1.39,3.62,3.62,0,0,0-2.11-.53,39.06,39.06,0,0,0-4,.4,22.08,22.08,0,0,0-3.17.84A17.23,17.23,0,0,0,217.12,250Z"/><path class="cls-3" d="M220.27,261.77a21.84,21.84,0,0,1-2,2.36,61.33,61.33,0,0,1-5.35,5.09c-2.2,1.87-4.3,3.43-5.86,4.51-.78.55-1.42,1-1.87,1.25l-.69.45.73-.38c.48-.24,1.16-.6,2-1.09a43.79,43.79,0,0,0,6.07-4.32,40.81,40.81,0,0,0,5.21-5.33A17.15,17.15,0,0,0,220.27,261.77Z"/><path class="cls-3" d="M219.1,254.29l1-.18c.67-.11,1.63-.28,2.82-.43a20.49,20.49,0,0,1,4.18-.17,4.94,4.94,0,0,1,2.24.73,2.21,2.21,0,0,1,1.17,2,4.41,4.41,0,0,1-.87,2.32,7.3,7.3,0,0,1-1.67,1.74,7.84,7.84,0,0,1-3.84,1.36,23.55,23.55,0,0,1-2.84.15h-1l1,.09a19.46,19.46,0,0,0,2.86,0,7.21,7.21,0,0,0,5.92-3.07,4.76,4.76,0,0,0,1-2.62,2.7,2.7,0,0,0-1.43-2.41,5.19,5.19,0,0,0-2.48-.74,18.1,18.1,0,0,0-4.26.35c-1.19.22-2.14.46-2.79.62Z"/><path class="cls-6" d="M159.42,464c1.53-2.32,6.2-13.3,9.37-14.32a11.82,11.82,0,0,1,5.13-.19c4.35.57,9.15,2.18,11,6.17.75,1.64.89,3.49,1.5,5.19a13.46,13.46,0,0,0,6,6.73,37.63,37.63,0,0,0,9.92,4c4.89,1.14,10.32,1.66,13.71,5.85,2.94,3.62,2.94,8.78,2.33,13.4-.9,6.75-6.16,8.07-12.11,6.46C189.63,492.72,156.29,468.73,159.42,464Z"/><path class="cls-38" d="M206.27,497.22c-16.64-4.49-50-28.49-46.85-33.26.37-.54.9-1.58,1.55-2.85a50.64,50.64,0,0,0,18.23,14.62c3.12,1.47,6.71,2.64,10,1.51a23.77,23.77,0,0,0,3.82-2c6.65-3.81,14.33-3.53,21,.21a10.54,10.54,0,0,1,2,1.94c2.94,3.62,3,8.77,2.34,13.4C217.48,497.5,212.23,498.82,206.27,497.22Z"/><path class="cls-3" d="M201,477.12l.39.73a14.83,14.83,0,0,1,.87,2.07,16.2,16.2,0,0,1,.68,7.25,15.72,15.72,0,0,1-1.06,3.88,5.82,5.82,0,0,1-1.81,2.65,2.49,2.49,0,0,1-2.08.4,1.71,1.71,0,0,1-.54-.25l-.17-.13.15.15a1.7,1.7,0,0,0,.54.31,2.58,2.58,0,0,0,2.25-.26,5.84,5.84,0,0,0,2.08-2.68,13.75,13.75,0,0,0,1.17-4,14.42,14.42,0,0,0-1-7.42,13.7,13.7,0,0,0-1-2Z"/><path class="cls-3" d="M209.18,476.45a9.62,9.62,0,0,1,.72.75,13,13,0,0,1,1.65,2.27,15.18,15.18,0,0,1,1.57,3.83,17.2,17.2,0,0,1,.49,5,21.22,21.22,0,0,1-.84,5,7.2,7.2,0,0,1-1.93,3.55,3.5,3.5,0,0,1-2.54.9,2.9,2.9,0,0,1-.74-.17l-.24-.11.23.13a2.83,2.83,0,0,0,.74.23,3.59,3.59,0,0,0,2.72-.77,7.29,7.29,0,0,0,2.2-3.63,19.75,19.75,0,0,0,.95-5.1,16.43,16.43,0,0,0-.6-5.17,14.22,14.22,0,0,0-1.78-3.85,12,12,0,0,0-1.82-2.19C209.48,476.68,209.18,476.45,209.18,476.45Z"/><path class="cls-6" d="M94.78,483c1.1-2.56,3.75-14.2,6.69-15.76a11.73,11.73,0,0,1,5-1.08c4.39-.22,9.4.52,11.91,4.13,1,1.48,1.49,3.27,2.39,4.83a13.35,13.35,0,0,0,7.12,5.56,37.46,37.46,0,0,0,10.46,2.15c5,.25,10.45-.19,14.52,3.33,3.54,3.05,4.45,8.12,4.66,12.79.31,6.79-4.63,9-10.77,8.49C129.6,505.93,92.54,488.21,94.78,483Z"/><path class="cls-38" d="M146.77,507.42c-17.17-1.48-54.23-19.21-52-24.45.27-.61.61-1.72,1-3.08a50.86,50.86,0,0,0,20.53,11.17c3.33.89,7.07,1.4,10.08-.29a22.31,22.31,0,0,0,3.39-2.68c5.88-4.92,13.49-6,20.74-3.51a10.79,10.79,0,0,1,2.34,1.55c3.53,3.05,4.45,8.12,4.67,12.79C157.85,505.71,152.92,507.94,146.77,507.42Z"/><path class="cls-3" d="M138,488.57l.52.65a14.53,14.53,0,0,1,1.21,1.88,16,16,0,0,1,1.95,7,15.07,15.07,0,0,1-.35,4,5.82,5.82,0,0,1-1.31,2.93,2.53,2.53,0,0,1-2,.77,2.36,2.36,0,0,1-.59-.15l-.19-.1.18.12a1.88,1.88,0,0,0,.58.21,2.59,2.59,0,0,0,2.17-.65,5.87,5.87,0,0,0,1.58-3,13.93,13.93,0,0,0,.45-4.13A14.54,14.54,0,0,0,140,491a13.66,13.66,0,0,0-1.39-1.8Z"/><path class="cls-3" d="M146,486.47s.31.19.84.6a13.37,13.37,0,0,1,2,1.95,15.32,15.32,0,0,1,2.21,3.49,17.51,17.51,0,0,1,1.38,4.85,21.6,21.6,0,0,1,0,5.07,7.26,7.26,0,0,1-1.27,3.84,3.55,3.55,0,0,1-2.34,1.33,2.42,2.42,0,0,1-.76,0l-.26-.06.25.09a3.2,3.2,0,0,0,.77.1,3.57,3.57,0,0,0,2.54-1.25,7.32,7.32,0,0,0,1.53-3.95,19.2,19.2,0,0,0,0-5.2,16.12,16.12,0,0,0-1.5-5,14.06,14.06,0,0,0-2.42-3.47,12.75,12.75,0,0,0-2.18-1.84A8.72,8.72,0,0,0,146,486.47Z"/><path class="cls-4" d="M159.6,460.2c4.2-9.37,16.5-38.46,23.49-57.36,0,0,10.95-18,27.4-11.35s9.38,25.26,9.38,25.26c-9.22,16.91-20.09,34.16-29.5,48.36C178.08,461.73,168.44,469.37,159.6,460.2Z"/><path class="cls-4" d="M99.77,471.85c2.84-9.87,5.06-28.68,9.34-48.37,0,0,8.33-19.34,25.54-15.07s12.82,23.7,12.82,23.7c-6.55,15.74-14.13,31.08-22,49.06C114.52,482.86,109.14,474.43,99.77,471.85Z"/></g></g></svg>