<svg xmlns="http://www.w3.org/2000/svg" xmlns:xlink="http://www.w3.org/1999/xlink" viewBox="0 0 298.25 610.24"><defs><style>.cls-1,.cls-16,.cls-40,.cls-49,.cls-5,.cls-9{fill:none;}.cls-2{isolation:isolate;}.cls-3{fill:#c9c9c9;}.cls-4{fill:url(#linear-gradient);}.cls-16,.cls-40,.cls-5{stroke:#c3c1c0;}.cls-16,.cls-5{stroke-linecap:round;stroke-linejoin:round;}.cls-5{stroke-width:1.35px;}.cls-6{fill:#636365;}.cls-7{fill:#cc9b5e;}.cls-8{fill:#b88346;}.cls-9{stroke:#719834;stroke-width:0.91px;}.cls-40,.cls-49,.cls-9{stroke-miterlimit:10;}.cls-10,.cls-28{fill:#a1d55e;}.cls-11{fill:#719834;}.cls-12{fill:#b0e266;}.cls-13{fill:#b88347;}.cls-14{fill:#ebba8c;}.cls-15{fill:url(#linear-gradient-2);}.cls-16{stroke-width:1.33px;}.cls-17{fill:#fff;}.cls-18{clip-path:url(#clip-path);}.cls-19{fill:#4b8855;}.cls-20,.cls-22,.cls-23,.cls-24{fill:#6dbb63;}.cls-21{fill:#4e995d;}.cls-22,.cls-23,.cls-24{mix-blend-mode:multiply;}.cls-23{opacity:0.5;}.cls-24{opacity:0.4;}.cls-25{fill:#f08e5b;}.cls-26{fill:#bd6f57;}.cls-27{fill:#d48254;}.cls-28{opacity:0.46;}.cls-29{fill:#626264;}.cls-30{fill:url(#linear-gradient-3);}.cls-31{fill:#393939;}.cls-32{fill:url(#radial-gradient);}.cls-33{fill:url(#radial-gradient-2);}.cls-34{fill:url(#radial-gradient-3);}.cls-35{fill:#39150d;}.cls-36{fill:#e07e7e;}.cls-37{fill:#bf986d;}.cls-38{fill:#e8e4e2;}.cls-39{fill:#c3c1c0;}.cls-40{stroke-width:0.72px;}.cls-41{fill:url(#radial-gradient-4);}.cls-42{fill:#be7e65;}.cls-43{fill:#ea9983;}.cls-44{fill:#ab6a55;}.cls-45{fill:#ec9a5b;}.cls-46{fill:#090806;}.cls-47{fill:#383838;}.cls-48{fill:#939897;}.cls-49{stroke:#231f20;stroke-width:1.07px;}.cls-50{fill:#231f20;}.cls-51{fill:#ebe9e9;}.cls-52{fill:#d6d6d6;}.cls-53{fill:#bab9b9;}.cls-54{fill:url(#linear-gradient-4);}.cls-55{fill:url(#radial-gradient-5);}.cls-56{fill:url(#linear-gradient-5);}</style><linearGradient id="linear-gradient" x1="-752.43" y1="376.05" x2="-700.77" y2="376.05" gradientTransform="translate(940.27 225.52) rotate(0.09)" gradientUnits="userSpaceOnUse"><stop offset="0.02" stop-color="#fff"/><stop offset="0.97" stop-color="#c9c9c9"/></linearGradient><linearGradient id="linear-gradient-2" x1="-1750.91" y1="643.72" x2="-1675.46" y2="643.72" gradientTransform="matrix(0.85, 0.06, 0.02, 0.88, 1578.64, 124.07)" xlink:href="#linear-gradient"/><clipPath id="clip-path"><path class="cls-1" d="M119.4,382.11c17.16,2.94,49.68-10.57,57.28-75.08,7.63.68,17.4,2.2,24.33,4.61l0,.12c-19.28,68.26,25,100.38,49.24,79.36,8.72,36.81,12.88,85.9,3.82,133.51C235.27,545.34,151.56,550,123.15,523.5c2.5-27,11.73-68.51,9-90a235.29,235.29,0,0,0-11.27-47.07Z"/></clipPath><linearGradient id="linear-gradient-3" x1="-650.61" y1="-832.13" x2="-593.42" y2="-832.13" gradientTransform="translate(867.9 779.02) rotate(-13.43)" gradientUnits="userSpaceOnUse"><stop offset="0.13" stop-color="#d1d1d1"/><stop offset="0.37" stop-color="#a7a7a7"/><stop offset="0.68" stop-color="#727272"/><stop offset="0.84" stop-color="#5e5e5e"/></linearGradient><radialGradient id="radial-gradient" cx="-608.47" cy="-832.28" r="67.33" gradientTransform="translate(867.9 779.02) rotate(-13.43)" gradientUnits="userSpaceOnUse"><stop offset="0.38" stop-color="#b1b1b1"/><stop offset="0.63" stop-color="#abadac"/><stop offset="0.98" stop-color="#99a09f"/><stop offset="1" stop-color="#989f9e"/></radialGradient><radialGradient id="radial-gradient-2" cx="-592.64" cy="-670.38" r="92.65" gradientTransform="translate(867.9 779.02) rotate(-13.43)" gradientUnits="userSpaceOnUse"><stop offset="0.36" stop-color="#d1d1d1"/><stop offset="0.67" stop-color="#b3b6b6"/><stop offset="0.98" stop-color="#989f9e"/></radialGradient><radialGradient id="radial-gradient-3" cx="-571.46" cy="-632.69" r="114.13" gradientTransform="matrix(1.02, -0.06, 0.03, 0.48, 744.02, 567.24)" gradientUnits="userSpaceOnUse"><stop offset="0.02" stop-color="#fff"/><stop offset="0.46" stop-color="#fdfdfd"/><stop offset="0.65" stop-color="#f6f6f6"/><stop offset="0.78" stop-color="#e9e9e9"/><stop offset="0.9" stop-color="#d8d8d8"/><stop offset="0.97" stop-color="#c9c9c9"/></radialGradient><radialGradient id="radial-gradient-4" cx="-606.02" cy="-676.88" r="18.3" gradientTransform="translate(-967.72 -502.47) rotate(152.15) scale(1 1.75)" gradientUnits="userSpaceOnUse"><stop offset="0" stop-color="#e3e3e3"/><stop offset="0.88" stop-color="#d1d1d1"/></radialGradient><linearGradient id="linear-gradient-4" x1="-384.84" y1="-848.35" x2="-518.02" y2="-783.29" xlink:href="#linear-gradient-3"/><radialGradient id="radial-gradient-5" cx="-479.4" cy="-808.31" r="78.54" xlink:href="#radial-gradient"/><linearGradient id="linear-gradient-5" x1="-686.21" y1="209.76" x2="-700.28" y2="168.85" gradientTransform="matrix(1, -0.01, -0.04, 1, 969.24, 251.8)" gradientUnits="userSpaceOnUse"><stop offset="0.02" stop-color="#fff"/><stop offset="0.85" stop-color="#c9c9c9"/></linearGradient></defs><title>Asset 251</title><g class="cls-2"><g id="Layer_2" data-name="Layer 2"><g id="Layer_2-2" data-name="Layer 2"><path class="cls-3" d="M238.08,487.09c-4.12,23-3.74,70.4-1.78,98.59a9.13,9.13,0,0,1-8,9.74h0a9.11,9.11,0,0,1-9.95-6.72C210.94,560.07,202,506.17,201.94,485Z"/><path class="cls-3" d="M235.36,581.09s-17.53-2.26-17.65,6.18c-.8-.1-9.1-1.49-9.93-1.51a25.51,25.51,0,0,0-11.31,1.89,15,15,0,0,0-7.57,6.65c-2.2,4.12-2.32,10.38,2.31,13.2a11.24,11.24,0,0,0,3.87,1.4,31.93,31.93,0,0,0,3.67.41c1.54.09,3.07.18,4.61.22,3.81.13,7.64.13,11.46-.07s7.89-.48,11.82-1c.64-.09,2.84-.6,5.19-1.22,3-.8,6.3-1.81,6.81-2.43C240.32,602.81,236.52,589.46,235.36,581.09Z"/><path class="cls-4" d="M221.68,596.11c-2.42-1.52-6-2.11-7.74.14-.24-2.67-3.17-4.45-5.86-4.38s-5.14,1.45-7.46,2.8c-1-2.92-4.85-4.12-7.71-3a9.51,9.51,0,0,0-5.6,8.91,8.27,8.27,0,0,0,3.9,6.89,11.24,11.24,0,0,0,3.87,1.4,31.93,31.93,0,0,0,3.67.41c1.54.09,3.07.18,4.61.22,3.81.13,7.64.13,11.46-.07s7.89-.48,11.82-1c.64-.09,2.84-.6,5.19-1.22,1.72-.46,5-.9,6.37-2.1a4,4,0,0,0,.77-2.81c0-.44-.84-2.78-.73-2.94-1.5,2.18-4.28,2.5-6.86,2-3.85-.71-6.46-3.21-9.62-5.26Z"/><path class="cls-5" d="M213.94,596.25c-2.16,3.89-.82,8.87.32,12"/><path class="cls-5" d="M200.62,594.67c-2.2,3.35-2,10.37-.08,14.16"/><path class="cls-6" d="M238.64,604.82a3.06,3.06,0,0,1-.91.52,25.41,25.41,0,0,1-2.87.94c-1.27.36-2.83.75-4.65,1.16-.91.2-1.89.41-2.92.6s-2.15.26-3.31.38a149.45,149.45,0,0,1-16.46.57c-3.09-.06-6.35-.2-9.7-.46a17.86,17.86,0,0,1-4.84-1,8.51,8.51,0,0,1-2.1-1.19,7,7,0,0,1-1.58-1.8,8.71,8.71,0,0,1-1.12-4.7,11.74,11.74,0,0,1,1.1-4.7,14.13,14.13,0,0,1,6.48-6.46,23,23,0,0,1,8.23-2.38,32.48,32.48,0,0,1,7.57.19c2.32.3,4.41.7,6.26,1s3.44.55,4.75.7,2.34.18,3,.19l1.06,0-1-.08c-.69-.05-1.71-.16-3-.36s-2.87-.52-4.69-.93-3.9-.88-6.24-1.28a31.72,31.72,0,0,0-7.77-.46,23.69,23.69,0,0,0-8.71,2.26,15.33,15.33,0,0,0-7.19,7,13.28,13.28,0,0,0-1.29,5.27,10.12,10.12,0,0,0,1.32,5.5,8.49,8.49,0,0,0,1.93,2.2,9.88,9.88,0,0,0,2.49,1.39,18.4,18.4,0,0,0,5.26,1c3.41.23,6.68.31,9.81.3a128.17,128.17,0,0,0,16.54-1.09c1.18-.16,2.27-.28,3.35-.52s2-.49,2.91-.74c1.81-.49,3.35-1,4.6-1.39a23.88,23.88,0,0,0,2.83-1.1A2.93,2.93,0,0,0,238.64,604.82Z"/><path class="cls-7" d="M13.46,390.44c0-.7-.12-3,.25-3.62.49-.77,2.69-1.57,3.5-2.2A6.14,6.14,0,0,0,19,382.78a5.37,5.37,0,0,0,.53-2.16,9.24,9.24,0,0,0-.36-3.74A4.88,4.88,0,0,0,16.85,374a5.63,5.63,0,0,0-4.14-.08c-3.18,1-7.62,2.19-9.81,4.89a10,10,0,0,0-1.67,3.34,30.12,30.12,0,0,0-1,6.69,35.9,35.9,0,0,0,.06,8.73A2.64,2.64,0,0,0,1,399.15a2.78,2.78,0,0,0,1.38.53,36.35,36.35,0,0,0,8.84.44,1.52,1.52,0,0,0,.91-.27,1.56,1.56,0,0,0,.41-.92A49.38,49.38,0,0,0,13.46,390.44Z"/><path class="cls-8" d="M13.46,390.44c0-.7-.12-3,.25-3.62.84-1.32,3-1.73,4.1-2.93a6.42,6.42,0,0,0,1.82-5.09A10.24,10.24,0,0,1,14,385a4,4,0,0,0-2.19,1.42,3.31,3.31,0,0,0-.3,1.39L11,394.45a9.47,9.47,0,0,1-.73,3.59A3.24,3.24,0,0,1,7.36,400a26.56,26.56,0,0,0,3.83.15,1.52,1.52,0,0,0,.91-.27,1.56,1.56,0,0,0,.41-.92A49.38,49.38,0,0,0,13.46,390.44Z"/><path class="cls-3" d="M47.19,394.92a3.34,3.34,0,0,1-.44.17,14.09,14.09,0,0,1-4.84.4,35.54,35.54,0,0,1-4.81-.61c-2.18-.42-4.29-1.15-6.47-1.54.17.41.33.82.49,1.24a4,4,0,0,1-2.16.65,8,8,0,0,1-2.48-.4,10.24,10.24,0,0,1-3.9-2,8.9,8.9,0,0,0,1.15.87,18.64,18.64,0,0,1-7.14-2,7.19,7.19,0,0,1-4.27-4.73,10.67,10.67,0,0,1,.11-3.9,189.27,189.27,0,0,1,3.42-18.74,3.38,3.38,0,0,1,.82-1.76,3.42,3.42,0,0,1,3-.41c7.19,1.35,34.6,7,41.3,10.74l-.19,18.47Z"/><path class="cls-6" d="M20,367.76a149.83,149.83,0,0,0-3.68,14.82c-.19,1-.41,2-.53,3.08a5.76,5.76,0,0,0,.45,3.14,8.77,8.77,0,0,0,3.4,3.78,9.07,9.07,0,0,0,3.14,1.17,7,7,0,0,0,.89.11l.31,0-.3-.09a7.52,7.52,0,0,1-.84-.27A9.69,9.69,0,0,1,20.1,392a8.57,8.57,0,0,1-2.64-3.63,4.67,4.67,0,0,1-.2-2.48c.14-.91.39-1.94.58-3C19.45,374.61,20,367.76,20,367.76Z"/><path class="cls-6" d="M22.28,393.39l-.83-.2c-.53-.14-1.33-.35-2.32-.69a15.43,15.43,0,0,1-3.44-1.61,6.37,6.37,0,0,1-2.91-3.73c-.48-1.71.12-3.73.47-5.93s.78-4.52,1.21-7,.94-5,1.57-7.63c.16-.65.33-1.31.49-2a3.37,3.37,0,0,1,.65-1.53,1.77,1.77,0,0,1,1.4-.37,15.23,15.23,0,0,1,2,.32c11.29,2.23,21.49,4.37,28.81,6.18C53,370.15,56,371,58,371.66a22.49,22.49,0,0,1,2.27.87l.77.34-.75-.4a21,21,0,0,0-2.2-1c-2-.81-4.85-1.83-8.48-2.92-7.25-2.19-17.39-4.72-28.71-6.95a15.8,15.8,0,0,0-2.23-.35,3.3,3.3,0,0,0-2.54.83,4.62,4.62,0,0,0-1,2.23c-.17.68-.33,1.35-.48,2-.59,2.68-1,5.28-1.41,7.75s-.68,4.83-1,7c-.14,1.1-.31,2.15-.41,3.21a7.78,7.78,0,0,0,.24,3.09,6.24,6.24,0,0,0,1.43,2.44,8.87,8.87,0,0,0,2,1.5,15,15,0,0,0,3.62,1.42c1,.28,1.83.42,2.38.53Z"/><path class="cls-6" d="M26.9,369.93l-.68,1.13c-.42.74-1,1.83-1.62,3.21a61.87,61.87,0,0,0-3.74,11.27,34.16,34.16,0,0,0-.61,3.37,8,8,0,0,0-.07.88V390c0,.12,0,.23,0,.35a1.66,1.66,0,0,0,.18.5,5.65,5.65,0,0,0,1,1.42,10.41,10.41,0,0,0,4.75,2.82,7.26,7.26,0,0,0,3.66.19,4.67,4.67,0,0,0,1.22-.53,4.85,4.85,0,0,1-1.26.29,7.43,7.43,0,0,1-3.36-.68,10.42,10.42,0,0,1-4-2.93,4.59,4.59,0,0,1-.68-1.14l-.06-.15,0,0h0c-.18.06.39-.15-.4.14l.19-.08.19-.07c.05,0,0,0,0,0h0a0,0,0,0,0,0-.05l0-.17a7.24,7.24,0,0,1,.09-.73c.17-1,.4-2.12.65-3.23,1-4.45,2.09-8.46,3-11.34.44-1.43.83-2.59,1.12-3.38Z"/><path class="cls-6" d="M34.72,375.42l-.48.66A18.88,18.88,0,0,0,33.15,378a34.53,34.53,0,0,0-2.48,6.83,28.59,28.59,0,0,0-.91,7.23,10.27,10.27,0,0,0,.12,1.3,2.34,2.34,0,0,0,.45.91,1.84,1.84,0,0,0,.47.4,1.14,1.14,0,0,0,.2.09,1.48,1.48,0,0,1-.46-.62,1.93,1.93,0,0,1-.17-.84,11.33,11.33,0,0,1,.16-1.19c.33-1.78,1-4.21,1.64-6.91s1.26-5.15,1.7-6.93c.22-.88.44-1.59.59-2.09S34.72,375.42,34.72,375.42Z"/><path class="cls-6" d="M46.72,397a38.17,38.17,0,0,0,.17-3.91,46.93,46.93,0,0,0-1-9.44,4.44,4.44,0,0,0-.83-1.42,8.15,8.15,0,0,0-1-1,12.65,12.65,0,0,0-2.17-1.48,15.27,15.27,0,0,0-4.1-1.43A17.84,17.84,0,0,0,35,378h-1l1,.23a25.89,25.89,0,0,1,2.7.81,18.32,18.32,0,0,1,3.64,1.81,13.77,13.77,0,0,1,1.84,1.45,8.46,8.46,0,0,1,.8.89,3.3,3.3,0,0,1,.54.89,1.24,1.24,0,0,1,.06.27l.07.33.13.65c.08.44.16.86.24,1.28.16.84.31,1.65.46,2.43.27,1.55.51,2.95.71,4.13Z"/><path class="cls-9" d="M49.75,461.13a6.79,6.79,0,0,0,1.7-1.83,58.93,58.93,0,0,1,1.08-5.9c.15-.41,2.72-3.09,4.79-5.59"/><path class="cls-10" d="M56.36,449.17c3.88.34,10.79-2.13,14.48-7.28S77.7,430,81.52,428.7c0,0-12.39-.11-19.49,6.65C56.53,440.58,56.36,449.17,56.36,449.17Z"/><path class="cls-11" d="M81.48,428.74a2.11,2.11,0,0,0-.78.07,17.3,17.3,0,0,0-2.15.58A31.27,31.27,0,0,0,71.21,433a41.38,41.38,0,0,0-4.5,3.47,45.2,45.2,0,0,0-4.51,4.7c-2.86,3.56-6.08,7.36-9.56,11.3l.69.6c3.48-3.93,6.71-7.8,9.52-11.36a47.37,47.37,0,0,1,4.37-4.68,42.06,42.06,0,0,1,4.35-3.49,34.8,34.8,0,0,1,7.1-3.86C80.45,429,81.49,428.8,81.48,428.74Z"/><path class="cls-12" d="M71.31,438.62c.36.95-2.27,2.72-3.63,2.51s-1.71-1.95-.12-2.69S71,437.85,71.31,438.62Z"/><path class="cls-12" d="M62.8,437.92c.47.75.16,2.11-.93,1.83-.27-.07-.44-.44-.5-.68a1.49,1.49,0,0,1,.66-1.48C62.35,437.41,62.64,437.66,62.8,437.92Z"/><path class="cls-7" d="M37,595.23a2.42,2.42,0,0,0,.9-2c-1.19-25.26,2.65-62.46,5.14-78,1.3-8.15,7.34-38.31,7.84-45.32.69-9.79-2-19.45-3.61-29.13A124.26,124.26,0,0,1,46.34,407a76.17,76.17,0,0,0-1.12-23c-.25-1.27-3.71-5.36-11.3-6-2.11,9.34-3,10-3.44,15.07,1.66,1.71-.06,26,3.4,39.76,1.63,6.48,5.71,22.75,6,29.42.35,9-1.33,23.07-3.6,35.08-4.51,23.84-10,57.79-6.55,96.65a2.36,2.36,0,0,0,1.44,2,7,7,0,0,0,2.92.41A5.49,5.49,0,0,0,37,595.23Z"/><path class="cls-13" d="M42.07,406.55s-.37,1.33-.88,3.5-1.13,5.19-1.64,8.56-.79,6.45-.94,8.67-.2,3.61-.2,3.61.17-1.37.43-3.58.68-5.27,1.18-8.63,1-6.39,1.4-8.58S42.07,406.55,42.07,406.55Z"/><path class="cls-13" d="M42,412.49s-.5,3.39-.83,7.61-.37,7.65-.37,7.65.51-3.4.84-7.61S42,412.49,42,412.49Z"/><path class="cls-13" d="M46.36,475.87s-2,5.67-3.75,12.87-2.56,13.15-2.56,13.15,1.28-5.86,3-13S46.36,475.87,46.36,475.87Z"/><path class="cls-13" d="M45.76,482s-1,3.39-1.9,7.62-1.45,7.72-1.45,7.72,1-3.38,1.91-7.62S45.76,482,45.76,482Z"/><path class="cls-13" d="M32.75,532.72s-.12,1.84-.32,4.81-.36,7.1-.27,11.66a82.55,82.55,0,0,0,1,11.62c.24,1.47.46,2.66.65,3.47s.29,1.26.29,1.26-.08-.45-.22-1.27-.31-2-.49-3.5c-.37-2.95-.66-7-.75-11.59s0-8.66,0-11.64S32.75,532.72,32.75,532.72Z"/><path class="cls-13" d="M30.35,551.88s-.09.68-.14,1.8a26.1,26.1,0,0,0,.15,4.35,26.84,26.84,0,0,0,.86,4.26c.31,1.07.56,1.72.56,1.72l-.33-1.77c-.19-1.09-.42-2.6-.62-4.27s-.32-3.19-.38-4.29Z"/><path class="cls-8" d="M38.93,479.46a79.38,79.38,0,0,0,.84-29.31c.77,4.84.2,10.44.11,15.34C39.8,469.93,40.31,475.2,38.93,479.46Z"/><path class="cls-13" d="M30.48,393.08a1.85,1.85,0,0,1,.23.47,8.42,8.42,0,0,1,.27,1.5c.15,1.34.22,3.33.27,5.9.13,5.12,0,12.55.78,21.7.2,2.29.48,4.68.92,7.16s1.14,5,1.74,7.61c1.25,5.24,2.56,10.85,3.66,16.79a56.34,56.34,0,0,1,1.1,9.16c.06,3.15-.11,6.38-.36,9.66-.51,6.55-1.41,13.32-2.58,20.2-2.57,13.73-4.82,26.9-6.1,39s-1.88,23-2,32.15.3,16.59.62,21.71.66,7.93.66,7.93-.18-2.83-.51-7.94-.5-12.53-.29-21.69.86-20.05,2.3-32.07,3.66-25.14,6.23-38.9c1.18-6.91,2.07-13.7,2.56-20.29.23-3.3.39-6.55.31-9.75a55.52,55.52,0,0,0-1.18-9.28c-1.14-6-2.5-11.57-3.81-16.8-.63-2.63-1.38-5.12-1.82-7.57s-.77-4.82-1-7.1c-.88-9.11-.88-16.54-1.1-21.66-.1-2.56-.2-4.55-.38-5.89a7.76,7.76,0,0,0-.3-1.5A1.64,1.64,0,0,0,30.48,393.08Z"/><path class="cls-14" d="M37.91,593.21l0-2.14c0-.7,0-1.57,0-2.59s0-2.21,0-3.55c0-5.32.29-13,.93-22.53s1.66-20.81,3.2-33.3c.78-6.25,1.65-12.78,3-19.49s2.56-13.72,3.89-20.87q1-5.37,1.85-10.63c.28-1.76.55-3.5.78-5.24a40.68,40.68,0,0,0,.42-5.27c.11-7-1.29-13.6-2.5-19.77a149.52,149.52,0,0,1-2.74-17.59,125.84,125.84,0,0,1-.43-15.51c.09-4.74.74-9,.79-12.83a76.23,76.23,0,0,0-.44-9.73c-.3-2.66-.66-4.7-.92-6.08l-.43-2.1.35,2.12c.21,1.38.49,3.43.7,6.09a74.47,74.47,0,0,1,.14,9.67c-.15,3.76-.92,8-1.14,12.82a122.67,122.67,0,0,0,.09,15.65,144.66,144.66,0,0,0,2.46,17.8c1.13,6.18,2.42,12.68,2.25,19.42a39.71,39.71,0,0,1-.43,5.06c-.24,1.71-.52,3.44-.8,5.19-.59,3.48-1.22,7-1.86,10.59-1.31,7.15-2.59,14.14-3.82,20.88s-2.06,13.37-2.76,19.64c-1.36,12.55-2.15,23.89-2.56,33.42s-.41,17.26-.28,22.6c0,1.33.07,2.51.1,3.54s.1,1.89.14,2.59C37.87,592.48,37.91,593.21,37.91,593.21Z"/><path class="cls-3" d="M59.82,386.55c-.07,7.22-6.9,13.12-7.67,13.75-1.51,1.23-5.36,1.06-7.17,1.27-3.08.35-6.46,1.56-9.45.35a5.22,5.22,0,0,1-3-3c-2.11-6.09,8.12-8.66,11.48-11.61a19.92,19.92,0,0,0,2.77-3.71,5.82,5.82,0,0,1,3.6-2.72"/><path class="cls-6" d="M59.82,386.55l-.08.65c0,.21,0,.48-.1.78s-.14.66-.23,1.06a17.94,17.94,0,0,1-3.06,6,28.66,28.66,0,0,1-3.11,3.5c-.31.29-.62.58-1,.86l-.5.41a3,3,0,0,1-.47.27,8.41,8.41,0,0,1-2.54.53c-.93.09-1.91.1-2.93.15a23.76,23.76,0,0,0-3.15.38c-2.06.34-4.17.77-6.11.27a5.38,5.38,0,0,1-2.5-1.37,3.86,3.86,0,0,1-.78-1.08,2.17,2.17,0,0,1-.19-.64,5.5,5.5,0,0,1-.15-.65,4,4,0,0,1,.64-2.47,8.81,8.81,0,0,1,1.88-2c2.94-2.29,6.28-3.54,8.6-5.52a13.12,13.12,0,0,0,2.37-3.25,10.84,10.84,0,0,1,1.73-2.35,4.84,4.84,0,0,1,1.53-1,3,3,0,0,1,.62-.19,3,3,0,0,0-.64.13A4.75,4.75,0,0,0,48,382a10.71,10.71,0,0,0-2,2.27,13.13,13.13,0,0,1-2.46,2.92c-2.24,1.69-5.63,2.76-8.89,5.08a10,10,0,0,0-2.25,2.24,5.34,5.34,0,0,0-1,3.37c0,.3.12.59.17.89a3.74,3.74,0,0,0,.28.88A5.15,5.15,0,0,0,33,401.16a6.82,6.82,0,0,0,3.2,1.78c2.43.6,4.72.06,6.75-.31a23.45,23.45,0,0,1,3-.44c1-.07,2-.12,3-.25a9.21,9.21,0,0,0,2.91-.76,3.65,3.65,0,0,0,.69-.44l.52-.47c.33-.31.64-.63.94-.94a26.52,26.52,0,0,0,3-3.81,17.46,17.46,0,0,0,2.66-6.43l.14-1.09c0-.31,0-.58,0-.8C59.82,386.77,59.82,386.55,59.82,386.55Z"/><path class="cls-3" d="M178.86,485.9c-4.77,21.74-9.2,68.56-8.38,95.42.14,4.63-16.8,4.53-17.73.29-6-27.48-10.86-79.46-9.94-100.89Z"/><path class="cls-3" d="M170,575.25c.88,1.32,3,11,2.75,15.88,0,0-10.36,7-30.64,6.92-21-.09-32.18-4.58-33-8.35s.74-14.9,11-16.59,19.64,4,35.42,2.58A100.6,100.6,0,0,1,170,575.25Z"/><path class="cls-15" d="M172.56,587.16a31,31,0,0,1,.17,4s-10.35,7-30.63,6.92c-21-.07-32.19-4.57-33-8.34a16.29,16.29,0,0,1,3.62-12.61l.15.09c1.35-1.13,3.9.09,4.15,2a5.59,5.59,0,0,1,5.76-1.17,7,7,0,0,1,4.29,4.71,4.93,4.93,0,0,1,5.72.23c1.71,1.31,2.57,3.51,4.11,5,2.18,2.14,5.29,2.63,8.16,2.88C153.12,591.55,165.64,591.34,172.56,587.16Z"/><path class="cls-16" d="M127.45,582.32c-1.36.69-2.67,4.75-2.92,5.67a15.65,15.65,0,0,0,.16,8.55"/><path class="cls-16" d="M117.32,578.35c-2.37,1.94-3.72,5.74-4,8.88a9.23,9.23,0,0,0,1.81,6.77"/><path class="cls-6" d="M170,575.25l.13.34c.08.23.21.57.35,1a37,37,0,0,1,1,4,54,54,0,0,1,.89,6.52c0,.64.09,1.3.11,2,0,.34,0,.69,0,1,0,.18,0,.35,0,.53s.05.25-.08.29l-.88.49-1,.51c-.69.33-1.41.65-2.15,1a65.32,65.32,0,0,1-22.06,4.39,121.41,121.41,0,0,1-13.36-.33,78.09,78.09,0,0,1-14.1-2.28,26.85,26.85,0,0,1-6.6-2.63,6,6,0,0,1-2.31-2.16,4.36,4.36,0,0,1-.29-1.48,13.28,13.28,0,0,1,0-1.67c.25-4.46,2.22-8.79,5.57-11.15a12.49,12.49,0,0,1,5.54-2.1,28.1,28.1,0,0,1,5.79-.09c3.77.26,7.29.8,10.5,1.24s6.12.81,8.69,1a64,64,0,0,0,6.61.29c.91,0,1.72-.06,2.42-.09a17.06,17.06,0,0,0,1.75-.16l1.45-.18-1.45.12c-.48,0-1.06.09-1.76.09s-1.5.06-2.4,0c-1.81,0-4-.21-6.57-.51s-5.44-.76-8.64-1.29-6.7-1.15-10.53-1.5a28.5,28.5,0,0,0-6,0,12.89,12.89,0,0,0-10.48,7.39,18,18,0,0,0-1.82,6.84,16.13,16.13,0,0,0,0,1.84,7.75,7.75,0,0,0,.11.94,3.18,3.18,0,0,0,.3,1,7.23,7.23,0,0,0,2.81,2.74,27.59,27.59,0,0,0,7,2.8,76.56,76.56,0,0,0,14.36,2.26,116.12,116.12,0,0,0,13.52.18,64.23,64.23,0,0,0,22.27-4.92c.75-.34,1.47-.67,2.16-1l1-.55.49-.29.55-.34.16-.11s0-.12,0-.18v-.91c0-.36,0-.71-.05-1.06,0-.69-.09-1.36-.16-2a53.2,53.2,0,0,0-1.12-6.53,37.22,37.22,0,0,0-1.16-4c-.16-.45-.3-.79-.4-1Z"/><path class="cls-3" d="M126,382c-6.74,15.6-25.75,31.88-68.09,7.19l-2.62-18.77c-.24-.06,27,8.37,34.91,4.91,7.07-3.1,12.72-26.62,19.05-33.05C120.29,344.25,127,359,126,382Z"/><path class="cls-3" d="M250.21,391.12C226,412.14,181.69,380,201,311.76l0-.12c8.43,2.89,13.77,7.1,19.93,12.82C232.15,333.66,242.24,357.54,250.21,391.12Z"/><path class="cls-3" d="M131.3,312.34c14.34-5.27,30.19-6.67,45.38-5.31-7.6,64.51-32.92,84.24-55.06,79.13l-.73.26c-7-20.36-13.84-32.09-11.8-48.16C109.46,335.37,110.46,320,131.3,312.34Z"/><path class="cls-17" d="M119.4,382.11c17.16,2.94,49.68-10.57,57.28-75.08,7.63.68,17.4,2.2,24.33,4.61l0,.12c-19.28,68.26,25,100.38,49.24,79.36,8.72,36.81,12.88,85.9,3.82,133.51C235.27,545.34,151.56,550,123.15,523.5c2.5-27,11.73-68.51,9-90a235.29,235.29,0,0,0-11.27-47.07Z"/><g class="cls-18"><path class="cls-10" d="M117.42,489.14c-.34-6.78,4.43-18.67,13.65-24.76s21.15-11.17,23.72-17.74c0,0-.63,21.61-12.9,33.55C132.41,489.41,117.42,489.14,117.42,489.14Z"/><path class="cls-11" d="M154.72,446.71a9.55,9.55,0,0,0-.44,1.27c-.27.84-.72,2.06-1.37,3.61a58.31,58.31,0,0,1-7.13,12.19,71.61,71.61,0,0,1-6.37,7.4,81.23,81.23,0,0,1-8.45,7.36c-6.41,4.67-13.34,10-20.43,15.85l.64.79c7.1-5.81,14-11.17,20.36-15.9a81.39,81.39,0,0,0,8.48-7.51,70.78,70.78,0,0,0,6.35-7.56,55.17,55.17,0,0,0,6.92-12.48,32.41,32.41,0,0,0,1.2-3.69A5,5,0,0,0,154.72,446.71Z"/><path class="cls-12" d="M136.81,463.78c-1.64-.7-4.89,3.78-4.62,6.16s3.29,3.1,4.68.39S138.14,464.35,136.81,463.78Z"/><path class="cls-12" d="M137.47,478.66c-1.28-.87-3.67-.41-3.26,1.51.11.47.74.79,1.16.91A2.61,2.61,0,0,0,138,480C138.32,479.49,137.91,479,137.47,478.66Z"/><path class="cls-10" d="M247.27,391.36c-5.75-3.61-18.45-5.26-28.27-.2s-20.09,13-27.08,12c0,0,19.16,10,35.57,5.15C240.18,404.57,247.27,391.36,247.27,391.36Z"/><path class="cls-11" d="M192,403.14a5.18,5.18,0,0,0,1.29.44,32.37,32.37,0,0,0,3.8.76,55.55,55.55,0,0,0,14.27.07,70.86,70.86,0,0,0,9.7-1.84,80.07,80.07,0,0,0,10.7-3.73c7.26-3.27,15.29-6.63,23.82-10l-.37-.94c-8.53,3.35-16.61,6.76-23.82,10.06a81.24,81.24,0,0,1-10.55,3.78,71.47,71.47,0,0,1-9.57,1.93,58.41,58.41,0,0,1-14.13.26c-1.66-.19-2.94-.4-3.81-.57A10.18,10.18,0,0,0,192,403.14Z"/><path class="cls-12" d="M215.67,395.87c.19-1.77,5.69-2.42,7.63-1s1.1,4.39-2,4.27S215.51,397.3,215.67,395.87Z"/><path class="cls-12" d="M228.33,403.72c-.13-1.54,1.43-3.4,2.9-2.1a1.56,1.56,0,0,1,.23,1.45,2.61,2.61,0,0,1-2.21,1.78C228.63,404.87,228.37,404.25,228.33,403.72Z"/><path class="cls-10" d="M202.45,456.41c.22-6.79-4.76-18.59-14.08-24.52s-21.34-10.81-24-17.33c0,0,1,21.59,13.49,33.32C187.47,456.94,202.45,456.41,202.45,456.41Z"/><path class="cls-11" d="M164.42,414.62a5,5,0,0,0,.26,1.33,35.46,35.46,0,0,0,1.26,3.68A55.44,55.44,0,0,0,173.08,432a70.23,70.23,0,0,0,6.48,7.45,81.25,81.25,0,0,0,8.61,7.36c6.49,4.62,13.44,9.86,20.63,15.54l.63-.79c-7.19-5.68-14.21-10.94-20.7-15.5a82.31,82.31,0,0,1-8.58-7.21,72.07,72.07,0,0,1-6.5-7.29,58.47,58.47,0,0,1-7.34-12.07c-.68-1.53-1.15-2.74-1.43-3.58A12.23,12.23,0,0,0,164.42,414.62Z"/><path class="cls-12" d="M182.62,431.39c1.63-.73,5,3.69,4.73,6.08s-3.24,3.16-4.68.46S181.31,432,182.62,431.39Z"/><path class="cls-12" d="M182.22,446.28c1.27-.89,3.66-.48,3.28,1.44-.09.48-.72.81-1.14.94a2.61,2.61,0,0,1-2.64-1C181.38,447.12,181.79,446.58,182.22,446.28Z"/><path class="cls-10" d="M225.13,505.75c-.87,6.74,2.94,19,11.65,25.77S257,544.34,259,551.09c0,0,1.08-21.59-10.19-34.46C240.1,506.67,225.13,505.75,225.13,505.75Z"/><path class="cls-11" d="M258.94,551a4.75,4.75,0,0,0-.14-1.35,33.37,33.37,0,0,0-.89-3.78,55.51,55.51,0,0,0-5.91-13,71.21,71.21,0,0,0-5.72-8,80.72,80.72,0,0,0-7.87-8.17c-6-5.22-12.41-11.11-19-17.46l-.71.73c6.61,6.35,13.09,12.26,19.11,17.43a81.47,81.47,0,0,1,7.84,8,73.45,73.45,0,0,1,5.76,7.89A58.49,58.49,0,0,1,257.53,546c.52,1.59.87,2.85,1.07,3.7A10.46,10.46,0,0,0,258.94,551Z"/><path class="cls-12" d="M242.45,532.57c-1.69.57-4.58-4.15-4.12-6.51s3.53-2.82,4.7,0S243.81,532.12,242.45,532.57Z"/><path class="cls-12" d="M244.29,517.79c-1.35.77-3.69.12-3.13-1.75.14-.47.8-.74,1.22-.82a2.61,2.61,0,0,1,2.54,1.26C245.2,517,244.75,517.53,244.29,517.79Z"/><path class="cls-19" d="M261.18,419.14c.51-.21,1-.44,1.52-.68a8.13,8.13,0,0,0,1.63-.44l.15,0c2.14,0,4.3-.06,6.4-.21.1,0,.19-.16.05-.16-1.46-.05-2.91-.16-4.36-.27,1.21-.33,2.43-.63,3.63-1,.07,0,.08-.1,0-.1-.91,0-2-.05-3.05-.05a29.71,29.71,0,0,1,3.07-1.34c.05,0,0-.07,0-.07a18.86,18.86,0,0,0-5.4,1.56l-.15,0c.3-.23.6-.44.91-.66l.09,0,.12-.09h.06a15.36,15.36,0,0,0,3.49-1.09,32.36,32.36,0,0,0,3.34-1.2s.06-.1,0-.1a16.26,16.26,0,0,0-2.78.12l.65-.39a13.93,13.93,0,0,0,3.39-2.26c.05-.06,0-.07-.08-.05a8.39,8.39,0,0,1-1.82.71,14.8,14.8,0,0,0-1.7.83c.55-.57,1-1.18,1.56-1.78a5.21,5.21,0,0,0,1.15-1.58s0,0-.05,0a7.47,7.47,0,0,1-2,1.57c-.87.59-1.69,1.24-2.52,1.87-.44.33-.86.66-1.27,1a15.47,15.47,0,0,0,1.53-2.45c0-.05-.06-.05-.09,0-.89,1.05-2,2-3.05,3.09a7.31,7.31,0,0,0,.5-2.92c0-.12-.19-.08-.21,0a11.65,11.65,0,0,1-1.29,2.8,13.59,13.59,0,0,0-1.38,2.58l-1.36.88c.17-.4.32-.8.46-1.18a8.58,8.58,0,0,0,.8-3.6c0-.07-.12,0-.13,0a15.43,15.43,0,0,1-1.94,3.76c0-.23.07-.45.09-.68a12.1,12.1,0,0,1,0-2h0v0h-.09a5.94,5.94,0,0,0-1,2.38c-.38,1.13-.84,2.23-1.16,3.38l-.13.09c-.6.42-1.2.86-1.78,1.3.79-1.67,1.39-3.44,2.15-5.1,0,0,0,0,0,0-.45.56-.88,1.15-1.31,1.78,0,0,0,0,0,0,.21-.88.45-1.75.7-2.63,0-.07-.11,0-.13,0a19.61,19.61,0,0,0-1.55,4l-.7,1a10.85,10.85,0,0,0,.16-1.8,7.56,7.56,0,0,0-.44.71,10.23,10.23,0,0,0-.83,3,7.13,7.13,0,0,0-.44,1.13l-.15.13c-.48.47-1,.91-1.5,1.35.27-.95.49-1.91.77-2.78.22-.66.42-1.36.65-2.06l.1-.06a30.93,30.93,0,0,0,3.09-4.32s0,0-.05,0a14.61,14.61,0,0,0-1.67,1.76c-.28.3-.58.61-.86.93a12,12,0,0,1,.79-1.65s-.06-.05-.08,0a17.94,17.94,0,0,0-2.11,3.71,19.1,19.1,0,0,1,.36-2.92s0,0,0,0A14.49,14.49,0,0,0,252.5,422l-.3.82-.12-.18a5.88,5.88,0,0,1-.55-1.43,2.67,2.67,0,0,1-.25-1.38s-.06,0-.07,0a5.07,5.07,0,0,0-.05,2.51,3.84,3.84,0,0,0,.44,1.12l.2.45-.06.18a14.14,14.14,0,0,1-3.29,4.35,64.06,64.06,0,0,0-6.53,8.28l-.54.81-.54.77.87.52,1-1.3,1-1.33c2.14-2.88,4.44-6.19,8.21-7.36a11.38,11.38,0,0,1,3.32-.62c1.93-.08,3.85.06,5.78.13.11,0,.24-.15.08-.17-1.73-.23-3.65-.68-5.53-.83l1.21-.32c1.24-.34,2.5-.59,3.75-.89a8,8,0,0,0,2.88-1c.05,0,0-.07-.06-.06a12.47,12.47,0,0,1-3.78.61l1.23-.58c1-.49,2-1.34,3-1.75.07,0,0-.1,0-.1h-.15s-.07.05,0,.06a.65.65,0,0,0-.34.09c-.8.36-1.6.7-2.41,1a28.39,28.39,0,0,0-3.38,1.49l-1.24.18-.95.16c.88-.4,1.83-.71,2.67-1.16.07,0,0-.12-.05-.1-.84.3-1.78.4-2.64.66a21.29,21.29,0,0,0-2.65,1c.24-.19.49-.38.72-.58.4-.32.79-.67,1.19-1,.42-.16.84-.32,1.27-.46,1.77-.6,3.67-.65,5.43-1.2.06,0,0-.08,0-.07-1.05.19-2.18.13-3.25.26a13.84,13.84,0,0,0-2.21.49l.15-.11s0,0,0,0l-.52.26-.14,0,.15-.13.36-.33a8.75,8.75,0,0,0,1.41-.69.38.38,0,0,0,.14.05,12.51,12.51,0,0,0,4.42-.94,23.45,23.45,0,0,0,4.5.52c.09,0,.19-.11.06-.14-1-.2-2-.49-3-.7h0l.6-.2c1.3-.26,2.6-.46,3.91-.68.11,0,.11-.14,0-.14-.65,0-1.29,0-1.92.08.81-.32,1.62-.65,2.41-1,.32-.15,0-.41-.23-.3-1.65.63-3.57.94-5.24,1.62l-.42.06c-.46.08-1,.14-1.51.21a6.92,6.92,0,0,0,1.21-.63c1.6-.58,3.23-1.12,4.81-1.76.11-.05,0-.15-.06-.13-1.3.25-2.54.5-3.78.81l.14-.1a6.48,6.48,0,0,0,1.88-1.6c.05-.09-.13-.09-.17,0a12.55,12.55,0,0,1-2.65,1.58,8.84,8.84,0,0,0-.93.62l-1.26.4-1.24.41,1.16-.95Z"/><path class="cls-20" d="M242.24,437.1A41.18,41.18,0,0,0,246.91,427c.36-1.39.62-3,1.93-3.9.71-.47,1.5-.31,2.23-.61a5.56,5.56,0,0,0,2.28-1.24s0-.07,0-.05a3.17,3.17,0,0,1-1.4.45,6.54,6.54,0,0,1-1.58.22h-.22c.21-.21.41-.43.61-.65a15.35,15.35,0,0,0,4.21-3.64s0-.05,0,0a20.22,20.22,0,0,1-2.52,1.7,18.27,18.27,0,0,0,2.4-3.54s0-.09-.05-.05a13.51,13.51,0,0,1-1.15,1.45c.16-.4.3-.79.45-1.17a13.09,13.09,0,0,0,.82-2.24s0-.06-.05,0a31.09,31.09,0,0,0-2.5,4.65.41.41,0,0,0,0,.12l-1.59,1.52c-.66.65-1.44,1.3-2.19,2,.16-.64.32-1.27.52-1.9v0a6.4,6.4,0,0,0,1.45-1c.38-.28.73-.59,1.11-.87.2-.15.57-.62.84-.63,0,0,.09-.07,0-.08-.43-.07-1.08.45-1.41.65l-.12.07c.47-.44.91-.95,1.37-1.4.16-.23.3-.47.44-.71a13.59,13.59,0,0,0-1.58,1l.58-1.06a20.7,20.7,0,0,0,2.94-3.21s0-.15-.06-.11c-.7.63-1.38,1.25-2.1,1.85h0c.37-.65.7-1.3,1-1.94,0,0,0,0,0,0-1.17,1.43-2.52,2.78-3.68,4.24.13-.7.25-1.41.35-2.12v-.05a16.18,16.18,0,0,0,1.64-1.1c.29-.21.6-.4.89-.61a5,5,0,0,1,1-.69c.08,0,.1-.13,0-.11a6.13,6.13,0,0,0-1.92.86l1-1c.54-.54,1.49-1.23,1.7-2v0h0s0,0,0,0h0a12.85,12.85,0,0,1-1.83,1c-.2.13-.39.27-.57.41a15.52,15.52,0,0,1,2.53-3.43s0-.14-.05-.12a7.47,7.47,0,0,0-2.15,1.58,22.8,22.8,0,0,1,1.72-2.45s0,0,0,0a5.64,5.64,0,0,0-1.4,1.52,11.84,11.84,0,0,0-1.88,2.69s0,0,0,0c.06-.52.12-1,.16-1.57a6.72,6.72,0,0,0,.91-1.13c.42-.37.81-.79,1.21-1.16a7.52,7.52,0,0,0,1.38-1.44s0,0-.06,0c-.47.28-.94.58-1.39.89a10.1,10.1,0,0,1,1.63-1.93c.07-.06,0-.24-.09-.19a5.79,5.79,0,0,0-.84.47l.1-.17c.52-.79,1.08-1.57,1.57-2.38,0,0,0,0-.06,0a12.41,12.41,0,0,0-3.15,3.84l-.07.08c.5-1.35.85-2.78,1.38-4,0,0,0-.11-.06-.06a15.59,15.59,0,0,0-1.52,2.45c.13-.51.23-1,.33-1.55,0-.18.06-.35.1-.53q.5-.86.93-1.74a22.19,22.19,0,0,1,.94-2.11s0,0-.06,0a11.8,11.8,0,0,0-1.53,2.28c.05-.29.09-.59.13-.88a7.1,7.1,0,0,1,.49-2.42s0-.05,0,0a5.17,5.17,0,0,0-.91,1.72c-.3.72-.62,1.42-.89,2.15a12.22,12.22,0,0,0-.05-1.82,7.32,7.32,0,0,1-.21-1.86s-.06-.12-.09-.05a12.85,12.85,0,0,0-.46,3.92c0,.24,0,.48,0,.73a14.81,14.81,0,0,0-1.22-2.38c0-.06-.1,0-.1,0a15.23,15.23,0,0,0,.23,1.89,15.24,15.24,0,0,1-1.18-1.37s-.09,0-.08,0a10.14,10.14,0,0,0,1.45,2.44c0,.13,0,.25.07.38a14.25,14.25,0,0,0,.66,3.44l0,.05s0,.1,0,.14a.38.38,0,0,0,0,.1c-.05.36-.1.71-.17,1.07a.69.69,0,0,1,0-.13A16.23,16.23,0,0,0,248.9,403c0-.05-.08,0-.07,0a26.5,26.5,0,0,1,.23,3.21c-.51-.9-1.07-1.76-1.5-2.52,0-.07-.12,0-.1,0,.26,1.17.57,2.33.84,3.5-.79-1.17-1.59-2.33-2.33-3.52-.07-.11-.16,0-.12.11.47,1,1,2,1.49,3-.55-.6-1.12-1.19-1.62-1.83,0,0-.12,0-.09,0a16,16,0,0,0,1.24,2,5,5,0,0,0,1.39,1.52h0l.41.73,0,.15a6.81,6.81,0,0,0,.37,1.57c0,.54,0,1.07.1,1.6l-.33,1.53-.33,1.43-.21-1.23c-.07-.43-.15-.84-.24-1.25a7.59,7.59,0,0,0,.13-1.08,11.32,11.32,0,0,1,.19-3c0-.06-.06-.21-.12-.12a5.72,5.72,0,0,0-.57,2.34l0,.16c-.31-1.18-.67-2.35-1.06-3.55,0-.09-.16-.11-.15,0,.17,1.63.44,3.25.68,4.87a5.83,5.83,0,0,0,0,1.32c-.19-.49-.38-.95-.53-1.37l-.15-.39a20.81,20.81,0,0,0-.51-2.64,8.89,8.89,0,0,0,.19-1.13c.1-.57.11-1.16.21-1.72,0,0,0,0,0,0-.18.49-.28,1-.44,1.5,0,.12-.09.25-.13.38-.11-.52-.22-1-.28-1.54,0-.28-.4-.39-.39-.05,0,.84.11,1.67.21,2.51-.27-.55-.56-1.1-.85-1.65,0-.1-.17,0-.14.06.31.86.62,1.72.91,2.58a7,7,0,0,1-.63-.7c-.48-.65-.81-1.37-1.28-2,0,0-.13,0-.1.05.64,1.22.95,2.85,2.3,3.56,0,.05,0,.1.05.14a5.59,5.59,0,0,0,.11.59h0l-.11-.11c0-.05,0-.11-.05-.15l-.18-.09c-.57-.6-1.18-1.18-1.73-1.79-.09-.09-.14,0-.09.11.15.24.3.48.47.73a6.61,6.61,0,0,1-1.17-1.43c0-.05-.17,0-.14.05a5,5,0,0,0,2.08,2.51c.34.47.71.93,1.09,1.36.2,1.34.59,2.64.76,4-.39-.92-1-1.81-1.27-2.75,0-.06-.09,0-.07,0,.3,1.62,1.07,3.14,1.42,4.78,0,1.14-.12,2.28-.19,3.43l-.12.5a16.67,16.67,0,0,0-1.05-5.22,10.61,10.61,0,0,0,.15,2.8,9.76,9.76,0,0,1-.73-2.32c-.06-.8-.07-1.59-.16-2.39-.1-1,.14-3-.45-3.84a34.46,34.46,0,0,0-.18,4.66c-.16-.31-.3-.62-.44-.93a35.75,35.75,0,0,0-.28-3.57s-.08,0-.09,0a11.06,11.06,0,0,0-.21,2c-.1-.33-.19-.66-.26-1a2,2,0,0,0-.11.67c-.05-.12-.1-.23-.14-.35-.25-.62-.32-1.3-.58-1.91,0,0,0,0,0,0a7,7,0,0,0,1,3.73c0,.08,0,.16.08.25a7.72,7.72,0,0,1-1.71-2.61s0,0,0,0a5.46,5.46,0,0,0,2,3.45,2.25,2.25,0,0,1,.08.24c.39,1.36.79,2.72,1.07,4.1-.58-.76-1.17-1.54-1.78-2.31a8.72,8.72,0,0,0-.54-1.34,7.53,7.53,0,0,0-.68-1.57s-.13,0-.13,0a10.33,10.33,0,0,0,.12,1.42l-.43-.46a12,12,0,0,0,.55,1.22,10.84,10.84,0,0,1-1.34-1.14s-.05,0,0,0a13.25,13.25,0,0,0,2.25,2.64,23.29,23.29,0,0,1,2.64,4.88c.66,2-.12,4.08-1,5.94-1,2.11-1.81,4.28-2.85,6.35-.2.42-.41.83-.62,1.25l.87.52.38-.67Z"/><path class="cls-21" d="M252.17,417.17c0,.54-.15,1.11-.19,1.68-.39.55-.78,1.12-1.14,1.7a.56.56,0,0,0-.05.08,5.38,5.38,0,0,1-.65,1.11,34,34,0,0,0-3.8,7.05,80.41,80.41,0,0,1-4,7.45,15.6,15.6,0,0,1-1.52,2.06l1.33.8c1-1.82,1.95-3.65,2.92-5.47a68.42,68.42,0,0,1,5.88-9.95,30.78,30.78,0,0,1,2.17-2.53l.11-.11c.19-.06.37-.13.54-.2a7.12,7.12,0,0,0,2.81-.52c1.86-.54,3.76-.86,5.65-1.25.11,0,.19-.2,0-.18-1.73.19-3.72.21-5.58.52l1.09-.61c1.11-.62,2.27-1.16,3.41-1.74a8,8,0,0,0,2.54-1.63c0-.05,0-.07-.07,0a12.63,12.63,0,0,1-3.51,1.49l1-.86c.87-.71,1.55-1.76,2.45-2.4.06,0,0-.11-.05-.09l-.15.05s-.06.06,0,.06-.1,0-.31.17c-.68.54-1.37,1.05-2.07,1.57a26.5,26.5,0,0,0-2.89,2.24l-1.16.47-.88.39c.75-.6,1.6-1.13,2.29-1.77.06,0,0-.12-.07-.08-.74.49-1.63.81-2.4,1.27a21.55,21.55,0,0,0-2.3,1.61c.18-.24.37-.48.55-.73s.59-.84.89-1.27c.36-.25.72-.51,1.1-.75,1.57-1,3.4-1.49,5-2.45.05,0,0-.09,0-.06-1,.43-2.08.64-3.09,1a13.08,13.08,0,0,0-2,1l.12-.15s0,0,0,0l-.43.37-.13.07a.91.91,0,0,0,.11-.16l.27-.4a8.61,8.61,0,0,0,1.19-1,.22.22,0,0,0,.15,0,12.4,12.4,0,0,0,4-2,24.18,24.18,0,0,0,4.5-.57c.09,0,.16-.15,0-.14-1,0-2,0-3.07,0h0a5.84,5.84,0,0,0,.53-.33c1.19-.56,2.4-1.06,3.62-1.59.1,0,.07-.16,0-.13-.63.17-1.24.35-1.85.53.7-.5,1.4-1,2.07-1.57.27-.22-.07-.4-.3-.24-1.44,1-3.21,1.77-4.66,2.82l-.4.16c-.42.18-.91.36-1.41.57a6.75,6.75,0,0,0,1-.9c1.41-.94,2.84-1.86,4.21-2.86.1-.07,0-.15-.09-.11-1.19.56-2.34,1.1-3.46,1.69l.11-.13a6,6,0,0,0,1.41-2c0-.1-.14-.05-.17,0a12.27,12.27,0,0,1-2.16,2.16,8.15,8.15,0,0,0-.74.83c-.38.22-.75.44-1.13.68l-1.09.7.88-1.2c.31-.43.63-.85.95-1.28s.87-.67,1.3-1a8.13,8.13,0,0,0,1.46-.82.57.57,0,0,0,.13-.08c2.09-.48,4.16-1.08,6.16-1.73.1,0,.14-.19,0-.17-1.43.3-2.86.54-4.3.79,1.08-.61,2.19-1.19,3.26-1.81.07,0,.05-.12,0-.1-.88.22-1.92.42-3,.68a30.2,30.2,0,0,1,2.63-2s0-.07,0-.06a18,18,0,0,0-4.84,2.8l-.14,0c.23-.29.46-.57.7-.85a.19.19,0,0,0,.09-.05l.09-.11.06,0a15.54,15.54,0,0,0,3.1-1.88,34.75,34.75,0,0,0,2.93-2s0-.11,0-.1a17.27,17.27,0,0,0-2.67.78l.53-.53a13.91,13.91,0,0,0,2.71-3c0-.07-.07-.06-.1,0a8.06,8.06,0,0,1-1.58,1.12,13.56,13.56,0,0,0-1.43,1.2c.38-.68.7-1.38,1-2.08a4.93,4.93,0,0,0,.71-1.81s0,0-.05,0a7.16,7.16,0,0,1-1.52,2c-.69.77-1.32,1.59-2,2.4-.34.42-.67.85-1,1.28a15.73,15.73,0,0,0,.85-2.73c0-.05-.08,0-.09,0-.6,1.23-1.46,2.45-2.16,3.71a7.3,7.3,0,0,0-.27-2.94c0-.11-.21,0-.21.07a11.45,11.45,0,0,1-.52,3,12.88,12.88,0,0,0-.67,2.82c-.37.39-.73.78-1.09,1.18.06-.43.1-.86.14-1.26a8.73,8.73,0,0,0-.16-3.67c0-.06-.12,0-.12.05a15.17,15.17,0,0,1-.91,4.1c0-.23-.05-.45-.08-.68a11.26,11.26,0,0,1-.49-1.94h0s0,0,0,0h-.05a0,0,0,0,0,0,0,5.67,5.67,0,0,0-.37,2.53c-.08,1.19-.24,2.36-.25,3.55l-.1.11c-.47.56-.94,1.12-1.39,1.69.34-1.8.46-3.66.76-5.45,0,0,0,0,0,0-.29.65-.56,1.33-.81,2l0,0c0-.9,0-1.81,0-2.71,0-.07-.11,0-.12,0a19.24,19.24,0,0,0-.46,4.23l-.43,1.12a11.06,11.06,0,0,0-.31-1.78c-.09.26-.17.53-.24.8a10.22,10.22,0,0,0,0,3.12,8.15,8.15,0,0,0-.13,1.2l-.1.16c-.35.57-.72,1.12-1.11,1.66,0-1,0-2,0-2.87,0-.69,0-1.41.09-2.15a.2.2,0,0,0,.08-.08,30.47,30.47,0,0,0,1.88-4.91s0,0-.06,0a13.74,13.74,0,0,0-1.16,2.09c-.19.36-.4.73-.59,1.11a11.33,11.33,0,0,1,.33-1.79s-.07,0-.08,0a17.71,17.71,0,0,0-1.08,4.09,16.85,16.85,0,0,1-.41-2.91s-.05,0-.05,0a14.27,14.27,0,0,0,.06,5.41c0,.29-.05.58-.08.87l-.16-.15a6.5,6.5,0,0,1-.9-1.25,3,3,0,0,1-.61-1.28s-.06,0-.06,0a5.09,5.09,0,0,0,.6,2.44,4.22,4.22,0,0,0,.71,1c.11.12.22.25.32.38S252.18,417.11,252.17,417.17Z"/><path class="cls-22" d="M240.51,438.09l1.68,1c.59-1.08,1.17-2.17,1.75-3.26s1.43-1.92,2.22-2.85a6.77,6.77,0,0,0-1.37-.88,7.89,7.89,0,0,0-1.28-.58c-.78,1.77-1.51,3.58-2.38,5.31C240.93,437.26,240.72,437.67,240.51,438.09Z"/><path class="cls-22" d="M261,416.22v0l0,0Z"/><path class="cls-23" d="M249.3,415.74a47.54,47.54,0,0,0,1.85-12.68s-.08,0-.09,0a73.71,73.71,0,0,1-2,12.23,111.87,111.87,0,0,1-3.85,13.12c0,.05.08.05.1,0A97.68,97.68,0,0,0,249.3,415.74Z"/><path class="cls-24" d="M255.17,416.13a82,82,0,0,1,7.36-9.81s0,0-.06,0a59,59,0,0,0-7.15,8.95,96.93,96.93,0,0,0-6.16,10.05c0,.08.11.08.14,0C251.06,422.18,253.21,419.16,255.17,416.13Z"/><path class="cls-23" d="M257.27,421.73a28.54,28.54,0,0,0-4.7,3.62,37.06,37.06,0,0,0-4.39,4.38c-.05.06.06.07.09,0,1.4-1.32,2.87-2.55,4.24-3.91a29.32,29.32,0,0,1,4.84-4C257.43,421.76,257.33,421.7,257.27,421.73Z"/><path class="cls-25" d="M246,445.64c1.13-2.05,2.78-4.67,2.41-7.11s-2.44-4-4.45-5.18a7,7,0,0,0-6.32-.6c-3.64,1.53-6,5.37-8,8.45-2.56,3.86-4.8,7.91-7,11.94-1.57,2.84-14.58,28.28-10.55,29,1,.17,2.2-.84,2.94-1.3,4.14-2.56,25.83-25.78,31-35.2Z"/><path class="cls-26" d="M241.54,442.2a16,16,0,0,0-5-2.91c-1.16-.46-2.86-1.19-4.14-.8,0,0,0,.06,0,.06,3.25.26,6.19,2.24,8.83,3.88C241.39,442.53,241.72,442.36,241.54,442.2Z"/><path class="cls-26" d="M243.18,448.12a16.14,16.14,0,0,0-5.14-3.51s-.13,0-.08.07c.87.51,1.75,1.05,2.56,1.64s1.49,1.41,2.38,2C243,448.34,243.3,448.24,243.18,448.12Z"/><path class="cls-26" d="M241.29,449.12a5.63,5.63,0,0,0-1-.74,6,6,0,0,1-1.18-.7s-.1,0-.07,0a2.8,2.8,0,0,0,.76.6c.45.27.83.65,1.27.94C241.15,449.31,241.39,449.21,241.29,449.12Z"/><path class="cls-26" d="M234.63,450a19.14,19.14,0,0,0-6.45-2.92c-.06,0-.18.06-.08.1,2.15.93,4.21,2,6.32,3C234.54,450.26,234.77,450.1,234.63,450Z"/><path class="cls-26" d="M229.5,449.48a15.61,15.61,0,0,0-2.31-.76s-.07,0,0,0a6.09,6.09,0,0,0,2.11.94C229.38,449.73,229.67,449.58,229.5,449.48Z"/><path class="cls-26" d="M231.92,462.35a9.76,9.76,0,0,0-1.28-1.21c-.48-.41-1-.69-1.5-1.11,0,0-.12,0-.09.06a9.76,9.76,0,0,0,1.23,1.26,10.68,10.68,0,0,0,1.33,1.18C231.72,462.61,232,462.49,231.92,462.35Z"/><path class="cls-26" d="M221.7,462.85a2.8,2.8,0,0,0-1.33-.58h-.09c-.06,0-.13.06-.07.11a5.54,5.54,0,0,0,.59.32c.2.13.42.23.63.34S221.87,463,221.7,462.85Z"/><path class="cls-26" d="M221,466.92c-.37-.27-3.09-1.7-3.25-1.28a0,0,0,0,0,0,0h0c-.09-.09-.28,0-.18.11a21.29,21.29,0,0,0,3.24,1.41C220.85,467.16,221.1,467,221,466.92Z"/><path class="cls-26" d="M221.91,473.24c-.36-.55-1.13-.65-1.61-1.05,0,0-.09,0-.07,0a2.1,2.1,0,0,0,.58.61c.28.21.5.5.85.58C221.76,473.45,222,473.38,221.91,473.24Z"/><path class="cls-26" d="M220.39,474.72a3.52,3.52,0,0,0-1-1c-.29-.23-.94-.73-1.2-.68,0,0,0,0,0,0l-.06,0s-.16,0-.12.07a6,6,0,0,0,.94.94,2.87,2.87,0,0,0,1.18.86C220.19,474.91,220.46,474.86,220.39,474.72Z"/><path class="cls-27" d="M224.46,452.27a.46.46,0,0,0-.28-.3s-.14,0-.14.07-.28.39-.19.59a.26.26,0,0,0,.36.09A.42.42,0,0,0,224.46,452.27Z"/><path class="cls-27" d="M226.68,454.73c0-.2-.26-.26-.43-.3s-.13,0-.13.08c0,.22-.23.43-.17.66s.28.14.4.09a1.18,1.18,0,0,0,.25-.19A.35.35,0,0,0,226.68,454.73Z"/><path class="cls-27" d="M236.71,456.9a.17.17,0,0,0,0-.12v0h0l0-.05a.11.11,0,0,0-.07-.15.56.56,0,0,0-.42.07.46.46,0,0,0-.26.47c0,.07.09.12.15.14l.07,0a.37.37,0,0,0,.35-.09s0,0,0,0a.38.38,0,0,0,.11-.11C236.7,457,236.69,456.94,236.71,456.9Z"/><path class="cls-27" d="M230.64,463.72v0a.17.17,0,0,1,0-.05.88.88,0,0,0,.06-.17.09.09,0,0,0-.09-.13.79.79,0,0,0-.71.29.23.23,0,0,0,0,.28.05.05,0,0,0,0,0,.44.44,0,0,0,.63-.05S230.64,463.79,230.64,463.72Z"/><path class="cls-27" d="M224,464.47a.74.74,0,0,0-.38-.23c-.08,0-.21,0-.22.11s-.18.45,0,.63a.42.42,0,0,0,.6-.05A.34.34,0,0,0,224,464.47Z"/><path class="cls-27" d="M221.66,459.16c0-.11-.15-.14-.24-.09l-.09.05-.14,0a.32.32,0,0,0-.26.23c0,.16.17.22.3.21S221.68,459.41,221.66,459.16Z"/><path class="cls-27" d="M225.89,469.17a.3.3,0,0,1,0-.1,1.07,1.07,0,0,0,.06-.3c0-.09-.12-.1-.18-.07a1.17,1.17,0,0,1-.2.06.59.59,0,0,0-.27.17,1.39,1.39,0,0,0-.15.19c-.07.1,0,.19,0,.29s.48.09.58,0A.41.41,0,0,0,225.89,469.17Z"/><path class="cls-27" d="M215.43,471.46c0-.08,0-.17,0-.25s-.14-.12-.21-.08-.32.13-.46.23a.6.6,0,0,0-.22.32c0,.13.11.24.21.29a.47.47,0,0,0,.51-.13A.57.57,0,0,0,215.43,471.46Z"/><path class="cls-27" d="M213.05,481.1a1.21,1.21,0,0,0-.09-.2s-.09-.07-.1-.1h0v0c-.12-.12-.32.06-.4.14a1.27,1.27,0,0,0-.18.29.47.47,0,0,0-.06.36c.07.25.45.2.62.08A.47.47,0,0,0,213.05,481.1Z"/><path class="cls-27" d="M218,477.63v0a.44.44,0,0,0,0-.1v-.13A.51.51,0,0,0,218,477s-.1,0-.12,0a.62.62,0,0,1-.16.1,1.23,1.23,0,0,0-.29.22.35.35,0,0,0-.14.35.36.36,0,0,0,.45.21A.4.4,0,0,0,218,477.63Z"/><path class="cls-19" d="M189,505.37c.52-.05,1.05-.11,1.56-.18a7.75,7.75,0,0,0,1.59.07h.15c1.89.67,3.84,1.23,5.77,1.71.09,0,.21-.08.09-.13-1.28-.48-2.54-1-3.8-1.55l3.52.18c.08,0,.1-.08,0-.1-.81-.27-1.74-.64-2.7-1a27.62,27.62,0,0,1,3.14-.33c.05,0,.05-.06,0-.07a16.91,16.91,0,0,0-5.29-.16l-.14,0,1-.34h.1l.13-.05.05,0a14.74,14.74,0,0,0,3.45,0,30.8,30.8,0,0,0,3.33-.13s.09-.07,0-.1a16.06,16.06,0,0,0-2.51-.71l.7-.17a13,13,0,0,0,3.7-1.1c.06,0,0-.08-.06-.07a7.07,7.07,0,0,1-1.84.12,13.64,13.64,0,0,0-1.76.27c.66-.37,1.28-.79,1.93-1.19a5.1,5.1,0,0,0,1.5-1.14s0,0,0,0a6.84,6.84,0,0,1-2.25.87c-.95.29-1.88.65-2.81,1-.49.17-1,.36-1.44.56a15.14,15.14,0,0,0,2.11-1.82s0-.07-.07,0c-1.11.71-2.44,1.28-3.66,2a7.56,7.56,0,0,0,1.34-2.57c0-.11-.15-.13-.2-.05a11.39,11.39,0,0,1-2,2.22,12.67,12.67,0,0,0-2,2c-.5.12-1,.26-1.48.41l.77-1a9,9,0,0,0,1.81-3.13c0-.06-.1-.05-.13,0a15,15,0,0,1-2.87,2.93c.1-.2.2-.4.29-.6a11.66,11.66,0,0,1,.64-1.86h0v0h-.07c-.68.33-1.19,1.33-1.62,1.92-.69.94-1.43,1.83-2.07,2.8l-.13,0c-.67.22-1.33.45-2,.69,1.22-1.32,2.29-2.79,3.47-4.12,0,0,0,0,0,0-.57.39-1.14.82-1.71,1.27,0,0,0,0,0,0,.45-.76.94-1.5,1.42-2.24,0-.06-.08-.08-.11-.05a20.64,20.64,0,0,0-2.6,3.27l-.92.72a12.25,12.25,0,0,0,.69-1.63,7.46,7.46,0,0,0-.61.53,10.16,10.16,0,0,0-1.66,2.57,8.05,8.05,0,0,0-.74.92l-.17.09c-.57.29-1.15.55-1.74.8.53-.8,1-1.63,1.53-2.36.39-.55.79-1.14,1.2-1.73a.16.16,0,0,0,.11,0,29.93,29.93,0,0,0,4.07-3.1s0-.05,0,0a13.41,13.41,0,0,0-2,1.14l-1,.61a12.61,12.61,0,0,1,1.2-1.31s0,0-.06,0a18.2,18.2,0,0,0-3,2.83,19.29,19.29,0,0,1,1.21-2.61s0,0,0,0a14.72,14.72,0,0,0-2.8,4.51l-.52.68c0-.07,0-.14,0-.2a5.8,5.8,0,0,1-.05-1.5,2.86,2.86,0,0,1,.19-1.37s0,0-.05,0a5.12,5.12,0,0,0-.81,2.32,3.82,3.82,0,0,0,.05,1.17c0,.16,0,.32,0,.49a1.71,1.71,0,0,0-.11.14,13.45,13.45,0,0,1-4.25,3.08,60.47,60.47,0,0,0-8.34,5.78l-.73.58-.71.56.61.75L167,517l1.3-1c2.78-2,5.84-4.44,9.56-4.41A10.58,10.58,0,0,1,181,512c1.75.51,3.41,1.21,5.11,1.85.1,0,.26-.06.12-.13-1.47-.73-3-1.73-4.67-2.42l1.17.06c1.21,0,2.41.19,3.61.29a7.24,7.24,0,0,0,2.86-.05c.06,0,0-.07,0-.07a11.45,11.45,0,0,1-3.55-.56l1.27-.17c1.06-.16,2.15-.67,3.19-.74.07,0,.07-.09,0-.1l-.14,0s-.08,0,0,.05-.08-.05-.34,0c-.81.09-1.63.17-2.45.24a25.05,25.05,0,0,0-3.47.38l-1.16-.21-.89-.13c.9-.11,1.85-.11,2.73-.29.07,0,.06-.1,0-.1-.83,0-1.7-.16-2.55-.18a21.46,21.46,0,0,0-2.66.16l.81-.32c.45-.18.91-.39,1.37-.6.42,0,.84-.05,1.27-.05,1.76,0,3.47.5,5.2.5.06,0,.07-.06,0-.07-1-.13-2-.53-3-.72a13.6,13.6,0,0,0-2.12-.21l.17-.05s0,0,0,0l-.54.09h-.13l.17-.08.42-.19a7.6,7.6,0,0,0,1.47-.23.17.17,0,0,0,.11.09,11.35,11.35,0,0,0,4.21.45,21.78,21.78,0,0,0,3.86,1.82c.07,0,.2,0,.09-.1-.82-.49-1.6-1.05-2.43-1.55h.59c1.23.14,2.45.34,3.69.53.1,0,.13-.1,0-.13q-.87-.27-1.74-.51c.83-.05,1.65-.12,2.46-.24.33,0,.16-.37-.11-.35-1.66.1-3.46-.18-5.15-.05l-.41-.07c-.42-.06-.9-.16-1.4-.25a6.76,6.76,0,0,0,1.27-.23c1.6-.06,3.21-.09,4.82-.21.11,0,.07-.13,0-.14-1.22-.15-2.41-.28-3.61-.37l.16-.05a5.88,5.88,0,0,0,2.16-.94c.07-.06-.09-.11-.14-.08a11.67,11.67,0,0,1-2.84.68,8.6,8.6,0,0,0-1,.31c-.41,0-.82,0-1.25,0l-1.22,0c.43-.19.87-.37,1.32-.55Z"/><path class="cls-20" d="M166.7,516.46a41.2,41.2,0,0,0,7.24-8c.73-1.19,1.46-2.62,2.9-3.06.77-.24,1.43.16,2.17.09a5.12,5.12,0,0,0,2.41-.47s0-.08,0-.06a2.84,2.84,0,0,1-1.39,0,6.13,6.13,0,0,1-1.47-.26l-.19-.08.74-.42A14.7,14.7,0,0,0,184,502s0,0,0,0a18.8,18.8,0,0,1-2.77.83,18,18,0,0,0,3.23-2.59s0-.09,0-.06a14.61,14.61,0,0,1-1.47,1l.76-1a14.71,14.71,0,0,0,1.41-1.84s0-.07,0,0a30.1,30.1,0,0,0-3.64,3.59.23.23,0,0,0,0,.1l-1.88,1c-.79.41-1.69.78-2.55,1.19.33-.55.67-1.09,1-1.61v0a5.49,5.49,0,0,0,1.58-.47c.42-.14.83-.33,1.25-.48.23-.07.7-.4.95-.33,0,0,.09,0,0-.07-.35-.19-1.09.1-1.45.19l-.13,0c.56-.27,1.1-.62,1.65-.9a6.09,6.09,0,0,0,.61-.53,12.31,12.31,0,0,0-1.71.46l.84-.82a19.22,19.22,0,0,0,3.59-2.11s0-.15,0-.12c-.81.38-1.61.75-2.43,1.1,0,0,0,0,0,0,.53-.5,1-1,1.49-1.51,0,0,0,0,0,0-1.48,1-3.09,1.84-4.57,2.86.33-.61.65-1.24,1-1.87l0,0a16.19,16.19,0,0,0,1.8-.54c.32-.11.65-.2,1-.3a4.5,4.5,0,0,1,1.07-.36c.07,0,.12-.09,0-.11a5.5,5.5,0,0,0-2,.24c.4-.23.79-.46,1.2-.67.64-.35,1.71-.71,2.12-1.34,0,0,0,0,0,0h0v0h-.05a12.2,12.2,0,0,1-1.93.38l-.63.2a15.13,15.13,0,0,1,3.29-2.43s.06-.14,0-.13a6.87,6.87,0,0,0-2.4.83,22.16,22.16,0,0,1,2.28-1.77s0-.05,0,0a5.31,5.31,0,0,0-1.72,1,12,12,0,0,0-2.49,1.95l0,0c.21-.46.42-.93.61-1.41a5.89,5.89,0,0,0,1.16-.78c.49-.22,1-.49,1.43-.72a7.36,7.36,0,0,0,1.67-.93s0-.05,0-.05c-.51.12-1,.26-1.52.41a10.1,10.1,0,0,1,2-1.31c.09,0,.09-.21,0-.2a7.39,7.39,0,0,0-.89.18l.15-.12c.7-.59,1.43-1.14,2.11-1.75,0,0,0-.05,0,0a11.89,11.89,0,0,0-4,2.64l-.09.05c.85-1.1,1.6-2.34,2.46-3.34,0,0,0-.11,0-.08a15.39,15.39,0,0,0-2.1,1.83c.27-.43.52-.88.76-1.35l.25-.46c.47-.43.92-.88,1.36-1.34a21.82,21.82,0,0,1,1.48-1.69s0,0,0,0a11,11,0,0,0-2.05,1.67c.13-.26.26-.53.38-.79a6.94,6.94,0,0,1,1.18-2.11s0-.05,0,0a5,5,0,0,0-1.33,1.34c-.49.58-1,1.13-1.45,1.73a11.52,11.52,0,0,0,.5-1.71,8.48,8.48,0,0,1,.38-1.8s0-.12-.06-.07a13.1,13.1,0,0,0-1.61,3.52c-.08.22-.17.44-.26.67a14.69,14.69,0,0,0-.36-2.59c0-.06-.08,0-.09,0a14.15,14.15,0,0,0-.38,1.83,13.91,13.91,0,0,1-.63-1.62s-.08,0-.08,0a9.9,9.9,0,0,0,.55,2.71l-.06.37a14.64,14.64,0,0,0-.45,3.41.13.13,0,0,0,0,.06L183,491a.25.25,0,0,0,0,.1c-.16.31-.31.63-.48.94,0,0,0-.09,0-.14a16.6,16.6,0,0,0,.58-5.26s-.06,0-.06,0a29.77,29.77,0,0,1-.77,3.06c-.19-1-.42-2-.57-2.8,0-.08-.1-.06-.11,0-.12,1.17-.2,2.34-.31,3.51-.35-1.32-.71-2.64-1-4,0-.12-.15,0-.14.07.11,1.07.25,2.16.42,3.24-.31-.73-.63-1.45-.89-2.2,0,0-.1,0-.09,0a15.74,15.74,0,0,0,.5,2.24,4.86,4.86,0,0,0,.77,1.83l0,0c.05.27.09.54.15.81l0,.14a7.84,7.84,0,0,0-.14,1.58c-.15.51-.28,1-.4,1.52s-.51.89-.76,1.33-.49.83-.73,1.24c.07-.41.13-.82.19-1.22s.12-.82.17-1.23a9.53,9.53,0,0,0,.44-1,12.13,12.13,0,0,1,1.07-2.72s0-.21-.06-.14a5.68,5.68,0,0,0-1.23,2l-.07.14c.08-1.19.11-2.39.13-3.62,0-.1-.1-.15-.13,0-.35,1.57-.6,3.16-.88,4.75a6,6,0,0,0-.4,1.22c0-.51-.05-1-.06-1.43,0-.13,0-.27,0-.41a20.24,20.24,0,0,0,.35-2.61,10.46,10.46,0,0,0,.51-1c.27-.5.45-1,.71-1.55,0,0,0,0,0,0-.31.4-.56.86-.86,1.27l-.22.32a15.23,15.23,0,0,1,.22-1.53c0-.26-.24-.48-.33-.16-.23.79-.42,1.6-.58,2.4-.08-.59-.17-1.18-.26-1.79,0-.1-.14-.09-.14,0,0,.9,0,1.79,0,2.67a6.07,6.07,0,0,1-.35-.83c-.24-.75-.31-1.53-.52-2.28,0-.05-.12,0-.12,0,.21,1.32,0,2.93,1,4,0,.05,0,.09,0,.14s-.06.39-.08.58h0l-.06-.13a.1.1,0,0,0,0-.16.86.86,0,0,1-.13-.14c-.33-.73-.7-1.45-1-2.19,0-.11-.14,0-.12.08.06.27.13.54.2.82a6.39,6.39,0,0,1-.61-1.68c0-.06-.14-.06-.14,0a5,5,0,0,0,1.09,3,16.59,16.59,0,0,0,.56,1.59c-.23,1.31-.28,2.64-.54,4-.07-1-.3-2-.3-3,0,0-.06-.06-.07,0-.22,1.61,0,3.25-.18,4.88-.37,1.06-.81,2.1-1.22,3.14l-.25.44a17.48,17.48,0,0,0,.65-5.19,10.54,10.54,0,0,0-.72,2.66,9.46,9.46,0,0,1,.06-2.38c.18-.76.42-1.51.58-2.28.22-1,1-2.75.76-3.71a35.43,35.43,0,0,0-1.57,4.29c0-.34-.08-.67-.11-1,.37-1.12.57-2.26.83-3.41,0,0-.06,0-.08,0a10.67,10.67,0,0,0-.8,1.82,8.59,8.59,0,0,1,.08-1,2,2,0,0,0-.31.59c0-.12,0-.24,0-.37,0-.65.11-1.31.07-1.95,0,0,0,0,0,0a7,7,0,0,0-.22,3.78c0,.09,0,.17,0,.26A7.77,7.77,0,0,1,173,494s0,0,0,0a5.49,5.49,0,0,0,.77,3.83c0,.08,0,.17,0,.25-.07,1.38-.12,2.77-.29,4.14-.29-.88-.57-1.79-.88-2.68a10.9,10.9,0,0,0-.08-1.41,7.16,7.16,0,0,0-.13-1.67s-.11-.06-.12,0a10,10,0,0,0-.33,1.36l-.24-.57a11.59,11.59,0,0,0,.12,1.31,9.93,9.93,0,0,1-.84-1.46s-.06,0,0,0a12.69,12.69,0,0,0,1.2,3.14,23.54,23.54,0,0,1,.87,5.34c0,2.09-1.35,3.77-2.69,5.25-1.5,1.67-2.9,3.45-4.46,5.07-.31.33-.62.65-.94,1l.62.76.54-.52Z"/><path class="cls-21" d="M181.61,500.84c-.21.49-.47,1-.68,1.51-.52.4-1,.8-1.54,1.24l-.07.06a4.83,4.83,0,0,1-.91.84,33.15,33.15,0,0,0-5.53,5.45c-1.84,2-3.77,3.94-5.8,5.76a13.67,13.67,0,0,1-2,1.46l1,1.16c1.43-1.41,2.84-2.83,4.26-4.24a66.89,66.89,0,0,1,8.26-7.52c.88-.62,1.78-1.19,2.71-1.72l.13-.06a5.07,5.07,0,0,0,.55,0,6.63,6.63,0,0,0,2.66.36c1.81.05,3.6.32,5.4.52.11,0,.24-.13.09-.16-1.6-.35-3.38-.92-5.13-1.19l1.16-.23c1.18-.26,2.37-.42,3.56-.62a7.06,7.06,0,0,0,2.76-.76s0-.07-.05-.05a11.81,11.81,0,0,1-3.57.34l1.18-.49c1-.41,1.92-1.18,2.91-1.51.07,0,0-.1,0-.1h-.14s-.07,0,0,.06-.09,0-.33.06c-.77.3-1.54.57-2.32.85a23.24,23.24,0,0,0-3.26,1.23l-1.17.09-.91.09c.85-.33,1.77-.57,2.58-1,.07,0,0-.11,0-.09-.8.23-1.69.26-2.52.46a20.87,20.87,0,0,0-2.54.82c.24-.17.48-.34.71-.52.39-.28.78-.6,1.18-.92l1.21-.37c1.7-.46,3.49-.38,5.17-.8.06,0,.05-.08,0-.07-1,.12-2.06,0-3.06,0a12.36,12.36,0,0,0-2.11.33l.15-.1s0,0,0,0l-.5.21-.13,0,.14-.12.36-.3a8.15,8.15,0,0,0,1.37-.58.23.23,0,0,0,.13.06,11.47,11.47,0,0,0,4.19-.62,21.07,21.07,0,0,0,4.19.81c.08,0,.18-.09.07-.13-.92-.26-1.82-.62-2.74-.89h0l.57-.15c1.23-.17,2.46-.28,3.71-.4.1,0,.11-.14,0-.14l-1.81-.06c.78-.25,1.56-.53,2.32-.84.31-.13.06-.4-.19-.31-1.59.51-3.4.68-5,1.23l-.41,0c-.42,0-.91.06-1.42.1a6.56,6.56,0,0,0,1.17-.54c1.54-.45,3.1-.88,4.62-1.4.11,0,0-.14,0-.13-1.23.16-2.41.32-3.59.54l.14-.09a6,6,0,0,0,1.86-1.44c0-.08-.11-.09-.15-.05a11.77,11.77,0,0,1-2.58,1.36,7,7,0,0,0-.92.56l-1.21.3-1.18.32c.37-.29.76-.57,1.14-.86l1.24-.91c.49-.17,1-.36,1.47-.56a8.23,8.23,0,0,0,1.55-.32l.14,0c2,.17,4,.23,6,.22.09,0,.18-.13.05-.15-1.36-.15-2.71-.35-4.06-.55,1.15-.25,2.31-.46,3.45-.71.07,0,.08-.1,0-.1-.85-.06-1.84-.19-2.85-.26a26.32,26.32,0,0,1,3-1.1c.05,0,0-.07,0-.07a16.83,16.83,0,0,0-5.16,1.16h-.14l.88-.58a.29.29,0,0,0,.1,0l.11-.07h.06a14.46,14.46,0,0,0,3.34-.83,29.45,29.45,0,0,0,3.2-1c.05,0,.06-.09,0-.09a15.1,15.1,0,0,0-2.61-.07l.63-.34a12.87,12.87,0,0,0,3.32-2c.05-.05,0-.08-.08-.05a8.44,8.44,0,0,1-1.74.57,13.74,13.74,0,0,0-1.65.69c.55-.52,1.05-1.08,1.57-1.63a5,5,0,0,0,1.18-1.47s0,0,0,0a7.09,7.09,0,0,1-2,1.41c-.85.51-1.66,1.09-2.47,1.65-.44.3-.86.59-1.26.91a15.85,15.85,0,0,0,1.59-2.29c0-.05-.06-.06-.08,0-.9,1-2.05,1.84-3.05,2.81a7.54,7.54,0,0,0,.65-2.82c0-.11-.18-.09-.21,0a10.79,10.79,0,0,1-1.38,2.65,14.15,14.15,0,0,0-1.45,2.44c-.45.24-.89.5-1.33.77l.51-1.13a9.06,9.06,0,0,0,1-3.47c0-.06-.11,0-.12,0a15.63,15.63,0,0,1-2.06,3.55c0-.22.09-.44.13-.66a12.74,12.74,0,0,1,.16-2h0v0H191a6,6,0,0,0-1.1,2.26c-.43,1.09-.92,2.13-1.3,3.23l-.12.08c-.59.38-1.18.76-1.75,1.16.85-1.58,1.52-3.28,2.33-4.86,0,0,0,0,0,0-.45.52-.9,1.08-1.33,1.65a0,0,0,0,0,0,0c.25-.85.54-1.69.82-2.53,0-.06-.1-.05-.13,0a19.46,19.46,0,0,0-1.69,3.81l-.72.92a11.55,11.55,0,0,0,.26-1.75c-.16.21-.31.43-.46.66a10.72,10.72,0,0,0-1,2.91,8.66,8.66,0,0,0-.48,1.08l-.14.12c-.48.43-1,.82-1.49,1.21.31-.9.58-1.83.89-2.66.24-.63.48-1.3.74-2l.1-.05a29.9,29.9,0,0,0,3.16-4s0,0,0,0a12.76,12.76,0,0,0-1.68,1.61c-.28.28-.58.56-.86.85a13,13,0,0,1,.84-1.57s0,0-.07,0a17.68,17.68,0,0,0-2.21,3.49,17.29,17.29,0,0,1,.52-2.84s0,0-.05,0a14.71,14.71,0,0,0-1.58,5.06c-.12.26-.23.53-.34.79l-.1-.18a6.09,6.09,0,0,1-.42-1.44,2.72,2.72,0,0,1-.15-1.38s0,0-.06,0a5.16,5.16,0,0,0-.21,2.45,3.64,3.64,0,0,0,.34,1.12c.06.15.11.31.16.46S181.63,500.78,181.61,500.84Z"/><path class="cls-22" d="M164.85,516.86l1.2,1.46c.85-.84,1.7-1.68,2.54-2.53.92-.67,1.86-1.36,2.85-2a9.38,9.38,0,0,0-1.92-2.15c-1.24,1.42-2.43,2.88-3.73,4.24C165.48,516.22,165.17,516.54,164.85,516.86Z"/><path class="cls-22" d="M189.78,502.59v0h0Z"/><path class="cls-23" d="M179.48,498.64A48.08,48.08,0,0,0,185,487.37s-.06-.05-.08,0a75.27,75.27,0,0,1-5.49,10.82A112.82,112.82,0,0,1,172,509.26s.06.07.09,0A96.89,96.89,0,0,0,179.48,498.64Z"/><path class="cls-24" d="M184.59,500.76a81.29,81.29,0,0,1,9.54-6.95s0-.05,0,0A56.31,56.31,0,0,0,185,500a98.88,98.88,0,0,0-8.55,7.54c-.06.06.07.11.12.06C179.1,505.18,181.92,503,184.59,500.76Z"/><path class="cls-23" d="M184.76,506.61a27.48,27.48,0,0,0-5.28,2,36.56,36.56,0,0,0-5.25,2.78c-.06,0,0,.08.07.06,1.65-.82,3.34-1.53,5-2.39a27.75,27.75,0,0,1,5.54-2.32C184.89,506.69,184.82,506.6,184.76,506.61Z"/><path class="cls-25" d="M167.46,525.56c1.63-1.58,3.89-3.54,4.31-5.92s-1-4.43-2.39-6.16a6.34,6.34,0,0,0-5.44-2.45c-3.71.35-6.95,3.23-9.71,5.49-3.45,2.84-6.68,6-9.89,9.05-2.26,2.17-21.59,22-18.23,23.91.81.45,2.22-.13,3-.33,4.47-1.15,30.86-16.33,38.32-23.58Z"/><path class="cls-26" d="M164.52,521a15,15,0,0,0-3.55-4.21c-.89-.77-2.19-2-3.44-2,0,0-.07,0,0,0,2.82,1.22,4.83,3.94,6.68,6.26C164.29,521.27,164.63,521.22,164.52,521Z"/><path class="cls-26" d="M164.18,527a15.3,15.3,0,0,0-3.51-4.81s-.13,0-.09,0a24.51,24.51,0,0,1,1.77,2.29c.56.83.91,1.76,1.53,2.54C164,527.18,164.25,527.17,164.18,527Z"/><path class="cls-26" d="M162.19,527.39a5.5,5.5,0,0,0-.66-1,5.43,5.43,0,0,1-.84-1s-.09,0-.07,0a2.49,2.49,0,0,0,.49.79c.32.39.54.85.85,1.26C162,527.52,162.25,527.5,162.19,527.39Z"/><path class="cls-26" d="M156,526.23a17.63,17.63,0,0,0-4.87-4.64s-.17,0-.1.06c1.63,1.51,3.15,3.11,4.72,4.7C155.83,526.43,156.09,526.36,156,526.23Z"/><path class="cls-26" d="M151.58,524.21a15.52,15.52,0,0,0-1.82-1.41s-.08,0-.06,0a5.9,5.9,0,0,0,1.6,1.51C151.39,524.4,151.7,524.35,151.58,524.21Z"/><path class="cls-26" d="M149.82,536.93a10.21,10.21,0,0,0-.77-1.51c-.3-.52-.72-.95-1-1.48,0,0-.12,0-.1,0a8.28,8.28,0,0,0,.72,1.54,9.94,9.94,0,0,0,.82,1.5C149.56,537.11,149.88,537.09,149.82,536.93Z"/><path class="cls-26" d="M140.56,534.34a2.63,2.63,0,0,0-1-.93h0l-.06,0h0c-.06,0-.14,0-.1.08a3.89,3.89,0,0,0,.43.48c.14.18.3.34.45.51S140.68,534.5,140.56,534.34Z"/><path class="cls-26" d="M138.66,537.92c-.25-.36-2.24-2.51-2.51-2.17a0,0,0,0,0,0,0h0c-.05-.11-.26,0-.19,0a18.28,18.28,0,0,0,2.45,2.28C138.5,538.11,138.75,538.06,138.66,537.92Z"/><path class="cls-26" d="M137.59,544.1c-.15-.62-.81-.94-1.12-1.46,0,0-.08,0-.07,0a2.05,2.05,0,0,0,.33.74c.19.27.29.61.58.8C137.39,544.25,137.62,544.25,137.59,544.1Z"/><path class="cls-26" d="M135.78,545a3.23,3.23,0,0,0-.63-1.2c-.19-.3-.62-1-.86-1,0,0,0,0,0,0l0,0s-.15,0-.13,0a5.9,5.9,0,0,0,.56,1.16,2.73,2.73,0,0,0,.79,1.15C135.54,545.15,135.8,545.18,135.78,545Z"/><path class="cls-27" d="M146.24,525.3a.46.46,0,0,0-.15-.36s-.14,0-.15,0-.37.28-.35.5.17.2.3.19A.4.4,0,0,0,146.24,525.3Z"/><path class="cls-27" d="M147.47,528.26c0-.2-.15-.32-.29-.41a.11.11,0,0,0-.14,0c-.09.19-.34.33-.35.56s.2.22.33.2a.73.73,0,0,0,.28-.1A.37.37,0,0,0,147.47,528.26Z"/><path class="cls-27" d="M155.74,533.28a.16.16,0,0,0,0-.11v0h0l0,0a.12.12,0,0,0,0-.17.49.49,0,0,0-.39-.06.45.45,0,0,0-.37.37c0,.06,0,.13.08.17l.06,0a.3.3,0,0,0,.34,0s0,0,0,0a.23.23,0,0,0,.12-.08A.52.52,0,0,0,155.74,533.28Z"/><path class="cls-27" d="M148.26,537.83a0,0,0,0,0,0,0l0,0a.6.6,0,0,0,.11-.14.1.1,0,0,0,0-.16.77.77,0,0,0-.72.06.23.23,0,0,0-.11.26s0,0,0,0a.41.41,0,0,0,.57.15S148.24,537.89,148.26,537.83Z"/><path class="cls-27" d="M142.11,536.54a.6.6,0,0,0-.27-.32.15.15,0,0,0-.23,0c-.09.17-.3.37-.19.58a.39.39,0,0,0,.55.15A.36.36,0,0,0,142.11,536.54Z"/><path class="cls-27" d="M141.66,530.89c0-.1-.1-.17-.19-.15l-.1,0-.13,0a.33.33,0,0,0-.3.14c-.06.14.08.26.2.29A.4.4,0,0,0,141.66,530.89Z"/><path class="cls-27" d="M142.37,541.49l0-.09a.84.84,0,0,0,.15-.26c0-.08-.08-.12-.14-.11h-.2a.63.63,0,0,0-.29.08.8.8,0,0,0-.19.13.26.26,0,0,0-.07.28c0,.21.39.22.53.13S142.34,541.57,142.37,541.49Z"/><path class="cls-27" d="M132.36,540.5c0-.07.07-.14.1-.22s-.08-.15-.16-.13a4,4,0,0,0-.48.07.56.56,0,0,0-.29.23c-.08.12,0,.26.09.34a.44.44,0,0,0,.49,0A.58.58,0,0,0,132.36,540.5Z"/><path class="cls-27" d="M127.31,548.78a1.49,1.49,0,0,0,0-.21s-.07-.09-.06-.12h0v0c-.07-.15-.3,0-.4,0a1.57,1.57,0,0,0-.25.2.49.49,0,0,0-.16.33c0,.25.34.32.53.26A.49.49,0,0,0,127.31,548.78Z"/><path class="cls-27" d="M132.76,547l0,0a.22.22,0,0,0,.05-.08v0l0-.06a.59.59,0,0,0,0-.39s-.07,0-.1,0a.53.53,0,0,1-.18.05,1.21,1.21,0,0,0-.32.11.36.36,0,0,0-.23.29.33.33,0,0,0,.34.33A.36.36,0,0,0,132.76,547Z"/><path class="cls-19" d="M121.36,434.34c-.14.5-.29,1-.45,1.51a7.87,7.87,0,0,1-.19,1.57l0,.15c.33,2,.55,4,.7,6,0,.09-.12.18-.14.06-.26-1.34-.57-2.68-.88-4-.15,1.17-.27,2.34-.43,3.5,0,.08-.09.09-.1,0-.13-.84-.33-1.82-.48-2.82a27,27,0,0,0-.87,3s-.06,0-.07,0a17,17,0,0,1,.75-5.24v-.14q-.27.46-.51.93a.87.87,0,0,1,0,.1.75.75,0,0,0-.07.12.11.11,0,0,1,0,.06,14.56,14.56,0,0,1-.56,3.39,28.41,28.41,0,0,1-.7,3.27c0,.05-.08.07-.09,0a14.89,14.89,0,0,1-.28-2.6c-.1.22-.19.44-.28.66a13.38,13.38,0,0,1-1.72,3.47s-.07,0,0-.08a7.66,7.66,0,0,0,.42-1.79,15.91,15.91,0,0,1,.56-1.69c-.47.59-1,1.13-1.5,1.7a5.09,5.09,0,0,1-1.37,1.29s0,0,0,0a6.84,6.84,0,0,0,1.24-2.08c.45-.88,1-1.74,1.46-2.6.26-.45.52-.89.8-1.32a16.16,16.16,0,0,1-2.16,1.77s-.06-.06,0-.08c.88-1,1.67-2.19,2.56-3.27a7.4,7.4,0,0,1-2.76.88c-.11,0-.1-.17,0-.21a11.72,11.72,0,0,0,2.54-1.58,13.16,13.16,0,0,1,2.3-1.65c.21-.46.44-.93.66-1.39-.36.22-.73.41-1.08.6a8.82,8.82,0,0,1-3.38,1.25c-.06,0,0-.11,0-.13a14.81,14.81,0,0,0,3.37-2.33c-.21.07-.42.13-.64.18a13.77,13.77,0,0,0-1.94.32h0s0,0,0,0h0v0h0v0a5.9,5.9,0,0,1,2.17-1.27c1-.52,2-1.1,3.11-1.56,0,0,0-.08.07-.13.33-.62.66-1.23,1-1.84-1.51,1-3.14,1.78-4.65,2.72,0,0,0,0,0,0,.48-.49,1-1,1.54-1.46h0c-.83.32-1.64.67-2.45,1-.06,0-.07-.09,0-.12a20.58,20.58,0,0,1,3.66-2l.87-.79a11.45,11.45,0,0,1-1.73.41,7.91,7.91,0,0,1,.63-.52,10.69,10.69,0,0,1,2.82-1.2,7.37,7.37,0,0,1,1-.56l.11-.16c.39-.51.75-1,1.09-1.58-.88.39-1.78.73-2.58,1.11l-1.91.89a.37.37,0,0,1,0,.11,30.06,30.06,0,0,1-3.75,3.47s0,0,0,0a12.69,12.69,0,0,1,1.47-1.8c.25-.3.51-.62.78-.93a13.25,13.25,0,0,0-1.5,1s0,0,0-.06a17.7,17.7,0,0,1,3.31-2.49,18,18,0,0,0-2.79.75s0,0,0-.05a14.55,14.55,0,0,1,4.92-2l.76-.4-.19-.09a5.65,5.65,0,0,0-1.47-.3,2.81,2.81,0,0,0-1.38,0s0-.05,0-.06a4.94,4.94,0,0,1,2.42-.4,3.75,3.75,0,0,1,1.15.24l.47.13.16-.09a13.64,13.64,0,0,0,3.76-3.66,61.46,61.46,0,0,1,7.11-7.23l.71-.62.67-.61.63.73-1.12,1.09c-.38.38-.77.75-1.16,1.12-2.49,2.39-5.37,5-6,8.67a10.27,10.27,0,0,0-.13,3.17c.2,1.8.61,3.56.95,5.34,0,.11-.11.25-.15.1-.47-1.57-1.19-3.29-1.59-5l-.15,1.18c-.15,1.19-.22,2.4-.32,3.6a7.25,7.25,0,0,1-.54,2.81s-.07,0-.06,0a11.13,11.13,0,0,0,0-3.6c-.12.41-.25.82-.39,1.22-.33,1-1,2-1.27,3,0,.07-.09.05-.1,0V436s0-.07,0,0a.68.68,0,0,1,0-.34c.24-.78.45-1.58.66-2.37a23.42,23.42,0,0,1,1-3.35c0-.39,0-.79,0-1.18s0-.6,0-.91c-.26.88-.43,1.81-.75,2.65,0,.07-.11,0-.1,0,.17-.83.13-1.71.26-2.55a20.89,20.89,0,0,1,.61-2.6L127,426c-.26.41-.54.83-.82,1.25-.1.41-.2.82-.27,1.24-.33,1.73-.11,3.5-.39,5.21,0,.06-.07,0-.07,0,0-1-.19-2-.21-3.05a12.73,12.73,0,0,1,.16-2.13l-.09.16s0,0,0,0c0-.17.12-.34.17-.51l0-.14-.11.16-.27.38a7.78,7.78,0,0,1-.47,1.41.18.18,0,0,1,.07.12,11.26,11.26,0,0,1-.28,4.23,21.22,21.22,0,0,1,1.14,4.11c0,.08-.07.19-.12.08-.34-.9-.76-1.76-1.11-2.66h0c0,.2-.06.39-.1.58-.07,1.24-.08,2.48-.1,3.73,0,.11-.13.12-.14,0-.08-.6-.15-1.2-.2-1.79-.2.8-.4,1.59-.66,2.38-.1.32-.39.09-.33-.17.39-1.63.42-3.45.84-5.09,0-.14,0-.27,0-.41,0-.43,0-.92,0-1.43a5.79,5.79,0,0,1-.44,1.21c-.33,1.58-.63,3.16-1,4.72,0,.11-.14.05-.14,0,.06-1.23.13-2.43.25-3.62a1,1,0,0,1-.08.14,5.78,5.78,0,0,1-1.28,2c-.08.07-.1-.1-.07-.14a11.69,11.69,0,0,0,1.16-2.69,7.68,7.68,0,0,1,.48-.95c.06-.41.12-.82.2-1.23s.15-.8.23-1.21l-.77,1.21C121.89,433.47,121.62,433.9,121.36,434.34Z"/><path class="cls-20" d="M136.09,414.22a40.76,40.76,0,0,1-9.15,5.76c-1.3.53-2.83,1-3.51,2.34-.36.72-.08,1.44-.27,2.15a5.19,5.19,0,0,1-.88,2.3s-.08,0-.06,0a2.84,2.84,0,0,0,.24-1.36,5.79,5.79,0,0,0,0-1.5c0-.07,0-.14,0-.2l-.54.66a14.78,14.78,0,0,1-2.94,4.42s-.05,0,0,0a18.27,18.27,0,0,0,1.29-2.58,17.25,17.25,0,0,1-3.1,2.73s-.09,0-.06,0a11.56,11.56,0,0,0,1.25-1.27l-1.07.58a13.47,13.47,0,0,1-2.06,1.08s-.06,0,0,0a30.58,30.58,0,0,1,4.16-3l.11,0,1.25-1.7c.54-.7,1.06-1.52,1.61-2.31-.6.24-1.19.48-1.77.75l0,0a6.36,6.36,0,0,1-.73,1.48c-.21.38-.47.75-.68,1.14-.12.21-.52.62-.5.88,0,0-.05.09-.06,0-.13-.38.27-1.06.43-1.4a.61.61,0,0,1,0-.12c-.36.51-.8,1-1.17,1.47a7.79,7.79,0,0,1-.63.51,13,13,0,0,1,.75-1.6c-.28.2-.63.44-1,.68a20.1,20.1,0,0,1-2.69,3.19s-.15,0-.12-.05c.51-.73,1-1.45,1.49-2.2v0c-.58.44-1.16.84-1.74,1.22,0,0,0,0,0,0,1.22-1.29,2.34-2.73,3.59-4-.66.22-1.33.42-2,.62l0,0a14.48,14.48,0,0,1-.84,1.67c-.16.31-.3.62-.46.92a4.1,4.1,0,0,0-.53,1c0,.07-.11.11-.12,0a5.7,5.7,0,0,1,.57-1.9c-.29.35-.58.71-.86,1.07-.45.58-1,1.56-1.69,1.86h-.07v0h0a12.57,12.57,0,0,0,.7-1.83c.1-.21.2-.4.31-.6a15.41,15.41,0,0,0-3,2.84s-.14,0-.12,0a6.68,6.68,0,0,1,1.23-2.22,22.14,22.14,0,0,0-2.14,1.94s0,0,0,0a5.72,5.72,0,0,1,1.27-1.52,12.07,12.07,0,0,1,2.34-2.12l0,0c-.5.13-1,.26-1.5.37a6.16,6.16,0,0,1-1,1c-.3.44-.65.86-1,1.28a7.22,7.22,0,0,1-1.19,1.49s0,0,0-.05c.2-.48.43-1,.66-1.42a9.82,9.82,0,0,0-1.64,1.78c0,.08-.23.05-.19-.06a4.87,4.87,0,0,1,.33-.84l-.15.12c-.7.59-1.37,1.23-2.09,1.79,0,0,0,0,0-.05a11.6,11.6,0,0,1,3.28-3.46l.06-.08c-1.24.65-2.58,1.18-3.71,1.85,0,0-.11,0-.08-.05a15.76,15.76,0,0,1,2.17-1.76c-.48.19-1,.36-1.46.52l-.5.17c-.5.39-1,.76-1.55,1.11a21.83,21.83,0,0,0-1.92,1.17s0,0,0-.05a11.24,11.24,0,0,1,2-1.74l-.84.24a7,7,0,0,0-2.28.8s0,0,0,0a5,5,0,0,1,1.54-1.09c.65-.38,1.29-.78,2-1.13a13.54,13.54,0,0,1-1.77.21,8.06,8.06,0,0,0-1.84.06s-.12,0-.06-.07a13.14,13.14,0,0,1,3.74-1l.7-.14a15.73,15.73,0,0,1-2.49-.8s0-.09,0-.09a14.55,14.55,0,0,1,1.87-.06,13.4,13.4,0,0,0-1.49-.9s0-.09,0-.08a10.09,10.09,0,0,1,2.58,1h.37a15.21,15.21,0,0,1,3.44.13l.06,0,.13,0h.09c.34-.09.68-.2,1-.31l-.14,0a16.7,16.7,0,0,1-5.28-.32,0,0,0,0,1,0-.07,25.69,25.69,0,0,0,3.15-.24c-1-.35-1.87-.74-2.67-1-.08,0-.05-.11,0-.11,1.17.08,2.34.21,3.51.29-1.24-.57-2.48-1.14-3.75-1.67-.11,0,0-.15.1-.13,1,.3,2.08.62,3.11,1-.66-.43-1.32-.87-2-1.25,0,0,0-.1,0-.09a17.94,17.94,0,0,1,2.13.87,4.76,4.76,0,0,1,1.67,1.08s0,0,0,0l.76.28h.15a7.6,7.6,0,0,1,1.58.12c.52-.06,1-.1,1.57-.13l1.44-.53,1.34-.5-1.23,0-1.25-.05a8.17,8.17,0,0,1-1,.27,11.39,11.39,0,0,0-2.85.6c-.06,0-.22,0-.14-.09a5.73,5.73,0,0,1,2.19-.87l.16,0c-1.19-.13-2.38-.3-3.6-.49-.09,0-.13-.13,0-.14,1.61-.07,3.22-.05,4.83-.06a6.48,6.48,0,0,1,1.27-.19l-1.4-.29-.4-.08a21.4,21.4,0,0,1-2.64-.1,10.16,10.16,0,0,1-1.07.33c-.54.18-1.11.26-1.64.44,0,0,0,0,0,0,.45-.23.94-.4,1.4-.62l.35-.17a13.26,13.26,0,0,0-1.54,0c-.27,0-.43-.32-.1-.36.82-.09,1.64-.13,2.47-.16-.58-.18-1.15-.36-1.73-.56-.1,0-.06-.15,0-.13l2.64.48a6.25,6.25,0,0,0-.77-.49c-.7-.36-1.45-.56-2.15-.9,0,0,0-.13,0-.11,1.27.43,2.9.48,3.79,1.64l.14,0,.59,0h0l-.13-.09a.09.09,0,0,1-.15,0c0-.05-.08-.1-.11-.16-.67-.45-1.31-.92-2-1.35-.1-.07,0-.14.1-.1l.77.33a6.31,6.31,0,0,0-1.55-.88c-.06,0,0-.16,0-.14a4.92,4.92,0,0,1,2.74,1.58,15,15,0,0,1,1.47.82c1.33,0,2.65.17,4,.14-1-.23-1.89-.63-2.84-.79-.06,0-.06-.08,0-.07,1.62.05,3.21.55,4.84.65,1.11-.19,2.21-.44,3.31-.67l.47-.17a17.25,17.25,0,0,1-5.22-.24,10.33,10.33,0,0,1,2.74-.26,10,10,0,0,0-2.36-.35c-.78.05-1.55.16-2.34.19-1,0-2.88.55-3.79.12a37.54,37.54,0,0,1,4.5-.83l-1-.27c-1.16.18-2.32.17-3.5.24,0,0,0-.07,0-.08a9.91,9.91,0,0,1,1.93-.48,8.43,8.43,0,0,0-1-.1,2.18,2.18,0,0,1,.64-.2l-.36-.09c-.63-.13-1.31-.11-1.94-.26,0,0,0,0,0,0a7.15,7.15,0,0,1,3.77.43l.25,0a7.7,7.7,0,0,0-2.78-1.22s0-.05,0-.05a5.53,5.53,0,0,1,3.65,1.41l.24,0c1.38.17,2.75.35,4.14.42-.83-.44-1.67-.87-2.5-1.33a10.25,10.25,0,0,1-1.38-.31,7.57,7.57,0,0,1-1.62-.42s0-.12,0-.12a12.21,12.21,0,0,1,1.4-.09l-.52-.34a11.38,11.38,0,0,1,1.27.35,9.19,9.19,0,0,0-1.3-1.08s0-.06,0-.05a13.14,13.14,0,0,1,2.88,1.72,23.23,23.23,0,0,0,5.11,1.76c2.07.33,4-.68,5.63-1.75,1.91-1.2,3.9-2.28,5.76-3.53l1.12-.76.64.74-.6.44Z"/><path class="cls-21" d="M118.16,426.25c.52-.12,1.06-.29,1.6-.41.48-.45,1-.89,1.49-1.3l.07-.06a4.85,4.85,0,0,0,1-.76,32.83,32.83,0,0,1,6.31-4.52c2.3-1.47,4.53-3,6.67-4.73a15.1,15.1,0,0,0,1.78-1.71l1,1.13c-1.63,1.17-3.27,2.32-4.9,3.48a67.12,67.12,0,0,0-8.82,6.87,28.37,28.37,0,0,0-2.15,2.37l-.09.11a4.28,4.28,0,0,1-.12.54,6.38,6.38,0,0,1-.1,2.68c-.26,1.8-.3,3.61-.41,5.42,0,.1-.16.21-.17.06-.06-1.64-.33-3.49-.29-5.26-.14.37-.29.73-.43,1.1-.45,1.12-.81,2.27-1.21,3.41a7.35,7.35,0,0,1-1.22,2.59s-.07,0-.05-.06a11.59,11.59,0,0,0,1-3.47l-.69,1.09c-.57.9-1.48,1.68-2,2.61,0,.06-.11,0-.09,0l0-.14s0-.06.06,0,0-.09.12-.31c.42-.71.83-1.42,1.23-2.14a24.06,24.06,0,0,1,1.76-3c.1-.39.19-.77.29-1.15s.17-.58.25-.87c-.47.78-.86,1.64-1.38,2.37,0,.07-.13,0-.09-.05.36-.76.55-1.63.88-2.4a23.19,23.19,0,0,1,1.24-2.37l-.62.61c-.35.34-.74.67-1.11,1-.2.37-.39.75-.57,1.13-.75,1.6-1,3.37-1.68,5,0,.05-.08,0-.06,0,.28-1,.33-2,.56-3a13.32,13.32,0,0,1,.68-2l-.12.13s0,0,0,0l.3-.46.05-.12-.14.12-.35.3a7.62,7.62,0,0,1-.81,1.25.26.26,0,0,1,0,.14,11.39,11.39,0,0,1-1.33,4,21,21,0,0,1,.09,4.26c0,.08-.12.16-.14,0-.1-.95-.3-1.89-.41-2.84v0l-.24.54c-.38,1.19-.7,2.38-1,3.59,0,.1-.15.08-.14,0,.08-.61.16-1.21.25-1.8-.38.73-.78,1.45-1.22,2.15-.18.28-.4,0-.28-.25.78-1.48,1.26-3.23,2.07-4.72,0-.13.07-.26.1-.4.12-.41.22-.89.35-1.38a6.63,6.63,0,0,1-.73,1.06c-.71,1.44-1.4,2.9-2.17,4.31-.06.1-.15,0-.12-.07.37-1.18.73-2.32,1.14-3.45a.69.69,0,0,1-.11.13,5.7,5.7,0,0,1-1.74,1.58c-.09,0-.06-.12,0-.15a11.89,11.89,0,0,0,1.79-2.31,7.83,7.83,0,0,1,.7-.81c.16-.38.32-.76.5-1.14s.34-.74.52-1.11l-1,1-1.11,1.06c-.25.46-.52.91-.8,1.35a8,8,0,0,1-.58,1.48l-.06.13c-.18,2-.46,4-.81,6,0,.09-.17.15-.16,0,.09-1.37.11-2.74.15-4.11-.44,1.1-.84,2.2-1.29,3.29,0,.07-.11.06-.1,0,.09-.84.13-1.84.23-2.85a28.55,28.55,0,0,0-1.59,2.73s-.07,0-.06,0a16.73,16.73,0,0,1,2-4.88,1,1,0,0,0,0-.14c-.25.25-.49.51-.73.77a.39.39,0,0,1,0,.09l-.09.1a.13.13,0,0,0,0,.06,14.74,14.74,0,0,1-1.39,3.15,28.71,28.71,0,0,1-1.49,3s-.1.05-.09,0a15.28,15.28,0,0,1,.37-2.58l-.43.57a13.19,13.19,0,0,1-2.53,2.93s-.06-.06,0-.09a7.84,7.84,0,0,0,.86-1.62,12.67,12.67,0,0,1,1-1.5c-.61.45-1.24.84-1.87,1.26a4.83,4.83,0,0,1-1.66.91s0,0,0,0a7.12,7.12,0,0,0,1.72-1.7c.65-.75,1.36-1.44,2-2.16.36-.37.73-.74,1.11-1.08a15.33,15.33,0,0,1-2.53,1.18s0-.07,0-.09c1.11-.72,2.17-1.7,3.3-2.52a7.53,7.53,0,0,1-2.89.16c-.12,0-.06-.19,0-.21a11.12,11.12,0,0,0,2.85-.9,12.77,12.77,0,0,1,2.64-1c.32-.4.65-.79,1-1.18l-1.2.31a8.93,8.93,0,0,1-3.59.37c-.06,0,0-.12,0-.13a15.08,15.08,0,0,0,3.84-1.42l-.66,0a11.89,11.89,0,0,0-2-.17h0v-.06a5.85,5.85,0,0,1,2.41-.7c1.15-.24,2.26-.55,3.41-.73l.1-.11q.7-.78,1.44-1.53c-1.71.57-3.49.94-5.18,1.48,0,0,0,0,0,0,.59-.36,1.21-.71,1.86-1h0c-.88.1-1.75.24-2.63.37-.06,0,0-.1,0-.12a19.61,19.61,0,0,1,4-1l1-.55a13.08,13.08,0,0,1-1.77,0,7,7,0,0,1,.74-.34,10.31,10.31,0,0,1,3-.46,8.12,8.12,0,0,1,1.15-.3l.15-.12c.5-.4,1-.82,1.44-1.26-.94.16-1.9.26-2.78.43l-2.07.39a.22.22,0,0,1-.07.09,29.58,29.58,0,0,1-4.5,2.43s0,0,0-.05a14,14,0,0,1,1.87-1.37c.33-.23.65-.48,1-.71a11.16,11.16,0,0,0-1.69.56s0-.06,0-.07a17.74,17.74,0,0,1,3.82-1.58,17.44,17.44,0,0,0-2.89,0s0,0,0,0a14.4,14.4,0,0,1,5.26-.7l.83-.2-.17-.13a6,6,0,0,0-1.34-.66,2.79,2.79,0,0,0-1.33-.38s0-.06,0-.06a5.16,5.16,0,0,1,2.45.21,4,4,0,0,1,1,.53l.42.23Z"/><path class="cls-22" d="M136.8,412.47l1.23,1.42L135.11,416c-.82.79-1.66,1.6-2.45,2.47a6.63,6.63,0,0,1-1-1.15,7,7,0,0,1-.75-1.11c1.62-1,3.26-1.9,4.82-2.95Z"/><path class="cls-22" d="M118.49,434.6h0v0Z"/><path class="cls-23" d="M116.36,423.78a48,48,0,0,1-12,3.51s0-.07,0-.08a75.84,75.84,0,0,0,11.6-3.57,114.5,114.5,0,0,0,12.19-5.43s.06.06,0,.09A96.52,96.52,0,0,1,116.36,423.78Z"/><path class="cls-24" d="M117.57,429.18a81.05,81.05,0,0,0-8.47,8.21s0,0,0,0a56.79,56.79,0,0,1,7.67-7.91,98.35,98.35,0,0,1,8.88-7.14c.07,0,.09.1,0,.13C122.86,424.52,120.24,426.93,117.57,429.18Z"/><path class="cls-23" d="M123.31,430.34a27.28,27.28,0,0,1,2.84-4.87,36.1,36.1,0,0,1,3.63-4.7c.05,0,.08.05.05.09-1.09,1.48-2.08,3-3.2,4.48a27.4,27.4,0,0,0-3.23,5.07C123.36,430.48,123.29,430.4,123.31,430.34Z"/><path class="cls-25" d="M144.94,416.5c8.41-6.12,27.87-29.53,29.76-33.74.34-.75,1.15-2,.84-2.91-1.29-3.64-24.14,12-26.67,13.88-3.6,2.65-7.21,5.3-10.59,8.22-2.7,2.33-6.1,5-7.07,8.62a6.33,6.33,0,0,0,1.49,5.78c1.46,1.7,3.29,3.41,5.66,3.41s4.73-1.91,6.57-3.25Z"/><path class="cls-26" d="M141,412.85a15.14,15.14,0,0,1-3.54-4.22c-.61-1-1.57-2.49-1.37-3.73,0,0,.05-.06.06,0,.72,3,3.06,5.43,5,7.65C141.24,412.66,141.13,413,141,412.85Z"/><path class="cls-26" d="M146.92,413.54a15.34,15.34,0,0,1-4.14-4.28s0-.13.06-.08c.62.73,1.27,1.47,2,2.14s1.58,1.18,2.24,1.93C147.12,413.34,147.06,413.63,146.92,413.54Z"/><path class="cls-26" d="M147.63,411.64a5.25,5.25,0,0,1-.87-.83,5,5,0,0,0-.85-1s0-.09,0-.07a2.7,2.7,0,0,1,.69.62c.33.38.74.68,1.09,1.05C147.79,411.48,147.73,411.72,147.63,411.64Z"/><path class="cls-26" d="M147.54,405.34a17.84,17.84,0,0,1-3.75-5.59c0-.05,0-.17.09-.09,1.2,1.87,2.52,3.64,3.82,5.45C147.77,405.21,147.65,405.45,147.54,405.34Z"/><path class="cls-26" d="M146.3,400.64a14.14,14.14,0,0,1-1.07-2s0-.07,0,0a5.54,5.54,0,0,1,1.22,1.83C146.52,400.49,146.42,400.79,146.3,400.64Z"/><path class="cls-26" d="M159.13,401.07a9.56,9.56,0,0,1-1.35-1c-.46-.38-.82-.86-1.29-1.23,0,0,0-.12,0-.1a8.94,8.94,0,0,1,1.39,1,9.75,9.75,0,0,1,1.34,1.06C159.36,400.85,159.29,401.16,159.13,401.07Z"/><path class="cls-26" d="M158.16,391.51a2.57,2.57,0,0,1-.74-1.15h0s0,0,0-.06h0v0h0c0-.06,0-.14.1-.09s.26.35.4.51.28.35.42.53S158.3,391.65,158.16,391.51Z"/><path class="cls-26" d="M162,390.24c-.31-.3-2.09-2.63-1.71-2.84a0,0,0,0,1,0,0h0c-.1-.07,0-.26.08-.18a18.82,18.82,0,0,1,1.83,2.81C162.23,390.12,162.14,390.36,162,390.24Z"/><path class="cls-26" d="M168.28,390.24c-.58-.25-.79-1-1.24-1.35,0,0,0-.08,0-.07a2.32,2.32,0,0,1,.67.45c.24.24.55.4.69.71C168.46,390.08,168.43,390.3,168.28,390.24Z"/><path class="cls-26" d="M169.51,388.62a3.07,3.07,0,0,1-1.07-.83c-.27-.24-.85-.77-.84-1,0,0,0,0,0,0l0-.06s0-.15.05-.12a5.91,5.91,0,0,1,1,.75,2.66,2.66,0,0,1,1,1C169.66,388.41,169.65,388.67,169.51,388.62Z"/><path class="cls-27" d="M148.29,395.57a.45.45,0,0,1-.33-.22s0-.13,0-.14.34-.31.55-.26a.25.25,0,0,1,.14.32A.42.42,0,0,1,148.29,395.57Z"/><path class="cls-27" d="M151,397.28c-.2,0-.28-.2-.35-.35a.11.11,0,0,1,.06-.14c.2-.05.39-.27.61-.24s.18.23.15.35a.84.84,0,0,1-.15.26A.38.38,0,0,1,151,397.28Z"/><path class="cls-27" d="M154.53,406.29a.24.24,0,0,1-.12,0h0l0,0a.12.12,0,0,1-.16-.05.51.51,0,0,1,0-.4.43.43,0,0,1,.42-.3c.07,0,.13.06.16.11s0,0,0,.06a.3.3,0,0,1,0,.34h0a.31.31,0,0,1-.09.11Z"/><path class="cls-27" d="M160.28,399.69h0l0,0-.15.09a.1.1,0,0,1-.15-.08.73.73,0,0,1,.18-.69.22.22,0,0,1,.27-.07l0,0a.39.39,0,0,1,0,.58A.33.33,0,0,1,160.28,399.69Z"/><path class="cls-27" d="M160.07,393.41a.68.68,0,0,1-.28-.32.16.16,0,0,1,.07-.22c.19-.07.42-.23.61-.09a.39.39,0,0,1,.05.57A.35.35,0,0,1,160.07,393.41Z"/><path class="cls-27" d="M154.58,392c-.11,0-.16-.12-.12-.21l0-.09v-.13a.31.31,0,0,1,.19-.28c.15,0,.24.12.25.24A.41.41,0,0,1,154.58,392Z"/><path class="cls-27" d="M164.9,394.51l-.1,0a.73.73,0,0,1-.28.1c-.09,0-.11-.09-.09-.15a1.48,1.48,0,0,0,0-.19.7.7,0,0,1,.12-.28.91.91,0,0,1,.17-.17.26.26,0,0,1,.28,0c.2.07.16.43,0,.55A.37.37,0,0,1,164.9,394.51Z"/><path class="cls-27" d="M165.63,384.48l-.24.06c-.09,0-.13-.11-.1-.18a3.11,3.11,0,0,1,.16-.46.47.47,0,0,1,.27-.25c.13,0,.26.06.32.15a.44.44,0,0,1-.06.49A.55.55,0,0,1,165.63,384.48Z"/><path class="cls-27" d="M174.65,380.91a1.17,1.17,0,0,1-.2-.06s-.08-.08-.11-.07h0c-.13-.09,0-.3.09-.39a2.52,2.52,0,0,1,.25-.21.51.51,0,0,1,.34-.1c.26,0,.26.39.17.56A.47.47,0,0,1,174.65,380.91Z"/><path class="cls-27" d="M172,386l0,0-.1,0h-.11a.58.58,0,0,1-.39,0,.07.07,0,0,1,0-.11.4.4,0,0,0,.08-.16,1.11,1.11,0,0,1,.17-.3.36.36,0,0,1,.32-.18.33.33,0,0,1,.27.39A.37.37,0,0,1,172,386Z"/></g><path class="cls-28" d="M251.52,396.86c-30.71,23.58-75.74-12.49-55.75-86.75a53.44,53.44,0,0,1,5.23,1.52l0,.13c-19.28,68.25,25,100.38,49.25,79.36C250.65,393,251.1,394.91,251.52,396.86Z"/><path class="cls-28" d="M182.42,307.72c-7.44,66.83-42.89,86.81-61.53,78.7l-1.5-4.31c17.16,2.95,49.69-10.57,57.29-75.08C179,307.24,180.15,307.35,182.42,307.72Z"/><path class="cls-29" d="M112.11,362.66a5.67,5.67,0,0,0,.28,1.1c.2.72.54,1.78,1,3.16.94,2.76,2.49,6.78,4.55,11.91,1.07,2.55,1.89,5.49,2.92,8.7s2.08,6.71,3.19,10.48a204,204,0,0,1,6.18,25.89A135.22,135.22,0,0,1,132,439.25c0,1.34.1,2.69,0,4.06s-.06,2.76-.09,4.15c-.17,2.8-.31,5.64-.59,8.53-1,11.56-2.9,23.85-4.84,36.78-1,6.47-2,13.1-2.88,19.9-.21,1.7-.42,3.42-.63,5.14s-.37,3.46-.56,5.2c0,.35-.23.9.25,1.09l.62.53,1,.87,1,.87c.34.29.72.53,1.08.79l2.2,1.56,2.31,1.39,1.16.7,1.21.62,2.42,1.23,2.5,1.09c.84.37,1.67.74,2.53,1,1.71.64,3.43,1.29,5.19,1.81.88.27,1.75.57,2.64.82l2.68.71a133.75,133.75,0,0,0,22.15,3.73,177.68,177.68,0,0,0,22.43.57,167.2,167.2,0,0,0,21.69-2.15A116.51,116.51,0,0,0,238,535.06a63.27,63.27,0,0,0,9.33-4.31,37.63,37.63,0,0,0,4.21-2.87l1-.78.91-.89.91-.89c.08-.08.24-.22.36-.36l.09-.51.1-.61a309.25,309.25,0,0,0,4.47-69.36c-.47-9.9-1.31-18.83-2.26-26.65-.52-3.9-1-7.53-1.55-10.85s-1.06-6.36-1.56-9.09-1-5.12-1.46-7.21-.84-3.85-1.19-5.26l-.8-3.22a7.18,7.18,0,0,0-.32-1.08,5.63,5.63,0,0,0,.17,1.12c.14.73.36,1.82.65,3.25s.67,3.18,1,5.28.89,4.5,1.32,7.23,1,5.75,1.43,9.09.94,7,1.42,10.85c.86,7.8,1.63,16.71,2,26.58a313.54,313.54,0,0,1-4.77,69.06l-.11.61c0,.17,0,0-.09.16l-.85.83-.87.84-.95.74a36.26,36.26,0,0,1-4,2.74,63.5,63.5,0,0,1-9.12,4.18,115,115,0,0,1-20.15,5.11,165.88,165.88,0,0,1-21.49,2.12,180.37,180.37,0,0,1-22.24-.58,133.63,133.63,0,0,1-21.91-3.68L149,536c-.87-.24-1.73-.54-2.6-.8-1.74-.51-3.42-1.15-5.1-1.78-.85-.29-1.66-.66-2.48-1l-2.45-1.07-2.37-1.2-1.18-.6-1.13-.68-2.25-1.35L127.34,526c-.35-.25-.72-.48-1-.76l-1-.84-1-.83-.38-.32s0,0,0-.05c.18-1.73.36-3.46.54-5.17s.41-3.42.62-5.12c.88-6.78,1.87-13.41,2.82-19.88,1.91-12.94,3.75-25.25,4.71-36.88a132.76,132.76,0,0,0,.54-16.89,129.65,129.65,0,0,0-1.86-15.48,198.36,198.36,0,0,0-6.42-26c-1.15-3.76-2.28-7.24-3.32-10.45s-1.95-6.16-3.07-8.7c-2.14-5.11-3.78-9.07-4.81-11.8-.51-1.36-.89-2.4-1.16-3.1A6.44,6.44,0,0,0,112.11,362.66Z"/><path class="cls-29" d="M176.73,306.59a21.76,21.76,0,0,0-.83,4.06c-.2,1.32-.5,2.91-.85,4.77-.18.93-.36,1.92-.56,3s-.45,2.15-.7,3.31a151.94,151.94,0,0,1-4.36,16.06,103.1,103.1,0,0,1-8.29,18.53,77.69,77.69,0,0,1-5.93,8.64,60.38,60.38,0,0,1-6.73,7,43.28,43.28,0,0,1-14.06,8.4,38.78,38.78,0,0,1-6.13,1.55,30.39,30.39,0,0,1-4.78.35c-2.63,0-4.08-.3-4.11-.16s.34.16,1,.33a9.12,9.12,0,0,0,1.29.24,15.76,15.76,0,0,0,1.77.19,27.71,27.71,0,0,0,4.91-.1,36.8,36.8,0,0,0,6.37-1.36A42.83,42.83,0,0,0,149.41,373a57.85,57.85,0,0,0,7-7.16,76.14,76.14,0,0,0,6.09-8.81,98.61,98.61,0,0,0,8.3-18.86,131.45,131.45,0,0,0,4.08-16.29c.22-1.18.42-2.3.61-3.36s.3-2.06.44-3c.27-1.88.48-3.5.59-4.83A20.43,20.43,0,0,0,176.73,306.59Z"/><path class="cls-29" d="M201,311.77a29.39,29.39,0,0,0-1.5,4.6c-.47,1.49-.86,3.36-1.36,5.52s-.91,4.65-1.39,7.4a99.14,99.14,0,0,0-1,19.61,80.29,80.29,0,0,0,1.44,11.54,70.17,70.17,0,0,0,3.7,12c3.38,7.88,8.35,14.77,14.42,19.22s12.82,6.63,18.51,6.39a28,28,0,0,0,4-.38l1.81-.44.86-.21.81-.29,1.52-.57c.49-.17.92-.44,1.36-.64a16,16,0,0,0,2.28-1.29c.65-.44,1.25-.81,1.72-1.18l1.16-1c.62-.55.92-.85.89-.89s-.41.18-1.08.64l-1.23.87c-.5.33-1.11.64-1.77,1a16.7,16.7,0,0,1-2.28,1.13c-.43.18-.86.42-1.34.57l-1.5.49-.78.25-.84.18-1.75.37a28.18,28.18,0,0,1-3.87.25c-5.45.09-11.92-2-17.64-6.43s-10.57-11-13.86-18.69a70,70,0,0,1-3.64-11.67,81.59,81.59,0,0,1-1.51-11.32,106.8,106.8,0,0,1,.65-19.37c.42-2.73.7-5.23,1.16-7.38s.73-4,1.11-5.54A29.84,29.84,0,0,0,201,311.77Z"/><path class="cls-30" d="M93,106.21c10.22,22.63,21.92,63,18.33,87.52a21.63,21.63,0,0,1-5-.54c-7-24.05-33.53-38.31-47-52.88-11.84-12.8-19.28-29.16-23.8-46S29.24,60,27.47,42.67c-.28-2.75-.14-6.08,1.12-8.33l.39,0c4.06.22,7.78,2.15,11.24,4.26C64.94,53.82,81.08,79.76,93,106.21Z"/><path class="cls-31" d="M104.55,153.25s1.74,11.16,4.79,24.86l1.34-.61-.22-.28a53.83,53.83,0,0,0-13.15-12.63,52.5,52.5,0,0,0-4.73-2.86c-1.15-.61-1.8-.92-1.8-.92l1.68,1.12c1.07.73,2.6,1.82,4.4,3.26a69.54,69.54,0,0,1,12.4,12.92l.2.27,2.11,2.81-.77-3.41C107.72,164.09,104.55,153.25,104.55,153.25Z"/><path class="cls-32" d="M37.38,33.48a216.1,216.1,0,0,1,62,52.17,139.12,139.12,0,0,1,13,18.57c.37.64.73,1.31,1.08,2,11.33,21.16,16.73,52,20,80.54,0,0-7.63,5.65-15.39,6.63a48.79,48.79,0,0,1-6.72.38c3.59-24.57-8.11-64.89-18.33-87.52-12-26.45-28.1-52.39-52.82-67.59-3.46-2.11-7.18-4-11.24-4.26l-.39,0a4.62,4.62,0,0,1,3.23-2.43C33.75,31.55,35.67,32.51,37.38,33.48Z"/><path class="cls-33" d="M251.41,282.66c-10.35-62-66.08-120.75-124-108.6C76.68,184.68,46.48,241,47,292.57c0,0,4.66,41.22,80.75,47.22S251.41,282.66,251.41,282.66Z"/><path class="cls-34" d="M249.31,311.23c-2.57,8.39-9.7,15.21-16.58,21.06a27.82,27.82,0,0,0,6.39-18.43,31.16,31.16,0,0,1-9.44,13.25c-4.41,3.44-9.88,4.9-14.36,7.94a39.77,39.77,0,0,0,9.69-9.33c-12.65,10.37-27,17.42-42.67,22.37a147.31,147.31,0,0,1-47.5,7.12c-11.35-.27-22.65-1.29-33.28-5.16a118.61,118.61,0,0,1-14.66-6.24c-3.25-1.72-10.5-5.68-11.72-9.39a24.23,24.23,0,0,0,3.21,6.36c-3.57-2.36-10.63-7-13.67-12.73,1.65,4.34,4.33,8.06,6.94,11.77-10.16-2.38-21.93-17-21.45-27.43a28.45,28.45,0,0,0,2.94,14.83c-4.86-4.89-9.36-12.46-8.94-21-1.8,13.16,7.24,29.32,8.69,30.46C41.82,327.9,35.49,316.09,36.75,302,38,287.59,47.26,279.12,61.22,277c7.93-1.22,16.5-2.92,24.75-2.15,17.25,1.61,33.24,3.06,50.6,2.35,16.67-.67,33.43-3.51,49.79-6.66,12.29-2.36,24.49-5.61,37-6.25,11.38-.58,25.68,1,35.18,7.9,4,2.93,7.15,7.57,7,12.55.13-4-8.38-5.21-11.1-4.65,12.65,3.38,11.18,22.8,7.12,31.26a32.12,32.12,0,0,0-2.14-14.62A37.44,37.44,0,0,1,248,326.16a44.21,44.21,0,0,0,2.26-19.85A22.89,22.89,0,0,1,249.31,311.23Z"/><path class="cls-6" d="M183.27,347.8l-2.45.67c-1.57.43-3.86,1-6.69,1.69a188.26,188.26,0,0,1-22.41,3.76,147.46,147.46,0,0,1-22.68.72c-2.91-.16-5.26-.39-6.88-.58l-2.51-.3s.88.19,2.49.48,3.94.66,6.86,1a113.64,113.64,0,0,0,22.84-.16,133.86,133.86,0,0,0,22.43-4.34c2.81-.81,5.06-1.53,6.6-2.06Z"/><path class="cls-35" d="M121,303.19c4.57,3.29,10.77,4.05,16.35,2.92,6.22-1.27,11.8-4.59,17-8.16s10.26-7.53,15.95-10.31c-2.34,3.33-5.71,6.69-7.69,10.24l-7.06,12.7c-3.63,6.57-7.48,13.35-13.61,17.69s-15.23,5.43-20.84.44c-2.39-2.13-3.87-5.07-5.23-8q-3.43-7.22-6.43-14.64v-.19a12.31,12.31,0,0,0,10-3.94A15.45,15.45,0,0,0,121,303.19Z"/><path class="cls-36" d="M151.11,318.16A36.16,36.16,0,0,1,142,328.27c-6.12,4.33-15.23,5.43-20.84.44a14.7,14.7,0,0,1-2.28-2.59,23.11,23.11,0,0,1,16.33-6.71,9.69,9.69,0,0,0,1.87-.08,8.43,8.43,0,0,0,1.7-.62A18.73,18.73,0,0,1,151.11,318.16Z"/><path class="cls-37" d="M170.32,287.64s-.82,1.1-2.45,3c-.8.94-1.81,2.06-2.93,3.43-.56.69-1.14,1.43-1.71,2.27s-1.11,1.76-1.67,2.71l-7.78,13.46a83.28,83.28,0,0,1-4.9,7.67,33.29,33.29,0,0,1-6.63,7c-5.14,4-12,5.27-17.25,3.26a13,13,0,0,1-3.48-2.07,15,15,0,0,1-2.57-2.92,42.59,42.59,0,0,1-3.4-6.3c-3.77-8-6.11-13-6.11-13s2,5.08,5.43,13.28c.41,1,.87,2.09,1.4,3.19A32,32,0,0,0,118.1,326a16.15,16.15,0,0,0,2.65,3.21,14,14,0,0,0,3.77,2.38c5.73,2.34,13.12,1,18.64-3.24A33.34,33.34,0,0,0,150,321a77.48,77.48,0,0,0,4.84-7.9c2.8-5.15,5.27-9.8,7.34-13.72a31.46,31.46,0,0,1,3.1-5.05c1-1.41,2-2.59,2.74-3.57C169.58,288.8,170.32,287.64,170.32,287.64Z"/><path class="cls-37" d="M166.58,286.94l.43.15a7.44,7.44,0,0,1,1.09.42,13.54,13.54,0,0,1,3.08,1.95,13.37,13.37,0,0,1,2.46,2.69,9,9,0,0,1,.61,1l.22.4v-.45a5.06,5.06,0,0,0-.15-1.25,6.63,6.63,0,0,0-2.19-3.54,6.7,6.7,0,0,0-3.87-1.53,5.51,5.51,0,0,0-1.25.07Z"/><path class="cls-17" d="M108.08,305.72c3.69.3,8.93-1,11.42-3.74a15.45,15.45,0,0,0,1.49,1.21c4.57,3.29,10.77,4.05,16.35,2.92,0,0-2.66,9.89-3.91,14.6,0,0-12.1,4.34-20.37.28A94,94,0,0,1,108.08,305.72Z"/><path class="cls-38" d="M134.27,317.51c0-.26-.07-.51-.12-.77-.68-3.37-3-6.64-6.33-7.41a23.12,23.12,0,0,0-5.13-.1,6,6,0,0,1-4.71-1.67,11.68,11.68,0,0,1-9.12,1.35c-.28-1.06-.55-2.13-.77-3.19,3.69.31,8.92-1,11.41-3.74a15.45,15.45,0,0,0,1.49,1.21c4.57,3.29,10.77,4.05,16.35,2.92C137.34,306.11,135.6,312.54,134.27,317.51Z"/><path class="cls-39" d="M121.1,321.46s-.06,0,0,.1a2,2,0,0,0,.11.24l.1.18c0,.06.1.18,0,.22h0c0-.23-.14-2.67-.55-6.42-.2-1.87-.43-4.07-.55-6.49a37.32,37.32,0,0,1,.32-7.75,12.18,12.18,0,1,0-1.48-.23h0v.12l0,.14,0,.26-.07.53c-.05.36-.06.71-.1,1.06-.06.7-.07,1.39-.08,2.07a37.05,37.05,0,0,0,.2,3.89c.25,2.47.65,4.67,1,6.53.76,3.7,1.29,6.07,1.36,6.29v0h0c.11-.07,0-.19,0-.25l-.1-.18a.89.89,0,0,1-.11-.23c0-.12,0-.1,0-.1s-.06,0,0,.1a.92.92,0,0,0,.11.24l.09.18c0,.06.11.18,0,.22h0c0-.23-.15-2.67-.56-6.42-.2-1.87-.43-4.07-.55-6.49-.05-1.21-.1-2.48-.05-3.78,0-.64.05-1.3.12-2,0-.33,0-.66.11-1l.07-.5,0-.26,0-.12v-.1h0l-1.48-.25a31,31,0,0,0-.13,8.08c.25,2.47.65,4.67,1,6.53.76,3.7,1.28,6.07,1.35,6.29v0h0c.12-.07,0-.19,0-.25l-.1-.18a.89.89,0,0,1-.11-.23C121,321.44,121.11,321.47,121.1,321.46Z"/><path class="cls-40" d="M137.34,306.11s-2.66,9.89-3.91,14.6c0,0-12.1,4.34-20.37.28a94,94,0,0,1-5-15.27"/><path class="cls-37" d="M120.69,277.72s-.16.39-.46,1.09a31.59,31.59,0,0,0-1.09,3.07,35.76,35.76,0,0,0-1.49,10.66,34.93,34.93,0,0,0,1.52,9.8l.82-.16c-.76-3.21-1.31-5.1-1.31-5.1s.12,2,.49,5.24l.82-.17a64.81,64.81,0,0,1-.85-9.63,63.06,63.06,0,0,1,.73-10.47c.22-1.34.42-2.42.58-3.17S120.69,277.72,120.69,277.72Z"/><path class="cls-37" d="M94.27,292.72l.27.87c.19.56.46,1.4.92,2.45a21.51,21.51,0,0,0,2,3.64,15.91,15.91,0,0,0,3.88,4,14.75,14.75,0,0,0,6.29,2.51,15.37,15.37,0,0,0,7.78-.69,11.81,11.81,0,0,0,3.73-2.19l.39-.35s0,0,0,0l0,0,.21.19a16.1,16.1,0,0,0,1.84,1.31,19.77,19.77,0,0,0,8.86,2.78,25.24,25.24,0,0,0,9.19-1,38.75,38.75,0,0,0,7.85-3.36,110.38,110.38,0,0,0,11.84-8c3.25-2.42,5.94-4.28,7.87-5.47s3-1.76,3-1.76-1.16.49-3.17,1.56a93.93,93.93,0,0,0-8.18,5.06,130.74,130.74,0,0,1-12,7.53c-4.67,2.42-10.31,4.49-16.33,4a19.07,19.07,0,0,1-8.23-2.51,17.25,17.25,0,0,1-1.71-1.18l-.56-.48-.39-.33-.2-.17s-.06-.07-.09-.06l-.09.08c-.42.44-1,1-1.12,1.14a10.89,10.89,0,0,1-3.28,2,14.67,14.67,0,0,1-7.19.86,14.29,14.29,0,0,1-6-2.12,15.9,15.9,0,0,1-3.92-3.63,22.91,22.91,0,0,1-2.18-3.46c-.52-1-.84-1.83-1.07-2.38Z"/><path class="cls-41" d="M113.5,249.12a54.42,54.42,0,0,1-3.53,18,42.48,42.48,0,0,1-3.23,6.73c-.18.29-3.71,6.17-2.9,6.09,4.82-.44,9.07-3.28,13.75-4.54a21.51,21.51,0,0,1,13.22.7c1.63.63,3.82,1.32,4.86-.09.68-.93.37-2.22,0-3.33a91.83,91.83,0,0,1-3.37-18.16c-.56-6.64-.28-16.7-6.32-21.27a8,8,0,0,0-8.3-.51C111,236.23,113.71,243,113.5,249.12Z"/><path class="cls-42" d="M118.71,288.44a68.13,68.13,0,0,1,11.12-7.23c2.54-1.21,5.2-2.22,7.26-4.13a22.79,22.79,0,0,0-34,1.34c3.7,5,10,7.31,15.67,10"/><path class="cls-43" d="M124.62,278.1a3.55,3.55,0,0,0,.69.4,3.81,3.81,0,0,0,1.76.34,3.87,3.87,0,0,0,1.7-.56,3.44,3.44,0,0,0,.64-.49,5.9,5.9,0,0,0-.75-.25,5.33,5.33,0,0,0-1.69-.2,5.18,5.18,0,0,0-1.64.41A5.88,5.88,0,0,0,124.62,278.1Z"/><path class="cls-44" d="M137.1,277.08c-2.06,1.91-4.73,2.92-7.28,4.13a69.6,69.6,0,0,0-11.11,7.23c-5.63-2.7-12-5-15.68-10l.24-.28c2.07,1.55,6.71,3.25,13.53,4.25,4.12.6,15.72-4,20.11-5.49Z"/><path class="cls-6" d="M113.31,241.73s0,.55,0,1.55,0,2.42-.14,4.18A75.66,75.66,0,0,1,111.09,261a50.6,50.6,0,0,1-4.89,12.7c-.21.38-.42.74-.61,1.09l-.62.93a15.45,15.45,0,0,1-1,1.48l-.92,1.24,1.09-1.08a16.13,16.13,0,0,0,1.22-1.35l.74-.88.74-1a37.35,37.35,0,0,0,5.71-12.74,48.45,48.45,0,0,0,1.36-13.88c-.09-1.78-.22-3.21-.37-4.2Z"/><path class="cls-17" d="M150,243.86c2.1,13.4,12.39,20.84,24.5,19s21.46-12.32,19.36-25.72-13.62-22.75-25.73-20.89S147.87,230.46,150,243.86Z"/><ellipse class="cls-45" cx="167.3" cy="245.01" rx="16.63" ry="18.41" transform="translate(-38.71 31.51) rotate(-9.65)"/><ellipse class="cls-46" cx="166.68" cy="245.96" rx="10.42" ry="11.53" transform="translate(-38.87 31.42) rotate(-9.65)"/><path class="cls-17" d="M154.83,240.49a2.93,2.93,0,1,0,2.38-3.63A3.1,3.1,0,0,0,154.83,240.49Z"/><path class="cls-47" d="M149.78,245l0,.57c0,.37,0,.93.14,1.63a35,35,0,0,0,1.19,5.94,33.36,33.36,0,0,0,3.67,8.24,24.56,24.56,0,0,0,7.79,8,19.06,19.06,0,0,0,10.81,2.77,24.41,24.41,0,0,0,8.77-2.24c1.19-.5,2.18-1.11,3.07-1.58s1.61-1,2.19-1.41l1.8-1.29-1.91,1.1c-.62.36-1.41.73-2.29,1.19s-1.94.92-3.13,1.32a25.53,25.53,0,0,1-8.54,1.69,18.87,18.87,0,0,1-10-2.79,25.4,25.4,0,0,1-7.53-7.38,36.92,36.92,0,0,1-4-7.81,40.05,40.05,0,0,1-1.66-5.74c-.16-.7-.23-1.24-.3-1.61Z"/><path class="cls-48" d="M176.91,271.07c-12.17,1.54-25.78-7.9-26.93-27.2,2.08,13.4,12.37,20.83,24.49,19s21.46-12.32,19.36-25.71C197.46,256.08,190.17,269.36,176.91,271.07Z"/><path class="cls-47" d="M149.78,245l0,.57c0,.37,0,.93.14,1.63a35,35,0,0,0,1.19,5.94,33.36,33.36,0,0,0,3.67,8.24,24.56,24.56,0,0,0,7.79,8,19.06,19.06,0,0,0,10.81,2.77,24.41,24.41,0,0,0,8.77-2.24c1.19-.5,2.18-1.11,3.07-1.58s1.61-1,2.19-1.41l1.8-1.29-1.91,1.1c-.62.36-1.41.73-2.29,1.19s-1.94.92-3.13,1.32a25.53,25.53,0,0,1-8.54,1.69,18.87,18.87,0,0,1-10-2.79,25.4,25.4,0,0,1-7.53-7.38,36.92,36.92,0,0,1-4-7.81,40.05,40.05,0,0,1-1.66-5.74c-.16-.7-.23-1.24-.3-1.61Z"/><path class="cls-49" d="M150,243.86c2.1,13.4,12.39,20.84,24.5,19s21.46-12.32,19.36-25.72-13.62-22.75-25.73-20.89S147.87,230.46,150,243.86Z"/><path class="cls-48" d="M193.83,237.13c-7.85-12.38-34.89-17-43.85,6.74-4-14,5.57-28.16,17.68-30S192.75,221.36,193.83,237.13Z"/><path class="cls-47" d="M171.64,213.63l-.42-.06c-.27,0-.67-.11-1.19-.12a15.4,15.4,0,0,0-4.42.38,20.21,20.21,0,0,0-6.11,2.55,20.69,20.69,0,0,0-5.92,5.57A25.57,25.57,0,0,0,149,235.76a24.19,24.19,0,0,0,.24,4.42c.17,1,.3,1.59.3,1.59s-.07-.58-.12-1.61a25.31,25.31,0,0,1,.13-4.36,28.32,28.32,0,0,1,5-13.22,22.22,22.22,0,0,1,5.54-5.43,21.49,21.49,0,0,1,5.74-2.79,16.32,16.32,0,0,1,4.28-.74,11.56,11.56,0,0,1,1.19,0Z"/><path class="cls-50" d="M150,243.86,151,242a31.88,31.88,0,0,1,3.44-4.63,26.23,26.23,0,0,1,6.46-5.16A27.78,27.78,0,0,1,170.3,229a29.11,29.11,0,0,1,9.93.15,24.34,24.34,0,0,1,7.72,2.83,18.9,18.9,0,0,1,4.47,3.55,13,13,0,0,1,1.05,1.2l.36.43-.22-.51a12.5,12.5,0,0,0-.72-1.47,16.64,16.64,0,0,0-3.85-4.7,21.93,21.93,0,0,0-8-4.38,25.56,25.56,0,0,0-11.27-.78,24.68,24.68,0,0,0-10.48,4.28,23.36,23.36,0,0,0-6.25,6.67,25.51,25.51,0,0,0-2.48,5.51C150.14,243.11,150,243.86,150,243.86Z"/><path class="cls-17" d="M66.09,248.27c1.16,12.79,7.59,20.28,16,19.54s15.52-9.42,14.36-22.21S87.53,223,79.15,223.77,64.93,235.47,66.09,248.27Z"/><path class="cls-45" d="M65.64,249.85c1.06,9.58,7,16.79,13.26,16.12s10.5-9,9.44-18.55-7-16.79-13.25-16.12S64.59,240.28,65.64,249.85Z"/><path class="cls-46" d="M69.35,250c.66,6,4.37,10.52,8.3,10.1s6.57-5.62,5.91-11.62-4.37-10.51-8.3-10.09S68.69,244,69.35,250Z"/><path class="cls-17" d="M68.55,243.62c.19,1.68,1.23,2.94,2.32,2.82s1.84-1.57,1.66-3.25-1.23-2.94-2.32-2.82S68.37,241.94,68.55,243.62Z"/><path class="cls-48" d="M83.68,274.8c-10.85.06-17.22-11.85-17.59-26.53,1.16,12.78,7.59,20.28,16,19.55s15.52-9.43,14.37-22.23C97.58,258.39,95.53,274.75,83.68,274.8Z"/><path class="cls-47" d="M96.61,244l.09,1.77c0,1.14.1,2.79.07,4.82a58.27,58.27,0,0,1-.49,7.08,30.83,30.83,0,0,1-2.19,8.25,15.1,15.1,0,0,1-5.25,6.39,11.29,11.29,0,0,1-6.46,1.95,14.47,14.47,0,0,1-4.63-.94l-1.63-.71,1.53.92a14.18,14.18,0,0,0,4.68,1.46,11.63,11.63,0,0,0,7.16-1.65,15.23,15.23,0,0,0,5.92-6.83,27.49,27.49,0,0,0,2.08-8.7,45.94,45.94,0,0,0,0-7.24c-.16-2.05-.39-3.69-.58-4.82S96.61,244,96.61,244Z"/><path class="cls-49" d="M66.09,248.27c1.16,12.79,7.59,20.28,16,19.54s15.52-9.42,14.36-22.21S87.53,223,79.15,223.77,64.93,235.47,66.09,248.27Z"/><path class="cls-47" d="M66.09,248.27a6.72,6.72,0,0,1-1.1.62,9,9,0,0,1-2.63.76,14.28,14.28,0,0,1-2.8.08c-.39,0-.7-.06-.93-.07h-.36l.28.22a4.59,4.59,0,0,0,.8.56,5.21,5.21,0,0,0,3.21.67,4.5,4.5,0,0,0,2.89-1.64A3.23,3.23,0,0,0,66.09,248.27Z"/><path class="cls-48" d="M96.43,245.59c-8.86-18.24-28.27-12.23-30.34,2.68-2.38-14.9,4.58-24.85,13-25.59S97.75,231,96.43,245.59Z"/><path class="cls-47" d="M77,223.06l.35-.06c.23,0,.56-.11,1-.13A13.25,13.25,0,0,1,82,223a15.09,15.09,0,0,1,5,1.91,16.45,16.45,0,0,1,4.82,4.4c2.75,3.8,3.69,8.16,4.32,11.2.31,1.54.52,2.81.66,3.68l.22,1.35,0-1.37c0-.88-.11-2.16-.28-3.74a35.14,35.14,0,0,0-1-5.51,19.78,19.78,0,0,0-3-6.26,15.61,15.61,0,0,0-5.25-4.56,14.13,14.13,0,0,0-5.41-1.64,12.11,12.11,0,0,0-3.77.24,7.38,7.38,0,0,0-1,.26Z"/><path class="cls-50" d="M96.42,245.6l-.48-1.67c-.17-.54-.44-1.17-.74-1.92a19.21,19.21,0,0,0-1.31-2.43,16.58,16.58,0,0,0-5.18-5.26,15.32,15.32,0,0,0-4.16-1.78,14.44,14.44,0,0,0-4.89-.4,15.24,15.24,0,0,0-8.57,3.54,14.65,14.65,0,0,0-4.34,6,12.74,12.74,0,0,0-.82,4.81,9,9,0,0,0,.1,1.29l.06.45.1-.44c.09-.28.13-.71.32-1.22a14.3,14.3,0,0,1,1.9-4.05A15.32,15.32,0,0,1,73,238.21a15.59,15.59,0,0,1,7-2.37,14.61,14.61,0,0,1,7.25,1.24,18.68,18.68,0,0,1,5.22,3.66c.7.64,1.24,1.32,1.76,1.89s.91,1.12,1.22,1.56Z"/><path class="cls-47" d="M59.4,243.49a4,4,0,0,0,.39,1.12,5.08,5.08,0,0,0,2,2.07,5.22,5.22,0,0,0,2.76.69,3.9,3.9,0,0,0,1.17-.2s-.41-.2-1-.52-1.36-.76-2.18-1.23-1.58-.92-2.14-1.3Z"/><path class="cls-51" d="M148.09,194.87l-.28.62a9.47,9.47,0,0,0-.59,1.82,13.75,13.75,0,0,0,.13,6.29,13.36,13.36,0,0,0,2.88,5.6,8.27,8.27,0,0,0,1.45,1.26l.6.34-.45-.52a10.78,10.78,0,0,1-1-1.51,23.93,23.93,0,0,1-2-5.53,25.83,25.83,0,0,1-.82-5.85,17.15,17.15,0,0,1,.08-1.84Z"/><path class="cls-51" d="M152.28,210.8c9.93-4.31,23.13-6.48,34-1.34-8.28-14.75-23.59-13.06-34.25-9C151.66,202.39,150.93,207,152.28,210.8Z"/><path class="cls-51" d="M150.31,197.06a14.65,14.65,0,0,0-.53,2A14.85,14.85,0,0,0,151.2,209a15,15,0,0,0,1.08,1.8l-.39-2c-.24-1.25-.54-2.94-.81-4.8s-.45-3.56-.57-4.83Z"/><path class="cls-51" d="M97.91,199.92s.09.24.26.66a17.57,17.57,0,0,1,.64,1.79,27.4,27.4,0,0,1,1,6,29.2,29.2,0,0,1-.26,6.11,12.75,12.75,0,0,1-.43,1.84l-.26.66.46-.55a9.46,9.46,0,0,0,.93-1.74,15.09,15.09,0,0,0,1-6.4,14.7,14.7,0,0,0-1.75-6.25,12.26,12.26,0,0,0-1.12-1.62Z"/><path class="cls-51" d="M98.83,217c-6-1.73-11.91-3.74-17.31-3.19-3.84.38-10.33,3.75-10.33,3.75,1.81-4.67,3.71-7.45,7.89-10.41,2.4-1.69,10.64-2,16-.73C96.16,208.37,98.56,213,98.83,217Z"/><path class="cls-51" d="M95.31,202.76s.2.83.55,2.12.8,3.05,1.31,5,.91,3.7,1.19,5l.47,2.14a15.81,15.81,0,0,0,.26-2.2,17.66,17.66,0,0,0-.5-5.31,19.2,19.2,0,0,0-2.06-4.91A20.24,20.24,0,0,0,95.31,202.76Z"/><path class="cls-47" d="M110.92,211.5l.84.6c.27.2.63.4,1,.64a12,12,0,0,0,1.44.73,22.58,22.58,0,0,0,18.29,0,19.39,19.39,0,0,0,2.5-1.34l.86-.56L135,212a23.64,23.64,0,0,1-2.59,1.05,28.06,28.06,0,0,1-9,1.43,27.13,27.13,0,0,1-9-1.44,14,14,0,0,1-1.48-.57c-.43-.19-.81-.34-1.1-.5Z"/><path class="cls-47" d="M108.37,217.44l.24.24a9.81,9.81,0,0,0,.71.69,13.5,13.5,0,0,0,3,2,22.83,22.83,0,0,0,11.85,1.92A28.89,28.89,0,0,0,135.74,219a13.75,13.75,0,0,0,2.94-2.17,7.4,7.4,0,0,0,.65-.75l.21-.28-.24.25a7.48,7.48,0,0,1-.72.67,14.43,14.43,0,0,1-3.05,1.87,34.08,34.08,0,0,1-11.4,2.86A25.56,25.56,0,0,1,112.55,220a14.84,14.84,0,0,1-3.14-1.72c-.35-.24-.59-.47-.77-.61Z"/><path class="cls-47" d="M193,234.57l.55.05a9,9,0,0,0,1.52,0,9.45,9.45,0,0,0,4.71-1.8,10.38,10.38,0,0,0,3.16-3.92,13.28,13.28,0,0,0,.53-1.42l.14-.53-.35.43c-.21.28-.54.66-.94,1.12a22,22,0,0,1-3.41,3.14,17.6,17.6,0,0,1-4,2.27c-.56.24-1,.4-1.37.51Z"/><path class="cls-47" d="M193.5,236.23l.39.36a7.42,7.42,0,0,0,1.15.88,7.84,7.84,0,0,0,4.67,1.32,9,9,0,0,0,4.56-1.6,11.55,11.55,0,0,0,1.14-.89l.39-.35-1.84.58a18.74,18.74,0,0,1-4.32.8,13.57,13.57,0,0,1-4.3-.52c-.56-.16-1-.3-1.34-.41Z"/><path class="cls-51" d="M153.85,168.92l-1-.73A27.55,27.55,0,0,0,150,166.4,31.51,31.51,0,0,0,139.49,163a48.11,48.11,0,0,0-11.05-.36c-2.81.21-4.54.48-4.54.48l4.54.37c2.79.22,6.63.51,10.78,1.17a53,53,0,0,1,10.46,2.55c1.3.48,2.34.93,3.06,1.25Z"/><path class="cls-52" d="M155.7,174.41l0,.17c.94,4.91-1.89,8.7-4.22,12.92a51.36,51.36,0,0,1-7.4,9.66,25.38,25.38,0,0,0,1.17-5.54c-3.26,6.16-4.47,11.53-11.16,14.89,2-2.14,2.67-5.2,3.26-8.22-10.67,23.14-47.62,14.79-49.83,13.19a17.07,17.07,0,0,0,6.09-.52A25.68,25.68,0,0,1,84,209.72a15.46,15.46,0,0,0,12.29-1.84c7.08-4.82,6.36-15.17,9.76-22.48,2.69-5.75,7.28-9.92,14.73-11.71-8.13.06-14.94,3.09-18.44,8.22,3.59-13.84,26.12-17.75,32.86-15.95a27.91,27.91,0,0,0-10.28-2.91,81.18,81.18,0,0,1,14.42.72,37,37,0,0,1,14.57,5.15l.07,0a4.32,4.32,0,0,1,.19.45l.1-.07c1.56-2.92,10.18-7.52,17.93-2.47v.06c-2.76,0-11.09-.56-13.14,5.45,7.53.37,12.93,9.88,13.46,12.91l0,.13C168.48,179.51,162.35,174.83,155.7,174.41Z"/><path class="cls-53" d="M144.09,197.16a37,37,0,0,0,2.87-2.58,31.14,31.14,0,0,0,5.68-7.42,42.36,42.36,0,0,0,2.37-4.55,13.94,13.94,0,0,0,1.13-4.15,10.06,10.06,0,0,0-.15-2.87c-.16-.66-.27-1-.27-1v1a11.74,11.74,0,0,1-.42,2.7,17,17,0,0,1-1.58,3.68c-.72,1.33-1.64,2.76-2.55,4.34a72.43,72.43,0,0,1-4.86,7.7Z"/><path class="cls-53" d="M137.37,198.29s-.25.8-.7,2.28a13.09,13.09,0,0,1-3,5.5l-2.57,2.53,3.31-1.53a15.82,15.82,0,0,0,3.15-1.83,15.32,15.32,0,0,0,3.2-3.27,28.24,28.24,0,0,0,3-5.55c.74-1.73,1.4-3.29,2-4.59l-.87-.26a31.05,31.05,0,0,1-.42,4.11c-.17,1-.3,1.48-.3,1.48a15,15,0,0,0,.58-1.41,21.88,21.88,0,0,0,1.06-4.09l.36-2.23-1.23,2c-.75,1.21-1.58,2.73-2.45,4.4a41.14,41.14,0,0,1-3,5.18,17.85,17.85,0,0,1-5.54,5l.73,1a9.7,9.7,0,0,0,1.89-3.46,17.94,17.94,0,0,0,.64-2.81C137.32,199.13,137.37,198.29,137.37,198.29Z"/><path class="cls-53" d="M87.53,211.48a4.63,4.63,0,0,0,.5.29,12.89,12.89,0,0,0,1.53.6,44.4,44.4,0,0,0,5.85,1.5,60.6,60.6,0,0,0,8.92,1.07,51.53,51.53,0,0,0,11-.61,35.59,35.59,0,0,0,10.54-3.46,24.71,24.71,0,0,0,9.28-8.3c.53-.87,1-1.63,1.29-2.26l.9-2-1.12,1.89c-.4.58-.9,1.29-1.5,2.08a26.2,26.2,0,0,1-9.48,7.34,40.77,40.77,0,0,1-10.2,3.07,72.64,72.64,0,0,1-19.53.37,54.85,54.85,0,0,1-5.91-.92c-.69-.16-1.22-.3-1.57-.42A3.61,3.61,0,0,1,87.53,211.48Z"/><path class="cls-51" d="M120.73,173.69l-.73.16a21.08,21.08,0,0,0-2.07.54,20.68,20.68,0,0,0-7,3.68,21.4,21.4,0,0,0-6.62,9.78c-1.51,4.22-2.11,9.09-4,13.58A14,14,0,0,1,97.19,206a7.6,7.6,0,0,1-1,.87,7.74,7.74,0,0,1-1.06.74,12.62,12.62,0,0,1-2.3,1.08,16.54,16.54,0,0,1-8.75.47l-.29,1.05a24.9,24.9,0,0,0,9.87.94l-.08-.46a17.25,17.25,0,0,1-4.52.76c-1,0-1.52,0-1.52,0a13.3,13.3,0,0,0,1.52.14,15.77,15.77,0,0,0,4.65-.44l2.24-.54-2.33.08a26.83,26.83,0,0,1-9.5-1.51l-.3,1a16.92,16.92,0,0,0,9.49-.1A13.6,13.6,0,0,0,95.92,209a9.74,9.74,0,0,0,1.23-.82,9.87,9.87,0,0,0,1.17-1,15.35,15.35,0,0,0,3.5-5.12c2.05-4.86,2.51-9.73,3.82-13.82A20.47,20.47,0,0,1,118,174.63c.86-.33,1.53-.57,2-.71Z"/><path class="cls-53" d="M102.29,181.92l.59-.58a8.08,8.08,0,0,1,.71-.65,10.9,10.9,0,0,1,1-.81,25.32,25.32,0,0,1,6.24-3.49,43.64,43.64,0,0,1,6.91-2.11c.92-.18,1.68-.35,2.2-.43l.82-.16-.82-.1a22.09,22.09,0,0,0-2.29-.15,20,20,0,0,0-7.46,1.39,15.51,15.51,0,0,0-6.19,4.45,8.88,8.88,0,0,0-.78,1.06,6.71,6.71,0,0,0-.52.84Z"/><path class="cls-51" d="M135.15,166a9.06,9.06,0,0,0-1.5-.41,22.13,22.13,0,0,0-4.25-.37,37.52,37.52,0,0,0-13.81,2.73,28.58,28.58,0,0,0-6.8,3.89,19.38,19.38,0,0,0-4.36,4.7,15,15,0,0,0-1.79,3.89c-.15.48-.21.87-.27,1.13l-.08.39s.19-.52.59-1.42a17.51,17.51,0,0,1,2.23-3.5,21.76,21.76,0,0,1,4.52-4.05,36.17,36.17,0,0,1,6.6-3.47A52.57,52.57,0,0,1,129.45,166a27,27,0,0,1,4.17-.21A12.91,12.91,0,0,1,135.15,166Z"/><path class="cls-53" d="M123.9,163.07s.68.14,1.68.45,2.36.75,3.88,1.17,2.93.72,4,.94,1.73.34,1.73.34a9.64,9.64,0,0,0-1.4-1.11,13,13,0,0,0-3.85-1.79,11.68,11.68,0,0,0-4.26-.39A6.32,6.32,0,0,0,123.9,163.07Z"/><path class="cls-51" d="M154.12,169.34l-.1-.56a11.11,11.11,0,0,0-.43-1.52,12.13,12.13,0,0,0-2.8-4.38,11.87,11.87,0,0,0-4.41-2.78,9.35,9.35,0,0,0-1.52-.41l-.57-.09.47.34c.3.2.72.52,1.22.9a41,41,0,0,1,3.62,3.23,43.48,43.48,0,0,1,3.25,3.6c.4.5.72.92.93,1.21Z"/><path class="cls-53" d="M154.22,169.27l.55-.56a9.39,9.39,0,0,1,1.68-1.23,17.63,17.63,0,0,1,6.35-2,17.14,17.14,0,0,1,6.65.33,14.29,14.29,0,0,1,2,.71l.72.32-.58-.54a9.7,9.7,0,0,0-1.8-1.27,12,12,0,0,0-7.19-1.22,12.18,12.18,0,0,0-6.63,3,7.61,7.61,0,0,0-1.38,1.74Z"/><path class="cls-51" d="M172.29,166.86a18.24,18.24,0,0,0-2.41-.43,14.2,14.2,0,0,0-6,.5,7.59,7.59,0,0,0-4.67,3.92l-.33,1a4.39,4.39,0,0,0-.11.78l-.06.66.31-.58a4.77,4.77,0,0,1,.35-.65c.17-.23.35-.5.56-.78a9.5,9.5,0,0,1,4.49-2.76,39.23,39.23,0,0,1,5.44-1.26C171.36,167,172.29,166.86,172.29,166.86Z"/><path class="cls-51" d="M172.51,185.36s0-.28-.06-.81a11.33,11.33,0,0,0-.55-2.13,17.79,17.79,0,0,0-3.78-6.2,12.89,12.89,0,0,0-6.28-3.76,8.29,8.29,0,0,0-2.21-.19l-.8,0,.77.21a11.8,11.8,0,0,1,2,.72,19.26,19.26,0,0,1,5.32,4.13,36.9,36.9,0,0,1,4.25,5.41A12.33,12.33,0,0,1,172.51,185.36Z"/><path class="cls-53" d="M154.68,174.12l.81.29c.52.18,1.26.47,2.15.85a46.57,46.57,0,0,1,6.61,3.45,45,45,0,0,1,6,4.45c.72.65,1.29,1.19,1.67,1.59l.61.61-.4-.77a15.62,15.62,0,0,0-1.26-2,20.67,20.67,0,0,0-5.71-5.32,21.12,21.12,0,0,0-7.26-2.83,17.3,17.3,0,0,0-2.34-.3Z"/><path class="cls-51" d="M154.84,173.78l.15.51a11.81,11.81,0,0,1,.3,1.36,32.5,32.5,0,0,1,.38,4.4c.06,1.72.06,3.29,0,4.46s-.19,1.92-.19,1.92l.31-.44a7.39,7.39,0,0,0,.69-1.28,10.9,10.9,0,0,0,.9-4.71,10.12,10.12,0,0,0-1.28-4.65,7.12,7.12,0,0,0-.86-1.19Z"/><path class="cls-51" d="M154.84,173.78l.44.36c.27.22.66.55,1.1,1a26.2,26.2,0,0,1,3,3.58,32.37,32.37,0,0,1,2.48,4c.28.55.5,1,.64,1.33l.23.51,0-.56a8.56,8.56,0,0,0-.1-1.54,10.85,10.85,0,0,0-1.91-4.73,10.08,10.08,0,0,0-3.91-3.29,7.9,7.9,0,0,0-1.46-.53Z"/><path class="cls-54" d="M258.62,15c4.54,10.29,12.09,90.17,4.9,110.43S214,178.37,203.9,203.4c2.68-14.09-3.82-28.08-7-42.08-2.41-10.68-2.86-21.71-3.05-32.67-.53-28.75,1-58.73,14.64-84.05,5.31-9.85,12.32-18.69,19.68-27.13C234.25,10.56,241,3.6,249.66.81,254.83,3.22,256.59,10.47,258.62,15Z"/><path class="cls-31" d="M205.05,195.13s.11-.54.29-1.51.4-2.4.59-4.16a67.09,67.09,0,0,0,0-13.87A70.11,70.11,0,0,0,203.13,162c-.53-1.69-1-3-1.38-4l-.57-1.43.35,1.49c.23,1,.53,2.36.87,4.09.7,3.45,1.48,8.24,2,13.55a134.56,134.56,0,0,1,.75,13.68c0,1.76,0,3.19-.07,4.17S205.05,195.13,205.05,195.13Z"/><path class="cls-31" d="M204.8,196.55s.67-3.7,1.75-9.7,2.73-14.23,4.89-23.24,4.53-17.05,6.46-22.82c1-2.89,1.76-5.22,2.35-6.81l.9-2.5L220,133.89c-.72,1.54-1.7,3.81-2.84,6.64A166.77,166.77,0,0,0,210,163.26a213.4,213.4,0,0,0-4.17,23.48c-.37,3-.62,5.48-.77,7.18S204.8,196.55,204.8,196.55Z"/><path class="cls-31" d="M204.46,198.84l.53-2.4.27-1.28c.14-.46.28-1,.43-1.5.31-1.08.64-2.3,1.14-3.62.23-.66.48-1.35.73-2.07s.6-1.45.92-2.21c.59-1.54,1.43-3.09,2.2-4.77a107.55,107.55,0,0,1,6.14-10.35c2.42-3.53,4.93-6.74,7.31-9.58,1.24-1.38,2.37-2.75,3.52-3.93l1.64-1.74,1.57-1.55c1-1,1.93-1.86,2.76-2.62s1.53-1.41,2.14-1.91l1.86-1.6-2,1.41c-.66.45-1.43,1-2.31,1.74s-1.9,1.48-2.95,2.43l-1.68,1.46-1.76,1.66c-1.23,1.13-2.43,2.46-3.73,3.81a91.44,91.44,0,0,0-7.61,9.57,81.31,81.31,0,0,0-6,10.65c-.72,1.74-1.5,3.35-2,4.95l-.81,2.28c-.21.75-.41,1.47-.61,2.15a38.3,38.3,0,0,0-.88,3.73c-.11.55-.21,1.06-.31,1.54l-.16,1.31Z"/><path class="cls-55" d="M196.94,161.32c3.14,14,9.64,28,7,42.08-27.16-14.3-33-25.6-33-25.6,3.51-3.34,5.33-8.17,5.93-13s.09-9.71-.42-14.52c0,0-12.93-73.16,30.74-121.27,24.25-26.71,36-31.24,42.46-28.22C241,3.6,234.25,10.56,228.21,17.47c-7.36,8.44-14.37,17.28-19.68,27.13-13.66,25.32-15.17,55.3-14.64,84.05C194.08,139.61,194.53,150.64,196.94,161.32Z"/><path class="cls-3" d="M225.36,367.73c15.56,5,27.4,10.39,42.88,16.33,18.59,6.66,30.1-1.87,28.81-12.54-5.54-10.86-71-47.72-76.84-42.68C211.75,339.52,214.87,358.83,225.36,367.73Z"/><path class="cls-29" d="M225.36,367.73c-.07.21,2.61,1.25,6.95,2.94l16.9,6.66c6.6,2.62,12.59,5,17,6.55s7.15,2.43,7.22,2.23-2.54-1.4-6.82-3.25-10.2-4.34-16.8-7-12.66-4.83-17.11-6.26S225.42,367.53,225.36,367.73Z"/><path class="cls-3" d="M255.66,422.91c6.76-9.9,11.48-28.18,13.75-40.44.76-4.09,7.27-13.34,18.81-13.39l8.59,1.86c6.38,19.49-9.42,38.79-28.86,56.87Z"/><path class="cls-6" d="M255.66,422.91s.56-.76,1.52-2.19a59.43,59.43,0,0,0,3.52-6.38,116.87,116.87,0,0,0,7.63-22.74c.55-2.29,1-4.53,1.42-6.7.21-1.06.37-2.24.61-3.09a13.7,13.7,0,0,1,1.22-2.67,21,21,0,0,1,7.34-7.29,19.67,19.67,0,0,1,6.67-2.45,18.13,18.13,0,0,1,2-.25l.68-.08h-.68a16.43,16.43,0,0,0-2,.06,19.06,19.06,0,0,0-7,2,20.89,20.89,0,0,0-8.14,7.29,14.81,14.81,0,0,0-1.45,2.93c-.37,1.18-.49,2.15-.74,3.25-.46,2.14-.93,4.36-1.47,6.62a172.84,172.84,0,0,1-6.78,22.8c-1.13,2.84-2.2,5.06-3,6.58S255.66,422.91,255.66,422.91Z"/><path class="cls-56" d="M276.45,455.94c-6.25,6.25-19.59-.18-24.58-4.79a7.94,7.94,0,0,1-2.2-2.9c-.57-1.54-.4-21.89,8.35-29.73l12.72,4.39c2,6.75-1.76,14-.56,20a4.72,4.72,0,0,0,1.87-1.71,30.77,30.77,0,0,1,1.75-2.63c1.89-2.17,4.5-.51,4.28,1.87,1.54-.11,3.12.74,3.21,2.24C281.52,446.53,279.66,452.88,276.45,455.94Z"/><path class="cls-6" d="M258,418.51l-.66.64-.81.77c-.32.31-.6.73-1,1.17a28.24,28.24,0,0,0-4.37,8.68A56.2,56.2,0,0,0,248.65,444c0,.69-.06,1.38-.05,2.09,0,.36,0,.71,0,1.09l0,.56a4.28,4.28,0,0,0,.12.7,9,9,0,0,0,2.86,3.8,31.77,31.77,0,0,0,7.93,4.93,25.36,25.36,0,0,0,9.1,2.31,13.12,13.12,0,0,0,4.58-.58,9.43,9.43,0,0,0,3.84-2.37,17.3,17.3,0,0,0,3.81-7,18.86,18.86,0,0,0,.88-6.79,2.5,2.5,0,0,0-.72-1.62,3.21,3.21,0,0,0-1.37-.84,3.88,3.88,0,0,0-2.8.17,4.31,4.31,0,0,0-1.68,1.69c-.36.61-.63,1.19-.88,1.7a4.55,4.55,0,0,1-1.54,2,2.32,2.32,0,0,1-.86.24,2.16,2.16,0,0,0,.9-.17A4.51,4.51,0,0,0,274.6,444c.3-.49.61-1,1-1.59a3.74,3.74,0,0,1,1.55-1.37,3.17,3.17,0,0,1,2.27,0,1.93,1.93,0,0,1,1.36,1.75,18.41,18.41,0,0,1-1.18,6.31,16.39,16.39,0,0,1-3.7,6.19,7.8,7.8,0,0,1-3.19,1.85,11.68,11.68,0,0,1-3.95.4,24.88,24.88,0,0,1-8.38-2.23,31.92,31.92,0,0,1-7.48-4.55,7.46,7.46,0,0,1-2.39-2.91c0-.12,0-.16-.06-.34l0-.48c0-.32,0-.67,0-1,0-.67,0-1.34,0-2a61.64,61.64,0,0,1,1.83-14,29.49,29.49,0,0,1,3.66-8.77c.33-.47.58-.91.86-1.24l.73-.83Z"/><path class="cls-6" d="M275.16,447a9.63,9.63,0,0,1-1-.25,5.07,5.07,0,0,1-2.37-1.28,2,2,0,0,1-.2-.3l-.07-.16-.07-.23-.3-.94a12.76,12.76,0,0,1-.32-2.15,25.23,25.23,0,0,1,.32-5.06c.56-3.64,1-7.19.69-9.74a11.81,11.81,0,0,0-.29-1.69,10.18,10.18,0,0,0-.36-1.24l-.4-1,.09,1.08a11.65,11.65,0,0,1,0,1.25c0,.48,0,1-.08,1.64-.16,2.42-1.09,5.63-1.67,9.45s-.11,7.7,1.93,9.84a4,4,0,0,0,1.71.73,7.67,7.67,0,0,0,1.3.13A7.78,7.78,0,0,0,275.16,447Z"/><path class="cls-6" d="M269.63,443.1a1.71,1.71,0,0,0,.56,0,3.33,3.33,0,0,0,1.45-.59,7,7,0,0,0,1.62-1.6,18.2,18.2,0,0,1,1.46-1.81,1.71,1.71,0,0,1,1.4-.6,1.91,1.91,0,0,1,1.29.76A3.25,3.25,0,0,1,278,441a2.78,2.78,0,0,0,.3-2.1,2.89,2.89,0,0,0-1.72-2,3.07,3.07,0,0,0-3.28.78,7.26,7.26,0,0,0-1.51,2.37,12.65,12.65,0,0,1-.88,1.77A3.28,3.28,0,0,1,269.63,443.1Z"/></g></g></g></svg>