<svg xmlns="http://www.w3.org/2000/svg" xmlns:xlink="http://www.w3.org/1999/xlink" viewBox="0 0 374.71 510.58"><defs><style>.cls-1{isolation:isolate;}.cls-2{fill:#c8c1bf;}.cls-3{fill:#7bb4b1;}.cls-4{fill:#f5f5f5;}.cls-5{fill:#e1e0df;}.cls-6{fill:#b1b1b1;}.cls-7{fill:#a06961;}.cls-8{fill:#874a45;}.cls-9{fill:#571d1f;}.cls-10{fill:#6b393a;}.cls-11{fill:#e4dfdd;}.cls-12{fill:url(#linear-gradient);}.cls-13{fill:#896a52;}.cls-14{fill:#573c29;}.cls-15{fill:url(#linear-gradient-2);}.cls-16,.cls-35{fill:none;stroke-miterlimit:10;}.cls-16{stroke:#563b28;stroke-width:0.74px;}.cls-17{opacity:0.66;}.cls-17,.cls-29,.cls-41,.cls-43,.cls-50,.cls-52,.cls-54,.cls-56{mix-blend-mode:multiply;}.cls-18{fill:url(#linear-gradient-3);}.cls-19{fill:#83ccc7;}.cls-20{fill:#2f6c67;}.cls-21{fill:#fff;}.cls-22{fill:url(#linear-gradient-4);}.cls-23{fill:#bbb;}.cls-24{fill:url(#linear-gradient-5);}.cls-25{fill:url(#linear-gradient-6);}.cls-26{fill:url(#linear-gradient-7);}.cls-27{fill:#dcdbda;}.cls-28{fill:url(#linear-gradient-8);}.cls-30{fill:url(#linear-gradient-9);}.cls-31{fill:url(#linear-gradient-10);}.cls-32{fill:#010101;}.cls-33{fill:#eeeaef;}.cls-34{fill:url(#linear-gradient-11);}.cls-35{stroke:#000;stroke-width:1.2px;}.cls-36{fill:#261211;}.cls-37{fill:#f4f4f5;}.cls-38{fill:url(#linear-gradient-12);}.cls-39{fill:url(#linear-gradient-13);}.cls-40{fill:url(#linear-gradient-14);}.cls-41{fill:url(#linear-gradient-15);}.cls-42{fill:url(#linear-gradient-16);}.cls-43{fill:url(#linear-gradient-17);}.cls-44{fill:url(#linear-gradient-18);}.cls-45{fill:#31211f;}.cls-46{fill:#202020;}.cls-47{fill:#7e4944;}.cls-48{fill:#b46e6f;}.cls-49{fill:url(#linear-gradient-19);}.cls-50{fill:url(#linear-gradient-20);}.cls-51{fill:url(#linear-gradient-21);}.cls-52{fill:url(#linear-gradient-22);}.cls-53{fill:url(#linear-gradient-23);}.cls-54{fill:url(#linear-gradient-24);}.cls-55{fill:url(#linear-gradient-25);}.cls-56{fill:url(#linear-gradient-26);}.cls-57{fill:#e1d9d7;}.cls-58{fill:url(#linear-gradient-27);}.cls-59{fill:url(#linear-gradient-28);}</style><linearGradient id="linear-gradient" x1="-2914.03" y1="517.74" x2="-2919.93" y2="433.81" gradientTransform="translate(3080.47)" gradientUnits="userSpaceOnUse"><stop offset="0" stop-color="#f5f5f5"/><stop offset="1" stop-color="#e1e0df"/></linearGradient><linearGradient id="linear-gradient-2" x1="-2846.99" y1="509.45" x2="-2865.32" y2="430.5" xlink:href="#linear-gradient"/><linearGradient id="linear-gradient-3" x1="6234.8" y1="390.84" x2="6236.49" y2="351.28" gradientTransform="matrix(-1, 0, 0, 1, 6419.68, 0)" gradientUnits="userSpaceOnUse"><stop offset="0" stop-opacity="0"/><stop offset="1"/></linearGradient><linearGradient id="linear-gradient-4" x1="6205.16" y1="209.67" x2="6271.18" y2="209.67" gradientTransform="matrix(-1, 0, 0, 1, 6419.68, 0)" gradientUnits="userSpaceOnUse"><stop offset="0" stop-color="#e4dfdd"/><stop offset="1" stop-color="#b9aca8"/></linearGradient><linearGradient id="linear-gradient-5" x1="6118.81" y1="554.35" x2="6148.38" y2="554.35" gradientTransform="matrix(-1, -0.05, -0.05, 1, 6395.82, 83.71)" xlink:href="#linear-gradient-4"/><linearGradient id="linear-gradient-6" x1="-2811.98" y1="333.63" x2="-2857.99" y2="334.41" gradientTransform="translate(3080.47)" gradientUnits="userSpaceOnUse"><stop offset="0" stop-color="#f5f5f5"/><stop offset="1" stop-color="#e1e0df"/></linearGradient><linearGradient id="linear-gradient-7" x1="6353.98" y1="163.96" x2="6359.88" y2="108.91" gradientTransform="matrix(-0.99, 0.14, 0.14, 0.99, 6333.03, -865.9)" gradientUnits="userSpaceOnUse"><stop offset="0" stop-color="#ad938d"/><stop offset="0.99" stop-color="#b57d6e"/></linearGradient><linearGradient id="linear-gradient-8" x1="-2967.6" y1="91.47" x2="-3060.98" y2="132.92" gradientTransform="translate(3024.99 -407.28) rotate(-7.9)" gradientUnits="userSpaceOnUse"><stop offset="0" stop-color="#f5f5f5"/><stop offset="0.76" stop-color="#ebeae9"/></linearGradient><linearGradient id="linear-gradient-9" x1="-2865.19" y1="126.05" x2="-2863.69" y2="158.78" gradientTransform="translate(3024.99 -407.28) rotate(-7.9)" gradientUnits="userSpaceOnUse"><stop offset="0.02" stop-color="#fff"/><stop offset="1" stop-color="#ebeae9"/></linearGradient><linearGradient id="linear-gradient-10" x1="6246.93" y1="125.05" x2="6215.11" y2="231.45" gradientTransform="matrix(-0.99, 0.14, 0.14, 0.99, 6333.58, -869.99)" gradientUnits="userSpaceOnUse"><stop offset="0" stop-color="#f5f5f5"/><stop offset="1" stop-color="#ebeae9"/></linearGradient><linearGradient id="linear-gradient-11" x1="6226.1" y1="119.31" x2="6234.43" y2="167.39" gradientTransform="matrix(-0.96, 0.29, 0.29, 0.96, 6133.24, -1798.52)" gradientUnits="userSpaceOnUse"><stop offset="0.32" stop-color="#6b3723"/><stop offset="1" stop-color="#e7a37c"/></linearGradient><linearGradient id="linear-gradient-12" x1="6330.49" y1="103.32" x2="6337.59" y2="144.31" gradientTransform="matrix(-0.96, 0.27, 0.27, 0.96, 6140.91, -1727.43)" xlink:href="#linear-gradient-11"/><linearGradient id="linear-gradient-13" x1="-2984.29" y1="115.53" x2="-2982.79" y2="144.06" xlink:href="#linear-gradient-9"/><linearGradient id="linear-gradient-14" x1="-2980.98" y1="50.44" x2="-2976.8" y2="82.05" gradientTransform="translate(3024.99 -407.28) rotate(-7.9)" gradientUnits="userSpaceOnUse"><stop offset="0" stop-color="#f5f5f5"/><stop offset="1" stop-color="#f4f4f4"/></linearGradient><linearGradient id="linear-gradient-15" x1="6360.15" y1="-23.57" x2="6340.49" y2="4.93" gradientTransform="matrix(-0.98, 0.15, 0.15, 0.99, 6332.4, -891.93)" xlink:href="#linear-gradient-10"/><linearGradient id="linear-gradient-16" x1="-2786.07" y1="61.61" x2="-2914.06" y2="48.3" xlink:href="#linear-gradient-14"/><linearGradient id="linear-gradient-17" x1="-2875.49" y1="4.24" x2="-2876.17" y2="33.59" gradientTransform="translate(3024.99 -407.28) rotate(-7.9)" xlink:href="#linear-gradient-10"/><linearGradient id="linear-gradient-18" x1="-2944.76" y1="138.61" x2="-2931.38" y2="140.95" gradientTransform="translate(3024.99 -407.28) rotate(-7.9)" gradientUnits="userSpaceOnUse"><stop offset="0.03" stop-color="#fff"/><stop offset="0.63" stop-color="#fcfcfc"/><stop offset="0.99" stop-color="#f5f5f5"/></linearGradient><linearGradient id="linear-gradient-19" x1="3775.8" y1="-7391.21" x2="3777.97" y2="-7374.82" gradientTransform="matrix(-0.72, -0.62, 0.48, -0.5, 6401.4, -1119.72)" xlink:href="#linear-gradient-14"/><linearGradient id="linear-gradient-20" x1="-552.26" y1="-7354.56" x2="-564.03" y2="-7337.49" gradientTransform="matrix(0.72, 0.61, 0.47, -0.51, 3991.54, -3178.07)" xlink:href="#linear-gradient-10"/><linearGradient id="linear-gradient-21" x1="3886.3" y1="-7380.55" x2="3813.2" y2="-7388.15" gradientTransform="matrix(-0.72, -0.62, 0.48, -0.5, 6401.4, -1119.72)" xlink:href="#linear-gradient-14"/><linearGradient id="linear-gradient-22" x1="3835.35" y1="-7413.73" x2="3834.94" y2="-7396.46" gradientTransform="matrix(-0.72, -0.62, 0.48, -0.5, 6401.4, -1119.72)" xlink:href="#linear-gradient-10"/><linearGradient id="linear-gradient-23" x1="-4568.44" y1="4998.96" x2="-4564.18" y2="5031.24" gradientTransform="matrix(0.48, -0.64, -0.41, -0.49, 4431.15, -246.9)" xlink:href="#linear-gradient-14"/><linearGradient id="linear-gradient-24" x1="8035.09" y1="4902.61" x2="8018.29" y2="4926.97" gradientTransform="matrix(-0.49, 0.63, -0.4, -0.5, 6055.15, -2377.6)" xlink:href="#linear-gradient-10"/><linearGradient id="linear-gradient-25" x1="-4381.52" y1="4993.57" x2="-4500.86" y2="4981.15" gradientTransform="matrix(0.48, -0.64, -0.41, -0.49, 4431.15, -246.9)" xlink:href="#linear-gradient-14"/><linearGradient id="linear-gradient-26" x1="-4464.76" y1="4929.9" x2="-4465.44" y2="4959.24" gradientTransform="matrix(0.48, -0.64, -0.41, -0.49, 4431.15, -246.9)" xlink:href="#linear-gradient-10"/><linearGradient id="linear-gradient-27" x1="-2814.28" y1="111.44" x2="-2680.56" y2="130.49" xlink:href="#linear-gradient-8"/><linearGradient id="linear-gradient-28" x1="6096.76" y1="179" x2="6087.79" y2="125.75" xlink:href="#linear-gradient-7"/></defs><title>Asset 253</title><g class="cls-1"><g id="Layer_2" data-name="Layer 2"><g id="Layer_2-2" data-name="Layer 2"><path class="cls-2" d="M130.11,295.2c-1.79,6.74-3.54,13.71-6.64,20-2.49,5.05-6.66,9.91-12.25,10.58a14.94,14.94,0,0,1-4.52-.24c-3.84-.73-7.62-2.58-9.92-5.75-3.19-4.4-1.81-9.52.32-14,2.69-5.7,5.74-11.26,9-16.68a7.73,7.73,0,0,1,1.81-2.31,6.59,6.59,0,0,1,3.74-1.07,21.29,21.29,0,0,1,18.5,9.5"/><path class="cls-3" d="M148.84,240.32c4.73,6.86,6.54,15.39,6.57,23.72S141,310.37,141,310.37,121.45,307,100,293.11c0,0,23.38-45.5,48.89-52.79"/><path class="cls-4" d="M113.16,296.12c5.62,2.31,4.87,6.56,4.32,8A2.79,2.79,0,0,1,115.8,306c5.18,7.67-4.22,15.91-11.33,17.25l3-1.41a14.56,14.56,0,0,1-4.39,4.65,2.78,2.78,0,0,1-1.81.62c-1.12-.15-1.7-1.45-2.71-2a6.13,6.13,0,0,0-3-.21c-1,0-2.26-.32-2.53-1.31s.15-2.37-.79-2.45a2.74,2.74,0,0,1-3.14.8,5.87,5.87,0,0,1-2.62-2.22,15,15,0,0,1-2.68-11.17,10.5,10.5,0,0,1-9.24-1.18c-2.69-1.83-4.59-4.59-6.27-7.37,0,0-7.27-7.81-3.67-15.25a14.86,14.86,0,0,1,15.09-7.39,17.23,17.23,0,0,1,11.51,8,12.14,12.14,0,0,1,13.72,3.84,2.75,2.75,0,0,0,1.14,1.08,3.73,3.73,0,0,0,1.69,0c2.65-.3,4.92,2.24,5.33,4.87s-.54,5.26-1.48,7.76Z"/><path class="cls-5" d="M117.48,304.15A2.79,2.79,0,0,1,115.8,306c5.18,7.67-4.22,15.91-11.33,17.25l3-1.41a14.56,14.56,0,0,1-4.39,4.65,2.78,2.78,0,0,1-1.81.62c-1.12-.15-1.7-1.45-2.71-2a6.13,6.13,0,0,0-3-.21c-1,0-2.26-.32-2.53-1.31s.15-2.37-.79-2.45a2.74,2.74,0,0,1-3.14.8,5.87,5.87,0,0,1-2.62-2.22,15,15,0,0,1-2.68-11.17,10.5,10.5,0,0,1-9.24-1.18c-2.69-1.83-4.59-4.59-6.27-7.37,0,0-7.27-7.81-3.67-15.25a14.86,14.86,0,0,1,15.09-7.39,9.31,9.31,0,0,1,4.64,2,46.67,46.67,0,0,1-11.91,19.76,15.19,15.19,0,0,0,17.49.65,22.75,22.75,0,0,0-2.85,14,4.8,4.8,0,0,0,1,2.76c1.31,1.38,3.75.92,5.07-.45s1.8-3.31,2.23-5.16A8.76,8.76,0,0,0,97,320.27a1.39,1.39,0,0,0,2.32,0,6.8,6.8,0,0,0,1.83-6.41A11.43,11.43,0,0,0,112.75,311c1.69-1.77,2.13-6.45-1.57-5.45a4.88,4.88,0,0,0-2.08,1.34,9.06,9.06,0,0,0,2.59-3.79,26.7,26.7,0,0,0,1.17-4.49,9.1,9.1,0,0,0,.27-2.49c0,.41,2,1.25,2.4,1.55a5.16,5.16,0,0,1,2,2.47A6,6,0,0,1,117.48,304.15Z"/><path class="cls-6" d="M107.46,321.83a11.34,11.34,0,0,1-.82,1.19,14.9,14.9,0,0,1-2.92,2.89,10.45,10.45,0,0,1-1.18.77,2,2,0,0,1-1.42.26c-1-.25-1.51-1.6-2.83-2.11s-2.76.18-4-.31a1.87,1.87,0,0,1-.8-.54,1.5,1.5,0,0,1-.28-.92c0-.37,0-.76-.06-1.18a1.39,1.39,0,0,0-.32-.74,1,1,0,0,0-.35-.21c-.13,0-.28-.07-.36.05-1.24,1.34-3,1-4.23-.14A12.76,12.76,0,0,1,85,316.39a14.79,14.79,0,0,1-1-5.58l0-.74.08-.81.1-.69.05-.34,0-.18,0-.08s0,0-.08,0c-.44.13-.88.27-1.34.39a10.37,10.37,0,0,1-3,.29,9.7,9.7,0,0,1-5.73-2.16,20.64,20.64,0,0,1-4.34-5c-.31-.48-.62-1-.91-1.46a3.79,3.79,0,0,0-.3-.45l-.28-.32-.53-.67a21.5,21.5,0,0,1-1.85-2.92,14.28,14.28,0,0,1-1.8-6.69,9.66,9.66,0,0,1,.7-3.37,5.94,5.94,0,0,1,.33-.77c.14-.24.29-.49.45-.73a12.83,12.83,0,0,1,1.06-1.37,14.14,14.14,0,0,1,5.46-3.93,14.83,14.83,0,0,1,6.45-1,9.91,9.91,0,0,1,3.11.59,17.61,17.61,0,0,1,2.88,1.24,17.09,17.09,0,0,1,4.68,3.8,14.23,14.23,0,0,1,.9,1.15,6.34,6.34,0,0,1,.41.6l.3.48c.07.06.1.23.19.21l.3-.1.83-.3.68-.17a10.44,10.44,0,0,1,1.36-.23,12,12,0,0,1,9.41,3.16,17.48,17.48,0,0,1,1.54,1.76,1.83,1.83,0,0,0,1.1.63,3.67,3.67,0,0,0,1.17-.09,4.1,4.1,0,0,1,3.59,1.13,6.26,6.26,0,0,1,1.78,2.93,8.3,8.3,0,0,1,.2,2.93,19.1,19.1,0,0,1-1,4l-.47,1.37.51-1.35a18.5,18.5,0,0,0,1.08-4,8.63,8.63,0,0,0-.12-3,6.62,6.62,0,0,0-1.79-3.13,4.52,4.52,0,0,0-3.9-1.31,3,3,0,0,1-1,.06,1.29,1.29,0,0,1-.8-.5,17.32,17.32,0,0,0-1.53-1.81,12.57,12.57,0,0,0-9.86-3.52,12,12,0,0,0-1.46.22l-.73.18-.56.18s-.06,0-.07,0l-.09-.14a6.9,6.9,0,0,0-.42-.63c-.28-.43-.6-.83-.92-1.23A18.07,18.07,0,0,0,85,278.84a18.27,18.27,0,0,0-3-1.35,11.4,11.4,0,0,0-3.35-.67,15.89,15.89,0,0,0-6.91,1,15.67,15.67,0,0,0-7,5.67c-.17.26-.34.53-.5.81a8.6,8.6,0,0,0-.39.89A10.75,10.75,0,0,0,63,289,15.17,15.17,0,0,0,65,296.18a21.63,21.63,0,0,0,2,3.07c.18.24.37.48.56.71l.3.35s.11.16.19.28c.3.5.62,1,.94,1.49a21.06,21.06,0,0,0,4.61,5.2,10.61,10.61,0,0,0,6.31,2.31,11.31,11.31,0,0,0,3.24-.36l.15-.05a.76.76,0,0,1,0,.14l0,.7,0,.78a15.38,15.38,0,0,0,2.49,8.4,10.67,10.67,0,0,0,1.77,2.13,4.14,4.14,0,0,0,2.5,1.1,3.25,3.25,0,0,0,1.35-.21,2.34,2.34,0,0,0,.6-.33,1.82,1.82,0,0,0,.25-.2.87.87,0,0,0,.09-.11c.06-.1.2,0,.26.05a.74.74,0,0,1,.12.33c0,.35,0,.74.08,1.13a2,2,0,0,0,.42,1.19,2.23,2.23,0,0,0,1,.66,5.07,5.07,0,0,0,2.17.14,5,5,0,0,1,1.9.08c1.14.37,1.67,1.72,2.87,2a2.19,2.19,0,0,0,1.59-.31,11.12,11.12,0,0,0,1.18-.83,14.48,14.48,0,0,0,2.86-3A11.62,11.62,0,0,0,107.46,321.83Z"/><path class="cls-6" d="M113.16,296.11l.8.44a8.46,8.46,0,0,1,2,1.55,5.3,5.3,0,0,1,1.52,3.42,5.77,5.77,0,0,1-.33,2.29,4.2,4.2,0,0,1-.56,1.07c-.32.32-.26.48-1.5.82l.8,1.49a5,5,0,0,1,.48,1.2c.06.22.15.44.21.67l.09.73a6,6,0,0,1,0,1.53,3.17,3.17,0,0,1-.14.87c-.07.29-.11.58-.2.86a12.05,12.05,0,0,1-.69,1.6l-.4.75c-.15.24-.33.47-.48.7a10.71,10.71,0,0,1-1,1.29,20.37,20.37,0,0,1-7.9,5.42l-1.39.43,1.44-.26a18.07,18.07,0,0,0,3.73-1.43,18.45,18.45,0,0,0,4.81-3.54,10.73,10.73,0,0,0,1.14-1.33c.17-.24.37-.47.53-.73l.47-.81a11.11,11.11,0,0,0,.79-1.75c.11-.31.16-.65.24-1a3.73,3.73,0,0,0,.16-1,6.89,6.89,0,0,0,0-1.76l-.12-.83c-.06-.27-.17-.52-.25-.77a5.32,5.32,0,0,0-.59-1.34l-.16-.28-.11-.18s0,0,0-.05a2.9,2.9,0,0,0,.84-.8,4.67,4.67,0,0,0,.63-1.34,6.38,6.38,0,0,0,.22-2.61,5.69,5.69,0,0,0-2-3.63,8.18,8.18,0,0,0-2.21-1.38Z"/><path class="cls-7" d="M89.1,282.34c-6.35-9.43-17.87-13.15-23.22-11.57,0,0,.59,5.28,3,8.83-6.5,1.36-18.83,6-22.53,11.51a1.3,1.3,0,0,0-.31,1c.09.36.47.57.81.73l6.48,3.08a9.53,9.53,0,0,0-2,5.09,44.21,44.21,0,0,0,23,2.54c5.19-.81,10.48-2.72,13.9-6.71s4.32-10.43.94-14.46"/><path class="cls-8" d="M51.31,301v0a44.24,44.24,0,0,0,23,2.55c5.2-.81,10.48-2.73,13.9-6.71s4.31-10.45.94-14.47a28,28,0,0,0-8.46-8A15.73,15.73,0,0,1,83.89,278c2.5,3.87,3,9.12.71,13.12a14.48,14.48,0,0,1-2.92,3.47c-5.54,5-13.33,6.65-20.77,6.85A67,67,0,0,1,51.31,301Z"/><path class="cls-9" d="M89.1,282.34l-.78-1.09a14.52,14.52,0,0,0-1-1.28,19,19,0,0,0-1.5-1.65,27,27,0,0,0-4.71-3.87A28.62,28.62,0,0,0,73.79,271a20.61,20.61,0,0,0-4.66-.81,11.44,11.44,0,0,0-2.53.16l-.77.16c-.07,0-.21,0-.22.09l0,.26,0,.43c.06.43.14.87.22,1.3a24.12,24.12,0,0,0,1.63,5.26c.19.43.42.86.65,1.28s.26.19-.14.31c-1,.21-1.9.46-2.85.74a60.84,60.84,0,0,0-11.55,4.63,29.36,29.36,0,0,0-5.51,3.7c-.44.35-.81.79-1.22,1.19a17.26,17.26,0,0,0-1.08,1.4,1.38,1.38,0,0,0-.2,1.11,1.51,1.51,0,0,0,.77.8l1.56.75,3.07,1.45c.51.24,1,.49,1.52.72l.14.07h0l-.1.16-.24.36a9.93,9.93,0,0,0-1.26,3.18,7.56,7.56,0,0,0-.14.83l0,.36,0,.19c0,.06,0,.13.06.14l.62.23c.51.19,1,.39,1.53.55a44.22,44.22,0,0,0,12.24,2.28,42.89,42.89,0,0,0,11.23-1,23.8,23.8,0,0,0,9-3.91,15.7,15.7,0,0,0,3.08-3,13.23,13.23,0,0,0,1.83-3.36,12.19,12.19,0,0,0,.69-6,9.13,9.13,0,0,0-1.29-3.61,8,8,0,0,0-.57-.82l-.21-.27.2.28a7.37,7.37,0,0,1,.55.83,9,9,0,0,1,1.2,3.61,12.09,12.09,0,0,1-.8,5.93,13.51,13.51,0,0,1-4.9,6.13,23.57,23.57,0,0,1-8.88,3.71,43.62,43.62,0,0,1-11.07.83,44.64,44.64,0,0,1-12-2.33c-.51-.17-1-.36-1.51-.55l-.15-.06a.37.37,0,0,1,0-.08,6.88,6.88,0,0,1,.13-.77A9,9,0,0,1,53,296.94l.22-.34.14-.19.25-.33.24-.34a1.9,1.9,0,0,0-.35-.18l-.61-.29-1.52-.73-3.07-1.46-1.52-.72c-.47-.28-.53-.4-.28-.86s.64-.86,1-1.27a14,14,0,0,1,1.17-1.14A29.14,29.14,0,0,1,54,285.48a61.7,61.7,0,0,1,11.39-4.66c.94-.29,1.88-.54,2.81-.76l1.11-.26c-.08-.16-.22-.36-.32-.53l-.27-.43c-.23-.4-.45-.8-.64-1.22a23,23,0,0,1-1.64-5.11c-.09-.43-.17-.85-.24-1.27l0-.21s0-.08,0-.07l.48-.11a11.1,11.1,0,0,1,2.43-.18,20.3,20.3,0,0,1,4.57.72A28.29,28.29,0,0,1,81,274.66a27.41,27.41,0,0,1,4.76,3.74A21.32,21.32,0,0,1,87.26,280a12.3,12.3,0,0,1,1,1.26Z"/><path class="cls-9" d="M67.69,278l.16.43a10,10,0,0,0,.55,1.14,10.23,10.23,0,0,0,2.75,3.16,10.6,10.6,0,0,0,3.79,1.8,8.68,8.68,0,0,0,1.25.21l.46,0s-.63-.2-1.58-.62a17.28,17.28,0,0,1-3.46-2,17.79,17.79,0,0,1-2.9-2.76C68.05,278.54,67.69,278,67.69,278Z"/><path class="cls-9" d="M52.38,298.34l.29-.57a11.49,11.49,0,0,1,.95-1.46,16.36,16.36,0,0,1,4.2-3.75,42.4,42.4,0,0,1,5.06-2.68l2.17-1s-.89.22-2.31.67a23,23,0,0,0-5.33,2.39,12.43,12.43,0,0,0-4.11,4.19,9.42,9.42,0,0,0-.74,1.62C52.43,298.11,52.38,298.34,52.38,298.34Z"/><path class="cls-7" d="M180.46,480.2c3.14,6.87,1.09,17.68.11,22.78,0,0-19.31,8.4-34.76,1.43a71,71,0,0,1,13-25.25s5.21-5.81,11.61-5A15.35,15.35,0,0,1,180.46,480.2Z"/><path class="cls-8" d="M180.56,503s-19.3,8.39-34.74,1.43c0,0,.26-1.05.84-2.83l.21.1a9.14,9.14,0,0,0,5,.3,126,126,0,0,1,8.31-11.27,24.18,24.18,0,0,0-3.35,8.42,3.27,3.27,0,0,0,.18,2.36,3,3,0,0,0,2,1.05,43.36,43.36,0,0,0,18-.86,36.39,36.39,0,0,0,4.12-16.52c0-1.17-.05-2.34-.15-3.5C183.32,488.52,181.48,498.23,180.56,503Z"/><path class="cls-10" d="M180.46,480.2c-.12.05.57,1.48,1,4.27a42.77,42.77,0,0,1-.28,11.9c-.17,1.25-.39,2.56-.64,3.92-.13.68-.27,1.37-.4,2.08-.12.36.08.14-.3.32l-1,.38a63,63,0,0,1-9.12,2.47,52.59,52.59,0,0,1-10.36.95,34.94,34.94,0,0,1-10.92-1.8l-1.32-.51c-.62-.24-.45-.16-.47-.19l.33-1.09.43-1.34c.59-1.78,1.25-3.5,1.94-5.18A74.7,74.7,0,0,1,154,487a61.91,61.91,0,0,1,5.4-7.7,16.9,16.9,0,0,1,6.73-4.3,10.62,10.62,0,0,1,3.42-.48,13,13,0,0,1,3.09.51,15.54,15.54,0,0,1,4.53,2.22,29,29,0,0,1,3.27,2.91s-.14-.38-.61-1a14.85,14.85,0,0,0-2.34-2.35,15.22,15.22,0,0,0-4.63-2.52,13,13,0,0,0-3.27-.64,11.27,11.27,0,0,0-3.73.42,17.7,17.7,0,0,0-7.26,4.43A60.4,60.4,0,0,0,153,486.4a75,75,0,0,0-4.86,9.47c-.71,1.7-1.39,3.45-2,5.26-.16.46-.31.91-.45,1.37l-.2.7-.27.95a3.54,3.54,0,0,0-.15.67l.66.26.88.35L148,506a35.84,35.84,0,0,0,11.34,1.85,51.75,51.75,0,0,0,10.62-1.06,61.55,61.55,0,0,0,9.26-2.63l1.06-.41.76-.32a5.24,5.24,0,0,0,.18-.82c.13-.71.25-1.41.37-2.1.23-1.38.42-2.7.57-4a39.61,39.61,0,0,0-.15-12.11,16.86,16.86,0,0,0-1-3.16A3.78,3.78,0,0,0,180.46,480.2Z"/><path class="cls-11" d="M138.14,414.42a74.36,74.36,0,0,0,2.31,10.93c5.19,20.09,8.84,40.93,15.32,60.65a40.89,40.89,0,0,0,13.39-.65c7.38-1.59,10.66-4,10.66-4s-3.26-48.49-7.24-73.47c-1.7-10.69-12.19-16.29-22.48-12.49a19.33,19.33,0,0,0-10.4,8.73A17.88,17.88,0,0,0,138.14,414.42Z"/><path class="cls-4" d="M147.53,474.34c-1,6.67,3,8.54,4.55,8.9a2.5,2.5,0,0,0,2.45-.46c3.79,9.5,15.71,5.67,20.58-.19l-2.77,2a13.32,13.32,0,0,0,6.25-1.31,2.79,2.79,0,0,0,1.47-1.32c.46-1.15-.33-2.48-.25-3.74a7,7,0,0,1,1.41-3c.57-.94.91-2.31.21-3.16s-2.09-1.3-1.67-2.23a2.82,2.82,0,0,0,2.33-2.46,7.33,7.33,0,0,0-.51-3.8,16.48,16.48,0,0,0-8.08-9.27c2.5-2.26,6.73-8.83,6.58-12.46s-2-8.17-3.48-11.43c0,0-5-7.37-13.24-8.49,0,0-15.73-.1-20.34,10.8-1.74,5,2.39,11.26,6.95,14.55-4.08,3.31-5.77,9.85-3.93,15.19a3.61,3.61,0,0,1,.32,1.72,4.13,4.13,0,0,1-.93,1.56c-1.65,2.3-.68,6,1.34,7.95s4.75,2.67,7.35,3.3Z"/><path class="cls-12" d="M143,432.71c4.61-10.9,20.34-10.8,20.34-10.8,8.2,1.12,13.24,8.49,13.24,8.49,1.26,1.84,2.74,5.39,2.65,7.68,0,.93-12.33,2.19-13.61,2.3-4.63.39-9.38-.09-13.95.86a8.14,8.14,0,0,0,4.19,5.65,23.9,23.9,0,0,0,6.88,2.33c-4.65-.56-9.79.7-12.72,4.35s-2.57,9.9,1.44,12.32c-1.54.89-1.81,3.14-1,4.72a8.81,8.81,0,0,0,4,3.44,34.73,34.73,0,0,0,9.48,3.38c-3.12.07-7-.58-8.77,2.47,2.83,3.06,8.44,3.93,12.23,3.56a18.08,18.08,0,0,0,10.1-4.93,15.84,15.84,0,0,1-11.27,9.84c-5.28,1.16-8.9-1.08-11.85-5.16-.09.48-.74.15-1.23.14a5.87,5.87,0,0,1-5.75-5.37,14.64,14.64,0,0,1,.34-3.55c0-.07-2.32-2.41-2.53-2.86a6.15,6.15,0,0,1-.41-4.26c.32-1.73,1.94-2.2,1.64-4.07-.43-2.68-1.56-5-1-7.68a16.56,16.56,0,0,1,4.66-8.24c-.34.35-4.45-4.75-4.78-5.16C143.26,439.61,141.64,436,143,432.71Z"/><path class="cls-6" d="M172.34,484.53a8.56,8.56,0,0,0,1.43,0,12.8,12.8,0,0,0,4.12-.91,8.7,8.7,0,0,0,1.35-.65,2.15,2.15,0,0,0,1-1.33c.29-1.22-.48-2.45-.25-3.73a5.14,5.14,0,0,1,.88-1.85,6,6,0,0,0,1.05-2.09,2.94,2.94,0,0,0,0-1.29,2.1,2.1,0,0,0-.73-1.14c-.62-.54-1.59-1.13-1.17-1.5l.17,0,.33-.12a2.4,2.4,0,0,0,.61-.38,3.4,3.4,0,0,0,.87-1.15,5,5,0,0,0,.35-2.92,12.45,12.45,0,0,0-.87-2.93,17.3,17.3,0,0,0-1.5-2.85,16.84,16.84,0,0,0-4.86-4.92l-.78-.47s-.18-.06-.13-.11l.29-.28c.23-.21.44-.45.65-.68a18.61,18.61,0,0,0,2.26-3.11,19.63,19.63,0,0,0,1.4-16.09,19.31,19.31,0,0,0-4.72-7.51,18.45,18.45,0,0,0-8-4.58,17.32,17.32,0,0,0-2.11-.47,14,14,0,0,0-2.15-.24,21.38,21.38,0,0,0-4.24.22,19.9,19.9,0,0,0-7.8,2.79,18.45,18.45,0,0,0-5.73,5.56,15.77,15.77,0,0,0-1,1.67l-.47.84c0,.08-.07.12-.13.26l-.08.25-.13.48a9.3,9.3,0,0,0-.09,3.89,14.7,14.7,0,0,0,3.3,6.51,22.94,22.94,0,0,0,2.43,2.49l.65.56.33.26.26.2c0,.05.19.1.07.16l-.09.09a2.62,2.62,0,0,0-.3.28,13.54,13.54,0,0,0-3.21,5.54,15.22,15.22,0,0,0-.61,5.85,14,14,0,0,0,.5,2.71c.22.87.69,1.66.54,2.36s-.86,1.25-1.2,2a5.06,5.06,0,0,0-.49,2.29,7.63,7.63,0,0,0,1.19,3.95,7.85,7.85,0,0,0,2.48,2.41,15.47,15.47,0,0,0,4.42,1.76l1.61.38-1.6-.43a15.72,15.72,0,0,1-4.33-1.86,7.64,7.64,0,0,1-2.35-2.41,7.25,7.25,0,0,1-1.06-3.8,5,5,0,0,1,.51-2.11,4.66,4.66,0,0,1,.65-.94,3,3,0,0,0,.64-1.16,2.85,2.85,0,0,0-.12-1.37c-.14-.42-.26-.82-.38-1.24a13,13,0,0,1-.43-2.6,14.73,14.73,0,0,1,.69-5.6,12.84,12.84,0,0,1,3.11-5.19c.09-.1.19-.17.29-.27l.52-.45c.67-.32-.11-.6-.39-.89l-.4-.32-.31-.26-.62-.55a21.3,21.3,0,0,1-2.31-2.43,13.74,13.74,0,0,1-3-6.11,8.13,8.13,0,0,1,.11-3.47,2.89,2.89,0,0,1,.27-.77l.46-.8a14.36,14.36,0,0,1,1-1.59,17.74,17.74,0,0,1,5.45-5.21,18.92,18.92,0,0,1,7.37-2.59,20.06,20.06,0,0,1,4-.2,12.38,12.38,0,0,1,2,.23,17,17,0,0,1,2,.44,17.28,17.28,0,0,1,7.47,4.28,18.13,18.13,0,0,1,4.48,7.06,18.66,18.66,0,0,1-1.18,15.25,16.75,16.75,0,0,1-2.11,3,7.59,7.59,0,0,1-.6.66l-1,1-.14.14c0,.05.1.07.14.1l.35.18.71.37c.25.15.5.28.74.44a15.88,15.88,0,0,1,4.7,4.6,15.39,15.39,0,0,1,2.36,5.47,4.39,4.39,0,0,1-.24,2.58,2.88,2.88,0,0,1-.7,1,2.11,2.11,0,0,1-.48.32,1,1,0,0,1-.27.1,3.65,3.65,0,0,1-.46.07.93.93,0,0,0-.15.82,1,1,0,0,0,.21.41,1.59,1.59,0,0,0,.24.27c.35.32.71.54,1,.81a1.83,1.83,0,0,1,.6,2c-.29,1.47-1.63,2.49-1.85,4s.6,2.64.34,3.74a1.94,1.94,0,0,1-.9,1.22,8.92,8.92,0,0,1-1.3.67,13.08,13.08,0,0,1-4.06,1A9.61,9.61,0,0,1,172.34,484.53Z"/><path class="cls-6" d="M147.53,474.34l-.16,1a10.26,10.26,0,0,0,0,2.78,6.62,6.62,0,0,0,1.87,4,6.25,6.25,0,0,0,2.36,1.5,4.43,4.43,0,0,0,1.57.28,2.55,2.55,0,0,0,.88-.15l.22-.08,0,0,0,0s0,0,0,.05h0s0,0,0,0l0,.07.14.29.29.62c.11.21.28.41.42.62a7,7,0,0,0,1,1.26,6.25,6.25,0,0,0,1.34,1.1,8.8,8.8,0,0,0,3.85,1.41,12.2,12.2,0,0,0,3.75-.2,16.85,16.85,0,0,0,5.75-2.38,17.44,17.44,0,0,0,3.2-2.66c.62-.76,1-1.17,1-1.17l-1.1,1a19.35,19.35,0,0,1-3.37,2.29,17.91,17.91,0,0,1-5.62,1.92,12.34,12.34,0,0,1-3.44.06,8.24,8.24,0,0,1-3.35-1.28,5.6,5.6,0,0,1-1.16-.95,6.2,6.2,0,0,1-.92-1.08,5.93,5.93,0,0,1-.38-.54l-.29-.56-.81-1.57-.6.58a.84.84,0,0,1-.27.19l-.13.06a1.7,1.7,0,0,1-.57.12,3.56,3.56,0,0,1-1.25-.16,5.83,5.83,0,0,1-2.13-1.19,6.39,6.39,0,0,1-2-3.51,11.21,11.21,0,0,1-.24-2.7C147.52,474.67,147.53,474.34,147.53,474.34Z"/><path class="cls-13" d="M161.89,324a36.83,36.83,0,0,1,6.71.83c9.89,2.35,23,12.11,21.14,32.14-2,21.19-5.32,77.22-5.32,77.22a96.74,96.74,0,0,1-30.88,3c-17.63-1.26-22.12-4.11-22.12-4.11s-3.61-49.31-1.31-84.65c1.35-20.71,19.29-24.89,31.78-24.39"/><path class="cls-14" d="M161.89,324s1.09,0,3.14.25a26.78,26.78,0,0,1,8.63,2.44,30.55,30.55,0,0,1,2.73,1.46,29.07,29.07,0,0,1,2.79,2,26.09,26.09,0,0,1,5.31,5.58,27.42,27.42,0,0,1,3.9,7.93,35.47,35.47,0,0,1,1.34,9.82c-.12,3.48-.56,7.14-.86,10.95s-.62,7.78-1,11.89c-.62,8.23-1.23,17-1.85,26.26s-1.22,19-1.86,29l-.12,1.89,0,.43s0,0,0,0l-.89.24q-1.84.46-3.72.84c-2.5.51-5,.92-7.63,1.24a95.59,95.59,0,0,1-15.74.68,127.84,127.84,0,0,1-15.69-1.69,44.3,44.3,0,0,1-7.44-1.89c-.3-.11-.58-.23-.87-.36l-.3-.15s0,0,0-.18l-.13-1.91c-.08-1.26-.16-2.53-.25-3.79-.61-10.06-1.06-19.78-1.36-29-.59-18.52-.55-35.22.27-49.21.06-.88.19-1.73.28-2.57.05-.42.1-.84.14-1.26s.19-.82.28-1.22c.2-.8.35-1.61.58-2.38s.57-1.5.84-2.24a22.68,22.68,0,0,1,5-7.28,27.46,27.46,0,0,1,12.46-6.53,41.25,41.25,0,0,1,8.92-1.19c1-.07,1.82,0,2.35,0h.8l-.8,0c-.53,0-1.32-.06-2.35,0a41.61,41.61,0,0,0-9,1.1c-1,.2-1.94.56-3,.85-.51.18-1,.4-1.56.6a13.35,13.35,0,0,0-1.62.69,25.21,25.21,0,0,0-6.43,4.34,22.75,22.75,0,0,0-5.07,7.33l-.86,2.26c-.24.78-.4,1.59-.61,2.4-.09.41-.22.82-.29,1.24l-.15,1.27c-.1.85-.23,1.72-.31,2.59-.91,14-1.05,30.72-.53,49.26.27,9.27.68,19,1.28,29.07l.24,3.79.13,1.91,0,.3,0,.24c0,.08.12.09.16.13.29.17.39.21.55.29s.61.26.91.38a46.7,46.7,0,0,0,7.57,1.94,127.89,127.89,0,0,0,15.8,1.7,96.12,96.12,0,0,0,15.87-.69c2.59-.32,5.16-.74,7.68-1.25,1.26-.26,2.51-.55,3.75-.86l1-.26.45-.12a2.06,2.06,0,0,0,.05-.45l0-.52.11-1.89c.62-10.07,1.21-19.78,1.77-29s1.19-18,1.74-26.26q.45-6.16.87-11.89c.28-3.82.69-7.46.79-11a35.8,35.8,0,0,0-1.42-9.92,28,28,0,0,0-4-8,26.17,26.17,0,0,0-5.4-5.58,32.6,32.6,0,0,0-2.82-1.95c-1-.51-1.85-1.07-2.76-1.44a26.58,26.58,0,0,0-8.68-2.36C163,324,161.89,324,161.89,324Z"/><path class="cls-7" d="M214,483.4c-3.15,7.18-1.13,17.82-.19,22.68,0,0,19.8,7.84,36.11,1.17a64.7,64.7,0,0,0-12.15-25.9s-6.33-6.14-13.25-4.86A17.1,17.1,0,0,0,214,483.4Z"/><path class="cls-8" d="M213.76,506.07s19.81,7.84,36.11,1.18c0,0-.2-1-.67-2.81a1.13,1.13,0,0,1-.22.11,10.44,10.44,0,0,1-5.33.33,115.64,115.64,0,0,0-8-11.23,22.17,22.17,0,0,1,3,8.46,3.15,3.15,0,0,1-.31,2.33,3.31,3.31,0,0,1-2.13,1,50.28,50.28,0,0,1-19.05-.66,35.43,35.43,0,0,1-4-16.25c0-1.21.06-2.42.17-3.62C211.08,492,212.89,501.55,213.76,506.07Z"/><path class="cls-10" d="M214,483.4a3.93,3.93,0,0,0-.55,1.06,19,19,0,0,0-1,3.27,40.78,40.78,0,0,0-.13,12.52c.17,1.31.37,2.68.62,4.1.06.36.12.72.19,1.08l.12.67.05.25,0,.12.11,0,.47.18c.76.28,1.45.52,2.2.76a66.61,66.61,0,0,0,9.68,2.34,56,56,0,0,0,11,.75,40.09,40.09,0,0,0,11.67-2.08l1.72-.6.35-.13c.05,0,.13,0,.15-.07l0-.18-.14-.71-.11-.51-.09-.36c-.23-1-.48-2-.76-2.89q-.84-2.85-1.89-5.51a64.42,64.42,0,0,0-4.83-9.89c-.47-.74-.91-1.49-1.38-2.2L240,483.33l-1.5-1.95a3.92,3.92,0,0,0-.44-.52l-.46-.41c-.31-.26-.62-.51-.94-.74a18.85,18.85,0,0,0-8-3.65,12.61,12.61,0,0,0-7.17.91,16.2,16.2,0,0,0-4.6,2.89,16,16,0,0,0-2.33,2.51c-.46.63-.64,1-.6,1a33.37,33.37,0,0,1,3.26-3.14,16.68,16.68,0,0,1,4.55-2.59,12,12,0,0,1,6.72-.68,18.3,18.3,0,0,1,7.46,3.6c.3.23.6.47.88.72l.43.38s.2.27.31.4c.47.64.95,1.28,1.44,1.93s.91,1.37,1.38,2.06.88,1.44,1.33,2.17a64.91,64.91,0,0,1,4.67,9.73c.68,1.75,1.29,3.56,1.83,5.41.28.93.52,1.87.75,2.82l.13.57v0l-1.12.39a39.17,39.17,0,0,1-11.28,2,55.43,55.43,0,0,1-10.75-.66,68.49,68.49,0,0,1-9.53-2.17c-.72-.22-1.48-.47-2.11-.7-.11,0-.06,0-.16-.47l-.21-1.06c-.27-1.41-.5-2.75-.69-4.05a43.46,43.46,0,0,1-.3-12.3C213.38,484.94,214.07,483.45,214,483.4Z"/><path class="cls-11" d="M195,411.33c-.43,3,1.32,12.16,2.2,14.84,5.36,16.31,11.56,45.83,15.4,59.42a34.08,34.08,0,0,0,13.79,0,35.09,35.09,0,0,0,11.34-4.24s-3.27-48.49-7.24-73.47S197.7,392.31,195,411.33Z"/><path class="cls-4" d="M240.39,469.61c2.72,6.16-.63,9-2,9.79a2.47,2.47,0,0,1-2.47.21c-1.13,10.17-13.64,9.64-19.89,5.29l3.18,1.14a13.08,13.08,0,0,1-6.37.4,2.74,2.74,0,0,1-1.77-.88c-.75-1-.34-2.47-.76-3.67a7,7,0,0,0-2.14-2.48c-.8-.75-1.49-2-1.05-3s1.68-1.8,1-2.58a2.84,2.84,0,0,1-2.9-1.76,7.44,7.44,0,0,1-.52-3.8A16.49,16.49,0,0,1,210,457.2c-3-1.52-8.84-6.73-9.66-10.27s-.25-8.4.32-11.94c0,0,2.89-8.44,10.5-11.71,0,0,15.13-4.28,22.48,5,3,4.34.7,11.49-2.83,15.88,4.81,2.11,8.18,7.95,7.83,13.59a3.55,3.55,0,0,0,.16,1.75,4,4,0,0,0,1.31,1.25c2.19,1.78,2.24,5.58.82,8s-3.87,3.84-6.21,5.14Z"/><path class="cls-15" d="M238.37,479.4a2.47,2.47,0,0,1-2.47.21c-1.13,10.17-13.64,9.64-19.89,5.29l3.18,1.14a13.08,13.08,0,0,1-6.37.4,2.74,2.74,0,0,1-1.77-.88c-.75-1-.34-2.47-.76-3.67a7,7,0,0,0-2.14-2.48c-.8-.75-1.49-2-1.05-3s1.68-1.8,1-2.58a2.84,2.84,0,0,1-2.9-1.76,7.44,7.44,0,0,1-.52-3.8A16.49,16.49,0,0,1,210,457.2a21,21,0,0,1-9.48-12c-1-3.49-.43-6.64.14-10.18,0,0,2.89-8.44,10.5-11.71,0,0,15.13-4.28,22.48,5,1.22,1.76,1.6,2.88,1.48,5.68-5.46,2.61-14.21,5-28.7,4.27,1.14,6.88,7.79,15.42,14,16.53a21.83,21.83,0,0,0-11.37,9.17,5.41,5.41,0,0,0-1,3,4,4,0,0,0,4.12,3.52c1.9-.1,3.54-1.3,5.08-2.47a9.41,9.41,0,0,0-4.92,8.77,2.17,2.17,0,0,0,.38,1.33,1.68,1.68,0,0,0,1.35.48,6.43,6.43,0,0,0,5.59-3.78c2.13,4.14,6.47,6.8,10.66,6.56,2.44-.14,5.84-3.58,2.4-5.6a4.5,4.5,0,0,0-2.46-.51,8.13,8.13,0,0,0,4.45-1.09,25.51,25.51,0,0,0,3.84-2.73,9,9,0,0,0,1.83-1.81c-.24.35.68,2.54.8,3.08a6.39,6.39,0,0,1-.1,3.55A5.94,5.94,0,0,1,238.37,479.4Z"/><path class="cls-6" d="M219.19,486a11.17,11.17,0,0,1-1.39.34,13,13,0,0,1-4.19.1,10.08,10.08,0,0,1-1.43-.29,2,2,0,0,1-1.19-.94c-.54-1-.09-2.34-.67-3.7s-2.16-2-2.83-3.34a1.82,1.82,0,0,1,0-2.07c.22-.34.51-.65.76-1.05a2,2,0,0,0,.17-.33,1.33,1.33,0,0,0,.09-.44.93.93,0,0,0-.37-.75l-.46.05a1.37,1.37,0,0,1-.29,0,2.28,2.28,0,0,1-.54-.18,3,3,0,0,1-.94-.76,4.47,4.47,0,0,1-.92-2.42,15.28,15.28,0,0,1,.83-5.9,16,16,0,0,1,3.3-5.69c.19-.21.4-.41.6-.62l.58-.54.3-.27s.14-.09.1-.13l-.17-.09-1.23-.69a7.48,7.48,0,0,1-.76-.48,17.16,17.16,0,0,1-2.83-2.3,18.73,18.73,0,0,1-5.2-14.39,18.28,18.28,0,0,1,2.44-8,17.35,17.35,0,0,1,6.07-6.12,19.52,19.52,0,0,1,1.81-1,13,13,0,0,1,1.87-.75,20.07,20.07,0,0,1,3.93-.88,18.73,18.73,0,0,1,7.8.54,17.8,17.8,0,0,1,6.64,3.57,14.82,14.82,0,0,1,1.36,1.27l.65.65c.19.13.3.44.47.68a8.06,8.06,0,0,1,1,3.3,13.81,13.81,0,0,1-1.29,6.7,21.44,21.44,0,0,1-1.58,3l-.45.69-.23.34-.3.41c-.19.35-.87.83-.14,1l.62.3.36.18a13,13,0,0,1,4.38,4.17,15,15,0,0,1,2.15,5.22,13.14,13.14,0,0,1,.28,2.63c0,.43,0,.84,0,1.29a2.69,2.69,0,0,0,.25,1.35,2.79,2.79,0,0,0,.93.94,5.37,5.37,0,0,1,.87.74,4.76,4.76,0,0,1,1,1.9,7.25,7.25,0,0,1,0,3.95,7.46,7.46,0,0,1-1.62,2.94,15.59,15.59,0,0,1-3.68,2.95l-1.43.84,1.45-.8a15.44,15.44,0,0,0,3.8-2.87,7.73,7.73,0,0,0,1.74-3,7.53,7.53,0,0,0,.1-4.12,5.13,5.13,0,0,0-1.08-2.08c-.53-.65-1.38-1-1.7-1.62a6.11,6.11,0,0,1-.11-2.42,13.46,13.46,0,0,0-.23-2.74,15.32,15.32,0,0,0-2.15-5.48A13.52,13.52,0,0,0,232,444.3a3.24,3.24,0,0,0-.37-.19l-.11-.06c-.13,0,0-.11,0-.18l.19-.25.25-.35.48-.7a24.24,24.24,0,0,0,1.68-3.05,14.67,14.67,0,0,0,1.44-7.15,9.1,9.1,0,0,0-1.11-3.73l-.26-.43-.14-.23-.2-.2-.68-.69a16.38,16.38,0,0,0-1.41-1.35,18.71,18.71,0,0,0-7-3.83,19.74,19.74,0,0,0-8.25-.61,22.15,22.15,0,0,0-4.15.91,14.55,14.55,0,0,0-2,.81,19.33,19.33,0,0,0-1.91,1,18.31,18.31,0,0,0-6.46,6.54,19.24,19.24,0,0,0-2.55,8.5,19.56,19.56,0,0,0,5.63,15.13,17,17,0,0,0,3,2.39,6.59,6.59,0,0,0,.8.49l.36.19c.05,0-.08.11-.1.14-.21.23-.43.44-.63.67a16.72,16.72,0,0,0-3.37,6,17.19,17.19,0,0,0-.69,3.14,12.58,12.58,0,0,0-.06,3.06,5.07,5.07,0,0,0,1.12,2.73,3.47,3.47,0,0,0,1.14.87,2.75,2.75,0,0,0,.69.21,2.18,2.18,0,0,0,.35,0,.55.55,0,0,0,.18,0c.5.25-.28,1.08-.74,1.76a2.12,2.12,0,0,0-.39,1.3,2.81,2.81,0,0,0,.37,1.23,6.16,6.16,0,0,0,1.57,1.74,5.14,5.14,0,0,1,1.35,1.54c.56,1.18.14,2.57.74,3.67a2.18,2.18,0,0,0,1.35,1,9.26,9.26,0,0,0,1.46.27,13,13,0,0,0,4.22-.22A9.52,9.52,0,0,0,219.19,486Z"/><path class="cls-6" d="M240.39,469.61s.1.32.3.92a10.71,10.71,0,0,1,.48,2.67,6.39,6.39,0,0,1-1,3.91,5.72,5.72,0,0,1-1.75,1.71,3.61,3.61,0,0,1-1.16.5,1.92,1.92,0,0,1-.58,0l-.14,0a1,1,0,0,1-.31-.11l-.73-.4c-.11.51-.23,1.09-.37,1.73,0,.19-.08.4-.12.61s-.16.41-.23.62a5.58,5.58,0,0,1-.6,1.29,5.49,5.49,0,0,1-.87,1.23,8.11,8.11,0,0,1-2.89,2.12,11.92,11.92,0,0,1-3.33.85,17.59,17.59,0,0,1-5.93-.35,19.18,19.18,0,0,1-3.85-1.31L216,484.9l1.25.87a17.11,17.11,0,0,0,3.79,1.71,16.85,16.85,0,0,0,6.18.77,12.15,12.15,0,0,0,3.67-.81,8.84,8.84,0,0,0,3.33-2.38,6.89,6.89,0,0,0,1-1.42,6.61,6.61,0,0,0,.65-1.48c.08-.25.19-.48.24-.71l.12-.68.05-.32v-.07s0,0,0,0h0s0-.05,0-.05h.1l.24,0a2.9,2.9,0,0,0,.89-.09,4.4,4.4,0,0,0,1.43-.68,6.25,6.25,0,0,0,1.88-2.08,6.75,6.75,0,0,0,.75-4.33,10.59,10.59,0,0,0-.78-2.68Z"/><path class="cls-13" d="M196.91,324.58a35.87,35.87,0,0,0-6.55,1.7c-9.5,3.61-24.26,15.39-19.77,35,4.75,20.74,13.68,53.58,20.73,73.62,0,0,11.79,2,28.44-.77,15.58-2.56,23.36-8.57,23.36-8.57s-8.82-55.94-11.53-80.95c-2.24-20.63-22.37-22.16-34.68-20"/><path class="cls-14" d="M196.91,324.58s-1.07.15-3.07.62a29.57,29.57,0,0,0-8.31,3.37A34.64,34.64,0,0,0,175,338a28.59,28.59,0,0,0-4,7.91,26.51,26.51,0,0,0-1.26,9.87c0,.44.05.88.08,1.32l0,.67.11.66c.15.89.3,1.78.46,2.69.38,1.78.81,3.6,1.24,5.45.87,3.71,1.82,7.56,2.82,11.54,2,8,4.27,16.43,6.76,25.31s5.27,18.17,8.45,27.7c.4,1.19.81,2.38,1.22,3.58l.11.3.07.22c0,.1.14.05.2.08l.61.09.95.12,1.91.19c2.56.21,5.14.3,7.74.29a108,108,0,0,0,15.76-1.2,72.33,72.33,0,0,0,15.34-3.88,51.73,51.73,0,0,0,7-3.26c.57-.31,1.12-.65,1.66-1,.27-.17.54-.36.8-.54l.28-.2.19-.14c0-.05,0-.15,0-.22l-.09-.59c-.2-1.25-.39-2.5-.59-3.74-1.52-9.92-3-19.49-4.39-28.6-2.72-18.25-5.11-34.69-6.72-48.55a24.25,24.25,0,0,0-3.11-9.45,19.69,19.69,0,0,0-6.14-6.38A28.91,28.91,0,0,0,209,324a46,46,0,0,0-9,.15c-2,.24-3.1.45-3.1.45s1.06-.2,3.1-.41a45.61,45.61,0,0,1,9-.07,28.68,28.68,0,0,1,13.34,4.33,19.39,19.39,0,0,1,6,6.33,24.11,24.11,0,0,1,3,9.34c1.52,13.87,3.81,30.34,6.46,48.59,1.34,9.13,2.78,18.71,4.31,28.63.19,1.24.38,2.48.58,3.73l.05.35h0l-.11.08-.78.52c-.53.34-1.07.66-1.62,1a49.79,49.79,0,0,1-7,3.2A71.26,71.26,0,0,1,218.08,434a107.85,107.85,0,0,1-15.65,1.2c-2.58,0-5.14-.07-7.68-.28l-1.89-.18-.93-.11-.33-.05s0,.06-.06-.15l-1.23-3.57c-3.19-9.51-6-18.79-8.51-27.65S177,385.89,174.92,378c-1-4-2-7.81-2.88-11.51s-1.87-7.24-2-10.71a26.43,26.43,0,0,1,1.17-9.76,28.94,28.94,0,0,1,3.94-7.86,35,35,0,0,1,10.44-9.44,29.42,29.42,0,0,1,8.25-3.44C195.84,324.74,196.91,324.58,196.91,324.58Z"/><path class="cls-13" d="M163.13,384.21a211.07,211.07,0,0,0,28.12,7.17s30.64-30.47,32.63-54.88-70.11-21.58-81.17-4.55S163.13,384.21,163.13,384.21Z"/><path class="cls-16" d="M180.6,360.91a166.84,166.84,0,0,0-.21,27l-6-1.42a2.62,2.62,0,0,1-1-.4,2.48,2.48,0,0,1-.65-1.9q-.56-12.37-.65-24.76"/><path class="cls-14" d="M163.2,384s1.48.7,3.94,1.66a85.17,85.17,0,0,0,9.81,3.15,86.08,86.08,0,0,0,10.11,1.93c2.62.33,4.26.43,4.26.43s-1.57-.47-4.1-1.18-6-1.68-9.9-2.66-7.39-1.81-9.95-2.4S163.2,384,163.2,384Z"/><g class="cls-17"><path class="cls-18" d="M129.34,361.54s14.83,15.09,47.71,18c26.1,2.31,50.59-13.89,56.15-18.75l4.52-4.23s-41.44,2.77-56.2,3S129.34,358,129.34,358v3.57"/></g><path class="cls-3" d="M146.46,242.19c-8,8.47-6.27,22.55-6.89,34.2-.21,4-.22,8.06-.76,12.05-.65,4.81-1.9,18.15-3.16,22.84a273.16,273.16,0,0,0-7.84,46.62S148.51,372,181.52,372c26.2,0,51.09-13,56.2-18.31,0,0,2.63-67-1.2-88.71-1.14-6.46,1.92-12.55-.93-17.3-6.71-11.2-28.33-15.24-40.35-18.85C178.11,223.67,152.48,235.83,146.46,242.19Z"/><path class="cls-19" d="M236.22,326.05c-.22-3.54-.45-7.26-.71-11.06-45.59,5.25-83.11.74-99.52-5.17-.11.54-.23,1.05-.34,1.46-.69,2.59-1.33,5.2-1.94,7.82C156.13,330.64,204.84,328.22,236.22,326.05Z"/><path class="cls-19" d="M233.1,335.53a18.33,18.33,0,0,0-1.34-6c-46.07,7.23-82.86.8-99.27-5.11-.11.54-.6,1.65-1.21,4.27C153.7,340.23,196.68,340.88,233.1,335.53Z"/><path class="cls-20" d="M142.27,260.44s-.11,1.38-.43,3.85-.82,6-1.41,10.47l-2.18,15.53c-.75,5.85-1.35,12.32-2.54,19-.32,1.65-.8,3.26-1.2,4.88s-.78,3.2-1.13,4.77c-.71,3.13-1.33,6.17-1.85,9.08-1.06,5.81-1.81,11.08-2.34,15.51s-.87,8-1.08,10.51-.3,3.87-.3,3.87l.42-3.85c.28-2.48.72-6.07,1.34-10.48s1.46-9.66,2.59-15.44c.56-2.89,1.21-5.92,1.93-9,.36-1.56.76-3.14,1.16-4.75s.88-3.21,1.21-4.91c1.21-6.74,1.76-13.21,2.43-19.06s1.37-11.13,1.92-15.56.91-8,1.15-10.5S142.27,260.44,142.27,260.44Z"/><path class="cls-21" d="M165.25,230.66c-3,0-5.53,2.76-5.77,5.74-.73,9,9.6,12.86,16.56,13.3a48.76,48.76,0,0,0,16.82-1.85c4-1.21,14.11-5.4,15.84-9.77a4.4,4.4,0,0,0-.93-4.28c-1-1.18-3.83-2-5.15-2.75Z"/><path class="cls-11" d="M148.51,199.51c10.28,5.51,16.77,21.27,16.37,33.74a9.15,9.15,0,0,0,6.38,9.15c7,2.13,18.53,3,32-6.1,0,0-1.82-27.53,11.29-44,0,0-12.43-16.79-30.59-16.79C161.22,175.52,148.51,199.51,148.51,199.51Z"/><path class="cls-22" d="M148.51,199.51c10.28,5.51,16.77,21.27,16.37,33.74a9.15,9.15,0,0,0,6.38,9.15c7,2.13,18.53,3,32-6.1,0,0-1.82-27.53,11.29-44,0,0-12.43-16.79-30.59-16.79C161.22,175.52,148.51,199.51,148.51,199.51Z"/><path class="cls-23" d="M183.93,175.52a2.25,2.25,0,0,0-.86-.1,17.32,17.32,0,0,0-2.46,0,30.72,30.72,0,0,0-8.85,2,40.27,40.27,0,0,0-11.53,6.93,56.29,56.29,0,0,0-10.84,12.4c-.41.63-.77,1.21-1.17,1.9l-.5.91-.06.12s-.06.08,0,.09l.22.14.45.29,1.08.65a15.08,15.08,0,0,1,1.66,1.18,14.59,14.59,0,0,1,1.53,1.3,30.47,30.47,0,0,1,4.91,5.92,47.14,47.14,0,0,1,7,20.72,23.21,23.21,0,0,0,.33,3.28c.05,0,.1-.29.14-.85a21.34,21.34,0,0,0,.06-2.46,39,39,0,0,0-1.27-9,44.29,44.29,0,0,0-5.25-12.4,30.59,30.59,0,0,0-5.05-6.21A15.29,15.29,0,0,0,151.9,201a14.71,14.71,0,0,0-1.76-1.25l-.73-.45s0,0,0,0c.32-.55.72-1.19,1.1-1.78A57.62,57.62,0,0,1,161,185.3a41.69,41.69,0,0,1,11.08-7,35,35,0,0,1,8.55-2.33c1.05-.17,1.86-.23,2.42-.28S183.93,175.57,183.93,175.52Z"/><path class="cls-7" d="M257.36,353.07c-1.19,10.38-3.47,19.87-4.44,21.78a15.74,15.74,0,0,1-3.78,4.51c-5.72,5-13.16,8.41-20.77,8.17,1.17-4.49.89-8.81,1.58-13.3a16.38,16.38,0,0,1-7.28,3.17,1.48,1.48,0,0,1-.81-.06c-.46-.21-.58-.79-.62-1.29a24,24,0,0,1,7.62-19.93s9.53-10.68,17.76-9.17S257.36,353.07,257.36,353.07Z"/><path class="cls-7" d="M221.24,376.06c0,.5.17,1.08.62,1.28a1.45,1.45,0,0,0,.8.06,15.38,15.38,0,0,0,6.58-2.68,5,5,0,0,1-3.33-.48A7.3,7.3,0,0,1,223,371.3a10,10,0,0,1-1.18-3.32A23.92,23.92,0,0,0,221.24,376.06Z"/><path class="cls-7" d="M228.37,387.52a29.47,29.47,0,0,0,17.92-5.91A17.16,17.16,0,0,1,237.4,383c-2.4-.32-5.66-2.27-7.91-4.18A45.69,45.69,0,0,1,228.37,387.52Z"/><path class="cls-9" d="M249.14,379.36l-.55.44c-.35.3-.88.71-1.58,1.22a35.54,35.54,0,0,1-6.34,3.67,28.67,28.67,0,0,1-10.46,2.5c-.25,0-.5,0-.76,0h-.62s0,0,0-.06c.07-.26.13-.53.18-.79.23-1.07.39-2.17.52-3.29.24-2.24.33-4.56.57-6.9l.1-.87c.07-.54.15-1.07.22-1.6l0-.21c0-.06,0,0,0,0l-.09.06-.36.24-.72.5-.82.54a17.67,17.67,0,0,1-3,1.51,12.53,12.53,0,0,1-3.08.77c-.85.17-.79-1.22-.88-2.17a24,24,0,0,1,1.79-10.55,24.45,24.45,0,0,1,3.78-6.24,18.85,18.85,0,0,1,1.33-1.49c.31-.34.48-.51.48-.51l-.51.48c-.32.32-.82.78-1.39,1.44A23.8,23.8,0,0,0,220.83,375a15.52,15.52,0,0,0,.14,1.6,1.65,1.65,0,0,0,.43.88,1.25,1.25,0,0,0,1,.34,13.06,13.06,0,0,0,3.31-.77,18.46,18.46,0,0,0,3.11-1.56l.64-.41h0l0,.15-.1.89c-.25,2.38-.32,4.7-.54,6.9-.12,1.11-.26,2.18-.47,3.23,0,.26-.1.51-.17.77l-.17.72a1.35,1.35,0,0,0,0,.18h1.51a6.78,6.78,0,0,0,.78,0A28.1,28.1,0,0,0,240.83,385a34.18,34.18,0,0,0,6.25-3.92c.68-.55,1.2-1,1.53-1.29Z"/><path class="cls-6" d="M221.23,376.05v-.87c0-.56,0-1.37.11-2.36a28.48,28.48,0,0,1,1.73-7.49,30.91,30.91,0,0,1,1.82-3.82,34.07,34.07,0,0,1,1.91-2.9c.6-.79,1.11-1.42,1.49-1.83s.57-.66.57-.66l-.66.57a19.52,19.52,0,0,0-1.69,1.67,24.27,24.27,0,0,0-2.17,2.81A21.14,21.14,0,0,0,221,372.81a23.24,23.24,0,0,0,.16,2.38C221.19,375.74,221.23,376.05,221.23,376.05Z"/><path class="cls-11" d="M227.14,296a350.68,350.68,0,0,1-.77,62.83c2,1.64,4.65,1.85,7.23,1.87a2.31,2.31,0,0,1,.83.1,2.1,2.1,0,0,1,.5.31,15.5,15.5,0,0,0,4.23,2.58c1.51.45,3.68,0,5.2-.27a28.53,28.53,0,0,0,10.14-3.91,6.08,6.08,0,0,0,2.1-1.86,6.51,6.51,0,0,0,.68-3.27,220.29,220.29,0,0,0-5.35-55.26,7.83,7.83,0,0,0-1-2.76,6.69,6.69,0,0,0-3.24-2.17,21.3,21.3,0,0,0-20.52,3.34"/><path class="cls-24" d="M227.23,297.42c.48,7.14.78,13.86.9,20.42a67.41,67.41,0,0,0,27.5,2.2c-.89-7-2.13-14.05-3.71-21a7.4,7.4,0,0,0-1-2.76,6.48,6.48,0,0,0-3.24-2.16A21.33,21.33,0,0,0,227.23,297.42Z"/><path class="cls-4" d="M259.26,350c1.55,5.87-2.29,7.84-3.8,8.29a2.76,2.76,0,0,1-2.48-.23c-3,8.76-15.23,6.23-20.59,1.37l2.93,1.53a14.44,14.44,0,0,1-6.36-.69,2.77,2.77,0,0,1-1.58-1.07c-.56-1,.12-2.23-.07-3.35a6.13,6.13,0,0,0-1.66-2.54c-.64-.8-1.11-2-.48-2.8s2-1.31,1.48-2.11a2.74,2.74,0,0,1-2.53-2,5.92,5.92,0,0,1,.18-3.43,15.06,15.06,0,0,1,7.3-8.88A10.52,10.52,0,0,1,227,326a22.93,22.93,0,0,1,2.1-9.45S230.9,306,239,304.42A14.84,14.84,0,0,1,254,312a17.27,17.27,0,0,1,.54,14,12.12,12.12,0,0,1,5.21,13.25,2.9,2.9,0,0,0-.17,1.56,3.73,3.73,0,0,0,1.06,1.32c1.84,1.93,1.18,5.28-.67,7.19s-4.53,2.74-7.08,3.5Z"/><path class="cls-25" d="M255.46,358.29a2.76,2.76,0,0,1-2.48-.23c-3,8.76-15.23,6.23-20.59,1.37l2.93,1.53a14.44,14.44,0,0,1-6.36-.69,2.77,2.77,0,0,1-1.58-1.07c-.56-1,.12-2.23-.07-3.35a6.13,6.13,0,0,0-1.66-2.54c-.64-.8-1.11-2-.48-2.8s2-1.31,1.48-2.11a2.74,2.74,0,0,1-2.53-2,5.92,5.92,0,0,1,.18-3.43,15.06,15.06,0,0,1,7.3-8.88A10.52,10.52,0,0,1,227,326a22.93,22.93,0,0,1,2.1-9.45S230.9,306,239,304.42A14.84,14.84,0,0,1,254,312a9.25,9.25,0,0,1,1.23,4.89,46.65,46.65,0,0,1-22.94,2.42,15.2,15.2,0,0,0,10,14.35,22.75,22.75,0,0,0-12.91,6.19,4.79,4.79,0,0,0-1.58,2.48c-.31,1.87,1.53,3.54,3.42,3.77s3.72-.56,5.46-1.33a8.71,8.71,0,0,0-6.47,6.9,1.78,1.78,0,0,0,.12,1.23,1.75,1.75,0,0,0,1.25.65,6.79,6.79,0,0,0,6.21-2.41,11.41,11.41,0,0,0,9.31,7.54c2.43.28,6.42-2.19,3.39-4.54a4.81,4.81,0,0,0-2.33-.85,9.06,9.06,0,0,0,4.59-.23,26.71,26.71,0,0,0,4.29-1.77,8.77,8.77,0,0,0,2.14-1.29c-.3.27.21,2.35.22,2.85a5.13,5.13,0,0,1-.76,3.1A5.89,5.89,0,0,1,255.46,358.29Z"/><path class="cls-6" d="M235.32,361a11.57,11.57,0,0,1-1.44.07,14.83,14.83,0,0,1-4.07-.59,10.59,10.59,0,0,1-1.33-.47,2,2,0,0,1-1.06-1c-.43-1,.36-2.16,0-3.53s-1.8-2.09-2.19-3.41a1.85,1.85,0,0,1,0-1,1.53,1.53,0,0,1,.56-.78c.28-.25.6-.46.91-.77a1.31,1.31,0,0,0,.39-.69.94.94,0,0,0,0-.41c-.05-.12-.11-.27-.25-.25-1.83-.19-2.61-1.81-2.44-3.46a12.57,12.57,0,0,1,1.83-4.94,15.06,15.06,0,0,1,3.84-4.18l.61-.42.7-.43.6-.34.31-.17.15-.08.08,0s0,0-.06-.05c-.37-.28-.74-.54-1.12-.84a10.47,10.47,0,0,1-2-2.21,9.74,9.74,0,0,1-1.73-5.88,20.6,20.6,0,0,1,1.37-6.48c.19-.53.4-1.07.61-1.61a2.68,2.68,0,0,0,.17-.51l.1-.41c.06-.27.13-.55.21-.82a22.27,22.27,0,0,1,1.21-3.25,14.23,14.23,0,0,1,4.25-5.46,9.57,9.57,0,0,1,3.11-1.48,6.82,6.82,0,0,1,.81-.2,8.08,8.08,0,0,1,.86-.08,12.49,12.49,0,0,1,1.73,0,14.22,14.22,0,0,1,6.44,2,14.82,14.82,0,0,1,4.68,4.54,10.05,10.05,0,0,1,1.41,2.84,16.89,16.89,0,0,1,.54,9.06c-.11.48-.23,1-.38,1.42a5.44,5.44,0,0,1-.23.68l-.2.54c0,.09-.13.21,0,.28l.26.17.73.49.55.43a10.05,10.05,0,0,1,1,.95,12,12,0,0,1,3.15,9.41,16.93,16.93,0,0,1-.47,2.29,1.8,1.8,0,0,0,.16,1.26,3.72,3.72,0,0,0,.77.88,4.08,4.08,0,0,1,1.27,3.54,6.31,6.31,0,0,1-1.26,3.19,8.52,8.52,0,0,1-2.22,1.92,18.85,18.85,0,0,1-3.77,1.67l-1.38.44,1.39-.4a19,19,0,0,0,3.85-1.56,8.75,8.75,0,0,0,2.33-1.91,6.6,6.6,0,0,0,1.41-3.32,4.5,4.5,0,0,0-1.31-3.9,3,3,0,0,1-.66-.78,1.3,1.3,0,0,1-.09-.94,16.38,16.38,0,0,0,.52-2.31,12.54,12.54,0,0,0-3.14-10,11.47,11.47,0,0,0-1.06-1l-.58-.48-.48-.33s-.06,0,0-.07l.06-.16c.1-.23.18-.47.26-.71.16-.48.29-1,.41-1.48a18.12,18.12,0,0,0,.3-6.34,18.32,18.32,0,0,0-.75-3.22,11.2,11.2,0,0,0-1.48-3.08,15.83,15.83,0,0,0-5-4.89,15.1,15.1,0,0,0-6.91-2.17,12.83,12.83,0,0,0-1.86,0c-.32,0-.63,0-1,.08a8.8,8.8,0,0,0-.95.23,10.81,10.81,0,0,0-3.46,1.65,15.13,15.13,0,0,0-4.59,5.89,21.64,21.64,0,0,0-1.26,3.42c-.08.29-.16.58-.23.87l-.09.45a2.54,2.54,0,0,1-.12.32c-.21.55-.42,1.1-.61,1.65a21.19,21.19,0,0,0-1.38,6.81,10.69,10.69,0,0,0,2,6.43,11,11,0,0,0,2.25,2.37l.12.09s-.07.05-.11.08l-.6.38-.63.45a15.74,15.74,0,0,0-4,4.47,14.73,14.73,0,0,0-1.21,2.58,10.1,10.1,0,0,0-.63,2.7,4.13,4.13,0,0,0,.63,2.66,3.29,3.29,0,0,0,1,1,2.31,2.31,0,0,0,.62.28,2.22,2.22,0,0,0,.31.07.38.38,0,0,0,.15,0c.11,0,.12.16.11.24a.67.67,0,0,1-.19.29c-.24.25-.56.49-.86.75a2.07,2.07,0,0,0-.69,1.05,2.24,2.24,0,0,0,.09,1.21A5,5,0,0,0,226,354a4.88,4.88,0,0,1,1.08,1.56c.4,1.14-.36,2.37.12,3.52a2.21,2.21,0,0,0,1.21,1.07,10.31,10.31,0,0,0,1.37.44,14.69,14.69,0,0,0,4.12.48A10.77,10.77,0,0,0,235.32,361Z"/><path class="cls-6" d="M259.26,350l.14.89a8.67,8.67,0,0,1,0,2.54,5.33,5.33,0,0,1-1.81,3.28,6,6,0,0,1-2,1.11,3.71,3.71,0,0,1-1.19.19c-.45-.05-.54.1-1.55-.69l-.71,1.53a4.83,4.83,0,0,1-.67,1.11c-.14.18-.26.39-.41.57l-.53.52a6.11,6.11,0,0,1-1.2.93,3.69,3.69,0,0,1-.78.42c-.28.12-.53.26-.81.35a10.18,10.18,0,0,1-1.69.42l-.84.13c-.28,0-.57,0-.85,0a10,10,0,0,1-1.64,0,19.5,19.5,0,0,1-5.59-1.28,19.7,19.7,0,0,1-3.5-1.75l-1.18-.85,1.08,1a18,18,0,0,0,3.38,2.12,18.59,18.59,0,0,0,5.72,1.7,11.2,11.2,0,0,0,1.75.1c.3,0,.61,0,.91,0l.93-.12a11.82,11.82,0,0,0,1.88-.43c.31-.1.6-.26.91-.39a3.79,3.79,0,0,0,.89-.47,6.84,6.84,0,0,0,1.39-1.09l.59-.6c.18-.21.31-.45.46-.66a5.73,5.73,0,0,0,.72-1.28l.12-.3a1.57,1.57,0,0,0,.08-.2s0,0,0-.05a3.12,3.12,0,0,0,1.14.18,4.73,4.73,0,0,0,1.45-.3,6.48,6.48,0,0,0,2.22-1.4,5.69,5.69,0,0,0,1.72-3.75,8.31,8.31,0,0,0-.23-2.6Z"/><path class="cls-3" d="M231.44,242.81c-6.61,5.07-11,12.63-13.55,20.54s-.58,48.52-.58,48.52,22,8.51,44.39-3.78c0,0-8.22-50.49-30.26-65.28"/><path class="cls-20" d="M217.89,263.35l-.24.93c-.06.31-.19.68-.26,1.14s-.15,1-.23,1.57a100.22,100.22,0,0,0-.72,10.1c-.28,8.55-.15,20.36.42,33.4l.06,1.28v.31c0,.06,0,.08.09.09l.14.05.42.15.58.2c.77.24,1.55.47,2.32.67,1.55.4,3.1.71,4.62,1A61.74,61.74,0,0,0,234,315a55.78,55.78,0,0,0,14.93-1.75,55.09,55.09,0,0,0,9.5-3.5l3.3-1.7-3.35,1.59a57.33,57.33,0,0,1-9.55,3.23A56.75,56.75,0,0,1,234,314.39a63.46,63.46,0,0,1-8.76-.89c-1.5-.28-3-.59-4.54-1-.77-.2-1.53-.42-2.29-.66l-.71-.24-.06-1.15c-.57-13-.88-24.82-.8-33.35,0-4.27.21-7.72.45-10.1l.19-1.57c.06-.46.17-.83.23-1.14Z"/><path class="cls-26" d="M102.73,111.13a3.87,3.87,0,0,0-2.78-2.5,50.62,50.62,0,0,0-40.36,8.06c-9.91,7.1-16.88,17.54-26,25.6-8.87,7.79-21.63,13.29-32.42,8.86C6.72,161.37,18,167.34,29.38,169.9c17.56,4,36.9.75,51.49-9.79s23.84-28.56,22.62-46.53c0-.79-.13-1.62-.24-2.51Z"/><path class="cls-27" d="M.81,151.19C6.39,161.41,17.69,167.38,29.05,170c17.56,4,36.9.74,51.49-9.8s23.84-28.56,22.62-46.53c0-.65-.11-1.34-.19-2.08a60.8,60.8,0,0,1-18,36,70,70,0,0,1-39.56,18.81A45.46,45.46,0,0,1,29,166c-8.18-1.95-15.31-7-21.08-13.21A20.83,20.83,0,0,1,.81,151.19Z"/><path class="cls-28" d="M100,108.63a3.87,3.87,0,0,1,2.78,2.5l.52-.06c-.66-5.61-2.43-12.9-6-16.69-8.7-9.17-28.36-6-38.37-1.55C49.38,97,41.4,104,34.76,111.9,26,122.35,18.82,135,6.62,141.14c-2.9,1.44-6.5,3.15-6.62,6.37a7,7,0,0,0,1.09,3.55l0,.09c10.79,4.43,23.55-1.07,32.42-8.86,9.15-8.06,16.12-18.5,26-25.6A50.62,50.62,0,0,1,100,108.63Z"/><path class="cls-4" d="M275.72,167.48c12.28-34.43,4.33-76.43-20-103.95a62.46,62.46,0,0,0-21.28-15.79C208,36,176.33,32.74,148,37.49c-26.45,4.43-51.69,16.86-69.52,37.29C67.52,87.32,65,103.1,66.08,119.28c1.06,16.33,5.25,32.36,5.88,48.7.3,7.81.7,22.2,2.52,29.8,5.09,21.32,36.29,34,55.55,37.56C178.1,244.27,242,227,268.72,182.71A84,84,0,0,0,275.72,167.48Z"/><g class="cls-29"><path class="cls-30" d="M239.37,149.73a28.51,28.51,0,0,1-9.67,9A42.13,42.13,0,0,1,210,164.18a35.36,35.36,0,0,1-16.65-3.28c-6.08-3-9.81-8.39-14.56-13,5.72,3,12.24,3.94,18.67,4.41,8.58.62,18.78-.78,26.51-4.78,8.25-4.27,11.48-5.4,16.83-12.87C242.35,140.25,241.65,146.14,239.37,149.73Z"/></g><path class="cls-23" d="M66.08,119.28a7.27,7.27,0,0,0,0,1.51c0,1,.12,2.43.27,4.29.31,3.72,1,9.09,2,15.69s2.25,14.44,2.87,23.21.48,18.52,1.79,28.67a41.67,41.67,0,0,0,1.57,7.47,28.88,28.88,0,0,0,3.23,6.71A42.36,42.36,0,0,0,87.29,217a84.9,84.9,0,0,0,20.5,11.48,138,138,0,0,0,15,5.09c1.8.5,3.21.85,4.17,1.07a6.63,6.63,0,0,0,1.47.27,7.28,7.28,0,0,0-1.41-.5l-4.1-1.27c-3.55-1.14-8.68-2.82-14.8-5.42A86.28,86.28,0,0,1,88,216.2a41.66,41.66,0,0,1-9.22-10,28.26,28.26,0,0,1-3.09-6.46,41.54,41.54,0,0,1-1.52-7.26c-1.29-10.06-1.29-19.76-1.87-28.59s-2.07-16.68-3.13-23.27S67.25,128.73,66.8,125c-.21-1.85-.37-3.29-.49-4.26A7.22,7.22,0,0,0,66.08,119.28Z"/><g class="cls-29"><path class="cls-31" d="M74.57,197.89c4.19,17.53,24.36,26.87,39.65,32.56C158.8,247,218.4,235.54,253,202.39a90.62,90.62,0,0,0,22.81-34.82c12.27-34.41,4.33-76.42-20-103.94a62.31,62.31,0,0,0-21.28-15.78c-2.48-1.11-5-2.12-7.54-3.07,21.67,17.42,35.52,44.49,36,72.3.48,30.78-14.89,68-41.06,84.17-17.51,10.86-32.33,24.2-52.75,27.49-8.82,1.43-22.61,1.4-28.42-7.05a22.39,22.39,0,0,0,1.71,5.54c-4.65-1.93-50.36-10.8-63.25-33.75-2-3.56-4.47-6.74-6-10.46A69.13,69.13,0,0,0,74.57,197.89Z"/></g><path class="cls-23" d="M74.48,197.78a4.61,4.61,0,0,0,.19.9,20,20,0,0,0,.79,2.57,29.34,29.34,0,0,0,5.17,8.94,50.05,50.05,0,0,0,12.44,10.62,122.13,122.13,0,0,0,19.51,9.46,112,112,0,0,0,25.32,7,95.25,95.25,0,0,0,14.64,1c5-.05,10.21-.41,15.5-.92s10.7-1.08,16.19-2a156.58,156.58,0,0,0,16.62-3.76,136.69,136.69,0,0,0,32.89-14.07A104.54,104.54,0,0,0,261,194.39a87.1,87.1,0,0,0,16-29.15,101.77,101.77,0,0,0,4.85-29.74,109.56,109.56,0,0,0-2.77-26.12,103.77,103.77,0,0,0-6.89-20.55l-1-2.15c-.32-.7-.7-1.36-1-2-.69-1.32-1.36-2.58-2-3.79-1.35-2.38-2.72-4.47-3.88-6.39l-3.49-4.85a20.93,20.93,0,0,0-1.48-1.88c-.47-.56-.89-1.06-1.28-1.51l-1.75-2a6.32,6.32,0,0,0-.62-.67,4.77,4.77,0,0,0,.53.74l1.66,2.12,1.24,1.54a22.07,22.07,0,0,1,1.43,1.91l3.38,4.89c1.13,1.93,2.46,4,3.78,6.41l1.94,3.79c.32.66.69,1.32,1,2l.92,2.14a105.08,105.08,0,0,1,6.69,20.47,110.52,110.52,0,0,1,2.61,25.92A101.43,101.43,0,0,1,276,164.91a86.53,86.53,0,0,1-15.89,28.76,103.55,103.55,0,0,1-26.94,22.87,136.21,136.21,0,0,1-32.6,14,154.91,154.91,0,0,1-16.49,3.76c-5.45.95-10.85,1.52-16.11,2.06s-10.42.89-15.42,1a93.74,93.74,0,0,1-14.49-1,112.33,112.33,0,0,1-25.15-6.82,124,124,0,0,1-19.46-9.25A50.63,50.63,0,0,1,81,209.91a30.33,30.33,0,0,1-5.3-8.74,24.64,24.64,0,0,1-.89-2.52A6.27,6.27,0,0,0,74.48,197.78Z"/><path class="cls-6" d="M141.31,224.37s.09.44.32,1.23a15.86,15.86,0,0,0,1.37,3.19,17.71,17.71,0,0,0,8.62,7.56A25.34,25.34,0,0,0,163,237.84c1.46-.12,2.63-.29,3.43-.43l1.24-.23H166.4c-.81,0-2,0-3.42-.05a32.89,32.89,0,0,1-10.84-2.08,20.24,20.24,0,0,1-8.55-6.65,19.25,19.25,0,0,1-1.76-2.89C141.48,224.79,141.31,224.37,141.31,224.37Z"/><path class="cls-32" d="M195.37,80.72l-.76.42c-.9.52-2,1-2.94.65a2.59,2.59,0,0,1-1.35-2c-1.25-6.41,8.75-9.67,13.29-10.41a26.56,26.56,0,0,1,13.11,1.11,26,26,0,0,1,9,5.36,23.76,23.76,0,0,1,4.39,5.29,15.48,15.48,0,0,1,.88,1.61l.28.58-.54-.34c-.34-.23-.86-.55-1.52-.94a36.79,36.79,0,0,0-5.68-2.73A35,35,0,0,0,205,77.49,29.4,29.4,0,0,0,195.37,80.72Z"/><path class="cls-32" d="M97.84,92.27a8.18,8.18,0,0,1,2,3.42,3.1,3.1,0,0,1,0,1.68A2.72,2.72,0,0,1,97.22,99a7.49,7.49,0,0,1-3.14-.92,20.35,20.35,0,0,0-6.16-2.27,18.14,18.14,0,0,0-2.75-.12,16.39,16.39,0,0,0-2.72.36A25.32,25.32,0,0,0,77.3,97.8c-1.54.68-2.82,1.39-3.73,1.88l-1.43.8a12.08,12.08,0,0,1,.44-1.61,18.2,18.2,0,0,1,2-4.13,16.25,16.25,0,0,1,5.1-5A14,14,0,0,1,83.88,88a14.25,14.25,0,0,1,5-.29A15.49,15.49,0,0,1,97.84,92.27Z"/><path class="cls-33" d="M213.07,151.11c-10.76,3.45-22.74,1-33.3-3l-.08-.8c-.43-17.52,5.14-36.14,20.72-45.95,8.55-5.39,20.33-7,28.86-.85,10,7.17,13.29,22.62,11.57,34.13C240.84,134.67,235.2,144,213.07,151.11Z"/><path class="cls-34" d="M183.18,122c-2.87,9,.24,19.3,6.73,26.15,11,11.62,32.38,3.77,36.13-10.53C235.27,102.41,192.19,93.74,183.18,122Z"/><path class="cls-35" d="M183.18,122c-2.87,9,.24,19.3,6.73,26.15,11,11.62,32.38,3.77,36.13-10.53C235.27,102.41,192.19,93.74,183.18,122Z"/><path class="cls-36" d="M189.75,124.15c-2,6.28.17,13.47,4.7,18.26,7.68,8.11,22.6,2.63,25.23-7.36C226.12,110.51,196,104.45,189.75,124.15Z"/><path class="cls-37" d="M195.19,114.33c2.3,1,2.64,5.28.74,9.48s-5.29,6.76-7.6,5.72-2.63-5.29-.74-9.48S192.88,113.29,195.19,114.33Z"/><path class="cls-32" d="M179.69,147.34s0-.42.1-1.23.14-2,.34-3.51A72,72,0,0,1,182.66,130c.19-.64.39-1.3.6-2l.73-2c.13-.34.25-.68.38-1s.29-.69.44-1c.31-.69.59-1.41.92-2.11a49.3,49.3,0,0,1,5.07-8.44,38.34,38.34,0,0,1,7.52-7.6,23.4,23.4,0,0,1,2.28-1.62l1.17-.79,1.21-.7a33,33,0,0,1,5.23-2.27,26.69,26.69,0,0,1,10.95-1.29,24.11,24.11,0,0,1,2.59.41,21.78,21.78,0,0,1,2.45.76,19.61,19.61,0,0,1,2.29,1,19.14,19.14,0,0,1,2.07,1.32,24.75,24.75,0,0,1,6.38,7,36.74,36.74,0,0,1,3.6,7.79,42.69,42.69,0,0,1,1.73,7,46.9,46.9,0,0,1,.59,5.49c0,1.51.07,2.71,0,3.51s0,1.23,0,1.23l.25-1.2c.18-.8.36-2,.54-3.52a41.83,41.83,0,0,0,.2-5.66,40.28,40.28,0,0,0-.89-7.51,35.76,35.76,0,0,0-3-8.8,26.52,26.52,0,0,0-6.77-8.64,22.39,22.39,0,0,0-2.46-1.78,24.06,24.06,0,0,0-2.77-1.42,25.46,25.46,0,0,0-3-1.08,27.18,27.18,0,0,0-3.16-.63,29.22,29.22,0,0,0-13.1,1.29,34.3,34.3,0,0,0-6.08,2.71l-1.41.85-1.31.92a27.78,27.78,0,0,0-2.52,1.91,38.67,38.67,0,0,0-8,8.91,47.34,47.34,0,0,0-4.78,9.55c-.29.78-.52,1.57-.77,2.33l-.36,1.13c-.09.38-.19.76-.28,1.13q-.28,1.13-.54,2.19c-.14.72-.27,1.43-.4,2.12a60.41,60.41,0,0,0-.88,13.1c0,1.54.17,2.74.23,3.54S179.69,147.34,179.69,147.34Z"/><path class="cls-32" d="M240.85,134.67l-1.79,2c-.29.31-.6.66-.94,1s-.8.72-1.24,1.13a29.37,29.37,0,0,1-3.1,2.6l-1.89,1.38c-.65.48-1.42.85-2.16,1.32a45.85,45.85,0,0,1-5,2.54,58.63,58.63,0,0,1-12.2,3.58,75.86,75.86,0,0,1-12.75,1c-2-.09-3.86-.1-5.61-.32-.88-.09-1.73-.15-2.55-.25l-2.33-.35c-1.5-.19-2.82-.5-4-.74l-1.65-.34-1.36-.36-2.55-.66,2.43,1,1.32.55,1.6.54c1.15.38,2.46.86,3.95,1.2l2.34.59c.82.18,1.68.32,2.57.48,1.78.37,3.71.52,5.74.73a57.78,57.78,0,0,0,13.28-.6,49,49,0,0,0,12.67-4.13,39.82,39.82,0,0,0,5-3c.74-.54,1.49-1,2.12-1.56l1.82-1.62a26,26,0,0,0,2.86-3c.4-.47.8-.87,1.1-1.3l.81-1.17Z"/><path class="cls-32" d="M107.56,145.87l.1-2.08a49.69,49.69,0,0,0-.2-5.68,48.48,48.48,0,0,0-5.34-18,41.34,41.34,0,0,0-2.86-4.58,21.73,21.73,0,0,0-3.43-3.75,19.42,19.42,0,0,0-7.49-4,22.34,22.34,0,0,0-5.65-.82c-.67,0-1.19,0-1.54,0l-.53,0,.53,0c.35,0,.87,0,1.53.13a24.22,24.22,0,0,1,5.44,1.26,20.17,20.17,0,0,1,6.93,4.26,31.34,31.34,0,0,1,5.84,8.12,57.86,57.86,0,0,1,5.87,17.4c.41,2.34.57,4.27.68,5.59S107.56,145.87,107.56,145.87Z"/><path class="cls-33" d="M75.41,150.93c4.34,6.41,19.71,11.11,32.54,5.49-.72-12.07-1.89-24.75-8.73-34.72a20.45,20.45,0,0,0-8-7.25c-3.31-1.51-7.39-1.64-10.46.3a13.22,13.22,0,0,0-4.59,5.64c-4.57,9.52-2.6,20.73-.54,31.08Z"/><path class="cls-38" d="M72.83,130.13c-.71,7.21,1.86,16.14,5.9,22.55,6.86,10.87,17.45,6.58,18.15-5C98.61,119.33,75.06,107.52,72.83,130.13Z"/><path class="cls-35" d="M72.83,130.13c-.71,7.21,1.86,16.14,5.9,22.55,6.86,10.87,17.45,6.58,18.15-5C98.61,119.33,75.06,107.52,72.83,130.13Z"/><path class="cls-36" d="M76.5,132.66c-.5,5,1.3,11.27,4.12,15.75C85.41,156,92.8,153,93.29,144.94,94.5,125.12,78.06,116.88,76.5,132.66Z"/><path class="cls-37" d="M79.14,135.66c-1.63,1.16-3.31-.14-3.76-2.91s.51-6,2.13-7.12,3.31.15,3.76,2.92S80.77,134.5,79.14,135.66Z"/><path class="cls-32" d="M75.65,151.47s-.16-1.35-.44-3.79-.67-6-.75-10.32a36.6,36.6,0,0,1,2.4-14.56c1.07-2.5,2.54-5,4.7-6.41a9.2,9.2,0,0,1,7.81-.66,16.33,16.33,0,0,1,7,5.11,36.07,36.07,0,0,1,4.68,7.27,61.36,61.36,0,0,1,4.66,14.3c.89,4.26,1.38,7.79,1.74,10.22s.54,3.79.54,3.79,0-1.37,0-3.83,0-6-.47-10.46a54,54,0,0,0-3.63-15.32,35.73,35.73,0,0,0-4.79-8.25,18.83,18.83,0,0,0-8.55-6.38,13.86,13.86,0,0,0-5.64-.67,11.28,11.28,0,0,0-5.35,1.9A13.18,13.18,0,0,0,76,117.32a20.7,20.7,0,0,0-1.15,2.17c-.32.73-.6,1.46-.88,2.17a30.41,30.41,0,0,0-1.61,8.47,43.38,43.38,0,0,0,.28,7.36,80.41,80.41,0,0,0,2,10.29C75.26,150.17,75.65,151.47,75.65,151.47Z"/><g class="cls-29"><path class="cls-39" d="M79.65,163c3.42,4.72,9.36,4.94,14.48,3.3a29.09,29.09,0,0,0,7.57-3.81,19.7,19.7,0,0,0,3.16-2.53c.85-.92,1.65-3,2.75-3.56-4,1.95-8.62,2.19-13.08,2.22a39.64,39.64,0,0,1-9.36-.75A15.87,15.87,0,0,1,77,153.41C77.17,156.76,77.68,160.25,79.65,163Z"/></g><path class="cls-32" d="M75.41,150.93l.72,1.21c.25.37.62.79,1,1.3s1,1,1.62,1.51a23,23,0,0,0,5,3,28.72,28.72,0,0,0,6.81,1.91,27.84,27.84,0,0,0,12.66-1.16l2-.82a16.31,16.31,0,0,0,1.47-.75l1.22-.67-1.36.31c-.44.09-.94.27-1.57.35l-2.09.36a44.79,44.79,0,0,1-12-.09,49.1,49.1,0,0,1-6.43-1.41,32.06,32.06,0,0,1-5-2c-.67-.37-1.27-.74-1.79-1.07s-.94-.68-1.27-1Z"/><path class="cls-40" d="M76.4,77.41h0a15.08,15.08,0,0,0,4.17-1.08,10.52,10.52,0,0,0,5.81-5.83,30.56,30.56,0,0,0,6.76.19c2.86-.23,6.1-1.18,7.24-3.83a6,6,0,0,1,.43-.93c-5.69-7.4-5.45-18.19-2.7-27.26l1.4-2.13a14.94,14.94,0,0,1,1.11-1.94,11.84,11.84,0,0,0-12.6,3,14.3,14.3,0,0,0-2.39,3.73,19.46,19.46,0,0,0-1.53,10.91,16.51,16.51,0,0,0-16.49,16.7,5.47,5.47,0,0,1-.34,2.59A5.81,5.81,0,0,1,66,73c-3.26,3.06-4.41,7.93-3.76,12.36a26.52,26.52,0,0,0,5,11.33A35.23,35.23,0,0,1,76.4,77.41Z"/><path class="cls-41" d="M67.83,95.52a35.19,35.19,0,0,1,9-18.5h0A15.42,15.42,0,0,0,81.06,76a10.57,10.57,0,0,0,5.8-5.83,31.29,31.29,0,0,0,6.77.19c2.86-.23,6.09-1.19,7.23-3.84a7.08,7.08,0,0,1,.44-.92c-3.44-4.48-4.72-10.17-4.58-16a16,16,0,0,1-1-4.54,40.79,40.79,0,0,0-5.82,17.3,13.49,13.49,0,0,1-10.58-2.23c.42,1.74.82,3.47,1.23,5.22-2.27,1-4.55,2.12-6.83,3.19l2.61,2.56c-6.18,2.63-8,10.46-8.38,17.19Q67.74,91.88,67.83,95.52Z"/><path class="cls-42" d="M264.57,71.37a10.75,10.75,0,0,0,8.45,3l-.2-1.74a16.83,16.83,0,0,0-6.88-20.3c1.68-9.46-4.19-19.32-12.68-23.78s-18.94-4.11-27.88-.66c-.76-5.27-6.66-9-11.75-7.87a9.58,9.58,0,0,0-3.18-9.73,9.45,9.45,0,0,0-11.3,0A16,16,0,0,0,187.86.9a18.24,18.24,0,0,0-14.42,3.24c-1.3,1-2.56,2.11-4.16,2.35a8.09,8.09,0,0,1-3.56-.58c-8.8-2.85-18-5.7-27.11-4.15s-17.9,9-17.67,18.29a8.27,8.27,0,0,0-7.72,7.28,16.41,16.41,0,0,0-12.59,7.27,14.94,14.94,0,0,0-1.11,1.94l-1.4,2.13c-2.75,9.07-3,19.86,2.7,27.26.36.45.72.88,1.11,1.31A22.55,22.55,0,0,0,116.79,74a35.13,35.13,0,0,0,16.26-3,48.6,48.6,0,0,0,12.52-7.7l.19.22c.67-.56,1.33-1.14,2-1.71l-2.28,2.86c15.69,3.85,34.88.4,47.52-8.84a37.46,37.46,0,0,0,8.83-8.71,26.23,26.23,0,0,0,22.22,12,17.38,17.38,0,0,0,9.5-2.72A7.83,7.83,0,0,0,242.64,63a40.37,40.37,0,0,0,4.7,8.46,13.65,13.65,0,0,0,7.91,5.25,8.26,8.26,0,0,0,8.46-3.36A8.41,8.41,0,0,0,264.57,71.37Z"/><path class="cls-43" d="M100.82,65.93c.36.45.72.88,1.11,1.31A22.55,22.55,0,0,0,116.79,74a35.13,35.13,0,0,0,16.26-3,48.6,48.6,0,0,0,12.52-7.7l.19.22c.67-.56,1.33-1.14,2-1.71l-2.28,2.86c15.69,3.85,34.88.4,47.52-8.84a37.46,37.46,0,0,0,8.83-8.71,26.23,26.23,0,0,0,22.22,12,17.38,17.38,0,0,0,9.5-2.72A7.83,7.83,0,0,0,242.64,63a40.37,40.37,0,0,0,4.7,8.46,13.65,13.65,0,0,0,7.91,5.25,8.26,8.26,0,0,0,8.46-3.36,8.41,8.41,0,0,0,.86-1.93,10.76,10.76,0,0,0,8.45,3l-.2-1.74a16,16,0,0,0,.83-9,4.58,4.58,0,0,1-1.1.62,5,5,0,0,1-6-2.09c-.34,4.11-5.57,6.29-9.49,5s-6.69-4.68-9.15-8c-2.58,1.5-6.07-.27-7.47-2.92s-1.31-5.8-1.17-8.79c-3.62,4.11-9.66,5.41-15.05,4.5s-10.26-3.73-14.8-6.79a5.27,5.27,0,0,1-1.6-1.4,5.65,5.65,0,0,1-.68-2.66c-.31-3.63-.63-7.26-.94-10.89-.44,7-6.51,12.29-12.57,15.81A74.92,74.92,0,0,1,152.27,56a25,25,0,0,0,6.49-15.79c-1.48,8.33-9.75,13.45-17.43,17-8.51,3.88-17.78,7.17-27.05,5.94C106.57,62,99,57,96.24,49.94,96.11,55.77,97.39,61.46,100.82,65.93Z"/><path class="cls-23" d="M98.11,38.67a3.67,3.67,0,0,0-.37.92c-.23.61-.49,1.54-.8,2.73a37.55,37.55,0,0,0-1,10.43,27,27,0,0,0,1.26,7.18,21,21,0,0,0,4.1,7.34c3.91,4.57,10.46,7.38,17.32,7.41a39,39,0,0,0,18.36-5,49.5,49.5,0,0,0,12.39-9.38,46.25,46.25,0,0,0,6.38-8.3c.63-1.06,1.09-1.91,1.36-2.5s.42-.9.38-.92a3.53,3.53,0,0,0-.58.81c-.34.55-.86,1.35-1.54,2.37a52.65,52.65,0,0,1-6.59,8,50.41,50.41,0,0,1-12.3,9c-5.09,2.62-11.24,4.79-17.85,4.74s-12.8-2.69-16.53-7a20.42,20.42,0,0,1-4-6.93,27.15,27.15,0,0,1-1.35-6.93,41.34,41.34,0,0,1,.66-10.28A35.78,35.78,0,0,0,98.11,38.67Z"/><path class="cls-23" d="M140.33,68.15a13.58,13.58,0,0,0,2.08-1.53c1.31-1.05,3.21-2.6,5.58-4.56l-.49-.47L146.36,63l-.61.75-.51.63-.26.33-.13.16s-.07.06,0,.07l.1,0,2.58.57c.69.17,1.41.29,2.15.41a55.67,55.67,0,0,0,9.77.78,62.62,62.62,0,0,0,23.06-4.45,48.11,48.11,0,0,0,16.59-11,29.26,29.26,0,0,0,5.09-7.14,20.58,20.58,0,0,0,2.07-7.36A22.32,22.32,0,0,0,204.48,26c-.12-.3-.23-.58-.33-.85s-.25-.5-.37-.72l-.58-1.12a3.63,3.63,0,0,0-.54-.89,3.86,3.86,0,0,0,.33,1l.48,1.16c.09.23.2.47.31.73s.18.56.28.86a22.87,22.87,0,0,1,1.34,10.57,19.93,19.93,0,0,1-2.12,7,28,28,0,0,1-5,6.82A47.85,47.85,0,0,1,182,61.18a63.09,63.09,0,0,1-22.63,4.49,55.81,55.81,0,0,1-9.62-.61c-.73-.1-1.44-.21-2.12-.36l-1.44-.28s.1-.16.15-.24l.57-.74c.38-.49.74-1,1.1-1.42l-.49-.48c-2.31,2-4.14,3.67-5.38,4.8A15,15,0,0,0,140.33,68.15Z"/><path class="cls-23" d="M99.52,36.53a9.47,9.47,0,0,0,.81-1.25,16.89,16.89,0,0,1,8.41-6.68,15.72,15.72,0,0,1,4-.86l.46,0c.14,0,.36,0,.33-.18s.07-.52.11-.79a8.62,8.62,0,0,1,.31-1.07,7.86,7.86,0,0,1,1.11-2,8.1,8.1,0,0,1,4-2.82,7.63,7.63,0,0,1,1.26-.27l.51,0,.31,0c.09,0,.26,0,.22-.11,0-.36,0-.72,0-1.08a13.08,13.08,0,0,1,.37-2.76,17.74,17.74,0,0,1,6.8-9.8A23.58,23.58,0,0,1,141.07,2a44.54,44.54,0,0,1,14.51,1.48c2.45.61,4.85,1.33,7.21,2.07l3.52,1.12a6.2,6.2,0,0,0,3.91.14,11.89,11.89,0,0,0,3.17-2,18.88,18.88,0,0,1,2.86-1.82,18,18,0,0,1,6.26-1.89,16.34,16.34,0,0,1,6.18.47,16,16,0,0,1,5.23,2.62,15.14,15.14,0,0,1,3.71,4c.24.37.45.76.65,1.14.11.2.16.33.34.74l.23.53a2.68,2.68,0,0,0,.12.24l.23-.16.85-.61.52-.31a9.1,9.1,0,0,1,9.36.45,9,9,0,0,1,3.55,5.37,9.67,9.67,0,0,1,.07,4.18c-.2.95-.42,1.42-.37,1.45s.09-.11.2-.34a6.73,6.73,0,0,0,.4-1.05,9.24,9.24,0,0,0,.14-4.33,9.37,9.37,0,0,0-3.61-5.81,9.79,9.79,0,0,0-8.92-1.19,10,10,0,0,0-1.22.53l-.58.33a2.16,2.16,0,0,1-.22.14l0,0s0,0,0,0l0-.08s-.11-.28-.21-.47a13.4,13.4,0,0,0-.68-1.22,15.79,15.79,0,0,0-3.88-4.31A16.71,16.71,0,0,0,189,.66,17.2,17.2,0,0,0,182.39.1a19.08,19.08,0,0,0-6.64,2,20.11,20.11,0,0,0-3,1.91,10.83,10.83,0,0,1-2.86,1.78,5.1,5.1,0,0,1-3.21-.16l-3.51-1.12c-2.36-.75-4.78-1.48-7.27-2.1A45.19,45.19,0,0,0,141,.9a24.56,24.56,0,0,0-13,5,18.68,18.68,0,0,0-7.09,10.43,14.33,14.33,0,0,0-.36,2.95v.34s0,0-.07,0h-.19a9.73,9.73,0,0,0-1.42.32,8.8,8.8,0,0,0-5.57,5.44,8.69,8.69,0,0,0-.31,1.19l0,.36c0,.07-.11,0-.17.05a15.84,15.84,0,0,0-4.21,1,16.59,16.59,0,0,0-5.76,3.73,14.52,14.52,0,0,0-2.62,3.44,9.54,9.54,0,0,0-.49,1C99.54,36.4,99.5,36.53,99.52,36.53Z"/><path class="cls-23" d="M101.54,35a3.84,3.84,0,0,0-1.58-.84,11.17,11.17,0,0,0-4.86-.54,12.1,12.1,0,0,0-6.69,2.88A16,16,0,0,0,84,44.2a21,21,0,0,0,2.25,15.65,18,18,0,0,0,3,3.8c.86.76,1.38,1.12,1.43,1.06S88.84,63,87,59.45a21.4,21.4,0,0,1-2.19-6.56,20.55,20.55,0,0,1,.35-8.39,15.52,15.52,0,0,1,4-7.23,11.74,11.74,0,0,1,6.08-2.87,12.66,12.66,0,0,1,4.63.16A9.21,9.21,0,0,0,101.54,35Z"/><path class="cls-23" d="M84.59,52.25a5.84,5.84,0,0,0-2.29-.13,16,16,0,0,0-6,1.67,16.4,16.4,0,0,0-6.82,6.35,17.06,17.06,0,0,0-2.39,8.13A10.63,10.63,0,0,1,66.87,71c-.21.71-1.06,1.24-1.76,2a12.71,12.71,0,0,0-1.77,2.42,14.66,14.66,0,0,0-1.7,5.34A18.48,18.48,0,0,0,63,90a25.76,25.76,0,0,0,3.08,5.43,7.41,7.41,0,0,0,1.49,1.73,10.35,10.35,0,0,0-1.11-2,31,31,0,0,1-2.69-5.48,18.26,18.26,0,0,1-1.09-8.78A13.59,13.59,0,0,1,64.33,76a11,11,0,0,1,1.61-2.18c.32-.34.65-.64,1-1a3.66,3.66,0,0,0,1-1.43,10.81,10.81,0,0,0,.24-3.1,16.36,16.36,0,0,1,2.16-7.63,16,16,0,0,1,6.27-6.16,17.45,17.45,0,0,1,5.71-2A18,18,0,0,0,84.59,52.25Z"/><path class="cls-23" d="M212.2,20.46a12.74,12.74,0,0,1,3.75-.41,10.41,10.41,0,0,1,4.17,1.27c.37.2.73.47,1.11.71a12.89,12.89,0,0,1,1.07.91,9.07,9.07,0,0,1,1.81,2.42,9,9,0,0,1,.61,1.49c0,.13.06.27.09.4l.15.7c-.07.82.64.25,1.11.15.65-.22,1.16-.42,1.77-.59s1.2-.37,1.83-.51a39.17,39.17,0,0,1,8.1-1.21,33.46,33.46,0,0,1,9,.89,26.16,26.16,0,0,1,8.77,3.91,24.07,24.07,0,0,1,9.9,15.2,16.92,16.92,0,0,1,.25,2.1,14,14,0,0,1,0,2,6.63,6.63,0,0,1-.06,1c-.05.35-.09.69-.13,1l-.06.48s0,.07,0,.11l.1.06.19.13.55.35a7.25,7.25,0,0,1,.79.53,15.8,15.8,0,0,1,4.55,5.3,17.16,17.16,0,0,1,2,9.94c-.28,2.43-.87,3.7-.75,3.74s.19-.29.45-.9a8,8,0,0,0,.39-1.15,11.11,11.11,0,0,0,.36-1.63,17,17,0,0,0-1.7-10.38,16.52,16.52,0,0,0-4.7-5.7c-.48-.38-1.38-.87-1.15-.82a15.36,15.36,0,0,0,.22-2,14.29,14.29,0,0,0,0-2.17,16.91,16.91,0,0,0-.23-2.21,24.9,24.9,0,0,0-10.3-16A26.94,26.94,0,0,0,247,25.57a33.81,33.81,0,0,0-9.27-.85,39.34,39.34,0,0,0-8.31,1.34c-1.25.34-2.52.77-3.58,1.17-.05,0-.15.1-.15,0l0-.17a3.15,3.15,0,0,0-.11-.44,9.3,9.3,0,0,0-.7-1.64,9.56,9.56,0,0,0-2-2.56,11.32,11.32,0,0,0-1.17-.95c-.41-.25-.8-.51-1.21-.71A10.3,10.3,0,0,0,216,19.6a9.35,9.35,0,0,0-1.67.11,11.65,11.65,0,0,0-1.19.31A3.85,3.85,0,0,0,212.2,20.46Z"/><path class="cls-23" d="M201.53,46.63a5.91,5.91,0,0,0,.9,1.75,22.82,22.82,0,0,0,3.43,4.12,26.56,26.56,0,0,0,6.55,4.56,26.13,26.13,0,0,0,9.44,2.56,20.21,20.21,0,0,0,9.69-1.51,12.09,12.09,0,0,0,5.93-5.41,9.54,9.54,0,0,0,1.13-5.3,3.66,3.66,0,0,0-.54-1.9c-.1,0,.09.7.08,1.92a9.77,9.77,0,0,1-1.39,4.88,11.49,11.49,0,0,1-5.64,4.82,19.76,19.76,0,0,1-9.17,1.34,26.38,26.38,0,0,1-9.07-2.37,28.08,28.08,0,0,1-6.46-4.2C203.09,49,201.72,46.5,201.53,46.63Z"/><path class="cls-23" d="M233.53,56.23a3.61,3.61,0,0,0,.27,2,7.92,7.92,0,0,0,3.57,4.23,8,8,0,0,0,3.78,1.11,8.23,8.23,0,0,0,1.1-.07h.1v0l.06.15c.3.66.61,1.33.92,2A25.34,25.34,0,0,0,249,74a13.41,13.41,0,0,0,4.52,2.75,9.68,9.68,0,0,0,5,.44,8.66,8.66,0,0,0,4.11-1.88,7.31,7.31,0,0,0,2.19-3.27,20.8,20.8,0,0,0,.76-3c.16-.9.3-1.67.42-2.3a7.21,7.21,0,0,0,.23-2,6.26,6.26,0,0,0-.67,1.89l-.62,2.25a25.18,25.18,0,0,1-.88,2.91A6.75,6.75,0,0,1,262,74.58a7.77,7.77,0,0,1-3.67,1.56c-2.84.51-6.06-.72-8.53-3a25.25,25.25,0,0,1-5.44-7.88l-1-2c-.12-.27-.24-.53-.37-.8,0-.11-.1-.07-.19-.06l-.24,0-.45.08a6,6,0,0,1-.94.08,7.27,7.27,0,0,1-3.39-.86,8,8,0,0,1-3.55-3.68C233.7,56.94,233.64,56.22,233.53,56.23Z"/><path class="cls-23" d="M264.1,70.86c-.11.1.15.66.84,1.38A8.94,8.94,0,0,0,272,74.81c1-.1,1.55-.37,1.52-.52,0-.33-2.36-.11-4.94-1.08S264.36,70.63,264.1,70.86Z"/><path class="cls-23" d="M101.27,65.52c0-.07-.41,0-.75.49a9.14,9.14,0,0,1-1.2,1.79,6.61,6.61,0,0,1-2.61,1.6,14.89,14.89,0,0,1-3.82.73c-5.68.46-10.24-.72-10.32-.38,0,.14,1.05.63,2.92,1a26,26,0,0,0,7.49.5,13.78,13.78,0,0,0,4.12-.89A6.79,6.79,0,0,0,100,68.33a6.22,6.22,0,0,0,1-2.11C101.07,65.76,101.3,65.6,101.27,65.52Z"/><path class="cls-23" d="M86.63,69.72c-.18,0-.48,1-1.43,2.26a11.69,11.69,0,0,1-4.84,3.81,18.62,18.62,0,0,1-6.16,1.33c-1.65.1-2.69.08-2.71.26s1,.45,2.71.56a14.76,14.76,0,0,0,6.62-1.08,10.6,10.6,0,0,0,5.08-4.44C86.74,70.86,86.76,69.74,86.63,69.72Z"/><path class="cls-23" d="M77,76.81c-.09-.1-1.14.69-2.49,2.3A34,34,0,0,0,70.12,86a29.57,29.57,0,0,0-2.63,7.74,10.33,10.33,0,0,0-.16,2.51c.09.6.2.91.27.9s.13-.34.19-.89a19.1,19.1,0,0,1,.5-2.34,44,44,0,0,1,2.88-7.42,56.14,56.14,0,0,1,4-6.92C76.28,77.91,77.1,76.94,77,76.81Z"/><path class="cls-44" d="M125,142.91c4.38-6.2,3.34-14.68,2.65-21.68a23.65,23.65,0,0,1,.15-8.31c.71-2.7,2.59-5.26,5.29-6,4.38-1.14,8.58,3.17,9.39,7.63s-.63,9-1.38,13.43a44.72,44.72,0,0,0,4.21,27.46,37.31,37.31,0,0,0-17.3,7.29,10.72,10.72,0,0,0-6.31-4.86C110.19,154.69,121.48,148.09,125,142.91Z"/><path class="cls-45" d="M117.43,157a9.09,9.09,0,0,1,10.79,4.4c2.25-2.48,4.67-5,7.78-6.2s7.11-.83,9.21,1.78h0c-7.52,2.52-15.82,9.24-16.15,9.26s-8.66-6.42-11.63-9.24Z"/><path class="cls-46" d="M129,163.77a12,12,0,0,0-.07,2.68,57.12,57.12,0,0,0,.71,7.29,29.91,29.91,0,0,0,3.65,10.34l.17.28c.07.1.11.24.24.26l.55.23.73.3c.5.18,1,.37,1.51.54,1,.36,2.08.68,3.16,1a44.52,44.52,0,0,0,6.84,1.29,31.57,31.57,0,0,0,7,.06,25.54,25.54,0,0,0,3.32-.54,27.54,27.54,0,0,0,3.07-.95,29.06,29.06,0,0,0,5.3-2.61,33,33,0,0,0,4.13-3,33.61,33.61,0,0,0,3-3,25.07,25.07,0,0,0,2-2.47c1-1.42,1.39-2.31,1.28-2.38s-.7.67-1.85,1.92c-.58.62-1.29,1.38-2.17,2.2a38.74,38.74,0,0,1-3.07,2.67,35.67,35.67,0,0,1-4.08,2.72,29.08,29.08,0,0,1-5.09,2.33,26.62,26.62,0,0,1-2.88.84,27.85,27.85,0,0,1-3.1.46,31.44,31.44,0,0,1-6.64-.06,46.24,46.24,0,0,1-6.59-1.18q-1.58-.39-3.06-.87c-.5-.16-1-.33-1.47-.5l-.7-.26-.15-.06h0l0-.05a30.76,30.76,0,0,1-3.88-9.72c-.7-3-1-5.41-1.29-7.11A12.69,12.69,0,0,0,129,163.77Z"/><path class="cls-47" d="M158.57,186.07c2.32-.75,3.62-2,5.58-3.36a100.24,100.24,0,0,1-1.94,9.85,31.12,31.12,0,0,1-3.9,9.9,11.87,11.87,0,0,1-17.8,3.5,31.64,31.64,0,0,1-6.87-7,109.45,109.45,0,0,1-7.84-11.62,13.94,13.94,0,0,0,4.65-.49,4.76,4.76,0,0,0,3.22-3.15c2.45,2.22,7.41,2.54,10.62,3A30.65,30.65,0,0,0,158.57,186.07Z"/><path class="cls-48" d="M137.09,203a21.32,21.32,0,0,0,3.42,2.94,11.87,11.87,0,0,0,17.8-3.5,30.1,30.1,0,0,0,3.75-9.31,55.65,55.65,0,0,0-21.16,7.24A30.4,30.4,0,0,0,137.09,203Z"/><path class="cls-21" d="M129.65,187.08a22.67,22.67,0,0,0,.88,2.33c.77,1.61,2.31,3.12,4.09,2.9.09-.3.18-.62.26-.93,2.92,1.89,6.56,2.29,10,2.21a21.27,21.27,0,0,0,10.06-2.4,14.07,14.07,0,0,0,5.47-5.94,10.14,10.14,0,0,1-1.88.82,30.92,30.92,0,0,1-14.28.7c-3.21-.53-8.17-.84-10.62-3.07a4.77,4.77,0,0,1-3.22,3.16A6,6,0,0,1,129.65,187.08Z"/><path class="cls-46" d="M125.8,187.35c0,.14.91.37,2.6.38a7.7,7.7,0,0,0,3.07-.62,5.73,5.73,0,0,0,1.7-1.13,4.91,4.91,0,0,0,.72-.89.64.64,0,0,0,.11-.16s.05,0,.08.07l.18.14.58.33c.21.12.43.21.65.32a16.87,16.87,0,0,0,2.79.91c1,.23,2,.41,3,.56l3.07.46a34.45,34.45,0,0,0,8.27.35,25.21,25.21,0,0,0,3.59-.57,19.4,19.4,0,0,0,3-1,16.09,16.09,0,0,0,3.76-2.65c.79-.69,1.22-1.09,1.16-1.18s-.6.17-1.49.73c-.44.29-1,.62-1.64,1a10.88,10.88,0,0,1-2.25.9,25.85,25.85,0,0,1-2.89.67,28.54,28.54,0,0,1-3.4.37,39.31,39.31,0,0,1-7.86-.48c-1.06-.16-2.1-.29-3.09-.43s-1.95-.28-2.86-.47a17.51,17.51,0,0,1-2.53-.73c-.19-.08-.38-.15-.56-.24s-.31-.14-.57-.3-.57-.39-.87-.62-.62-.5-.9-.7a12,12,0,0,1-.62,2,3.51,3.51,0,0,1-.47.67,4.83,4.83,0,0,1-1.24,1,8.08,8.08,0,0,1-2.59.85C126.75,187.09,125.79,187.17,125.8,187.35Z"/><path class="cls-46" d="M164.15,182.71c-.22,0-.83,3.57-2.38,9.23a35.22,35.22,0,0,1-3.68,9.4,15.3,15.3,0,0,1-3.88,4.25,10.23,10.23,0,0,1-5.59,2.06,12.14,12.14,0,0,1-5.88-1.39,18.72,18.72,0,0,1-4.69-3.45,42.87,42.87,0,0,1-3.61-4.05c-1.08-1.34-2.06-2.61-2.94-3.78-3.51-4.69-5.46-7.77-5.7-7.63s1.35,3.45,4.64,8.39c.82,1.23,1.76,2.56,2.8,3.95a40.29,40.29,0,0,0,3.64,4.31,19.85,19.85,0,0,0,5.07,3.82,13.39,13.39,0,0,0,6.75,1.59,11.79,11.79,0,0,0,6.53-2.45,16,16,0,0,0,4.2-4.81,25,25,0,0,0,2.25-5.22c.53-1.68.9-3.27,1.21-4.72.62-2.9,1-5.28,1.15-6.92A8.23,8.23,0,0,0,164.15,182.71Z"/><path class="cls-46" d="M129,163.77c-.14,0-.27,2.41,0,6.29a42.62,42.62,0,0,0,1.13,6.78,27.94,27.94,0,0,0,1.31,3.9q.41,1,.93,2c.18.33.34.66.55,1,0,0,0,0,0,0s0,0,0,0l-.41.3c-.28.19-.57.39-.86.55a11.09,11.09,0,0,1-1.75.89,7.43,7.43,0,0,1-3.48.61,7.56,7.56,0,0,1-3-1.11,17.63,17.63,0,0,1-2.44-1.77,40.56,40.56,0,0,1-3.23-3.12c-.74-.78-1.16-1.2-1.27-1.13s.11.64.69,1.58a21.26,21.26,0,0,0,2.91,3.64,16.22,16.22,0,0,0,2.52,2.11,10.7,10.7,0,0,0,1.64.91,7.19,7.19,0,0,0,2,.59,8.92,8.92,0,0,0,4.34-.63,12.29,12.29,0,0,0,2-1c.33-.19.65-.4,1-.62l.46-.35c.25-.18.55-.45.81-.67l.4-.36c0-.14-.14-.31-.2-.46-.16-.3-.37-.62-.55-.91s-.35-.6-.52-.9q-.49-.91-.9-1.83a30.2,30.2,0,0,1-1.36-3.65,54,54,0,0,1-1.54-6.49C129.44,166.14,129.15,163.76,129,163.77Z"/><path class="cls-23" d="M116.6,153.39c.19.07.68-1.57,2.51-3.51.89-1,2.08-2.06,3.39-3.3a17.71,17.71,0,0,0,3.77-4.66,16.85,16.85,0,0,0,1.75-5.74,29.73,29.73,0,0,0,.19-4.84c-.13-2.74-.41-4.4-.55-4.39s-.19,1.69-.28,4.39-.28,6.49-2.14,10a18.74,18.74,0,0,1-3.49,4.44,38.71,38.71,0,0,0-3.27,3.53C116.71,151.55,116.48,153.39,116.6,153.39Z"/><path class="cls-49" d="M139.36,237.42h0a10.54,10.54,0,0,0-1.75-1.4,4.9,4.9,0,0,0-3.67-.82,21.64,21.64,0,0,0-2.29-2.76c-1.06-1.09-2.45-2.14-3.6-1.92a1.85,1.85,0,0,1-.41.07c-.13,4.18-3.27,6.86-6.79,8.09h-1.1a5.68,5.68,0,0,1-.93.05A7.92,7.92,0,0,0,124,243a5.45,5.45,0,0,0,1.89,0,5.52,5.52,0,0,0,3.62-2.19,10.64,10.64,0,0,0,5.35,3.41,5.49,5.49,0,0,0,5.11-1.1,1.57,1.57,0,0,1,.85-.53,2.77,2.77,0,0,1,.87.16c2,.52,3.19.39,4.46-.77a8.48,8.48,0,0,0,2.22-4.45C145.76,238.53,142.56,238.05,139.36,237.42Z"/><path class="cls-50" d="M147.84,237.49c-2.58.9-5.67.44-8.76-.17h0a10.61,10.61,0,0,0-1.76-1.4,4.93,4.93,0,0,0-3.66-.83,24.21,24.21,0,0,0-2.3-2.76c-1.05-1.08-2.45-2.13-3.59-1.91a2,2,0,0,1-.42.06,7.91,7.91,0,0,1-2.94,6,5,5,0,0,1-.93,1.58,12.52,12.52,0,0,0,6.92-2.12,9.48,9.48,0,0,1,3,4.82l1.05-1.83,3.28,1.91-.18-1.7c2.89,1.8,5.52,1,7.84-.19A26.18,26.18,0,0,0,147.84,237.49Z"/><path class="cls-51" d="M72.34,163.52a7.29,7.29,0,0,0-2.08-4.16l-.42.53c-3.08.66-4.61,4.28-3.37,8-3.27,1.75-4,6.64-2.35,11.2a24.59,24.59,0,0,0,9.49,11.34c-1.23,1.67-.24,5,1.85,6.74a3.22,3.22,0,0,0-1.66,3.78,6.61,6.61,0,0,0,3.93,4.53c-.69,2-.16,4.66,1.26,6.94a12.57,12.57,0,0,0,5.92,5A5.83,5.83,0,0,1,87,218.42,5.65,5.65,0,0,1,88.09,220c2.24,4.26,4.63,8.68,8.23,11.93s8.77,4.86,11.31,2.38c1.38,1.52,3.53,2.08,4.75,1.23a9.54,9.54,0,0,0,6.43,3.17,5.68,5.68,0,0,0,.93-.05h1.1c3.52-1.23,6.66-3.91,6.79-8.09,0-.26,0-.52,0-.79a14.63,14.63,0,0,0-3.23-7.7,25,25,0,0,0-6.51-5.74,28,28,0,0,0-6.52-3v-.13l-1.19-.37,1.61.18c-4.36-7.28-12-14.09-19-16.78a17.8,17.8,0,0,0-5.53-1.3c.47-3.8-1.22-8.51-4.32-12a11.72,11.72,0,0,0-4.06-3.11c1-1.26.39-3.92-1.29-5.33a15.37,15.37,0,0,0,.76-4.06,8,8,0,0,0-1.25-4.52,5.21,5.21,0,0,0-3.89-2.54A3,3,0,0,0,72.34,163.52Z"/><path class="cls-52" d="M127.63,230.58c0-.26,0-.52,0-.79a14.63,14.63,0,0,0-3.23-7.7,25,25,0,0,0-6.51-5.74,28,28,0,0,0-6.52-3v-.13l-1.19-.37,1.61.18c-4.36-7.28-12-14.09-19-16.78a17.8,17.8,0,0,0-5.53-1.3c.47-3.8-1.22-8.51-4.32-12a11.72,11.72,0,0,0-4.06-3.11c1-1.26.39-3.92-1.29-5.33a15.37,15.37,0,0,0,.76-4.06,8,8,0,0,0-1.25-4.52,5.21,5.21,0,0,0-3.89-2.54,3,3,0,0,0-.85.16,7.29,7.29,0,0,0-2.08-4.16l-.42.53a4.49,4.49,0,0,0-2.85,2,3.22,3.22,0,0,1,.55.29A3.27,3.27,0,0,1,69,165.09c1.28-.92,3.71.62,4.72,2.51a10.56,10.56,0,0,1,.91,5.72,3.72,3.72,0,0,1,1.77,3.75,4.9,4.9,0,0,1-2.09,2.73c2.42.39,4.88,2.48,6.5,4.87A25.56,25.56,0,0,1,84,192.36a2.78,2.78,0,0,1,.16,1,1.78,1.78,0,0,1-.52.95l-2.76,3.19c2.14-1.63,5.74-.56,8.84,1a51.61,51.61,0,0,1,17.19,14,8.23,8.23,0,0,0-6.73,1.46c2.87-1.55,7.2.45,10.85,2.63,4.06,2.41,8.21,5.28,11.07,9.31,2.39,3.36,3.6,7.71,2.54,10.62A8,8,0,0,0,127.63,230.58Z"/><path class="cls-23" d="M120.84,238.67a1.15,1.15,0,0,0,.44-.1,8.68,8.68,0,0,0,1.23-.48,10.07,10.07,0,0,0,3.8-3,7.77,7.77,0,0,0,1.4-3.09,9.3,9.3,0,0,0-.06-3.89,17,17,0,0,0-4.28-7.67,27,27,0,0,0-7-5.3,26.76,26.76,0,0,0-6.71-2.52,20.8,20.8,0,0,0-4.81-.5c-.57,0-1,.06-1.31.11a1.38,1.38,0,0,0-.45.09,17.4,17.4,0,0,0,1.76,0,23.33,23.33,0,0,1,4.71.68,28,28,0,0,1,6.55,2.6,27.44,27.44,0,0,1,6.83,5.21,16.78,16.78,0,0,1,4.18,7.38,8,8,0,0,1-1.14,6.6,10.57,10.57,0,0,1-3.56,3C121.41,238.41,120.82,238.62,120.84,238.67Z"/><path class="cls-23" d="M114.55,214.16a6.51,6.51,0,0,0-1.13-.44l-3.2-1.08-.07.35.84.11.65.08c.2,0,.71.18.39-.16l-.68-1.1c-.17-.29-.36-.58-.56-.87a39.74,39.74,0,0,0-2.78-3.71,44.92,44.92,0,0,0-8.17-7.57,30.33,30.33,0,0,0-8.37-4.31c-2.75-.88-5.55-1.14-7.65-.21a5.7,5.7,0,0,0-2.35,1.86c-.13.18-.27.35-.38.52l-.28.52a6.11,6.11,0,0,0-.41.94,7.12,7.12,0,0,0-.38,1.36,1.63,1.63,0,0,0-.08.49s.09-.15.19-.46a12,12,0,0,1,.49-1.3,6.21,6.21,0,0,1,.45-.89l.29-.48a5.71,5.71,0,0,1,.38-.48A5.31,5.31,0,0,1,84,195.65c2-.82,4.64-.54,7.32.35a30.18,30.18,0,0,1,8.18,4.27,46.88,46.88,0,0,1,8.12,7.42,43.26,43.26,0,0,1,2.81,3.62c.21.28.4.57.57.85l.36.53c.06.07,0,0-.07,0l-.24,0-.85-.07-.07.35,3.25.91A5.12,5.12,0,0,0,114.55,214.16Z"/><path class="cls-23" d="M119.74,238.66a8.67,8.67,0,0,1-2.74-.35,9.9,9.9,0,0,1-2.87-1.47c-.26-.19-.51-.39-.76-.61l-.38-.35-.19-.19-.23-.24-.16-.16-.17.11-.18.1-.12.05a1.78,1.78,0,0,1-.5.14,2.93,2.93,0,0,1-1.1,0,4.69,4.69,0,0,1-2.12-1.09l-.24-.23-.2-.21-.1-.11s-.08,0-.12.05a5.91,5.91,0,0,1-.65.51,4,4,0,0,1-1.2.52,8.66,8.66,0,0,1-5.68-1c-3.82-1.84-6.8-5.66-9.26-9.86-.62-1.05-1.2-2.12-1.77-3.18l-.84-1.58A4.46,4.46,0,0,0,87,218a5.47,5.47,0,0,0-1.62-.81,10.9,10.9,0,0,1-1.52-.66,11.84,11.84,0,0,1-2.6-1.84,11.4,11.4,0,0,1-3.2-4.91,8.13,8.13,0,0,1-.4-2.63,5.52,5.52,0,0,1,.15-1.23s0-.1,0-.15l.08-.25,0-.13s0-.1,0-.1l-.23-.08a5.92,5.92,0,0,1-.63-.29,6.71,6.71,0,0,1-2.81-3.06,4.1,4.1,0,0,1-.23-3.09,2.75,2.75,0,0,1,1.26-1.51c.41-.22.67-.25.66-.28a1.7,1.7,0,0,0-.71.17,2.73,2.73,0,0,0-1.43,1.53c-.81,1.74.15,4.9,3.06,6.62l.48.24s.09,0,.06.07v0a.75.75,0,0,0-.05.16,6.46,6.46,0,0,0-.18,1.33,8.79,8.79,0,0,0,.39,2.79,11.82,11.82,0,0,0,3.29,5.17,12.8,12.8,0,0,0,2.72,2c1,.59,2.22.78,3,1.42a9.77,9.77,0,0,1,1.83,2.86c.56,1.06,1.15,2.13,1.77,3.2a35.57,35.57,0,0,0,4.2,5.9,17.19,17.19,0,0,0,5.35,4.16,9.17,9.17,0,0,0,6,1,4.91,4.91,0,0,0,1.34-.6,3.73,3.73,0,0,0,.43-.33s0,0,0,0l.25.23a5.12,5.12,0,0,0,2.35,1.17,3.51,3.51,0,0,0,1.25,0,2.51,2.51,0,0,0,.59-.18l.13-.06.06,0,.06,0,0,0,.15.15.2.18.4.36c.26.22.53.42.8.61a9.84,9.84,0,0,0,3,1.42,6.76,6.76,0,0,0,2.08.24,2.74,2.74,0,0,0,.54-.07C119.68,238.69,119.74,238.67,119.74,238.66Z"/><path class="cls-23" d="M118.6,238.25a5.2,5.2,0,0,0,1.41,2.58,8.15,8.15,0,0,0,2.56,2,5.63,5.63,0,0,0,4,.36,5.84,5.84,0,0,0,3.28-2.27,7.09,7.09,0,0,0,1.19-3,8.13,8.13,0,0,0,0-2.17c-.1-.5-.18-.77-.22-.76a23.34,23.34,0,0,1-.21,2.86,7,7,0,0,1-1.22,2.76,5.38,5.38,0,0,1-3,2,5.23,5.23,0,0,1-3.58-.28,8.21,8.21,0,0,1-2.48-1.76A18.23,18.23,0,0,1,118.6,238.25Z"/><path class="cls-23" d="M129.38,240.6s.15.32.55.79a10.3,10.3,0,0,0,2,1.74,8.89,8.89,0,0,0,3.63,1.48,5.65,5.65,0,0,0,4.63-1.22c.34-.32.56-.54.83-.51s.73.18,1.11.25a5.44,5.44,0,0,0,2.37.09,4,4,0,0,0,1.89-1.06,6.37,6.37,0,0,0,1.12-1.47,8.88,8.88,0,0,0,.88-2.48,2.45,2.45,0,0,0,.1-1,3.61,3.61,0,0,0-.33.89,10.94,10.94,0,0,1-1,2.32,4.64,4.64,0,0,1-2.76,2.2,5.17,5.17,0,0,1-2.12-.12,10.22,10.22,0,0,0-1.22-.28,1.26,1.26,0,0,0-.76.23c-.2.15-.35.31-.5.43a5.17,5.17,0,0,1-4.15,1.13,9,9,0,0,1-3.46-1.3A25,25,0,0,1,129.38,240.6Z"/><path class="cls-23" d="M76.08,197.61a14.76,14.76,0,0,1-1.25-1.24,7.3,7.3,0,0,1-1-1.76,5.74,5.74,0,0,1-.47-2.62,3.6,3.6,0,0,1,.13-.73l.15-.34a1.07,1.07,0,0,1,.11-.19l.19-.32c.07-.06,0-.09-.06-.12l-.15-.11-.25-.17-.36-.25-.7-.53a27.39,27.39,0,0,1-2.87-2.54,22.64,22.64,0,0,1-4.88-7.19,11.83,11.83,0,0,1-.5-8.43,5.64,5.64,0,0,1,2.26-2.84l.33-.21c.09,0,0-.11,0-.17l-.06-.2-.13-.44c-.07-.28-.13-.55-.17-.82a6.92,6.92,0,0,1-.08-1.56,5.39,5.39,0,0,1,2-4.13,9.31,9.31,0,0,1,1.56-.81,1.25,1.25,0,0,0-.46.07,4.05,4.05,0,0,0-1.23.55,5.54,5.54,0,0,0-2.3,4.29,7.78,7.78,0,0,0,0,1.66c0,.28.1.58.16.87l.12.4s0,0-.06.07a6,6,0,0,0-2.51,3.06,12.23,12.23,0,0,0,.45,8.87,22.76,22.76,0,0,0,5,7.36,27.85,27.85,0,0,0,3,2.54l.73.53.37.24.1.07s0,0,0,0l0,0s-.07.12-.09.18l-.16.41a5,5,0,0,0-.14.83,5.92,5.92,0,0,0,.6,2.78,7,7,0,0,0,1.18,1.78,5.62,5.62,0,0,0,1,.88C75.93,197.56,76.07,197.63,76.08,197.61Z"/><path class="cls-23" d="M87.2,195.16a2.18,2.18,0,0,0,.21-.92,10.28,10.28,0,0,0,0-2.58,16.65,16.65,0,0,0-3.27-7.78c-2-2.65-4.61-4.61-6.93-4.71a3.24,3.24,0,0,0-2.48.81c-.45.45-.5.82-.48.82s.18-.29.64-.64a3.15,3.15,0,0,1,2.29-.56c2.08.18,4.56,2.08,6.47,4.65a17.82,17.82,0,0,1,3.33,7.48A27.9,27.9,0,0,1,87.2,195.16Z"/><path class="cls-23" d="M78.82,179.86s.32-.18.54-.77a3.94,3.94,0,0,0-.11-2.56,5.56,5.56,0,0,0-.86-1.57c-.1-.13-.21-.25-.32-.38l-.19-.17s0,0,0,0c.08-.29.17-.58.26-.88a10.78,10.78,0,0,0,.41-4.6c-.47-3.31-3.12-5.89-5.49-5.75a4,4,0,0,0-1.41.45l-1,.5a2.76,2.76,0,0,0-.78.48,2.65,2.65,0,0,0,.88-.27l1-.39a3.77,3.77,0,0,1,1.3-.34,4.31,4.31,0,0,1,3,1.54A7.23,7.23,0,0,1,77.93,169a10.66,10.66,0,0,1-.35,4.36c-.1.37-.2.73-.29,1.09a.2.2,0,0,0,0,.11l.08.07.17.16.17.15.31.33a5.2,5.2,0,0,1,.84,1.41,4,4,0,0,1,.29,2.33C79,179.57,78.78,179.83,78.82,179.86Z"/><path class="cls-23" d="M72.36,163.84c.17,0,.29-1.3-.43-2.68s-1.77-2.11-1.86-2,.68,1,1.31,2.25S72.19,163.84,72.36,163.84Z"/><path class="cls-23" d="M127.36,230.5s.1.19.41.18a2.36,2.36,0,0,1,1.06.08,7.7,7.7,0,0,1,2.84,2.14c2,2.09,3.22,4.1,3.37,4s-.88-2.28-2.93-4.43a6.65,6.65,0,0,0-3.18-2.14,2,2,0,0,0-1.19.11C127.52,230.52,127.38,230.46,127.36,230.5Z"/><path class="cls-23" d="M133.63,235.29c0,.09.51-.08,1.28,0a6.59,6.59,0,0,1,2.8,1.14c2,1.39,3.18,3.07,3.34,2.94s-.16-.51-.66-1.18a9.76,9.76,0,0,0-2.34-2.26,5.59,5.59,0,0,0-3.12-1.07C134.05,234.88,133.58,235.23,133.63,235.29Z"/><path class="cls-23" d="M139,237.34c-.05.16,2.06.8,4.76.92a11.84,11.84,0,0,0,3.45-.27,2.81,2.81,0,0,0,1-.42c.21-.16.29-.29.26-.31s-.48.22-1.33.31a20.34,20.34,0,0,1-3.34.08C141.14,237.54,139,237.17,139,237.34Z"/><path class="cls-53" d="M176.49,234a0,0,0,0,0,0,0,15.08,15.08,0,0,1,2.63-2.12,10,10,0,0,1,6.12-1.67,27.69,27.69,0,0,1,3.16-4c1.51-1.6,3.61-3.2,5.67-3.09a4.61,4.61,0,0,0,.74,0c1.48,5.51,7.76,8.55,14.26,9.63l1.89-.19a13.2,13.2,0,0,0,1.65-.08,11.53,11.53,0,0,1-7.8,6.47,11.87,11.87,0,0,1-3.28.3,12.12,12.12,0,0,1-7-2.33,17,17,0,0,1-8.28,5.35,12.71,12.71,0,0,1-9.21-.65,3.39,3.39,0,0,0-1.64-.57,5.61,5.61,0,0,0-1.46.34c-3.32,1-3.79,2-6.64,1.21a13.47,13.47,0,0,1-6.42-4.26C166.08,238.28,171.1,235.32,176.49,234Z"/><path class="cls-54" d="M161.88,238c5-.14,9.87-2.92,15.06-4.2h0a15.88,15.88,0,0,1,2.62-2.12A10.06,10.06,0,0,1,185.7,230a27.69,27.69,0,0,1,3.16-4c1.51-1.6,3.61-3.21,5.67-3.09a6.15,6.15,0,0,0,.74,0c.9,3.32,3.53,5.75,6.92,7.39a7.53,7.53,0,0,0,2.1,1.94,29.42,29.42,0,0,1-12.68-1.71,10.68,10.68,0,0,0-3.84,6.84l-2.38-2.26-5.12,3-.2-2.28c-4.48,2.83-8.5,3-13.19,2.64C165.19,238.44,163.52,238.26,161.88,238Z"/><path class="cls-55" d="M270.71,125.89a7.78,7.78,0,0,1,2.37-5.82l.9.64c5.55.38,9.3,4.92,8.27,10,6.21,1.81,9,8.15,7.45,14.42s-6.79,12.27-13.07,16.47c2.64,2,1.93,6.55-1.18,9.19a4.72,4.72,0,0,1,4,4.73c-.11,2.6-2.48,5.48-5.45,6.6,1.78,2.5,1.68,6.13-.1,9.36a17.94,17.94,0,0,1-8.8,7.46,10.45,10.45,0,0,0-3.35,1.73,6.6,6.6,0,0,0-1.38,2.26c-2.62,6-5.44,12.19-10.71,17.05s-13.78,7.79-19,4.92c-1.93,2.22-5.51,3.29-7.88,2.36a16.63,16.63,0,0,1-10.22,5.2,13.2,13.2,0,0,1-1.65.08l-1.89.19c-6.5-1.08-12.78-4.12-14.26-9.63-.08-.34-.15-.68-.21-1-.51-3.42.86-7.31,3.3-10.68a34.54,34.54,0,0,1,9.58-8.6,50.31,50.31,0,0,1,10.42-5l0-.17,2-.67-2.74.48c5.38-10.3,16.6-20.48,28-25.13a36.19,36.19,0,0,1,9.23-2.59c-2-4.94-.46-11.43,3.88-16.51a17.46,17.46,0,0,1,6.13-4.75c-2.18-1.49-1.87-5.12.64-7.24a18.65,18.65,0,0,1-2.57-5.24,8.17,8.17,0,0,1,.82-6.17,8.26,8.26,0,0,1,6-4A7,7,0,0,1,270.71,125.89Z"/><path class="cls-56" d="M194.82,223.11c-.08-.34-.15-.68-.21-1-.51-3.42.86-7.31,3.3-10.68a34.54,34.54,0,0,1,9.58-8.6,50.31,50.31,0,0,1,10.42-5l0-.17,2-.67-2.74.48c5.38-10.3,16.6-20.48,28-25.13a36.19,36.19,0,0,1,9.23-2.59c-2-4.94-.46-11.43,3.88-16.51a17.46,17.46,0,0,1,6.13-4.75c-2.18-1.49-1.87-5.12.64-7.24a18.65,18.65,0,0,1-2.57-5.24,8.17,8.17,0,0,1,.82-6.17,8.26,8.26,0,0,1,6-4,7,7,0,0,1,1.52.07,7.78,7.78,0,0,1,2.37-5.82l.9.64a9.49,9.49,0,0,1,5.55,2.18,4.34,4.34,0,0,0-.88.46c-1.51,1-2.26,2.83-1.68,4.09-2.52-1-6.28,1.4-7.46,4.05s-.56,5.29.14,7.7a4.06,4.06,0,0,0-1.93,5.23c.83,1.6,2.68,2.48,4.45,3.27a16.44,16.44,0,0,0-9.83,7.47,26.11,26.11,0,0,0-3.27,10.64,3.05,3.05,0,0,0,0,1.35,2.77,2.77,0,0,0,1.19,1.18l5.77,3.77c-4.22-1.82-10.16.17-15.09,2.67A74.59,74.59,0,0,0,225.33,196a19,19,0,0,1,12.14.87c-5.47-1.59-12.38,1.73-18.08,5.17-6.32,3.83-12.67,8.27-16.44,14-3.13,4.8-3.92,10.73-1.21,14.41C198.35,228.87,195.72,226.44,194.82,223.11Z"/><path class="cls-23" d="M209.08,232.74a24.5,24.5,0,0,0-2.63-.75,24.31,24.31,0,0,1-6.68-3,12,12,0,0,1-3.46-3.54,9,9,0,0,1-1.32-5.38c.26-4,2.65-8.13,6-11.45a44,44,0,0,1,10.87-7.73,51.72,51.72,0,0,1,10.2-4,50.55,50.55,0,0,1,7.27-1.41,19.38,19.38,0,0,0,2.71-.34s-.24-.06-.71-.08-1.15,0-2,0a41,41,0,0,0-7.41,1.11A49.09,49.09,0,0,0,211.41,200a43,43,0,0,0-11.16,7.85c-3.43,3.43-5.95,7.74-6.19,12.11a9.83,9.83,0,0,0,1.54,5.88,12.42,12.42,0,0,0,3.78,3.68,22,22,0,0,0,7,2.81,19.41,19.41,0,0,0,2,.34C208.83,232.76,209.07,232.78,209.08,232.74Z"/><path class="cls-23" d="M212.61,199.39a10.22,10.22,0,0,0,2-.5c1.26-.38,3.08-.95,5.35-1.69l-.15-.58-1.32.21-.48.07-.21,0c.12-.22.25-.44.39-.67.25-.45.53-.9.83-1.35a48.75,48.75,0,0,1,4.21-5.69,63.2,63.2,0,0,1,12.57-11.3,51.16,51.16,0,0,1,13-6.49c4.23-1.41,8.32-1.88,11.59-1.19a11.9,11.9,0,0,1,6.68,3.93c.3.36.6.66.8,1l.52.76c.29.41.46.62.49.6s-.07-.25-.31-.7L268,175a11.3,11.3,0,0,0-.75-1c-.15-.19-.29-.41-.47-.61l-.59-.6a9.92,9.92,0,0,0-1.48-1.25,11.89,11.89,0,0,0-4.28-1.91c-3.43-.83-7.69-.4-12,1a50.3,50.3,0,0,0-13.24,6.55,61,61,0,0,0-12.69,11.56,48.28,48.28,0,0,0-4.18,5.85c-.29.47-.57.93-.81,1.4l-1.06,2,3.43-.65-.15-.59c-2.25.81-4,1.48-5.26,2A8.89,8.89,0,0,0,212.61,199.39Z"/><path class="cls-23" d="M211,232.55a4.15,4.15,0,0,0,1.11.07,13.08,13.08,0,0,0,3.13-.45,17.19,17.19,0,0,0,4.61-2,16.44,16.44,0,0,0,2.51-1.92c.1-.1.2-.19.3-.3l.25-.25s0,0,.05,0l.07,0,.16,0a1.41,1.41,0,0,0,.22.06,6.19,6.19,0,0,0,1.88.16,8.72,8.72,0,0,0,3.79-1.18,8.29,8.29,0,0,0,1.69-1.3c.06,0,0-.09.09-.06l.31.15a5.54,5.54,0,0,0,1.05.4,15.1,15.1,0,0,0,9.26-.54,25,25,0,0,0,8.78-5.29,35.32,35.32,0,0,0,6.65-8.73c.92-1.64,1.73-3.31,2.49-5,.37-.83.74-1.66,1.11-2.47a16,16,0,0,1,1.11-2.31c.86-1.34,2.57-1.75,4.14-2.45a19.89,19.89,0,0,0,4.34-2.62,14.77,14.77,0,0,0,5.31-7.61,9.65,9.65,0,0,0,.15-4.3,7.94,7.94,0,0,0-.7-1.93c-.33-.71-.44-.28.21-.69a9.08,9.08,0,0,0,4.42-5,5,5,0,0,0,.12-2.8,4.42,4.42,0,0,0-1.16-2,5.22,5.22,0,0,0-2.81-1.48,4.31,4.31,0,0,0-.83-.08c-.19,0-.28,0-.28,0a9.2,9.2,0,0,0,1.06.24,5.38,5.38,0,0,1,2.58,1.56,4.29,4.29,0,0,1,.78,4.41,8.5,8.5,0,0,1-4.21,4.53l-.19.1-.1,0-.18.07-.74.31a5.44,5.44,0,0,0,.39.67l.12.17.05.1.1.2a6.85,6.85,0,0,1,.61,1.75,8.93,8.93,0,0,1-.2,3.93,14,14,0,0,1-5.08,7.1,19.19,19.19,0,0,1-4.14,2.46c-.75.33-1.56.59-2.38,1a5.27,5.27,0,0,0-2.19,1.8,15.52,15.52,0,0,0-1.22,2.45c-.36.82-.73,1.63-1.1,2.46-.76,1.64-1.56,3.28-2.46,4.89a34.81,34.81,0,0,1-6.44,8.5,24.37,24.37,0,0,1-8.41,5.13,14.54,14.54,0,0,1-8.72.63,5.17,5.17,0,0,1-1-.36l-.64-.29-.21-.1a1.36,1.36,0,0,0-.17.17l-.3.32a7.13,7.13,0,0,1-1.51,1.19,8,8,0,0,1-3.44,1.13,5.12,5.12,0,0,1-1.67-.1,1.17,1.17,0,0,1-.2,0l-.26-.08-.33-.11c-.09.07-.16.17-.25.25l-.33.36a3.83,3.83,0,0,1-.29.28,15,15,0,0,1-2.36,1.91,17.54,17.54,0,0,1-4.42,2.1A23.94,23.94,0,0,1,211,232.55Z"/><path class="cls-23" d="M212.85,231.83a16.79,16.79,0,0,1-2.58,3.56,12.28,12.28,0,0,1-3.93,2.56,11.69,11.69,0,0,1-5.64.73,11.91,11.91,0,0,1-5.39-1.83,9.77,9.77,0,0,1-3.23-3.33c-1.35-2.34-1.24-4.17-1.44-4.14s-.13.44-.1,1.23a8.67,8.67,0,0,0,.91,3.25,9.93,9.93,0,0,0,3.35,3.77,12.24,12.24,0,0,0,5.8,2.05,11.77,11.77,0,0,0,10.18-3.79C212.75,233.74,213,231.82,212.85,231.83Z"/><path class="cls-23" d="M194.8,236.63a31.69,31.69,0,0,1-4.35,3.39,16.58,16.58,0,0,1-5.5,2.08,12.46,12.46,0,0,1-7-.64c-.29-.13-.56-.26-.85-.42a4.36,4.36,0,0,0-1-.42,2.57,2.57,0,0,0-1.17,0,9.11,9.11,0,0,0-.95.27c-1.21.35-2.36.87-3.37,1.26a4.48,4.48,0,0,1-2.93.11,11.46,11.46,0,0,1-2.56-.93,15.35,15.35,0,0,1-3.27-2.3c-.71-.65-1.09-1-1.15-1s.23.51.87,1.25a12.7,12.7,0,0,0,3.21,2.66,11.63,11.63,0,0,0,2.69,1.11,6.62,6.62,0,0,0,1.65.27,5,5,0,0,0,1.79-.31c1.13-.41,2.17-.86,3.36-1.2a2.81,2.81,0,0,1,1.58-.22c.47.11,1,.53,1.7.79a12.86,12.86,0,0,0,7.58.63,16.06,16.06,0,0,0,5.71-2.39,14.92,14.92,0,0,0,3.13-2.73C194.59,237.14,194.85,236.67,194.8,236.63Z"/><path class="cls-23" d="M274.5,171.5s.23-.08.61-.31a7.17,7.17,0,0,0,1.48-1.27,8,8,0,0,0,1.59-2.68,6.06,6.06,0,0,0,0-4.17,4.47,4.47,0,0,0-.64-1.06l-.17-.22-.07-.07-.07-.07.06,0,.06,0,.24-.16.52-.36,1.06-.77a38.6,38.6,0,0,0,4.25-3.74,31.31,31.31,0,0,0,3.92-4.9,21.15,21.15,0,0,0,2.77-6.18,14.08,14.08,0,0,0,.12-6.82,11.25,11.25,0,0,0-1.19-3.06,10.51,10.51,0,0,0-1.9-2.51,11,11,0,0,0-2.4-1.79c-.43-.23-.87-.42-1.3-.61l-.67-.22c-.06,0-.09,0-.08-.06l.07-.51c0-.22,0-.45,0-.67a9.27,9.27,0,0,0-.07-1.3,8.64,8.64,0,0,0-.72-2.34,8.24,8.24,0,0,0-2.65-3.18,8.79,8.79,0,0,0-2.78-1.37,6.24,6.24,0,0,0-1.1-.25,3.94,3.94,0,0,0-.82-.1c-.45,0-.68,0-.68,0s.93.14,2.47.69a8.85,8.85,0,0,1,2.57,1.45,7.8,7.8,0,0,1,2.34,3A8,8,0,0,1,282,128a9.25,9.25,0,0,1,0,1.18c0,.2,0,.41,0,.61l-.12.78c-.26.52.37.52.68.67l.62.22c.39.19.8.37,1.19.59a10.37,10.37,0,0,1,2.18,1.67,10,10,0,0,1,1.71,2.32,10.75,10.75,0,0,1,1.07,2.82,13.36,13.36,0,0,1-.13,6.34,20.84,20.84,0,0,1-2.63,5.9,32,32,0,0,1-3.76,4.79,39.75,39.75,0,0,1-4.1,3.72l-1,.77-1.23.87a3.74,3.74,0,0,0-.4.31l.38.34.37.33c.13.12.13.15.21.23a3.82,3.82,0,0,1,.55.88,5.53,5.53,0,0,1,.11,3.71,8.2,8.2,0,0,1-1.36,2.6C275.27,171,274.44,171.41,274.5,171.5Z"/><path class="cls-23" d="M254.42,170c.19-.06-.71-1.87-.62-5a17.21,17.21,0,0,1,1.06-5.28,20.5,20.5,0,0,1,3.26-5.72,19.13,19.13,0,0,1,4.88-4.42,11.5,11.5,0,0,1,5-1.75,7.12,7.12,0,0,1,3.52.49c.77.35,1.11.72,1.18.66s-.21-.5-1-1a6.64,6.64,0,0,0-3.74-.86,11.47,11.47,0,0,0-5.43,1.67,18.64,18.64,0,0,0-5.19,4.58,20.21,20.21,0,0,0-3.35,6,16.08,16.08,0,0,0-.89,5.59,11.21,11.21,0,0,0,.69,3.74C254.09,169.61,254.37,170,254.42,170Z"/><path class="cls-23" d="M264.37,148.49c.06-.08-.36-.35-.78-1.06a4.13,4.13,0,0,1-.18-3.34,5.63,5.63,0,0,1,1.22-2,5.2,5.2,0,0,1,.62-.6l.24-.22a2,2,0,0,0-.16-.28l-.3-.49-.75-1.28a10.45,10.45,0,0,1-1.64-6.06,7.41,7.41,0,0,1,.95-3.07,8.14,8.14,0,0,1,2-2.28,6.66,6.66,0,0,1,4.75-1.6c1.48.16,2.74.49,3.59.6s1.34.19,1.36.12a3.88,3.88,0,0,0-1.27-.5,29.79,29.79,0,0,0-3.6-.93,7.27,7.27,0,0,0-5.4,1.58,8.75,8.75,0,0,0-2.27,2.51,8.2,8.2,0,0,0-1.11,3.48,11,11,0,0,0,1.85,6.61c.26.45.53.88.8,1.29l.09.13s0,0,0,0-.23.22-.37.39a6.25,6.25,0,0,0-1.27,2.37,4.31,4.31,0,0,0,.53,3.75C263.84,148.37,264.36,148.53,264.37,148.49Z"/><path class="cls-23" d="M270.77,126.32c.27-.07.17-1.63,1-3.36s1.82-2.94,1.62-3.16-1.69.76-2.55,2.76a5.47,5.47,0,0,0-.47,2.68C270.42,126,270.64,126.34,270.77,126.32Z"/><path class="cls-23" d="M195.27,223c0-.06-.24,0-.6-.05a5.22,5.22,0,0,0-1.75-.09,9.26,9.26,0,0,0-4.9,3c-3.1,3.24-4.43,6.7-4.18,6.79s1.93-3,4.91-6.1a10.41,10.41,0,0,1,4.32-3,7.64,7.64,0,0,1,1.61-.21C195.14,223.25,195.32,223,195.27,223Z"/><path class="cls-23" d="M185.82,230.28c0-.12-.75-.49-2.1-.44a10,10,0,0,0-4.9,1.61,13.78,13.78,0,0,0-3.71,3.53c-.76,1.06-1.07,1.81-1,1.88s.65-.51,1.52-1.43a20,20,0,0,1,3.7-3.12,12.86,12.86,0,0,1,4.43-1.77C185,230.33,185.78,230.43,185.82,230.28Z"/><path class="cls-23" d="M177.11,233.83a6,6,0,0,0-2.5.36c-1.51.36-3.55,1-5.78,1.71s-4.25,1.37-5.72,1.71a14.71,14.71,0,0,1-1.75.32c-.4,0-.65,0-.67.1s.2.19.65.29a6.6,6.6,0,0,0,1.89,0,32.72,32.72,0,0,0,5.91-1.45c2.24-.72,4.24-1.45,5.68-2S177.15,234,177.11,233.83Z"/><path class="cls-57" d="M259.11,88.75c-1.45-16.61,17.57-24.21,31.43-21.81,9,1.57,17.15,6.1,25.11,10.56L341.48,92c5.7,3.19,11.47,6.4,17.81,8,5.23,1.28,11.15.73,14.15,5.89a10.18,10.18,0,0,1,.88,7.79,21.85,21.85,0,0,1-3.2,6.65c-10.34,15.1-26.68,26.43-44.81,28.9s-37.72-4.58-48.69-19.23c-4.11-5.48-6.94-11.79-9.76-18-.78-1.72-1.55-3.46-2.33-5.18s-1.54-3.43-2.31-5.14C261.37,97.45,259.5,93.24,259.11,88.75Z"/><path class="cls-58" d="M259.11,88.75c.39,4.49,2.26,8.7,4.11,12.82.77,1.71,1.55,3.42,2.31,5.14A41.09,41.09,0,0,1,296,95c21.17,1,39.79,18.36,60.88,16.25,3.51-.34,7-1.24,10.51-.93a10.5,10.5,0,0,1,7,3.3,10.18,10.18,0,0,0-.88-7.79c-3-5.16-8.92-4.61-14.15-5.89-6.34-1.55-12.11-4.76-17.81-8L315.65,77.5c-8-4.46-16.12-9-25.11-10.56C276.68,64.54,257.66,72.14,259.11,88.75Z"/><path class="cls-59" d="M265.53,106.71c.78,1.72,1.55,3.46,2.33,5.18,2.82,6.25,5.65,12.56,9.76,18,11,14.65,30.55,21.72,48.69,19.23s34.47-13.8,44.81-28.9a21.85,21.85,0,0,0,3.2-6.65,10.5,10.5,0,0,0-7-3.3c-3.51-.31-7,.59-10.51.93C335.74,113.35,317.12,96,296,95A41.09,41.09,0,0,0,265.53,106.71Z"/><path class="cls-27" d="M266,107.75c.62,1.37,1.23,2.77,1.86,4.14,2.82,6.25,5.65,12.56,9.76,18,11,14.65,30.55,21.72,48.69,19.23s34.47-13.8,44.81-28.9a21.85,21.85,0,0,0,3.2-6.65A9.22,9.22,0,0,0,370.4,111,52,52,0,0,1,350,135.5c-12.4,7.82-28.51,9.41-42.68,6-17.63-4.25-23.8-17.66-35.88-29.21A41,41,0,0,0,266,107.75Z"/><path class="cls-32" d="M85.25,167.46l1,.09c.34,0,.75,0,1.23.06s1,0,1.63,0a24.3,24.3,0,0,0,9.17-2.32,22.36,22.36,0,0,0,7.49-5.79,18.24,18.24,0,0,0,1.66-2.32l.53-.9-.7.77c-.44.5-1.13,1.17-2,2a32.22,32.22,0,0,1-7.59,5,36.9,36.9,0,0,1-8.65,2.88c-.57.13-1.1.22-1.57.28s-.87.14-1.2.17Z"/><path class="cls-32" d="M179.77,148.14l.64,1.28a9.7,9.7,0,0,0,.87,1.45c.19.27.38.57.59.88l.76.91a26.13,26.13,0,0,0,4.26,4,38.14,38.14,0,0,0,6.13,3.7,44.49,44.49,0,0,0,6.69,2.51,41,41,0,0,0,5.7,1.18c.82.12,1.57.2,2.22.23s1.22.09,1.69.08h1.43l-1.42-.22c-.45,0-1-.17-1.64-.3s-1.36-.27-2.15-.47c-1.59-.37-3.44-.94-5.48-1.62s-4.21-1.6-6.44-2.65a55.51,55.51,0,0,1-6.05-3.4,32.77,32.77,0,0,1-4.43-3.53l-.83-.81-.68-.78a11.76,11.76,0,0,1-1-1.29Z"/><path class="cls-32" d="M179.58,142.3l.28-3.69c.19-2.38.48-5.83,1.09-10a78.09,78.09,0,0,1,3.36-14.49,50.94,50.94,0,0,1,3.53-8,29.68,29.68,0,0,1,5.63-7.35,32.62,32.62,0,0,1,15.78-8.15,34.84,34.84,0,0,1,14.67,0,22.32,22.32,0,0,1,5.31,2l1.06.6.92.64a15.94,15.94,0,0,1,1.51,1.26,13.33,13.33,0,0,1,1.76,2.09L235,98l-.49-.82A12.74,12.74,0,0,0,232.87,95a14,14,0,0,0-1.46-1.36l-.91-.71-1.05-.66A22.22,22.22,0,0,0,224.09,90,34.41,34.41,0,0,0,209,89.44a32.58,32.58,0,0,0-16.51,8.3,29.74,29.74,0,0,0-5.84,7.72,48.57,48.57,0,0,0-3.47,8.25,72.37,72.37,0,0,0-2.95,14.78c-.43,4.26-.55,7.72-.61,10.1S179.58,142.3,179.58,142.3Z"/></g></g></g></svg>