<svg xmlns="http://www.w3.org/2000/svg" viewBox="0 0 44.35 49.75"><defs><style>.cls-1{fill:#662c04;}.cls-2{fill:#be733c;}</style></defs><title>Asset 229</title><g id="Layer_2" data-name="Layer 2"><g id="Layer_2-2" data-name="Layer 2"><path class="cls-1" d="M24.5,31.36c5.29,1.28,9.58,5.55,13,9.55a4.26,4.26,0,0,1,.89,3.65c-.8,3.48-5.39,4-8.27,4.62-4.42.93-9,.56-13.53.08-3-.33-9.9-1.59-9.39-6,.27-2.28,2.47-3.92,4-5.37a45.6,45.6,0,0,1,7.08-5.44A8.17,8.17,0,0,1,21.92,31,8.72,8.72,0,0,1,24.5,31.36Z"/><path class="cls-1" d="M40.3,23.79c1.92-1.16,3.84-.45,4,2A8,8,0,0,1,44,28.4a41.1,41.1,0,0,1-1.41,4.32C42,34.3,41,36,39.4,36.43a8.52,8.52,0,0,1-4.71-.9c-1.24-.62-2.78-2.44-2.8-3.9s1.5-2.46,2.44-3.34A38.43,38.43,0,0,1,40.3,23.79Z"/><path class="cls-1" d="M35.75,19.77c.81-3.06.87-7.42-.43-10.34-.73-1.61-2.07-3.3-3.83-3.16a4.27,4.27,0,0,0-2.85,2,18.68,18.68,0,0,0-2.3,4.49,33.53,33.53,0,0,0-2.15,11.38,4.6,4.6,0,0,0,2.89,4.3c2.14.72,4.38-.82,5.67-2.4A16.63,16.63,0,0,0,35.75,19.77Z"/><path class="cls-1" d="M40,21.63a.82.82,0,0,0,.77-.06,1.77,1.77,0,0,0,1-1.59,3.44,3.44,0,0,0-.91-2c-.19-.23-.38-.41-.55-.66s-.57-.51-.61-.7a9.06,9.06,0,0,1,.18,3.24,5.7,5.7,0,0,0-.08,1.43A.52.52,0,0,0,40,21.63Z"/><path class="cls-1" d="M29.56,5.35a.82.82,0,0,0,.77-.06,1.77,1.77,0,0,0,1-1.59,3.44,3.44,0,0,0-.91-2c-.19-.23-.38-.41-.55-.66s-.57-.51-.61-.7a9,9,0,0,1,.18,3.23A5.81,5.81,0,0,0,29.33,5,.52.52,0,0,0,29.56,5.35Z"/><path class="cls-1" d="M5.47,23.79c-1.92-1.16-3.84-.45-4,2A8,8,0,0,0,1.8,28.4a41.1,41.1,0,0,0,1.41,4.32C3.82,34.3,4.73,36,6.37,36.43a8.55,8.55,0,0,0,4.72-.9c1.23-.62,2.77-2.44,2.8-3.9s-1.51-2.46-2.45-3.34A38.43,38.43,0,0,0,5.47,23.79Z"/><path class="cls-1" d="M10,19.77c-.81-3.06-.87-7.42.44-10.34.72-1.61,2.06-3.3,3.82-3.16a4.25,4.25,0,0,1,2.85,2,19.08,19.08,0,0,1,2.31,4.49,33.76,33.76,0,0,1,2.14,11.38,4.61,4.61,0,0,1-2.88,4.3c-2.14.72-4.38-.82-5.68-2.4A16.93,16.93,0,0,1,10,19.77Z"/><path class="cls-1" d="M4.47,21.63a.84.84,0,0,1-.78-.06,1.78,1.78,0,0,1-1-1.59,3.42,3.42,0,0,1,.9-2c.2-.23.38-.41.56-.66s.56-.51.61-.7a9.06,9.06,0,0,0-.19,3.24,5.27,5.27,0,0,1,.08,1.43A.52.52,0,0,1,4.47,21.63Z"/><path class="cls-1" d="M14.79,5.35A.84.84,0,0,1,14,5.29a1.78,1.78,0,0,1-1-1.59,3.42,3.42,0,0,1,.9-2c.2-.23.38-.41.56-.66s.56-.51.61-.7a9,9,0,0,0-.19,3.23A5.37,5.37,0,0,1,15,5,.52.52,0,0,1,14.79,5.35Z"/><path class="cls-2" d="M23.07,30.69c5.29,1.27,9.58,5.54,13,9.55a4.27,4.27,0,0,1,.88,3.64c-.8,3.49-5.38,4-8.27,4.63-4.41.93-9,.55-13.53.07-3-.32-9.9-1.58-9.38-6,.27-2.28,2.47-3.91,4-5.37a45.16,45.16,0,0,1,7.09-5.43,8.14,8.14,0,0,1,3.65-1.45A8.73,8.73,0,0,1,23.07,30.69Z"/><path class="cls-2" d="M38.87,23.12c1.93-1.17,3.85-.46,4,2a7.91,7.91,0,0,1-.36,2.64,41.27,41.27,0,0,1-1.41,4.33c-.61,1.57-1.52,3.29-3.15,3.7-1.3.34-3.55-.32-4.72-.9s-2.78-2.44-2.8-3.9,1.5-2.46,2.45-3.33A36.69,36.69,0,0,1,38.87,23.12Z"/><path class="cls-2" d="M34.32,19.09c.82-3.06.88-7.41-.43-10.34-.72-1.61-2.06-3.3-3.82-3.15a4.18,4.18,0,0,0-2.85,2,18.9,18.9,0,0,0-2.31,4.49,33.28,33.28,0,0,0-2.14,11.38,4.58,4.58,0,0,0,2.88,4.31c2.14.71,4.38-.83,5.67-2.41A16.63,16.63,0,0,0,34.32,19.09Z"/><path class="cls-2" d="M39.29,21.32a.88.88,0,0,0,.78-.06,1.8,1.8,0,0,0,1-1.59,3.42,3.42,0,0,0-.9-2c-.2-.23-.38-.41-.56-.66s-.56-.52-.61-.7a9,9,0,0,1,.19,3.23,5.31,5.31,0,0,0-.08,1.43A.52.52,0,0,0,39.29,21.32Z"/><path class="cls-2" d="M28.72,5.05A.85.85,0,0,0,29.49,5a1.8,1.8,0,0,0,1-1.59,3.44,3.44,0,0,0-.91-2C29.36,1.13,29.18,1,29,.7s-.57-.52-.61-.7a9.23,9.23,0,0,1,.19,3.23,4.94,4.94,0,0,0-.08,1.43A.49.49,0,0,0,28.72,5.05Z"/><path class="cls-2" d="M4,23.12c-1.92-1.17-3.84-.46-4,2a7.92,7.92,0,0,0,.37,2.64,41.27,41.27,0,0,0,1.41,4.33c.61,1.57,1.52,3.29,3.15,3.7,1.3.34,3.55-.32,4.72-.9s2.78-2.44,2.8-3.9S11,28.49,10,27.62A36.34,36.34,0,0,0,4,23.12Z"/><path class="cls-2" d="M8.6,19.09C7.78,16,7.72,11.68,9,8.75c.72-1.61,2.06-3.3,3.82-3.15a4.18,4.18,0,0,1,2.85,2A19.27,19.27,0,0,1,18,12.08a33.28,33.28,0,0,1,2.14,11.38,4.61,4.61,0,0,1-2.88,4.31c-2.14.71-4.38-.83-5.68-2.41A16.76,16.76,0,0,1,8.6,19.09Z"/><path class="cls-2" d="M3.63,21.32a.87.87,0,0,1-.78-.06,1.8,1.8,0,0,1-1-1.59,3.42,3.42,0,0,1,.9-2c.2-.23.38-.41.56-.66s.56-.52.6-.7a9.23,9.23,0,0,0-.18,3.23,5.31,5.31,0,0,1,.08,1.43A.52.52,0,0,1,3.63,21.32Z"/><path class="cls-2" d="M14.2,5.05A.88.88,0,0,1,13.42,5a1.8,1.8,0,0,1-1-1.59,3.38,3.38,0,0,1,.91-2c.19-.23.37-.41.55-.66s.56-.52.61-.7a9.23,9.23,0,0,0-.19,3.23,4.94,4.94,0,0,1,.08,1.43A.52.52,0,0,1,14.2,5.05Z"/></g></g></svg>