<svg xmlns="http://www.w3.org/2000/svg" viewBox="0 0 38.91 42.51"><defs><style>.cls-1{fill:#aa742d;}.cls-2{fill:#f0d5a4;}</style></defs><title>Asset 246</title><g id="Layer_2" data-name="Layer 2"><g id="Layer_2-2" data-name="Layer 2"><path class="cls-1" d="M4.92,14.46a7.36,7.36,0,0,1-1-3.36c-.7,1.32-1.4,3-.63,4.24"/><path class="cls-1" d="M37.09,16.07a6.39,6.39,0,0,0-.56-4.71,5.13,5.13,0,0,1-1.29,3.69"/><path class="cls-1" d="M27.75,4.73,26.7,0A15.06,15.06,0,0,0,26,4.41"/><path class="cls-1" d="M14.66,4A9.33,9.33,0,0,1,13.55,0,5.61,5.61,0,0,0,13,3.85"/><path class="cls-1" d="M27.17,24.61c3.31,3.14,5.91,7.62,5,12.09-1.41,7.15-8.61.88-12.26,1.1a7.41,7.41,0,0,0-3.42,1c-2.24,1.63-5.11,5.15-7.79,2.44-4.08-4.14,0-12.14,3-15.61C16.11,20.69,22.23,19.92,27.17,24.61Z"/><path class="cls-1" d="M7.8,15.81C4.34,12.5,1.57,16.46,1.46,20A12,12,0,0,0,2.61,25.7C4,28.45,6.7,29.12,9.11,27,12.9,23.65,10.9,18.77,7.8,15.81Z"/><path class="cls-1" d="M29.63,20a9,9,0,0,0-.72,1.68c-.8,2.61,1.34,4.6,3.46,6a5.33,5.33,0,0,0,2.2.95c2.5.3,4.08-3,4.27-5.07.25-2.63-.07-6.44-2.45-8.15S30.73,18,29.63,20Z"/><path class="cls-1" d="M30.41,16.4a4,4,0,0,1-1.48,1.28,6.9,6.9,0,0,1-1.75.5,5.11,5.11,0,0,1-5-2.37,5.21,5.21,0,0,1-.69-3.44c.28-2.58,1.73-8,5-8,3.87,0,5.43,7.82,4.58,10.56A5.14,5.14,0,0,1,30.41,16.4Z"/><path class="cls-1" d="M18.39,9a27.14,27.14,0,0,1,.67,5.23c.08,2.81-2.25,4.26-4.86,4-3.07-.31-4.57-1.56-4.77-4.84-.18-2.86.3-10.06,4.68-9.53C17,4.21,17.8,6.4,18.39,9Z"/><path class="cls-2" d="M3.46,14.71a7.47,7.47,0,0,1-1-3.36c-.7,1.32-1.41,3-.63,4.24"/><path class="cls-2" d="M35.64,16.32a6.39,6.39,0,0,0-.56-4.71,5.22,5.22,0,0,1-1.29,3.7"/><path class="cls-2" d="M26.3,5,25.25.25a15.11,15.11,0,0,0-.75,4.41"/><path class="cls-2" d="M13.21,4.2A9.29,9.29,0,0,1,12.1.25a5.61,5.61,0,0,0-.6,3.85"/><path class="cls-2" d="M25.72,24.86C29,28,31.63,32.48,30.75,37c-1.4,7.15-8.61.88-12.25,1.1a7.55,7.55,0,0,0-3.43,1c-2.23,1.62-5.1,5.14-7.78,2.43-4.09-4.14,0-12.14,3-15.61C14.66,20.94,20.78,20.17,25.72,24.86Z"/><path class="cls-2" d="M6.35,16.06C2.89,12.75.12,16.71,0,20.28A12,12,0,0,0,1.16,26c1.34,2.75,4.09,3.41,6.49,1.29C11.45,23.91,9.44,19,6.35,16.06Z"/><path class="cls-2" d="M28.18,20.21a8.27,8.27,0,0,0-.72,1.69c-.8,2.6,1.34,4.6,3.45,6a5.43,5.43,0,0,0,2.21.95c2.5.3,4.07-3,4.26-5.07.25-2.62-.07-6.44-2.44-8.14S29.27,18.24,28.18,20.21Z"/><path class="cls-2" d="M29,16.65a3.87,3.87,0,0,1-1.47,1.28,6.62,6.62,0,0,1-1.75.5,5.12,5.12,0,0,1-5-2.37,5.26,5.26,0,0,1-.68-3.44c.27-2.58,1.73-8,5-8,3.88,0,5.44,7.82,4.59,10.57A5.24,5.24,0,0,1,29,16.65Z"/><path class="cls-2" d="M16.94,9.25a27.73,27.73,0,0,1,.67,5.22c.08,2.82-2.25,4.26-4.86,4C9.68,18.16,8.18,16.91,8,13.63c-.18-2.86.3-10.06,4.68-9.53C15.57,4.46,16.35,6.65,16.94,9.25Z"/></g></g></svg>