<svg xmlns="http://www.w3.org/2000/svg" xmlns:xlink="http://www.w3.org/1999/xlink" viewBox="0 0 718.2 575.25"><defs><style>.cls-1{fill:none;}.cls-2{fill:#9da7bd;}.cls-3{fill:#f7f7f7;}.cls-4{fill:url(#linear-gradient);}.cls-5{fill:#dedede;}.cls-6{fill:#626c7f;}.cls-10,.cls-7{fill:#485f82;}.cls-8{fill:#8799b2;}.cls-9{fill:#294566;}.cls-10{stroke:#294566;stroke-miterlimit:10;stroke-width:0.22px;}.cls-11{fill:#bcbcbc;}.cls-12{fill:#282923;}.cls-13{fill:#4c4d4f;}.cls-14{fill:#3b5172;}.cls-15{fill:#757e8e;}.cls-16{fill:#e5e5e5;}.cls-17{fill:#010101;}.cls-18{fill:#fff;}.cls-19{clip-path:url(#clip-path);}.cls-20{fill:#808fc3;}.cls-21{clip-path:url(#clip-path-2);}.cls-22{fill:url(#radial-gradient);}.cls-23{fill:url(#linear-gradient-2);}.cls-24{fill:#090d32;}.cls-25{fill:#d7914a;}.cls-26{fill:#71341c;}</style><linearGradient id="linear-gradient" x1="-883.26" y1="131.59" x2="-307.1" y2="-5.99" gradientTransform="matrix(-0.67, -0.06, -0.09, 1.02, -213.58, -36.39)" gradientUnits="userSpaceOnUse"><stop offset="0.09" stop-color="#cfdef5"/><stop offset="0.31" stop-color="#c6d4eb"/><stop offset="0.69" stop-color="#adb9cf"/><stop offset="0.9" stop-color="#9da7bd"/></linearGradient><clipPath id="clip-path"><path class="cls-1" d="M371.18,81.87c-13.5,10.34-16.9,29.27-5.1,42.58,7.4,8.34,18.27,11.76,28.36,8.92A18.59,18.59,0,0,0,406,124.84a25.38,25.38,0,0,0,2.75-11.24c.37-8.89-2.18-17.74-7-24.07-8.46-11.23-22.95-13.39-34-4.92"/></clipPath><clipPath id="clip-path-2"><path class="cls-1" d="M527.72,102.21c12.37,13.19,8.6,29-7.35,39.21a33.83,33.83,0,0,1-33,2.17c-4.54-2.23-8.83-5.8-10.61-11a23.05,23.05,0,0,1-.42-11.59,36.09,36.09,0,0,1,13.14-21.86,28.42,28.42,0,0,1,38.25,3"/></clipPath><radialGradient id="radial-gradient" cx="-83.11" cy="112.12" r="215.65" gradientTransform="matrix(-1, -0.09, -0.09, 1, 541.63, 24.74)" gradientUnits="userSpaceOnUse"><stop offset="0.09" stop-color="#cfdef5"/><stop offset="0.27" stop-color="#c6d4eb"/><stop offset="0.59" stop-color="#adb9cf"/><stop offset="0.76" stop-color="#9da7bd"/></radialGradient><linearGradient id="linear-gradient-2" x1="1.65" y1="11.13" x2="80.17" y2="7.21" gradientTransform="matrix(-1.05, -0.07, -0.03, 0.95, 513.42, 24.54)" gradientUnits="userSpaceOnUse"><stop offset="0.09" stop-color="#061034"/><stop offset="0.24" stop-color="#0a163d"/><stop offset="0.49" stop-color="#162757"/><stop offset="0.82" stop-color="#29427f"/><stop offset="0.9" stop-color="#2e4a8b"/></linearGradient></defs><title>Asset 270</title><g id="Layer_2" data-name="Layer 2"><g id="Layer_2-2" data-name="Layer 2"><path class="cls-2" d="M402.17,244.44c-11.82,48.17-64.5,116.55-95.89,148-15.1,15.12-30.45,12.44-46.54-1.62h0c-16.22-14.19-9.47-40.21,3.61-57.33,28.23-36.94,75.21-85.37,93.93-113.1Z"/><path class="cls-3" d="M358.77,218.37C312.21,247.66,274,310.08,274,310.08c7.66,25.94,38.61,48.58,84.88,53.56,0,0,48-64.66,46.07-126.23C384.37,228.77,358.77,218.37,358.77,218.37Z"/><path class="cls-2" d="M363.63,65c-9.33-24.31-25-50.69-43.12-61.09-48-27.61-91,96.78-72.3,149.38,9.17,25.81,24.62,51.59,43,62.65,38.51,23.13,85-62.06,78.44-116.73C368.21,86.93,367.72,75.7,363.63,65Z"/><path class="cls-4" d="M313.19,43.05c-18.26-9.25-36.33,10.43-43.06,37.25-10.05,40.09-4.79,95.29,22.43,112.73,19.29,12.37,47.24-1.32,59.73-29.52,8.55-19.32,15-46.35,8.08-66.19C353.16,76.7,329.76,51.44,313.19,43.05Z"/><path class="cls-5" d="M338.74,555.91c-6.6,4.21-12.1,9.37-11.69,14,6.42,1.16,12.9,2.13,19.41,2.86C347.9,567.16,346.79,557.8,338.74,555.91Z"/><path class="cls-2" d="M344.67,552.5c-2,1-4,2.17-5.93,3.41,8.05,1.89,9.16,11.25,7.72,16.81,3.28.36,5.28.68,8.57.92,1.77-3.88,8.81-13.14,18.67-10.6,5,1.27,7.4,6.55,8.72,11.49v.07c2.54,0,5.08-.07,7.62-.15.11-7.55,10.41-10.28,15.15-9.17s6.39,4.44,7.38,8.19c8.84-.78,12.51-2,21.19-3.5,2.26-8,6-32.18,7.77-40.33,8-48.2-89.28-63.52-101.57-5a54.92,54.92,0,0,1,5.18,11.77C346.2,540,346.27,548.74,344.67,552.5Z"/><path class="cls-5" d="M373.7,563c-9.86-2.54-16.9,6.72-18.67,10.6,8.68.71,18.67,1,27.39,1v-.07C381.1,569.59,378.66,564.31,373.7,563Z"/><path class="cls-5" d="M405.19,565.28c-4.74-1.11-15,1.62-15.15,9.17,5.82-.17,16.74-.47,22.53-1C411.58,569.72,409.9,566.41,405.19,565.28Z"/><path class="cls-6" d="M353.93,548.44s-.48.14-1.34.43-2.1.73-3.61,1.36a68.18,68.18,0,0,0-11.25,5.94c-4.15,2.74-7.57,5.84-9.29,8.67a9,9,0,0,0-1.38,3.61,4.87,4.87,0,0,0,0,1l0,.36v-.36a5.12,5.12,0,0,1,.1-1,9.16,9.16,0,0,1,1.56-3.44c1.81-2.67,5.27-5.59,9.38-8.3a92.13,92.13,0,0,1,11-6.19c1.46-.7,2.67-1.22,3.51-1.56Z"/><path class="cls-7" d="M312.46,408.61c-2.63,29.35,4.5,72.8,25.08,104.22q1.23,1.89,2.53,3.71c21.14,17.39,92.14,12.81,101.91,9.56C460.29,464.74,448.6,420,448.6,420,397,368.7,313.67,395.17,312.46,408.61Z"/><path class="cls-8" d="M340.07,516.54q-1.31-1.81-2.53-3.71l-.12.08a186.93,186.93,0,0,0,5.27,29c22.53,9.83,72.24,12.71,96.49,7.34a60.09,60.09,0,0,0,2.8-23.1C432.21,529.35,361.21,533.93,340.07,516.54Z"/><path class="cls-7" d="M442,526.1c-10.08,3.35-85.38,8.13-103.78-11.3"/><path class="cls-9" d="M338.2,514.8a5.15,5.15,0,0,1,.86.67l1,.86c.4.33.9.65,1.45,1a41.64,41.64,0,0,0,10.21,4.94,99.72,99.72,0,0,0,16.44,3.94,203.4,203.4,0,0,0,20.63,2.1,311.06,311.06,0,0,0,37.71-.37c4.81-.34,8.7-.76,11.37-1.15,1.33-.19,2.36-.39,3.06-.52a4.64,4.64,0,0,1,1.06-.21,4.79,4.79,0,0,1-1,.38c-.69.19-1.71.44-3,.69-2.66.49-6.55,1-11.37,1.44a278.88,278.88,0,0,1-37.81.62A191.49,191.49,0,0,1,368,527.05a95.53,95.53,0,0,1-16.51-4.15,39.52,39.52,0,0,1-10.2-5.25c-.54-.42-1-.76-1.42-1.12s-.69-.67-.94-.93A4.78,4.78,0,0,1,338.2,514.8Z"/><path class="cls-7" d="M340.61,517.28c-22.94-31.66-30.9-77.91-28.15-108.67C313.67,395.16,397,368.7,448.6,420c0,0,11.69,44.74-6.62,106.1"/><path class="cls-9" d="M442,526.1a2.29,2.29,0,0,1,0-.24c0-.16.09-.39.16-.7.16-.61.4-1.52.7-2.72s.71-2.67,1.17-4.42l.75-2.82c.26-1,.47-2.09.73-3.24q.75-3.43,1.68-7.62c.53-2.8,1-5.86,1.62-9.14.32-1.64.51-3.35.76-5.11s.47-3.58.72-5.46.38-3.81.58-5.79.43-4,.51-6.11a221.83,221.83,0,0,0,.14-27.4c-.08-2.47-.37-5-.56-7.49s-.53-5.11-.93-7.7c-.18-1.3-.37-2.6-.61-3.91s-.48-2.63-.74-4l-.45-2,0-.1-.13-.12-.37-.36L447,419c-1-.95-2-1.86-3-2.79a100.51,100.51,0,0,0-13.62-10.09,103.29,103.29,0,0,0-15.81-7.92,116,116,0,0,0-36.25-7.84,130.74,130.74,0,0,0-37,3.12A91.19,91.19,0,0,0,324.5,399a41,41,0,0,0-7.4,4.21,15.81,15.81,0,0,0-3,2.8,6,6,0,0,0-1,1.69,4.31,4.31,0,0,0-.22.91l-.07,1a166.25,166.25,0,0,0,.72,31.38A189.76,189.76,0,0,0,318.58,468,164.19,164.19,0,0,0,333,504.89l3.13,5.38c.9,1.57,1.82,2.8,2.48,3.84l1.54,2.35.38.61.12.21s-.06-.06-.16-.18-.23-.33-.42-.58c-.36-.53-.9-1.3-1.61-2.31s-1.62-2.24-2.55-3.8l-3.21-5.36A160.2,160.2,0,0,1,318,468.14a188.37,188.37,0,0,1-5.19-27,166.66,166.66,0,0,1-.8-31.53l.07-1a4.7,4.7,0,0,1,.27-1.12,6.79,6.79,0,0,1,1.11-1.92,17.37,17.37,0,0,1,3.16-3,42.25,42.25,0,0,1,7.55-4.31,92.86,92.86,0,0,1,16.93-5.61,131,131,0,0,1,37.26-3.16,116.32,116.32,0,0,1,36.52,7.92,103.68,103.68,0,0,1,15.94,8,101.3,101.3,0,0,1,13.71,10.21c1,.93,2.07,1.85,3.05,2.82l.74.71.37.36.24.23c.1.12.1.32.13.37.15.67.3,1.34.44,2,.27,1.33.53,2.65.74,4s.43,2.63.61,3.93c.4,2.61.63,5.19.91,7.73s.46,5.05.54,7.53a220,220,0,0,1-.25,27.48c-.09,2.1-.37,4.13-.54,6.12s-.34,3.94-.61,5.81-.52,3.7-.76,5.46-.46,3.48-.79,5.12c-.61,3.28-1.14,6.34-1.7,9.14s-1.23,5.33-1.76,7.62c-.27,1.15-.49,2.23-.77,3.24s-.54,1.94-.79,2.81c-.49,1.74-.91,3.21-1.25,4.4s-.6,2.09-.78,2.7l-.21.68A.73.73,0,0,1,442,526.1Z"/><path class="cls-2" d="M460.43,557.78a18.42,18.42,0,0,0-5.72,12.85c3.09.51,4.92,1,8,1.4.77-4.88,8.17-7.83,12.51-7.25a8.92,8.92,0,0,1,7.42,9.31h0c3,.24,6,.45,9,.61,1.05-6.1,6.79-9.64,12.1-9.44s11.71,4.5,12.74,9.83v.12c3.73,0,4.9-.17,8.63-.35.28-5.39,6.7-9.78,11.6-10,5.15-.24,12.24,2,13.78,8,2.7-.31,5.38-.65,8.07-1a40,40,0,0,0-9.23-14.49,27.23,27.23,0,0,0-3.1-2.78l.1-.14c1.25-4.48,9.76-23.73,11.92-27.84,11.17-30.62-85.35-62.85-96.75-5.37C461,524.6,460.14,554.4,460.43,557.78Z"/><path class="cls-5" d="M475.25,564.78c-4.34-.58-11.74,2.37-12.51,7.25,6.19.86,13.69,1.55,19.93,2.07h0A8.92,8.92,0,0,0,475.25,564.78Z"/><path class="cls-5" d="M503.75,565.27c-5.31-.2-11.05,3.34-12.1,9.44,7.85.45,17,.63,24.84.51v-.12C515.46,569.77,509.18,565.48,503.75,565.27Z"/><path class="cls-5" d="M536.72,564.87c-4.9.22-11.32,4.61-11.6,10,8.06-.37,17.38-1,25.38-2C549,566.92,541.87,564.63,536.72,564.87Z"/><path class="cls-6" d="M558.56,571.88l-.42-1.27c-.29-.81-.74-2-1.4-3.37a38.4,38.4,0,0,0-6.93-9.83,25,25,0,0,0-5.16-4.22,19.76,19.76,0,0,0-5-2.2,16.1,16.1,0,0,0-3.6-.6c-.43,0-.77,0-1,0h-.34s.48,0,1.33.12a16.42,16.42,0,0,1,3.51.8,24.39,24.39,0,0,1,9.75,6.57,45.28,45.28,0,0,1,7.11,9.52c.74,1.34,1.25,2.47,1.6,3.26Z"/><path class="cls-6" d="M464.11,555.08l-.67.34a14.5,14.5,0,0,0-1.75,1.06,16.58,16.58,0,0,0-6.87,11.36,14.34,14.34,0,0,0-.13,2l0,.75s0-.27.09-.75a15.34,15.34,0,0,1,.35-2,20.85,20.85,0,0,1,6.74-11.15,14.82,14.82,0,0,1,1.61-1.24Z"/><path class="cls-10" d="M434.73,419c-2.34,26-.89,74.21,15.81,104.39,19.7,13.46,90.08,11.58,109,.07l.36-.89c10.2-25,13.21-54.53,12.72-102.83C568.85,398.91,485.51,374.73,434.73,419Z"/><path class="cls-8" d="M559,521c-24.12,11.55-88.78,15.79-108.48,2.33-1.46,11.32,4.82,23.43,8.28,26,20.2,5.52,60.69,7.49,90.15-1.05,5.5-4.91,10.35-11.67,11.9-28.29C560.75,520.27,559.14,520.73,559,521Z"/><path class="cls-9" d="M450.54,523.36a6.72,6.72,0,0,1,1,.52c.33.18.72.43,1.22.67l1.72.8a58.68,58.68,0,0,0,11.55,3.47c10,2,24.21,3,39.8,2.34s29.65-2.81,39.53-5.43a78.51,78.51,0,0,0,11.46-3.85l1.73-.78,1.24-.63a5,5,0,0,1,1-.49,5.61,5.61,0,0,1-1,.64c-.33.2-.72.44-1.21.72l-1.71.85a70.82,70.82,0,0,1-11.44,4.14c-9.89,2.79-24,5-39.65,5.71s-29.91-.38-40-2.61a54.5,54.5,0,0,1-11.57-3.76l-1.7-.89c-.48-.26-.86-.54-1.18-.74A5.84,5.84,0,0,1,450.54,523.36Z"/><path class="cls-9" d="M450.54,523.36a1.13,1.13,0,0,1-.12-.2l-.34-.61c-.28-.55-.71-1.36-1.27-2.42a95.77,95.77,0,0,1-4.28-9.59,137.85,137.85,0,0,1-4.89-15.89c-.84-3.13-1.49-6.54-2.22-10.14s-1.32-7.45-1.8-11.5a254.35,254.35,0,0,1-2-26.61c-.06-2.4-.12-4.84-.09-7.32,0-1.24,0-2.49,0-3.75s.07-2.52.1-3.8c.05-2.56.23-5.15.36-7.77.09-1.32.19-2.64.29-4l0-.49,0-.32c0-.07,0-.16,0-.22l.18-.16.8-.67,1.55-1.31a98.37,98.37,0,0,1,29.54-16.4,119.83,119.83,0,0,1,35.72-6.48,131.66,131.66,0,0,1,36.11,3.84,98.81,98.81,0,0,1,16.38,5.63,61.91,61.91,0,0,1,7.43,4,36.28,36.28,0,0,1,6.52,5.07,15.17,15.17,0,0,1,4.25,6.89l.12.51c0,.27,0,.36,0,.54v1c0,.66,0,1.31,0,2,0,1.3,0,2.58,0,3.86,0,5.11,0,10.07-.13,14.86-.19,9.59-.6,18.52-1.26,26.65s-1.57,15.46-2.66,21.86-2.39,11.82-3.58,16.23A111.78,111.78,0,0,1,560.87,520a1.35,1.35,0,0,1,.06-.23c.05-.15.12-.37.22-.66.2-.58.49-1.45.88-2.58.77-2.27,1.85-5.64,3-10s2.4-9.84,3.43-16.23,1.91-13.7,2.52-21.82,1-17,1.15-26.61c.08-4.79.09-9.74.08-14.85,0-1.27,0-2.56,0-3.85,0-.65,0-1.3,0-1.95v-1.41l-.11-.45a14.34,14.34,0,0,0-4.06-6.5,35.37,35.37,0,0,0-6.38-4.94,62.47,62.47,0,0,0-7.34-3.89,98.57,98.57,0,0,0-16.24-5.55,131.51,131.51,0,0,0-35.87-3.8A119,119,0,0,0,466.72,401a97.9,97.9,0,0,0-29.32,16.21l-1.54,1.29-.73.62c0-.11,0,.42-.07.7-.1,1.33-.2,2.64-.3,3.95-.14,2.61-.32,5.19-.37,7.74,0,1.28-.08,2.54-.11,3.8s0,2.5,0,3.73c0,2.48,0,4.91.07,7.3a257.79,257.79,0,0,0,1.92,26.55c.46,4,1.13,7.86,1.73,11.48s1.33,7,2.14,10.13a143.8,143.8,0,0,0,4.74,15.88,103.06,103.06,0,0,0,4.12,9.63c.53,1.08.92,1.9,1.19,2.46l.3.63A.77.77,0,0,1,450.54,523.36Z"/><path class="cls-7" d="M458.16,435.53c-.51,0-7.23,21-12.59,24s-8.84,6.84-9.34,7.91a10.92,10.92,0,0,0-6.47-6.6c-2.59-1.07-12.68-20.42-13-25.66C426.59,435,442,435,458.16,435.53Z"/><path class="cls-7" d="M445.57,459.51c-4.63,2.56-7.23,4.78-9.28,7.71"/><path class="cls-9" d="M436.29,467.22c-.2-.11,1.17-2.62,3.9-4.75s5.28-3.15,5.38-3-2.23,1.62-4.83,3.65S436.5,467.37,436.29,467.22Z"/><path class="cls-7" d="M428.62,462.55a4.06,4.06,0,0,1,1.08-1.63,10.46,10.46,0,0,1,6.53,6.5"/><path class="cls-9" d="M436.23,467.42c-.24.1-1.12-2.38-3.52-4.33a12.2,12.2,0,0,0-1.78-1.21c-.55-.29-1.27-.68-1.21-.54-.71.65-1,1.26-1.1,1.21s-.07-.75.65-1.65l.24-.25s.07-.12.13-.1l.17.05.55.17a9,9,0,0,1,.94.39,9.52,9.52,0,0,1,2,1.25,9.4,9.4,0,0,1,2.56,3.32C436.26,466.72,436.33,467.39,436.23,467.42Z"/><path class="cls-3" d="M354.15,225.09c-34.41,64.31-45.43,127.89-44,178.29,0,0,135.47,56.13,265.1,2.38-5.2-59.76-2.71-69.86,7.63-143.67-10.65-13.62-25.36-24.12-28.26-26.25-14.87-10.94-29.07-17-42.52-21.48A170.74,170.74,0,0,0,464.77,206a338.4,338.4,0,0,0-37.95.61,282.56,282.56,0,0,0-36.32,4.59c-11.11,2.22-22.64,5.21-32.39,11.19a42.64,42.64,0,0,0-3.89,2.68Z"/><path class="cls-11" d="M354.22,225.09s.51-.45,1.59-1.22a47.92,47.92,0,0,1,5-3.1,71.85,71.85,0,0,1,8.69-4A110.15,110.15,0,0,1,382,212.93a243.13,243.13,0,0,1,35.42-5.78,353.06,353.06,0,0,1,47.65-1.42,188.06,188.06,0,0,1,27.63,3.19,166.57,166.57,0,0,1,29,8.52c19.57,7.44,38.65,20.14,55.13,37.06,2,2.16,4,4.37,5.86,6.72l.36.44.14.17c.05.08.14.13.1.23l-.06.41-.15,1.11-.32,2.23c-.2,1.48-.41,3-.62,4.47l-2.55,18.15c-1.7,12.25-3.47,24.76-4.78,37.56-.66,6.4-1.17,12.88-1.47,19.42s-.38,13.15-.18,19.81.52,13.36.93,20.12q.38,5.06.75,10.16t.87,10.55l-7.7,3c-2.48,1-5,2-7.49,2.77l-7.6,2.57L551,415l-1.94.56-3.87,1.13a317.58,317.58,0,0,1-42.47,9.22,352,352,0,0,1-42.07,3.41A404.58,404.58,0,0,1,381.16,423c-12.52-2.22-24.64-4.92-36.28-8a344.48,344.48,0,0,1-33.39-10.67l-1-.39-.68-.28c-.11,0-.07-.11-.08-.19v-.56l0-2.11c0-1.4,0-2.8,0-4.19-.07-2.78,0-5.53.08-8.26,0-1.36.05-2.72.08-4.07s.13-2.7.2-4c.16-2.68.23-5.33.45-7.95s.44-5.2.65-7.77.56-5.08.83-7.58c.5-5,1.35-9.87,2-14.63a367.31,367.31,0,0,1,12-50.48c2.22-7.31,4.67-14,6.9-20.14,1.2-3,2.34-6,3.43-8.73.53-1.4,1.09-2.74,1.67-4l1.64-3.81c1.08-2.46,2-4.81,3.05-7s2-4.16,2.86-6,1.71-3.6,2.47-5.18l2.18-4.21,3-5.71.77-1.45c.17-.32.27-.48.27-.48s-.07.17-.23.51-.41.82-.73,1.47c-.66,1.29-1.63,3.22-2.9,5.74L348.14,237l-2.42,5.19-2.82,6.05c-1,2.16-1.95,4.51-3,7l-1.63,3.81c-.57,1.3-1.12,2.64-1.64,4l-3.39,8.74C331,278,328.6,284.68,326.4,292a369.43,369.43,0,0,0-11.82,50.43c-.65,4.75-1.48,9.6-2,14.6-.27,2.5-.61,5-.82,7.58s-.42,5.14-.63,7.75-.29,5.26-.44,7.93c-.06,1.33-.15,2.67-.19,4s0,2.71-.08,4.07c0,2.72-.14,5.47-.06,8.24,0,1.39,0,2.78.05,4.18l0,2.1a1.51,1.51,0,0,0,0,.25l.3.12,1,.38a342.36,342.36,0,0,0,33.33,10.61c11.62,3.09,23.72,5.78,36.22,8a405.46,405.46,0,0,0,79.29,6.24,352.29,352.29,0,0,0,42-3.42,313.94,313.94,0,0,0,42.35-9.2l3.87-1.12,1.93-.56,1.9-.64,7.58-2.56c2.54-.8,5-1.81,7.46-2.76l7.09-2.75q-.4-5-.82-9.9c-.25-3.41-.49-6.8-.74-10.17-.41-6.77-.8-13.49-.93-20.16s-.07-13.31.19-19.87.81-13.05,1.48-19.46c1.32-12.83,3.1-25.35,4.81-37.59q1.31-9.18,2.57-18.15l.63-4.48.31-2.22.16-1.11,0-.15,0,0-.35-.44c-1.84-2.33-3.82-4.53-5.81-6.68-16.38-16.84-35.36-29.51-54.82-36.94a166.2,166.2,0,0,0-28.84-8.53A187.93,187.93,0,0,0,465,206.33a355.41,355.41,0,0,0-47.58,1.29,246.18,246.18,0,0,0-35.38,5.63A108.92,108.92,0,0,0,369.58,217a72.44,72.44,0,0,0-8.7,3.9,54.72,54.72,0,0,0-5,3l-1.21.86C354.37,225,354.22,225.09,354.22,225.09Z"/><path class="cls-12" d="M310,397.57c-2,13.61,2.53,21.73,2.53,21.73,64.45,25.15,157.26,30.42,259.88,7.49,6.36-9.84,2.79-21,2.79-21C474.67,424.57,371.7,423.65,310,397.57Z"/><path class="cls-13" d="M407,441.35c.41-6.3.33-16.79.8-24.88a283.16,283.16,0,0,0,37.9,1c.26,4.73-.12,21.47-.75,26.17C444.92,443.69,421.4,444.66,407,441.35Zm34-19.14s-17.81.26-29.24-1.41c-.66,6.09-.51,11.95-.58,17.83,7.1.54,20.47,1.08,29.24,1.16C440.68,436.89,441.48,427.08,441,422.21Z"/><path class="cls-14" d="M316.93,424.56l5.32,1.55c.3-9.78.54-14.73.86-24.51L317.59,400C317.38,408.51,317.14,416.08,316.93,424.56Z"/><path class="cls-14" d="M364.48,436.59l6.45,1c.31-9.78.55-14.73.87-24.51l-6.66-1C364.93,420.54,364.69,428.11,364.48,436.59Z"/><path class="cls-14" d="M498.93,415l-6.66.37c.09,8.48.24,17.19.33,25.66l6.45-.36C499,430.82,499,424.74,498.93,415Z"/><path class="cls-14" d="M563.12,407.4l-6.62,1c.43,8.47.94,15.53,1.4,24.14l6.36-1.16C563.9,421.62,563.78,417.08,563.12,407.4Z"/><path class="cls-13" d="M439,428.74c.32,0,1.14-.05,2,0l2.6,0c.94,0,1.11,3.16.05,3.17H441c-1,0-2,0-2.31,0C437.05,431.73,437.89,428.89,439,428.74Z"/><path d="M441.07,428.69l1.34.08.67,0h.38a.81.81,0,0,1,.34.05,2,2,0,0,1,.52,1.52,3,3,0,0,1-.11.86c-.08.27-.23.5-.45.53-.51,0-1,0-1.43.06l-1.34.06,1.34.07c.42,0,.89,0,1.46,0a.86.86,0,0,0,.65-.66,2.73,2.73,0,0,0,.13-.95,2,2,0,0,0-.67-1.7.89.89,0,0,0-.44-.05h-.38l-.67,0Z"/><path class="cls-2" d="M559.3,243.33C616.88,281.18,639.71,358,642.82,458c-2.27,16.12-40.05,19.32-55.12,12.34-25.41-64.67-65.55-144.06-35.76-214.92"/><path class="cls-15" d="M587.7,470.38a1.81,1.81,0,0,0-.16-.56l-.57-1.6c-.52-1.39-1.29-3.46-2.32-6.09-2-5.29-5.11-12.9-8.88-22.3s-8.25-20.6-12.88-33.16-9.31-26.52-13.2-41.45c-1.91-7.48-3.51-14.84-4.76-22s-2-14.14-2.58-20.79c-.1-1.67-.19-3.32-.29-4.94s-.09-3.23-.13-4.81c-.13-3.17,0-6.24.06-9.21,0-1.48.17-2.93.25-4.36s.14-2.84.32-4.21c.33-2.74.52-5.38,1-7.87s.73-4.87,1.24-7.09.85-4.34,1.41-6.28.94-3.76,1.44-5.4,1-3.14,1.42-4.49.85-2.53,1.23-3.55.69-1.89,1-2.59.44-1.24.56-1.6a2.27,2.27,0,0,0,.16-.56,1.93,1.93,0,0,0-.26.52c-.15.35-.38.87-.67,1.56s-.63,1.54-1,2.55-.9,2.18-1.33,3.53-1,2.84-1.51,4.48-1,3.46-1.54,5.4-1,4.05-1.5,6.28-.91,4.62-1.33,7.12-.69,5.16-1,7.91c-.19,1.37-.24,2.79-.35,4.22s-.23,2.91-.29,4.4c-.05,3-.23,6.07-.12,9.25,0,1.59,0,3.21.11,4.84l.28,5c.5,6.69,1.26,13.71,2.52,20.91s2.84,14.59,4.76,22.09A433.49,433.49,0,0,0,561.93,407c4.69,12.55,9.24,23.73,13.11,33.1l9.21,22.16c1.09,2.61,1.93,4.64,2.51,6l.68,1.55A1.93,1.93,0,0,0,587.7,470.38Z"/><path class="cls-2" d="M585.72,454.36a12.23,12.23,0,0,0-1.4,6.67c.46,3.36,2.82,6,3.13,9.39l.25,0c3.44,5.53,12.29,7.7,17.21,3.44v0a31.63,31.63,0,0,0,35.18-3.7,76.57,76.57,0,0,0,2.7-11.87h0C642.59,446.5,635.9,439.29,625,436,609.47,431.26,592.44,439.66,585.72,454.36Z"/><path class="cls-5" d="M587.45,470.42q0,.42,0,.84c-.08,4.24-.48,7.73,1.38,11.76,1.19,2.57,3.58,5.14,6.37,4.69a6.81,6.81,0,0,0,3.43-2,22.68,22.68,0,0,0,6.25-11.9c-4.92,4.26-13.77,2.09-17.21-3.44Z"/><path class="cls-5" d="M604.91,473.8v0c3.63,6.24,9.67,22.8,19.58,18.38,7.75-3.46,12.73-12.9,15.6-22.1A31.63,31.63,0,0,1,604.91,473.8Z"/><path class="cls-3" d="M518.61,283.55c-.13,15,9.15,59.29,25.82,90.21,28.26-1.4,69.92-15.26,86-37.58-23.38-57.92-57-86.08-71.36-96.76C545.3,239.29,522.65,256.3,518.61,283.55Z"/><path class="cls-11" d="M609.22,294.75a1.92,1.92,0,0,1-.21-.27l-.59-.82-2.23-3.26-1.64-2.4c-.62-.87-1.31-1.82-2-2.84s-1.53-2.13-2.39-3.3-1.82-2.38-2.81-3.68a228.19,228.19,0,0,0-15.39-18.07c-3.19-3.32-6.65-6.83-10.5-10.34a133.81,133.81,0,0,0-12.7-10.4l.4-.59a150,150,0,0,1,22,19.3,228.84,228.84,0,0,1,20.82,25.12,247.86,247.86,0,0,1,18.53,30.17c.7,1.36,1.44,2.7,2.12,4.08l2,4.19c.67,1.39,1.33,2.8,2,4.21s1.23,2.87,1.85,4.31l1.85,4.35.46,1.09.16.38.11.27-.18.23-.43.56c-.5.63-.95,1.29-1.48,1.89a56.15,56.15,0,0,1-6.79,6.83,94.75,94.75,0,0,1-18,11.93A143.77,143.77,0,0,1,585,366a161.58,161.58,0,0,1-19.43,5.48,122.61,122.61,0,0,1-19.18,2.66l-1.18.05-.76,0a1.22,1.22,0,0,1-.27,0l-.1-.27-.17-.42-.84-2.18c-.54-1.46-1.08-2.9-1.62-4.34-1-2.88-2.06-5.73-3-8.56q-2.86-8.48-5.1-16.59a176.63,176.63,0,0,1-5.89-30.57c-.08-1.19-.17-2.36-.25-3.52s-.06-2.32-.1-3.45l0-1.69v-.42c0-.19,0-.3.05-.45l.11-.83c.16-1.09.35-2.16.54-3.22A107.94,107.94,0,0,1,538.23,268a96.44,96.44,0,0,1,6.43-10.43l1.9-2.56c.22-.28.38-.5.5-.64l.17-.21s0,.08-.14.24l-.45.67-1.83,2.61a105.55,105.55,0,0,0-6.26,10.49,107.69,107.69,0,0,0-7.33,17.87,106.53,106.53,0,0,0-2.92,11.71c-.18,1-.37,2.11-.52,3.2l-.11.82,0,.38v.41c0,.56,0,1.12,0,1.68.05,1.13,0,2.27.12,3.42s.17,2.32.26,3.5a178.32,178.32,0,0,0,6,30.43q2.25,8.07,5.13,16.53,1.43,4.23,3,8.53c.53,1.43,1.08,2.88,1.62,4.33l.84,2.17.05.13h0l.41,0,1.17-.06a121.42,121.42,0,0,0,19-2.67,158.45,158.45,0,0,0,19.31-5.47,142.06,142.06,0,0,0,19.09-8.24,94,94,0,0,0,17.77-11.81,55.78,55.78,0,0,0,6.68-6.72c.52-.59,1-1.24,1.45-1.85l.29-.38s0,.1-.07-.17l-.46-1.09-1.84-4.33c-.61-1.43-1.2-2.88-1.84-4.3s-1.32-2.8-2-4.19-1.31-2.79-2-4.17-1.41-2.71-2.11-4.07a247.39,247.39,0,0,0-18.42-30.08,229.73,229.73,0,0,0-20.7-25.08,149.56,149.56,0,0,0-21.83-19.26l.4-.59a133.13,133.13,0,0,1,12.74,10.52c3.84,3.54,7.29,7.07,10.47,10.42a219.47,219.47,0,0,1,15.29,18.22c1,1.31,1.94,2.53,2.79,3.71l2.35,3.33,2,2.87c.58.89,1.11,1.71,1.59,2.43l2.15,3.32.54.85A2,2,0,0,1,609.22,294.75Z"/><path class="cls-16" d="M354.22,216.34l-.07,0c8.86,34.27,58.16,61.57,58.25,61.37A54.41,54.41,0,0,1,423,261.1,41.64,41.64,0,0,1,434,253C410.3,251.39,363.88,231.36,354.22,216.34Z"/><path class="cls-12" d="M404.44,373.76c3.72,22,17.23,32.73,17.23,32.73,15.12-19.56,19.72-30,19.72-30-5.5-33.13-5.62-104.42-5.62-104.42-2.86-.67-5.69-1.61-8.34-.51C426.17,272.76,408.81,347.39,404.44,373.76Z"/><path class="cls-12" d="M434,253a41.64,41.64,0,0,0-11,8.13h0a87.59,87.59,0,0,1,4.43,10.47c2.65-1.1,5.48-.16,8.34.51a92.2,92.2,0,0,1,7.11-9.42h0C440.58,258.5,437.64,254.76,434,253Z"/><path class="cls-16" d="M554.57,227.09l-13.07-8.55C518.26,239.05,468.28,255.26,434,253c3.62,1.79,6.56,5.53,8.88,9.7a69.6,69.6,0,0,1,6.47,17.74C497.67,270.76,536,249.74,554.57,227.09Z"/><path class="cls-11" d="M354.15,216.34a6.24,6.24,0,0,1,.41,1.15c.25.76.62,1.88,1.16,3.3a63.69,63.69,0,0,0,5.8,11.41,98.3,98.3,0,0,0,11.79,14.9,157.36,157.36,0,0,0,17.34,15.58c3.78,2.94,7.56,5.67,11.27,8.16,1.86,1.24,3.69,2.43,5.5,3.55.9.56,1.8,1.1,2.69,1.63l1.33.76.66.37.09,0s0,0,0,0l.69-1.49c.24-.56.51-1.1.79-1.63s.53-1.06.8-1.58.56-1,.84-1.5c.54-1,1.17-1.93,1.72-2.86s1.18-1.78,1.81-2.58a40.84,40.84,0,0,1,7.29-7.67,38.26,38.26,0,0,1,5.69-3.83c.69-.39,1.24-.65,1.61-.83A2.66,2.66,0,0,1,434,253c0,.05-.73.46-2.07,1.29a43.59,43.59,0,0,0-5.51,4,42,42,0,0,0-7.06,7.7c-.62.79-1.15,1.69-1.76,2.57s-1.14,1.83-1.66,2.83c-.27.5-.55,1-.83,1.5s-.51,1-.77,1.57-.53,1.06-.77,1.61-.55,1.23-.83,1.85l-.2.19,0,0h0c0,.09,0-.12,0-.1h-.06l-.11,0L412,278c-.1,0-.23-.12-.27-.13l-.68-.37-1.35-.76L407,275.09c-1.82-1.11-3.67-2.3-5.53-3.54-3.74-2.49-7.54-5.22-11.34-8.18a151.16,151.16,0,0,1-17.39-15.71A94.82,94.82,0,0,1,361,232.53a59,59,0,0,1-5.6-11.62c-.5-1.45-.82-2.59-1-3.37A5.89,5.89,0,0,1,354.15,216.34Z"/><path class="cls-11" d="M554.58,227.09a1.47,1.47,0,0,1-.23.32l-.73.9c-.65.77-1.6,1.94-2.88,3.38a108.78,108.78,0,0,1-12,11.05,157.37,157.37,0,0,1-20.18,13.42,205.2,205.2,0,0,1-26.88,12.56c-3.85,1.38-7.6,2.85-11.34,4-1.87.59-3.69,1.23-5.52,1.76L469.37,276c-1.77.53-3.53,1-5.27,1.4L459,278.7c-1.67.4-3.31.72-4.91,1.07l-5,1.07-.14-.8-.1-.45-.2-.86c-.15-.58-.3-1.15-.44-1.71-.31-1.12-.63-2.21-1-3.26-.67-2.1-1.39-4.07-2.14-5.88a45.51,45.51,0,0,0-4.78-8.9,21.54,21.54,0,0,0-4.39-4.72C434.73,253.37,434,253,434,253a3.92,3.92,0,0,1,.54.24,12,12,0,0,1,1.48.88,20.44,20.44,0,0,1,4.6,4.65,44.38,44.38,0,0,1,5,8.92c.79,1.81,1.53,3.79,2.24,5.9.35,1.06.68,2.15,1,3.28l.46,1.72.22.88.12.54,4.29-1c1.59-.36,3.23-.69,4.89-1.1l5.06-1.29c1.72-.43,3.48-.88,5.24-1.42l5.39-1.56c1.82-.54,3.64-1.17,5.5-1.77,3.73-1.15,7.45-2.61,11.29-4a212.78,212.78,0,0,0,26.81-12.45,162.34,162.34,0,0,0,20.18-13.2,119.55,119.55,0,0,0,12.18-10.8c1.32-1.39,2.3-2.52,3-3.26l.79-.83Q554.55,227.08,554.58,227.09Z"/><path d="M427.44,271.58c-.24.09-1.29-2.24-2.46-5.14s-2.19-5.21-2-5.33,1.62,2.06,2.79,5S427.65,271.5,427.44,271.58Z"/><path d="M442.89,262.67c.18.17-1.47,2.23-3.36,4.85s-3.55,4.72-3.76,4.57,1.14-2.41,3.05-5.08S442.72,262.51,442.89,262.67Z"/><path d="M404.44,373.76a3.89,3.89,0,0,1,.18.73l.45,2.16a57,57,0,0,0,2.48,8.09,60.19,60.19,0,0,0,6.25,11.81,63.53,63.53,0,0,0,5.09,6.62c.49.56,1,1.11,1.52,1.65l.8.82.35.33.07.07s0,0,.06-.06l2.8-3.71c3.92-5.3,8.09-11.2,12.1-17.81,1-1.66,2-3.35,2.94-5.11.46-.88.93-1.77,1.36-2.68l.08-.17c0-.06,0,0,0-.05l0-.28-.11-.76c-.07-.51-.15-1-.23-1.53-.65-4.09-1.1-8.32-1.57-12.66-1.72-17.37-2.61-36.54-3.18-56.66-.28-10.06-.44-19.89-.51-29.38v-2.75l-.11,0c-1.15-.28-2.27-.57-3.39-.75a8.92,8.92,0,0,0-3.3,0,6.86,6.86,0,0,0-.77.24l-.06,0s0,0,0,.07a3.31,3.31,0,0,0-.12.33c-.19.51-.34,1.07-.51,1.61-1.24,4.37-2.29,8.72-3.34,12.94-4.14,16.94-7.63,32.25-10.5,45.11s-5.08,23.31-6.55,30.54c-.71,3.61-1.26,6.42-1.64,8.33-.18.95-.32,1.68-.42,2.17a4.63,4.63,0,0,1-.17.73,5.21,5.21,0,0,1,.08-.75c.08-.49.19-1.22.34-2.18.31-1.92.79-4.74,1.48-8.37,1.36-7.25,3.48-17.71,6.27-30.6s6.22-28.22,10.32-45.17c1-4.24,2.09-8.58,3.33-13,.17-.55.31-1.1.52-1.66a2.87,2.87,0,0,1,.19-.47l.18-.31a1.5,1.5,0,0,1,.33-.15,8.75,8.75,0,0,1,.87-.27,9.8,9.8,0,0,1,3.62,0c1.18.18,2.32.48,3.46.76l.74.18a1.34,1.34,0,0,1,0,.41v3c.07,9.48.24,19.3.52,29.36.57,20.1,1.44,39.26,3.11,56.6.45,4.33.9,8.55,1.53,12.62.07.51.15,1,.22,1.53l.11.75.07.48a1.27,1.27,0,0,1-.11.3l-.09.18c-.44.93-.92,1.82-1.39,2.71-1,1.77-2,3.47-3,5.13-4.06,6.63-8.26,12.52-12.22,17.8-1,1.35-2.05,2.68-3,4l-.15.19c-.05.05-.1.18-.16.07l-.36-.33-.49-.48-.81-.84c-.52-.56-1-1.12-1.52-1.68a63.75,63.75,0,0,1-5.08-6.71,59,59,0,0,1-6.16-12,51.49,51.49,0,0,1-2.33-8.17l-.37-2.18A6.85,6.85,0,0,1,404.44,373.76Z"/><path class="cls-11" d="M554.58,227.09a4.37,4.37,0,0,1-.71.66l-2.12,1.78c-.94.75-2.06,1.7-3.42,2.74l-4.63,3.49c-1.73,1.29-3.68,2.6-5.75,4.06s-4.37,2.88-6.75,4.43c-4.85,3-10.26,6.12-16.14,9.05a181.13,181.13,0,0,1-17,7.37c-5.35,2-10.28,3.4-14.44,4.49s-7.6,1.68-10,2.06l-2.74.37a4.41,4.41,0,0,1-1,.07,3.88,3.88,0,0,1,.94-.25l2.71-.53c2.36-.48,5.74-1.23,9.89-2.32s9-2.65,14.3-4.65,11-4.49,16.88-7.4,11.25-6,16.1-8.95c2.39-1.53,4.68-2.95,6.78-4.34s4-2.72,5.79-4l4.7-3.38c1.37-1,2.53-1.91,3.49-2.62l2.23-1.64A4.35,4.35,0,0,1,554.58,227.09Z"/><path class="cls-11" d="M541.5,218.54a2.33,2.33,0,0,1-.38.37l-1.18,1L538,221.55c-.38.31-.78.67-1.24,1l-1.49,1.07-3.51,2.51-4.35,2.73c-1.54,1-3.3,1.9-5.12,2.93-.92.49-1.85,1-2.83,1.54l-3,1.49a192.35,192.35,0,0,1-30.38,11.65c-1.46.47-3,.83-4.49,1.23l-4.6,1.2L472.2,250l-2.41.53c-.81.16-1.63.29-2.45.44l-5,.88c-1.68.25-3.38.45-5.09.68l-2.57.34-2.6.22c-1.75.12-3.5.32-5.27.39l-5.28.15c-1.75.06-3.49-.08-5.21-.11a61.58,61.58,0,0,1-10.15-1.1,138.51,138.51,0,0,1-18.59-4.95,194.67,194.67,0,0,1-29.89-12.84,95.57,95.57,0,0,1-18.24-12.18,34.22,34.22,0,0,1-4.1-4.35c-.43-.53-.69-1-.89-1.27a2.8,2.8,0,0,1-.27-.46s.45.57,1.3,1.62a38.44,38.44,0,0,0,4.19,4.2A99.51,99.51,0,0,0,378,234.05a199.86,199.86,0,0,0,29.85,12.62,139.93,139.93,0,0,0,18.5,4.87,60,60,0,0,0,10,1.07c1.72,0,3.44.17,5.17.11l5.25-.15c1.75-.07,3.49-.27,5.23-.39l2.59-.21,2.56-.34c1.7-.23,3.39-.43,5.06-.67l4.95-.87c.81-.15,1.63-.27,2.44-.44l2.4-.52,4.73-1,4.59-1.18c1.52-.39,3-.75,4.48-1.21a196.72,196.72,0,0,0,30.32-11.43l3.05-1.46c1-.49,1.91-1,2.83-1.51,1.82-1,3.59-1.86,5.14-2.86l4.37-2.65,3.54-2.44,1.5-1c.47-.34.88-.69,1.27-1l2-1.55,1.23-.95A2.43,2.43,0,0,1,541.5,218.54Z"/><path d="M432.75,285.52c-.25,0-.2-2.93-.29-6.5s-.26-6.47,0-6.5.82,2.85.89,6.48S433,285.54,432.75,285.52Z"/><path d="M428.3,283.66c-.24-.09.46-2.47,1.05-5.44s.88-5.44,1.13-5.44.36,2.55-.26,5.61S428.51,283.75,428.3,283.66Z"/><path class="cls-2" d="M359,221.4c-15.82-12.69-36.67-29.31-41-49.92s8.64-50.75,18.13-68.6c11.15-21,27.27-40,48-52,29.44-17.07,65-20.43,98-14.25,29.95,5.6,63,17.89,81.42,43.57,0,0,39.58,50.68,33.1,102.34-4.8,38.29-50.77,56.52-83.16,64.16C464,258.36,400.35,254.56,359,221.4Z"/><path class="cls-6" d="M551.58,233.7l-1.87.85c-1.22.56-3,1.35-5.4,2.32a196,196,0,0,1-20.48,7,222.06,222.06,0,0,1-31.39,6.49,231.77,231.77,0,0,1-39.18,1.94,199.26,199.26,0,0,1-38.88-5.1c-5.87-1.39-11.38-3-16.46-4.75s-9.69-3.7-13.84-5.59a131,131,0,0,1-18.78-10.69c-1.05-.73-2-1.36-2.78-1.95l-2-1.5-1.64-1.24,1.62,1.26,2,1.53c.78.6,1.72,1.23,2.76,2a129.21,129.21,0,0,0,18.7,10.9c4.15,1.92,8.76,3.91,13.84,5.7a168.41,168.41,0,0,0,16.48,4.87,196.11,196.11,0,0,0,39,5.21,226.29,226.29,0,0,0,39.28-2,218,218,0,0,0,31.41-6.71A191.23,191.23,0,0,0,544.34,237c2.36-1,4.17-1.81,5.39-2.38Z"/><path d="M484.82,62.22c-.56,3.6.44,7.66,1.18,11.28,0,0,14.63-2.23,19.16-2.4S523.5,79,523.5,79s-7.92-11-14-15.63S484.82,62.22,484.82,62.22Z"/><path class="cls-17" d="M483.22,61.77l-.25.73a14.77,14.77,0,0,0-.46,2.08,10.84,10.84,0,0,0,0,3.23,11,11,0,0,0,1.33,3.76c.16.32.36.6.53.89l.33.48.27.39.13.19.07.1.11,0,.88-.13.46-.08.88-.17c1.14-.22,2.17-.46,3-.67,1.72-.43,2.77-.77,2.77-.77s-1.11-.06-2.88,0c-.88,0-1.93.06-3.1.13l-.89.07L486,72c-.07,0,0,0,0,0v0l-.21-.33c-.15-.27-.33-.54-.47-.82a14.15,14.15,0,0,1-1.92-6.19c-.08-.86-.08-1.57-.09-2.07Z"/><path class="cls-17" d="M479.87,63.13l-.09.67a12,12,0,0,0,0,1.85,12.49,12.49,0,0,0,1.82,5.83,8.61,8.61,0,0,0,1.09,1.42c.19.22.42.39.62.59l.34.25c.11.05.33.36.56.19,1.1-.31,1.89-.57,2.65-.81,1.47-.47,2.37-.81,2.37-.81s-.95.14-2.46.42l-2.61.52s0,0-.08-.07l-.29-.24c-.17-.19-.37-.35-.54-.56a11.3,11.3,0,0,1-1-1.32,16.48,16.48,0,0,1-2.1-5.46,16.17,16.17,0,0,1-.24-1.8C479.88,63.37,479.87,63.13,479.87,63.13Z"/><path class="cls-18" d="M371.18,81.87c-13.5,10.34-16.9,29.27-5.1,42.58,7.4,8.34,18.27,11.76,28.36,8.92A18.59,18.59,0,0,0,406,124.84a25.38,25.38,0,0,0,2.75-11.24c.37-8.89-2.18-17.74-7-24.07-8.46-11.23-22.95-13.39-34-4.92"/><g class="cls-19"><ellipse class="cls-20" cx="375.77" cy="107.08" rx="23.05" ry="18.12" transform="translate(228.25 468.88) rotate(-83.72)"/><ellipse cx="375.77" cy="107.08" rx="16.48" ry="12.96" transform="translate(228.25 468.88) rotate(-83.72)"/><path class="cls-18" d="M390,104.46c-.19,1.75-1.46,3.05-2.84,2.9s-2.33-1.7-2.14-3.45,1.46-3,2.84-2.89S390.22,102.71,390,104.46Z"/><path class="cls-18" d="M366.33,118.17c-1.72.78-3.75-.45-4.55-2.74s0-4.78,1.69-5.55,3.75.44,4.55,2.73S368.06,117.39,366.33,118.17Z"/></g><path class="cls-17" d="M406,124.84l.45-.87a23.24,23.24,0,0,0,1.2-2.55,33.19,33.19,0,0,0,2.41-10.2,37.35,37.35,0,0,0-2.19-15.67A31.89,31.89,0,0,0,403.3,87a27,27,0,0,0-7.95-7,23,23,0,0,0-5-2.19,22.28,22.28,0,0,0-5.25-1A25.3,25.3,0,0,0,380,77a28,28,0,0,0-4.68,1,20.75,20.75,0,0,0-7.81,4.38,23.51,23.51,0,0,0-4.64,6,38.71,38.71,0,0,0-3.6,9.85c-.49,2.39-.69,3.72-.69,3.72l1.55-3.42A47.27,47.27,0,0,1,365.32,90,22.69,22.69,0,0,1,370,85.55a18,18,0,0,1,6.57-2.74,28.49,28.49,0,0,1,3.93-.5,22.63,22.63,0,0,1,4.05.09,18.86,18.86,0,0,1,4,.91,20.57,20.57,0,0,1,3.87,1.75,24.84,24.84,0,0,1,6.49,5.45,31.5,31.5,0,0,1,4.34,6.92,40.89,40.89,0,0,1,3.82,13.8,38,38,0,0,1-.37,9.94c-.19,1.18-.4,2.1-.55,2.71Z"/><path d="M408.47,53.82c-.26,3.64-2,7.39-3.36,10.79,0,0-12.3-5.2-16.23-6.3s-17.62,3.92-17.62,3.92,9.17-9.1,15.42-12.4S408.47,53.82,408.47,53.82Z"/><path class="cls-17" d="M410,53.71l-.17.72c-.11.45-.26,1.12-.49,1.91a19.15,19.15,0,0,1-1,2.66,16.34,16.34,0,0,1-1.79,2.89c-.19.24-.37.48-.57.71l-.28.34-.15.17c-.06.06,0,0,0,0s0,0-.07,0l-.81-.27c-1.06-.34-2-.61-2.83-.83-1.63-.44-2.67-.65-2.67-.65s.9.56,2.39,1.35c.74.39,1.63.85,2.64,1.32l.77.36.75.32.2.08.15-.15.31-.32.44-.45.33-.36c.22-.24.42-.5.63-.76a11.19,11.19,0,0,0,1.78-3.34,12,12,0,0,0,.55-3,14.68,14.68,0,0,0,0-2Z"/><path class="cls-17" d="M412.6,55.73l-.17.62c-.12.4-.3,1-.56,1.64A18.17,18.17,0,0,1,409,62.82a11.69,11.69,0,0,1-1.1,1.12,6.15,6.15,0,0,1-.58.46,2,2,0,0,1-.3.2l-.15.09-.07,0h0s0,0-.08,0l-.32-.16-.6-.29-1.08-.52c-1.34-.63-2.18-1-2.18-1s.75.53,2,1.32c.32.19.66.41,1,.64l.57.35.3.18c.14.06.37.31.55.11l.41-.2c.12-.06.22-.14.34-.21a6.08,6.08,0,0,0,.66-.47,9.06,9.06,0,0,0,1.21-1.19,13.39,13.39,0,0,0,2.63-5.2,12.25,12.25,0,0,0,.31-1.74Z"/><path class="cls-18" d="M527.72,102.21c12.37,13.19,8.6,29-7.35,39.21a33.83,33.83,0,0,1-33,2.17c-4.54-2.23-8.83-5.8-10.61-11a23.05,23.05,0,0,1-.42-11.59,36.09,36.09,0,0,1,13.14-21.86,28.42,28.42,0,0,1,38.25,3"/><g class="cls-21"><ellipse class="cls-20" cx="494.38" cy="126.21" rx="23.05" ry="20.24" transform="translate(314.87 603.82) rotate(-83.72)"/><ellipse cx="494.38" cy="126.21" rx="16.48" ry="14.47" transform="translate(314.87 603.82) rotate(-83.72)"/><path class="cls-18" d="M510.26,123.77a2.82,2.82,0,1,1-2.44-3.47A3,3,0,0,1,510.26,123.77Z"/><path class="cls-18" d="M484,137.2c-1.91.75-4.2-.5-5.11-2.8s-.11-4.79,1.8-5.54,4.2.49,5.12,2.79S485.91,136.44,484,137.2Z"/></g><path class="cls-17" d="M476.75,132.63l0-1c0-.33,0-.75-.05-1.23s0-1.05.05-1.68a33.58,33.58,0,0,1,2-10.21,38.37,38.37,0,0,1,7.83-12.74,29.73,29.73,0,0,1,6.55-5.46,28.34,28.34,0,0,1,8.32-3.42,25.47,25.47,0,0,1,8.87-.48,27.11,27.11,0,0,1,8.1,2.42,36.29,36.29,0,0,1,6.79,4.09,32.06,32.06,0,0,1,5,4.85,21.84,21.84,0,0,1,4.35,9.19,15.58,15.58,0,0,1,.38,2.87c.06.67.09,1,.09,1l.18-1a14.65,14.65,0,0,0,.31-3A21.26,21.26,0,0,0,532.73,106a30.82,30.82,0,0,0-4.75-6.3,35.41,35.41,0,0,0-7.18-5.55,29,29,0,0,0-9.61-3.65,27.93,27.93,0,0,0-11.17.31,30,30,0,0,0-10.15,4.47,31.53,31.53,0,0,0-7.35,7.1,36.45,36.45,0,0,0-6.8,15.27,30.63,30.63,0,0,0,0,11.07q.21.94.36,1.68c.14.47.25.88.35,1.2Z"/><path d="M518.2,180.7c-17.4,12.19-45,53.84-66.22,54.55-15.42.53-31.16-1-45.42-6.86s-27.63-50.3-33.76-64.45c6.13,14.15,18.84,24.81,33.1,30.7s30,7.38,45.41,6.86C472.55,200.78,500.8,192.89,518.2,180.7Z"/><path class="cls-18" d="M405.9,194.64c14.26,5.88,30,7.39,45.42,6.86a144.21,144.21,0,0,0,39.88-7.71c-4,4.46-9.52,10.51-14.7,16.1,0,0-16.6,9.5-49.66,3.93s-33.62-15.68-33.62-15.68l-3.42-12.8A69.85,69.85,0,0,0,405.9,194.64Z"/><path class="cls-6" d="M372.8,163.94l.69,1.5a47.33,47.33,0,0,0,2.21,4.22,53,53,0,0,0,4.28,6.21,60.42,60.42,0,0,0,6.89,7.22,69.18,69.18,0,0,0,22.34,13.1,102,102,0,0,0,31.26,5.62,135.8,135.8,0,0,0,16.48-.37,133.32,133.32,0,0,0,15.2-2.25,150.25,150.25,0,0,0,24.9-7.38,108.9,108.9,0,0,0,15.75-7.63c.89-.54,1.69-1,2.35-1.43l1.67-1.12,1.38-.93-1.39.91-1.69,1.09c-.67.43-1.48.87-2.37,1.39a111.47,111.47,0,0,1-15.81,7.43,153.73,153.73,0,0,1-24.9,7.15,137.5,137.5,0,0,1-15.14,2.17,138.91,138.91,0,0,1-16.41.34,103.54,103.54,0,0,1-31.1-5.49,69.51,69.51,0,0,1-22.31-12.84,60.25,60.25,0,0,1-6.95-7.11,54,54,0,0,1-4.35-6.13,46.9,46.9,0,0,1-2.26-4.18Z"/><path class="cls-6" d="M372.8,163.94s1.14,2.66,2.95,7.59,4.36,12.06,7.82,20.79c1.73,4.35,3.71,9.1,6.08,14.09a90.36,90.36,0,0,0,8.84,15.25,33.55,33.55,0,0,0,3.12,3.56,16.68,16.68,0,0,0,3.88,3,68.65,68.65,0,0,0,9.37,3.42,102.09,102.09,0,0,0,20.59,3.64c3.58.29,7.12.42,10.61.42,1.75,0,3.48,0,5.2-.08.85,0,1.73-.12,2.58-.19s1.7-.31,2.53-.52a35.2,35.2,0,0,0,9.08-4.14,72.46,72.46,0,0,0,7.73-5.6,166.72,166.72,0,0,0,12.86-12c3.86-4,7.33-7.74,10.51-11.18,6.35-6.9,11.55-12.43,15.41-16,1.9-1.8,3.48-3.09,4.56-3.95l1.68-1.27-1.7,1.24c-1.08.86-2.68,2.13-4.61,3.9-3.9,3.52-9.16,9-15.57,15.85-3.21,3.41-6.71,7.17-10.59,11.09a168.11,168.11,0,0,1-12.88,11.93,70.81,70.81,0,0,1-7.7,5.53,35,35,0,0,1-8.94,4c-.8.2-1.62.36-2.45.49s-1.66.19-2.52.19c-1.71.05-3.44.06-5.18.07-3.47,0-7-.14-10.56-.42A104.34,104.34,0,0,1,415,231a69.07,69.07,0,0,1-9.27-3.36,16.37,16.37,0,0,1-3.77-2.84,34,34,0,0,1-3.08-3.5A91.08,91.08,0,0,1,390,206.22c-2.39-5-4.4-9.68-6.17-14-3.53-8.69-6.13-15.82-8-20.71S372.8,163.94,372.8,163.94Z"/><path class="cls-6" d="M512.39,179.46l.6-.05a3.85,3.85,0,0,1,.7,0,6.18,6.18,0,0,1,.93.05,10,10,0,0,1,2.31.54,12.42,12.42,0,0,1,2.57,1.34,12.72,12.72,0,0,1,2.14,2,10.36,10.36,0,0,1,1.3,2,5.81,5.81,0,0,1,.36.85,3.62,3.62,0,0,1,.22.66l.16.59s0-.22-.06-.61a3.78,3.78,0,0,0-.13-.7,5.57,5.57,0,0,0-.26-.91,9,9,0,0,0-1.17-2.2,10.24,10.24,0,0,0-2.2-2.15,9.93,9.93,0,0,0-2.76-1.32,8.67,8.67,0,0,0-2.47-.35,5.56,5.56,0,0,0-1,.06,3.73,3.73,0,0,0-.7.12Z"/><path class="cls-6" d="M518.2,180.7l-.77.57c-.52.36-1.27.94-2.22,1.72-1.91,1.56-4.63,4-7.94,7.32s-7.24,7.5-11.79,12.37-9.72,10.41-15.82,16.16a114.88,114.88,0,0,1-10,8.48,58.66,58.66,0,0,1-5.83,3.83,32.45,32.45,0,0,1-6.58,2.92,20.65,20.65,0,0,1-3.6.81c-.61.05-1.23.13-1.86.15l-1.9.05c-2.54,0-5.12,0-7.74,0a123.17,123.17,0,0,1-16.09-1.5c-2.72-.47-5.47-1-8.21-1.73s-5.48-1.54-8.19-2.54c-.68-.24-1.35-.52-2-.78-.34-.14-.68-.26-1-.41l-1-.48a16,16,0,0,1-3.44-2.61,40.44,40.44,0,0,1-5.55-6.94,123.48,123.48,0,0,1-8.54-16.22c-2.53-5.69-4.88-11.55-7.16-17.52-3.06-8-5.89-15.94-7.86-20.5l-.56.25a54.79,54.79,0,0,0,4.18,7.69,59.81,59.81,0,0,0,5.3,6.78,66.88,66.88,0,0,0,6.12,5.81,70.32,70.32,0,0,0,6.7,4.86A79.8,79.8,0,0,0,423.91,200a131.58,131.58,0,0,0,51.49-1.68A141,141,0,0,0,507.6,187c3.55-1.84,6.2-3.42,8-4.56l2.64-1.76-2.66,1.74c-1.75,1.13-4.42,2.68-8,4.51a141.64,141.64,0,0,1-32.22,11.14c-3.55.83-7.32,1.47-11.26,2.07s-8.1,1-12.42,1.13A131.45,131.45,0,0,1,424,199.56a79.25,79.25,0,0,1-28.87-10.84,68.21,68.21,0,0,1-6.63-4.82,67.21,67.21,0,0,1-6.06-5.77,60.26,60.26,0,0,1-5.23-6.71,55.22,55.22,0,0,1-4.13-7.61l-.56.25c1.94,4.52,4.77,12.47,7.83,20.47,2.28,6,4.64,11.85,7.18,17.55a122.53,122.53,0,0,0,8.61,16.3,40.44,40.44,0,0,0,5.64,7,16.77,16.77,0,0,0,3.57,2.7l1,.5c.34.16.68.28,1,.41.68.26,1.35.54,2,.79,2.73,1,5.5,1.82,8.25,2.54s5.53,1.25,8.26,1.71a124.4,124.4,0,0,0,16.16,1.47q3.94.1,7.77,0l1.91,0c.63,0,1.27-.12,1.9-.17a22.46,22.46,0,0,0,3.67-.83,33.63,33.63,0,0,0,6.65-3,58.16,58.16,0,0,0,5.85-3.88,113.92,113.92,0,0,0,10-8.55c6.09-5.79,11.22-11.38,15.76-16.26s8.42-9.09,11.71-12.43,6-5.8,7.89-7.37c.95-.79,1.69-1.37,2.2-1.74Z"/><path class="cls-2" d="M553.28,207c43.42,50.1,86.1,37,129.85,2.28,38.92-30.91,42-76.15,26-120.57C699.63,62.11,681.22,33,650.31,30.37c-21.23-1.83-42.34,6.54-59.66,19S566.15,70,552.24,86.19C567.18,118,569,162.67,553.28,207Z"/><path class="cls-22" d="M568.72,97.24c20-13.13,31.84-21.07,55.44-25.18S667.87,75,679.79,95.79c16.23,28.32,7.42,68.06-11.43,92.9-9.61,12.68-23.05,22.8-39,25.37-25.92,4.17-42.39-6.33-60.86-21.27C568.46,192.79,589.87,142.65,568.72,97.24Z"/><path class="cls-2" d="M437.39,328.22c9.6,2.66,16.68,12.32,16.68,22.28s-6.85,19.48-16.18,23c-39.94,14.93-69.33-31.91-77.25-64.33-14.08-57.62-10.5-128.89,37.39-171,10.7-9.4,22.24-18.49,30.76-30,4.54-6.15,10.5-19.32,15.41-27.76,2.76-4.75,12.94,11,14.24,16.36,1.92,7.83,6.13,14.56,10.21,21.37,3.88,6.48,4.6,14.86,8.4,21.66,4.78,8.57,12.89,15.81,12.26,26.09a197.86,197.86,0,0,1-5.11,33.74c-8.88,38-52.34,64.07-64.68,102.73a82.45,82.45,0,0,0-3.9,15.94,49.26,49.26,0,0,0-.24,7.39c.09,2.38-.24,6,.8,8.19C421,328.22,430.51,326.31,437.39,328.22Z"/><path class="cls-6" d="M416.19,333.84l.86-.77a22,22,0,0,1,2.72-2,22.84,22.84,0,0,1,12.35-3.51,20.19,20.19,0,0,1,9,2.23,22.91,22.91,0,0,1,4.45,3A25.46,25.46,0,0,1,449.5,337a23.77,23.77,0,0,1,4.38,11.88,23.37,23.37,0,0,1-3.43,13.71,25.24,25.24,0,0,1-11.65,10.26,42.34,42.34,0,0,1-16.73,3.19c-.74,0-1.48,0-2.22-.07l-2.24-.26a17,17,0,0,1-2.23-.36c-.74-.16-1.5-.28-2.24-.47a46.12,46.12,0,0,1-8.72-3.23,60,60,0,0,1-15.64-11.47c-9.44-9.45-17-21.6-22.52-35-1.37-3.36-2.62-6.81-3.71-10.34s-1.93-7.16-2.78-10.82c-1.63-7.34-3-14.85-4-22.5a227.38,227.38,0,0,1-1.57-44.94,175.89,175.89,0,0,1,7.54-41.15A134.67,134.67,0,0,1,378,161.32,121.1,121.1,0,0,1,400,136.7c7.63-6.65,14.56-12.66,20.15-18.46,2.83-2.86,5.26-5.72,7.44-8.39a82.29,82.29,0,0,0,5.42-7.71c.74-1.21,1.45-2.34,2-3.47s1.18-2.13,1.59-3.13.87-1.92,1.25-2.75.61-1.65.88-2.34c.54-1.39.87-2.48,1.09-3.21s.34-1.11.34-1.11l-.35,1.11c-.22.73-.55,1.81-1.11,3.2l-.89,2.33c-.38.84-.8,1.75-1.26,2.74s-1,2-1.61,3.12-1.28,2.25-2,3.46a82.74,82.74,0,0,1-5.45,7.67c-2.19,2.65-4.62,5.5-7.46,8.34-5.61,5.77-12.56,11.74-20.22,18.36a122,122,0,0,0-22.07,24.62,135.17,135.17,0,0,0-16.42,34.22,176.82,176.82,0,0,0-7.64,41.27,227.76,227.76,0,0,0,1.55,45.06c1,7.67,2.36,15.2,4,22.55.86,3.67,1.67,7.33,2.8,10.87s2.36,7,3.74,10.39c5.59,13.47,13.18,25.66,22.71,35.15a60.46,60.46,0,0,0,15.79,11.54,48.14,48.14,0,0,0,8.83,3.24c.75.18,1.51.31,2.26.46a17.6,17.6,0,0,0,2.27.37l2.25.25c.76,0,1.51,0,2.26.06a42.44,42.44,0,0,0,16.87-3.28,25.55,25.55,0,0,0,11.78-10.43,23,23,0,0,0-1.06-25.87,25.05,25.05,0,0,0-3.94-4.3,23.47,23.47,0,0,0-4.49-3,20.17,20.17,0,0,0-9.1-2.2A22.9,22.9,0,0,0,419.75,331a21.25,21.25,0,0,0-2.71,2Z"/><path class="cls-6" d="M487.57,154.05s.13.78.39,2.27c.1.75.33,1.66.42,2.76s.24,2.36.38,3.79A95.38,95.38,0,0,1,487.09,187a119.91,119.91,0,0,1-4.26,16.17,123.8,123.8,0,0,1-7.48,17.67c-.78,1.5-1.63,3-2.48,4.5s-1.78,3-2.78,4.45c-1.93,3-4.06,5.88-6.34,8.78-4.53,5.81-9.63,11.49-14.82,17.34s-10.23,11.61-14.61,17.58a117.68,117.68,0,0,0-10.81,18.34c-5.76,12.29-8.6,24.52-8.26,34.82s3.72,18.4,7.58,22.65a16.48,16.48,0,0,0,5.2,4,10.92,10.92,0,0,0,1.58.66l.55.21-.55-.21a12.09,12.09,0,0,1-1.57-.68,16.47,16.47,0,0,1-5.14-4.06c-3.79-4.26-7.18-12.34-7.33-22.59s2.64-22.37,8.42-34.58a118.36,118.36,0,0,1,10.82-18.22c4.36-5.92,9.41-11.66,14.59-17.51s10.3-11.55,14.83-17.39c2.27-2.91,4.41-5.85,6.34-8.84,1-1.47,1.88-3,2.78-4.48s1.69-3,2.47-4.53a123,123,0,0,0,7.42-17.78,118.73,118.73,0,0,0,4.16-16.26,94.88,94.88,0,0,0,1.46-24.19c-.16-1.43-.3-2.69-.42-3.79s-.34-2-.46-2.76Z"/><path class="cls-6" d="M396,165.45l2.32-.12,1.24-.07h1.48c1.06,0,2.26,0,3.59.08l2.09.12c.73.06,1.48.16,2.26.24,1.56.13,3.21.43,4.95.7a111.42,111.42,0,0,1,11.14,2.65c7.8,2.32,14.65,5.07,19.6,7.08l8,3.3s-3-1.42-7.88-3.59a164.68,164.68,0,0,0-19.54-7.39A96.47,96.47,0,0,0,414,165.87c-1.75-.23-3.42-.5-5-.6-.79-.06-1.54-.14-2.27-.18l-2.11-.06c-1.33-.07-2.55,0-3.61,0l-1.48.05-1.24.12Z"/><path class="cls-6" d="M382.94,190.11l2.59.12c.83,0,1.85.07,3,.17s2.53.16,4,.33c3,.26,6.49.71,10.38,1.33s8.13,1.51,12.54,2.61,8.55,2.38,12.29,3.64,7,2.57,9.78,3.74c1.38.56,2.6,1.14,3.68,1.62s2,.91,2.76,1.28l2.34,1.12-2.3-1.21c-.73-.39-1.64-.86-2.71-1.37s-2.28-1.13-3.65-1.73c-2.71-1.24-6-2.59-9.73-3.95s-7.88-2.63-12.3-3.76S407,192.14,403,191.54s-7.46-.94-10.44-1.13c-1.49-.12-2.84-.15-4-.21s-2.2-.07-3-.07Z"/><path class="cls-6" d="M428.69,220.47l-1.83-.51c-1.18-.33-2.9-.77-5-1.27a151.65,151.65,0,0,0-33.95-4.08c-2.19,0-4,0-5.19,0l-1.9.06,1.9,0c1.23,0,3,.07,5.18.16,4.37.19,10.4.6,17,1.39s12.57,1.83,16.86,2.68c2.15.43,3.88.8,5.08,1.07Z"/><path class="cls-6" d="M399.43,238.87s-3.71-.25-8.27-.17-8.26.46-8.26.46,3.7.25,8.27.17S399.43,238.87,399.43,238.87Z"/><path class="cls-6" d="M392.68,268.66a40.49,40.49,0,0,0-4.95.71,39.31,39.31,0,0,0-4.83,1.33,40.78,40.78,0,0,0,5-.71A38.81,38.81,0,0,0,392.68,268.66Z"/><path class="cls-23" d="M430.15,33c.68-.87,4.52-3.11,13.46-3.06a1.47,1.47,0,0,0,1.7-1.28c1-4.19,2.12-8.37,3.21-12.56,1-3.82,5.28-5.65,10-4.4,3,.81,6.13,1.61,9.24,2.14,4.1.7,8.07,0,12-.59,4.74-.67,8.93,1.81,9.76,5.76s1.75,8,2.43,12a3.09,3.09,0,0,0,.92,1.92,5.52,5.52,0,0,0,1.88.77c.86.12,1.61.3,2.37.46l.11,0c11.55,2.49,12.87,4.48,13.39,5.39,1,1.65,1.12,3.34-.73,4.53-4.27,2.75-10.23,3.43-15.39,4.23-9.88,1.52-20,1.29-30.06.3-9.92-1-15.78-2.54-25.15-6.08a27,27,0,0,1-8.87-4.9C428.7,36.1,429,34.46,430.15,33Z"/><g id="eTVbaf"><path class="cls-24" d="M492.18,34c-1.37,1.85-3.58,2.59-6,3a83.16,83.16,0,0,1-21.79.18A57.76,57.76,0,0,1,451,34.4c-2.95-1-4.65-2.26-5.86-4.15-.36,1.4.46,3.18,2.12,4.52a20.22,20.22,0,0,0,9,3.82,80.56,80.56,0,0,0,27.57,1.24,22.08,22.08,0,0,0,4.1-1A6.24,6.24,0,0,0,492.18,34Z"/></g><path class="cls-2" d="M259.58,400.65c22,12.79,58.76-4.81,45.95-31.43C296.72,350.89,272.1,335.56,254,329c-9.68-3.51-25.64-8.41-35.21-12.22-3.42-1.36-16.77-9.11-16.77-9.11-15.82,5.67-17.94,24.22-9.9,36.1C211.33,365,234.76,386.23,259.58,400.65Z"/><path class="cls-15" d="M292.33,356.11a4.3,4.3,0,0,0-.64-.92c-.45-.58-1.12-1.43-2-2.52a74.19,74.19,0,0,0-8.47-8.29,89.29,89.29,0,0,0-14.61-9.78,156.71,156.71,0,0,0-19.7-8.67c-7.16-2.62-14-4.91-20.33-6.91a103,103,0,0,1-16.27-6.24,73.83,73.83,0,0,1-9.95-6.25,40.48,40.48,0,0,0-3.53-2.52,4.42,4.42,0,0,0,.8.79c.56.48,1.36,1.22,2.47,2.07a64.19,64.19,0,0,0,9.84,6.6,68,68,0,0,0,7.46,3.41c2.75,1.07,5.73,2.08,8.86,3.11,6.27,2.05,13.13,4.37,20.27,7a167.73,167.73,0,0,1,19.6,8.52,93.46,93.46,0,0,1,14.59,9.5,85.92,85.92,0,0,1,8.65,8c.92,1,1.65,1.84,2.15,2.37S292.3,356.14,292.33,356.11Z"/><path class="cls-2" d="M173.81,356.92a10.3,10.3,0,0,1-7.43.35,8.81,8.81,0,0,1-5.33-5.83c.24.89,5.56-1.53,6-1.85a11.38,11.38,0,0,0,3.6-4.18,1.08,1.08,0,0,1,.43-.51,1,1,0,0,1,.56,0c2.49.35,5.16,1.39,6.26,3.66a5.43,5.43,0,0,1,.15,4.15A7.59,7.59,0,0,1,173.81,356.92Z"/><path class="cls-2" d="M159.14,340.6a15.75,15.75,0,0,0,7-3.35,9.76,9.76,0,0,1,3.92,4.57,4.71,4.71,0,0,1-.22,4.56,9.73,9.73,0,0,1-8.8,5.06,7.94,7.94,0,0,1-3.89-1c-3.65-2-5.07-6.46-6.17-10.48l.06-.14c.14.07.3.12.45.18A15.35,15.35,0,0,0,159.14,340.6Z"/><path class="cls-2" d="M148.34,329.22a25.55,25.55,0,0,0,8.23-.31c2.27-.53,3.73-1.88,6.24-.5a13.19,13.19,0,0,1,3.53,3.26,4.47,4.47,0,0,1,1.42,3,3.57,3.57,0,0,1-1.1,2.09c-3.63,3.87-10.29,5-15.16,3.25-.15-.06-.31-.11-.45-.18-4.27-1.71-7.62-5.82-7.85-10.39,0-.57.1-1.3.67-1.43l.09-.16A12.14,12.14,0,0,0,148.34,329.22Z"/><path class="cls-2" d="M157.55,305.91c-2.07-2.57-4.34-5.41-6.8-8.48,24.87-13.56,65.15,9.28,63.12,38.62-.39,5.7-3.26,9.49-8,12.48-1.73,1.09-9.2,5.53-11.26,4.35a1.52,1.52,0,0,1-.2-.23,7.45,7.45,0,0,0-.86-1.39c-2.58-3.24-6.12-7.69-10.38-13l-.78-1-11.29-14.09-.27-.42c.27.42-9.32,4.75-10.28,5.07a24.34,24.34,0,0,1-13.5.7c-4.85-1.31-8.24-4.52-10.65-8.92-.81-1.48-1.34-3.46-.24-4.74,1-1.1,2.63-1.1,4.08-1.17C147.07,313.37,151.94,309.12,157.55,305.91Z"/><path class="cls-25" d="M177.71,354.1a3.07,3.07,0,0,1-1.11.91,8.24,8.24,0,0,0,1-1,5.85,5.85,0,0,0,.88-1.36,4.64,4.64,0,0,0-.6-4.3,7.84,7.84,0,0,0-3.6-2.65,3.93,3.93,0,0,0-3.55,0,4.31,4.31,0,0,0,.36-1.32c.32-2.86-2.16-5.15-4.47-6.92a3.5,3.5,0,0,0,.89-1.17c.78-1.77-.34-3.76-1.55-5.25-1.42-1.75-3.53-3.48-5.68-2.84l-.06-.19c1-.31,2-.69,3-1.09a52.88,52.88,0,0,0,7.72-4.16l.27.42,11.29,14.09.78,1c3.54,4.48,10,12.89,11.24,14.4a7.2,7.2,0,0,1-11.92,7.83l0,0v0l0,0s0,0,0,0l-.05-.06a.15.15,0,0,0,0-.07l-.12-.16-.2-.27,0,0-.07-.08c-.18-.24-.38-.51-.54-.74a1.75,1.75,0,0,1-.16-.2l-.17-.21,0-.08-.1-.11s0,0,0-.06Z"/><path class="cls-18" d="M193.59,351.26a7.45,7.45,0,0,1,.86,1.39c-1.23-1.51-7.7-9.92-11.24-14.4C187.47,343.57,191,348,193.59,351.26Z"/><path class="cls-18" d="M182.48,360.41l0,0a.31.31,0,0,1-.09-.11l.05.06S182.47,360.41,182.48,360.41Z"/><path class="cls-18" d="M182.24,360.1l.12.16a1.2,1.2,0,0,1-.19-.21c-.57-.76-.92-1.23-1.1-1.49l.17.21a1.75,1.75,0,0,0,.16.2c.16.23.36.5.54.74l.07.08,0,0C182.12,359.94,182.18,360,182.24,360.1Z"/><path class="cls-18" d="M182,359.83l.2.27C182.18,360,182.12,359.94,182,359.83Z"/><path class="cls-18" d="M181,358.48l0,.08a.1.1,0,0,0,0-.06S181,358.49,181,358.48Z"/><path class="cls-18" d="M181,358.48s0,0,0,0l-.1-.13Z"/><path class="cls-5" d="M169.68,348.12a4.35,4.35,0,0,1-1.18.41l.19-.16a7.79,7.79,0,0,0,2-2.67,3.93,3.93,0,0,1,3.55,0,7.84,7.84,0,0,1,3.6,2.65,4.64,4.64,0,0,1,.6,4.3,5.85,5.85,0,0,1-.88,1.36,8.24,8.24,0,0,1-1,1,4.21,4.21,0,0,1-3.68-.1,6.75,6.75,0,0,1-3.06-4.26A5.72,5.72,0,0,1,169.68,348.12Z"/><path class="cls-5" d="M170.69,345.7a7.79,7.79,0,0,1-2,2.67l-.19.16a5.78,5.78,0,0,1-6.25-8.75,16.76,16.76,0,0,0,3-1.37,9.11,9.11,0,0,0,1.35-1c2.31,1.77,4.79,4.06,4.47,6.92A4.31,4.31,0,0,1,170.69,345.7Z"/><path class="cls-5" d="M166.58,337.46a9.11,9.11,0,0,1-1.35,1,18.79,18.79,0,0,1-6.09,2.19,6.4,6.4,0,0,1,.09-12.3c.33-.1.64-.18,1-.29l.06.19c2.15-.64,4.26,1.09,5.68,2.84,1.21,1.49,2.33,3.48,1.55,5.25A3.5,3.5,0,0,1,166.58,337.46Z"/><path class="cls-5" d="M137,314.33c1.33-1,4-.6,5.47-.95a31.35,31.35,0,0,0,4.24-1.28,27,27,0,0,0,3.46-1.57c-1.38,2-1.29,4.68-.51,7a14.19,14.19,0,0,0,13.44,9.37v0c-1,.4-2,.78-3,1.09-.31.11-.62.19-1,.29a29.29,29.29,0,0,1-10.89.92,12.14,12.14,0,0,1-4.38-1.36,15.71,15.71,0,0,1-5.43-4.79c-1.24-1.75-3.53-6.39-1.85-8.41A1.88,1.88,0,0,1,137,314.33Z"/><path class="cls-25" d="M150.75,297.43c2.46,3.07,4.73,5.91,6.8,8.48-1.94,1.11-3.73,2.5-5.64,3.67-.55.34-1.12.66-1.7.95a27,27,0,0,1-3.46,1.57h0c-1.67-2.22-3.51-4.63-5.45-7.2C103.1,254.48,16,140.69,1.15,121.52a3.34,3.34,0,0,1,.74-4.79,3.24,3.24,0,0,1,1.28-.52,3.31,3.31,0,0,1,3.2,1.18C20.7,135.18,110.23,247,150.75,297.43Z"/><path class="cls-2" d="M146.75,312.09h0a31.35,31.35,0,0,1-4.24,1.28c-1.51.35-4.14,0-5.47.95a3.52,3.52,0,0,1-.43-2.79,8.52,8.52,0,0,1,1.65-3.15c.82-1.11,1.69-2.16,2.59-3.16l.45-.34C143.24,307.46,145.08,309.87,146.75,312.09Z"/><path class="cls-6" d="M213.33,340l-.17.41a9.48,9.48,0,0,1-.54,1.14,14.19,14.19,0,0,1-2.83,3.61,25,25,0,0,1-5.56,3.89c-1.13.61-2.35,1.22-3.62,1.79a19.87,19.87,0,0,1-4,1.41,5,5,0,0,1-1,.12,2.82,2.82,0,0,1-.43-.05l-.17-.06h-.08c-.49.85,0,0-.08.13l.08-.15h0l-1.34-1.63L191,347.4l-4.42-5.31c-2.54-3-4.16-4.82-4.16-4.82l3.75,5.14,4.15,5.53,2.49,3.23c.45.57.84,1.09,1.38,1.73a2,2,0,0,0,1.38.46,6,6,0,0,0,1.22-.13A19.14,19.14,0,0,0,201,351.7c1.3-.61,2.51-1.26,3.64-1.93a23.51,23.51,0,0,0,5.5-4.29,13.86,13.86,0,0,0,2.61-3.9,8.32,8.32,0,0,0,.43-1.2Z"/><path class="cls-6" d="M150.54,297.54l.6-.28c.4-.17,1-.48,1.73-.78a34.51,34.51,0,0,1,6.63-2,38.81,38.81,0,0,1,10.19-.58,48.24,48.24,0,0,1,12.21,2.59,54.14,54.14,0,0,1,19.32,11.78,46.18,46.18,0,0,1,4.65,5.15c.52.63.87,1.18,1.13,1.52l.39.54-.35-.57c-.24-.36-.54-.93-1-1.6a41.87,41.87,0,0,0-4.39-5.45,49.44,49.44,0,0,0-19.35-12.47,44.19,44.19,0,0,0-12.53-2.47,36.38,36.38,0,0,0-10.38,1,31.67,31.67,0,0,0-6.58,2.4c-.75.34-1.29.7-1.67.9Z"/><path class="cls-6" d="M137.46,314.85s-.09-.13-.22-.37a3,3,0,0,1-.32-1.07,4,4,0,0,1,.13-1.58,10.11,10.11,0,0,1,.75-1.83,20.9,20.9,0,0,1,2.11-3.1l1-1.27a8.68,8.68,0,0,0-1.43.84,8.88,8.88,0,0,0-2.74,3,6.45,6.45,0,0,0-.69,2.2,3.75,3.75,0,0,0,.28,1.9,2.84,2.84,0,0,0,.73,1A2.23,2.23,0,0,0,137.46,314.85Z"/><path class="cls-26" d="M171.14,323.18S180,335,191.43,349.3c.69.89,1.46,1.78,2.07,2.63a6.52,6.52,0,0,1,1.12,2.84,6.85,6.85,0,0,1-1.57,5.44,6.92,6.92,0,0,1-4.63,2.39,7.05,7.05,0,0,1-4.45-1.22,13.76,13.76,0,0,1-2.8-2.81c-.75-.92-1.37-1.73-1.88-2.39l-1.57-2.08s.51.77,1.45,2.16c.48.69,1.06,1.53,1.77,2.49a13.75,13.75,0,0,0,2.76,3,7.3,7.3,0,0,0,9.93-1,7.63,7.63,0,0,0,1.86-6.08,7.41,7.41,0,0,0-1.24-3.22c-.69-1-1.39-1.78-2.11-2.69C180.74,334.46,171.14,323.18,171.14,323.18Z"/><path class="cls-26" d="M113.22,250.68,157.44,306l.23-.18-61.51-77L52.48,174.2l-24-30L16,128.69l-6.3-7.86c-1.07-1.32-2.08-2.61-3.21-4a3.75,3.75,0,0,0-2.57-1.16A3.77,3.77,0,0,0,0,119.12a3.73,3.73,0,0,0,.76,2.66l3,4,6,7.85,11.85,15.5,23,30,41.9,54.72,60.13,78.38.25-.19-44.32-58,44.07,58.21.25-.19L87.06,233.37,45.28,178.56q-11.18-14.62-22.91-30L10.52,133l-6-7.86c-1-1.32-2-2.63-3-4a2.87,2.87,0,0,1,4.35-3.74L9,121.4l6.3,7.86,12.44,15.51,24.06,30c15.64,19.45,30.37,37.78,43.8,54.5L157.44,306l.23-.18Z"/><path class="cls-6" d="M172.56,302.7l-.89-.21a15.07,15.07,0,0,0-6.71,0,21.09,21.09,0,0,0-5.16,1.92c-1.83.92-3.72,2.11-5.73,3.37a39.13,39.13,0,0,1-6.62,3.54,30.69,30.69,0,0,1-3.83,1.27l-1,.25a5.54,5.54,0,0,1-1,.15l-2.16.12a6.49,6.49,0,0,0-2.34.54,2.53,2.53,0,0,0-1,.91,1.88,1.88,0,0,0-.32.61,2.56,2.56,0,0,0-.18.64,8.88,8.88,0,0,0,.89,4.76,15.69,15.69,0,0,0,5.93,7,13.75,13.75,0,0,0,4.05,1.82,10.7,10.7,0,0,0,2.14.34c.7.06,1.39.08,2.07.09a31.36,31.36,0,0,0,13.9-3.23c1.83-.89,3.41-1.81,4.87-2.45a11.1,11.1,0,0,1,3.93-1,12.09,12.09,0,0,1,2.58.15l.89.17-.88-.22a11.72,11.72,0,0,0-2.6-.28,11.26,11.26,0,0,0-4.06.86c-1.51.58-3.14,1.45-5,2.26a31.61,31.61,0,0,1-13.64,2.78,17.4,17.4,0,0,1-3.94-.47,12.9,12.9,0,0,1-3.71-1.73,14.84,14.84,0,0,1-5.48-6.58,8,8,0,0,1-.83-4.09,1.75,1.75,0,0,1,.93-1.36,5.58,5.58,0,0,1,1.92-.44c.7-.06,1.41-.07,2.16-.14a5.83,5.83,0,0,0,1.12-.2l1-.27a30.5,30.5,0,0,0,3.94-1.38,38.77,38.77,0,0,0,6.67-3.78c2-1.32,3.81-2.55,5.57-3.52a21.33,21.33,0,0,1,5-2.08,14.74,14.74,0,0,1,4-.51,13.81,13.81,0,0,1,2.58.23Z"/><path class="cls-6" d="M143.86,328a.71.71,0,0,0-.4.24,1.9,1.9,0,0,0-.34,1.29,10.89,10.89,0,0,0,1.24,4.8,13.09,13.09,0,0,0,5.14,5.31,14.51,14.51,0,0,0,8.95,1.64,18,18,0,0,0,4.59-1.21,19.07,19.07,0,0,0,2-1,8.92,8.92,0,0,0,1.82-1.25,3.81,3.81,0,0,0,1.17-1.92,3.93,3.93,0,0,0-.11-2.08,8.65,8.65,0,0,0-1.82-3,7.77,7.77,0,0,0-4.1-2.76,3.34,3.34,0,0,0-1.79.12l.45-.07a3.4,3.4,0,0,1,1.3.13,7.74,7.74,0,0,1,3.69,2.95,8.52,8.52,0,0,1,1.5,2.85,2.81,2.81,0,0,1-1,3,7.69,7.69,0,0,1-1.67,1.06,17.83,17.83,0,0,1-1.93.89,19,19,0,0,1-4.32,1.09,14.45,14.45,0,0,1-8.34-1.35,13,13,0,0,1-5.1-4.74,11.12,11.12,0,0,1-1.57-4.52,1.81,1.81,0,0,1,.2-1.25A.68.68,0,0,1,143.86,328Z"/><path class="cls-6" d="M151,340l.33,1.51a26.94,26.94,0,0,0,1.26,4.06,10.94,10.94,0,0,0,3.89,5.07,8.22,8.22,0,0,0,3.67,1.32,10.29,10.29,0,0,0,4.14-.41,12,12,0,0,0,3.69-1.87,10.53,10.53,0,0,0,2.66-2.8,5.33,5.33,0,0,0,.81-3.48,5.92,5.92,0,0,0-1.24-2.79,14.74,14.74,0,0,0-3.15-2.88l-.55-.37a.57.57,0,0,0-.48-.12c-.13,0-.24.08-.23.17a.14.14,0,0,0,.06.08.11.11,0,0,1-.05-.09c0-.06.11-.11.23-.11.27-.06.52.28.91.59a15.55,15.55,0,0,1,2.79,3.06,5.54,5.54,0,0,1,.91,2.54,4.45,4.45,0,0,1-.84,2.87,11.35,11.35,0,0,1-5.86,4.08,8.51,8.51,0,0,1-6.94-.62,10.72,10.72,0,0,1-3.89-4.49,33.54,33.54,0,0,1-1.62-3.86Z"/><path class="cls-6" d="M161.05,351.41a6.9,6.9,0,0,0,.39,1.34,8.71,8.71,0,0,0,7.41,5.53,10.61,10.61,0,0,0,6.86-1.81,10.91,10.91,0,0,0,2.68-2.61,4.53,4.53,0,0,0,.76-1.74,4.74,4.74,0,0,0,0-1.8,5.58,5.58,0,0,0-1.51-2.84,7.81,7.81,0,0,0-2.23-1.56,6,6,0,0,0-3.77-.69,2.3,2.3,0,0,0-1.21.69,2.17,2.17,0,0,1,1.24-.51,6.93,6.93,0,0,1,6.51,5.07,3.56,3.56,0,0,1-.71,2.73,10.47,10.47,0,0,1-8.56,4.09,8.39,8.39,0,0,1-4.95-1.81,8.94,8.94,0,0,1-2.36-2.81A7.54,7.54,0,0,1,161.05,351.41Z"/></g></g></svg>