<svg xmlns="http://www.w3.org/2000/svg" viewBox="0 0 51.37 60.58"><defs><style>.cls-1{fill:#53541d;}.cls-2{fill:#c1c868;}</style></defs><title>Asset 241</title><g id="Layer_2" data-name="Layer 2"><g id="Layer_2-2" data-name="Layer 2"><g id="_0Q95RG" data-name="0Q95RG"><path class="cls-1" d="M3.07,30.68c8.87,1.77,10.71,1,12.37-5.29,2.13.64,4.33,1.92,6.37,1.72s3.65-2,5.56-3.12c4.11,4.23,5.18,4.36,11.28,1.11,1.77,6.43,4.19,7.59,11.82,5.7,2,8.13-2.77,19.62-10.49,25.28s-16.69,6-24.61,1.09C6.75,51.83,1.49,40.51,3.07,30.68Z"/><path class="cls-1" d="M22.8,1.19c1.06,5.63,2.13,11,3.05,16.33.67,3.95-1.52,7.63-4.44,7.79-3.38.17-6.16-2.82-6.15-7C15.28,11.45,18.24,5.89,22.8,1.19Z"/><path class="cls-1" d="M31.45,1.4A23.85,23.85,0,0,1,39,17.31c.13,1.58-.08,3.72-1,4.72-1.45,1.5-3.72,3-5.62,3-1.27,0-2.81-2.51-3.65-4.19-.57-1.13-.33-2.8-.1-4.17C29.41,11.63,30.43,6.66,31.45,1.4Z"/><path class="cls-1" d="M43.87,14.51c3.76,2.23,6.77,5.1,7.47,9.41.24,1.5-.89,4.36-2,4.71a12.27,12.27,0,0,1-7.09-.28c-.66-.22-.71-3.34-.46-5.05C42.23,20.44,43.1,17.66,43.87,14.51Z"/><path class="cls-1" d="M10.21,14.52a86.44,86.44,0,0,1,2.27,9c.25,1.68.12,4.58-.77,5a9,9,0,0,1-6.34.34c-1.26-.45-2.64-2.93-2.52-4.38C3.22,19.75,6.58,16.92,10.21,14.52Z"/></g><g id="_0Q95RG-2" data-name="0Q95RG"><path class="cls-2" d="M.28,29.49c8.88,1.77,10.71,1,12.38-5.29,2.12.64,4.32,1.92,6.36,1.72s3.65-2,5.56-3.12c4.11,4.23,5.18,4.36,11.28,1.11,1.77,6.43,4.19,7.59,11.82,5.7,2,8.13-2.77,19.62-10.49,25.28S20.5,60.89,12.58,56C4,50.64-1.3,39.32.28,29.49Z"/><path class="cls-2" d="M20,0c1.05,5.63,2.13,11,3,16.33.67,4-1.52,7.63-4.44,7.79-3.38.18-6.15-2.82-6.14-7C12.5,10.26,15.45,4.7,20,0Z"/><path class="cls-2" d="M28.66.21a23.87,23.87,0,0,1,7.5,15.91c.13,1.58-.07,3.72-1,4.72-1.45,1.5-3.72,3-5.62,3-1.27,0-2.81-2.52-3.65-4.2-.57-1.13-.33-2.8-.09-4.17C26.62,10.44,27.65,5.47,28.66.21Z"/><path class="cls-2" d="M41.08,13.32c3.76,2.23,6.77,5.1,7.47,9.41.24,1.5-.88,4.36-2,4.71a12.27,12.27,0,0,1-7.09-.28c-.66-.22-.71-3.34-.46-5.05C39.44,19.25,40.32,16.47,41.08,13.32Z"/><path class="cls-2" d="M7.43,13.33a88.41,88.41,0,0,1,2.26,9c.25,1.67.12,4.58-.77,5a8.89,8.89,0,0,1-6.34.34C1.33,27.22,0,24.75.06,23.29.44,18.56,3.79,15.74,7.43,13.33Z"/></g></g></g></svg>