<svg xmlns="http://www.w3.org/2000/svg" xmlns:xlink="http://www.w3.org/1999/xlink" viewBox="0 0 223.64 168.65"><defs><style>.cls-1{fill:#a6b402;}.cls-2{fill:#949d1a;}.cls-3{fill:url(#linear-gradient);}.cls-4{fill:#5f5351;}.cls-5{fill:#6d5241;}.cls-6{fill:url(#linear-gradient-2);}.cls-7{fill:#8b6349;}.cls-8{fill:url(#linear-gradient-3);}.cls-9{fill:#865f4b;}.cls-10{fill:#be9375;}.cls-11{fill:#dcbc9c;}.cls-12{fill:#f3d7b7;}.cls-13{fill:url(#linear-gradient-4);}.cls-14{fill:#2a7c73;}</style><linearGradient id="linear-gradient" x1="-7682.34" y1="-101.43" x2="-7630.24" y2="-88.85" gradientTransform="matrix(-1, -0.1, -0.1, 1, -7451.91, -506.84)" gradientUnits="userSpaceOnUse"><stop offset="0" stop-color="#74635c"/><stop offset="0.97" stop-color="#7f5f4f"/></linearGradient><linearGradient id="linear-gradient-2" x1="-7631.65" y1="-83.87" x2="-7609.1" y2="-86.3" gradientTransform="matrix(-1, -0.1, -0.1, 1, -7451.91, -506.84)" gradientUnits="userSpaceOnUse"><stop offset="0.03" stop-color="#6d5241"/><stop offset="0.09" stop-color="#6b5140"/><stop offset="1" stop-color="#523e37"/></linearGradient><linearGradient id="linear-gradient-3" x1="-7534.87" y1="-106.61" x2="-7584.32" y2="-54.51" gradientTransform="matrix(-1, -0.1, -0.1, 1, -7451.91, -506.84)" gradientUnits="userSpaceOnUse"><stop offset="0" stop-color="#9b7559"/><stop offset="0.97" stop-color="#8b6349"/></linearGradient><linearGradient id="linear-gradient-4" x1="-7585.58" y1="-124.97" x2="-7545.34" y2="-129.32" xlink:href="#linear-gradient-3"/></defs><title>Asset 222</title><g id="Layer_2" data-name="Layer 2"><g id="Layer_2-2" data-name="Layer 2"><path class="cls-1" d="M114.56,126.34s.84-1.82,2.46-5.06,4-7.9,7.26-13.52A181.1,181.1,0,0,1,136.9,88.69a130,130,0,0,1,19.34-20.55,99.28,99.28,0,0,1,24.09-15A90,90,0,0,1,192,49c1.88-.48,3.7-.93,5.46-1.29s3.46-.68,5.1-.82a67.44,67.44,0,0,1,15.47-.3,22.79,22.79,0,0,1,2.4.28l1.75.27,1.43.22-1.45,0-1.76,0a23.37,23.37,0,0,0-2.38.11,79.28,79.28,0,0,0-14.89,2.33,95.64,95.64,0,0,0-20.64,7.89,122.88,122.88,0,0,0-22.37,15c-14.67,12.42-25.63,26.4-33.34,36.65-3.84,5.14-6.88,9.39-9,12.33Z"/><path class="cls-2" d="M145.51,122.77s-.08-2-.08-5.77.13-9.1.67-15.74a209.18,209.18,0,0,1,10.65-51c3.32-9.64,7.42-18.78,12.56-26.32a66,66,0,0,1,8.25-10,54.83,54.83,0,0,1,8.79-7.06A43.6,43.6,0,0,1,201.16.72c.92-.2,1.75-.33,2.46-.42s1.32-.17,1.81-.2l1.49-.1-1.41.46c-.47.14-1,.34-1.69.6s-1.42.54-2.25.93a47.61,47.61,0,0,0-12.65,8.33,60.19,60.19,0,0,0-7,7.55,74.66,74.66,0,0,0-6.46,9.88c-4.06,7.3-7.41,16-10.63,25.33-6.49,18.74-11.38,36.09-14.5,48.86-1.56,6.38-2.75,11.59-3.54,15.21Z"/><path class="cls-2" d="M203.82,72.84l-1.38.12-1.66.13-1.05.08c-.38,0-.77.12-1.2.18l-2.78.44c-1,.21-2.09.5-3.25.77a55.21,55.21,0,0,0-7.64,2.59l-1.05.42-1,.51-2.13,1c-.74.34-1.43.81-2.16,1.21s-1.48.81-2.2,1.31c-1.42,1-2.95,1.92-4.37,3.1-.71.58-1.48,1.1-2.17,1.75l-2.13,1.91a58.26,58.26,0,0,0-7.8,9.14,14,14,0,0,0-.84,1.32l-.41.67-.21.33v0c0,.05,0,.05,0,.06s0,0,0,0h0s0,0,0,0h0s0,0-.06,0l.37-.14,1.66-.64a27.06,27.06,0,0,1,3.34-1.08,46.07,46.07,0,0,1,13.1-1.87,52.47,52.47,0,0,1,11.8,1.21,50.42,50.42,0,0,1,9.71,3.28l2.07,1c.67.32,1.28.72,1.89,1.06a31.49,31.49,0,0,1,3.34,2.1c1,.74,1.94,1.35,2.74,2l2.14,1.89a15.23,15.23,0,0,1,1.61,1.61c.45.48.82.89,1.12,1.22l.92,1-1.09-.82c-.36-.27-.8-.6-1.31-1a16.32,16.32,0,0,0-1.83-1.28,48.9,48.9,0,0,0-12.67-6,51.9,51.9,0,0,0-20.22-2.21c-1.91.07-3.82.49-5.79.76a57.52,57.52,0,0,0-5.85,1.56,24.25,24.25,0,0,0-2.92,1l-1.44.61-.42.17c-.27.12-.59.22-.84.36l-.77.41-.83.51-6.79,4.11c-2.25,1.4-4.4,2.83-6.62,4.24l.33-.81,2.41-5.69c.81-2,1.68-3.84,2.54-5.68a45.36,45.36,0,0,1,2.83-5.54l1.17-1.8c.34-.48.63-1,1-1.43a55.22,55.22,0,0,1,9.17-9.64c.84-.65,1.66-1.29,2.48-1.91s1.69-1.15,2.51-1.71a55.13,55.13,0,0,1,5-2.9c.82-.45,1.68-.78,2.5-1.16s1.61-.75,2.43-1l2.39-.84,1.15-.41,1.16-.31a49.4,49.4,0,0,1,8.29-1.61c1.24-.1,2.39-.23,3.44-.28l2.89,0h1.22l1.08.11,1.67.16Z"/><path class="cls-1" d="M143.43,101.31s-.16-1.1-.44-3.08c-.06-.49-.13-1-.21-1.64s-.24-1.23-.37-1.92c-.3-1.38-.52-3-1-4.64-.22-.84-.45-1.73-.7-2.65s-.6-1.85-.9-2.83c-.57-2-1.44-4-2.26-6.1a98.2,98.2,0,0,0-6.87-13.1,97.24,97.24,0,0,0-9-11.77c-1.58-1.64-3-3.28-4.57-4.62-.76-.69-1.45-1.41-2.18-2l-2.11-1.75c-1.32-1.17-2.65-2-3.77-2.88-.57-.41-1.09-.82-1.59-1.16s-1-.61-1.39-.88l-2.61-1.69,2.94,1,1.59.57c.57.23,1.17.52,1.82.82a38.89,38.89,0,0,1,4.37,2.2l2.47,1.45c.86.51,1.68,1.14,2.56,1.76a57.57,57.57,0,0,1,5.37,4.29,63.36,63.36,0,0,1,10.18,12,63.8,63.8,0,0,1,6.62,14.32A56.18,56.18,0,0,1,143,83.73c.18,1.06.4,2.07.51,3.06s.18,1.95.27,2.85a42.37,42.37,0,0,1,.15,4.9c0,.72,0,1.38,0,2s-.11,1.18-.16,1.68C143.54,100.21,143.43,101.31,143.43,101.31Z"/><path class="cls-1" d="M142.64,98.69l-1.41-1.42a18.39,18.39,0,0,0-1.65-1.61c-.67-.59-1.37-1.31-2.26-2L136,92.6c-.47-.38-1-.71-1.51-1.09-1-.79-2.2-1.48-3.4-2.25a67.7,67.7,0,0,0-8.22-4.14,69.17,69.17,0,0,0-8.76-2.83c-1.39-.28-2.72-.62-4-.78-.63-.09-1.25-.22-1.84-.28l-1.72-.17c-1.11-.15-2.11-.12-3-.18a19.72,19.72,0,0,0-2.3,0l-2,0s.65-.29,1.86-.77a15,15,0,0,1,2.25-.76,22.32,22.32,0,0,1,3.08-.72l1.83-.29c.64-.09,1.31-.11,2-.15a31.83,31.83,0,0,1,4.46,0,33.44,33.44,0,0,1,18.75,7.69,32.88,32.88,0,0,1,3.21,3.1c.46.52.93,1,1.32,1.52s.76,1,1.11,1.49a23.31,23.31,0,0,1,1.68,2.68,14.52,14.52,0,0,1,1.07,2.12C142.38,98,142.64,98.69,142.64,98.69Z"/><path class="cls-3" d="M128.76,141.57s12.62-32.33,15-35.83,5.61-5.19,10.78-6,29.32-5.14,33.79-.86,11.25,47.29,3.44,55.86c0,0-43.92,1.13-49.53-.52S126.3,147.83,128.76,141.57Z"/><path class="cls-4" d="M130,147.42c2.78,3.29,8.48,5.7,12.15,6.78,5.61,1.64,49.53.52,49.53.52,3-3.25,3.82-11.42,3.51-20.57a89,89,0,0,1-3.17,13.15,2.07,2.07,0,0,1-2.32,1.93A339.3,339.3,0,0,1,130,147.42Z"/><path class="cls-5" d="M141.92,154.11c1.62-.3,3.23-.65,4.83-1.08a18.75,18.75,0,0,0,6.73-2.91,21.6,21.6,0,0,0,3.46-3.56l9.62-11.5a82.49,82.49,0,0,0-4.77-19.47c-1.54-4.06-3.47-8.1-6.69-11a13.62,13.62,0,0,0-6.35-3.24,12.11,12.11,0,0,0-5,4.38c-2.32,3.5-14.94,35.83-14.94,35.83C126.34,147.73,136.25,152.41,141.92,154.11Z"/><path class="cls-6" d="M141.92,154.11c.22,0,.42-.07.64-.12,1.11-.26,2.61-3.92,3.12-4.83a24.28,24.28,0,0,0,2.46-6.13,47.62,47.62,0,0,0,.91-5.68c.55-4.61,1.06-9.49-.84-13.72a21.15,21.15,0,0,1-.7,23,46.6,46.6,0,0,0,4.11-5.88,8.48,8.48,0,0,0,1-3.07,37.94,37.94,0,0,0,.2-9.93c-.27-2.87-.75-5.85-2.41-8.21A17.91,17.91,0,0,0,146.8,116c-1.92-1.53-3.86-3-5.84-4.45-4.5,10.32-12.19,30-12.19,30C126.34,147.73,136.25,152.41,141.92,154.11Z"/><path class="cls-4" d="M153.64,145.8l2.88-.32,6.88-.81,6.88-.89,2.87-.39s-1,.44-2.74,1a38.44,38.44,0,0,1-6.86,1.51,39.47,39.47,0,0,1-7,.21C154.74,146,153.64,145.8,153.64,145.8Z"/><path class="cls-4" d="M152.13,150h1.57c.51,0,1.13,0,1.85,0s1.53,0,2.43-.12a66.44,66.44,0,0,0,13.82-2.37,67.16,67.16,0,0,0,13-5.15,17.41,17.41,0,0,0,3.61-2.21,2.45,2.45,0,0,0,.61-1,1.65,1.65,0,0,0,.07-.4,2.08,2.08,0,0,1-.54,1.48,16,16,0,0,1-3.45,2.62,49.49,49.49,0,0,1-13,5.79A49,49,0,0,1,158,150.44c-.92,0-1.74-.05-2.46-.11s-1.34-.1-1.85-.16Z"/><path class="cls-7" d="M3.88,150.27s-8.54-12.79-.29-24.87,84.54-58.59,91-56.79,21.06,16.29,24,22.44,18.82,25.79,22.5,33.71,13.39,17.72,3.3,30.5-19.07,9.27-26.63,9.44S32.11,165.82,3.88,150.27Z"/><path class="cls-8" d="M5,124.22a373.9,373.9,0,0,0,37.31,9.18,21.19,21.19,0,0,0,6.9.56c4.4-.6,8.19-3.79,12.62-4,2.51-.14,5,.69,7.4,1.31C76,133,83,133.09,90,133.24a7.35,7.35,0,0,0,2.89-.35,7.1,7.1,0,0,0,2.43-2q13.38-14.7,26.77-29.38c.73-.8,1.46-1.61,2.13-2.47a72.45,72.45,0,0,1-5.14-8c-3-6.15-17.55-20.64-24-22.44C88.77,66.87,16.81,110.57,5,124.22Z"/><path class="cls-9" d="M.46,138.07a26.59,26.59,0,0,0,3.86,12.2c28.23,15.56,106.38,14.59,113.94,14.42s16.52,3.36,26.61-9.42.39-22.58-3.29-30.51c-2.29-4.93-9.28-14.38-14.94-22.29q1.77,11.67,4.38,23.18a22.08,22.08,0,0,1,.85,7.33c-.93,8.06-10.54,13.34-10.64,21.43a269.76,269.76,0,0,1-29.95-1q-1.43-7-2.86-14.06l-1.29,13.48c-8-3-16.25-5.67-24.53-8a41.46,41.46,0,0,0-3.35-11.81,44,44,0,0,0,1,11.95c-2.8-.11-4.71,2.7-7,4.28-4,2.72-9.33,1.74-14,.64C26,146.92,12.71,143.81.46,138.07Z"/><path class="cls-10" d="M2.38,128.28a153.51,153.51,0,0,0,26.22,3.56c7.06.33,14.39.14,20.8-2.86,3.67-1.7,7.09-4.33,11.13-4.61,3.14-.22,6.27,1,9.41.76,5.24-.49,9-5,12.2-9.27,6.36-8.52,12.71-17.57,14.48-28a7.32,7.32,0,0,0,0-3.16c-.6-2-2.77-3.28-4.88-3.46a16.3,16.3,0,0,0-6.2,1.15,19.29,19.29,0,0,1,12-3.84,24,24,0,0,0-4-9.81C81.19,71.33,11.87,113.93,4,125.41A20.59,20.59,0,0,0,2.38,128.28Z"/><path class="cls-11" d="M16.7,114.21c4.15.37,8.28.74,12.43,1.13.35,1.26,1.9,1.66,3.2,1.81a39.52,39.52,0,0,0,31.78-11.36A39.54,39.54,0,0,0,75.3,77.15C57.51,86.83,32.09,102.71,16.7,114.21Z"/><path class="cls-12" d="M4.32,150.27a23.08,23.08,0,0,1-2.46-4.68,26,26,0,0,1-1.63-6,21,21,0,0,1,.42-8.32,20.08,20.08,0,0,1,1.8-4.57,21.07,21.07,0,0,1,1.37-2.27,24.78,24.78,0,0,1,1.78-2.06,89,89,0,0,1,8.68-7.59c6.36-5,13.62-10.06,21.4-15.15A447.94,447.94,0,0,1,76.77,75.66a133.33,133.33,0,0,1,13.15-6,23.51,23.51,0,0,1,3.77-1.1,5.07,5.07,0,0,1,1-.06l.35.06-.35,0a5.74,5.74,0,0,0-1,.15,23.14,23.14,0,0,0-3.65,1.34c-3.1,1.38-7.44,3.67-12.71,6.67-10.55,6-24.84,14.79-40.34,24.9-7.74,5.06-15.06,10-21.49,14.74a96.57,96.57,0,0,0-8.74,7.13A22.83,22.83,0,0,0,5,125.34c-.51.6-.89,1.37-1.34,2a14.29,14.29,0,0,0-1.08,2.09,13.22,13.22,0,0,0-.8,2.11A20.86,20.86,0,0,0,1,139.47a26.46,26.46,0,0,0,1.22,6A24.64,24.64,0,0,0,4.32,150.27Z"/><path class="cls-13" d="M111,91.07l-1.42-1c-.91-.66-2.26-1.59-4-2.66s-3.79-2.25-6.17-3.42c-1.19-.59-2.45-1.17-3.78-1.73a9.5,9.5,0,0,0-4.08-1,14.41,14.41,0,0,0-4.19,1l-4,1.33-6.76,2.17c-3.87,1.2-6.27,1.89-6.27,1.89s2.3-1,6.06-2.47l6.63-2.56L87,81.11A14.82,14.82,0,0,1,91.52,80a10.44,10.44,0,0,1,4.58,1.14q2,.91,3.78,1.89a53.94,53.94,0,0,1,6,3.83c1.64,1.2,2.89,2.26,3.74,3S111,91.07,111,91.07Z"/><path class="cls-14" d="M196,151.4l.28-1c.18-.63.49-1.54.92-2.63a35.21,35.21,0,0,1,4.46-8.06,35.61,35.61,0,0,1,6.43-6.6c.93-.73,1.71-1.28,2.26-1.64l.86-.55-.74.7c-.48.44-1.16,1.11-2,1.94a68.18,68.18,0,0,0-5.86,6.87,66.61,66.61,0,0,0-4.89,7.59c-.56,1-1,1.86-1.29,2.45Z"/><path class="cls-14" d="M196.81,152.76a51.88,51.88,0,0,1-4.31-27,52.15,52.15,0,0,1,4.31,27Z"/><path class="cls-14" d="M193.59,159.71s.24-.37.69-1a20.27,20.27,0,0,1,2.17-2.6,24.38,24.38,0,0,1,3.87-3.27,26.4,26.4,0,0,1,5.54-2.84,26.1,26.1,0,0,1,6.08-1.34,24,24,0,0,1,5.06.05,21,21,0,0,1,3.34.62l1.18.35-1.21.22c-.77.12-1.89.34-3.22.63a79.3,79.3,0,0,0-10,2.9,82.14,82.14,0,0,0-9.55,4.13c-1.21.63-2.21,1.17-2.88,1.57Z"/><path class="cls-14" d="M194.8,158.28s0-1.36.11-3.43.28-4.86.67-7.88.93-5.75,1.34-7.79.76-3.35.76-3.35a19.39,19.39,0,0,1,1.07,3.32,22.91,22.91,0,0,1-2.08,16.19A19.06,19.06,0,0,1,194.8,158.28Z"/><path class="cls-14" d="M115.37,163.58a26.33,26.33,0,0,1,7.19-17.89,26.51,26.51,0,0,1-7.19,17.89Z"/><path class="cls-14" d="M110.42,168.65s0-.34,0-1,0-1.5,0-2.56c0-2.14,0-5,0-8s0-5.91-.11-8c0-1.06,0-1.95-.09-2.56s0-1,0-1,.21.28.56.79a17.56,17.56,0,0,1,1.32,2.3,19.64,19.64,0,0,1,.14,16.94,16.39,16.39,0,0,1-1.28,2.32C110.63,168.38,110.42,168.65,110.42,168.65Z"/><path class="cls-14" d="M108.59,167.08l-.68-1c-.42-.61-1-1.47-1.8-2.52-1.51-2.12-3.61-4.89-5.93-7.92s-4.48-5.75-6.14-7.75c-.82-1-1.5-1.82-2-2.38l-.74-.9,1.08.44a24.11,24.11,0,0,1,2.82,1.45,27.46,27.46,0,0,1,12.54,16.27,25.66,25.66,0,0,1,.68,3.1Z"/><path class="cls-1" d="M65.16,162.85a35.09,35.09,0,0,1,6.31-11.41,35.25,35.25,0,0,1-2.63,6A35.72,35.72,0,0,1,65.16,162.85Z"/><path class="cls-1" d="M55.85,162s0-.69.11-1.79.13-2.59.19-4.23.1-3.14.11-4.24,0-1.8,0-1.8a13,13,0,0,1,.59,1.72,14.47,14.47,0,0,1-.31,8.67A12.53,12.53,0,0,1,55.85,162Z"/><path class="cls-1" d="M52.07,166.92s0-.29,0-.8a18.25,18.25,0,0,0-.16-2.12,23.51,23.51,0,0,0-5.58-12.42,17.36,17.36,0,0,0-1.48-1.53l-.58-.54.69.39a12.34,12.34,0,0,1,1.79,1.24A15.74,15.74,0,0,1,52.5,164a14.1,14.1,0,0,1-.26,2.17Z"/><path class="cls-1" d="M58,167.4s.73-1.81,2.12-4.53a76.05,76.05,0,0,1,13.57-19c2.11-2.2,3.59-3.48,3.59-3.48a38.27,38.27,0,0,1-1.54,4.78,48.16,48.16,0,0,1-5.62,10.51,47.85,47.85,0,0,1-8.1,8.73A38.34,38.34,0,0,1,58,167.4Z"/><path class="cls-1" d="M54,167.27l-.79-.39c-.48-.26-1.18-.6-2-1-1.65-.78-3.78-1.6-6-2.53s-4.33-1.84-6.06-2.45c-.84-.31-1.58-.57-2.11-.72l-.83-.28a8.51,8.51,0,0,1,.74-.48,9.92,9.92,0,0,1,2.22-.95,11.69,11.69,0,0,1,3.57-.5,12.34,12.34,0,0,1,4.32.88,12.14,12.14,0,0,1,3.69,2.43,11.56,11.56,0,0,1,2.18,2.86,10.37,10.37,0,0,1,.9,2.25C53.92,167,54,167.27,54,167.27Z"/><path class="cls-1" d="M65.93,166.81s0-.31.18-.86a10.27,10.27,0,0,1,.82-2.22,12.42,12.42,0,0,1,12.91-6.91,11,11,0,0,1,2.31.56,8.16,8.16,0,0,1,.81.33l-8.41,4.74Z"/><path class="cls-1" d="M163.61,152.5a9.24,9.24,0,0,1,7.51-10,9.25,9.25,0,0,1-7.51,10Z"/><path class="cls-1" d="M158.28,159.64s-.16-1-.28-2.25a18.18,18.18,0,0,1,0-4.49,18.73,18.73,0,0,1,1.35-4.28c.51-1.19,1-2.06,1-2.06a7.2,7.2,0,0,1,1.47,1.85,7.84,7.84,0,0,1-1.52,9.91A7.46,7.46,0,0,1,158.28,159.64Z"/><path class="cls-1" d="M155.07,159.54l-.39-1.18a12.61,12.61,0,0,0-.46-1.33c-.21-.51-.38-1.08-.68-1.68a37.06,37.06,0,0,0-2-4c-.86-1.43-1.84-2.92-2.95-4.43s-2.27-2.86-3.39-4.09a37.93,37.93,0,0,0-3.27-3.11c-.5-.46-1-.79-1.42-1.13a12.34,12.34,0,0,0-1.14-.82l-1-.71s.44,0,1.25,0a9.37,9.37,0,0,1,1.48.11,12.79,12.79,0,0,1,1.94.39,17,17,0,0,1,4.76,2.1,18.48,18.48,0,0,1,4.71,4.36,19,19,0,0,1,2.84,5.77,17,17,0,0,1,.64,5.16,12.3,12.3,0,0,1-.19,2,8.22,8.22,0,0,1-.31,1.45C155.22,159.12,155.07,159.54,155.07,159.54Z"/><path class="cls-1" d="M142.16,167.52l-.48-1c-.28-.61-.73-1.47-1.26-2.49-1.07-2-2.59-4.63-4.26-7.4s-3.24-5.31-4.56-7.21c-.66-.94-1.21-1.74-1.62-2.27l-.63-.88s.38.07,1.05.25a14.38,14.38,0,0,1,2.76,1.05,16.69,16.69,0,0,1,3.67,2.43,17.94,17.94,0,0,1,3.5,4.12,18.23,18.23,0,0,1,2,5,17.4,17.4,0,0,1,.44,4.38,14.38,14.38,0,0,1-.36,2.93C142.27,167.16,142.16,167.52,142.16,167.52Z"/><path class="cls-1" d="M175.21,165.35a37.88,37.88,0,0,1,.58-4.86,46.05,46.05,0,0,1,9.37-21,40.27,40.27,0,0,1,3.23-3.67s-.3,1.88-1,4.76a67.06,67.06,0,0,1-9.29,20.76C176.41,163.87,175.21,165.35,175.21,165.35Z"/><path class="cls-1" d="M175.29,162.68s0-.48,0-1.35,0-2.08,0-3.57c0-3-.18-6.95-.3-11.28s-.22-8.3-.35-11.28c-.06-1.48-.11-2.71-.16-3.56s0-1.35,0-1.35.28.39.76,1.11a25.25,25.25,0,0,1,1.8,3.21,29,29,0,0,1,.68,23.61,25.21,25.21,0,0,1-1.61,3.31C175.56,162.28,175.29,162.68,175.29,162.68Z"/></g></g></svg>