<svg xmlns="http://www.w3.org/2000/svg" xmlns:xlink="http://www.w3.org/1999/xlink" viewBox="0 0 557.68 846.83"><defs><style>.cls-1{fill:#fff;}.cls-2{fill:#a1a4a6;}.cls-3{fill:#adaeae;}.cls-4{fill:#a2a4a5;}.cls-5{fill:#a2a5a7;}.cls-6{fill:#acaeaf;}.cls-7{fill:#818080;}.cls-8{fill:#b3b3b4;}.cls-9{fill:#d3cfce;}.cls-10{fill:#989291;}.cls-11{fill:#181718;}.cls-12{fill:#232122;}.cls-13{fill:#121112;}.cls-14{fill:#c2bcbc;}.cls-15{fill:#848a8e;}.cls-16{fill:#ebebeb;}.cls-17{fill:none;stroke:#b0b0b0;stroke-linecap:round;stroke-linejoin:round;stroke-width:1.71px;}.cls-18{fill:#b0b0b0;}.cls-19{fill:#8a1a20;}.cls-20{fill:#67111a;}.cls-21{fill:#878c8b;}.cls-22{fill:url(#radial-gradient);}.cls-23{fill:url(#radial-gradient-2);}.cls-24{fill:url(#linear-gradient);}.cls-25{mask:url(#mask);}.cls-26{fill:url(#radial-gradient-3);}.cls-27{fill:#2a2633;}.cls-28{fill:#fff8ed;}.cls-29{mask:url(#mask-2);}.cls-30{fill:url(#radial-gradient-4);}.cls-31{fill:#010101;}.cls-32{fill:#b56262;}.cls-33{fill:#373b41;}.cls-34{fill:#2b2734;}.cls-35{fill:url(#linear-gradient-2);}.cls-36{fill:url(#radial-gradient-5);}.cls-37{fill:url(#linear-gradient-3);}.cls-38{fill:#52504e;}.cls-39{fill:url(#radial-gradient-6);}.cls-40{fill:url(#linear-gradient-4);}.cls-41{fill:#774b2c;}.cls-42{fill:#fcf4dd;}.cls-43{fill:#f1e8d1;}.cls-44{opacity:0.5;}.cls-45{fill:#9d947f;}.cls-46{fill:#c78e62;}.cls-47{fill:#795741;}.cls-48{fill:#663f26;}.cls-49{fill:#442917;}.cls-50{isolation:isolate;}.cls-51{fill:#30190c;}.cls-52{font-size:38px;fill:#005d52;font-family:Adventuring;}.cls-53{fill:url(#linear-gradient-5);}.cls-54{fill:url(#linear-gradient-6);}.cls-55{fill:#636365;}.cls-56{fill:url(#linear-gradient-7);}.cls-57{fill:url(#linear-gradient-8);}.cls-58{fill:url(#linear-gradient-9);}.cls-59{fill:url(#linear-gradient-10);}</style><radialGradient id="radial-gradient" cx="-497.81" cy="942.44" r="271.2" gradientTransform="translate(446.13 -879.36) rotate(-19.69)" gradientUnits="userSpaceOnUse"><stop offset="0.18" stop-color="#cecece"/><stop offset="0.35" stop-color="#c4c5c5"/><stop offset="0.64" stop-color="#a8abad"/><stop offset="0.89" stop-color="#8d9296"/></radialGradient><radialGradient id="radial-gradient-2" cx="-1222.42" cy="971.72" r="187.97" gradientTransform="translate(1503.67 -644.1)" gradientUnits="userSpaceOnUse"><stop offset="0.01" stop-color="#efefef"/><stop offset="0.25" stop-color="#d9dadb"/><stop offset="0.74" stop-color="#9fa4a7"/><stop offset="0.96" stop-color="#848a8e"/></radialGradient><linearGradient id="linear-gradient" x1="-925.22" y1="5076.95" x2="-902.03" y2="4799.76" gradientTransform="matrix(1, 0, 0, -1, 1212.1, 5079.54)" gradientUnits="userSpaceOnUse"><stop offset="0" stop-color="#cecece"/><stop offset="0.68" stop-color="#92979a"/><stop offset="0.74" stop-color="#8d9296"/></linearGradient><mask id="mask" x="145.51" y="195.05" width="101.15" height="75.27" maskUnits="userSpaceOnUse"><g transform="translate(-0.31)"><g id="Mask_Mask_1" data-name="Mask Mask 1"><g id="Mask_Duplicate_Items_Folder_Symbol_35_copy_2_0_13_MASK_0_FILL" data-name="Mask Duplicate Items Folder Symbol 35 copy 2 0 13 MASK 0 FILL"><path class="cls-1" d="M241.83,223.47a49.36,49.36,0,0,0-17.61-20.57,47.72,47.72,0,0,0-25.93-7.85,46,46,0,0,0-26,7.16,53.1,53.1,0,0,0-19.07,21.43,75,75,0,0,0-7.37,28.12,72,72,0,0,0,25.11,14.1,89.11,89.11,0,0,0,28.55,4.45q15.12,0,26.48-4.15,14-5.1,20.83-16A51.63,51.63,0,0,0,241.83,223.47Z"/></g></g></g></mask><radialGradient id="radial-gradient-3" cx="-1208.5" cy="986.07" r="24.9" gradientTransform="translate(1404.14 -746.92)" gradientUnits="userSpaceOnUse"><stop offset="0" stop-color="#fff"/><stop offset="0.1" stop-color="#f6f9fc"/><stop offset="0.25" stop-color="#dfeaf6"/><stop offset="0.45" stop-color="#b9d1ea"/><stop offset="0.68" stop-color="#85afda"/><stop offset="0.93" stop-color="#4283c7"/><stop offset="0.98" stop-color="#3379c2"/></radialGradient><mask id="mask-2" x="331.05" y="195.05" width="101.15" height="75.27" maskUnits="userSpaceOnUse"><g transform="translate(-0.31)"><g id="Mask_Mask_2" data-name="Mask Mask 2"><g id="Mask_Duplicate_Items_Folder_Symbol_35_copy_2_0_10_MASK_0_FILL" data-name="Mask Duplicate Items Folder Symbol 35 copy 2 0 10 MASK 0 FILL"><path class="cls-1" d="M425.14,223.64a53.1,53.1,0,0,0-19.07-21.43,45.9,45.9,0,0,0-26-7.16,47.72,47.72,0,0,0-25.93,7.85,49.13,49.13,0,0,0-17.57,20.57,51.36,51.36,0,0,0-5,26.66q6.81,10.92,20.83,16,11.31,4.11,26.44,4.15a89.23,89.23,0,0,0,28.59-4.45,72.05,72.05,0,0,0,25.11-14.1A75.17,75.17,0,0,0,425.14,223.64Z"/></g></g></g></mask><radialGradient id="radial-gradient-4" cx="-173.7" cy="986.07" r="24.9" gradientTransform="matrix(-1, 0, 0, 1, 204.15, -746.92)" xlink:href="#radial-gradient-3"/><linearGradient id="linear-gradient-2" x1="-1038.45" y1="4592.41" x2="-947.04" y2="4592.41" gradientTransform="matrix(1.33, 0, 0, -1.33, 1612.28, 6386.6)" gradientUnits="userSpaceOnUse"><stop offset="0" stop-color="#686d71"/><stop offset="0.97" stop-color="#373b41"/></linearGradient><radialGradient id="radial-gradient-5" cx="-107.04" cy="1014.84" r="362.94" gradientTransform="translate(-88.36 -742.98) rotate(-30.53)" gradientUnits="userSpaceOnUse"><stop offset="0" stop-color="#cecece"/><stop offset="0.16" stop-color="#c1c2c3"/><stop offset="0.45" stop-color="#a0a4a7"/><stop offset="0.6" stop-color="#8d9296"/></radialGradient><linearGradient id="linear-gradient-3" x1="-733.52" y1="5053.07" x2="-764.87" y2="4949.55" gradientTransform="matrix(1, 0, 0, -1, 1212.1, 5079.54)" gradientUnits="userSpaceOnUse"><stop offset="0.01" stop-color="#e0cdad"/><stop offset="0.97" stop-color="#bda786"/></linearGradient><radialGradient id="radial-gradient-6" cx="784.46" cy="1541.33" r="362.95" gradientTransform="matrix(-0.86, -0.51, -0.51, 0.86, 1700.53, -747.17)" xlink:href="#radial-gradient-5"/><linearGradient id="linear-gradient-4" x1="-1108.18" y1="4946.09" x2="-1076.83" y2="5049.61" gradientTransform="matrix(1, 0, 0, -1, 1212.1, 5075.31)" xlink:href="#linear-gradient-3"/><linearGradient id="linear-gradient-5" x1="44.81" y1="532.84" x2="-7.89" y2="536.11" gradientUnits="userSpaceOnUse"><stop offset="0.02" stop-color="#fff"/><stop offset="0.85" stop-color="#c7c7c7"/></linearGradient><linearGradient id="linear-gradient-6" x1="46.26" y1="556.82" x2="-6.46" y2="560.1" xlink:href="#linear-gradient-5"/><linearGradient id="linear-gradient-7" x1="47.51" y1="577.55" x2="-5.24" y2="580.82" xlink:href="#linear-gradient-5"/><linearGradient id="linear-gradient-8" x1="-4090.97" y1="532.84" x2="-4143.66" y2="536.11" gradientTransform="matrix(-1, 0, 0, 1, -3577.47, 0)" xlink:href="#linear-gradient-5"/><linearGradient id="linear-gradient-9" x1="-4089.52" y1="556.82" x2="-4142.24" y2="560.1" gradientTransform="matrix(-1, 0, 0, 1, -3577.47, 0)" xlink:href="#linear-gradient-5"/><linearGradient id="linear-gradient-10" x1="-4088.27" y1="577.55" x2="-4141.01" y2="580.82" gradientTransform="matrix(-1, 0, 0, 1, -3577.47, 0)" xlink:href="#linear-gradient-5"/></defs><title>Asset 66</title><g id="Layer_2" data-name="Layer 2"><g id="Layer_2-2" data-name="Layer 2"><g id="Duplicate_Items_Folder_Symbol_1_copy_14_0_Layer2_0_FILL" data-name="Duplicate Items Folder Symbol 1 copy 14 0 Layer2 0 FILL"><path class="cls-2" d="M441.61,749.43a5.84,5.84,0,0,0-7.83-1c-.37.26-.91.7-1.63,1.32-.44.32-1.14.76-2.09,1.32A5.15,5.15,0,0,0,428.4,753a5.52,5.52,0,0,0-.74,2.38,5.75,5.75,0,0,0,1.68,4.65,7.49,7.49,0,0,0,1.59,1.22q.54.36,1.74,1a44.21,44.21,0,0,1,6.06,4.46,26,26,0,0,0,2.82,2.24,8.59,8.59,0,0,0,3.22,1.33,6.46,6.46,0,0,0,3-.34,5.3,5.3,0,0,0,2.43-1.71,6,6,0,0,0,1.33-2.72,5.75,5.75,0,0,0-.14-3,9.27,9.27,0,0,0-1.73-2.95c-.23-.25-1.05-1.09-2.47-2.53a40.29,40.29,0,0,1-2.65-3.1l-1.27-1.87a20.37,20.37,0,0,0-1.67-2.67m-64.29-49.21a23,23,0,0,0,2,4.67,85.08,85.08,0,0,0,7.56,12.55q1.38,1.81,4.85,5.67,3,3.28,4.8,5c.51.46,1.42,1.22,2.72,2.29s2.07,1.74,2.71,2.32c1.24,1.16,2,1.82,2.23,2a7.5,7.5,0,0,0,2.51,1.46,5.66,5.66,0,0,0,3.24.08,5.77,5.77,0,0,0,2.84-1.69,6,6,0,0,0,1.52-2.9,5.84,5.84,0,0,0-.17-3.24,9,9,0,0,0-2.23-3.46q-.84-.82-3.28-2.73a70.16,70.16,0,0,1-10.82-10.63,33.43,33.43,0,0,1-2.91-4c-.9-1.59-1.57-2.78-2-3.55a29.31,29.31,0,0,1-1.75-3.16,16.93,16.93,0,0,1-.62-2.06c-.24-1-.42-1.71-.56-2.12a7.69,7.69,0,0,0-2.27-3.22,6.56,6.56,0,0,0-3.53-1.64,6.15,6.15,0,0,0-3.85.71,5.57,5.57,0,0,0-2.72,2.78,7.67,7.67,0,0,0-.22,4.94m52.32-5.39a28.2,28.2,0,0,0-2.29-2.1,7.8,7.8,0,0,0-2.68-1.43,5.61,5.61,0,0,0-3.55.1,5.92,5.92,0,0,0-4.21,5.36,6.09,6.09,0,0,0,.72,3.47,9.29,9.29,0,0,0,1.5,1.95l1.85,1.64a63.82,63.82,0,0,1,7.74,8,4.14,4.14,0,0,1,.85,1.39,6.86,6.86,0,0,1,.23,2.13,5.18,5.18,0,0,0,2.31,3.56,14.69,14.69,0,0,0,1.85,1.19l1.93,1.05a24.39,24.39,0,0,1,6.09,4.76l2.37,2.58a8.81,8.81,0,0,0,2.79,2,5.68,5.68,0,0,0,3.52.22,6,6,0,0,0,3.06-1.69,5.91,5.91,0,0,0,1.49-3.21,5.63,5.63,0,0,0-.47-3.47,9.56,9.56,0,0,0-1.54-2.17c-.82-.87-1.42-1.53-1.83-2s-1.06-1.39-2.31-3.11a82.82,82.82,0,0,0-9.23-10.5q-6.84-6.43-10.19-9.69M360,660.8a5.59,5.59,0,0,0-1.68-3.59q-2.14-2.13-6.83-2.26-1.9-.08-5.76.18a34.32,34.32,0,0,0-7.26,1,7.4,7.4,0,0,0-3.11,1.59,6.1,6.1,0,0,0-1.66,2.23,5.92,5.92,0,0,0,.32,5.35,6.24,6.24,0,0,0,1.89,2,8.21,8.21,0,0,0,3.72,1.21c.34.07,1.7.14,4.07.21.55,0,1.83.11,3.85.25a32.28,32.28,0,0,0,3.82.07,9.23,9.23,0,0,0,3.51-.7,11.63,11.63,0,0,0,2.24-1.61,11.8,11.8,0,0,0,2-2.07,5.82,5.82,0,0,0,.9-3.92m94.84,20.71a6.06,6.06,0,0,0-1-2.89,12.28,12.28,0,0,0-1.31-1.55q-1.29-1.32-1.44-1.5c-.36-.41-.92-1.1-1.66-2.09a24.34,24.34,0,0,0-1.71-2.06,13.59,13.59,0,0,0-2.35-1.9l-2.61-1.66a38.33,38.33,0,0,1-4.46-3.52c-.88-.84-1.56-1.47-2-1.88a21.21,21.21,0,0,0-2.08-1.73,7.81,7.81,0,0,0-5.11-1.65,5.38,5.38,0,0,0-3,1.18,5.78,5.78,0,0,0-2,2.54,6.22,6.22,0,0,0-.39,3.17,6.63,6.63,0,0,0,1.13,3,10,10,0,0,0,1.87,2L429,672.6c.57.45,1.65,1.34,3.22,2.67,1.34,1.11,2.44,2,3.29,2.57.4.3,1,.72,1.82,1.26a11.74,11.74,0,0,1,1.66,1.37,26.92,26.92,0,0,1,2,2.38,17.2,17.2,0,0,0,3.69,3.71,7.38,7.38,0,0,0,5,1.44,5.18,5.18,0,0,0,2.78-1.13,5.81,5.81,0,0,0,2.37-5.36Z" transform="translate(-0.31)"/></g><g id="Duplicate_Items_Folder_Symbol_1_copy_14_0_Layer1_0_FILL" data-name="Duplicate Items Folder Symbol 1 copy 14 0 Layer1 0 FILL"><path class="cls-2" d="M443.81,719.18a2.25,2.25,0,0,1-.4-.06l3.3,2.91a1.12,1.12,0,0,0,0-.24.9.9,0,0,0-.41-.39,5.88,5.88,0,0,1-.85-.92c-.53-.72-.8-1.09-.82-1.13a1.68,1.68,0,0,1-.15-.3,1.91,1.91,0,0,1-.71.13m-.33-4.72-.3-.1a1.66,1.66,0,0,0-1.69.41,2.09,2.09,0,0,0-.42.61c.53-.26.95-.45,1.25-.57a5,5,0,0,1,1.16-.35m7.33.12c-.55-.47-1.08-.94-1.6-1.43a7.09,7.09,0,0,0-1.74-1.36,1.76,1.76,0,0,0-2.1.14,1.69,1.69,0,0,0-.53,1,2.35,2.35,0,0,0,.14,1.17.72.72,0,0,0,.09.2l1.08,0,4.66.2m6.07-1a9.19,9.19,0,0,1-1.13,0,3.76,3.76,0,0,0-1.23-.21,1.46,1.46,0,0,0-1.4,1.14.28.28,0,0,1,0,.11l6.14.29-.09-.11a2.52,2.52,0,0,0-1.13-1.19,2.64,2.64,0,0,0-1.12,0m10.71,8.92a1,1,0,0,0,.21-.48l.16-.44a2.7,2.7,0,0,1-1.1.87c-.29.1-.71.21-1.26.36a7.63,7.63,0,0,0-.78.56,2.35,2.35,0,0,1-1.76-.11l-.36-.17a1.86,1.86,0,0,1-1.53.43,1.67,1.67,0,0,1-1.37-1l-.24-.63a1.81,1.81,0,0,0-.34-.58l-8,3.91a3.68,3.68,0,0,1-1.94.5,1.83,1.83,0,0,1-.89-.44,1.67,1.67,0,0,1-.42-.61,1.44,1.44,0,0,1-1.14-.69,1.52,1.52,0,0,1-.37-1,3.3,3.3,0,0,0-.87.91,3.36,3.36,0,0,0-.61,1.88,2.1,2.1,0,0,0,.59,1.67,1.45,1.45,0,0,0,1.33.38,1.56,1.56,0,0,0,1.18-.72,6,6,0,0,1,1.8,1.08,26.11,26.11,0,0,0,2.87,1.84,5,5,0,0,0,2.29.63,2.27,2.27,0,0,0,1.72-1,1.82,1.82,0,0,0,1.8.71A1.79,1.79,0,0,0,460,729.2a3.08,3.08,0,0,0-.78-2.69,1.79,1.79,0,0,0,1-.28,1.19,1.19,0,0,0,.65-.78l.88,1.07a2.63,2.63,0,0,0,1.11.67,1.81,1.81,0,0,0,2.05-1.67,2.45,2.45,0,0,1-.05-1.44c.14-.4.57-.68,1.3-.84a2,2,0,0,0,1.42-.72m-12.11-3.8a1.21,1.21,0,0,1,0-.43l-7.26-.3.09.11q.27.3.84.84a3.64,3.64,0,0,1,.73.88c.05.08.09.17.13.25a1.65,1.65,0,0,1,.27-.19,4.38,4.38,0,0,1,1.93-.38,7.68,7.68,0,0,0,1.23-.16c.7-.18,1.38-.39,2.06-.62m10-4c.7.08,1.38.66,2,1.75a6.79,6.79,0,0,1,1.06,3.22,3.5,3.5,0,0,1-.45,1.64c.23-.32.4-.57.51-.74.37-.66.27-1.61-.3-2.87a11.44,11.44,0,0,0-1.17-2.29,6.74,6.74,0,0,0-2-1.83,1.92,1.92,0,0,0-1.31-.33l-.81.3a2.16,2.16,0,0,1-.7,0,2.7,2.7,0,0,0-.73-.08,1.37,1.37,0,0,0-.9.31,1.29,1.29,0,0,0-.56.77,1.81,1.81,0,0,1-.18.39l1.47.1a13.31,13.31,0,0,0,2.64-.13A5.17,5.17,0,0,1,465.48,714.75Z" transform="translate(-0.31)"/><path class="cls-3" d="M467.51,716.5c-.65-1.09-1.33-1.67-2-1.75a5.17,5.17,0,0,0-1.4.18,13.31,13.31,0,0,1-2.64.13L460,715h-.75l-6.14-.29-2.27-.08-4.66-.2-1.08,0a12,12,0,0,0-1.59.12,5,5,0,0,0-1.16.35c-.3.12-.72.31-1.25.57l-.36.21c-.19,0-.66.12-1.42.22a3.54,3.54,0,0,0-1.36.4,1.93,1.93,0,0,0-.76,1,2.38,2.38,0,0,0-.1,1.26,3,3,0,0,0,1.53,2,2.78,2.78,0,0,0,1.44.33,1.52,1.52,0,0,0,1.23-.66,1.83,1.83,0,0,1,.46-.71,1.25,1.25,0,0,1,.89-.28l.79,0a2.25,2.25,0,0,0,.4.06,1.91,1.91,0,0,0,.71-.13,1.68,1.68,0,0,0,.15.3s.29.41.82,1.13a5.88,5.88,0,0,0,.85.92.9.9,0,0,1,.41.39,1.12,1.12,0,0,1,0,.24l-.09.26a1.89,1.89,0,0,0-.17.74,1.52,1.52,0,0,0,.37,1,1.44,1.44,0,0,0,1.14.69,1.67,1.67,0,0,0,.42.61,1.83,1.83,0,0,0,.89.44,3.68,3.68,0,0,0,1.94-.5l8-3.91a1.81,1.81,0,0,1,.34.58l.24.63a1.67,1.67,0,0,0,1.37,1,1.86,1.86,0,0,0,1.53-.43l.36.17a2.35,2.35,0,0,0,1.76.11,7.63,7.63,0,0,1,.78-.56c.55-.15,1-.26,1.26-.36a2.7,2.7,0,0,0,1.1-.87,2.5,2.5,0,0,0,.16-.24,3.5,3.5,0,0,0,.45-1.64,6.79,6.79,0,0,0-1.06-3.22m-12.05,1.79a1.21,1.21,0,0,0,0,.43c-.68.23-1.36.44-2.06.62a7.68,7.68,0,0,1-1.23.16,4.38,4.38,0,0,0-1.93.38,1.65,1.65,0,0,0-.27.19c0-.08-.08-.17-.13-.25a3.64,3.64,0,0,0-.73-.88q-.57-.54-.84-.84l-.09-.11Z" transform="translate(-0.31)"/></g><g id="Duplicate_Items_Folder_Symbol_1_copy_14_0_Layer0_0_STROKES_1_FILL" data-name="Duplicate Items Folder Symbol 1 copy 14 0 Layer0 0 STROKES 1 FILL"><path class="cls-4" d="M374.54,683.1l0-.14-.91-2.2v-.09l0,0,0-.14-.17-.35,0-.14-.13-.21,0-.14,0,0h0v0l.08-.09.07-.1,0,0,0-.05-.07,0-.05-.1-.77-.68-.08-.12.31.19,0,0,0-.1-.06-.19-.11-.17-.36-.79-.06-.06-1.28-2-.34-.36-.11-.17-.68-.69-.07,0-1.22-1-.14-.09-.12-.13-1.81-1.17-.79-.4-.13-.09-.15-.05-2.07-.93-.06-.06-.15,0-.17-.11-.4-.18-.17-.1-.08,0H362l-.15-.05-1.4-.32-.15-.05h.09l-1.13-.35-.24,0-.22-.08-1.25-.27-.19-.06-1.6-.31h-.09l-.08,0-2.58-.27-.7,0-2.14-.12-8.95.48-4.53.61,4.94.5,6.51.76.08,0h.12l7.49,1.56,4.66,1.54-.3,0,.11,0,.2,0,.34.12a4.38,4.38,0,0,1,.68.2l.65.18.67.48.07,0,.85.46.15.05,0,0,.81.45.06.07.11,0,.16.14.39.22.16.14.17.1.77.56.06.07.62.51h0l0,.05.06.06.3.23.8.82,0,0,.12.13.2.28.12.13,0,.05.07.06.33.49a8.81,8.81,0,0,1,1,1.85l.15.55.05.1,0,.18.05.1,0,0,0,0-.45-.28,0,0h0l.84.84.09.11v0l-.36.17v0l.22,1,.21,1.2.2,1.11v1.13l.06.19.09.2.45,1.24,0,0v0l0,.26.72,3.1h0l-.17-.23.45,1v.12h0v0l.08.24,0,0,0,0,.48,1q2.3,5.07,2.46,5.42l16.17,38.11.21.36.06.19,2,4.23a1,1,0,0,0,.2.28l.82,1.71.16.26v.09h0l6.9,12.41,5.72,7q2.83,3.42,6.29,7.09l6.1,6.27h0l.27.3,0,0,0,0,4.74,4.41.1.08.08,0,4.62,4q4.84,4,7.55,6l7.55,5.35-.12-.12-9.89-13.91,11.31,7.79c.25.17.68.41,1.29.74l1.48.81,11.49,5.09,7.74,2.65,3.48.58A96.35,96.35,0,0,0,483.27,804l10,.35a65.44,65.44,0,0,0,17.57-2.85l-6.74-1-5.48-1.45q-3.09-1-4.74-1.65l-1.38-.48-.29-.14-1.84-.72a7,7,0,0,1-.66-.27,4.78,4.78,0,0,1-.66-.28l-2-.86-.34-.12-8.82-4.24-.1-.07-2.08-1.11-.18-.1-.38-.22-3.65-2.15-.84-.46c-1.1-.69-2.12-1.35-3.08-2-.8-.53-1.56-1-2.26-1.54l-.92-.61-8.18-6.32-3.08-3.17-.15-.18-.51-.59-3.93-4.46-1.22-1.43-.28-.39-.06-.07-1.46-1.81-.07-.06,0-.1L443.48,761l-.63-.93-.58-.87-.17-.35a.31.31,0,0,1-.1-.08l-.25-.59a11.56,11.56,0,0,1-.47-1.08l-.45-1.21a2.32,2.32,0,0,1-.14-1.17l-.51,1c-.27.63-.53,1.25-.78,1.87l-.71,1.67a14.32,14.32,0,0,1-8.06-3.64,14.51,14.51,0,0,1-2.79-3.53,8,8,0,0,1-.87-1.84,11.58,11.58,0,0,1-.52-2,4.61,4.61,0,0,1-.47,2.56,9.49,9.49,0,0,1-2.1,2.91,10.76,10.76,0,0,1-3.37,1.84,9.43,9.43,0,0,1-3.75.33,10,10,0,0,1-3.3-1.23l-2.5-1.83-.28-.27-3.05-3.28L401.28,740l-.07-.15,0,0,0-.05-.13-.21-.05-.1-.24-.38-6.81-12.21q-2.45-4.86-4.56-9.62l-3.07-7,0-.14L385,707.26l-1.18-3.09c-.21-.55-.43-1.1-.64-1.64l-1-2.43c-.44-1.12-.86-2.16-1.26-3.11l-2.73-6.35,0,0v0l0-.14-.1-.29-.46-.87-.11-.16,0,0,.11.16-.17-.35-.28-.64-.05-.1-.74-1.48-.11-.16-.66-1.23-.06-.07,0-.05-.16-.26-.13-.22Z" transform="translate(-0.31)"/><path class="cls-5" d="M452.19,677.18l.32.28-.81-1-.06-.07h0l-.12-.13-.2-.28L445.41,669,433.6,657.23l-3.73-3.35-.07-.06-.19-.15-.72-.46-.1-.08-.08,0,0-.05-.15-.18-5.63-4.14-.13-.12-8.91-5.41c-2.6-1.43-4.77-2.57-6.52-3.4l-8.59-3.58-1.05-.23-.19-.07,0,0,0,0-.27-.18-4.66-1.28-6.84-1.26h-.25l-1.49-.18a71.3,71.3,0,0,0-7.83-.34,68.62,68.62,0,0,0-7.37.49l-3.47.47-3.27.62-.69.17-.27,0,0,0c-.11,0-.17,0-.16,0v0l-.4.07-6.95,1.81-15,5.59L329,646.42l-1.07.67-2.41,2.1-1.22,1.46-.78,1.27a12.11,12.11,0,0,0-.58,1.43,13.2,13.2,0,0,0-.66,3.46,12.45,12.45,0,0,0,1.81,7.2,7.47,7.47,0,0,0,2.55,2.89l1.15.66.23.07.17.11a8.88,8.88,0,0,0,1.73.56l6.53.85,5.09.05-4.94-.5,2.71-.57,6.15-.58.29,0,.26,0,3.46,0,.3,0,2.45.18.7,0,2.58.27.08,0h.09l1.6.31.19.06,1.25.27.22.08.24,0,1.13.35h-.09l.15.05,1.4.32.15.05h.12l.08,0,.17.1.4.18.17.11.15,0,.06.06,2.07.93.15.05.13.09.79.4,1.81,1.17.12.13.14.09,1.22,1,.07,0,.68.69.11.17.34.36,1.28,2,.06.06.36.79.11.17.06.19,0,.1,0,0,0,.05-.25-.12.77.68.05.1.07,0,0,.05,0,0-.07.1,0,.07-.06.06,0,0,0,.14.13.21,0,.14.17.35,0,.14,0,0v.09l.91,2.2,0,.14.7,1.58.13.22.14.21,0,0,0,.05.06.07.66,1.23.11.16.74,1.48.05.1.05.1.23.54.17.35,0,0,.46.87.1.29,0,.14v0l0,0L381,697c.4,1,.82,2,1.26,3.11l1,2.43c.21.54.43,1.09.64,1.64l1.18,3.09L381.79,697l.49.75a.37.37,0,0,0,.05.11l0,0,.36.54a1.83,1.83,0,0,0,.16.26l.12.25.44.66,5.68,8.71,0,0v0l.12.13.1.2,16.28,24.42c.26.4.5.73.7,1l.23.29,0,0-1.85-4.91-.86-.67-4-5.62-1.71-4.11,5.62,7.9q-1-3.17-2.2-7.63c-.38-1.48-.75-3-1.09-4.44l-.75-3c-.22-.91-.42-1.77-.6-2.6L398,704l0,0,0,0s0,0,0,0v0l-.28-1.6,1,1.06.1.08,0,.05h0v0l.06.06.23.2.41.48,14,15-.84-2.38-.74-1.39,1.1,1.18,1.3,3.26,5.69,6-1-4.42-.09-.36c0-.19-.08-.39-.13-.59l-1.47-7.21,1.59,2.19q3.15,4.18,4.09,5.31c1.29,1.59,2.18,2.67,2.68,3.24l.45.53.06.06v0l.07,0,.17.22,3.65,3.83,4.3,3.75-7.72-19q-2.13-5.18-3.72-8.79-1.69-3.81-3.81-8.31l.33,0a16.92,16.92,0,0,1,7,3.4l11,12.79,1.86,2.11,1,1.05.22.2,0,.05,0,0,0,0,1.43,1.54,8.35,8,.17.14.28.27-.39-.68-1.15-2c-1.25-2.28-2.05-3.82-2.4-4.65l-.38-.59-1.23-1.77-.15-.17-.05-.1-.09-.08-1.43-1.92L438.76,707l5.56,6.5.1.2.08.11.13.25.4.65-.51-1.06v0h0l-.17-.35L430,678l6.54,5.62.19.19.1.08h0l0,0,9.71,8.07-12.35-21.3-.38-.59-2.69-4.28a43.3,43.3,0,0,1,11.5,4.46l5.12,3.33c1,.74,1.81,1.38,2.43,1.93l1,.87.06.06h0Z" transform="translate(-0.31)"/><path class="cls-6" d="M457.53,681.93l-3.91-3.58a8.14,8.14,0,0,0-1.11-.89l-.32-.28-.78-.65-.11,0v0l-4.63-3.16q-3.44-2.07-7.06-3.8l-8.42-3.68,2.69,4.28.33.49,0,.1L446.62,692l-9.71-8.07,0,0h0l-.1-.08-.19-.19L430,678l14.34,35.29.17.35,0,0,0,0v0l.51,1.06-.4-.65-.13-.25-.08-.11-.1-.2-5.56-6.5,4.83,6.91.19.19h0l-.06-.06h0l.06.07,1.31,1.75,0,.1,1.14,1.66.19.31.38.59,3.55,6.64.39.68-.45-.41-8.35-8-1.21-1.22-.24-.29h0l0,0h0l-.06-.07-.08-.11-1-1.15-1.86-2.11-4-4.51q-3.37-3.88-6.95-8.28a16.92,16.92,0,0,0-7-3.4l-.33,0q2.12,4.5,3.81,8.31,1.59,3.61,3.72,8.79l7.72,19-4.3-3.75-3.65-3.83-.17-.22-.07,0v0l-.06-.06-.45-.53c-.5-.57-1.39-1.65-2.68-3.24q-.94-1.12-4.09-5.31l-1.59-2.19,1.47,7.21.22,1,1,4.42-5.69-6-1.3-3.26-1.1-1.18.74,1.39.84,2.38-14-15-.64-.68-.06-.06v0h0l0-.05,0,0-.06-.06-1-1.06.28,1.6v0s0,0,0,0l0,0,0,0,1.13,5.41c.18.83.38,1.69.6,2.6l.75,3c.21.83.44,1.67.66,2.54s.54,2.14,1,3.68l1.6,5.63.05.22-5.62-7.9,1.71,4.11,4,5.62.86.67,1.85,4.91,0,0-.23-.29-3.06-4.07-14-21-.22-.45-.06-.07,0-.05h0v0l-5.5-8.86-.3-.44L383,699l-.12-.25a1.83,1.83,0,0,1-.16-.26l-.36-.54,0,0a.37.37,0,0,1-.05-.11l-.49-.75L385,707.26l1.21,2.81,0,.14,3.07,7q2.11,4.75,4.56,9.62l6.81,12.21.24.38.05.1.13.21,0,.05,0,0,.07.15,6.35,9.28,3.05,3.28.28.27,2.5,1.83a10,10,0,0,0,3.3,1.23,9.43,9.43,0,0,0,3.75-.33,10.76,10.76,0,0,0,3.37-1.84,9.49,9.49,0,0,0,2.1-2.91,4.61,4.61,0,0,0,.47-2.56,11.58,11.58,0,0,0,.52,2,8,8,0,0,0,.87,1.84,14.51,14.51,0,0,0,2.79,3.53l.93.7,1.86,1,.69.29q.87.39,1.32.54l3,1,.27,0,.71-1.67c.25-.62.51-1.24.78-1.87l.51-1a2.32,2.32,0,0,0,.14,1.17l.45,1.21.73,1.51.07.06,0,0a.22.22,0,0,1,.1.08h0v.09l.64,1.18.63.93,1.95,2.48.11.16,1.46,1.81.06.07.17.22.11.17.17.14,1.05,1.29,3.93,4.46.42.48.09.11.15.18,3.08,3.17,8.18,6.32.92.61c.7.5,1.46,1,2.26,1.54l1.38.86c.62.42,1.47.95,2.54,1.59l3.65,2.15.29.14.09.08.18.1,2.08,1.11.1.07,8.82,4.24.34.12,2,.86a4.78,4.78,0,0,0,.66.28,7,7,0,0,0,.66.27l1.84.72.29.14,1.38.48q1.65.66,4.74,1.65l5.48,1.45,6.74,1c.23-.11,1-.41,2.41-.91l1.92-.59.1-.05.37-.08,7.55-3.19L528,794a37.55,37.55,0,0,0,3.5-2.47q-2.79-3.56-8.36-9.77L511.5,769.06l-.35-.33-5.44-6.24-7.47-9.34L489.35,740l-.48-.88q-2.65-4.53-4.38-8.23l-.81-1.66c-.32-.67-.54-1.16-.65-1.48l-1.15-3,0,0v0l0-.05-.09-.12-.64-1.27,1.39.7.19.06,1.75.36c.25.09.66.2,1.22.34a3.5,3.5,0,0,0,.61.17,3.79,3.79,0,0,0,.65.19l1.35.34.33.12,1.64.35.15.06,4.06.83.33,0,.62.14-.19-.19-.23-.17-4-3.68-.2-.15-.15-.17-2-2.09-.15-.18-.08,0,0,0,0,0-2.59-2.91h0l-5-6.29-.13-.21-5.27-5.56a14.43,14.43,0,0,0-1-1.24l-2.94-3.83-.18-.19,0-.1-1.09-1.42-.1-.08.06.06h0l-.91-1.11-.16-.14-1.19-1.51-.16-.26-.09-.11-.12-.13-3.21-4.51q-1.52-2.12-2.93-4.45l-3.76-4.32m-13,31.68h0Z" transform="translate(-0.31)"/></g><g id="Duplicate_Items_Folder_Symbol_52_copy_5_0_Layer0_0_FILL" data-name="Duplicate Items Folder Symbol 52 copy 5 0 Layer0 0 FILL"><path class="cls-7" d="M351.89,786.43l-2.35,30.09-45.09,4.88.64-32.36Z" transform="translate(-0.31)"/></g><g id="Duplicate_Items_Folder_Symbol_52_copy_5_0_Layer0_1_MEMBER_0_MEMBER_0_FILL" data-name="Duplicate Items Folder Symbol 52 copy 5 0 Layer0 1 MEMBER 0 MEMBER 0 FILL"><path class="cls-8" d="M309.38,826.37a6.66,6.66,0,0,1-4.42-3.85,21.81,21.81,0,0,1-.81-6.13,1.51,1.51,0,0,1,.26-1.07.92.92,0,0,1,.34-.26h.47a48.21,48.21,0,0,0,25.24-4.89c2.83-1.43,5-2.48,6.43-3.17a33.72,33.72,0,0,1,6.73-2.27,25.16,25.16,0,0,1,10.37,0,21.78,21.78,0,0,1,4.2,1.54,24.76,24.76,0,0,0,4.12,1.67,37.51,37.51,0,0,1,10.63,7.59,24.61,24.61,0,0,1,7.11,14.14,11.09,11.09,0,0,1-.25,4.5c-.72,2.12-2.53,4-5.45,5.7a42.88,42.88,0,0,1-13.11,4.8,85.72,85.72,0,0,1-14.06,1.46,62.12,62.12,0,0,1-16.07-1.2,31.84,31.84,0,0,1-7.33-2.7,16.78,16.78,0,0,1-6-4.93c-1.57-2.65-2.77-4.66-3.6-6A13,13,0,0,0,309.38,826.37Z" transform="translate(-0.31)"/></g><g id="Duplicate_Items_Folder_Symbol_52_copy_5_0_Layer0_2_MEMBER_0_MEMBER_0_FILL" data-name="Duplicate Items Folder Symbol 52 copy 5 0 Layer0 2 MEMBER 0 MEMBER 0 FILL"><path class="cls-9" d="M309.38,826.37c-1.06-.45-1.83-.81-2.32-1.07a5.3,5.3,0,0,1-1.93-1.54,5.43,5.43,0,0,1-.77-2.57c0-.26,0-.83,0-1.72,1.74,1.26,3.07,2.17,4,2.75a25.12,25.12,0,0,0,4.28,2.18,16.09,16.09,0,0,0,5,1.12,11.2,11.2,0,0,0,5-.86,14.24,14.24,0,0,0,4.41-3.17q2.53-2.79,3.82-4.12a32.82,32.82,0,0,1,14.57-9,29.77,29.77,0,0,1,16.93-.48,37.51,37.51,0,0,1,10.63,7.59,24.61,24.61,0,0,1,7.11,14.14,11.09,11.09,0,0,1-.25,4.5c-.72,2.12-2.53,4-5.45,5.7a42.88,42.88,0,0,1-13.11,4.8,85.72,85.72,0,0,1-14.06,1.46,62.12,62.12,0,0,1-16.07-1.2,31.84,31.84,0,0,1-7.33-2.7,16.78,16.78,0,0,1-6-4.93c-1.57-2.65-2.77-4.66-3.6-6A13,13,0,0,0,309.38,826.37Z" transform="translate(-0.31)"/></g><g id="Duplicate_Items_Folder_Symbol_52_copy_5_0_Layer0_3_MEMBER_0_MEMBER_0_FILL" data-name="Duplicate Items Folder Symbol 52 copy 5 0 Layer0 3 MEMBER 0 MEMBER 0 FILL"><path class="cls-10" d="M341.44,805.67,340,806l1.42-.38a33.49,33.49,0,0,1,4.2-.9,26.31,26.31,0,0,1,6.81-.22,29.13,29.13,0,0,1,8.66,2.49,43.67,43.67,0,0,1,9.43,5.66,28.88,28.88,0,0,1,7.93,9.81,22.24,22.24,0,0,1,2.1,6.56,13.35,13.35,0,0,1,.17,3.64,7.39,7.39,0,0,1-1.29,3.65,15.78,15.78,0,0,1-5.87,4.71,37.4,37.4,0,0,1-7,3,65.3,65.3,0,0,1-14.74,2.57,97.61,97.61,0,0,1-13.89,0,39,39,0,0,1-12.26-3q-6.07-2.67-8.57-6.82c-.31-.48-1.1-1.87-2.35-4.16a23.25,23.25,0,0,0-2.32-3.51,11.39,11.39,0,0,0-2.66-2.4,12.77,12.77,0,0,0-1.41-.73c-.89-.4-1.34-.61-1.37-.64a4.65,4.65,0,0,1-1.89-1.59,4.24,4.24,0,0,1-.64-1.71l-.09-1.12c0,.17.09.55.17,1.12a4.17,4.17,0,0,0,.65,1.63,4.56,4.56,0,0,0,1.93,1.45,12.35,12.35,0,0,0,1.32.6,15.22,15.22,0,0,1,1.5.73,10.2,10.2,0,0,1,2.83,2.4,22.87,22.87,0,0,1,2.45,3.52q2.15,3.6,2.44,4,2.4,3.81,8.36,6.34a39.76,39.76,0,0,0,12,2.66,100.07,100.07,0,0,0,13.71-.22,63.24,63.24,0,0,0,14.4-2.53,39.92,39.92,0,0,0,6.82-2.83,15.62,15.62,0,0,0,5.44-4.28c1.09-1.55,1.42-3.66,1-6.35a23.83,23.83,0,0,0-1.93-6.3,28.57,28.57,0,0,0-7.5-9.55,41.91,41.91,0,0,0-9.09-5.75,30.29,30.29,0,0,0-8.44-2.7,24.46,24.46,0,0,0-6.73,0A42.53,42.53,0,0,0,341.44,805.67Z" transform="translate(-0.31)"/></g><g id="Duplicate_Items_Folder_Symbol_52_copy_5_0_Layer0_4_MEMBER_0_MEMBER_0_FILL" data-name="Duplicate Items Folder Symbol 52 copy 5 0 Layer0 4 MEMBER 0 MEMBER 0 FILL"><path class="cls-10" d="M344.69,808a31.38,31.38,0,0,1,10.93-1.37,27,27,0,0,1,7.29,1.37c.17.06.8.3,1.88.73l.65.26-.69-.22c-1.2-.34-1.83-.53-1.88-.56a29.15,29.15,0,0,0-7.25-.9A33.3,33.3,0,0,0,345,809.1a36,36,0,0,0-11.36,6.47,32.1,32.1,0,0,0-2.49,2.36c-.25.26-1,1.1-2.31,2.53a21.63,21.63,0,0,1-5.06,4.24,11.61,11.61,0,0,1-5.91,1.29,17.75,17.75,0,0,1-5.1-1.12,32.5,32.5,0,0,1-6.39-3.77l-2.14-1.67,2.27,1.5a29.33,29.33,0,0,0,6.51,3.3,15.89,15.89,0,0,0,4.85.81,10.58,10.58,0,0,0,5.35-1.32,19.7,19.7,0,0,0,4.63-4.16l2.32-2.57c1.54-1.46,2.41-2.27,2.61-2.45A32.68,32.68,0,0,1,344.69,808Z" transform="translate(-0.31)"/></g><g id="Duplicate_Items_Folder_Symbol_52_copy_5_0_Layer0_5_MEMBER_0_MEMBER_0_FILL" data-name="Duplicate Items Folder Symbol 52 copy 5 0 Layer0 5 MEMBER 0 MEMBER 0 FILL"><path class="cls-10" d="M344.61,819.64l-.3-.21,1.2.56a11.1,11.1,0,0,1,2.74,2.44,31.3,31.3,0,0,1,2.92,4.5,28.16,28.16,0,0,1,2.61,6.09,17,17,0,0,1,.64,6.68,9.35,9.35,0,0,1-.68,2.87,4,4,0,0,1-1.8,2,8.41,8.41,0,0,1-3.56.86l-1.33-.05,1.29-.17a8.83,8.83,0,0,0,3.21-1.2,3.81,3.81,0,0,0,1.33-1.8,10,10,0,0,0,.39-2.61,19.08,19.08,0,0,0-.82-6.22,39.53,39.53,0,0,0-2.27-6q-2-3.81-2.49-4.62a10,10,0,0,0-2.31-2.62A3.23,3.23,0,0,0,344.61,819.64Z" transform="translate(-0.31)"/></g><g id="Duplicate_Items_Folder_Symbol_52_copy_5_0_Layer0_6_MEMBER_0_MEMBER_0_FILL" data-name="Duplicate Items Folder Symbol 52 copy 5 0 Layer0 6 MEMBER 0 MEMBER 0 FILL"><path class="cls-10" d="M365.14,816.47l-.82-.94.95.81a34.1,34.1,0,0,1,2.4,2.49A26.16,26.16,0,0,1,373,828.94a23.18,23.18,0,0,1,.9,6.31,9.49,9.49,0,0,1-.51,2.82,4.94,4.94,0,0,1-1.55,2,6.7,6.7,0,0,1-1.8.94c-.2.06-.68.17-1.45.34l-1.25.22,1.2-.43a8.14,8.14,0,0,0,2.88-1.59,5,5,0,0,0,1.32-4.32,30.52,30.52,0,0,0-1.07-6,33.13,33.13,0,0,0-4.54-10C366.77,818.74,366.11,817.82,365.14,816.47Z" transform="translate(-0.31)"/></g><g id="Duplicate_Items_Folder_Symbol_47_copy_3_0_Layer0_0_MEMBER_0_FILL" data-name="Duplicate Items Folder Symbol 47 copy 3 0 Layer0 0 MEMBER 0 FILL"><path class="cls-11" d="M277.45,623.61a40.26,40.26,0,0,1,4.84-14.45q10.29-17.91,37.2-18.94,26-1,34,27a78,78,0,0,1,2.87,28.2q-.3,11.79.13,34.76.39,21.74,1.33,46.63l-.6,3.86a28,28,0,0,1-3.77,8.62q-8.49,12.72-28.93,14-17.61,1.13-27.22-11.31a33.41,33.41,0,0,1-4.8-8.7l-1.24-4q-4.25-23-7.54-46-1.72-12.17-6.47-48.77A41.72,41.72,0,0,1,277.45,623.61Z" transform="translate(-0.31)"/></g><g id="Duplicate_Items_Folder_v_copy_3_0_Layer1_0_FILL" data-name="Duplicate Items Folder v copy 3 0 Layer1 0 FILL"><path class="cls-11" d="M295,715.2q7.41-14.24,26.61-16.59,18.6-2.28,29.28,11.66a36.83,36.83,0,0,1,6.94,14.4q.3,22,0,38.1-.12,6-.86,33.26L301.62,806.7q-1.37-9.21-4.2-31.16-4-31.37-6-46.59A28.24,28.24,0,0,1,295,715.2Z" transform="translate(-0.31)"/></g><g id="Duplicate_Items_Folder_v_copy_3_0_Layer0_0_FILL" data-name="Duplicate Items Folder v copy 3 0 Layer0 0 FILL"><path class="cls-12" d="M298.62,796.07c.49-.1,1-.22,1.46-.34q14.1-3,28.2-5.87,25.23-5.21,29.06-5.66c.43-.05.64-.05.64,0q0,3.51.3,19.71-9.51,1.47-29.83,7.38-18.34,4.41-29.83,1.33Z" transform="translate(-0.31)"/></g><g id="Duplicate_Items_Folder_Symbol_52_copy_4_0_Layer0_0_FILL" data-name="Duplicate Items Folder Symbol 52 copy 4 0 Layer0 0 FILL"><path class="cls-7" d="M214.49,786.43l2.35,30.09,45.09,4.88L261.29,789Z" transform="translate(-0.31)"/></g><g id="Duplicate_Items_Folder_Symbol_52_copy_4_0_Layer0_1_MEMBER_0_MEMBER_0_FILL" data-name="Duplicate Items Folder Symbol 52 copy 4 0 Layer0 1 MEMBER 0 MEMBER 0 FILL"><path class="cls-8" d="M257,826.37a6.66,6.66,0,0,0,4.42-3.85,21.81,21.81,0,0,0,.81-6.13,1.57,1.57,0,0,0-.25-1.07,1,1,0,0,0-.35-.26h-.47a48.21,48.21,0,0,1-25.24-4.89c-2.83-1.43-5-2.48-6.43-3.17a33.72,33.72,0,0,0-6.73-2.27,25.16,25.16,0,0,0-10.37,0,21.78,21.78,0,0,0-4.2,1.54,24.76,24.76,0,0,1-4.12,1.67,37.51,37.51,0,0,0-10.63,7.59,24.67,24.67,0,0,0-7.11,14.14,10.89,10.89,0,0,0,.26,4.5q1.07,3.18,5.44,5.7a42.88,42.88,0,0,0,13.11,4.8,85.84,85.84,0,0,0,14.06,1.46,62.12,62.12,0,0,0,16.07-1.2,31.84,31.84,0,0,0,7.33-2.7,16.78,16.78,0,0,0,6-4.93c1.57-2.65,2.77-4.66,3.6-6A13,13,0,0,1,257,826.37Z" transform="translate(-0.31)"/></g><g id="Duplicate_Items_Folder_Symbol_52_copy_4_0_Layer0_2_MEMBER_0_MEMBER_0_FILL" data-name="Duplicate Items Folder Symbol 52 copy 4 0 Layer0 2 MEMBER 0 MEMBER 0 FILL"><path class="cls-9" d="M257,826.37c1.06-.45,1.83-.81,2.32-1.07a4.32,4.32,0,0,0,2.7-4.11c0-.26,0-.83,0-1.72-1.74,1.26-3.07,2.17-4,2.75a25.12,25.12,0,0,1-4.28,2.18,16,16,0,0,1-5,1.12,11.2,11.2,0,0,1-5-.86,14.24,14.24,0,0,1-4.41-3.17q-2.53-2.79-3.82-4.12a32.82,32.82,0,0,0-14.57-9,29.77,29.77,0,0,0-16.93-.48,37.51,37.51,0,0,0-10.63,7.59,24.67,24.67,0,0,0-7.11,14.14,10.89,10.89,0,0,0,.26,4.5q1.07,3.18,5.44,5.7a42.88,42.88,0,0,0,13.11,4.8,85.84,85.84,0,0,0,14.06,1.46,62.12,62.12,0,0,0,16.07-1.2,31.84,31.84,0,0,0,7.33-2.7,16.78,16.78,0,0,0,6-4.93c1.57-2.65,2.77-4.66,3.6-6A13,13,0,0,1,257,826.37Z" transform="translate(-0.31)"/></g><g id="Duplicate_Items_Folder_Symbol_52_copy_4_0_Layer0_3_MEMBER_0_MEMBER_0_FILL" data-name="Duplicate Items Folder Symbol 52 copy 4 0 Layer0 3 MEMBER 0 MEMBER 0 FILL"><path class="cls-10" d="M224.94,805.67l1.42.34-1.42-.38a33.49,33.49,0,0,0-4.2-.9,26.3,26.3,0,0,0-6.81-.22,29.13,29.13,0,0,0-8.66,2.49,43.67,43.67,0,0,0-9.43,5.66,29,29,0,0,0-7.93,9.81,22.24,22.24,0,0,0-2.1,6.56,13.76,13.76,0,0,0-.17,3.64,7.39,7.39,0,0,0,1.29,3.65A15.78,15.78,0,0,0,192.8,841a37.4,37.4,0,0,0,7,3,65.3,65.3,0,0,0,14.74,2.57,97.61,97.61,0,0,0,13.89,0,39,39,0,0,0,12.26-3q6.08-2.67,8.57-6.82.47-.72,2.36-4.16a22.58,22.58,0,0,1,2.31-3.51,11.39,11.39,0,0,1,2.66-2.4A12.77,12.77,0,0,1,258,826c.89-.4,1.34-.61,1.37-.64a4.65,4.65,0,0,0,1.89-1.59,4.24,4.24,0,0,0,.64-1.71L262,821c0,.17-.09.55-.17,1.12a4.17,4.17,0,0,1-.65,1.63,4.56,4.56,0,0,1-1.93,1.45,12.35,12.35,0,0,1-1.32.6,15.22,15.22,0,0,0-1.5.73,10.2,10.2,0,0,0-2.83,2.4,22.87,22.87,0,0,0-2.45,3.52c-1.42,2.4-2.24,3.74-2.44,4q-2.4,3.81-8.36,6.34a39.69,39.69,0,0,1-12,2.66,100.09,100.09,0,0,1-13.71-.22,63.24,63.24,0,0,1-14.4-2.53,39.92,39.92,0,0,1-6.82-2.83,15.62,15.62,0,0,1-5.44-4.28c-1.09-1.55-1.41-3.66-1-6.35a23.83,23.83,0,0,1,1.93-6.3,28.57,28.57,0,0,1,7.5-9.55,41.91,41.91,0,0,1,9.09-5.75,30.29,30.29,0,0,1,8.44-2.7,24.46,24.46,0,0,1,6.73,0A42.53,42.53,0,0,1,224.94,805.67Z" transform="translate(-0.31)"/></g><g id="Duplicate_Items_Folder_Symbol_52_copy_4_0_Layer0_4_MEMBER_0_MEMBER_0_FILL" data-name="Duplicate Items Folder Symbol 52 copy 4 0 Layer0 4 MEMBER 0 MEMBER 0 FILL"><path class="cls-10" d="M221.69,808a31.38,31.38,0,0,0-10.93-1.37,27,27,0,0,0-7.29,1.37c-.17.06-.8.3-1.88.73l-.65.26.69-.22c1.2-.34,1.83-.53,1.88-.56a29.15,29.15,0,0,1,7.25-.9,33.3,33.3,0,0,1,10.58,1.76,35.87,35.87,0,0,1,11.36,6.47,32.1,32.1,0,0,1,2.49,2.36c.26.26,1,1.1,2.31,2.53a21.63,21.63,0,0,0,5.06,4.24,11.61,11.61,0,0,0,5.91,1.29,17.75,17.75,0,0,0,5.1-1.12A32.5,32.5,0,0,0,260,821.1l2.14-1.67-2.27,1.5a29.33,29.33,0,0,1-6.51,3.3,15.89,15.89,0,0,1-4.85.81,10.61,10.61,0,0,1-5.35-1.32,19.89,19.89,0,0,1-4.63-4.16L236.17,817c-1.54-1.46-2.41-2.27-2.61-2.45A32.68,32.68,0,0,0,221.69,808Z" transform="translate(-0.31)"/></g><g id="Duplicate_Items_Folder_Symbol_52_copy_4_0_Layer0_5_MEMBER_0_MEMBER_0_FILL" data-name="Duplicate Items Folder Symbol 52 copy 4 0 Layer0 5 MEMBER 0 MEMBER 0 FILL"><path class="cls-10" d="M221.77,819.64l.3-.21-1.2.56a11.28,11.28,0,0,0-2.74,2.44,30.55,30.55,0,0,0-2.91,4.5A28.23,28.23,0,0,0,212.6,833a17,17,0,0,0-.64,6.68,9.35,9.35,0,0,0,.68,2.87,4,4,0,0,0,1.8,2,8.41,8.41,0,0,0,3.56.86l1.33-.05-1.29-.17a8.91,8.91,0,0,1-3.21-1.2,3.88,3.88,0,0,1-1.33-1.8,9.66,9.66,0,0,1-.38-2.61,18.8,18.8,0,0,1,.81-6.22,40.65,40.65,0,0,1,2.27-6c1.32-2.54,2.14-4.08,2.49-4.62A10,10,0,0,1,221,820.2,3.23,3.23,0,0,1,221.77,819.64Z" transform="translate(-0.31)"/></g><g id="Duplicate_Items_Folder_Symbol_52_copy_4_0_Layer0_6_MEMBER_0_MEMBER_0_FILL" data-name="Duplicate Items Folder Symbol 52 copy 4 0 Layer0 6 MEMBER 0 MEMBER 0 FILL"><path class="cls-10" d="M201.24,816.47l.82-.94-.95.81a34.1,34.1,0,0,0-2.4,2.49,26.16,26.16,0,0,0-5.31,10.11,23.18,23.18,0,0,0-.9,6.31,9.49,9.49,0,0,0,.51,2.82,4.94,4.94,0,0,0,1.55,2,6.7,6.7,0,0,0,1.8.94c.2.06.68.17,1.45.34l1.25.22-1.2-.43a8,8,0,0,1-2.87-1.59,5,5,0,0,1-1.33-4.32,30.52,30.52,0,0,1,1.07-6,33.13,33.13,0,0,1,4.54-10C199.61,818.74,200.27,817.82,201.24,816.47Z" transform="translate(-0.31)"/></g><g id="Duplicate_Items_Folder_Symbol_47_copy_2_0_Layer0_0_MEMBER_0_FILL" data-name="Duplicate Items Folder Symbol 47 copy 2 0 Layer0 0 MEMBER 0 FILL"><path class="cls-11" d="M288.93,623.61a40.26,40.26,0,0,0-4.84-14.45q-10.29-17.91-37.2-18.94-26-1-34,27a78.22,78.22,0,0,0-2.87,28.2q.3,11.79-.13,34.76-.39,21.74-1.33,46.63l.6,3.86a28,28,0,0,0,3.77,8.62q8.49,12.72,28.93,14,17.61,1.13,27.22-11.31a33.41,33.41,0,0,0,4.8-8.7l1.24-4q4.25-23,7.54-46,1.72-12.17,6.48-48.77A42.18,42.18,0,0,0,288.93,623.61Z" transform="translate(-0.31)"/></g><g id="Duplicate_Items_Folder_Symbol_51_copy_4_0_Layer1_0_FILL" data-name="Duplicate Items Folder Symbol 51 copy 4 0 Layer1 0 FILL"><path class="cls-11" d="M275,729a28.24,28.24,0,0,0-3.6-13.75Q264,701,244.79,698.61q-18.6-2.28-29.27,11.66a36.72,36.72,0,0,0-7,14.4q-.3,22,0,38.1.14,6,.86,33.26l55.37,10.67q1.38-9.21,4.2-31.16Q273,744.18,275,729Z" transform="translate(-0.31)"/></g><g id="Duplicate_Items_Folder_Symbol_51_copy_4_0_Layer0_0_FILL" data-name="Duplicate Items Folder Symbol 51 copy 4 0 Layer0 0 FILL"><path class="cls-12" d="M267.76,812.62V796.07c-.49-.1-1-.22-1.46-.34q-14.1-3-28.2-5.87-25.23-5.21-29.06-5.66c-.42-.05-.64-.05-.64,0q0,3.51-.3,19.71,9.51,1.47,29.83,7.38Q256.27,815.7,267.76,812.62Z" transform="translate(-0.31)"/></g><g id="Duplicate_Items_Folder_Symbol_46_copy_4_0_Layer0_0_MEMBER_0_FILL" data-name="Duplicate Items Folder Symbol 46 copy 4 0 Layer0 0 MEMBER 0 FILL"><path class="cls-11" d="M344.39,633l3.82-14.57c-.14.28-1.19.44-3.13.47q-6.16.17-21.34-1.8-33.92-4.34-72.31,3.34-12,2.4-23.06,5.74L219.76,629q6,17.4,30.43,42a279.32,279.32,0,0,0,23.19,21.18A52.38,52.38,0,0,1,294.59,689q4.71.21,16.46,2.1a100.74,100.74,0,0,0,6.69-7.68,167.2,167.2,0,0,0,14.78-21.77A138.85,138.85,0,0,0,344.39,633Z" transform="translate(-0.31)"/></g><g id="Duplicate_Items_Folder_Symbol_46_copy_4_0_Layer0_0_MEMBER_1_MEMBER_0_MEMBER_0_FILL" data-name="Duplicate Items Folder Symbol 46 copy 4 0 Layer0 0 MEMBER 1 MEMBER 0 MEMBER 0 FILL"><path class="cls-13" d="M311.35,691.28l-1.5-.51c-1-.32-2.37-.69-4.12-1.12-2-.43-4.1-.78-6.3-1.07a67.71,67.71,0,0,0-7.8-.34,58.93,58.93,0,0,0-7.75.73,43.91,43.91,0,0,0-6.22,1.37c-1.46.4-2.83.83-4.11,1.28l-1.46.56,11.91-2.1q3.9-.35,7.68-.47,4.11,0,7.67.13c2.8.2,4.88.4,6.26.6Z" transform="translate(-0.31)"/></g><g id="Duplicate_Items_Folder_Symbol_58_copy_4_0_Layer3_0_FILL" data-name="Duplicate Items Folder Symbol 58 copy 4 0 Layer3 0 FILL"><path class="cls-14" d="M127.66,493.46a129.66,129.66,0,0,0,14.25,17.81q18.57,20.1,40.27,31.5L185,531.25l-43.85-40.36Z" transform="translate(-0.31)"/></g><g id="Duplicate_Items_Folder_Symbol_58_copy_4_0_Layer2_0_FILL" data-name="Duplicate Items Folder Symbol 58 copy 4 0 Layer2 0 FILL"><path class="cls-15" d="M186.7,511.14q1-13.42-11.86-23.73-10.76-8.62-27.06-2a51.71,51.71,0,0,0-14.14,8.31q-10.65,9-16.79,14.59-9,8.15-15.8,15.67A36,36,0,0,0,96,530.78a18.13,18.13,0,0,0-2.34,8.08,19.53,19.53,0,0,0,1.87,9,24.55,24.55,0,0,0,5.44,7.52A32.86,32.86,0,0,0,113,562.55a42.83,42.83,0,0,0,4.26,1.34,25.14,25.14,0,0,0,13.53,0q4.16-1.2,12.27-5.79A170.14,170.14,0,0,0,158,548.83a78.08,78.08,0,0,0,13.23-11.47Q185.67,524.42,186.7,511.14Z" transform="translate(-0.31)"/></g><g id="Duplicate_Items_Folder_Symbol_58_copy_4_0_Layer1_0_FILL" data-name="Duplicate Items Folder Symbol 58 copy 4 0 Layer1 0 FILL"><path class="cls-16" d="M230.68,476q4.38-12,1.45-26.95-2.52-12.75-11.54-19.23a25.58,25.58,0,0,0-5.9-3.18l-2.58-.74q-10.29,1.23-38.38,25.83-7.84,6.86-23.89,21.66-15.47,14.22-22.18,20l.38-.21c.1-.08.17-.07.21.05q5.49,13.15,19.48,26t34.45,23.46l32-42.11Q226.58,487.16,230.68,476Z" transform="translate(-0.31)"/></g><path id="Duplicate_Items_Folder_Symbol_58_copy_4_0_Layer0_0_1_STROKES" data-name="Duplicate Items Folder Symbol 58 copy 4 0 Layer0 0 1 STROKES" class="cls-17" d="M140.65,481.88A137.43,137.43,0,0,0,155,499.71q18.35,19.67,38,28.75" transform="translate(-0.31)"/><g id="Duplicate_Items_Folder_Symbol_58_copy_3_0_Layer3_0_FILL" data-name="Duplicate Items Folder Symbol 58 copy 3 0 Layer3 0 FILL"><path class="cls-14" d="M450.57,498.07a129.56,129.56,0,0,1-15.44,16.79q-19.9,18.76-42.35,28.65l-2-11.69,46.53-37.24Z" transform="translate(-0.31)"/></g><g id="Duplicate_Items_Folder_Symbol_58_copy_3_0_Layer2_0_FILL" data-name="Duplicate Items Folder Symbol 58 copy 3 0 Layer2 0 FILL"><path class="cls-15" d="M386.91,508.24q-.27-13.47,13.17-23,11.24-8,27.14-.5a51.76,51.76,0,0,1,13.65,9.09q10.13,9.62,15.95,15.51,8.48,8.64,14.88,16.54a36,36,0,0,1,4.68,7.09,18.12,18.12,0,0,1,1.88,8.2,19.43,19.43,0,0,1-2.38,8.88,24.32,24.32,0,0,1-5.85,7.21,32.86,32.86,0,0,1-12.45,6.47,44.37,44.37,0,0,1-4.33,1.1,25.15,25.15,0,0,1-13.51-.8q-4.08-1.44-11.93-6.47a174.78,174.78,0,0,1-14.35-10.06,77.76,77.76,0,0,1-12.55-12.19Q387.18,521.55,386.91,508.24Z" transform="translate(-0.31)"/></g><g id="Duplicate_Items_Folder_Symbol_58_copy_3_0_Layer1_0_FILL" data-name="Duplicate Items Folder Symbol 58 copy 3 0 Layer1 0 FILL"><path class="cls-16" d="M349,473.58q-3.54-12.25.41-27,3.39-12.54,12.84-18.38a25.46,25.46,0,0,1,6.1-2.77l2.63-.56q10.18,1.94,36.51,28.42,7.35,7.36,22.34,23.25,14.44,15.26,20.74,21.52l-.36-.23c-.09-.09-.16-.08-.22,0q-6.37,12.75-21.22,24.61t-36,21l-29-44.22Q352.32,485,349,473.58Z" transform="translate(-0.31)"/></g><path id="Duplicate_Items_Folder_Symbol_58_copy_3_0_Layer0_0_1_STROKES" data-name="Duplicate Items Folder Symbol 58 copy 3 0 Layer0 0 1 STROKES" class="cls-17" d="M438.41,485.62a137.39,137.39,0,0,1-15.57,16.8q-19.66,18.34-39.93,26.06" transform="translate(-0.31)"/><g id="Duplicate_Items_Folder_Symbol_55_copy_3_0_Layer3_0_FILL" data-name="Duplicate Items Folder Symbol 55 copy 3 0 Layer3 0 FILL"><path class="cls-16" d="M377.14,431.21a8.65,8.65,0,0,0-1.84-2.36,30.4,30.4,0,0,0-2.4-1.93q-11.79-9-37.94-17.1a229.46,229.46,0,0,0-45.51-9.77H288q-20.36,2.06-45.47,10.33-25.93,8.56-37.89,17.7a13.3,13.3,0,0,0-3.73,4.16l.05,0q-4.77,9.3,2.61,52.72,1.71,10.06,6,32,3.21,16.8,3.64,21,1.72,17.79-1.75,49.59-2.53,23-7.25,49.33l5.75,3.39a144.15,144.15,0,0,0,16.15,7.37,153.67,153.67,0,0,0,57,10.41c.09,0,.92-2.32,2.49-7s2.36-7,2.44-7,1.43,2.36,3.86,7.07,3.67,7.1,3.82,7.08q31.32-1,57.86-11.32,13.28-5.14,20.27-10.11-12.18-68.16-9.3-97.64.38-4.15,3.68-21.3,4.33-22.46,6.09-32.79Q381.9,440.47,377.14,431.21Z" transform="translate(-0.31)"/></g><g id="Duplicate_Items_Folder_Symbol_55_copy_3_0_Layer2_0_STROKES_1_FILL" data-name="Duplicate Items Folder Symbol 55 copy 3 0 Layer2 0 STROKES 1 FILL"><path class="cls-18" d="M376.28,473.13c-.06-.06-.08-.05-.08,0l-9.39,50.74c-.57,3.49-1,6.9-1.42,10.25-.45,4-.77,7.44-.94,10.33l-.3,10.33q0,10.75.56,20.65c.2,3.8.43,7.25.68,10.33l1,10.29c.23,2.29.63,5.71,1.2,10.29q.74,5.36,1.54,10.2.69,4.5,1.76,10.2c.47,2.38,1.12,5.58,2,9.6a104.23,104.23,0,0,1-10.16,5.78,113.81,113.81,0,0,1-11.18,5q-6.21,2.37-11.62,3.91-2.61.81-5.91,1.58T328,654l-12.08,2.15q-2.1.3-6.09.72c-1.29.15-3.32.3-6.09.48l-6.08.12a4.11,4.11,0,0,1-.73,0l-1-.13-.09-.21-.08-.13-7-13.8a.82.82,0,0,0-1.2-.3,1.07,1.07,0,0,0-.34.47L282.46,657l-26.14-2.62-14.1-3-10.46-3-.3-.13-6-2.1-.13-.09h-.09l-.08,0-.3-.09-1.76-.72q-2-.74-4.76-1.93-3.6-1.59-4.63-2.1-2.74-1.38-4.54-2.4-2-1.11-3.86-2.36c.51-2,.86-3.49,1.07-4.54l1-5.06L211,601.23c.23-1.71.4-3.43.52-5.14l2.31-46.42c0-1.54,0-3.27-.08-5.18,0-1.15-.13-2.86-.3-5.15l-.52-5.14q-.65-5.7-1.33-10.29l-9.26-50.74c0-.09,0-.1-.08,0s-.1,0,0,.08L210.8,524c.43,3.12.83,6.53,1.2,10.25l.47,5.1c.15,1.71.23,3.42.26,5.14.09,1.51.1,3.23,0,5.14L210,597.55l-2.44,18.81-1.72,10.16c-.28,1.66-.63,3.34-1,5.06q-.6,2.82-1.2,5a.72.72,0,0,0,.3.81q2,1.38,4.42,2.79c1.51.86,3.06,1.67,4.63,2.44l4.67,2.14q3.17,1.38,4.8,2l1.8.72.3.09.17.09,6.21,2.18.3.13,7.12,2.19,18,4,13.76,1.8,12.9.81a.69.69,0,0,0,.81-.56l4.33-12.51,6,12,.12.17.13.3.05,0v0l0,0v0l.34.35.3.13,0,0,.73.17.86.09,6.26,0,6.94-.55q2.75-.22,6.17-.73,4.24-.64,6.09-1l6.08-1.16c2-.42,4.05-.9,6.05-1.41,2.83-.74,4.81-1.29,5.95-1.63q6.09-1.8,11.75-4a122.2,122.2,0,0,0,11.31-5.06,116.15,116.15,0,0,0,10.72-6.17v0a.62.62,0,0,0,.34-.77q-1.07-4.71-2.1-10.11-.9-4.43-1.84-10.12c-.57-3.46-1.09-6.86-1.54-10.2s-.89-6.66-1.29-10.2l-1-10.29c-.29-3.34-.54-6.75-.77-10.24q-.6-9.9-.69-20.61l1.07-20.53q.34-3.6,1.29-10.25L373,493.57q1-5.06,1.8-10.16.9-5.49,1.5-10.2C376.38,473.15,376.37,473.13,376.28,473.13Z" transform="translate(-0.31)"/></g><g id="Duplicate_Items_Folder_Symbol_55_copy_3_0_Layer1_0_FILL" data-name="Duplicate Items Folder Symbol 55 copy 3 0 Layer1 0 FILL"><path class="cls-19" d="M284.48,482.64l-3.9-1L259.49,596.26l27.94,37.12,24.3-37.46L292.92,481.35A14.35,14.35,0,0,1,284.48,482.64Z" transform="translate(-0.31)"/></g><g id="Duplicate_Items_Folder_Symbol_37_copy_2_0_Layer1_0_MEMBER_0_FILL" data-name="Duplicate Items Folder Symbol 37 copy 2 0 Layer1 0 MEMBER 0 FILL"><path class="cls-19" d="M296.43,470.68q1.94-6,2.66-8.78c-1.31-.6-2.83-1.2-4.54-1.8q-5.1-1.77-8.06-1.5-5.06-.14-12.69,3.12.94,3.22,3.69,10.72,2.56,7.11,3.17,9.3l3.94,1a14.21,14.21,0,0,0,8.41-1.29Q295.37,474.07,296.43,470.68Z" transform="translate(-0.31)"/></g><g id="Duplicate_Items_Folder_Symbol_37_copy_2_0_Layer1_0_MEMBER_1_MEMBER_0_MEMBER_0_FILL" data-name="Duplicate Items Folder Symbol 37 copy 2 0 Layer1 0 MEMBER 1 MEMBER 0 MEMBER 0 FILL"><path class="cls-20" d="M286.88,481.65l-6.26.05.43.34a7.23,7.23,0,0,0,1.24.77,10,10,0,0,0,4.63,1.16,8,8,0,0,0,4.59-1.33,5.54,5.54,0,0,0,1.2-.9l.38-.34-.56,0a12.79,12.79,0,0,1-1.37.09C290.93,481.55,289.51,481.6,286.88,481.65Z" transform="translate(-0.31)"/></g><g id="Duplicate_Items_Folder_Symbol_37_copy_2_0_Layer0_0_MEMBER_0_MEMBER_0_FILL" data-name="Duplicate Items Folder Symbol 37 copy 2 0 Layer0 0 MEMBER 0 MEMBER 0 FILL"><path class="cls-21" d="M278.82,328v.3q-30.39,2.36-53.79,19.67-11.7,8.65-17.32,16.85A69.41,69.41,0,0,1,230,382.09a71.85,71.85,0,0,1,13.93,24.6,66.39,66.39,0,0,1,2.74,12.05l-.17.17q.76,1.54,3.56,8.31a79.25,79.25,0,0,0,6.9,12.52q11.4,16.62,29,19,14.79-2.13,28.25-19.37a84.12,84.12,0,0,0,8.22-12.68c2-3.75,3.06-6.33,3.18-7.76l-.18-.17A71.25,71.25,0,0,1,342,382.09a69.3,69.3,0,0,1,22.28-17.31q-5.61-8.19-17.35-16.85-23.42-17.31-53.75-19.67V328q-3.3-.13-7.2,0Q282.08,327.83,278.82,328Z" transform="translate(-0.31)"/></g><g id="Duplicate_Items_Folder_Symbol_37_copy_2_0_Layer0_0_MEMBER_1_FILL" data-name="Duplicate Items Folder Symbol 37 copy 2 0 Layer0 0 MEMBER 1 FILL"><path class="cls-16" d="M327.68,408l-.52,1.89q-3,16-17.18,31.11-11.84,12.57-23.7,17.62a65.78,65.78,0,0,1,7.15,1.63,44.68,44.68,0,0,1,7.38,2.57,38.75,38.75,0,0,1,10,6.94,42.49,42.49,0,0,1,8.58,12.6A93.78,93.78,0,0,0,336.59,442q3.6-21.25-3.25-33.6a12,12,0,0,0-2.36-1.16,11.65,11.65,0,0,0-2.79-.9A7.49,7.49,0,0,0,327.68,408Z" transform="translate(-0.31)"/></g><g id="Duplicate_Items_Folder_Symbol_37_copy_2_0_Layer0_0_MEMBER_2_MEMBER_0_MEMBER_0_MEMBER_0_FILL" data-name="Duplicate Items Folder Symbol 37 copy 2 0 Layer0 0 MEMBER 2 MEMBER 0 MEMBER 0 MEMBER 0 FILL"><path class="cls-18" d="M326.91,412.52l.3-2.61-1.42,5.44L324.25,419q-2.1,4.06-2.23,4.28c-.77,1.4-1.21,2.19-1.33,2.36l-1.54,2.4c-.31.54-.87,1.37-1.67,2.49-.4.54-1,1.38-1.84,2.52l-4.12,5.15a87.45,87.45,0,0,1-16.93,15.56,15.31,15.31,0,0,1-1.8,1.15l-1.58,1a23.29,23.29,0,0,1-2.66,1.5l-2.27,1.2,2.4-1a22.72,22.72,0,0,0,2.78-1.24l1.67-.86a20.48,20.48,0,0,0,1.89-1.07,68.82,68.82,0,0,0,17.79-15.17l4.11-5.27c.6-.8,1.2-1.69,1.8-2.66,1-1.49,1.52-2.34,1.63-2.57l1.46-2.53c.54-1.09.95-1.9,1.24-2.44s.86-1.9,2-4.5c.37-1,.79-2.29,1.24-3.86C326.66,413.65,326.88,412.67,326.91,412.52Z" transform="translate(-0.31)"/></g><g id="Duplicate_Items_Folder_Symbol_37_copy_2_0_Layer0_0_MEMBER_3_MEMBER_0_MEMBER_0_MEMBER_0_FILL" data-name="Duplicate Items Folder Symbol 37 copy 2 0 Layer0 0 MEMBER 3 MEMBER 0 MEMBER 0 MEMBER 0 FILL"><path class="cls-18" d="M329.26,406.65l-.77-.17.77.21a13.52,13.52,0,0,1,1.63.6,6.85,6.85,0,0,1,1.25.56l.68.34a4,4,0,0,1,.69.56,61.11,61.11,0,0,1,2.1,5.79A52.57,52.57,0,0,1,337.45,427a73.06,73.06,0,0,1-1.54,17.44,92.15,92.15,0,0,1-6.47,19.76,89.22,89.22,0,0,1-6,11.14l-3.82,5.53,0,.09c-.06.11-.09.1-.09,0l0-.05-.47-.94a8,8,0,0,0-.73-1.29,38.22,38.22,0,0,0-6.73-8.61,39,39,0,0,0-7.59-5.7,57.19,57.19,0,0,0-7.07-3.22,55.32,55.32,0,0,0-5.65-1.58l-4.93-.9,1.28.3a8.84,8.84,0,0,1,1.5.34l2.06.52a46.24,46.24,0,0,1,5.53,1.84,52.78,52.78,0,0,1,6.9,3.43,38.59,38.59,0,0,1,13.5,14.27c.06.09.27.5.64,1.24l1.55,3.13,0,0,.08-.08,5.4-7.46a80.14,80.14,0,0,0,6.18-11.31,87.21,87.21,0,0,0,6.38-20.19A70.89,70.89,0,0,0,338.48,427a49.33,49.33,0,0,0-2.4-12.56,33.58,33.58,0,0,0-2.49-5.7,2.31,2.31,0,0,0-.73-.6l-1.92-.9A13.1,13.1,0,0,0,329.26,406.65Z" transform="translate(-0.31)"/></g><g id="Duplicate_Items_Folder_Symbol_37_copy_2_0_Layer0_0_MEMBER_4_FILL" data-name="Duplicate Items Folder Symbol 37 copy 2 0 Layer0 0 MEMBER 4 FILL"><path class="cls-16" d="M244.92,409.91a21.91,21.91,0,0,0-1-3.56,11.65,11.65,0,0,0-2.79.9,12.84,12.84,0,0,0-2.31,1.16q-6.85,12.34-3.26,33.6a93.67,93.67,0,0,0,17.19,40.37A39.21,39.21,0,0,1,261.46,470a39.81,39.81,0,0,1,10.12-6.81A49.11,49.11,0,0,1,279,460.4a59.77,59.77,0,0,1,7.25-1.76L284.9,458q-12.51-5.44-23.65-17.49Q247.83,426.07,244.92,409.91Z" transform="translate(-0.31)"/></g><g id="Duplicate_Items_Folder_Symbol_37_copy_2_0_Layer0_0_MEMBER_5_MEMBER_0_MEMBER_0_MEMBER_0_FILL" data-name="Duplicate Items Folder Symbol 37 copy 2 0 Layer0 0 MEMBER 5 MEMBER 0 MEMBER 0 MEMBER 0 FILL"><path class="cls-18" d="M246.37,415.35l-1.45-5.44.3,2.61c0,.26.24,1.26.64,3l1.33,3.86q1.29,3.14,2,4.5c.72,1.46,1.13,2.27,1.25,2.44l1.45,2.53a87.85,87.85,0,0,0,7.67,10.46,71.62,71.62,0,0,0,17.92,15.17,20.48,20.48,0,0,0,1.89,1.07l1.67.86c.28.14,1.21.57,2.78,1.29l2.45.94-2.32-1.2c-1.4-.74-2.28-1.24-2.66-1.5l-1.58-1a15.31,15.31,0,0,1-1.8-1.15,88.33,88.33,0,0,1-17.1-15.56,96.43,96.43,0,0,1-7.72-10.16l-1.54-2.4c-.06-.09-.51-.86-1.37-2.31q-.25-.44-2.27-4.33Z" transform="translate(-0.31)"/></g><g id="Duplicate_Items_Folder_Symbol_37_copy_2_0_Layer0_0_MEMBER_6_MEMBER_0_MEMBER_0_MEMBER_0_FILL" data-name="Duplicate Items Folder Symbol 37 copy 2 0 Layer0 0 MEMBER 6 MEMBER 0 MEMBER 0 MEMBER 0 FILL"><path class="cls-18" d="M237.93,410.51l.82-1.85.47-.34a27.11,27.11,0,0,1,3.34-1.54l1.24-.34a5.6,5.6,0,0,0-1.24.3,16.57,16.57,0,0,0-3.47,1.37l-.56.38a2.52,2.52,0,0,0-.3.6l-.64,1.25q-1.11,2.75-1.2,3a38.22,38.22,0,0,0-2,7.54,63,63,0,0,0-.13,20.32,85.76,85.76,0,0,0,7,23.87,91.88,91.88,0,0,0,6.26,11.36q2.31,3.42,3.56,5l1.8,2.31,0,0,1.67-3.34a9.55,9.55,0,0,1,.64-1.24A37.82,37.82,0,0,1,268.92,465a49,49,0,0,1,6.94-3.38c2.37-.86,4.22-1.46,5.53-1.8l4.89-1.16-4.93.9a54.51,54.51,0,0,0-5.66,1.58,45.09,45.09,0,0,0-7.16,3.18,38.45,38.45,0,0,0-7.71,5.61,37.36,37.36,0,0,0-6.82,8.53,8.75,8.75,0,0,0-.73,1.29l-.6,1.2,0,0s0,0,0,0l-.09-.09,0-.08-.21-.26q-1.42-1.85-3.43-5a87.73,87.73,0,0,1-6-11.19,90.27,90.27,0,0,1-7.15-23.4,63.85,63.85,0,0,1-.43-20,45.75,45.75,0,0,1,1.67-7.5C237.06,412.85,237.42,411.85,237.93,410.51Z" transform="translate(-0.31)"/></g><g id="Duplicate_Items_Folder_Symbol_32_copy_2_0_Layer0_0_FILL" data-name="Duplicate Items Folder Symbol 32 copy 2 0 Layer0 0 FILL"><path class="cls-22" d="M448.76,140.28Q428.53,119.19,399,95.11q-20.14-15.69-49.93-24a219.13,219.13,0,0,0-60.18-7.88h-1.2a220,220,0,0,0-61.2,7.63q-30.35,8.36-50.79,24.26-29.49,24-49.76,45.17a320.76,320.76,0,0,0-41.7,53l-15.3-1.54a41.63,41.63,0,0,1,12.73,8.36Q75,206.67,62,215q-15.12,9.67-20,8.35,4.71,6.3,18.09,12.39a104.61,104.61,0,0,0,21,7.2q-.39,2.26-2.1,9.56a82.74,82.74,0,0,1-13.46,3.08c-3.92.32-7.35.7-10.29,1.16a53.54,53.54,0,0,0,8.49,4.93q.81.44,8.91,4.24a78.37,78.37,0,0,1-17.14,11.79A57.46,57.46,0,0,1,35.89,284Q50,302.11,74.68,320.12A235.76,235.76,0,0,0,120.62,347q-16.83,9.26-25.88,7.93,11.82,5.91,21,7.37,9.47,1.5,22.28-.73c-.14.09-3,1-8.53,2.79q-8.05,2.61-11.61,5.1,6.94,1.8,21,5.78,12.64,3.48,21.13,5,7.2,1.29,21.38,3.73,12.23,2.24,21.26,4.55,6.69,1.71,22.16,6.25Q239.48,399,247.57,401q22.71,5.67,39.78,5.44-3.17-.06-6.13-.3h12.26q-3,.24-6.13.3,17.06.24,39.77-5.44,15.35-3.82,45-12.6,9-2.32,21.26-4.55,7.08-1.29,21.39-3.73,8.49-1.5,21.13-5,7-1.92,21-5.78-3.56-2.49-11.66-5.1t-8.49-2.79q12.85,2.24,22.29.73,9.13-1.46,21-7.37-9,1.32-25.89-7.93A237.59,237.59,0,0,0,500,320.12q24.6-18,38.74-36.13a57.36,57.36,0,0,1-19.54-6.26,80.57,80.57,0,0,1-17.15-11.79q2.28-1.06,8.92-4.24a50.24,50.24,0,0,0,8.48-4.93q-6.63-1.06-9.38-1.71t-12.56-3.69q-.21-1.16-.6-4.59c-.29-2.31-.5-3.85-.64-4.62A90,90,0,0,0,516,235.38q12-5.65,16.72-12-4.84,1.34-20-8.35-13-8.37-19.71-15a42.66,42.66,0,0,1,12.77-8.36l-15.3,1.54A319.65,319.65,0,0,0,448.76,140.28Z" transform="translate(-0.31)"/></g><g id="Duplicate_Items_Folder_Symbol_30_copy_2_0_Layer5_0_FILL" data-name="Duplicate Items Folder Symbol 30 copy 2 0 Layer5 0 FILL"><path class="cls-23" d="M404.7,267.91a95.62,95.62,0,0,1-21,2.36q-21.64-.56-35.83-5.31a73.57,73.57,0,0,1-19.42-10.2q-11.61-8.32-15.26-10.08-9.56-4.62-23.27-5a56.07,56.07,0,0,0-24.47,4.5Q260.44,246.41,247,255a92.46,92.46,0,0,1-21.08,10.5q-14,4.5-32.32,3.6a88.52,88.52,0,0,1-28.46-6.56q-4.8-1.92-12-5.35-9-4.29-11.23-5.27-12.81-5.71-22.28-6-12.43-.42-25.59,7.29-9,5.31-27.73,18.51Q49.22,282.53,35.89,284,50,302.11,74.68,320.12A235.76,235.76,0,0,0,120.62,347q-16.83,9.26-25.88,7.93,11.82,5.91,21,7.37,9.47,1.5,22.28-.73c-.14.09-3,1-8.53,2.79q-8.05,2.61-11.61,5.1,6.94,1.8,21,5.78,12.64,3.48,21.13,5,7.2,1.29,21.38,3.73,12.23,2.24,21.26,4.55,6.69,1.71,22.16,6.25Q239.48,399,247.57,401q22.71,5.67,39.78,5.44-3.17-.06-6.13-.3h12.26q-3,.24-6.13.3,17.06.24,39.77-5.44,15.35-3.82,45-12.6,9-2.32,21.26-4.55,7.08-1.29,21.39-3.73,8.49-1.5,21.13-5,7-1.92,21-5.78-3.56-2.49-11.66-5.1t-8.49-2.79q12.85,2.24,22.29.73,9.13-1.46,21-7.37-9,1.32-25.89-7.93,3.93,2.06,22.07-9.86.53-.33,16.12-11.4l5.36-3.82q14.14-10.11,22-17.05,12-10.59,18.43-20.58a56.74,56.74,0,0,1-14.75-4.67q-4.11-1.85-15.43-7.84-8.34-4.41-15.64-7.54a100.16,100.16,0,0,0-20.87-6.65q-8.58-1.55-20.79.17-8.49,1.17-22.89,4.72Q409.41,267,404.7,267.91Z" transform="translate(-0.31)"/></g><g id="Duplicate_Items_Folder_Symbol_31_copy_2_0_Layer0_0_FILL" data-name="Duplicate Items Folder Symbol 31 copy 2 0 Layer0 0 FILL"><path class="cls-24" d="M311.52,34.72a27.31,27.31,0,0,0-8.19,3.94q-8,5.56-12.77,15.94a24.34,24.34,0,0,1,2.62-12.81Q285,44,277.66,54.05a60.25,60.25,0,0,0-4,6.72q-.65,1.2-3.56,7A6.66,6.66,0,0,0,271.49,70a4.34,4.34,0,0,0,2,1.59,42.85,42.85,0,0,0,14.75,1.88,42.36,42.36,0,0,0,14.52-3.21c2.83-1.11,4.28-2.5,4.33-4.16a10.94,10.94,0,0,0-.55-3.13,22.19,22.19,0,0,1-.82-3.21,27.16,27.16,0,0,1,1.84-13.2,36.81,36.81,0,0,1,3.69-6.77A39.73,39.73,0,0,1,316.41,34,14.25,14.25,0,0,0,311.52,34.72Z" transform="translate(-0.31)"/></g><g id="Duplicate_Items_Folder_Symbol_35_copy_2_0_Layer14_0_FILL" data-name="Duplicate Items Folder Symbol 35 copy 2 0 Layer14 0 FILL"><path class="cls-1" d="M153.2,223.64a75,75,0,0,0-7.37,28.12,72,72,0,0,0,25.11,14.1,89.11,89.11,0,0,0,28.55,4.45q15.12,0,26.48-4.15,14-5.1,20.83-16a51.63,51.63,0,0,0-5-26.66,49.36,49.36,0,0,0-17.61-20.57,47.72,47.72,0,0,0-25.93-7.85,46,46,0,0,0-26,7.16A53.1,53.1,0,0,0,153.2,223.64Z" transform="translate(-0.31)"/></g><g class="cls-25"><g id="Duplicate_Items_Folder_Symbol_41_copy_3_0_Layer0_0_MEMBER_0_FILL" data-name="Duplicate Items Folder Symbol 41 copy 3 0 Layer0 0 MEMBER 0 FILL"><path class="cls-26" d="M226.1,234.53a24.72,24.72,0,1,0-7.24,17.53A23.95,23.95,0,0,0,226.1,234.53Z" transform="translate(-0.31)"/></g><g id="Duplicate_Items_Folder_Symbol_41_copy_3_0_Layer0_0_MEMBER_1_FILL" data-name="Duplicate Items Folder Symbol 41 copy 3 0 Layer0 0 MEMBER 1 FILL"><path class="cls-27" d="M211.7,224.15A14.69,14.69,0,1,0,216,234.53,14.2,14.2,0,0,0,211.7,224.15Z" transform="translate(-0.31)"/></g><g id="Duplicate_Items_Folder_Symbol_41_copy_3_0_Layer0_0_MEMBER_2_FILL" data-name="Duplicate Items Folder Symbol 41 copy 3 0 Layer0 0 MEMBER 2 FILL"><path class="cls-28" d="M191.3,233.67a3.72,3.72,0,0,0-1.11-2.74,3.83,3.83,0,0,0-5.49,0,3.82,3.82,0,0,0,0,5.48,3.86,3.86,0,0,0,6.6-2.74Z" transform="translate(-0.31)"/></g></g><g id="Duplicate_Items_Folder_Symbol_35_copy_2_0_Layer11_0_FILL" data-name="Duplicate Items Folder Symbol 35 copy 2 0 Layer11 0 FILL"><path class="cls-1" d="M432.51,251.76a75.17,75.17,0,0,0-7.37-28.12,53.1,53.1,0,0,0-19.07-21.43,45.9,45.9,0,0,0-26-7.16,47.72,47.72,0,0,0-25.93,7.85,49.13,49.13,0,0,0-17.57,20.57,51.36,51.36,0,0,0-5,26.66q6.81,10.92,20.83,16,11.31,4.11,26.44,4.15a89.23,89.23,0,0,0,28.59-4.45A72.05,72.05,0,0,0,432.51,251.76Z" transform="translate(-0.31)"/></g><g class="cls-29"><g id="Duplicate_Items_Folder_Symbol_42_copy_5_0_Layer0_0_MEMBER_0_FILL" data-name="Duplicate Items Folder Symbol 42 copy 5 0 Layer0 0 MEMBER 0 FILL"><path class="cls-30" d="M394.58,217a24.82,24.82,0,1,0,7.25,17.53A24,24,0,0,0,394.58,217Z" transform="translate(-0.31)"/></g><g id="Duplicate_Items_Folder_Symbol_42_copy_5_0_Layer0_0_MEMBER_1_FILL" data-name="Duplicate Items Folder Symbol 42 copy 5 0 Layer0 0 MEMBER 1 FILL"><path class="cls-27" d="M377,219.83a14.7,14.7,0,1,0,10.41,4.32A14.07,14.07,0,0,0,377,219.83Z" transform="translate(-0.31)"/></g><g id="Duplicate_Items_Folder_Symbol_42_copy_5_0_Layer0_0_MEMBER_2_FILL" data-name="Duplicate Items Folder Symbol 42 copy 5 0 Layer0 0 MEMBER 2 FILL"><path class="cls-28" d="M388.15,230.93a3.91,3.91,0,1,0,5.49,0,3.66,3.66,0,0,0-2.74-1.16A3.77,3.77,0,0,0,388.15,230.93Z" transform="translate(-0.31)"/></g></g><g id="Duplicate_Items_Folder_Symbol_35_copy_2_0_Layer7_0_STROKES_1_FILL" data-name="Duplicate Items Folder Symbol 35 copy 2 0 Layer7 0 STROKES 1 FILL"><path d="M238.62,212.88l-.05-.08-2.74-3.47-3.17-3.3-2.27-2-.09,0-.13-.13-5.31-3.77c-1.49-.86-2.63-1.49-3.43-1.89-1.14-.6-2.34-1.16-3.6-1.67l-4-1.46-.08,0h-.09l0,0-7.42-1.8c-1.51-.23-2.88-.39-4.11-.47l-4.16-.09a68.1,68.1,0,0,0-8,.69l-6.22,1.24-6.9,2.36-1.37.6-.21.12-1.55.78-.21.08-2.36,1.37a6.44,6.44,0,0,0-.85.52l-4.12,2.91-3.34,3-.47.52-.17.13-1,1.11,0,.09-3.25,4-.05.09-.08.08-1.8,2.66-.09.17-.08.09,0,.13L154,218.15l-.08.22-1.68,3.43,0,0v0l-.26.52-1.5,3.81,0,.17-.08.18-.65,2-.08.17-2.1,8.78-.86,7.85,0,4.11a.08.08,0,0,0,.09.09l0-.05.3-1.84c.12-.74.26-1.47.43-2.18l.13-.69,3.21-11.1,1.5-3.77.09-.13,0-.17.86-1.8,0-.17,2.1-4.08.05,0,.9-1.54.08-.17,2.74-4.12.05,0,0-.09.81-1.11.13-.13,1-1.24.08-.09.05-.08,3.25-3.47,0-.09,4.63-3.9.17-.09,1.37-1a59.07,59.07,0,0,1,6-3.34l3.3-1.33.22,0,.21-.08,2.53-.82.21,0,.22-.08,7.11-1.46a67.36,67.36,0,0,1,7.37-.56h.95l.08,0,2.57.08c1.15.09,2.33.22,3.56.39l6.6,1.5s0,0,0,0l0,0,.13,0,.21,0,.47.17.22,0,2.74,1c1.06.4,2.14.87,3.26,1.41a32.06,32.06,0,0,1,3.08,1.59l6.26,4.2.13.12.81.65.13.13.34.25.3.3.18.13,2.05,2,.17.13,2.53,2.83.05.09.08.08.73.9,0,.09.09.08.09.17,2.78,4.08.17.34.22.3,1.11,2.1.09.13,2.27,5.06,0,.17,2,6,1.89,9.47.64,5.49.09,0,.08,0v-.52l.13-1.37v-9.08l-1-7.55-1.25-5-1.58-4.42-.05-.17-3.42-6.68-.13-.18-.22-.38-.25-.34-.09-.22-.09-.08,0-.09L238.7,213l-.08-.09m188.54,8.83-1.93-3.81-.05-.13-.08-.09-.17-.34L420.64,211l-.17-.17-1.16-1.42-4.41-4.5-2.4-2-.22-.13-.17-.17-.38-.26a1.11,1.11,0,0,1-.35-.3l-.3-.17-.13-.13-5-3.17c-1.4-.77-2.58-1.39-3.55-1.85-1.32-.57-2.58-1.08-3.78-1.54L394,193.72l-.94-.21,0,0h-.09l-.13-.05-2-.42a42.67,42.67,0,0,0-8.27-.95h-1.59l-.26,0-1.37,0-.26,0-.77,0-3.55.48-.13,0h-.13l-1.24.21-.26.09-6.17,1.5-.26.08-.22,0a51.85,51.85,0,0,0-7.5,3l-.9.47-.21.09-1.07.64-.22.09-1.28.77-.09.08-.13.05-3.6,2.53-4.62,4.07-5.45,6.64-.94,1.41-.22.39-.25.34-.73,1.29-.13.17-.43.73-.17.38-.13.18-.6,1.24-.08.08v.05l-.05,0-.08.17L333.59,229l-1.41,5.31-.9,5.49V240l0,.13v.13l-.26,3.56,0,.17.08,5.31,0,.47a.08.08,0,0,0,.09.09l0,0,1.67-9.26v-.13l.13-.34,1.33-4.63.13-.26.09-.3,2.31-5.83,4.12-7.71,0,0,0-.09.64-1,.09-.17.13-.13.17-.34.56-.77.08-.17,2.62-3.48,4.5-4.75,2.23-1.93,5.65-3.86.09-.08.13-.05,2.31-1.24,6.43-2.57.09,0,.12,0,.22,0,.86-.26.21-.08,7.2-1.55.13,0h.09l2.78-.34.22-.05h.21l.51-.08h.43l.22,0h.64l.21,0h1.59a43.49,43.49,0,0,1,7.2.78l1.8.38.13,0h.08l.26.09.69.13,1.11.3.09,0h.13l2.83.9c1.31.46,2.42.89,3.34,1.29,1.34.57,2.43,1.07,3.26,1.5l4.54,2.7,0,0,.09,0,5.31,4.12.3.3.17.13,3.09,3.08,0,.09.09.08,4.28,5.49.22.34.08,0,.13.26.82,1.29a53.32,53.32,0,0,1,2.83,5.18l2.05,4.72.09.34c.48,1.17,1,2.73,1.63,4.67l3.38,15,.09,0,0-.08,0-.47-.51-10.55-.13-.77v-.3l-1.33-7v-.13l-2-6.65-.09-.17-1.33-3.21Z" transform="translate(-0.31)"/></g><g id="Duplicate_Items_Folder_Symbol_43_0_Layer0_0_MEMBER_0_MEMBER_0_FILL" data-name="Duplicate Items Folder Symbol 43 0 Layer0 0 MEMBER 0 MEMBER 0 FILL"><path class="cls-31" d="M146.73,252.4l-.9-.64.81.73c1.23,1.14,2,1.87,2.44,2.18a68,68,0,0,0,9.9,6.86,77.87,77.87,0,0,0,16.55,6.9,83.87,83.87,0,0,0,21.77,3.21,81.74,81.74,0,0,0,21.86-2.31,51,51,0,0,0,16.5-7.16,34.79,34.79,0,0,0,5.31-4.41l4-4.72,1.8-2.91-2.74,3.43-3.64,3.55a42.14,42.14,0,0,1-5.49,3.9,52.27,52.27,0,0,1-16.29,6.09,94.56,94.56,0,0,1-21.3,1.8,92.6,92.6,0,0,1-21.21-2.7,83.62,83.62,0,0,1-16.5-5.87,74.4,74.4,0,0,1-10.29-6Z" transform="translate(-0.31)"/></g><g id="Duplicate_Items_Folder_Symbol_43_0_Layer0_1_MEMBER_0_MEMBER_0_FILL" data-name="Duplicate Items Folder Symbol 43 0 Layer0 1 MEMBER 0 MEMBER 0 FILL"><path class="cls-31" d="M431.7,252.53l.81-.77-.9.64c-1,.77-1.84,1.41-2.61,1.93a71,71,0,0,1-10.29,6,83.62,83.62,0,0,1-16.5,5.87A92.6,92.6,0,0,1,381,268.9a94.65,94.65,0,0,1-21.31-1.8A52.3,52.3,0,0,1,343.41,261a41.47,41.47,0,0,1-5.49-3.9l-2.06-1.84-4.32-5.14,3.85,5.57,2,2.06a35.4,35.4,0,0,0,5.32,4.41,51,51,0,0,0,16.5,7.16A81.74,81.74,0,0,0,381,271.64a83.87,83.87,0,0,0,21.77-3.21,77.79,77.79,0,0,0,16.54-6.9,67.54,67.54,0,0,0,9.91-6.86C430,254.07,430.81,253.36,431.7,252.53Z" transform="translate(-0.31)"/></g><g id="Duplicate_Items_Folder_Symbol_35_copy_2_0_Layer5_0_STROKES_1_FILL" data-name="Duplicate Items Folder Symbol 35 copy 2 0 Layer5 0 STROKES 1 FILL"><path d="M365.39,178.68h-1.54l-.34,0-2.32,0c-1.2,0-2.9.07-5.1.22s-4.35.37-6.64.68q-3.9.48-7.8,1.33c-1.83.46-3.21.83-4.16,1.11l-2.44.86-.51.26-.26.08-.34.18h-.05l0,0-.13,0-14.4,6.82-.13.08h0l-.09,0-.81.3a18.44,18.44,0,0,1-2.19.6l-1.71.22h-.6l0,0h-.09l-.13,0h-.26l-1.67-.22-2.23-.81-.08-.09-.52-.25,0,0h-.08l-.26-.17,0,0h-.05l-.13-.09-.17-.17-.13,0-.94-.94-.17-.22-.21-.34-.09-.09-.17-.25a16.11,16.11,0,0,1-1-2l-.26-.52-.08-.26-.09-.12v-.09l-2-5.66v0l0-.09-.51-1.67c-.37-1.23-.73-2.6-1.07-4.11l-1.5-9,0-.13V164l-.05-.21-.13-1.72c-.08-.68-.15-1.71-.21-3.08l.09-7,0-.21v-.17l.13-1v-.26l0-.12v-.13l.09-.65c.05-.05,0-.08-.05-.08s-.08,0-.08,0l-.47,2.14v.18L299,152l-.47,4.89v.34l0,.34.13,6.34,0,.22v.21l.13,1.37c.06.8.2,2.06.43,3.78.2,1.45.43,2.8.68,4s.56,2.61,1,4.24l.47,1.76,0,0v.08l1.89,5.7,0,.05,0,.08v.05l.39,1,1.16,2.19.73,1a11.88,11.88,0,0,0,.94,1l.26.22.12.08.13.13.09,0,0,0,.17.08.05.09h0l0,0,.13.09.13,0,.08,0,.05,0,.6.3.25.18,1.2.51,2.53.6,2,0,1.92-.25c.83-.18,1.66-.39,2.49-.65l.56-.25.3-.09.17-.09.13,0,1.11-.51q2.1-.9,4.42-2.06l8.87-4.46.13,0v0h0l.08-.05.26-.08.13-.09.34-.17.26-.08.26-.13,2.53-.95,7.45-1.88,10.25-1.67c2-.26,3.67-.43,5.1-.52l4.45-.3.05-.08-.09-.05Z" transform="translate(-0.31)"/></g><g id="Duplicate_Items_Folder_Symbol_35_copy_2_0_Layer4_0_STROKES_1_FILL" data-name="Duplicate Items Folder Symbol 35 copy 2 0 Layer4 0 STROKES 1 FILL"><path d="M278.65,150.61V155c-.06,1.71-.16,3.4-.3,5.06l-1,8.78,0,.13V169l-.22,1.2c-.31,1.88-.56,3.18-.73,3.9L274,182.67l-.13.21-.09.26-.56,1.28-2.27,3.86-.6.77-.13.09-.34.43-.08.08-.13.09-.09.08-.08.13-.18.13,0,0h0l-.22.22-.55.34-.47.17-.26.13a13.24,13.24,0,0,1-2.14.47,18.42,18.42,0,0,1-2.28.13h-.6l-.25,0h-.82l-.08,0-.56-.05c-1-.11-1.8-.23-2.32-.34l-1.41-.34-.26-.09-.6-.13c-1.45-.43-2.93-.94-4.41-1.54l-8.44-3.73c-3-1.28-5.69-2.33-8.15-3.13l-2.91-.94-7.25-1.63H225l-12-1h-1.16c-.06,0-.09,0-.09,0l0,.08,1.45.18h.35l2.61.3,1.07.12,10.33,1.76,1.33.34.21.09.22,0,1.37.43.21,0,.13,0,.09,0,3.77,1.29q3.94,1.46,8,3.3l9,4.11,1.67.6a19,19,0,0,0,2.31.77l1.2.34.3,0,.9.21q1.25.25,2.49.39l.6,0h.08l.09,0h.77l.3.05h.64a15.12,15.12,0,0,0,2.49-.18,10.45,10.45,0,0,0,2.53-.55l.6-.26,1.11-.64v0l.09,0,.08-.08.09-.05v0h0l.26-.26.13-.08.13-.13.08-.13.13-.09.43-.47.56-.77.21-.21,2.49-4.42,0-.17,0,0v0l.05,0,.21-.51.09-.3.12-.26.09-.3.13-.26c.4-1.17.81-2.61,1.24-4.32.37-1.55.66-2.95.86-4.2l.81-5.19V169l.09-.43.64-9.85-.38-8.1c0-.09,0-.1-.09,0S278.59,150.55,278.65,150.61Z" transform="translate(-0.31)"/></g><g id="Duplicate_Items_Folder_Symbol_35_copy_2_0_Layer3_0_FILL" data-name="Duplicate Items Folder Symbol 35 copy 2 0 Layer3 0 FILL"><path d="M424.2,190.68a49.27,49.27,0,0,1,7,3.69A149.7,149.7,0,0,0,419,180.05q-14.49-15.21-25.8-19.5-8.66-3.26-25.76-2.27l-15.34,1.63a50.39,50.39,0,0,0-5.88,11q-1.32,3.22-4.37,11.75l5.4-1.33q6.78-1.5,13.59-2.36,22-2.79,36.82,1.89A232.76,232.76,0,0,1,424.2,190.68Z" transform="translate(-0.31)"/></g><g id="Duplicate_Items_Folder_Symbol_35_copy_2_0_Layer2_0_FILL" data-name="Duplicate Items Folder Symbol 35 copy 2 0 Layer2 0 FILL"><path d="M230.82,159.91a137.19,137.19,0,0,0-15.35-1.63q-17.1-1-25.76,2.27-11.31,4.29-25.8,19.5a149.7,149.7,0,0,0-12.21,14.32l7-3.69a228.93,228.93,0,0,1,26.53-9.81q14.82-4.68,36.81-1.89a124.8,124.8,0,0,1,19,3.69q-3-8.53-4.37-11.75A50.86,50.86,0,0,0,230.82,159.91Z" transform="translate(-0.31)"/></g><g id="Duplicate_Items_Folder_Symbol_40_copy_2_0_Layer0_0_MEMBER_0_FILL" data-name="Duplicate Items Folder Symbol 40 copy 2 0 Layer0 0 MEMBER 0 FILL"><path d="M341.48,161l-.86,3.39a56.5,56.5,0,0,0-1.16,8.18,47.82,47.82,0,0,0,.69,11.66,45.68,45.68,0,0,0,2.06-11.53,53.61,53.61,0,0,0-.22-8.27Z" transform="translate(-0.31)"/></g><g id="Duplicate_Items_Folder_Symbol_40_copy_2_0_Layer0_1_MEMBER_0_FILL" data-name="Duplicate Items Folder Symbol 40 copy 2 0 Layer0 1 MEMBER 0 FILL"><path d="M346.92,159.82l-.81,1.29a32.75,32.75,0,0,0-1.72,3.73,72.24,72.24,0,0,0-3.17,13L340.11,184c0,.09,0,.13,0,.13l5.19-2.36c2.05-1,3.84-1.91,5.35-2.74,2-1.08,3.6-2,4.8-2.74q-2.06.51-5.35,1.5c-2.49.8-4.37,1.43-5.66,1.88l-.77.26-.09,0,0,0a7.71,7.71,0,0,0,.34-1.5q.43-2.7,1-7.25c.34-2.86.61-4.81.81-5.87.23-1.37.5-2.67.82-3.9Z" transform="translate(-0.31)"/></g><g id="Duplicate_Items_Folder_Symbol_39_copy_2_0_Layer0_0_MEMBER_0_FILL" data-name="Duplicate Items Folder Symbol 39 copy 2 0 Layer0 0 MEMBER 0 FILL"><path d="M242.3,165.09l-.9-3.38-.47,3.43a48,48,0,0,0-.21,8.27,49.34,49.34,0,0,0,1.15,8.19,33.38,33.38,0,0,0,.86,3.34,45,45,0,0,0,.69-11.66A52.59,52.59,0,0,0,242.3,165.09Z" transform="translate(-0.31)"/></g><g id="Duplicate_Items_Folder_Symbol_39_copy_2_0_Layer0_1_MEMBER_0_FILL" data-name="Duplicate Items Folder Symbol 39 copy 2 0 Layer0 1 MEMBER 0 FILL"><path d="M236.77,161.84l-.81-1.29.43,1.46a39,39,0,0,1,.77,3.9c.2,1.06.47,3,.81,5.87.38,3,.7,5.44,1,7.24a12.15,12.15,0,0,0,.34,1.5s0,0,0,0l-.09,0-.72-.26q-1.94-.67-5.71-1.88l-5.35-1.5,4.84,2.74c1.77,1,3.54,1.89,5.32,2.74l4.75,2.15,2,.51-1.5-.43-1.11-6.13a69.88,69.88,0,0,0-3.17-13A28.08,28.08,0,0,0,236.77,161.84Z" transform="translate(-0.31)"/></g><g id="Duplicate_Items_Folder_Symbol_36_copy_2_1_Layer0_0_MEMBER_0_FILL" data-name="Duplicate Items Folder Symbol 36 copy 2 1 Layer0 0 MEMBER 0 FILL"><path d="M235.72,355a101,101,0,0,1,8.39,9.76l3.73,4.71c.19.23.35.34.46.34s.21.08.4.35q5.52,7.64,18.95,10.33,9.42,1.9,24.93,1.5a70.47,70.47,0,0,0,17.17-2.13,33.63,33.63,0,0,0,13.89-7.58q4.26-3.84,16.14-15.79A159.9,159.9,0,0,1,352.3,345.4q-32.83,20.89-64.2-3.91-30.33,19.88-63.06,5.57A41.77,41.77,0,0,1,235.72,355Z" transform="translate(-0.31)"/></g><g id="Duplicate_Items_Folder_Symbol_36_copy_2_1_Layer0_0_MEMBER_1_FILL" data-name="Duplicate Items Folder Symbol 36 copy 2 1 Layer0 0 MEMBER 1 FILL"><path class="cls-32" d="M310.84,372.21a25.8,25.8,0,0,0-6.38-5.11,23.72,23.72,0,0,0-5.85-2.75,63.44,63.44,0,0,0-6.84-.81c-1.11,0-1.85-.05-2.24-.05a6.11,6.11,0,0,0-2.18.45,3.78,3.78,0,0,0-1.84,1.33,5,5,0,0,0-.34.46v-.06a2.4,2.4,0,0,0-1-1.44,5,5,0,0,0-3.44-.63,23.17,23.17,0,0,0-10.11,3.1q-5.46,3.17-6.72,7.75-1.79,6.62,11.2,7.76,2.7.23,17.46-.23,2.75-.06,9.47-.06,5.86-.41,8.79-2.64Q314.46,376.58,310.84,372.21Z" transform="translate(-0.31)"/></g><g id="Duplicate_Items_Folder_Symbol_36_copy_2_1_Layer0_0_MEMBER_2_FILL" data-name="Duplicate Items Folder Symbol 36 copy 2 1 Layer0 0 MEMBER 2 FILL"><path class="cls-1" d="M323.07,355.22c-.08-.16-.29-.23-.63-.23a32.44,32.44,0,0,1-15.33-2.13c.34.25,1.31,2.12,2.92,5.63l2.47,5.91q.87,2,2.64.87a18.26,18.26,0,0,0,2.76-2.65,29.28,29.28,0,0,0,5.05-7C323.07,355.43,323.11,355.29,323.07,355.22Z" transform="translate(-0.31)"/></g><g id="Duplicate_Items_Folder_Symbol_36_copy_2_1_Layer0_0_MEMBER_3_FILL" data-name="Duplicate Items Folder Symbol 36 copy 2 1 Layer0 0 MEMBER 3 FILL"><path class="cls-1" d="M259,364.4q1.6-4,2.47-5.91c1.61-3.51,2.59-5.38,2.93-5.63A32.16,32.16,0,0,1,249.16,355c-.38,0-.59.07-.63.23a.5.5,0,0,0,.06.4,29.65,29.65,0,0,0,5,7c.27.27.69.73,1.27,1.38a9.11,9.11,0,0,0,1.49,1.27Q258.18,366.41,259,364.4Z" transform="translate(-0.31)"/></g><g id="Duplicate_Items_Folder_Symbol_36_copy_2_1_Layer0_0_MEMBER_4_MEMBER_0_MEMBER_0_FILL" data-name="Duplicate Items Folder Symbol 36 copy 2 1 Layer0 0 MEMBER 4 MEMBER 0 MEMBER 0 FILL"><path class="cls-31" d="M390.84,305.21l.35-.12-.35.06-1,.34a16.19,16.19,0,0,0-3.56,2.13,30.36,30.36,0,0,0-4.59,4.7l-5.39,6.77a161.41,161.41,0,0,1-14.86,16.41q-2.19,2.13-4.71,4.19l-2.58,1.95a29.26,29.26,0,0,1-2.7,1.9,59.82,59.82,0,0,1-12.22,5.91,64.41,64.41,0,0,1-13.31,2.93,45.36,45.36,0,0,1-6.49.17,29.85,29.85,0,0,1-3.15-.12l-3.1-.34a43.8,43.8,0,0,1-20-7.63,17.12,17.12,0,0,1-1.84-1.32c-.72-.62-1.28-1.07-1.66-1.38l-.63-.57c-.08,0-.15-.23-.23-.58l-.69-13.88-.86,14.11a6,6,0,0,1-.06.69.59.59,0,0,0,.35.57l.86.92c.38.35.92.88,1.6,1.61a14.1,14.1,0,0,0,1.78,1.61,44,44,0,0,0,20.83,9.52l3.27.52c.73.11,1.86.21,3.39.28q1.32.12,7,0A55.54,55.54,0,0,0,353.77,347a26.1,26.1,0,0,0,2.82-2.12l2.69-2.18q2.07-1.78,4.77-4.6a133.65,133.65,0,0,0,14-17.73q1.83-2.69,4.7-7.23a36.21,36.21,0,0,1,4-5.05,13,13,0,0,1,3.22-2.46Z" transform="translate(-0.31)"/></g><g id="Duplicate_Items_Folder_Symbol_36_copy_2_1_Layer0_0_MEMBER_5_MEMBER_0_MEMBER_0_FILL" data-name="Duplicate Items Folder Symbol 36 copy 2 1 Layer0 0 MEMBER 5 MEMBER 0 MEMBER 0 FILL"><path class="cls-31" d="M257,238.47l-4.19,4.93q-4.43,5.23-10.45,11.48l-6,6c-2.49,2.18-4.21,3.76-5.17,4.76a10.41,10.41,0,0,0-2.64,4.07,4.09,4.09,0,0,0-.22,1.27.89.89,0,0,0,0,.46l0-.41a9.63,9.63,0,0,1,.52-1.2,10.57,10.57,0,0,1,3-3.39q.57-.45,2.58-1.89a25.54,25.54,0,0,0,3-2.3,78.28,78.28,0,0,0,6.37-5.91,76.56,76.56,0,0,0,9.82-12.28q1.55-2.4,2.41-4.07Z" transform="translate(-0.31)"/></g><g id="Duplicate_Items_Folder_Symbol_36_copy_2_1_Layer0_0_MEMBER_6_MEMBER_0_MEMBER_0_FILL" data-name="Duplicate Items Folder Symbol 36 copy 2 1 Layer0 0 MEMBER 6 MEMBER 0 MEMBER 0 FILL"><path class="cls-31" d="M339.26,262.28a60.18,60.18,0,0,0,5.62,4.19,10.79,10.79,0,0,1,3.1,3.39l.46,1.2.06.41a1.17,1.17,0,0,0,0-.46,4.12,4.12,0,0,0-.23-1.27,10.41,10.41,0,0,0-2.64-4.07q-3.33-3-5.17-4.76l-6-6q-6-6.25-10.45-11.48l-4.19-4.93.86,1.55c.39.73,1.21,2.08,2.47,4.07a75.2,75.2,0,0,0,9.76,12.28A78.28,78.28,0,0,0,339.26,262.28Z" transform="translate(-0.31)"/></g><g id="Duplicate_Items_Folder_Symbol_36_copy_2_1_Layer0_0_MEMBER_7_MEMBER_0_FILL" data-name="Duplicate Items Folder Symbol 36 copy 2 1 Layer0 0 MEMBER 7 MEMBER 0 FILL"><path class="cls-33" d="M349.14,270.22q-2.86-6.9-25.37-11.83-20.2-4.42-35.65-3.79Q273.48,254,252.3,259q-22.62,5.34-24.17,11.26t3.27,14.64a72.44,72.44,0,0,0,13.49,17q20.26,19.57,43.12,25.26A131.62,131.62,0,0,0,333.82,300Q353.85,281.64,349.14,270.22Z" transform="translate(-0.31)"/></g><g id="Duplicate_Items_Folder_Symbol_36_copy_2_1_Layer0_0_MEMBER_7_MEMBER_1_MEMBER_0_MEMBER_0_FILL" data-name="Duplicate Items Folder Symbol 36 copy 2 1 Layer0 0 MEMBER 7 MEMBER 1 MEMBER 0 MEMBER 0 FILL"><path class="cls-34" d="M288.79,284.14l-.8-7.35-.06,25.13q-.12,10.72,0,17.79l.06,7.34.63-7.34q.63-10,.63-17.79Q289.31,292.62,288.79,284.14Z" transform="translate(-0.31)"/></g><g id="Duplicate_Items_Folder_Symbol_36_copy_2_1_Layer0_0_MEMBER_7_MEMBER_2_FILL" data-name="Duplicate Items Folder Symbol 36 copy 2 1 Layer0 0 MEMBER 7 MEMBER 2 FILL"><path class="cls-35" d="M349.14,270.22q-2.86-6.9-25.37-11.83-20.2-4.42-35.65-3.79-16.65-.69-38.35,4.71-24.86,6.19-21.53,14.41,9-4.65,62.69-4.31,50.81.34,58.79,2.87A8.27,8.27,0,0,0,349.14,270.22Z" transform="translate(-0.31)"/></g><g id="Duplicate_Items_Folder_Symbol_36_copy_2_1_Layer0_0_MEMBER_7_MEMBER_3_FILL" data-name="Duplicate Items Folder Symbol 36 copy 2 1 Layer0 0 MEMBER 7 MEMBER 3 FILL"><path class="cls-27" d="M333.53,294.56a9.6,9.6,0,0,0,2.53-4.31c.61-2.56-.35-4.44-2.87-5.62a12.83,12.83,0,0,0-7.07-1q-4.53.51-8.61,4.82a20.43,20.43,0,0,0-4.88,8.73c-.88,3.06-.34,4.94,1.61,5.62a6.68,6.68,0,0,0,2.64.23A19.88,19.88,0,0,0,326,300.3,28.35,28.35,0,0,0,333.53,294.56Z" transform="translate(-0.31)"/></g><g id="Duplicate_Items_Folder_Symbol_36_copy_2_1_Layer0_0_MEMBER_7_MEMBER_4_FILL" data-name="Duplicate Items Folder Symbol 36 copy 2 1 Layer0 0 MEMBER 7 MEMBER 4 FILL"><path class="cls-27" d="M244.32,290.25a9.32,9.32,0,0,0,2.47,4.31,28.3,28.3,0,0,0,7.57,5.74,19.91,19.91,0,0,0,9.07,2.75,7.09,7.09,0,0,0,2.7-.23c1.88-.68,2.41-2.56,1.61-5.62a20.42,20.42,0,0,0-4.94-8.73q-4.07-4.31-8.61-4.82a12.79,12.79,0,0,0-7.06,1C244.64,285.81,243.71,287.69,244.32,290.25Z" transform="translate(-0.31)"/></g><g id="Duplicate_Items_Folder_Symbol_36_copy_2_1_Layer0_0_MEMBER_8_MEMBER_0_MEMBER_0_FILL" data-name="Duplicate Items Folder Symbol 36 copy 2 1 Layer0 0 MEMBER 8 MEMBER 0 MEMBER 0 FILL"><path class="cls-31" d="M264.49,398.8l1.72,1a12.29,12.29,0,0,0,2.12,1.09,20.19,20.19,0,0,0,2.87,1.21,32,32,0,0,0,3.62,1.2c1.07.27,2.5.58,4.3.92a41.84,41.84,0,0,0,10,.29A40,40,0,0,0,299,402.3a29,29,0,0,0,4-1.72c.46-.19,1.59-.79,3.38-1.78.42-.23,1.29-.8,2.59-1.72a9.8,9.8,0,0,0,1.83-1.5l1.55-1.31-4,1.66c-1.45.57-2.41.94-2.87,1.09a31.24,31.24,0,0,1-3.44,1c-.27.08-1.61.42-4,1a74.7,74.7,0,0,1-9.29,1.43,72.24,72.24,0,0,1-9.41.34c-1.88-.07-3.26-.17-4.14-.28a30.7,30.7,0,0,1-3.55-.4c-.42,0-1.44-.21-3-.52Z" transform="translate(-0.31)"/></g><g id="Duplicate_Items_Folder_Symbol_36_copy_2_1_Layer0_0_MEMBER_9_MEMBER_0_MEMBER_0_FILL" data-name="Duplicate Items Folder Symbol 36 copy 2 1 Layer0 0 MEMBER 9 MEMBER 0 MEMBER 0 FILL"><path class="cls-31" d="M352.23,345.66l5-3.79-5.34,3.33a125.49,125.49,0,0,0-13.25,10.85q-3.61,3.27-8.61,8l-7.35,6.72c-1.57,1.26-2.45,1.95-2.64,2.06a33.68,33.68,0,0,1-12.91,5.57,84.76,84.76,0,0,1-15.55,1.49,140.52,140.52,0,0,1-15.78-.34A61.76,61.76,0,0,1,261.56,377q-7.11-2.36-10.79-6.54l-1.66-1.84-.35-.11-.11-.11-5.62-6.6a74.52,74.52,0,0,0-6.72-7.12,45.23,45.23,0,0,0-5.79-4.65c-.5-.34-1.84-1.13-4-2.35L225,347l1.37.86a31.25,31.25,0,0,1,3.79,2.7,51.67,51.67,0,0,1,5.22,5,89.43,89.43,0,0,1,6.09,7.46l5.68,7.58.28.23.18.05,0,.06,1,1.32q4,4.93,11.76,7.92a56.3,56.3,0,0,0,15,3.21,121.7,121.7,0,0,0,16.24.52A81.21,81.21,0,0,0,308,382.16a36,36,0,0,0,14.06-6.6c.23-.15,1.17-1,2.81-2.41L340,357.48Q347.81,349.46,352.23,345.66Z" transform="translate(-0.31)"/></g><g id="Duplicate_Items_Folder_Symbol_36_copy_2_1_Layer0_0_MEMBER_10_MEMBER_0_MEMBER_0_FILL" data-name="Duplicate Items Folder Symbol 36 copy 2 1 Layer0 0 MEMBER 10 MEMBER 0 MEMBER 0 FILL"><path class="cls-31" d="M395.21,303.94a17.81,17.81,0,0,0-4.82-3,18.68,18.68,0,0,0-4.42-1.32,18.47,18.47,0,0,0-3.1-.28l-1.15.05,6.77,4.77q1.32,1,3.85,3.15l6.6,6.31,2.69,3.1-.11-1.14a15.62,15.62,0,0,0-.63-3.05,19.24,19.24,0,0,0-5.68-8.55Z" transform="translate(-0.31)"/></g><g id="Duplicate_Items_Folder_Symbol_36_copy_2_1_Layer0_0_MEMBER_11_MEMBER_0_MEMBER_0_FILL" data-name="Duplicate Items Folder Symbol 36 copy 2 1 Layer0 0 MEMBER 11 MEMBER 0 MEMBER 0 FILL"><path class="cls-31" d="M188.4,304.12l6.83-4.71-1.15-.06a12,12,0,0,0-3.1.23,17.77,17.77,0,0,0-4.48,1.32,18.5,18.5,0,0,0-8.49,7.41,19.69,19.69,0,0,0-1.95,4.18,13,13,0,0,0-.63,3.05l-.12,1.14.75-.86c.31-.42,1-1.16,1.95-2.24s2.09-2.18,2.93-3l3.67-3.33Q187.13,305.1,188.4,304.12Z" transform="translate(-0.31)"/></g><g id="Duplicate_Items_Folder_Symbol_36_copy_2_1_Layer0_0_MEMBER_12_MEMBER_0_MEMBER_0_FILL" data-name="Duplicate Items Folder Symbol 36 copy 2 1 Layer0 0 MEMBER 12 MEMBER 0 MEMBER 0 FILL"><path class="cls-31" d="M284.05,344.46l4-3-4.36,2.46-5.22,2.47a58.42,58.42,0,0,1-7.11,2.64A68.25,68.25,0,0,1,252,352a59,59,0,0,1-11.31-1.2q-1.32-.22-5.79-1.55c-1.27-.5-2.22-.86-2.87-1.09l-5.57-2.64L222.6,343l-3.5-2.75q-5.28-4.71-8.5-8-6.14-6.25-13.25-14.86c-2.95-3.71-4.55-5.72-4.82-6a35.85,35.85,0,0,0-4.31-4.14,11.93,11.93,0,0,0-3.27-1.77l-.91-.29-.35-.06.35.12.86.4a12.32,12.32,0,0,1,2.87,2.18,28.25,28.25,0,0,1,3.61,4.42l4.25,6.42a146.93,146.93,0,0,0,12.22,16.13,112.4,112.4,0,0,0,8.38,8.61l3.78,3.15,4.19,2.76,3,1.55a10.23,10.23,0,0,0,1.55.74l1.55.63,3.16,1.15a46.64,46.64,0,0,0,6.37,1.55,59.3,59.3,0,0,0,12.22.8,62.56,62.56,0,0,0,20-4.64A68.79,68.79,0,0,0,284.05,344.46Z" transform="translate(-0.31)"/></g><g id="Duplicate_Items_Folder_Symbol_34_0_Layer0_0_MEMBER_0_MEMBER_0_MEMBER_0_MEMBER_0_FILL" data-name="Duplicate Items Folder Symbol 34 0 Layer0 0 MEMBER 0 MEMBER 0 MEMBER 0 MEMBER 0 FILL"><path class="cls-36" d="M486.22,33.73A169.25,169.25,0,0,0,462.94,3.64q-20.91,36-31,50.88-19.33,28.41-40.42,47.83,6.73,3.65,19.16,20.49,7.24,9.81,24,33.17,15.51,20.27,28.12,30.13Q479.27,199,494.14,197.5,523.21,138.13,505.89,78A180.92,180.92,0,0,0,486.22,33.73Z" transform="translate(-0.31)"/></g><g id="Duplicate_Items_Folder_Symbol_34_0_Layer0_0_MEMBER_0_MEMBER_0_MEMBER_0_MEMBER_1_FILL" data-name="Duplicate Items Folder Symbol 34 0 Layer0 0 MEMBER 0 MEMBER 0 MEMBER 0 MEMBER 1 FILL"><path class="cls-37" d="M466.59,46.59q-6.34,23.35-13.33,36.09-9.39,17.1-27.3,31.58,10.07,6.6,19.45,21.48a113.43,113.43,0,0,1,14.88,35.57,34.36,34.36,0,0,0,2.44-8.87,157.31,157.31,0,0,1,4.28,16.2,81.29,81.29,0,0,0,6.65-21,92.81,92.81,0,0,1,3.9,24.13,127.72,127.72,0,0,0,11-41.15,163.48,163.48,0,0,0-.9-40.67,144.39,144.39,0,0,0-8.74-33.52Q473.19,52.12,466.59,46.59Z" transform="translate(-0.31)"/></g><g id="Duplicate_Items_Folder_Symbol_34_0_Layer0_0_MEMBER_1_MEMBER_0_MEMBER_0_MEMBER_0_FILL" data-name="Duplicate Items Folder Symbol 34 0 Layer0 0 MEMBER 1 MEMBER 0 MEMBER 0 MEMBER 0 FILL"><path class="cls-38" d="M460.67,7.93l2.27-4.29-9.08,15.48Q441.77,39.47,430.58,55.5a323.28,323.28,0,0,1-26.65,34c-.6.71-1.49,1.68-2.66,2.91l-2.4,2.57q-1,1.08-3.94,4l-3.43,3.39,3.55-3.22q3.22-3,4.12-3.9l2.48-2.48c1-1,1.93-1.92,2.79-2.83a264.91,264.91,0,0,0,27.26-33.6q11.15-16,22.76-36.86Q457.37,14.27,460.67,7.93Z" transform="translate(-0.31)"/></g><g id="Duplicate_Items_Folder_Symbol_33_copy_2_0_Layer0_0_MEMBER_0_MEMBER_0_MEMBER_0_MEMBER_0_FILL" data-name="Duplicate Items Folder Symbol 33 copy 2 0 Layer0 0 MEMBER 0 MEMBER 0 MEMBER 0 MEMBER 0 FILL"><path class="cls-39" d="M149.77,50.87q-10.2-15-31-50.87A169.22,169.22,0,0,0,95.51,30.09,178.15,178.15,0,0,0,75.84,74.32q-17.37,60.17,11.7,119.53,15.17,1.54,29.87-8.1,12-7.87,25.67-24.73,6.3-7.8,23.58-32.1,14.52-20.49,23.53-30.21Q169.06,79.29,149.77,50.87Z" transform="translate(-0.31)"/></g><g id="Duplicate_Items_Folder_Symbol_33_copy_2_0_Layer0_0_MEMBER_0_MEMBER_0_MEMBER_0_MEMBER_1_FILL" data-name="Duplicate Items Folder Symbol 33 copy 2 0 Layer0 0 MEMBER 0 MEMBER 0 MEMBER 0 MEMBER 1 FILL"><path class="cls-40" d="M128.42,79q-7-12.72-13.32-36.08-6.6,5.52-12.35,19.84A144.13,144.13,0,0,0,94,96.31a166.38,166.38,0,0,0-.9,40.67,127.59,127.59,0,0,0,11,41.14A93.62,93.62,0,0,1,108.07,154a79.76,79.76,0,0,0,6.64,21A146.23,146.23,0,0,1,119,158.79a35.34,35.34,0,0,0,2.4,8.88,114.28,114.28,0,0,1,14.87-35.58q9.42-14.86,19.5-21.47Q137.82,96.13,128.42,79Z" transform="translate(-0.31)"/></g><g id="Duplicate_Items_Folder_Symbol_33_copy_2_0_Layer0_0_MEMBER_1_MEMBER_0_MEMBER_0_MEMBER_0_FILL" data-name="Duplicate Items Folder Symbol 33 copy 2 0 Layer0 0 MEMBER 1 MEMBER 0 MEMBER 0 MEMBER 0 FILL"><path class="cls-38" d="M180.41,88.72c-1.17-1.23-2-2.2-2.65-2.92A330.48,330.48,0,0,1,151.1,51.86q-10.54-15.09-23.28-36.39L118.78,0,121,4.29q5.14,9.56,6.26,11.53A419.17,419.17,0,0,0,150,52.67a269,269,0,0,0,27.26,33.61q1.29,1.36,2.79,2.82l2.48,2.49c.6.6,2,1.9,4.12,3.9l3.56,3.22-3.39-3.39c-1.6-1.54-2.91-2.89-3.94-4Z" transform="translate(-0.31)"/></g><rect class="cls-41" x="40.6" y="441.46" width="474.91" height="242.72"/><rect class="cls-42" x="49.52" y="451.9" width="456" height="228.31"/><path class="cls-43" d="M505.83,451.9c0-.66-179.35.36-191.42,1.6l-13,1.33c61.13-.12,112.27,1.56,173.31,5,7.66.43,16.28,1.38,21,7.41,8.31,10.56,7.9,32.49,9,45.57,1.52,17.47,1.66,146.11.4,163.6C508.32,639,505.83,489.5,505.83,451.9Z" transform="translate(-0.31)"/><path class="cls-43" d="M49.83,679.67H352c29.2,0,107.86.4,136.86.4-59.19,0-167.59-6.6-226.77-8.19-52.86-1.42-164.87,3.68-184-21.06-12-15.5-11.48-39.61-13-64.62-1.39-23.64.34-48.76,2.78-72,4.28-40.57,24-50.81,41.52-54.91,15.61-3.66,61.71-6.59,84-7.25-7.36-.82-143.57-1.17-143.57.06Z" transform="translate(-0.31)"/><g class="cls-44"><path class="cls-45" d="M49.83,679.83V452.18a187.93,187.93,0,0,1,19.72-.27c-7.66.09-5.49.25-12.67,5.37-5,3.55-6.64,14.09-.56,17.4a7.69,7.69,0,0,0,4.77.46l3.44-.4a39,39,0,0,0-6.41,1.9,6,6,0,0,0-2.69,1.77A7.35,7.35,0,0,0,54,482.94c0,3.39.14,6.77.06,10.25q-.24,11.35-.41,22.72-.21,14-.31,28.07c0,5.23-.83,16.64,1.74,20.18a4,4,0,0,0,2.58,1.56,16.1,16.1,0,0,0,7.37,0,24.79,24.79,0,0,0-7.6,3.41A6.61,6.61,0,0,0,54.77,572c-1,2.17-1.12,5.35-1.18,8.27-.33,16.14-1,32-1.65,48.07-.39,9.2-.73,18.51-.58,27.74.12,7,2.42,8.55,5.58,9a71.7,71.7,0,0,0,14.92.63l-5.27.57a44.2,44.2,0,0,0-10.09,1.89,3,3,0,0,0-1.87,1.41c-2.5,4.34-.17,8.83,2.2,9.51l2.55.73C56.4,679,52.86,679.83,49.83,679.83Z" transform="translate(-0.31)"/></g><path class="cls-46" d="M26,427.86V704.37H532.3V427.86ZM508.88,683.34H46.74V448.89H508.88Z" transform="translate(-0.31)"/><g id="Layer0_4_MEMBER_3_MEMBER_0_MEMBER_0_FILL" data-name="Layer0 4 MEMBER 3 MEMBER 0 MEMBER 0 FILL"><path class="cls-47" d="M39.47,454.59l-.12,8.47q-.08,8.44-.08,22,0,12.33,0,22l.21,9.11.06-.64.14-8.47q.09-9.66.06-22L39.53,454Z" transform="translate(-0.31)"/></g><g id="Layer0_4_MEMBER_4_MEMBER_0_MEMBER_0_FILL" data-name="Layer0 4 MEMBER 4 MEMBER 0 MEMBER 0 FILL"><path class="cls-47" d="M30.43,513.22l-.2,17.93c0,2.36,0,73.2,0,78.52,0,7.82,0,58.84.06,65l.15,8.07c0,.41,0,.61.05.61l.18-8.68c.06-5.35.09-56.38.09-65l-.27-96.6Z" transform="translate(-0.31)"/></g><g id="Layer0_3_MEMBER_2_MEMBER_0_MEMBER_0_FILL" data-name="Layer0 3 MEMBER 2 MEMBER 0 MEMBER 0 FILL"><path class="cls-47" d="M517.25,441.89a10.69,10.69,0,0,0-.08-1.36,11.58,11.58,0,0,0-.09,1.36L517,449.6q-.07,9.31-.08,12.16l.14,15.87a5.62,5.62,0,0,0,.12,1.33,6.1,6.1,0,0,0,.11-1.33l.09-3.69q.06-3.13.06-12.18,0-2.85-.09-12.16Z" transform="translate(-0.31)"/></g><g id="Layer0_3_MEMBER_3_MEMBER_0_MEMBER_0_FILL" data-name="Layer0 3 MEMBER 3 MEMBER 0 MEMBER 0 FILL"><path class="cls-47" d="M517.92,490.45l-.17-9.11-.06.64-.15,8.47q-.07,16.89-.08,22c0,9,0,83.37.08,89l.21,9.11.06-.64.2-97.47Q518,498.89,517.92,490.45Z" transform="translate(-0.31)"/></g><g id="Layer0_3_MEMBER_4_MEMBER_0_MEMBER_0_FILL" data-name="Layer0 3 MEMBER 4 MEMBER 0 MEMBER 0 FILL"><path class="cls-47" d="M528.18,510l0-.14-.26,96.6c0,8.6,0,59.63.09,65,0,2.73,0,4.84.08,6.35l.09,2.32s.06-.2.06-.61l.14-8.06c0-3.58.06-54.61.06-65Z" transform="translate(-0.31)"/></g><g id="Layer0_2_MEMBER_5_FILL" data-name="Layer0 2 MEMBER 5 FILL"><path class="cls-48" d="M532.06,694.32v-2.17l-61.77,1.07Z" transform="translate(-0.31)"/></g><g id="Layer0_2_MEMBER_2_FILL" data-name="Layer0 2 MEMBER 2 FILL"><path class="cls-48" d="M26.12,694.09v1.42l218.31-.93Z" transform="translate(-0.31)"/></g><g id="Layer0_2_MEMBER_3_MEMBER_0_MEMBER_0_FILL" data-name="Layer0 2 MEMBER 3 MEMBER 0 MEMBER 0 FILL"><path class="cls-49" d="M267.48,704.37l-1-10.8-1.21,10.8" transform="translate(-0.31)"/></g><g id="Layer0_2_MEMBER_4_MEMBER_0_MEMBER_0_FILL" data-name="Layer0 2 MEMBER 4 MEMBER 0 MEMBER 0 FILL"><path class="cls-47" d="M435.39,699.55l-5.89-.12q-6-.12-17.17-.17-17.5-.12-56.67.2l-74.25.41,17.58.26q9.63.07,25.48,0l31.19-.21q40-.32,56.67-.35h23.38c.06,0,.09,0,.09,0h-.09Z" transform="translate(-0.31)"/></g><g class="cls-50"><g id="Layer0_1_MEMBER_5_FILL" data-name="Layer0 1 MEMBER 5 FILL"><path class="cls-49" d="M26,430.07v1.39l188.71-.92Z" transform="translate(-0.31)"/></g></g><g class="cls-50"><g id="Layer0_1_MEMBER_5_FILL-2" data-name="Layer0 1 MEMBER 5 FILL"><path class="cls-49" d="M26,480.58v2.18l11.84-.86Z" transform="translate(-0.31)"/></g></g><g id="Layer0_4_MEMBER_1_FILL" data-name="Layer0 4 MEMBER 1 FILL"><path class="cls-49" d="M46.79,664.29,49,662.84l-2.24-.93-8.93.93Z" transform="translate(-0.31)"/></g><g id="Layer0_4_MEMBER_1_FILL-2" data-name="Layer0 4 MEMBER 1 FILL"><polygon class="cls-51" points="46.49 661.91 46.49 664.28 48.72 662.84 46.49 661.91"/></g><g id="Layer0_1_MEMBER_6_MEMBER_0_MEMBER_0_FILL" data-name="Layer0 1 MEMBER 6 MEMBER 0 MEMBER 0 FILL"><path class="cls-47" d="M327.34,445.28s0,0-.11,0l-7.08-.2c-5.88-.15-12.18-.25-19.65-.35q-21.27-.22-29.1-.2-5.59.06-8.42.14t-8.79.15q-12,.06-18.45,0l-35.69-.38q-8.79-.15-29.13.15l-26.84.11,7.19.21q9,.1,19.65,0l13.58-.12q8.58,0,15.55.12l17.2.31q7.94.12,18.49.12,6.44,0,18.45,0,5.9-.06,8.79-.14l8.42-.18q9.51-.06,29.1.09Z" transform="translate(-0.31)"/></g><g id="Layer0_1_MEMBER_7_MEMBER_0_MEMBER_0_FILL" data-name="Layer0 1 MEMBER 7 MEMBER 0 MEMBER 0 FILL"><path class="cls-47" d="M446.85,431.74l-.11,0-23.19,0q-16.68,0-56.17-.26l-31-.11c-11.8-.05-20,0-25.25,0l-19,.29,1.94,0q8.69-.06,17,0l56.18.29q38.36.25,56.2.14l23.19-.38Z" transform="translate(-0.31)"/></g><g id="Layer0_1_MEMBER_8_FILL" data-name="Layer0 1 MEMBER 8 FILL"><path class="cls-48" d="M532.32,435.71v-2.17l-61.24,1.22Z" transform="translate(-0.31)"/></g><g id="Layer0_1_MEMBER_3_MEMBER_0_FILL" data-name="Layer0 1 MEMBER 3 MEMBER 0 FILL"><path class="cls-49" d="M447.29,448.89l1.1,2.05,1.1-2-.92-8.11Z" transform="translate(-0.31)"/></g><g id="Layer0_1_MEMBER_4_FILL" data-name="Layer0 1 MEMBER 4 FILL"><path class="cls-49" d="M231,427.88h-2.53l1.26,6.9Z" transform="translate(-0.31)"/></g><g class="cls-50"><g id="Layer0_1_MEMBER_5_FILL-3" data-name="Layer0 1 MEMBER 5 FILL"><path class="cls-49" d="M297.24,704.37h2.18" transform="translate(-0.31)"/></g></g><text class="cls-52" transform="translate(90.1 504.57) scale(0.99 1)">Hello! I am Wolfe<tspan x="47.69" y="45.6">I am creative</tspan><tspan x="75.56" y="91.2">I am smart</tspan><tspan x="75.49" y="136.8">I am joyful</tspan></text><path class="cls-53" d="M35.9,548.19a15.19,15.19,0,0,1-11.15,3.61c-4.14-.33-8.08-1.94-11.9-3.69-7.68-3.5-14.2-4.41-11.26-15.19A21,21,0,0,1,16.7,517.69a74.6,74.6,0,0,1,9.39-1.56s-.2,11.74-.2,11.74L22.36,526a26.84,26.84,0,0,1,8.73,6.37c2.42,2.5,5.44,5.18,6.57,8.56C38.66,543.89,38.16,546,35.9,548.19Z" transform="translate(-0.31)"/><path class="cls-54" d="M16.48,573c5,.16,9.66-1.82,14-4.3,3.19-1.82,8.63-5,7-9.59-1.51-4.25-7.41-4.61-11-6.21L8,544.76C4.71,546.7,2.67,550.82,1.93,555-.15,566.67,4.56,572.63,16.48,573Z" transform="translate(-0.31)"/><path class="cls-55" d="M26.22,516.13H25.13c-.72,0-1.78,0-3.14.21a30,30,0,0,0-11,3.49A21.73,21.73,0,0,0,4.67,525a20.76,20.76,0,0,0-2.53,3.82,16.94,16.94,0,0,0-1.49,4.69,13.48,13.48,0,0,0,.3,5.23,13.87,13.87,0,0,0,2.63,4.82,26,26,0,0,0,9.25,6.24,38.51,38.51,0,0,0,10.68,2.83,17.36,17.36,0,0,0,10.26-1.9,10.66,10.66,0,0,0,3.79-3.29,7,7,0,0,0,1.2-4.65,8.76,8.76,0,0,0-1.65-4.06,26.39,26.39,0,0,0-2.48-3c-.84-.89-1.6-1.73-2.35-2.55s-1.49-1.55-2.2-2.21a27.47,27.47,0,0,0-3.94-3.06,19.64,19.64,0,0,0-2.77-1.49c-.66-.28-1-.41-1-.41s.34.15,1,.49A20,20,0,0,1,26,528.1a29,29,0,0,1,3.68,3.25c1.36,1.35,2.68,3.1,4.27,4.95a25.38,25.38,0,0,1,2.25,3,7.69,7.69,0,0,1,1.3,3.56,5.64,5.64,0,0,1-1.12,3.72,9,9,0,0,1-3.33,2.7,16,16,0,0,1-9.31,1.52A38.84,38.84,0,0,1,13.56,548a25.17,25.17,0,0,1-8.63-5.69,12.3,12.3,0,0,1-2.34-4.12,11.85,11.85,0,0,1-.36-4.54,15.49,15.49,0,0,1,1.22-4.28,20,20,0,0,1,2.22-3.63,21.19,21.19,0,0,1,5.77-5.12,30.39,30.39,0,0,1,10.6-4c1.33-.26,2.38-.35,3.09-.43Z" transform="translate(-0.31)"/><path class="cls-56" d="M11,573.26c-3.81,7.13-1.84,11.52,5,14.67,3.81,1.77,8.28,1.11,12.16-.82a21.92,21.92,0,0,0,7-5,11.73,11.73,0,0,0,3-5.6c.85-4.51-5.11-6.83-8.42-7.63Z" transform="translate(-0.31)"/><path class="cls-55" d="M11,573.26s-.1.18-.3.51a15.34,15.34,0,0,0-.8,1.51,9.36,9.36,0,0,0-.48,1.13,10.82,10.82,0,0,0-.45,1.42,8.42,8.42,0,0,0-.12,3.68,8,8,0,0,0,2.2,4,16,16,0,0,0,4.19,3,11.94,11.94,0,0,0,5.6,1.4,16,16,0,0,0,6.05-1.18,27.19,27.19,0,0,0,5.3-2.9,19.22,19.22,0,0,0,4.16-3.86,10.44,10.44,0,0,0,2.19-4.76,5.84,5.84,0,0,0-.15-2.47,6,6,0,0,0-1.06-2,9.16,9.16,0,0,0-2.89-2.28,14.58,14.58,0,0,0-2.52-1c-.71-.22-1.27-.34-1.65-.42l-.58-.11.56.19c.36.13.9.32,1.57.62A14.83,14.83,0,0,1,34.08,571a8.87,8.87,0,0,1,2.44,2.32,5.08,5.08,0,0,1,.74,1.7,4.85,4.85,0,0,1,0,2,9.49,9.49,0,0,1-2.16,4,24.6,24.6,0,0,1-8.92,6c-3.54,1.41-7.34,1.55-10.27.1a15.78,15.78,0,0,1-4-2.46,7.31,7.31,0,0,1-2.18-3.28,10,10,0,0,1,.41-5.9c.23-.7.45-1.22.6-1.58Z" transform="translate(-0.31)"/><path class="cls-55" d="M7.94,544.6l-.68.48a13.47,13.47,0,0,0-1.85,1.56A18.27,18.27,0,0,0,1,554.38a18.07,18.07,0,0,0-.69,6.21,15,15,0,0,0,2.13,7c.35.55.77,1.07,1.17,1.61a11.22,11.22,0,0,0,1.49,1.43,13.47,13.47,0,0,0,3.67,2A24.82,24.82,0,0,0,17.29,574a27.8,27.8,0,0,0,15.51-5,26.9,26.9,0,0,0,2.89-2.32A15.67,15.67,0,0,0,38.05,564a6.81,6.81,0,0,0,.77-1.61,6.11,6.11,0,0,0,.2-1.75,4.87,4.87,0,0,0-1.44-2.88,13,13,0,0,0-4.41-2.67c-1.39-.56-2.62-.92-3.62-1.22l-2.31-.66-.8-.25.77.32,2.25.87c1,.38,2.15.84,3.47,1.48a12.8,12.8,0,0,1,4,2.77,3.8,3.8,0,0,1,1,2.3,4.57,4.57,0,0,1-.23,1.31,5.39,5.39,0,0,1-.68,1.27,15.26,15.26,0,0,1-2.26,2.3,27.82,27.82,0,0,1-17.45,6.54A24.68,24.68,0,0,1,9.43,571a10.72,10.72,0,0,1-5.62-4.26,14,14,0,0,1-2.18-6.21A17.65,17.65,0,0,1,2,554.61a18.47,18.47,0,0,1,3.68-7.78,14.47,14.47,0,0,1,1.68-1.68Z" transform="translate(-0.31)"/><path class="cls-57" d="M522.4,548.19a15.2,15.2,0,0,0,11.15,3.61c4.14-.33,8.08-1.94,11.9-3.69,7.68-3.5,14.2-4.41,11.26-15.19a21,21,0,0,0-15.11-15.23,74.6,74.6,0,0,0-9.39-1.56s.2,11.74.2,11.74l3.53-1.91a26.7,26.7,0,0,0-8.72,6.37c-2.43,2.5-5.45,5.18-6.57,8.56C519.64,543.89,520.14,546,522.4,548.19Z" transform="translate(-0.31)"/><path class="cls-58" d="M541.82,573c-5,.16-9.66-1.82-14-4.3-3.18-1.82-8.63-5-7-9.59,1.51-4.25,7.42-4.61,11-6.21l18.46-8.17c3.27,1.94,5.31,6.06,6,10.22C558.45,566.67,553.75,572.63,541.82,573Z" transform="translate(-0.31)"/><path class="cls-55" d="M532.08,516.13l1.09.08c.71.08,1.77.17,3.1.42a30.79,30.79,0,0,1,10.6,4,21.15,21.15,0,0,1,5.76,5.12,19,19,0,0,1,2.22,3.63,15.15,15.15,0,0,1,1.22,4.28,11.85,11.85,0,0,1-.36,4.54,12.3,12.3,0,0,1-2.34,4.12,25.17,25.17,0,0,1-8.63,5.69,38.84,38.84,0,0,1-10.16,2.77,16,16,0,0,1-9.31-1.52,9,9,0,0,1-3.33-2.7,5.64,5.64,0,0,1-1.12-3.72,7.8,7.8,0,0,1,1.3-3.56,26.53,26.53,0,0,1,2.25-3c1.59-1.85,2.91-3.6,4.27-4.95a29,29,0,0,1,3.68-3.25,21.44,21.44,0,0,1,2.64-1.66c.64-.33,1-.48,1-.48s-.35.12-1,.41a19.15,19.15,0,0,0-2.77,1.49,28,28,0,0,0-3.94,3.06c-.71.66-1.45,1.4-2.2,2.21s-1.51,1.66-2.35,2.55a25.54,25.54,0,0,0-2.48,3,8.76,8.76,0,0,0-1.65,4.06,7,7,0,0,0,1.21,4.65,10.45,10.45,0,0,0,3.78,3.29,17.36,17.36,0,0,0,10.26,1.9,38.67,38.67,0,0,0,10.69-2.83,26.18,26.18,0,0,0,9.25-6.24,13.84,13.84,0,0,0,2.62-4.82,13.48,13.48,0,0,0,.3-5.23,16.94,16.94,0,0,0-1.49-4.69,20.26,20.26,0,0,0-2.53-3.82,21.6,21.6,0,0,0-6.29-5.12,30,30,0,0,0-11-3.49c-1.36-.16-2.42-.18-3.13-.21Z" transform="translate(-0.31)"/><path class="cls-59" d="M547.35,573.26c3.81,7.13,1.84,11.52-5,14.67-3.81,1.77-8.28,1.11-12.16-.82a22,22,0,0,1-7-5,11.73,11.73,0,0,1-3-5.6c-.85-4.51,5.11-6.83,8.42-7.63Z" transform="translate(-0.31)"/><path class="cls-55" d="M547.35,573.26l.23.55a16.44,16.44,0,0,1,.6,1.57,10,10,0,0,1,.41,5.91,7.31,7.31,0,0,1-2.18,3.28,15.78,15.78,0,0,1-4,2.46c-2.93,1.45-6.73,1.31-10.27-.1a24.69,24.69,0,0,1-8.92-6,9.47,9.47,0,0,1-2.15-4,4.86,4.86,0,0,1,0-2,5.29,5.29,0,0,1,.74-1.7,8.73,8.73,0,0,1,2.44-2.32,14.83,14.83,0,0,1,2.31-1.26c.67-.3,1.21-.49,1.57-.62l.56-.19-.58.11c-.38.08-.94.2-1.65.42a14.21,14.21,0,0,0-2.51,1,9.05,9.05,0,0,0-2.89,2.28,5.83,5.83,0,0,0-1.07,2,6,6,0,0,0-.15,2.47,10.44,10.44,0,0,0,2.19,4.76,19.22,19.22,0,0,0,4.16,3.86,27.48,27.48,0,0,0,5.3,2.9,16,16,0,0,0,6,1.18,12,12,0,0,0,5.61-1.4,16.14,16.14,0,0,0,4.19-3,8.09,8.09,0,0,0,2.19-4,8.46,8.46,0,0,0-.12-3.69,10.86,10.86,0,0,0-.44-1.42,11.46,11.46,0,0,0-.49-1.14,16.17,16.17,0,0,0-.8-1.5Z" transform="translate(-0.31)"/><path class="cls-55" d="M550.36,544.6l.64.54a17.69,17.69,0,0,1,1.68,1.69,18.6,18.6,0,0,1,3.67,7.78,17.64,17.64,0,0,1,.33,5.87,14,14,0,0,1-2.19,6.21,10.74,10.74,0,0,1-5.61,4.26,24.79,24.79,0,0,1-7.86,1.14,27.82,27.82,0,0,1-14.64-4.46,28.79,28.79,0,0,1-2.81-2.08,14.71,14.71,0,0,1-2.25-2.3,5.09,5.09,0,0,1-.69-1.27,4.57,4.57,0,0,1-.23-1.31,3.8,3.8,0,0,1,1-2.3,12.91,12.91,0,0,1,4-2.77c1.32-.64,2.51-1.11,3.48-1.49l2.24-.86.77-.32-.8.25-2.31.66a36.77,36.77,0,0,0-3.62,1.22,13,13,0,0,0-4.41,2.67,4.87,4.87,0,0,0-1.44,2.88,5.79,5.79,0,0,0,.21,1.75,6.41,6.41,0,0,0,.76,1.61,15.67,15.67,0,0,0,2.36,2.66A26.9,26.9,0,0,0,525.5,569,27.84,27.84,0,0,0,541,574a24.76,24.76,0,0,0,8.47-1.33,13.47,13.47,0,0,0,3.67-2,11.22,11.22,0,0,0,1.49-1.43c.4-.54.82-1.06,1.17-1.61a15,15,0,0,0,2.14-7,18.87,18.87,0,0,0-5.07-14,14.14,14.14,0,0,0-1.84-1.56Z" transform="translate(-0.31)"/></g></g></svg>