<svg xmlns="http://www.w3.org/2000/svg" xmlns:xlink="http://www.w3.org/1999/xlink" viewBox="0 0 844.37 962.29"><defs><style>.cls-1{fill:#fff;}.cls-2{fill:#9da7bd;}.cls-3{fill:#f7f7f7;}.cls-4{fill:#bcbcbc;}.cls-5{fill:#e2e2e2;}.cls-6{fill:#646c7c;}.cls-7{fill:#4c5f7f;}.cls-11,.cls-14,.cls-19,.cls-8{fill:none;}.cls-11,.cls-8{stroke:#2f4563;}.cls-8{stroke-miterlimit:16.77;stroke-width:0.66px;}.cls-9{fill:#8a99b0;}.cls-10{fill:#2f4563;}.cls-11{stroke-miterlimit:16.77;stroke-width:0.66px;}.cls-12{fill:url(#radial-gradient);}.cls-13{fill:url(#radial-gradient-2);}.cls-14{stroke:#bcbcbc;stroke-linecap:round;stroke-linejoin:round;stroke-width:0.99px;}.cls-15{fill:#282924;}.cls-16{fill:#4c4d4f;}.cls-17{fill:#3f516f;}.cls-18{fill:#e5e5e5;}.cls-19{stroke:#646c7c;stroke-miterlimit:15.09;stroke-width:1.49px;}.cls-20{mask:url(#mask);}.cls-21{fill:#8090c4;}.cls-22{fill:#010101;}.cls-23{mask:url(#mask-2);}.cls-24{fill:url(#linear-gradient);}.cls-25{fill:#090e30;}.cls-26{fill:#626c7f;}.cls-27{fill:#774b2c;}.cls-28{fill:#fcf4dd;}.cls-29{font-size:40.62px;fill:#005d52;font-family:Adventuring;}.cls-30{fill:#f1e8d1;}.cls-31{opacity:0.5;}.cls-32{fill:#9d947f;}.cls-33{fill:#c78e62;}.cls-34{fill:#795741;}.cls-35{fill:#663f26;}.cls-36{fill:#442917;}.cls-37{isolation:isolate;}.cls-38{fill:#30190c;}</style><radialGradient id="radial-gradient" cx="-825.6" cy="746.84" r="434.84" gradientTransform="translate(896.44 -454) scale(0.88)" gradientUnits="userSpaceOnUse"><stop offset="0.09" stop-color="#d2def3"/><stop offset="0.27" stop-color="#c8d4e8"/><stop offset="0.59" stop-color="#afb9cd"/><stop offset="0.76" stop-color="#9fa7bb"/></radialGradient><radialGradient id="radial-gradient-2" cx="4184.82" cy="746.84" r="434.84" gradientTransform="matrix(-0.88, 0, 0, 0.88, 4374.65, -454.59)" xlink:href="#radial-gradient"/><mask id="mask" x="255.85" y="171.92" width="97.96" height="94.2" maskUnits="userSpaceOnUse"><g id="Mask_Mask_1" data-name="Mask Mask 1"><g id="Mask_Duplicate_Items_Folder_vv_copy_9_271_8_MASK_0_FILL" data-name="Mask Duplicate Items Folder vv copy 9 271 8 MASK 0 FILL"><path class="cls-1" d="M335.19,185.85A48.72,48.72,0,0,0,302.33,172a47.16,47.16,0,0,0-31.7,10.32q-14.19,14.34-14.75,33.18-.74,22.11,18,37.28a59.27,59.27,0,0,0,27.18,12.43,55.06,55.06,0,0,0,29.28-2.42q15-5.37,20.33-16.85,3.88-8.12,2.95-19.91a63.79,63.79,0,0,0-5.69-22.12A57.71,57.71,0,0,0,335.19,185.85Z"/></g></g></mask><mask id="mask-2" x="474.57" y="171.92" width="97.96" height="94.2" maskUnits="userSpaceOnUse"><g id="Mask_Mask_2" data-name="Mask Mask 2"><g id="Mask_Duplicate_Items_Folder_vv_copy_9_271_3_MASK_0_FILL" data-name="Mask Duplicate Items Folder vv copy 9 271 3 MASK 0 FILL"><path class="cls-1" d="M493.19,185.85A48.77,48.77,0,0,1,526.05,172a47.27,47.27,0,0,1,31.7,10.32q14.19,14.35,14.75,33.18.74,22.13-18,37.29a59.52,59.52,0,0,1-27.18,12.43A55.06,55.06,0,0,1,498,262.74q-15-5.37-20.33-16.85-3.9-8.12-2.95-19.91a63.46,63.46,0,0,1,5.69-22.11A57.64,57.64,0,0,1,493.19,185.85Z"/></g></g></mask><linearGradient id="linear-gradient" x1="3953.89" y1="4577.73" x2="4119.83" y2="4582.18" gradientTransform="matrix(-1.22, -0.02, 0.02, -1.32, 5269.09, 6171.54)" gradientUnits="userSpaceOnUse"><stop offset="0.09" stop-color="#071132"/><stop offset="0.24" stop-color="#0c173b"/><stop offset="0.49" stop-color="#192853"/><stop offset="0.82" stop-color="#2d437b"/><stop offset="0.9" stop-color="#334b87"/></linearGradient></defs><title>Asset 55</title><g id="Layer_2" data-name="Layer 2"><g id="Layer_2-2" data-name="Layer 2"><g id="Duplicate_Items_Folder_Symbol_2_copy_14_0_Layer0_0_FILL" data-name="Duplicate Items Folder Symbol 2 copy 14 0 Layer0 0 FILL"><path class="cls-2" d="M592.62,389.56l-21.8-5.22q-15.26,77,25.45,163.35c6,12.61,28.82,63.39,36.58,76.4,9.79,15.29,26.36,25.69,43.83,29.87,9.16,2.2,17.15,1.24,26.27,1.08,10.49-.2,18.62,2,28.61-3.31a38.43,38.43,0,0,0,18.57-23A56.53,56.53,0,0,0,752,613.63c.13-16.47-3.37-32.4-8.78-47.87-14.69-42.07-34.25-78.68-63.79-112.3C658,429.08,625.48,397.43,592.62,389.56Z"/></g><g id="Duplicate_Items_Folder_Symbol_2_copy_14_0_Layer0_1_MEMBER_0_MEMBER_0_FILL" data-name="Duplicate Items Folder Symbol 2 copy 14 0 Layer0 1 MEMBER 0 MEMBER 0 FILL"><path class="cls-3" d="M573.39,376.86a41.71,41.71,0,0,0-9.52,3.3q-3.58,5.14-6.48,9.51-3.21,4.86-5.76,9a120.73,120.73,0,0,0-7.16,13,85,85,0,0,0-5.92,19.22q-1.32,6.64-2.66,19.47l-1,9.4a108.64,108.64,0,0,0-.74,11.75q0,.39.06.87,2.82,5.91,6.19,12.06,17.64,32.31,38.8,53.26a262.67,262.67,0,0,0,33.44-11.21,300.43,300.43,0,0,0,34.62-16.61q37.78-21.33,51.33-43.19a267.53,267.53,0,0,0-71.13-64.41A253.3,253.3,0,0,0,573.39,376.86Z"/></g><g id="Duplicate_Items_Folder_Symbol_2_copy_14_0_Layer0_1_MEMBER_1_MEMBER_0_MEMBER_0_STROKES_1_FILL" data-name="Duplicate Items Folder Symbol 2 copy 14 0 Layer0 1 MEMBER 1 MEMBER 0 MEMBER 0 STROKES 1 FILL"><path class="cls-4" d="M662.1,429.26,679.56,446l9.26,10.07.17.24,8.72,10.42a11.93,11.93,0,0,1-.85,1.4L693.27,473l-.36.41-.14.2-6.49,7.11-11.09,10-.84.65-.18.17-13,9.48q-1.2.83-3.69,2.43l-5.19,3.21-13.64,7.54-11.68,5.61-13,5.51L598.49,531l-19.06,6c-2-2.51-3.89-4.93-5.62-7.23q-3-3.93-5.52-7.73-2.43-3.46-5.3-7.89l-5-8q-2.46-4-4.7-8.18-2.4-4.44-4.29-8.32l-1.94-4.24c-.83-1.91-1.42-3.34-1.78-4.31l-1.44-3.8-2.72-9.47c-.36-1.68-.64-3.21-.83-4.57s-.33-2.89-.42-4.65l0-.88,0-.3.12-5.58.89-7.43a91.79,91.79,0,0,1,2.06-9.48q1.19-4.51,2.92-9.45l2.88-7.61.08-.29,2.7-6.08q1.14-2.48,2.22-4.6l5.19-9c.05,0,0-.07,0-.1s-.07,0-.12,0l-4.7,7.86-7.24,15.63-1.43,3.82-.09.29q-1.65,4.54-3,9.48a87.44,87.44,0,0,0-2.14,9.52l-1,7.45-.13,6.84c.09,1.59.22,3.15.39,4.7.14,1,.4,2.57.8,4.61l1.13,4.54q.63,2.28,1.38,4.5L547,487.85l5.21,10.54q2.12,3.93,4.66,8.21l5,8q2.37,3.75,5.25,7.92,2.4,3.6,5.54,7.8,2.93,4,5.89,7.59a.67.67,0,0,0,.72.19l7.13-2.13.25,0,13.84-4.5,9.14-3.32c1-.33,2.36-.88,4.25-1.63l16.19-6.92,8.93-4.32,16.38-9.2,6.58-4.21q2.43-1.67,3.68-2.49l2.23-1.59.23-.18.23-.15,10.29-8.1,11.59-11.11,3.56-4,0-.07.07,0,.46-.61c1-1.14,1.8-2.23,2.52-3.26l1.19-1.71a19.47,19.47,0,0,0,1-1.74.44.44,0,0,0,0-.5l-9.18-10.87-.16-.23-11.83-12.59L657.49,424,643.64,413.2,628.4,402.88q-4.17-2.62-8.46-5.16l-17.72-9.47q-4.22-2-9.31-4.27l-7.74-3.17-.18,0-.14-.07-11.44-3.93a.15.15,0,0,0-.12,0c0,.05,0,.08,0,.1l11.38,4,.08,0,0,0v0l.17,0,16.9,7.58q4.5,2.28,8.89,4.66l3.45,1.89.1.08,5.13,3q5.12,3.07,8.39,5.2l18,12.56Z"/></g><g id="Duplicate_Items_Folder_Symbol_2_copy_14_0_Layer0_0_FILL-2" data-name="Duplicate Items Folder Symbol 2 copy 14 0 Layer0 0 FILL"><path class="cls-2" d="M127.36,453.46c-29.54,33.62-49.1,70.23-63.79,112.3C59.08,578.6,55,592,56,605.54a54.74,54.74,0,0,0,19.76,37.84c29.75,24.25,78.57,11.27,98.13-19.29,7.76-13,30.58-63.79,36.58-76.4q40.71-86.39,25.45-163.35l-21.8,5.22C181.26,397.43,148.78,429.08,127.36,453.46Z"/></g><g id="Duplicate_Items_Folder_Symbol_2_copy_14_0_Layer0_1_MEMBER_0_MEMBER_0_FILL-2" data-name="Duplicate Items Folder Symbol 2 copy 14 0 Layer0 1 MEMBER 0 MEMBER 0 FILL"><path class="cls-3" d="M179.33,402.25a267.42,267.42,0,0,0-71.14,64.41q13.55,21.85,51.34,43.19a299.49,299.49,0,0,0,34.61,16.61,262.67,262.67,0,0,0,33.44,11.21q21.15-21,38.8-53.26,3.38-6.14,6.2-12.06c0-.32,0-.61.05-.87a108.64,108.64,0,0,0-.74-11.75l-1-9.4q-1.34-12.82-2.66-19.47a85,85,0,0,0-5.92-19.22,120.73,120.73,0,0,0-7.16-13q-2.55-4.1-5.75-9-2.91-4.37-6.49-9.51a41.55,41.55,0,0,0-9.52-3.3A253,253,0,0,0,179.33,402.25Z"/></g><g id="Duplicate_Items_Folder_Symbol_2_copy_14_0_Layer0_1_MEMBER_1_MEMBER_0_MEMBER_0_STROKES_1_FILL-2" data-name="Duplicate Items Folder Symbol 2 copy 14 0 Layer0 1 MEMBER 1 MEMBER 0 MEMBER 0 STROKES 1 FILL"><path class="cls-4" d="M160.88,416l18-12.56q3.27-2.13,8.38-5.2l5.13-3,.1-.08,3.45-1.89q4.38-2.39,8.89-4.66l16.9-7.58.17,0v0l0,0,.09,0,11.37-4s0-.05,0-.1a.15.15,0,0,0-.12,0l-11.44,3.93-.14.07-.18,0L213.83,384q-5.1,2.24-9.31,4.27l-17.72,9.47q-4.29,2.53-8.46,5.16L163.1,413.2,149.25,424l-20.39,18.64L117,455.18l-.17.23-9.18,10.87a.46.46,0,0,0,0,.5,17.25,17.25,0,0,0,1,1.74l1.18,1.71c.72,1,1.56,2.12,2.52,3.26l.46.61.07,0,0,.07,3.56,4,11.59,11.11,10.29,8.1.23.15.23.18,2.24,1.59c.82.55,2.05,1.38,3.67,2.49l6.58,4.21,16.38,9.2,8.93,4.32,16.19,6.92c1.89.75,3.3,1.3,4.25,1.63l9.14,3.32,13.84,4.5.25,0,7.13,2.13a.67.67,0,0,0,.72-.19q3-3.63,5.89-7.59,3.13-4.2,5.54-7.8,2.88-4.17,5.25-7.92l5-8q2.55-4.28,4.66-8.21l5.21-10.54L264,477q.75-2.22,1.38-4.5l1.13-4.54c.4-2,.66-3.58.8-4.61.17-1.55.3-3.11.39-4.7l-.13-6.84-1-7.45a87.44,87.44,0,0,0-2.14-9.52q-1.38-4.93-3-9.48l-.09-.29-1.43-3.82-7.24-15.63L248,397.75c-.06,0-.1,0-.13,0s-.07.06,0,.1l5.19,9q1.08,2.13,2.22,4.6l2.7,6.08.08.29,2.88,7.61q1.72,4.93,2.92,9.45a91.79,91.79,0,0,1,2.06,9.48l.89,7.43.12,5.58-.05.3,0,.88q-.13,2.64-.42,4.65c-.19,1.36-.47,2.89-.83,4.57l-2.72,9.47-1.44,3.8c-.36,1-.95,2.4-1.78,4.31l-1.94,4.24q-1.89,3.87-4.29,8.32-2.23,4.19-4.7,8.18l-5,8q-2.88,4.42-5.3,7.89-2.55,3.79-5.52,7.73c-1.73,2.3-3.6,4.72-5.62,7.23l-19.06-6-15.46-5.69-13-5.51-11.68-5.61-13.64-7.54-5.19-3.21q-2.49-1.6-3.69-2.43l-13-9.48-.18-.17-.84-.65-11.09-10L114,473.58l-.14-.2-.36-.41-3.59-4.84a13.47,13.47,0,0,1-.85-1.4l8.72-10.42.17-.24L127.18,446l17.46-16.74Z"/></g><g id="Duplicate_Items_Folder_Symbol_3_copy_8_0_Layer0_0_MEMBER_0_MEMBER_0_MEMBER_0_FILL" data-name="Duplicate Items Folder Symbol 3 copy 8 0 Layer0 0 MEMBER 0 MEMBER 0 MEMBER 0 FILL"><path class="cls-2" d="M386.5,807.6q.33-16.27-18.93-28.14Q349,768,322.24,766.26q-28.65-1.83-52.56,9-27.31,12.21-40.43,38l-1.58,108.59a48.56,48.56,0,0,0-15.86,11.21,73.83,73.83,0,0,0-12.45,18.6q5.23,1.32,11.13,2.32l.41-.74a27,27,0,0,1,9.38-10.71q6.22-4.08,12.62-2.49a19.76,19.76,0,0,1,10.21,6.06q4.65,5.22,5.32,13.78l6.39.58a24,24,0,0,1,8.72-13.28,21,21,0,0,1,14.36-4.41,22.23,22.23,0,0,1,14.2,5.73,25.43,25.43,0,0,1,7.72,13.79l6.56-.09a25.63,25.63,0,0,1,1.24-5,24.67,24.67,0,0,1,2-4.57q6.3-10.71,19.09-8.21,13,2.57,16.69,16.77,13.29-1,16.11-1.42a71.37,71.37,0,0,0,15.27-3.48q-1.74-22.75-1.49-52.72Q376,843.64,386.5,807.6Z"/></g><g id="Duplicate_Items_Folder_Symbol_3_copy_8_0_Layer0_0_MEMBER_0_MEMBER_0_MEMBER_1_FILL" data-name="Duplicate Items Folder Symbol 3 copy 8 0 Layer0 0 MEMBER 0 MEMBER 0 MEMBER 1 FILL"><path class="cls-5" d="M232.9,940q-6.39-1.59-12.62,2.49a27,27,0,0,0-9.38,10.71l-.41.74a352.61,352.61,0,0,0,37.94,5.9q-.66-8.55-5.32-13.78A19.76,19.76,0,0,0,232.9,940Z"/></g><g id="Duplicate_Items_Folder_Symbol_3_copy_8_0_Layer0_0_MEMBER_0_MEMBER_0_MEMBER_2_FILL" data-name="Duplicate Items Folder Symbol 3 copy 8 0 Layer0 0 MEMBER 0 MEMBER 0 MEMBER 2 FILL"><path class="cls-5" d="M292.1,948.49a22.23,22.23,0,0,0-14.2-5.73,21,21,0,0,0-14.36,4.41,24,24,0,0,0-8.72,13.28q21.75,2,45,1.83A25.43,25.43,0,0,0,292.1,948.49Z"/></g><g id="Duplicate_Items_Folder_Symbol_3_copy_8_0_Layer0_0_MEMBER_0_MEMBER_0_MEMBER_3_FILL" data-name="Duplicate Items Folder Symbol 3 copy 8 0 Layer0 0 MEMBER 0 MEMBER 0 MEMBER 3 FILL"><path class="cls-5" d="M306.38,962.19q6.48-.08,19.43-.16,11.54-.09,19.59-.83-3.64-14.21-16.69-16.77-12.78-2.5-19.09,8.21a24.67,24.67,0,0,0-2,4.57A25.63,25.63,0,0,0,306.38,962.19Z"/></g><g id="Duplicate_Items_Folder_Symbol_3_copy_8_0_Layer0_0_MEMBER_1_MEMBER_0_MEMBER_0_MEMBER_0_MEMBER_0_FILL" data-name="Duplicate Items Folder Symbol 3 copy 8 0 Layer0 0 MEMBER 1 MEMBER 0 MEMBER 0 MEMBER 0 MEMBER 0 FILL"><path class="cls-6" d="M204.76,942.68a62.89,62.89,0,0,1,18-17.52,45.72,45.72,0,0,1,12.62-5.64,48.44,48.44,0,0,1,11.21-1.83l4.4-.08a32.19,32.19,0,0,1,3.24.25l2.82.33-2.74-.5a24,24,0,0,0-3.32-.41l-4.4-.17a46.85,46.85,0,0,0-11.46,1.49,42.66,42.66,0,0,0-12.95,5.65,50.7,50.7,0,0,0-10.87,9q-1.24,1.32-3.91,4.73l-5.31,8.22c-.44.72-1,1.69-1.58,2.9l-1.24,2.58Z"/></g><g id="Duplicate_Items_Folder_Symbol_4_copy_14_0_Layer0_0_MEMBER_0_MEMBER_0_MEMBER_0_FILL" data-name="Duplicate Items Folder Symbol 4 copy 14 0 Layer0 0 MEMBER 0 MEMBER 0 MEMBER 0 FILL"><path class="cls-2" d="M576.87,921.59l.67-109q-12.7-25.91-40-38.19-23.84-10.78-52.81-9-27.06,1.65-46.07,13.2Q419,790.49,419,806.85q9.89,36.21,11,96.48.5,30.13-.91,53,4.4,2.57,12.29,4a78,78,0,0,0,15.77,1.25q4-14.28,17.27-17,12.94-2.65,19.1,8a21.62,21.62,0,0,1,1.9,4.57,28.3,28.3,0,0,1,1.17,5.06l6.56.09a25.61,25.61,0,0,1,8.13-13.79,22.84,22.84,0,0,1,14.45-5.81,21.31,21.31,0,0,1,14.44,4.4,23.41,23.41,0,0,1,8.47,13.37l6.48-.67q.75-8.46,5.64-13.78a20.1,20.1,0,0,1,10.47-6.14q6.39-1.58,12.7,2.57a27.26,27.26,0,0,1,9.21,10.8l.34.74,11.29-2.4a74.64,74.64,0,0,0-12.12-18.68A48.71,48.71,0,0,0,576.87,921.59Z"/></g><g id="Duplicate_Items_Folder_Symbol_4_copy_14_0_Layer0_0_MEMBER_0_MEMBER_0_MEMBER_1_FILL" data-name="Duplicate Items Folder Symbol 4 copy 14 0 Layer0 0 MEMBER 0 MEMBER 0 MEMBER 1 FILL"><path class="cls-5" d="M583.93,942.43q-6.31-4.14-12.7-2.57A20.1,20.1,0,0,0,560.76,946q-4.89,5.32-5.64,13.78A367.92,367.92,0,0,0,593.48,954l-.34-.74A27.26,27.26,0,0,0,583.93,942.43Z"/></g><g id="Duplicate_Items_Folder_Symbol_4_copy_14_0_Layer0_0_MEMBER_0_MEMBER_0_MEMBER_2_FILL" data-name="Duplicate Items Folder Symbol 4 copy 14 0 Layer0 0 MEMBER 0 MEMBER 0 MEMBER 2 FILL"><path class="cls-5" d="M525.73,942.68a22.84,22.84,0,0,0-14.45,5.81,25.61,25.61,0,0,0-8.13,13.79q23.49.16,45.49-1.83a23.41,23.41,0,0,0-8.47-13.37A21.31,21.31,0,0,0,525.73,942.68Z"/></g><g id="Duplicate_Items_Folder_Symbol_4_copy_14_0_Layer0_0_MEMBER_0_MEMBER_0_MEMBER_3_FILL" data-name="Duplicate Items Folder Symbol 4 copy 14 0 Layer0 0 MEMBER 0 MEMBER 0 MEMBER 3 FILL"><path class="cls-5" d="M476.91,962.19h19.68a28.3,28.3,0,0,0-1.17-5.06,21.62,21.62,0,0,0-1.9-4.57q-6.15-10.71-19.1-8-13.29,2.73-17.27,17Q465,962.19,476.91,962.19Z"/></g><g id="Duplicate_Items_Folder_Symbol_4_copy_14_0_Layer0_0_MEMBER_1_MEMBER_0_MEMBER_0_MEMBER_0_MEMBER_0_FILL" data-name="Duplicate Items Folder Symbol 4 copy 14 0 Layer0 0 MEMBER 1 MEMBER 0 MEMBER 0 MEMBER 0 MEMBER 0 FILL"><path class="cls-6" d="M557.78,916.94l-5.4.5h5.31a47.55,47.55,0,0,1,23.91,7.47,56.86,56.86,0,0,1,10.71,8.72l7.14,8.89,2.33,3.73a24.32,24.32,0,0,1,1.66,2.91l1.41,2.41-4.9-9.39-7-9.13a49.74,49.74,0,0,0-10.79-9.13,47.18,47.18,0,0,0-13-5.56A40,40,0,0,0,557.78,916.94Z"/></g><g id="Duplicate_Items_Folder_Symbol_2_0_Layer0_0_MEMBER_0_MEMBER_0_MEMBER_0_MEMBER_0_FILL" data-name="Duplicate Items Folder Symbol 2 0 Layer0 0 MEMBER 0 MEMBER 0 MEMBER 0 MEMBER 0 FILL"><path class="cls-7" d="M244.56,656.34a213.45,213.45,0,0,1,74.76-5q34.59,3.57,60,15.81,24.76,11.91,27.3,25.35,1.22,63-3.08,102Q399,835.82,386.62,867l-.62,1.5q-11.61,7.23-37.55,11.78a359.75,359.75,0,0,1-54.11,4.87,325.91,325.91,0,0,1-54.44-3.08q-26.52-4-38.54-12Q182,835.69,175.05,779.17A421.15,421.15,0,0,1,173,693.39Q202.94,666.83,244.56,656.34Z"/></g><path id="Duplicate_Items_Folder_Symbol_2_0_Layer0_0_MEMBER_0_MEMBER_0_MEMBER_0_MEMBER_0_1_STROKES" data-name="Duplicate Items Folder Symbol 2 0 Layer0 0 MEMBER 0 MEMBER 0 MEMBER 0 MEMBER 0 1 STROKES" class="cls-8" d="M173,693.38a421.25,421.25,0,0,0,2.08,85.79q6.9,56.52,26.3,90.86,12,8.07,38.55,12a324.78,324.78,0,0,0,54.44,3.08,358.45,358.45,0,0,0,54.11-4.87q25.94-4.54,37.54-11.78l.63-1.5q12.4-31.17,16.9-72.51,4.29-39,3.08-102-2.53-13.46-27.31-25.35-25.38-12.24-60-15.82a213.41,213.41,0,0,0-74.75,5Q202.95,666.83,173,693.38Z"/><g id="Duplicate_Items_Folder_Symbol_2_0_Layer0_0_MEMBER_0_MEMBER_0_MEMBER_0_MEMBER_1_FILL" data-name="Duplicate Items Folder Symbol 2 0 Layer0 0 MEMBER 0 MEMBER 0 MEMBER 0 MEMBER 1 FILL"><path class="cls-9" d="M238.53,881.48q22.89,3,52.07,1.71A371,371,0,0,0,344,876.9q26.14-5.07,41.17-12.44c.05-.17.56-.47,1.54-.92a4.91,4.91,0,0,0,1.58-.91Q386.66,882,381,894.14a52.88,52.88,0,0,1-12.44,16.6q-35,10.5-82.21,10.58-42.17.12-70.55-7.41-5.42-3.87-10.28-16.32-5.7-14.49-4.16-27.55Q213.39,878.11,238.53,881.48Z"/></g><g id="Duplicate_Items_Folder_Symbol_2_0_Layer0_0_MEMBER_1_MEMBER_0_MEMBER_0_MEMBER_0_MEMBER_0_FILL" data-name="Duplicate Items Folder Symbol 2 0 Layer0 0 MEMBER 1 MEMBER 0 MEMBER 0 MEMBER 0 MEMBER 0 FILL"><path class="cls-10" d="M258.25,881.86a361.52,361.52,0,0,0,37.22-.08q8.11-.42,19.26-1.46,10.81-1.16,17.84-2.24,5.42-.8,16-2.83,9.23-2,13.76-3.28a125.64,125.64,0,0,0,19.34-6.7l5-2.46a16.25,16.25,0,0,1,1.79-.83,11.26,11.26,0,0,1-1.62,1.13l-4.91,2.7a111.65,111.65,0,0,1-19.3,7.15c-3.57,1.06-8.18,2.22-13.8,3.5q-9.07,1.86-16.06,2.95-7.69,1.25-17.88,2.33t-19.34,1.54a344.88,344.88,0,0,1-37.39,0,215.36,215.36,0,0,1-30.32-3.79,89.13,89.13,0,0,1-19.64-6.2l-2.91-1.49c-1-.61-1.65-1-2-1.25-1.1-.69-1.63-1.07-1.58-1.12l6.74,3.32a96.28,96.28,0,0,0,19.63,5.7A221.42,221.42,0,0,0,258.25,881.86Z"/></g><g id="Duplicate_Items_Folder_Symbol_2_0_Layer0_0_MEMBER_1_MEMBER_1_MEMBER_0_MEMBER_0_MEMBER_0_FILL" data-name="Duplicate Items Folder Symbol 2 0 Layer0 0 MEMBER 1 MEMBER 1 MEMBER 0 MEMBER 0 MEMBER 0 FILL"><path class="cls-10" d="M376.12,664.34a110.43,110.43,0,0,1,12.69,6.57,67.49,67.49,0,0,1,11.1,8.48q5.82,5.83,7.32,11.61l.21.87.17,12.4q.17,15.47,0,25.2-.25,25.17-1.71,45.13-1.5,20.42-4.16,37.06-2.08,12.81-5.82,27.53-2.13,7.69-2.87,9.86c-1.28,4-2.07,6.35-2.37,7.15l-2,5.45c-.11.33-.17.44-.17.33l.09-.37,1.83-5.49,2.24-7.2q.38-1.15,2.71-9.85,3.48-13.91,5.57-27.54,2.63-17.17,3.95-37,1.33-20.22,1.54-45.09,0-10.73-.08-25.12l-.21-12.23-.21-.75q-1.36-5.4-6.95-10.94a61.15,61.15,0,0,0-10.89-8.27,106,106,0,0,0-12.48-6.49A167.8,167.8,0,0,0,348,656.48a219.9,219.9,0,0,0-60.8-5.87,207,207,0,0,0-32.32,3.79A191.6,191.6,0,0,0,224.48,663q-7,2.65-14.1,6.07-.91.42-6.74,3.45-5.16,2.88-6.45,3.7-6,3.59-12.27,8.16L174,693.2l-.33,4.66c-.17,2.25-.26,3.88-.29,4.91l-.42,9.69q-.24,9.62-.12,18.76.12,8.56.58,17.88.47,8,1.21,16.89,1.45,16,3.91,30.57,2.21,13.1,5.4,25.74,2.93,11.28,6.16,20.43l1.54,4.24,4.28,10.48q.33.79,2.42,5.2l3.36,6.74L198,862.77c-1.05-2-1.9-3.77-2.53-5.15l-6-14.69q-3.47-9.55-6.33-20.42-3.28-12.48-5.57-25.78-2.53-14.36-4.08-30.62-.73-8.24-1.24-17-.47-8.1-.67-17.92-.16-8.73.08-18.8l.38-9.73c.11-2.17.19-3.8.25-4.91l.37-5.24,11.48-9.28A139.61,139.61,0,0,1,196.44,675q1.45-.91,6.53-3.79,5.42-2.79,6.78-3.45,7.32-3.54,14.23-6.16a193.21,193.21,0,0,1,30.57-8.69,216.92,216.92,0,0,1,32.56-3.82,220.73,220.73,0,0,1,61.19,5.94A170.84,170.84,0,0,1,376.12,664.34Z"/></g><g id="Duplicate_Items_Folder_Symbol_3_0_Layer0_0_MEMBER_0_MEMBER_0_MEMBER_0_MEMBER_0_FILL" data-name="Duplicate Items Folder Symbol 3 0 Layer0 0 MEMBER 0 MEMBER 0 MEMBER 0 MEMBER 0 FILL"><path class="cls-7" d="M565,660.47a213.51,213.51,0,0,0-74.53-7.56q-34.68,2.4-60.48,13.75-25.15,11.05-28.15,24.4-3.37,62.93-.42,102,3.08,41.45,14.4,73l.57,1.52q11.36,7.64,37.11,13.06a358.64,358.64,0,0,0,53.91,6.72,324.12,324.12,0,0,0,54.51-1.21q26.63-3,38.93-10.69,20.55-33.66,29.4-89.9a421.47,421.47,0,0,0,5-85.66Q606.2,672.39,565,660.47Z"/></g><path id="Duplicate_Items_Folder_Symbol_3_0_Layer0_0_MEMBER_0_MEMBER_0_MEMBER_0_MEMBER_0_1_STROKES" data-name="Duplicate Items Folder Symbol 3 0 Layer0 0 MEMBER 0 MEMBER 0 MEMBER 0 MEMBER 0 1 STROKES" class="cls-11" d="M635.23,699.9a422.19,422.19,0,0,1-5,85.66q-8.85,56.24-29.41,89.89-12.3,7.66-38.93,10.7a324.12,324.12,0,0,1-54.51,1.21,358.34,358.34,0,0,1-53.9-6.72q-25.75-5.43-37.12-13.06l-.57-1.52q-11.32-31.57-14.4-73-2.94-39.07.42-102,3-13.34,28.16-24.39,25.79-11.36,60.48-13.75A213.53,213.53,0,0,1,565,660.43Q606.2,672.34,635.23,699.9Z"/><g id="Duplicate_Items_Folder_Symbol_3_0_Layer0_0_MEMBER_0_MEMBER_0_MEMBER_0_MEMBER_1_FILL" data-name="Duplicate Items Folder Symbol 3 0 Layer0 0 MEMBER 0 MEMBER 0 MEMBER 0 MEMBER 1 FILL"><path class="cls-9" d="M563.27,885.66q-23,2.25-52.09-.08A370.72,370.72,0,0,1,458,877.46q-25.95-6-40.71-13.84c-.05-.17-.55-.5-1.51-1a4.89,4.89,0,0,1-1.55-1q1,19.4,6.2,31.74a52.93,52.93,0,0,0,11.87,17q34.57,11.68,81.78,13.38,42.14,1.57,70.76-5,5.53-3.68,10.83-16,6.19-14.28,5.11-27.39Q588.51,883.15,563.27,885.66Z"/></g><g id="Duplicate_Items_Folder_Symbol_3_0_Layer0_0_MEMBER_1_MEMBER_0_MEMBER_0_MEMBER_0_MEMBER_0_FILL" data-name="Duplicate Items Folder Symbol 3 0 Layer0 0 MEMBER 1 MEMBER 0 MEMBER 0 MEMBER 0 MEMBER 0 FILL"><path class="cls-10" d="M543.54,885.34a364.45,364.45,0,0,1-37.2-1.36q-8.08-.71-19.19-2.12-10.77-1.53-17.75-2.86-5.38-1-15.91-3.37-9.15-2.36-13.64-3.76a125.92,125.92,0,0,1-19.1-7.35l-4.9-2.62a13.56,13.56,0,0,0-1.76-.9,12.21,12.21,0,0,0,1.58,1.18l4.82,2.87a111.78,111.78,0,0,0,19,7.81q5.31,1.77,13.68,4,9,2.17,15.94,3.5,7.65,1.5,17.8,2.94t19.27,2.2a342.66,342.66,0,0,0,37.36,1.24A215.63,215.63,0,0,0,574,884a90,90,0,0,0,19.83-5.52l3-1.4c1-.57,1.68-1,2.08-1.17,1.13-.66,1.67-1,1.62-1.07l-6.85,3.09a96.75,96.75,0,0,1-19.81,5A223.56,223.56,0,0,1,543.54,885.34Z"/></g><g id="Duplicate_Items_Folder_Symbol_3_0_Layer0_0_MEMBER_1_MEMBER_1_MEMBER_0_MEMBER_0_MEMBER_0_FILL" data-name="Duplicate Items Folder Symbol 3 0 Layer0 0 MEMBER 1 MEMBER 1 MEMBER 0 MEMBER 0 MEMBER 0 FILL"><path class="cls-10" d="M433.22,663.93a110,110,0,0,0-12.91,6.13,66.34,66.34,0,0,0-11.38,8.1q-6,5.61-7.72,11.34l-.23.87-.6,12.38q-.69,15.45-.86,25.18-.61,25.16.16,45.15.79,20.46,2.88,37.18,1.63,12.87,4.87,27.71,1.86,7.77,2.53,9.95,1.71,6,2.13,7.23l1.85,5.51c.1.34.15.45.15.34l-.07-.37-1.64-5.55c-.12-.42-.79-2.85-2-7.27q-.33-1.17-2.36-9.94-3-14-4.62-27.71-2-17.25-2.68-37.12-.64-20.25,0-45.11.31-10.73.94-25.1l.63-12.21.23-.74q1.56-5.36,7.32-10.69a61.41,61.41,0,0,1,11.17-7.9,104.93,104.93,0,0,1,12.69-6,167.58,167.58,0,0,1,27.91-8.2,219.4,219.4,0,0,1,61-3.77,204.71,204.71,0,0,1,32.16,4.89,191,191,0,0,1,30,9.64q6.93,2.9,13.88,6.55.9.45,6.62,3.68,5.06,3,6.31,3.92,5.91,3.78,12,8.57l10.63,9.19.17,4.66c.09,2.25.13,3.89.13,4.92l.08,9.69q-.08,9.62-.52,18.75-.42,8.57-1.19,17.85-.74,8-1.79,16.84-2,15.95-5,30.41-2.65,13-6.29,25.54-3.3,11.16-6.85,20.2c0,.08-.59,1.47-1.69,4.18l-4.64,10.33q-.36.78-2.58,5.11l-3.6,6.62,3.88-6.48q1.7-3,2.71-5.07l6.53-14.46q3.78-9.45,7-20.19,3.72-12.36,6.46-25.58,3-14.25,5.12-30.45,1-8.21,1.83-16.91.74-8.1,1.28-17.89.46-8.73.56-18.79l0-9.74c0-2.17-.06-3.8-.08-4.91l-.2-5.25-11.15-9.66a139.1,139.1,0,0,0-12-8.66q-1.42-1-6.39-4-5.31-3-6.66-3.68-7.19-3.8-14-6.64a192.43,192.43,0,0,0-30.25-9.74,217.21,217.21,0,0,0-32.41-4.94,221.1,221.1,0,0,0-61.34,3.84A170.37,170.37,0,0,0,433.22,663.93Z"/></g><g id="Duplicate_Items_Folder_q_copy_9_0_Layer0_0_FILL" data-name="Duplicate Items Folder q copy 9 0 Layer0 0 FILL"><path class="cls-2" d="M306.44,237.93q10.38-40.87-.83-72.7a205.26,205.26,0,0,0-29.14-54.47Q251.68,77,227.31,55.24q-31.08-27.87-63-37.95Q122.86,4.06,84.15,29.47,49.56,52.11,26,98.65,3.3,143.41.39,190.41-2.67,240,18.1,270.13a285,285,0,0,0,52.75,57.46q33.25,27.5,67.4,38.48,35.64,11.51,72.55-5.53,33.47-15.46,60-50.14A198.78,198.78,0,0,0,306.44,237.93Z"/></g><g id="Duplicate_Items_Folder_q_copy_9_0_Layer0_1_FILL" data-name="Duplicate Items Folder q copy 9 0 Layer0 1 FILL"><path class="cls-12" d="M255,131.47q-30.67-24.1-44.43-32.42a190.41,190.41,0,0,0-50.26-20.82q-31.81-8.45-57.57-.48-27,8.37-44.87,34.09Q34,146.1,37.22,195.57a181.45,181.45,0,0,0,8.46,44,174,174,0,0,0,18.14,39.22,129.68,129.68,0,0,0,28,31.94,96.6,96.6,0,0,0,37.55,19.15q31.18,7.85,59.54-1.1,21-6.57,51.88-27.38-1.87-5.79-4-15.65a259,259,0,0,1-5.56-40.22Q227.08,179.89,255,131.47Z"/></g><g id="Duplicate_Items_Folder_Symbol_9_copy_9_0_Layer0_0_FILL" data-name="Duplicate Items Folder Symbol 9 copy 9 0 Layer0 0 FILL"><path class="cls-2" d="M826.19,269.52q20.92-30,17.77-79.7-2.91-47-25.49-91.74-23.65-46.57-58.2-69.16Q721.49,3.51,680,16.71q-31.8,10-62.93,37.95Q592.73,76.41,567.9,110.2a206.51,206.51,0,0,0-29.14,54.46q-11.21,31.8-.83,72.73,10,38.94,35.7,72.48,26.49,34.62,60,50.07,36.95,17.1,72.56,5.56,34.13-11,67.42-38.44A284,284,0,0,0,826.19,269.52Z"/></g><g id="Duplicate_Items_Folder_Symbol_9_copy_9_0_Layer0_1_FILL" data-name="Duplicate Items Folder Symbol 9 copy 9 0 Layer0 1 FILL"><path class="cls-13" d="M583,130.89q30.67-24.1,44.43-32.42a190.27,190.27,0,0,1,50.26-20.82q31.82-8.46,57.57-.48,27,8.37,44.87,34.09,23.79,34.26,20.6,83.73a181.45,181.45,0,0,1-8.46,43.95,174,174,0,0,1-18.14,39.22,130.07,130.07,0,0,1-28,31.94,96.74,96.74,0,0,1-37.55,19.15q-31.2,7.85-59.54-1.1-21-6.57-51.88-27.38,1.88-5.79,4-15.65a259,259,0,0,0,5.56-40.22Q610.84,179.3,583,130.89Z"/></g><g id="Duplicate_Items_Folder_Symbol_2_copy_15_75_Layer0_0_MEMBER_0_FILL" data-name="Duplicate Items Folder Symbol 2 copy 15 75 Layer0 0 MEMBER 0 FILL"><path class="cls-7" d="M356.68,736.52q-15.92-31.1-16.53-42.5,59.19-1.31,122.06,0-.79,0-13.28,32.26-14.32,33.63-23.93,39a99.58,99.58,0,0,0-19.19,14q-6.81,6.41-8.36,9.67a34,34,0,0,0-6.63-11.05,33.35,33.35,0,0,0-12.45-8.28Q372.46,767.25,356.68,736.52Z"/></g><g id="Duplicate_Items_Folder_Symbol_2_copy_15_75_Layer0_0_MEMBER_1_MEMBER_0_MEMBER_0_FILL" data-name="Duplicate Items Folder Symbol 2 copy 15 75 Layer0 0 MEMBER 1 MEMBER 0 MEMBER 0 FILL"><path class="cls-7" d="M426,763.67l-27.36,23.08a63.56,63.56,0,0,1,10.82-11.9A106.39,106.39,0,0,1,426,763.67Z"/></g><g id="Duplicate_Items_Folder_Symbol_2_copy_15_75_Layer0_0_MEMBER_1_MEMBER_0_MEMBER_1_MEMBER_0_MEMBER_0_MEMBER_0_FILL" data-name="Duplicate Items Folder Symbol 2 copy 15 75 Layer0 0 MEMBER 1 MEMBER 0 MEMBER 1 MEMBER 0 MEMBER 0 MEMBER 0 FILL"><path class="cls-10" d="M400,784.43q-.57-.43,2.5-4.78a44.71,44.71,0,0,1,9-9.34,64.32,64.32,0,0,1,10.83-7q4.71-2.46,5-1.88.21.36-4.08,3.48-6.84,4.85-10.11,7.46a83,83,0,0,0-9.19,8.47Q400.3,784.58,400,784.43Z"/></g><g id="Duplicate_Items_Folder_Symbol_2_copy_15_75_Layer0_0_MEMBER_1_MEMBER_1_MEMBER_0_FILL" data-name="Duplicate Items Folder Symbol 2 copy 15 75 Layer0 0 MEMBER 1 MEMBER 1 MEMBER 0 FILL"><path class="cls-7" d="M398.45,787.33,376,773.11a11.77,11.77,0,0,1,3.23-4.79,30.54,30.54,0,0,1,19.2,19Z"/></g><g id="Duplicate_Items_Folder_Symbol_2_copy_15_75_Layer0_0_MEMBER_1_MEMBER_1_MEMBER_1_MEMBER_0_MEMBER_0_MEMBER_0_FILL" data-name="Duplicate Items Folder Symbol 2 copy 15 75 Layer0 0 MEMBER 1 MEMBER 1 MEMBER 1 MEMBER 0 MEMBER 0 MEMBER 0 FILL"><path class="cls-10" d="M384.28,768.79l-2.44-1.23-.58-.22-.21-.15H381c0-.05-.1,0-.29.08a20.24,20.24,0,0,0-2.27,2.53c-.53.73-.85,1.06-.95,1s-.21-.54.09-1.45A9.49,9.49,0,0,1,379.4,766l.73-.72.15-.22.21-.14.51.21,1.65.44c1.78.72,2.69,1.11,2.74,1.16a29.85,29.85,0,0,1,5.74,3.62,25.28,25.28,0,0,1,7.56,9.7,20,20,0,0,1,1.19,3.55c.19.92.18,1.4,0,1.45s-.46-.31-.93-1.08c-.71-1.16-1.33-2.18-1.85-3a38.38,38.38,0,0,0-7.57-8.54A29.49,29.49,0,0,0,384.28,768.79Z"/></g><g id="Duplicate_Items_Folder_Symbol_2_copy_15_75_Layer0_1_FILL" data-name="Duplicate Items Folder Symbol 2 copy 15 75 Layer0 1 FILL"><path class="cls-3" d="M243.91,388.91a16.5,16.5,0,0,0,1.35-2.33,1.78,1.78,0,0,0,0-.25c-.46.88-.91,1.74-1.36,2.58m330.66,2.58a83.16,83.16,0,0,1-11.79,8.41q-7.2,4.43-22.33,17.24a359.9,359.9,0,0,1-30.62,23.4Q494.34,451.11,483,453.19t-40.78-7.08q-29.32-9.06-61.65-4t-50.86-2.75q-18.63-7.81-29.27-20.48a132.57,132.57,0,0,0-26.26-23.65q-15.67-10.87-22-9.33t-6.9.67a16.5,16.5,0,0,1-1.35,2.33q-39.07,76.69-56.74,154.46-16.48,72.36-14.68,142,15.54,5.91,42.21,13.4a809.93,809.93,0,0,0,109.12,22.49Q402,731.88,474,726.3q90-6.82,165.1-38.71,5.31-83.36-19.29-190.35-8.43-36.56-18.35-67.28-8.46-26-10.85-27.73Q583,396.7,574.57,391.49Z"/></g><path id="Duplicate_Items_Folder_Symbol_2_copy_15_75_Layer0_1_1_STROKES" data-name="Duplicate Items Folder Symbol 2 copy 15 75 Layer0 1 1 STROKES" class="cls-14" d="M573,390.58q-10.43-6.37-22-12.16a288.07,288.07,0,0,0-37.79-15.57,265.3,265.3,0,0,0-39.43-9.58,345.51,345.51,0,0,0-40.31-3.83,576.74,576.74,0,0,0-63.94,1.67,476.07,476.07,0,0,0-61.19,8.24,266,266,0,0,0-28.13,7.33,125.85,125.85,0,0,0-26.44,12.07,75.6,75.6,0,0,0-6.61,4.58H247c-.59,1.1-1.16,2.2-1.73,3.29m329.3,4.91q8.35,5.18,16,10.7Q593,404,601.42,430q9.92,30.72,18.35,67.28,24.6,107,19.29,190.35Q563.94,719.48,474,726.3q-72,5.58-150.14-5.07A809.93,809.93,0,0,1,214.7,698.74q-26.67-7.49-42.21-13.4-1.8-69.62,14.68-142Q204.84,465.61,243.91,389l1.36-2.62m0,.29a25.66,25.66,0,0,1-1.4,2.33"/><g id="Duplicate_Items_Folder_Symbol_2_copy_15_75_Layer0_2_MEMBER_0_MEMBER_0_MEMBER_0_FILL" data-name="Duplicate Items Folder Symbol 2 copy 15 75 Layer0 2 MEMBER 0 MEMBER 0 MEMBER 0 FILL"><path class="cls-15" d="M642.23,685.07l.8,3.19a49.64,49.64,0,0,1,1,8.3,40.48,40.48,0,0,1-6.72,24.06q-133,29.49-255.42,26.3-116.76-3-204.72-35a37,37,0,0,1-3.55-9.71,67.51,67.51,0,0,1-.91-27q80.13,31.62,209,33.57Q505.32,710.66,642.23,685.07Z"/></g><g id="Duplicate_Items_Folder_Symbol_2_copy_15_75_Layer0_2_MEMBER_1_MEMBER_0_MEMBER_0_MEMBER_0_FILL" data-name="Duplicate Items Folder Symbol 2 copy 15 75 Layer0 2 MEMBER 1 MEMBER 0 MEMBER 0 MEMBER 0 FILL"><path class="cls-16" d="M364.67,747.12q.34-5.31.67-19.85.33-15.3.74-22.14,20.71,1.9,45.95,1.74l21.13-.54q.36,6.34-.09,22.1-.46,16.37-1.26,22.05l-24,.33q-27.19-.33-43.15-3.69m8.38-34.74q-.72,6.51-.89,15.18-.09,5-.15,14.92,9.56.57,24.76,1,15.47.47,27,.46.66-5.76,1.09-13.6a105.62,105.62,0,0,0,0-16.08l-18.29,0A298.85,298.85,0,0,1,373.05,712.38Z"/></g><g id="Duplicate_Items_Folder_Symbol_2_copy_15_75_Layer0_2_MEMBER_2_MEMBER_0_MEMBER_0_FILL" data-name="Duplicate Items Folder Symbol 2 copy 15 75 Layer0 2 MEMBER 2 MEMBER 0 MEMBER 0 FILL"><path class="cls-17" d="M186.11,679.3l9.76,2.53q-.56,16.56-1.54,41.4l-9.41-2.53Q185.7,693.61,186.11,679.3Z"/></g><g id="Duplicate_Items_Folder_Symbol_2_copy_15_75_Layer0_2_MEMBER_2_MEMBER_0_MEMBER_1_FILL" data-name="Duplicate Items Folder Symbol 2 copy 15 75 Layer0 2 MEMBER 2 MEMBER 0 MEMBER 1 FILL"><path class="cls-17" d="M269.08,740.33q.84-27.14,1.19-41.45l11.81,1.58q-.6,16.54-1.58,41.44Z"/></g><g id="Duplicate_Items_Folder_Symbol_2_copy_15_75_Layer0_2_MEMBER_2_MEMBER_0_MEMBER_2_FILL" data-name="Duplicate Items Folder Symbol 2 copy 15 75 Layer0 2 MEMBER 2 MEMBER 0 MEMBER 2 FILL"><path class="cls-17" d="M495.39,702.45l11.75-.71.22,43.31-11.44.75Q495.52,716.76,495.39,702.45Z"/></g><g id="Duplicate_Items_Folder_Symbol_2_copy_15_75_Layer0_2_MEMBER_2_MEMBER_0_MEMBER_3_FILL" data-name="Duplicate Items Folder Symbol 2 copy 15 75 Layer0 2 MEMBER 2 MEMBER 0 MEMBER 3 FILL"><path class="cls-17" d="M609.1,689.75,620.81,688q.77,10.66,1.19,20.16.09.89.85,20.29l-11.29,2Q609.87,704.08,609.1,689.75Z"/></g><g id="Duplicate_Items_Folder_Symbol_2_copy_15_75_Layer0_2_MEMBER_3_FILL" data-name="Duplicate Items Folder Symbol 2 copy 15 75 Layer0 2 MEMBER 3 FILL"><path class="cls-16" d="M418.2,729.61c.37-1.64,1.09-2.53,2.16-2.66a29.63,29.63,0,0,1,3.62-.13h4.61c.84,0,1.3.89,1.37,2.66s-.36,2.67-1.29,2.7l-4.83,0c-2.09.06-3.46.06-4.1,0C418.38,732.11,417.87,731.24,418.2,729.61Z"/></g><g id="Duplicate_Items_Folder_Symbol_2_copy_15_75_Layer0_2_MEMBER_4_MEMBER_0_MEMBER_0_MEMBER_0_FILL" data-name="Duplicate Items Folder Symbol 2 copy 15 75 Layer0 2 MEMBER 4 MEMBER 0 MEMBER 0 MEMBER 0 FILL"><path d="M429.84,725.48l-.26-.08-4.56-.17,4.56-.16.43.08a2.22,2.22,0,0,1,.95,1.29,4.53,4.53,0,0,1,.24,1.57,4.27,4.27,0,0,1-.23,1.62,1.51,1.51,0,0,1-1.14,1.12l-4.95-.09,2.34-.16c1.11,0,2-.07,2.57-.13.32,0,.58-.31.79-.87a5.54,5.54,0,0,0,.19-1.45,6,6,0,0,0-.25-1.49A1.77,1.77,0,0,0,429.84,725.48Z"/></g><g id="Duplicate_Items_Folder_Symbol_2_copy_15_75_Layer0_3_FILL" data-name="Duplicate Items Folder Symbol 2 copy 15 75 Layer0 3 FILL"><path class="cls-2" d="M369.49,351.11a476.07,476.07,0,0,0-61.19,8.24,266,266,0,0,0-28.13,7.33,125.85,125.85,0,0,0-26.44,12.07,75.6,75.6,0,0,0-6.61,4.58H247c-1,1.91-2,3.79-3,5.66a8.5,8.5,0,0,0,2.71,2.67q2.28,1.62,8,2.5t30.46,18a398.11,398.11,0,0,0,52.08,30.31q27.42,13.38,54.83,5.08t52.77,3.41q25.46,11.74,38.54,7a132.84,132.84,0,0,0,24.45-12.41,287.12,287.12,0,0,0,47.94-37q9-8.64,17.19-17.9-10.43-6.37-22-12.16a288.07,288.07,0,0,0-37.79-15.57,265.3,265.3,0,0,0-39.43-9.58,345.51,345.51,0,0,0-40.31-3.83A576.74,576.74,0,0,0,369.49,351.11Z"/></g><g id="Duplicate_Items_Folder_Symbol_4_copy_20_0_Layer0_0_MEMBER_0_FILL" data-name="Duplicate Items Folder Symbol 4 copy 20 0 Layer0 0 MEMBER 0 FILL"><path class="cls-15" d="M414.87,467.63a16.22,16.22,0,0,0-7.72.65q-1.5,1.37-14.88,73.93-4,21.6-19.38,107.36a101.57,101.57,0,0,0,18.62,43.69q7.17,9.68,13.5,14.45,22-17.43,31.79-36.9a63.08,63.08,0,0,0,4.54-11.72l.85-4.32q-6.27-62.5-19.41-185.49Q416.15,467.8,414.87,467.63Z"/></g><g id="Duplicate_Items_Folder_Symbol_4_copy_20_0_Layer0_0_MEMBER_1_MEMBER_0_FILL" data-name="Duplicate Items Folder Symbol 4 copy 20 0 Layer0 0 MEMBER 1 MEMBER 0 FILL"><path class="cls-18" d="M228.75,370.73q9,10.81,32.89,22.86a377.63,377.63,0,0,0,52.24,21A495.89,495.89,0,0,0,372,430q29.88,5.94,50.57,5.86a101.54,101.54,0,0,0-24.93,18.68q-13.6,14-22.76,36.31-30.24-12.17-63.56-33.4-66.57-42.48-82.72-86.62Z"/></g><g id="Duplicate_Items_Folder_Symbol_4_copy_20_0_Layer0_0_MEMBER_1_MEMBER_1_MEMBER_0_MEMBER_0_MEMBER_0_FILL" data-name="Duplicate Items Folder Symbol 4 copy 20 0 Layer0 0 MEMBER 1 MEMBER 1 MEMBER 0 MEMBER 0 MEMBER 0 FILL"><path class="cls-4" d="M229.42,370.34a12.13,12.13,0,0,1,1.12,2.36q2.33,5,3.24,6.74a129.08,129.08,0,0,0,15.27,23,212.09,212.09,0,0,0,30,29.49A360.65,360.65,0,0,0,322.11,462q13.08,7.81,27.77,15.43,6.66,3.4,13.53,6.59,2.82,1.39,6.58,3l5.07,2.21.05-.06,1.39-3.22c.45-1,1-2.18,1.67-3.49l4.3-8.32,6.69-10.26a92.7,92.7,0,0,1,8.12-9.71,77,77,0,0,1,8-7.38,95.36,95.36,0,0,1,12.89-8.84c1.17-.64,2.41-1.29,3.73-1.95.87-.46,1.3-.65,1.31-.58a51.41,51.41,0,0,1-4.72,3A105.22,105.22,0,0,0,406,447.45a99.62,99.62,0,0,0-7.78,7.48,97.11,97.11,0,0,0-7.78,9.64L384,474.81l-7.43,15.71-.5.49h0l-.13-.15-.4.18a1.9,1.9,0,0,1-.7-.17l-.72-.22-11.58-5.1q-6.51-3.06-13.59-6.59-14.33-7.27-27.88-15.47a358,358,0,0,1-43.29-30.32,203.21,203.21,0,0,1-29.81-29.95A114.15,114.15,0,0,1,233,379.73q-1.39-3-2.9-6.9A10.79,10.79,0,0,1,229.42,370.34Z"/></g><g id="Duplicate_Items_Folder_Symbol_4_copy_20_0_Layer0_0_MEMBER_1_MEMBER_2_FILL" data-name="Duplicate Items Folder Symbol 4 copy 20 0 Layer0 0 MEMBER 1 MEMBER 2 FILL"><path class="cls-4" d="M229.42,368.12l.81.84a21.32,21.32,0,0,0,2.21,2.57,76.44,76.44,0,0,0,10.36,8.56q16.48,11.51,44.76,22.83Q305.5,410.1,324.69,416q17.22,5.22,35.32,9.42,9.24,2.16,19.21,4c.78.13,1.59.27,2.44.44q11.29,2,23,3.22,8.31.84,15.93.94.94,0,1.95,0v-.64q-.06-.48-.18-1.11c-.6-.07-1.22-.11-1.85-.14q-7.46-.1-15.66-.89-11-1-22.79-3.17-1.53-.3-3-.54-9.92-1.77-18.57-3.77-18.4-4.24-36-9.52-18.66-5.67-36.39-12.59Q260,390.62,243.26,379.5a89.39,89.39,0,0,1-10.45-8.19Z"/></g><g id="Duplicate_Items_Folder_Symbol_4_copy_20_0_Layer0_0_MEMBER_2_MEMBER_0_FILL" data-name="Duplicate Items Folder Symbol 4 copy 20 0 Layer0 0 MEMBER 2 MEMBER 0 FILL"><path class="cls-18" d="M606.51,372.35q-8.46,9.86-31.74,21.1a390,390,0,0,1-51.21,19.83,528.62,528.62,0,0,1-57.41,14.92q-29.59,5.91-50.29,6.26a106.46,106.46,0,0,1,25.88,16.19q14.31,12.27,24.59,32,29.64-11.49,61.9-31.15,64.47-39.31,78.4-79.1Z"/></g><g id="Duplicate_Items_Folder_Symbol_4_copy_20_0_Layer0_0_MEMBER_2_MEMBER_1_MEMBER_0_MEMBER_0_MEMBER_0_FILL" data-name="Duplicate Items Folder Symbol 4 copy 20 0 Layer0 0 MEMBER 2 MEMBER 1 MEMBER 0 MEMBER 0 MEMBER 0 FILL"><path class="cls-4" d="M605.8,371.72a10.74,10.74,0,0,0-1,2.13q-2.07,4.5-2.9,6.09a109.39,109.39,0,0,1-14.13,20.86,192.66,192.66,0,0,1-28.5,26.95,347,347,0,0,1-41.61,27.74q-12.69,7.25-27,14.35-6.5,3.18-13.21,6.17c-1.83.87-4,1.8-6.43,2.81l-5,2.07-.06-.05L464.45,478c-.5-.9-1.11-1.93-1.84-3.08l-4.72-7.35-7.21-9a91.67,91.67,0,0,0-8.61-8.52,77.58,77.58,0,0,0-8.4-6.43,100.52,100.52,0,0,0-13.33-7.64c-1.2-.55-2.48-1.11-3.83-1.67-.89-.39-1.34-.55-1.34-.49a54.32,54.32,0,0,0,4.87,2.57A112,112,0,0,1,433,444.2a99.86,99.86,0,0,1,8.16,6.53,94.24,94.24,0,0,1,8.26,8.45l7,9,8.22,13.88.52.43h.06l.12-.13.41.15a2.13,2.13,0,0,0,.7-.17l.7-.21,11.33-4.79q6.36-2.87,13.26-6.17,14-6.79,27.13-14.39a344.36,344.36,0,0,0,41.78-28Q578.06,415,589,401.48a97.07,97.07,0,0,0,13.67-21.29q1.23-2.73,2.55-6.23A8.71,8.71,0,0,0,605.8,371.72Z"/></g><g id="Duplicate_Items_Folder_Symbol_4_copy_20_0_Layer0_0_MEMBER_2_MEMBER_2_FILL" data-name="Duplicate Items Folder Symbol 4 copy 20 0 Layer0 0 MEMBER 2 MEMBER 2 FILL"><path class="cls-4" d="M454.8,428.18l3-.55q9.76-1.78,18.34-3.72,18.22-4.16,35.57-9.27,18.36-5.42,35.73-12,27.69-10.44,43.81-20.77a79.51,79.51,0,0,0,10.09-7.54l3.16-2.93-.74.83a19,19,0,0,1-2.09,2.32,69.29,69.29,0,0,1-9.89,7.81Q575.89,393,548.12,403.75q-17.57,6.75-36.46,12.42-17,5-34.91,9.18-9.11,2.08-18.95,3.92l-2.47.46q-11.19,2-22.83,3.39-8.29.88-15.92,1.15l-1.94.05v-.58a7.77,7.77,0,0,1,.07-1c.62-.06,1.25-.09,1.87-.11q7.43-.27,15.59-1.16Q443.09,430.3,454.8,428.18Z"/></g><g id="Duplicate_Items_Folder_Symbol_4_copy_20_0_Layer0_0_MEMBER_3_MEMBER_0_FILL" data-name="Duplicate Items Folder Symbol 4 copy 20 0 Layer0 0 MEMBER 3 MEMBER 0 FILL"><path class="cls-15" d="M430.61,444.17q-8.31-6.74-12.68-8.59a80.41,80.41,0,0,0-20,15.24,92.5,92.5,0,0,1,4.85,8.95q1.45,2.81,4.27,9.23a16.62,16.62,0,0,1,7.68-1.05c.84.11,3.52.56,8,1.35a115.49,115.49,0,0,1,7.31-9.58q2.58-3,8-9.17Q434.74,447.57,430.61,444.17Z"/></g><g id="Duplicate_Items_Folder_Symbol_4_copy_20_0_Layer0_0_MEMBER_3_MEMBER_1_MEMBER_0_MEMBER_0_MEMBER_0_FILL" data-name="Duplicate Items Folder Symbol 4 copy 20 0 Layer0 0 MEMBER 3 MEMBER 1 MEMBER 0 MEMBER 0 MEMBER 0 FILL"><path d="M407.66,468q-.68.27-5-8.88l-3.13-6.42c-.84-1.8-1.18-2.75-1-2.84s.93.65,2.07,2.33a48.16,48.16,0,0,1,3.59,6.27A65.61,65.61,0,0,1,407,465.1C407.61,467,407.84,467.92,407.66,468Z"/></g><g id="Duplicate_Items_Folder_Symbol_4_copy_20_0_Layer0_0_MEMBER_3_MEMBER_2_MEMBER_0_MEMBER_0_MEMBER_0_FILL" data-name="Duplicate Items Folder Symbol 4 copy 20 0 Layer0 0 MEMBER 3 MEMBER 2 MEMBER 0 MEMBER 0 MEMBER 0 FILL"><path d="M435.82,451.14c.16.11-.36,1-1.56,2.74L430,460q-3.41,4.8-4.43,6.09c-1.32,1.63-2.07,2.38-2.26,2.24s.27-1.06,1.28-2.86c1.21-2.09,2.54-4.21,4-6.34a48.81,48.81,0,0,1,4.8-5.88Q435.54,450.93,435.82,451.14Z"/></g><g id="Duplicate_Items_Folder_Symbol_4_copy_20_0_Layer0_0_MEMBER_3_MEMBER_3_MEMBER_0_MEMBER_0_MEMBER_0_FILL" data-name="Duplicate Items Folder Symbol 4 copy 20 0 Layer0 0 MEMBER 3 MEMBER 3 MEMBER 0 MEMBER 0 MEMBER 0 FILL"><path d="M417,472.69c-.14-2.22-.12-3.35.06-3.38s.64,1,1.09,3.26a53.53,53.53,0,0,1,1.12,8.09,64.83,64.83,0,0,1,.07,8.21q-.24,3.39-.66,3.36c-.19,0-.37-1.15-.54-3.37-.21-3.27-.38-5.95-.52-8.06Q417.21,474.77,417,472.69Z"/></g><g id="Duplicate_Items_Folder_Symbol_4_copy_20_0_Layer0_0_MEMBER_3_MEMBER_4_MEMBER_0_MEMBER_0_MEMBER_0_FILL" data-name="Duplicate Items Folder Symbol 4 copy 20 0 Layer0 0 MEMBER 3 MEMBER 4 MEMBER 0 MEMBER 0 MEMBER 0 FILL"><path d="M412.76,472.78c.27-1.92.49-2.88.68-2.89s.4,1,.47,2.94a40.49,40.49,0,0,1-2.25,13.84c-.7,1.85-1.18,2.72-1.43,2.61s-.1-1,.27-2.88q1.08-5.59,1.27-6.81Z"/></g><g id="Duplicate_Items_Folder_Symbol_8_copy_9_0_Layer0_0_FILL" data-name="Duplicate Items Folder Symbol 8 copy 9 0 Layer0 0 FILL"><path class="cls-2" d="M638,190.23a255,255,0,0,0-30.49-54.71,201.91,201.91,0,0,0-44.21-44.26Q528.28,66,483,55.45a278.83,278.83,0,0,0-88.11-5.87q-45.56,3.91-81,17.08-43.17,16-68.48,44.81-18.71,20.4-37.11,52.23Q171.56,227.29,173,284.25q1.23,45.53,45.47,81.34,33.3,26.94,85.53,44.84a386.49,386.49,0,0,0,139.33,21.08q79.39-2.68,134.46-38.55,29.83-19.5,45.56-34.11,24.12-22.49,31.43-45.94,7.55-24,.84-62.31A293.6,293.6,0,0,0,638,190.23Z"/></g><path id="Duplicate_Items_Folder_Symbol_8_copy_9_0_Layer0_0_1_STROKES" data-name="Duplicate Items Folder Symbol 8 copy 9 0 Layer0 0 1 STROKES" class="cls-19" d="M577.82,393q29.83-19.5,45.56-34.11,24.12-22.49,31.43-45.94,7.55-24,.84-62.31A293.6,293.6,0,0,0,638,190.23a255,255,0,0,0-30.49-54.71,201.91,201.91,0,0,0-44.21-44.26Q528.28,66,483,55.45a278.83,278.83,0,0,0-88.11-5.87q-45.56,3.91-81,17.08-43.17,16-68.48,44.81-18.71,20.4-37.11,52.23Q171.56,227.29,173,284.25q1.23,45.53,45.47,81.34,33.3,26.94,85.53,44.84a386.49,386.49,0,0,0,139.33,21.08Q522.76,428.83,577.82,393Z"/><g id="Duplicate_Items_Folder_Symbol_6_copy_32_0_Layer1_0_MEMBER_0_MEMBER_0_MEMBER_0_MEMBER_0_MEMBER_0_FILL" data-name="Duplicate Items Folder Symbol 6 copy 32 0 Layer1 0 MEMBER 0 MEMBER 0 MEMBER 0 MEMBER 0 MEMBER 0 FILL"><path class="cls-6" d="M537.6,317.37q-3.26,3.9-5.92,6.73a185.49,185.49,0,0,1-24.22,22,144.34,144.34,0,0,1-42.82,22.59c-1.78.67-4,1.36-6.7,2.09q-4.67,1.11-7,1.74-4.74.94-7.23,1.32a70.23,70.23,0,0,1-7.45,1q-3.76.57-15.51.93c-3.51-.05-6.16-.12-8-.2-3-.16-5.7-.39-8-.69a157.19,157.19,0,0,1-31.43-6.19L366,366.37c-4.45-1.64-6.84-2.53-7.15-2.67l-13.48-6.06a158,158,0,0,1-23.54-14.23l-2.64-1.88c-1.08-.86-1.9-1.51-2.47-1.94l-9.28-7.7a51.32,51.32,0,0,1-4.16-3.79,184.84,184.84,0,0,1-13.71-14.48L285.75,309l3.48,4.85q6.25,7.46,13.63,14.7l18.54,15.55a166.17,166.17,0,0,0,23.52,14.47l13.56,6.15q.24.1,7.24,2.68l7.4,2.38a157.63,157.63,0,0,0,31.58,6.29c2.27.29,5,.5,8.11.61,1.8.09,4.49.18,8,.29q2.64-.12,7.91-.29c3-.16,5.6-.39,7.68-.71a63.25,63.25,0,0,0,7.54-1q2.41-.39,7.23-1.32l7-1.82q4-1.09,6.78-2.08a145.5,145.5,0,0,0,42.84-23.15,169.61,169.61,0,0,0,24-22.34q2.67-2.83,5.77-6.75l1.51-1.84Z"/></g><g id="Duplicate_Items_Folder_Symbol_6_copy_32_0_Layer1_0_MEMBER_0_MEMBER_1_MEMBER_0_MEMBER_0_MEMBER_0_FILL" data-name="Duplicate Items Folder Symbol 6 copy 32 0 Layer1 0 MEMBER 0 MEMBER 1 MEMBER 0 MEMBER 0 MEMBER 0 FILL"><path class="cls-6" d="M536.18,315a13.83,13.83,0,0,1,3.43,2.3,17.68,17.68,0,0,1,2.72,3.17,14.75,14.75,0,0,1,1.53,3.05,4.23,4.23,0,0,1,.32,1.28l.3,1.88.08-1.94a11,11,0,0,0-.25-1.35,11.2,11.2,0,0,0-1.22-3.42,13,13,0,0,0-2.78-3.47,11.45,11.45,0,0,0-3.8-2.31,10.17,10.17,0,0,0-3.48-.81l-1.42-.06-1.88.31.9,0,1,.11a4.26,4.26,0,0,1,1.27.2A11.61,11.61,0,0,1,536.18,315Z"/></g><g id="Duplicate_Items_Folder_Symbol_6_copy_32_0_Layer1_0_MEMBER_0_MEMBER_2_MEMBER_0_MEMBER_0_MEMBER_0_FILL" data-name="Duplicate Items Folder Symbol 6 copy 32 0 Layer1 0 MEMBER 0 MEMBER 2 MEMBER 0 MEMBER 0 MEMBER 0 FILL"><path class="cls-6" d="M290.91,305.5a14,14,0,0,0-3.59,2,17.86,17.86,0,0,0-2.95,3,14.24,14.24,0,0,0-1.76,2.93,3.78,3.78,0,0,0-.42,1.25l-.45,1.85.08-1.94a9.07,9.07,0,0,1,.35-1.33,11,11,0,0,1,1.47-3.31,13.1,13.1,0,0,1,3-3.24,11.49,11.49,0,0,1,4-2,10.44,10.44,0,0,1,3.53-.54l1.42.06,1.85.44-.89-.1-1.05,0a4.13,4.13,0,0,0-1.27.1A12.16,12.16,0,0,0,290.91,305.5Z"/></g><g id="Duplicate_Items_Folder_vv_copy_9_271_Layer9_0_FILL" data-name="Duplicate Items Folder vv copy 9 271 Layer9 0 FILL"><path class="cls-1" d="M335.19,185.85A48.72,48.72,0,0,0,302.33,172a47.16,47.16,0,0,0-31.7,10.32q-14.19,14.34-14.75,33.18-.74,22.11,18,37.28a59.27,59.27,0,0,0,27.18,12.43,55.06,55.06,0,0,0,29.28-2.42q15-5.37,20.33-16.85,3.88-8.12,2.95-19.91a63.79,63.79,0,0,0-5.69-22.12A57.71,57.71,0,0,0,335.19,185.85Z"/></g><g class="cls-20"><g id="Duplicate_Items_Folder_Symbol_25_copy_7_0_Layer0_0_MEMBER_0_FILL" data-name="Duplicate Items Folder Symbol 25 copy 7 0 Layer0 0 MEMBER 0 FILL"><path class="cls-21" d="M341.83,224.82q0-16.53-10.22-28.22t-24.86-11.7q-14.53,0-24.75,11.69t-10.32,28.23q0,16.65,10.32,28.34t24.75,11.69q14.53,0,24.86-11.69T341.83,224.82Z"/></g><g id="Duplicate_Items_Folder_Symbol_25_copy_7_0_Layer0_0_MEMBER_1_FILL" data-name="Duplicate Items Folder Symbol 25 copy 7 0 Layer0 0 MEMBER 1 FILL"><path d="M331.82,224.82a29.48,29.48,0,0,0-7.27-20.11q-7.37-8.43-17.8-8.43t-17.69,8.43a29.23,29.23,0,0,0-7.37,20.11,29.66,29.66,0,0,0,7.37,20.23q7.37,8.31,17.69,8.32t17.8-8.32A29.67,29.67,0,0,0,331.82,224.82Z"/></g><g id="Duplicate_Items_Folder_Symbol_25_copy_7_0_Layer0_0_MEMBER_2_FILL" data-name="Duplicate Items Folder Symbol 25 copy 7 0 Layer0 0 MEMBER 2 FILL"><path class="cls-1" d="M281.37,213.76a5.91,5.91,0,0,0,0,7.8,4.38,4.38,0,0,0,6.74,0,5.88,5.88,0,0,0,0-7.8,4.22,4.22,0,0,0-6.74,0Z"/></g><g id="Duplicate_Items_Folder_Symbol_25_copy_7_0_Layer0_0_MEMBER_3_FILL" data-name="Duplicate Items Folder Symbol 25 copy 7 0 Layer0 0 MEMBER 3 FILL"><path class="cls-1" d="M319.6,241.68a5.9,5.9,0,0,0,2.95,4.1,6.26,6.26,0,0,0,5.16.11,8.36,8.36,0,0,0,4.22-4,8.22,8.22,0,0,0,.84-5.69,5.64,5.64,0,0,0-8-4.32,8.32,8.32,0,0,0-4.22,4A8.94,8.94,0,0,0,319.6,241.68Z"/></g></g><g id="Duplicate_Items_Folder_vv_copy_9_271_Layer5_0_FILL" data-name="Duplicate Items Folder vv copy 9 271 Layer5 0 FILL"><path class="cls-22" d="M255.67,209l.84-10.74,2.43-5.27a52.78,52.78,0,0,1,10.95-13.69,60.93,60.93,0,0,1,8.53-6.21A43.51,43.51,0,0,1,289,168.58a45.76,45.76,0,0,1,25.18-.32,50.67,50.67,0,0,1,18,8.74,49.46,49.46,0,0,1,12.64,13.59,61.74,61.74,0,0,1,10.11,28.55,57.88,57.88,0,0,1-.11,11.58A64.92,64.92,0,0,1,353,239l-2.53,6.85,1-7.06a79.81,79.81,0,0,0,0-8.21A70.49,70.49,0,0,0,349.62,220a61.83,61.83,0,0,0-12.21-24.12q-10.86-13.49-26-17.28a41.18,41.18,0,0,0-19.8-.42,45,45,0,0,0-8.85,3.06,55.7,55.7,0,0,0-19,15.06Q260.51,201.65,255.67,209Z"/></g><g id="Duplicate_Items_Folder_vv_copy_9_271_Layer4_0_FILL" data-name="Duplicate Items Folder vv copy 9 271 Layer4 0 FILL"><path class="cls-1" d="M493.19,185.85A48.77,48.77,0,0,1,526.05,172a47.27,47.27,0,0,1,31.7,10.32q14.19,14.35,14.75,33.18.74,22.13-18,37.29a59.52,59.52,0,0,1-27.18,12.43A55.06,55.06,0,0,1,498,262.74q-15-5.37-20.33-16.85-3.9-8.12-2.95-19.91a63.46,63.46,0,0,1,5.69-22.11A57.64,57.64,0,0,1,493.19,185.85Z"/></g><g class="cls-23"><g id="Duplicate_Items_Folder_Symbol_25_copy_7_0_Layer0_0_MEMBER_0_FILL-2" data-name="Duplicate Items Folder Symbol 25 copy 7 0 Layer0 0 MEMBER 0 FILL"><path class="cls-21" d="M560.17,224.2q0-16.55-10.21-28.23T525.1,184.28q-14.54,0-24.75,11.69T490,224.19q0,16.65,10.32,28.34t24.75,11.69q14.53,0,24.86-11.69T560.17,224.2Z"/></g><g id="Duplicate_Items_Folder_Symbol_25_copy_7_0_Layer0_0_MEMBER_1_FILL-2" data-name="Duplicate Items Folder Symbol 25 copy 7 0 Layer0 0 MEMBER 1 FILL"><path d="M550.17,224.2a29.49,29.49,0,0,0-7.27-20.12q-7.36-8.43-17.8-8.43t-17.69,8.43A29.24,29.24,0,0,0,500,224.19a29.71,29.71,0,0,0,7.37,20.23q7.38,8.33,17.7,8.32t17.8-8.32A29.66,29.66,0,0,0,550.17,224.2Z"/></g><g id="Duplicate_Items_Folder_Symbol_25_copy_7_0_Layer0_0_MEMBER_2_FILL-2" data-name="Duplicate Items Folder Symbol 25 copy 7 0 Layer0 0 MEMBER 2 FILL"><path class="cls-1" d="M499.72,213.13a5.88,5.88,0,0,0,0,7.8,4.38,4.38,0,0,0,6.74,0,5.9,5.9,0,0,0,0-7.79,4.21,4.21,0,0,0-6.74,0Z"/></g><g id="Duplicate_Items_Folder_Symbol_25_copy_7_0_Layer0_0_MEMBER_3_FILL-2" data-name="Duplicate Items Folder Symbol 25 copy 7 0 Layer0 0 MEMBER 3 FILL"><path class="cls-1" d="M538,241.05a5.88,5.88,0,0,0,2.95,4.11,6.3,6.3,0,0,0,5.16.1,8.3,8.3,0,0,0,4.21-4,8.17,8.17,0,0,0,.85-5.69,5.64,5.64,0,0,0-8-4.32,8.34,8.34,0,0,0-4.21,4A8.88,8.88,0,0,0,538,241.05Z"/></g></g><g id="Duplicate_Items_Folder_vv_copy_9_271_Layer0_0_FILL" data-name="Duplicate Items Folder vv copy 9 271 Layer0 0 FILL"><path class="cls-22" d="M572.5,209l-.84-10.75L569.23,193a52.82,52.82,0,0,0-11-13.69,61.81,61.81,0,0,0-8.53-6.22,43.51,43.51,0,0,0-10.53-4.53,45.76,45.76,0,0,0-25.18-.31A50.33,50.33,0,0,0,496,177a49.29,49.29,0,0,0-12.64,13.58,61.74,61.74,0,0,0-10.11,28.55,58.58,58.58,0,0,0,.1,11.58,67,67,0,0,0,1.79,8.33l2.53,6.84-.95-7.06a79.81,79.81,0,0,1,0-8.21A73.1,73.1,0,0,1,478.54,220a61.85,61.85,0,0,1,12.22-24.12q10.86-13.49,26-17.27a40.93,40.93,0,0,1,19.8-.42,45.67,45.67,0,0,1,8.85,3.05,54,54,0,0,1,7.69,4.53,51.94,51.94,0,0,1,11.27,10.53Q567.65,201.65,572.5,209Z"/></g><g id="Duplicate_Items_Folder_Symbol_1_copy_12_271_Layer4_0_FILL" data-name="Duplicate Items Folder Symbol 1 copy 12 271 Layer4 0 FILL"><path d="M466.44,141.61q6.66-3.57,18-6a114.65,114.65,0,0,1,25.67-2.2q33.72.76,51.65,19.58-29.38-6.36-40.34-6.49a69.39,69.39,0,0,0-40.48,12.62q-7.73,5.29-11.93-5.62Q466.35,141.61,466.44,141.61Z"/></g><g id="Duplicate_Items_Folder_Symbol_1_copy_12_271_Layer3_0_FILL" data-name="Duplicate Items Folder Symbol 1 copy 12 271 Layer3 0 FILL"><path d="M364.35,139.52q-6.56-3.74-17.83-6.39a114.73,114.73,0,0,0-25.6-2.84q-33.74-.06-52.12,18.31,29.54-5.64,40.49-5.5a69.4,69.4,0,0,1,40.16,13.62q7.57,5.47,12.06-5.33Q364.43,139.52,364.35,139.52Z"/></g><g id="Duplicate_Items_Folder_Symbol_7_copy_9_0_Layer0_0_MEMBER_0_FILL" data-name="Duplicate Items Folder Symbol 7 copy 9 0 Layer0 0 MEMBER 0 FILL"><path class="cls-24" d="M358.75,47.92q2.61-16,5.67-33.86a15.64,15.64,0,0,1,8.06-11.52Q379.23-1.26,388,.61q14.64,3,23,4A55.83,55.83,0,0,0,426,3.94q2.77-.47,14.47-3.11a22,22,0,0,1,15.8,1.86,18,18,0,0,1,9.16,11.66q6.76,25.23,8.14,31.19a9,9,0,0,0,2.59,4.94c.64.62,2.22,1.2,4.75,1.72q2,.16,5.91.77L487,53q18.63,2.9,27.16,6.71c3.21,1.45,5.42,3.14,6.65,5.08q4.74,7.53-1,12.18-6.47,5.28-17.51,8.86-4.6,1.55-19.45,5.11-31.2,7.68-73.71,6.29a209.79,209.79,0,0,1-31.67-3.21,256,256,0,0,1-31.07-8.35,100,100,0,0,1-12-4.6,46.58,46.58,0,0,1-10.67-6.72q-5.87-5.07-1.42-12.23,1.67-2.76,8.53-5.64,9.52-3.92,23.92-4.89a4.56,4.56,0,0,0,2.85-1.05A4.83,4.83,0,0,0,358.75,47.92Z"/></g><g id="Duplicate_Items_Folder_Symbol_7_copy_9_0_Layer0_0_MEMBER_1_MEMBER_0_FILL" data-name="Duplicate Items Folder Symbol 7 copy 9 0 Layer0 0 MEMBER 1 MEMBER 0 FILL"><path class="cls-25" d="M360.34,58.08a9.64,9.64,0,0,1-1.2-6,21.19,21.19,0,0,0,6,5.91,34,34,0,0,0,9.12,4,96.28,96.28,0,0,0,16.44,3.44q6.87.91,16.71,1.3,30,1.35,53.41-4.46,10.42-2.48,14.18-8.92-1.21,9.88-9.47,13.77a54.31,54.31,0,0,1-9.88,3.33q-30.69,7-67.81,1.71-14.34-2.1-22.71-8.45A15.64,15.64,0,0,1,360.34,58.08Z"/></g><g id="Duplicate_Items_Folder_Symbol_7_copy_9_0_Layer0_1_MEMBER_0_FILL" data-name="Duplicate Items Folder Symbol 7 copy 9 0 Layer0 1 MEMBER 0 FILL"><path class="cls-24" d="M358.75,47.92q2.61-16,5.67-33.86a15.64,15.64,0,0,1,8.06-11.52Q379.23-1.26,388,.61q14.64,3,23,4A55.83,55.83,0,0,0,426,3.94q2.77-.47,14.47-3.11a22,22,0,0,1,15.8,1.86,18,18,0,0,1,9.16,11.66q6.76,25.23,8.14,31.19a9,9,0,0,0,2.59,4.94c.64.62,2.22,1.2,4.75,1.72q2,.16,5.91.77L487,53q18.63,2.9,27.16,6.71c3.21,1.45,5.42,3.14,6.65,5.08q4.74,7.53-1,12.18-6.47,5.28-17.51,8.86-4.6,1.55-19.45,5.11-31.2,7.68-73.71,6.29a209.79,209.79,0,0,1-31.67-3.21,256,256,0,0,1-31.07-8.35,100,100,0,0,1-12-4.6,46.58,46.58,0,0,1-10.67-6.72q-5.87-5.07-1.42-12.23,1.67-2.76,8.53-5.64,9.52-3.92,23.92-4.89a4.56,4.56,0,0,0,2.85-1.05A4.83,4.83,0,0,0,358.75,47.92Z"/></g><g id="Duplicate_Items_Folder_Symbol_7_copy_9_0_Layer0_1_MEMBER_1_MEMBER_0_FILL" data-name="Duplicate Items Folder Symbol 7 copy 9 0 Layer0 1 MEMBER 1 MEMBER 0 FILL"><path class="cls-25" d="M360.34,58.08a9.64,9.64,0,0,1-1.2-6,21.19,21.19,0,0,0,6,5.91,34,34,0,0,0,9.12,4,96.28,96.28,0,0,0,16.44,3.44q6.87.91,16.71,1.3,30,1.35,53.41-4.46,10.42-2.48,14.18-8.92-1.21,9.88-9.47,13.77a54.31,54.31,0,0,1-9.88,3.33q-30.69,7-67.81,1.71-14.34-2.1-22.71-8.45A15.64,15.64,0,0,1,360.34,58.08Z"/></g><g id="Duplicate_Items_Folder_Symbol_5_copy_12_0_Layer0_0_MEMBER_0_MEMBER_0_FILL" data-name="Duplicate Items Folder Symbol 5 copy 12 0 Layer0 0 MEMBER 0 MEMBER 0 FILL"><path class="cls-2" d="M470.23,247.18a98.75,98.75,0,0,0-17.81-14.27Q430.79,219.16,412,221.68t-34.55,15.66a75.55,75.55,0,0,0-9,8.82l-3.09,3.89a220.74,220.74,0,0,0-29.95,74.75,264.63,264.63,0,0,0-3.71,80.63q1.75,17.24,10.3,40.31,5,13.29,15.84,39.34,8.93,22.79,11.17,37.94,2.94,20-3.58,36a19.43,19.43,0,0,0-2.81-16.43q-5.19-7.46-15.15-10a34.45,34.45,0,0,0-18.91.35q-17.92,5.33-26.84,24.23Q293,575.85,299.17,594q8.35,25,35.81,33.32,23.88,7.24,50.9-.31,32.6-9.13,59.95-36.34,24.29-24.29,40.22-58.2,18.07-38.5,24.54-85.43a410.81,410.81,0,0,0,1.9-89.12,224,224,0,0,0-12.6-58.9Q489,269.24,470.23,247.18Z"/></g><g id="Duplicate_Items_Folder_Symbol_5_copy_12_0_Layer0_0_MEMBER_1_MEMBER_0_MEMBER_0_MEMBER_0_MEMBER_0_FILL" data-name="Duplicate Items Folder Symbol 5 copy 12 0 Layer0 0 MEMBER 1 MEMBER 0 MEMBER 0 MEMBER 0 MEMBER 0 FILL"><path class="cls-6" d="M479.71,259.52l-3.4-4.49,3.33,4.56q4.25,6.39,6.26,9.88a185.57,185.57,0,0,1,13.56,28.88,178.58,178.58,0,0,1,5.88,19c.65,2.26,1.5,5.79,2.58,10.6q.66,3.69,2,11.27a244.47,244.47,0,0,1,2.61,24.43q.81,9.89,1.06,26.63a389.05,389.05,0,0,1-3.84,58.65q-2.07,14.68-6,31.25-4.23,16.63-9.68,31.67-4.78,12.23-6.44,15.76-2.61,5.85-3.63,7.84l-4,7.75a207.72,207.72,0,0,1-19.2,29.57q-23.23,30-52.53,44.89l-3.78,1.85a31.42,31.42,0,0,1-3.78,1.7l-3.92,1.55a23.3,23.3,0,0,1-3.85,1.47c-3.47,1.16-6.08,2-7.84,2.5-2.71.73-5.36,1.34-8,1.82a93.25,93.25,0,0,1-31.48.72q-16.31-2.41-27.91-10.63a49.91,49.91,0,0,1-10.37-9.9,47.14,47.14,0,0,1-6.88-12.05q-4.86-11.85-2.65-26.08l1-4.61,3.2-8.74,3.75-6.48a23.39,23.39,0,0,1,1.63-2.43q7.56-9.68,17.23-13.7a34.37,34.37,0,0,1,19.42-2.58,27.21,27.21,0,0,1,15.45,7.1,22.26,22.26,0,0,1,4.48,6.1,18.92,18.92,0,0,1,1.78,6.62A21.92,21.92,0,0,1,364,563.18a18,18,0,0,1-5.1,6.75,15.8,15.8,0,0,1-4.62,2.5,14.6,14.6,0,0,0,4.62-2.42,18.32,18.32,0,0,0,5.17-6.75A22.07,22.07,0,0,0,366,551.87a20.24,20.24,0,0,0-6.26-12.94,27.39,27.39,0,0,0-15.59-7.18,35,35,0,0,0-19.65,2.5A41.85,41.85,0,0,0,307.11,548a24.37,24.37,0,0,0-1.78,2.43L301.58,557l-1.82,4.29-1.8,6.08-1.31,8,.09,8.29a49.43,49.43,0,0,0,10.06,25.59,49.15,49.15,0,0,0,10.51,10q11.9,8.44,28.21,10.86a93.45,93.45,0,0,0,31.86-.71c2.55-.43,5.23-1,8-1.81l7.91-2.43c.9-.27,2.21-.76,3.92-1.47l3.85-1.62a34.24,34.24,0,0,0,3.86-1.7l3.78-1.85q29.52-15,52.91-45.11A215,215,0,0,0,481,543.65q1.18-2.07,3.93-7.75,1.57-3.1,3.64-7.84,1.8-3.84,6.51-15.83a331.24,331.24,0,0,0,9.69-31.82q3.93-17.25,5.93-31.32a404.57,404.57,0,0,0,3.69-58.81Q514,374,513.24,363.64q-.75-11.75-2.75-24.51-1.46-7.65-2.12-11.33-2.5-10.38-2.58-10.53-2-7.83-6-19.06a184,184,0,0,0-13.71-28.82Q484.55,266.75,479.71,259.52Z"/></g><g id="Duplicate_Items_Folder_Symbol_5_copy_12_0_Layer0_0_MEMBER_1_MEMBER_1_MEMBER_0_MEMBER_0_MEMBER_0_FILL" data-name="Duplicate Items Folder Symbol 5 copy 12 0 Layer0 0 MEMBER 1 MEMBER 1 MEMBER 0 MEMBER 0 MEMBER 0 FILL"><path class="cls-6" d="M363.19,253.65l-1.56,2.58q-1.49,2.36-2.73,4.64l-3.29,6c-.1.24-1.29,2.66-3.54,7.23q-1.26,2.44-3.8,8.51-1.18,2.66-3.83,9.69-3.27,8.52-7.13,22.77l-2.87,13-2.29,14a270.34,270.34,0,0,0-.95,62.68,153.81,153.81,0,0,0,2.74,16.36q1.62,6.69,4.4,15.43,3.69,11,10.81,28.3,7,16.69,10.36,25.37a221.57,221.57,0,0,1,7.29,22.67,105.52,105.52,0,0,1,3,19.36,66.92,66.92,0,0,1-1,14.78l-1,4.38,1.15-4.3a72.77,72.77,0,0,0,1.12-14.85,96.26,96.26,0,0,0-2.81-19.5,202,202,0,0,0-7.14-22.82q-2.52-6.8-10.21-25.44-6.76-16.47-10.66-28.3-2.77-8.65-4.33-15.35a137.88,137.88,0,0,1-2.74-16.14,274.74,274.74,0,0,1,.8-62.54L338,315.22q3.48-13.37,6.92-22.78,3-8.07,3.75-9.7,2.87-6.87,3.72-8.5Z"/></g><g id="Duplicate_Items_Folder_Symbol_5_copy_12_0_Layer0_0_MEMBER_1_MEMBER_2_MEMBER_0_MEMBER_0_FILL" data-name="Duplicate Items Folder Symbol 5 copy 12 0 Layer0 0 MEMBER 1 MEMBER 2 MEMBER 0 MEMBER 0 FILL"><path class="cls-6" d="M469.26,319.66l-4.6-1.39q-1.79-.57-5.05-1.32-2.89-.82-11.15-2.44a186.88,186.88,0,0,0-26.18-2.37,178.1,178.1,0,0,0-26.2,1.9q-9.39,1.71-11.27,2.18c-3,.73-4.68,1.13-5,1.23l-4.66,1.3-7.84,2.57-10.64,4.22,10.78-3.92c.1,0,1.33-.44,3.69-1.17q2.41-.76,4.14-1.17l9.7-2.38q1.81-.4,11.26-2a187.26,187.26,0,0,1,26.06-1.75,195.1,195.1,0,0,1,26,2.21q10.56,2.06,11.15,2.22c2.83.67,4.51,1.08,5.06,1.25l4.6,1.3c1.43.39,4,1.23,7.78,2.51l10.74,4.08L477,322.39C473.49,321.06,470.89,320.14,469.26,319.66Z"/></g><g id="Duplicate_Items_Folder_Symbol_5_copy_12_0_Layer0_0_MEMBER_1_MEMBER_3_MEMBER_0_MEMBER_0_FILL" data-name="Duplicate Items Folder Symbol 5 copy 12 0 Layer0 0 MEMBER 1 MEMBER 3 MEMBER 0 MEMBER 0 FILL"><path class="cls-6" d="M468,368.8q-4.07-1.59-6.59-2.33L453.22,364c-1.59-.49-4.76-1.26-9.51-2.33a160.54,160.54,0,0,0-22.28-3,172.14,172.14,0,0,0-22.42.19q-8,.84-9.75,1.1l-8.4,1.44q-1,.19-6.92,1.55L366.72,365l2.18-.54c2.6-.63,4.31-1,5.11-1.22,4.1-.8,6.41-1.24,6.91-1.32l4.05-.65q.3-.07,4.35-.57,2.25-.32,9.74-1a201.19,201.19,0,0,1,22.27,0,195.37,195.37,0,0,1,22.21,2.79q8.91,2,9.51,2.18l8.17,2.29q2.52.66,6.67,2.19l9.18,3.44-4.14-1.75A47.28,47.28,0,0,0,468,368.8Z"/></g><g id="Duplicate_Items_Folder_Symbol_5_copy_12_0_Layer0_0_MEMBER_1_MEMBER_4_MEMBER_0_MEMBER_0_FILL" data-name="Duplicate Items Folder Symbol 5 copy 12 0 Layer0 0 MEMBER 1 MEMBER 4 MEMBER 0 MEMBER 0 FILL"><path class="cls-6" d="M469.45,411.74q-5.32-2.07-6.29-2.4l-7.79-2.43q-2.44-.81-9.13-2.32a145.07,145.07,0,0,0-21.23-3,159,159,0,0,0-21.53.22q-7.35.85-9.3,1.19l-8,1.44-6.55,1.64-9,2.69,9-2.39,6.61-1.41,8-1.3q2-.31,9.29-1a159.36,159.36,0,0,1,42.47,2.69c5.64,1.33,8.66,2.06,9.06,2.17l7.79,2.28c.55.16,2.67.89,6.38,2.18l8.73,3.58-3.92-1.82Q471.89,412.71,469.45,411.74Z"/></g><g id="Duplicate_Items_Folder_Symbol_5_copy_12_0_Layer0_0_MEMBER_1_MEMBER_5_MEMBER_0_MEMBER_0_FILL" data-name="Duplicate Items Folder Symbol 5 copy 12 0 Layer0 0 MEMBER 1 MEMBER 5 MEMBER 0 MEMBER 0 FILL"><path class="cls-6" d="M462.9,459.19,460,457.48c-1.28-.78-2.41-1.41-3.39-1.88q-3.33-1.73-4.65-2.36l-5.77-2.46c-1.58-.64-3.86-1.41-6.82-2.33a98,98,0,0,0-16.29-3.4,101.62,101.62,0,0,0-16.5-.55c-3.3.21-5.69.43-7.19.64l-6.23,1q-.75.13-5,1.15a34.66,34.66,0,0,0-3.84,1.1l-3.16,1,3.23-.82q2.49-.61,3.84-.87c2.4-.54,4.08-.88,5-1l6.22-.82c.35,0,2.75-.21,7.19-.49a112.92,112.92,0,0,1,16.35.7,109.57,109.57,0,0,1,16.14,3.16q5.49,1.71,6.83,2.19l5.77,2.31a41.83,41.83,0,0,1,4.73,2.13,21.19,21.19,0,0,1,3.47,1.73Z"/></g><g id="Duplicate_Items_Folder_Symbol_5_copy_12_0_Layer0_0_MEMBER_1_MEMBER_6_MEMBER_0_MEMBER_0_FILL" data-name="Duplicate Items Folder Symbol 5 copy 12 0 Layer0 0 MEMBER 1 MEMBER 6 MEMBER 0 MEMBER 0 FILL"><path class="cls-6" d="M446.24,486.14a78.28,78.28,0,0,0-9.18-3.52A69.64,69.64,0,0,0,425.24,480a77.59,77.59,0,0,0-12-.59q-5.31.31-9.82,1l-8.79,2.18,8.93-1.65a79.68,79.68,0,0,1,9.66-.66,92.32,92.32,0,0,1,11.94.75A80.31,80.31,0,0,1,446,486.65c.84.32,2,.82,3.4,1.51l4.73,2.36-4.57-2.66A28.47,28.47,0,0,0,446.24,486.14Z"/></g><g id="Duplicate_Items_Folder_Symbol_5_copy_12_0_Layer0_0_MEMBER_1_MEMBER_7_MEMBER_0_MEMBER_0_FILL" data-name="Duplicate Items Folder Symbol 5 copy 12 0 Layer0 0 MEMBER 1 MEMBER 7 MEMBER 0 MEMBER 0 FILL"><path class="cls-6" d="M401.05,509.24l-1.43.18,1.5,0c1.2-.07,2.49-.09,3.89-.06a64.47,64.47,0,0,1,12.89,1.37,65.58,65.58,0,0,1,12.39,3.82l4.88,2.21-1.25-.78a35.72,35.72,0,0,0-3.47-2,51.07,51.07,0,0,0-12.37-4.34,49.19,49.19,0,0,0-13.06-.85A26.59,26.59,0,0,0,401.05,509.24Z"/></g><path class="cls-2" d="M145.26,585.94c-11.72,8-27.49,15.39-37.25,25.66-6.53,6.87-6,17-14.56,22.87-5.72,3.94-12.86,5.41-19.79,5.29-4.93-.08-9.47.76-13.23-2.42-4.19-3.55-6.52-11-7.08-16.5a49.63,49.63,0,0,1,18-43c19.72-15.82,55.77-14,74.18,3.25.83.78,1.69,1.8,1.46,2.91A3.51,3.51,0,0,1,145.26,585.94Z"/><path class="cls-26" d="M84,570.78l1.74-.56,2.11-.67,2.94-.71c1.09-.31,2.35-.47,3.7-.72s2.86-.38,4.46-.56a24.71,24.71,0,0,1,2.49-.18l2.66-.12,2.81,0,1.46,0,1.5.11a64.38,64.38,0,0,1,13,2.19,57.53,57.53,0,0,1,14,5.75,36.22,36.22,0,0,1,3.4,2.18l1.67,1.2c.57.39,1.05.88,1.59,1.32,1,.92,2.29,1.78,2.79,2.86a1.36,1.36,0,0,1-.11,1.49,6,6,0,0,1-1.52,1.25c-4.84,3.24-10.09,6.26-15.4,9.48a148,148,0,0,0-15.08,10.15,64.27,64.27,0,0,0-6.44,5.82,25.43,25.43,0,0,0-4.54,7.06c-1.13,2.47-2,4.94-3.1,7.22a24.5,24.5,0,0,1-3.88,6.13,20.34,20.34,0,0,1-5.36,4.11A29.72,29.72,0,0,1,85,638.06a39.13,39.13,0,0,1-10.76,1.51,29.86,29.86,0,0,1-8.17-.92,17.31,17.31,0,0,1-4.79-2c-.5-.33-.87-.58-1.11-.78l-.37-.28.36.29c.23.2.6.47,1.09.82A17.5,17.5,0,0,0,66,638.83,29.89,29.89,0,0,0,74.24,640a38.75,38.75,0,0,0,10.93-1.32,30,30,0,0,0,6-2.35,21.06,21.06,0,0,0,5.63-4.19,24.79,24.79,0,0,0,4.11-6.28c1.13-2.32,2-4.79,3.19-7.19a24.48,24.48,0,0,1,4.4-6.74,64.63,64.63,0,0,1,6.37-5.67,153.21,153.21,0,0,1,15-10c5.3-3.22,10.55-6.27,15.42-9.57a6.85,6.85,0,0,0,1.81-1.54,2.49,2.49,0,0,0,.47-1.29,2.72,2.72,0,0,0-.27-1.32,6.12,6.12,0,0,0-1.47-1.82l-1.64-1.4c-.55-.44-1.06-1-1.64-1.34l-1.72-1.21a36.86,36.86,0,0,0-3.49-2.19,58,58,0,0,0-14.25-5.68,63.85,63.85,0,0,0-13.2-2l-1.51-.09H104l-2.67.18a24.68,24.68,0,0,0-2.5.23c-1.61.22-3.11.36-4.46.67s-2.62.47-3.71.8l-2.92.79-2.09.73Z"/><path class="cls-2" d="M644.63,585.1c13.87,7.8,32.24,14.58,44.14,25.13,8,7.07,8.39,18.44,18.49,24.2,6.77,3.86,14.9,4.81,22.65,4,5.51-.57,10.67-.06,14.57-4,4.34-4.38,4.68-13.39,4.79-19.55.31-18.19-7.58-35.84-22.69-46-23.58-15.81-63.74-10.33-82.68,10.76-.85.95-1.72,2.17-1.36,3.39A4,4,0,0,0,644.63,585.1Z"/><path class="cls-26" d="M711.76,562.25l-2-.51-2.41-.61-3.35-.6c-1.25-.27-2.67-.35-4.22-.54s-3.24-.22-5.06-.31c-.9-.06-1.84,0-2.82,0l-3,.07-3.17.26-1.66.14-1.68.24a71.46,71.46,0,0,0-14.56,3.51,64.64,64.64,0,0,0-15.39,7.71,44.1,44.1,0,0,0-3.69,2.79L647,575.9c-.62.5-1.13,1.11-1.71,1.66l-1.7,1.71a6.93,6.93,0,0,0-1.45,2.17,2.84,2.84,0,0,0-.17,1.46,2.68,2.68,0,0,0,.64,1.37,7.3,7.3,0,0,0,2.15,1.53c5.76,3.23,11.93,6.13,18.16,9.22a171.07,171.07,0,0,1,17.75,9.78,72.32,72.32,0,0,1,7.67,5.75,27.54,27.54,0,0,1,5.59,7.13c1.5,2.59,2.77,5.26,4.25,7.74a27.92,27.92,0,0,0,5.19,6.63,23.45,23.45,0,0,0,6.68,4.14,33.52,33.52,0,0,0,6.92,2.06,43.7,43.7,0,0,0,12.35.44,33.63,33.63,0,0,0,9.09-2,19.61,19.61,0,0,0,5.12-2.89,15,15,0,0,0,1.15-1l.37-.36-.38.36c-.25.24-.64.56-1.17,1a19.84,19.84,0,0,1-5.16,2.75,33.74,33.74,0,0,1-9,1.83,44.36,44.36,0,0,1-12.2-.65,34,34,0,0,1-6.76-2.13,23,23,0,0,1-6.41-4.1,27,27,0,0,1-5-6.49c-1.42-2.45-2.66-5.12-4.16-7.77a28.86,28.86,0,0,0-5.75-7.45,71.79,71.79,0,0,0-7.76-5.88,164.72,164.72,0,0,0-17.85-9.9c-6.25-3.1-12.41-6-18.14-9.15a6.75,6.75,0,0,1-1.84-1.26,1.61,1.61,0,0,1-.28-1.72c.48-1.29,1.82-2.37,2.87-3.49.56-.55,1.06-1.15,1.66-1.64l1.75-1.5a41.05,41.05,0,0,1,3.6-2.77,64.78,64.78,0,0,1,15.08-7.77A71.8,71.8,0,0,1,682.49,561l1.66-.27,1.64-.17,3.15-.32,3-.12c1,0,1.9-.08,2.81,0,1.81.06,3.49,0,5,.22s3,.21,4.22.45l3.35.52,2.42.55Z"/><rect class="cls-27" x="117.27" y="472.09" width="550.6" height="270.04"/><rect class="cls-28" x="127.19" y="483.7" width="529.56" height="254"/><text class="cls-29" transform="translate(328.16 526.4) scale(0.99 1)">Hello!<tspan x="-137.63" y="48.75">I am Mr.Elephiphi </tspan><tspan x="-60.57" y="97.49">I am gentle</tspan><tspan x="-58.86" y="146.24">I am loving</tspan><tspan x="-53.32" y="194.99">I am smart</tspan></text><path class="cls-30" d="M656.75,483.7c0-.73-210.66.41-224.09,1.78L418.21,487q102-.2,203.94,5.6c8.52.49,18.11,1.53,23.39,8.24,9.25,11.76,8.79,36.15,10.06,50.71,1.69,19.43,1.84,162.54.44,182C659.52,691.83,656.75,525.54,656.75,483.7Z"/><path class="cls-30" d="M127.19,737.11H474.43c32.49,0,131.13.44,163.39.44-65.85,0-197.58-7.34-263.42-9.11C315.6,726.86,191,732.53,169.71,705c-13.33-17.24-12.77-44.06-14.4-71.88-1.55-26.3.38-54.25,3.09-80,4.76-45.14,26.68-56.52,46.19-61.09,17.37-4.07,68.66-7.33,93.44-8.06-8.18-.92-170.84-1.3-170.84.07Z"/><g class="cls-31"><path class="cls-32" d="M127.19,737.29V484c11-.55,22-.51,33.05-.3-8.51.11-17.22.28-25.21,6-5.54,3.95-7.39,15.68-.62,19.36,1.71.93,3.53.72,5.3.52l3.83-.45a42.89,42.89,0,0,0-7.13,2.11,6.67,6.67,0,0,0-3,2,8.2,8.2,0,0,0-1.61,5c0,3.79.15,7.55.07,11.41q-.27,12.63-.46,25.28-.22,15.62-.35,31.22c0,5.83-.91,18.52,1.94,22.46a4.45,4.45,0,0,0,2.88,1.73,17.84,17.84,0,0,0,8.19,0,27.43,27.43,0,0,0-8.45,3.78,7.42,7.42,0,0,0-2.94,3.19c-1.12,2.42-1.25,6-1.31,9.2-.37,18-1.06,35.59-1.83,53.48-.45,10.23-.82,20.59-.65,30.86.13,7.79,2.69,9.51,6.2,10a78.91,78.91,0,0,0,16.6.7l-5.87.64a49.29,49.29,0,0,0-11.22,2.1,3.42,3.42,0,0,0-2.08,1.57c-2.78,4.83-.18,9.83,2.45,10.58l2.84.81C134.5,736.34,130.55,737.29,127.19,737.29Z"/></g><path class="cls-33" d="M100.67,457V764.59H686.19V457ZM660.14,741.19H123.74V480.35h536.4Z"/><g id="Layer0_4_MEMBER_3_MEMBER_0_MEMBER_0_FILL" data-name="Layer0 4 MEMBER 3 MEMBER 0 MEMBER 0 FILL"><path class="cls-34" d="M115.66,486.7l-.13,9.42q-.11,9.4-.1,24.44,0,13.73.07,24.47l.22,10.14.07-.71L116,545q.09-10.75.06-24.47L115.72,486Z"/></g><g id="Layer0_4_MEMBER_4_MEMBER_0_MEMBER_0_FILL" data-name="Layer0 4 MEMBER 4 MEMBER 0 MEMBER 0 FILL"><path class="cls-34" d="M105.61,551.92l-.23,20c0,2.63,0,81.44,0,87.36,0,8.7,0,65.46.06,72.31l.16,9c0,.45,0,.68.07.68l.19-9.65c.07-6,.1-62.73.1-72.31l-.29-107.47Z"/></g><g id="Layer0_3_MEMBER_2_MEMBER_0_MEMBER_0_FILL" data-name="Layer0 3 MEMBER 2 MEMBER 0 MEMBER 0 FILL"><path class="cls-34" d="M669.45,472.57a14.26,14.26,0,0,0-.09-1.51,12.25,12.25,0,0,0-.1,1.51l-.1,8.58q-.09,10.35-.09,13.52l.16,17.66a5.76,5.76,0,0,0,.13,1.48,7.24,7.24,0,0,0,.13-1.48l.09-4.1q.07-3.48.07-13.56,0-3.17-.1-13.52Z"/></g><g id="Layer0_3_MEMBER_3_MEMBER_0_MEMBER_0_FILL" data-name="Layer0 3 MEMBER 3 MEMBER 0 MEMBER 0 FILL"><path class="cls-34" d="M670.2,526.6l-.2-10.14-.06.71-.16,9.43q-.1,18.78-.1,24.43c0,10.05,0,92.75.1,99l.22,10.13.07-.71L670.29,551Q670.29,536,670.2,526.6Z"/></g><g id="Layer0_3_MEMBER_4_MEMBER_0_MEMBER_0_FILL" data-name="Layer0 3 MEMBER 4 MEMBER 0 MEMBER 0 FILL"><path class="cls-34" d="M681.61,548.29l0-.16-.29,107.47c0,9.57,0,66.34.09,72.3,0,3,0,5.39.1,7.07l.1,2.58s.06-.22.06-.67l.16-9c.05-4,.07-60.75.07-72.3Z"/></g><g id="Layer0_2_MEMBER_5_FILL" data-name="Layer0 2 MEMBER 5 FILL"><path class="cls-35" d="M685.92,753.41V751l-79.84,1.19Z"/></g><g id="Layer0_2_MEMBER_2_FILL" data-name="Layer0 2 MEMBER 2 FILL"><path class="cls-35" d="M100.8,753.14v1.59l254-1Z"/></g><g id="Layer0_2_MEMBER_3_MEMBER_0_MEMBER_0_FILL" data-name="Layer0 2 MEMBER 3 MEMBER 0 MEMBER 0 FILL"><path class="cls-36" d="M380.45,764.59l-1.08-12-1.35,12"/></g><g id="Layer0_2_MEMBER_4_MEMBER_0_MEMBER_0_FILL" data-name="Layer0 2 MEMBER 4 MEMBER 0 MEMBER 0 FILL"><path class="cls-34" d="M567.26,759.22l-6.56-.13q-6.71-.14-19.11-.19-19.46-.14-63,.22l-82.61.45,19.56.29q10.72.1,28.35,0l34.7-.23q44.55-.36,63-.39h26c.07,0,.1,0,.1,0h-.1Z"/></g><g class="cls-37"><g id="Layer0_1_MEMBER_5_FILL" data-name="Layer0 1 MEMBER 5 FILL"><path class="cls-36" d="M100.7,459.42V461l221.07-1Z"/></g></g><g class="cls-37"><g id="Layer0_1_MEMBER_5_FILL-2" data-name="Layer0 1 MEMBER 5 FILL"><path class="cls-36" d="M100.7,515.61V518l13.16-1Z"/></g></g><g id="Layer0_4_MEMBER_1_FILL" data-name="Layer0 4 MEMBER 1 FILL"><path class="cls-36" d="M123.81,720l2.48-1.61-2.48-1-10,1Z"/></g><g id="Layer0_4_MEMBER_1_FILL-2" data-name="Layer0 4 MEMBER 1 FILL"><polygon class="cls-38" points="123.81 717.35 123.81 719.99 126.29 718.38 123.81 717.35"/></g><g id="Layer0_1_MEMBER_6_MEMBER_0_MEMBER_0_FILL" data-name="Layer0 1 MEMBER 6 MEMBER 0 MEMBER 0 FILL"><path class="cls-34" d="M447.05,476.34s-.05,0-.13,0l-7.88-.22c-6.53-.17-13.54-.28-21.85-.39q-23.67-.26-32.38-.23c-4.15,0-7.28.1-9.36.16s-5.42.12-9.78.17q-13.4.06-20.53,0l-39.71-.42q-9.78-.17-32.41.16l-29.86.13,8,.23q10,.12,21.85,0l15.11-.13q9.56,0,17.3.13l19.14.35q8.82.14,20.57.13,7.16,0,20.53,0c4.36-.05,7.63-.1,9.78-.16l9.36-.2q10.59-.06,32.38.1Z"/></g><g id="Layer0_1_MEMBER_7_MEMBER_0_MEMBER_0_FILL" data-name="Layer0 1 MEMBER 7 MEMBER 0 MEMBER 0 FILL"><path class="cls-34" d="M580,461.28l-.13,0-25.8,0q-18.55,0-62.49-.29l-34.45-.13c-13.12,0-22.22,0-28.08,0l-21.11.32,2.16,0q9.66-.06,18.95,0l62.5.32q42.68.3,62.52.16l25.8-.42Z"/></g><g id="Layer0_1_MEMBER_8_FILL" data-name="Layer0 1 MEMBER 8 FILL"><path class="cls-35" d="M686.22,465.7v-2.42L607,464.63Z"/></g><g id="Layer0_1_MEMBER_3_MEMBER_0_FILL" data-name="Layer0 1 MEMBER 3 MEMBER 0 FILL"><path class="cls-36" d="M580.49,480.36l1.22,2.28,1.23-2.21-1-9Z"/></g><g id="Layer0_1_MEMBER_4_FILL" data-name="Layer0 1 MEMBER 4 FILL"><path class="cls-36" d="M339.91,457h-2.82l1.41,7.68Z"/></g><g class="cls-37"><g id="Layer0_1_MEMBER_5_FILL-3" data-name="Layer0 1 MEMBER 5 FILL"><path class="cls-36" d="M413.56,764.59H416"/></g></g><path class="cls-2" d="M141,649.82a2.72,2.72,0,0,1,1.4,1,2.6,2.6,0,0,1-.12,2.3c-3.85,9.63-15.57,13.31-25.94,13.81a82.59,82.59,0,0,1-47.21-12.4c-17.33-10.77-21.44-34.35-8.17-49.85,9-10.49,24.24-19.45,44.19-27.28,6.39-1.56,13,.31,19.31,2.28A142,142,0,0,1,144.5,588a7.13,7.13,0,0,1,3.17,2.31c1.44,2.28,0,5.24-1.38,7.53-3.17,5.15-6.39,10.39-10.95,14.39a30.16,30.16,0,0,1-5.1,3.65l0,.05q6.57,4.32,13.14,8.68a2,2,0,0,1,.87.91,1.79,1.79,0,0,1-.17,1.18c-2.59,7-5.46,14.45-11,19.39l.42.45C136,647.65,138.51,648.75,141,649.82Z"/><path class="cls-1" d="M141,649.82a2.72,2.72,0,0,1,1.4,1,2.6,2.6,0,0,1-.12,2.3,19.13,19.13,0,0,1-7,8.33c-1.85,1.34-7.2,2.79-8.26,4.13a7.78,7.78,0,0,0-7.29-12.51,45.49,45.49,0,0,0,.29-20.24c-1-4.48-3.12-9.34-7.47-10.75a33.45,33.45,0,0,0-3.2-45.18c5.3-.14,10,1.19,15.07,2.78A142,142,0,0,1,144.5,588a7.13,7.13,0,0,1,3.17,2.31c1.44,2.28,0,5.24-1.38,7.53-3.17,5.15-6.39,10.39-10.95,14.39a34.44,34.44,0,0,1-5.08,3.7q6.57,4.32,13.14,8.68a2,2,0,0,1,.87.91,1.79,1.79,0,0,1-.17,1.18c-2.59,7-5.46,14.45-11,19.39l.42.45C136,647.65,138.51,648.75,141,649.82Z"/><path class="cls-26" d="M130.26,615.94,140.41,623l2.47,1.7c.43.3.89.58,1,.9s-.08.78-.29,1.31c-.81,2.09-1.69,4.32-2.71,6.61-2,4.53-4.75,9.51-9.22,13.07a28,28,0,0,1-7.25,4,55.1,55.1,0,0,1-29.63,3.13c-1.06-.17-1.87-.34-2.42-.46l-.84-.18.83.23c.54.15,1.34.37,2.39.59a51.9,51.9,0,0,0,9,1.2A52.82,52.82,0,0,0,117.17,654a51.83,51.83,0,0,0,7.66-2.3,27.55,27.55,0,0,0,7.57-4.17,26.34,26.34,0,0,0,5.74-6.48,46.72,46.72,0,0,0,3.66-7.12c1-2.34,1.81-4.61,2.56-6.73.09-.26.19-.51.27-.83a1.62,1.62,0,0,0,0-1,3.09,3.09,0,0,0-1.32-1.21l-2.53-1.61Z"/><path class="cls-26" d="M105.12,577.42l1.09-.2a20,20,0,0,1,3.15-.26,37.55,37.55,0,0,1,11.4,1.95,120.8,120.8,0,0,1,16.12,6.1q2.22,1,4.51,2.12l2.32,1.13a17.73,17.73,0,0,1,2.25,1.2,3.67,3.67,0,0,1,1.48,1.75,4.14,4.14,0,0,1,.12,2.35,15.93,15.93,0,0,1-2.3,4.81,87.15,87.15,0,0,1-6.1,9,37.13,37.13,0,0,1-3.45,3.8,34.31,34.31,0,0,1-3.83,3.09,46.77,46.77,0,0,1-15.72,6.57c-4.78,1.13-8.74,1.68-11.46,2.08l-4.24.57,4.26-.39a109.19,109.19,0,0,0,11.57-1.68,45.83,45.83,0,0,0,16.16-6.32,33.09,33.09,0,0,0,4-3.13,37,37,0,0,0,3.6-3.87,83.84,83.84,0,0,0,6.23-9.11,16.9,16.9,0,0,0,2.44-5.2,5.26,5.26,0,0,0-.19-3,4.81,4.81,0,0,0-1.93-2.27,18.62,18.62,0,0,0-2.4-1.27l-2.34-1.1c-1.55-.72-3.07-1.42-4.57-2.07a112.18,112.18,0,0,0-16.37-5.75,37.06,37.06,0,0,0-11.57-1.56,20.06,20.06,0,0,0-3.15.4Z"/><path class="cls-26" d="M133.57,646.57l3,1.42,3.52,1.65a5.91,5.91,0,0,1,2,1.16,2.3,2.3,0,0,1-.13,2.32,17.84,17.84,0,0,1-3.39,5,21.76,21.76,0,0,1-5.63,4.13,40,40,0,0,1-15.56,4,83.54,83.54,0,0,1-16.26-.58,87.28,87.28,0,0,1-21.53-5.77c-1-.38-1.74-.75-2.26-1l-.79-.34.77.39c.5.24,1.23.64,2.2,1.08a77.8,77.8,0,0,0,8.4,3.39A80.35,80.35,0,0,0,101,666.71a75.83,75.83,0,0,0,16.48.77,39,39,0,0,0,16-4.29,22,22,0,0,0,5.74-4.46,17.79,17.79,0,0,0,3.35-5.38,4.38,4.38,0,0,0,.37-1.43,1.91,1.91,0,0,0-.41-1.42,2.88,2.88,0,0,0-1.11-.75l-1.09-.46-3.6-1.47Z"/><path class="cls-2" d="M655.62,656.92a3.25,3.25,0,0,0-1.48,1.28,2.93,2.93,0,0,0,.36,2.56c5.23,10.41,18.7,13.41,30.35,13,12.79-.47,25.58-3,37.06-8.8,10.49-5.32,22.7-13.58,25.85-25.5,3.79-14.33-.38-29.28-10.17-40.18A74.47,74.47,0,0,0,717.53,584c-8.49-4.62-19.13-10-28.75-11.54-7.3-1.13-14.55,1.6-21.39,4.4a158.94,158.94,0,0,0-21.66,11.24,8.05,8.05,0,0,0-3.32,2.89c-1.39,2.68.48,5.86,2.26,8.29,4.05,5.46,8.15,11,13.63,15.06a35.63,35.63,0,0,0,6.06,3.59l0,0q-6.93,5.47-13.86,11a2.19,2.19,0,0,0-.89,1.11,2,2,0,0,0,.3,1.31C653.47,639,657.39,647,664,652l-.41.55Z"/><path class="cls-1" d="M655.62,656.92a3.25,3.25,0,0,0-1.48,1.28,2.93,2.93,0,0,0,.36,2.56,21.42,21.42,0,0,0,8.58,8.66c2.21,1.32,8.33,2.43,9.64,3.83a8.74,8.74,0,0,1,7-14.7,51,51,0,0,1-2.28-22.62c.64-5.1,2.6-10.75,7.34-12.75a37.53,37.53,0,0,1-.77-50.85c-5.93.35-11.07,2.29-16.59,4.55a158.94,158.94,0,0,0-21.66,11.24,8.05,8.05,0,0,0-3.32,2.89c-1.39,2.68.48,5.86,2.26,8.29,4.05,5.46,8.15,11,13.63,15.06a40.36,40.36,0,0,0,6,3.64q-6.93,5.47-13.86,11a2.19,2.19,0,0,0-.89,1.11,2,2,0,0,0,.3,1.31C653.47,639,657.39,647,664,652l-.41.55Z"/><path class="cls-26" d="M664.35,618l-11.07,8.39-2.68,2a3.4,3.4,0,0,0-1.34,1.45,1.86,1.86,0,0,0,0,1.15c.12.34.26.61.39.9,1,2.3,2.18,4.75,3.51,7.27a53.4,53.4,0,0,0,4.78,7.6,29.92,29.92,0,0,0,7,6.69,31.43,31.43,0,0,0,8.85,3.93,58.92,58.92,0,0,0,23.92,1.86,59.57,59.57,0,0,0,9.94-2.17c1.15-.35,2-.68,2.62-.9l.91-.33-.92.29c-.61.18-1.5.46-2.66.76a63.83,63.83,0,0,1-10,1.76,62.26,62.26,0,0,1-14.92-.43,63.79,63.79,0,0,1-8.6-1.93,31.56,31.56,0,0,1-8.52-3.84,29.32,29.32,0,0,1-6.78-6.39,55.54,55.54,0,0,1-4.8-7.38c-1.37-2.47-2.56-4.88-3.66-7.14-.29-.58-.57-1.1-.45-1.47s.6-.75,1-1.13l2.61-2.13Z"/><path class="cls-26" d="M688.77,572.48l-1.23-.18a23.38,23.38,0,0,0-3.56-.13,41.76,41.76,0,0,0-12.79,2.88c-2.6,1-5.43,2.06-8.41,3.39s-6.1,2.89-9.33,4.64q-2.41,1.3-4.91,2.75c-.83.48-1.67,1-2.51,1.46a21.54,21.54,0,0,0-2.56,1.64,5.4,5.4,0,0,0-1.91,2.69,5.78,5.78,0,0,0,.08,3.35,18.71,18.71,0,0,0,3.21,5.56,93.3,93.3,0,0,0,7.84,9.59,42,42,0,0,0,4.39,4,37.76,37.76,0,0,0,4.77,3.11c6.53,3.59,13.19,4.84,18.66,5.54a124.42,124.42,0,0,0,13.1.79l4.8,0-4.79-.22c-3.09-.18-7.57-.4-13-1.2s-12-2.24-18.25-5.83a38,38,0,0,1-4.59-3.09,43.08,43.08,0,0,1-4.24-3.92,99.29,99.29,0,0,1-7.7-9.51,18.08,18.08,0,0,1-3-5.19,4.56,4.56,0,0,1-.09-2.68,4.19,4.19,0,0,1,1.51-2.13,20.83,20.83,0,0,1,2.41-1.57l2.49-1.49c1.64-1,3.26-1.91,4.85-2.8a135.81,135.81,0,0,1,17.47-8.35A42.28,42.28,0,0,1,684,572.36a24.45,24.45,0,0,1,3.55,0Z"/><path class="cls-26" d="M663.59,652.58l-3.32,1.7-3.87,2-1.18.62a3.28,3.28,0,0,0-1.16.94,2.13,2.13,0,0,0-.32,1.61,5.21,5.21,0,0,0,.55,1.55,20,20,0,0,0,4.27,5.67,24.65,24.65,0,0,0,6.85,4.43,44,44,0,0,0,18.24,3.25A86.09,86.09,0,0,0,702,671.93a89.88,89.88,0,0,0,14.31-4.83,86.11,86.11,0,0,0,9.09-4.57c1.05-.58,1.82-1.1,2.37-1.42l.82-.5-.85.46c-.56.29-1.36.77-2.43,1.3a99.82,99.82,0,0,1-9.22,4.18,97.57,97.57,0,0,1-14.32,4.39,92.81,92.81,0,0,1-18.14,2.22,44.69,44.69,0,0,1-17.82-3,24.26,24.26,0,0,1-6.7-4.11,19.39,19.39,0,0,1-4.28-5.33,2.63,2.63,0,0,1-.37-2.62,6.73,6.73,0,0,1,2.12-1.5l3.78-2.17Z"/></g></g></svg>