<svg xmlns="http://www.w3.org/2000/svg" xmlns:xlink="http://www.w3.org/1999/xlink" viewBox="0 0 452.28 613.11"><defs><style>.cls-1{fill:#fff;}.cls-2{fill:#dcb885;}.cls-3{fill:url(#linear-gradient);}.cls-4{fill:#d7a256;}.cls-5{fill:#f4d39c;}.cls-6{fill:#dcba87;}.cls-7{fill:#fffcf7;}.cls-8{fill:#c3c3c3;}.cls-9{fill:#f7dfbc;}.cls-10{fill:#e4cbaa;}.cls-11{fill:url(#linear-gradient-2);}.cls-12,.cls-25{fill:none;}.cls-12{stroke:#c3c3c3;stroke-miterlimit:9.35;stroke-width:0.62px;}.cls-13{fill:#fffefc;}.cls-14{fill:#dcad69;}.cls-15{fill:url(#linear-gradient-3);}.cls-16{fill:#252021;}.cls-17{fill:#e0a046;}.cls-18{fill:#241f20;}.cls-19{fill:#d1545c;}.cls-20{fill:#282e35;}.cls-21{fill:#170e12;}.cls-22{fill:#ddb985;}.cls-23{mask:url(#mask);}.cls-24{fill:#bf9764;}.cls-25{stroke:#12100c;stroke-miterlimit:5.54;stroke-width:0.86px;}.cls-26{fill:#353330;}.cls-27{mask:url(#mask-2);}.cls-28{fill:#12100c;}.cls-29{fill:#211f1b;}.cls-30{fill:#774b2c;}.cls-31{fill:#fcf4dd;}.cls-32{fill:#f1e8d1;}.cls-33{opacity:0.5;}.cls-34{fill:#9d947f;}.cls-35{fill:#c78e62;}.cls-36{fill:#795741;}.cls-37{fill:#663f26;}.cls-38{fill:#442917;}.cls-39{isolation:isolate;}.cls-40{fill:#30190c;}.cls-41{font-size:30.9px;fill:#005d52;font-family:Adventuring;}.cls-42{fill:#d7a257;}</style><linearGradient id="linear-gradient" x1="-179.44" y1="1201.06" x2="-115.53" y2="1147.42" gradientTransform="matrix(0.93, 0, 0, -0.93, 327.87, 1572.71)" gradientUnits="userSpaceOnUse"><stop offset="0.02" stop-color="#fdf5e8"/><stop offset="0.13" stop-color="#faefdd"/><stop offset="0.31" stop-color="#f1ddc1"/><stop offset="0.56" stop-color="#e2c295"/><stop offset="0.64" stop-color="#dcb885"/></linearGradient><linearGradient id="linear-gradient-2" x1="-156.55" y1="1265.25" x2="-34.18" y2="1215.07" gradientTransform="matrix(0.93, 0, 0, -0.93, 327.87, 1572.71)" gradientUnits="userSpaceOnUse"><stop offset="0.02" stop-color="#fdf5e8"/><stop offset="0.27" stop-color="#fdf3e4"/><stop offset="0.49" stop-color="#fbefda"/><stop offset="0.69" stop-color="#f7e6c9"/><stop offset="0.89" stop-color="#f2dbb2"/><stop offset="1" stop-color="#efd3a3"/></linearGradient><linearGradient id="linear-gradient-3" x1="-89.85" y1="1530.09" x2="-547.14" y2="1530.09" gradientTransform="matrix(0.93, 0.01, 0.01, -0.93, 392.9, 1702.84)" gradientUnits="userSpaceOnUse"><stop offset="0.02" stop-color="#fff5e6"/><stop offset="0.27" stop-color="#fef3e2"/><stop offset="0.49" stop-color="#fdeed8"/><stop offset="0.69" stop-color="#fae6c6"/><stop offset="0.89" stop-color="#f6daac"/><stop offset="1" stop-color="#f4d39c"/></linearGradient><mask id="mask" x="262.25" y="124.95" width="79.26" height="87.28" maskUnits="userSpaceOnUse"><g transform="translate(-0.2)"><g id="Mask_Mask_1" data-name="Mask Mask 1"><g id="Mask_Duplicate_Items_Folder_ededee_copy_8_0_3_MASK_0_FILL" data-name="Mask Duplicate Items Folder ededee copy 8 0 3 MASK 0 FILL"><path class="cls-1" d="M303.42,125Q287,124.48,275,136.89t-12.55,30.52q-.54,18.06,10.7,31.21t27.62,13.6q16.4.5,28.39-11.92t12.51-30.52q.54-18.06-10.66-31.21T303.42,125Z"/></g></g></g></mask><mask id="mask-2" x="131.54" y="124.41" width="79.26" height="87.28" maskUnits="userSpaceOnUse"><g transform="translate(-0.2)"><g id="Mask_Mask_2" data-name="Mask Mask 2"><g id="Mask_Duplicate_Items_Folder_ededee_copy_7_0_3_MASK_0_FILL" data-name="Mask Duplicate Items Folder ededee copy 7 0 3 MASK 0 FILL"><path class="cls-1" d="M172.71,124.43q-16.43-.5-28.39,11.92t-12.55,30.51q-.54,18.06,10.7,31.21t27.62,13.6q16.4.5,28.39-11.92T211,169.24q.54-18.06-10.66-31.21T172.71,124.43Z"/></g></g></g></mask></defs><title>Asset 74</title><g id="Layer_2" data-name="Layer 2"><g id="Layer_2-2" data-name="Layer 2"><g id="Duplicate_Items_Folder_v_copy_3_0_Layer0_0_MEMBER_0_MEMBER_0_MEMBER_0_MEMBER_0_FILL" data-name="Duplicate Items Folder  v  copy 3 0 Layer0 0 MEMBER 0 MEMBER 0 MEMBER 0 MEMBER 0 FILL"><path class="cls-2" d="M214.31,441.88a28.57,28.57,0,0,0-6.19-9.91,33.58,33.58,0,0,0-21.06-9.16,34.72,34.72,0,0,0-18.86,4.27,35.14,35.14,0,0,0-14.11,13.29,36.15,36.15,0,0,0-4.82,17.07A47.92,47.92,0,0,0,152,475c-.27-.81.08-2.76,1-5.85s1.79-5.21,2.62-6c.55-.55.89-.48,1,.2a18.79,18.79,0,0,1,.21,1.93,56.1,56.1,0,0,0,5.44,17.55,47.66,47.66,0,0,0,4.13,7.3,22.23,22.23,0,0,0,5.78,5.92,42.09,42.09,0,0,0,7,4,15.62,15.62,0,0,1-2.55-3.23,45.92,45.92,0,0,0,10.67,3.51,35.73,35.73,0,0,0,11.22.27,27.51,27.51,0,0,0,13.08-5.37,63.93,63.93,0,0,0,18.79-23.33,7,7,0,0,0,1-3.86,5.51,5.51,0,0,0-1.17-2.34q-4.26-6.19-9-6.74a4.39,4.39,0,0,0-2.89.48l-1.3,1.58q-4,5.79-5.92,7.3a14.13,14.13,0,0,1-5.79,3.37,13.72,13.72,0,0,1-6.6.83,13.46,13.46,0,0,1-6.2-2.41,12.27,12.27,0,0,1-4.2-5.09,11.74,11.74,0,0,1,.07-9.23,12,12,0,0,1,6-7,5.16,5.16,0,0,1,3-.75,7.56,7.56,0,0,1,3.16,1.23,4.78,4.78,0,0,1,2.14,2.41,5.22,5.22,0,0,1-.07,3.44,4.73,4.73,0,0,1-1.93,2.69c-1.51,1.1-3.26,1.12-5.23.07s-2.64-3-1.58-5.71a6.57,6.57,0,0,0-2.62,1.72,7.7,7.7,0,0,0-1.37,2.89,8.53,8.53,0,0,0,1,6.81,10.7,10.7,0,0,0,5.16,4.82,11.52,11.52,0,0,0,7,.62,14.07,14.07,0,0,0,6.47-3.1q5.37-4.41,6.27-12.46A25.8,25.8,0,0,0,214.31,441.88Z" transform="translate(-0.2)"/></g><g id="Duplicate_Items_Folder_v_copy_3_0_Layer0_0_MEMBER_1_MEMBER_0_MEMBER_0_MEMBER_0_FILL" data-name="Duplicate Items Folder  v  copy 3 0 Layer0 0 MEMBER 1 MEMBER 0 MEMBER 0 MEMBER 0 FILL"><path class="cls-3" d="M154.09,440.37a36.15,36.15,0,0,0-4.82,17.07A48.38,48.38,0,0,0,152,475.06a25.76,25.76,0,0,1,4.13-12.74,6.21,6.21,0,0,0-.48,2.89l.14,3.17a39.89,39.89,0,0,0,.55,6.88l.34,6.06a12.62,12.62,0,0,0,1.52,5.78l1.37-7.23a34.37,34.37,0,0,0,18.79,20.24,4.09,4.09,0,0,1-1.37-2.34,40.44,40.44,0,0,0,11.49,3.72,19.18,19.18,0,0,0,4.82-.07l4.89-.83a31.3,31.3,0,0,0,12.39-4.54,40,40,0,0,0,10.53-9,33.3,33.3,0,0,0,6.12-10.18,39.77,39.77,0,0,1-20.72,11.21,52.41,52.41,0,0,1-11.08,1.38q-6.73-.06-9.7-3.58a26.57,26.57,0,0,0,7,6.27A28.58,28.58,0,0,1,181.34,487a28.19,28.19,0,0,1-8.12-9.43,45.23,45.23,0,0,0,2.89,7.16,15.48,15.48,0,0,0,5,5.44A41.71,41.71,0,0,1,165,473.27a40.76,40.76,0,0,1-5.23-22.72q.83-11.76,7.36-19.75a26,26,0,0,1,8.61-6.68,37.91,37.91,0,0,0-12.39,6A34.53,34.53,0,0,0,154.09,440.37Z" transform="translate(-0.2)"/></g><g id="Duplicate_Items_Folder_v_copy_3_0_Layer0_0_MEMBER_2_MEMBER_0_MEMBER_0_MEMBER_0_FILL" data-name="Duplicate Items Folder  v  copy 3 0 Layer0 0 MEMBER 2 MEMBER 0 MEMBER 0 MEMBER 0 FILL"><path class="cls-4" d="M208.12,432q-4.62-4.55-9-5a18.69,18.69,0,0,1,10.12,9.57,32.71,32.71,0,0,1,3.23,13.77q.28,7.77-2.68,12a11.06,11.06,0,0,1-6.2,4.2,9.63,9.63,0,0,1-7.29-.62,9.07,9.07,0,0,1-4.61-5.78,8.23,8.23,0,0,1,.75-7,28.53,28.53,0,0,0-2.2,3.72,6.47,6.47,0,0,0-.34,4.47,10.1,10.1,0,0,0,2.27,4.27,9.33,9.33,0,0,0,3.85,2.89,11.52,11.52,0,0,0,7,.62,14.07,14.07,0,0,0,6.47-3.1q5.37-4.41,6.27-12.46a25.8,25.8,0,0,0-1.45-11.56A28.57,28.57,0,0,0,208.12,432Z" transform="translate(-0.2)"/></g><g id="Duplicate_Items_Folder_Symbol_7_copy_22_0_Layer0_0_FILL" data-name="Duplicate Items Folder Symbol 7 copy 22 0 Layer0 0 FILL"><path class="cls-5" d="M290.09,557.1a22.91,22.91,0,0,0-2.47-10.53q-5.1-10.32-18-9.5T251.76,547.6a19.74,19.74,0,0,0-2.41,9.43q.54,9.3.48,15.83c-.08,5.54-1.28,11.18.92,16.3a3.6,3.6,0,0,0,.78,1.29,3.42,3.42,0,0,0,1.35.63c13.5,3.93,29.86-3.39,33.64-17.26Q286.93,572.3,290.09,557.1Z" transform="translate(-0.2)"/></g><g id="Duplicate_Items_Folder_Symbol_7_copy_22_0_Layer0_1_MEMBER_0_FILL" data-name="Duplicate Items Folder Symbol 7 copy 22 0 Layer0 1 MEMBER 0 FILL"><path class="cls-5" d="M294.09,513.19q-17.89.62-26.85.48-15.56-.34-26-4.13.76,4.6,4,24.57,2.47,15.42,4.2,25l.68,2.82a22.32,22.32,0,0,0,2.76,6.19q5.64,8.88,16.72,8.13t16.87-11a28.9,28.9,0,0,0,2.89-7l.69-3.1q1.5-13.49,2.27-20.51Q293.53,522.56,294.09,513.19Z" transform="translate(-0.2)"/></g><g id="Duplicate_Items_Folder_Symbol_7_copy_22_0_Layer0_1_MEMBER_1_FILL" data-name="Duplicate Items Folder Symbol 7 copy 22 0 Layer0 1 MEMBER 1 FILL"><path class="cls-6" d="M268.69,533.84q-8.47-.35-23.82-1.79,1.73,11,3.31,19.75a80.18,80.18,0,0,0,18.17.9q15.56-.69,24.57-5.58l1.51-14.18A156.11,156.11,0,0,1,268.69,533.84Z" transform="translate(-0.2)"/></g><g id="Duplicate_Items_Folder_Symbol_7_copy_22_0_Layer0_2_FILL" data-name="Duplicate Items Folder Symbol 7 copy 22 0 Layer0 2 FILL"><path class="cls-7" d="M243,478.57q-9.21,8.67-7.09,18.24,3.38,14.93,10.26,49l9.15.69a139.15,139.15,0,0,0,21.62-1,144.72,144.72,0,0,0,17.34-3.17,20.75,20.75,0,0,0,4.34-1.51q.21-10.33-.14-23.82-.69-27-3.51-42.54-1.73-9.21-13.77-8.6a72.79,72.79,0,0,0-10.8,1.52q-7.79,1.5-10.26,1.79A35.53,35.53,0,0,0,243,478.57Z" transform="translate(-0.2)"/></g><g id="Duplicate_Items_Folder_Symbol_7_copy_22_0_Layer0_3_MEMBER_0_MEMBER_0_FILL" data-name="Duplicate Items Folder Symbol 7 copy 22 0 Layer0 3 MEMBER 0 MEMBER 0 FILL"><path class="cls-8" d="M239.64,482.35a31.86,31.86,0,0,1,2.2-2.61,35,35,0,0,1,9.16-7,35.41,35.41,0,0,1,6.68-2.9l.75-.27-.75.21a36.87,36.87,0,0,0-6.75,2.82,38.33,38.33,0,0,0-9.22,6.95l-2.27,2.68c-.05.1-.39.6-1,1.52a13.72,13.72,0,0,0-1,1.72,16.51,16.51,0,0,0-2,7.78,23.91,23.91,0,0,0,.48,4.33c.19,1,.49,2.5.9,4.48l9.09,44.05,4,.41q4,.27,6,.35a132.77,132.77,0,0,0,25.26-1.59q7.1-1,12.67-2.41l4.54-1.51.55-.28v-7.57q0-10.4-.48-23.54t-1.44-21.27l-1.79-14.11a21.4,21.4,0,0,0-1-4.33,8.07,8.07,0,0,0-2.34-3.44,9.22,9.22,0,0,0-3.51-1.79,19.33,19.33,0,0,0-7.22-.21q-3.37.48-11.36,2.41l-7.16,1.65h.07l7.09-1.51A99.19,99.19,0,0,1,281.15,465a21.29,21.29,0,0,1,7.09.27,8.69,8.69,0,0,1,3.44,1.79,8.19,8.19,0,0,1,2.27,3.31,22.23,22.23,0,0,1,.89,4.19l.69,4.55c.41,2.93.76,6.12,1,9.56q.9,9.44,1.31,21.27.42,11.3.41,23.54v7.16l-.13.07-4.48,1.44a121.78,121.78,0,0,1-12.52,2.41,139.34,139.34,0,0,1-25.2,1.59c-1.33,0-3.32-.16-6-.35l-3-.27a.94.94,0,0,1-.48-.07c0-.05,0-.21-.07-.48l-9.16-43c-.46-2-.78-3.47-1-4.48a18.26,18.26,0,0,1,0-8.32l1.44-3.58C237.76,485.49,238.4,484.42,239.64,482.35Z" transform="translate(-0.2)"/></g><g id="Duplicate_Items_Folder_Symbol_8_copy_23_0_Layer0_0_FILL" data-name="Duplicate Items Folder Symbol 8 copy 23 0 Layer0 0 FILL"><path class="cls-5" d="M206.4,546.78q-12.33-2.68-18.79,6.74a24.36,24.36,0,0,0-4.06,10.05q.75,15.21,1,17,.21,2.2,1.44,8.33l7.51,5q8.53,5,13.49,5.71a15.84,15.84,0,0,0,8.81-1,7.75,7.75,0,0,0,2.75-1.86q1.17-9.7,1.45-11.63,1-6.67,2.89-15.63a19.9,19.9,0,0,0-.83-9.7Q218.72,549.46,206.4,546.78Z" transform="translate(-0.2)"/></g><g id="Duplicate_Items_Folder_Symbol_8_copy_23_0_Layer0_1_FILL" data-name="Duplicate Items Folder Symbol 8 copy 23 0 Layer0 1 FILL"><path class="cls-5" d="M222,455.09q-13.35-4.18-24.5-.2a28.81,28.81,0,0,0-6.33,3.16,23.83,23.83,0,0,0-2.14,1.66q-6.12,24.44-6.67,54.17-.28,14,1.44,49.69l.48,3.17a30.57,30.57,0,0,0,2.34,7.09q5,10.45,15.7,11.77t16.65-7.3a24.9,24.9,0,0,0,3-6.06l.83-2.82q1.72-7.29,9.29-41.78,5.44-24.84,9.29-38.2a31.14,31.14,0,0,0-.07-14.11Q238.07,460.2,222,455.09Z" transform="translate(-0.2)"/></g><g id="Duplicate_Items_Folder_Symbol_8_copy_23_0_Layer0_2_FILL" data-name="Duplicate Items Folder Symbol 8 copy 23 0 Layer0 2 FILL"><path class="cls-6" d="M236.48,508.16l-8.26-1A289.75,289.75,0,0,1,183,498.6q-1.37,19.41-.06,48.11,3.7,3,17.68,4.75,15.57,1.92,26.44-.9Q233.31,521.58,236.48,508.16Z" transform="translate(-0.2)"/></g><g id="Duplicate_Items_Folder_Symbol_8_copy_23_0_Layer0_3_MEMBER_0_FILL" data-name="Duplicate Items Folder Symbol 8 copy 23 0 Layer0 3 MEMBER 0 FILL"><path class="cls-7" d="M243.22,496.81q2.13-9.57-7.09-18.24a35.45,35.45,0,0,0-17.07-9.36q-6.19-.63-21-4.2-12-1.38-13.7,7.77l-.34,2.28c-.31,1.87-.61,3.87-.9,6a345.07,345.07,0,0,0-2.48,36q-.27,13.5-.06,23.82l4.33,1.51a145.3,145.3,0,0,0,17.28,3.17,139,139,0,0,0,21.61,1q5.64-.21,9.16-.69Q239.84,511.75,243.22,496.81Z" transform="translate(-0.2)"/></g><g id="Duplicate_Items_Folder_Symbol_8_copy_23_0_Layer0_3_MEMBER_1_MEMBER_0_MEMBER_0_FILL" data-name="Duplicate Items Folder Symbol 8 copy 23 0 Layer0 3 MEMBER 1 MEMBER 0 MEMBER 0 FILL"><path class="cls-8" d="M184.3,474.57a33.66,33.66,0,0,1,1-4.19,7.69,7.69,0,0,1,2.2-3.31,8.9,8.9,0,0,1,3.44-1.79A21.43,21.43,0,0,1,198,465a99.63,99.63,0,0,1,11.36,2.34l3.85.75c-1.08-.23-2.37-.53-3.85-.89a104.52,104.52,0,0,0-11.29-2.41,19.21,19.21,0,0,0-7.23.21,9.33,9.33,0,0,0-3.58,1.79,8.25,8.25,0,0,0-2.34,3.44,21,21,0,0,0-1,4.33,43,43,0,0,0-.69,4.48q-.56,3.51-1.17,9.63-1,10.47-1.38,21.27-.41,9.44-.55,23.54l.07,7.57.55.28,4.54,1.51a115.23,115.23,0,0,0,12.6,2.41,133.81,133.81,0,0,0,25.26,1.59q2.07-.08,6.06-.35l4-.41L242.33,502c.45-2,.78-3.47,1-4.48a23.1,23.1,0,0,0,.48-4.33,21,21,0,0,0-.55-4.13,37,37,0,0,0-1.51-3.65c-.23-.46-.9-1.54-2-3.24l-2.27-2.68a36.47,36.47,0,0,0-9.16-6.95,34.68,34.68,0,0,0-6.74-2.82l-1.86-.42c.28.09.87.26,1.79.48a32.86,32.86,0,0,1,6.75,2.9,35.77,35.77,0,0,1,9.08,7,18.71,18.71,0,0,1,2.2,2.61,20.1,20.1,0,0,1,1.93,3.24,22,22,0,0,1,1.45,3.58,17.82,17.82,0,0,1,.48,4.06,22.87,22.87,0,0,1-.48,4.26c-.19,1-.51,2.51-1,4.48l-9.08,43a1.23,1.23,0,0,1-.14.48,2.55,2.55,0,0,0-.48.07l-3,.27c-2.62.19-4.64.3-6.06.35a138.18,138.18,0,0,1-25.12-1.59,125.8,125.8,0,0,1-12.6-2.41l-4.4-1.44-.14-.07-.07-7.16q0-13,.48-23.54.48-13.08,1.24-21.27Z" transform="translate(-0.2)"/></g><g id="Duplicate_Items_Folder_Symbol_9_copy_17_0_Layer0_0_FILL" data-name="Duplicate Items Folder Symbol 9 copy 17 0 Layer0 0 FILL"><path class="cls-5" d="M218.85,595a22.21,22.21,0,0,0-.68-4q-.76-4.47-1.38-6.81a13.34,13.34,0,0,0-3.1-6,18.74,18.74,0,0,0-7.29-4.06q-6.75-2.34-11.84-1.44A13.76,13.76,0,0,0,189,575a10.75,10.75,0,0,0-3.92,4.47l-1.24,2.89a11.74,11.74,0,0,1-1.51,2,10.15,10.15,0,0,0-1.52,1.93,27.09,27.09,0,0,0-2.2,5.09A28.75,28.75,0,0,0,177,602a3.78,3.78,0,0,0,.27,1.51,3.59,3.59,0,0,0,2.27,1.38q15.36,4.89,28.15,4.06a4.42,4.42,0,0,0,2.07-.41,6.27,6.27,0,0,0,1.51-1.38c1.66-1.74,2.89-3.07,3.72-4a17.52,17.52,0,0,0,3.17-4.34A8.1,8.1,0,0,0,218.85,595Z" transform="translate(-0.2)"/></g><g id="Duplicate_Items_Folder_Symbol_9_copy_17_0_Layer0_1_MEMBER_0_FILL" data-name="Duplicate Items Folder Symbol 9 copy 17 0 Layer0 1 MEMBER 0 FILL"><path class="cls-9" d="M207.43,593.93q-2.2-4.2-3.51-5.1a7.65,7.65,0,0,0-3-.89,13.09,13.09,0,0,1-3.17-.76,10.79,10.79,0,0,1-1.92-1.51,18.7,18.7,0,0,0-1.93-1.66,9.08,9.08,0,0,0-6-1.24,47.44,47.44,0,0,1-6.61.49c-2.2-.28-3.87-.44-5-.49a14.53,14.53,0,0,0-7.92,2,19.87,19.87,0,0,0-6.26,5.64Q158,596.2,156.49,606q8.82,5,26.23,6.13,18.51,1.3,27.94-3.52A26.29,26.29,0,0,0,207.43,593.93Z" transform="translate(-0.2)"/></g><g id="Duplicate_Items_Folder_Symbol_9_copy_17_0_Layer0_1_MEMBER_1_FILL" data-name="Duplicate Items Folder Symbol 9 copy 17 0 Layer0 1 MEMBER 1 FILL"><path class="cls-10" d="M186,602.12a12,12,0,0,1-7.15.82,10.72,10.72,0,0,1-5.92-2.54A5.5,5.5,0,0,1,171.5,598a4.84,4.84,0,0,1-.07-2.69,8.43,8.43,0,0,1-5.85,4.13c-2.71.64-4.63.16-5.78-1.44a4.07,4.07,0,0,1-.62-2.34A42.64,42.64,0,0,0,156.49,606q8.82,5,26.23,6.13,18.51,1.3,27.94-3.52a28,28,0,0,0-.89-8.87,18.91,18.91,0,0,1-10.67,3.78,10.38,10.38,0,0,1-6.54-1.44,6.55,6.55,0,0,1-2-2.07,6,6,0,0,1-.9-2.75,6.17,6.17,0,0,1-1.24,2.82A8,8,0,0,1,186,602.12Z" transform="translate(-0.2)"/></g><g id="Duplicate_Items_Folder_Symbol_9_copy_17_0_Layer0_1_MEMBER_2_MEMBER_0_MEMBER_0_FILL" data-name="Duplicate Items Folder Symbol 9 copy 17 0 Layer0 1 MEMBER 2 MEMBER 0 MEMBER 0 FILL"><path class="cls-4" d="M195.18,584.15a8.52,8.52,0,0,0-3.17-1.79,22,22,0,0,0-6.61,0,22.35,22.35,0,0,1-6,.14,23.63,23.63,0,0,0-3-.28,15.08,15.08,0,0,0-3,.21,17.17,17.17,0,0,0-9.23,4.89,22.9,22.9,0,0,0-4.82,7.16,32,32,0,0,0-2,6.12,39.26,39.26,0,0,0-.76,4.06l-.21,1.38.28-1.38a34,34,0,0,1,.89-4,37,37,0,0,1,2.21-6,22,22,0,0,1,4.95-6.81,16.21,16.21,0,0,1,8.88-4.41,16,16,0,0,1,5.58.21,22.38,22.38,0,0,0,6.26-.07,18.1,18.1,0,0,1,6.13.14,5.57,5.57,0,0,1,2.54,1.44c.55.46,1.43,1.24,2.62,2.34a9.63,9.63,0,0,0,3.58,1.11,7.12,7.12,0,0,1,3,.82,7.72,7.72,0,0,1,2.06,2.41l1.65,3.17a31,31,0,0,1,2.28,6.54c.27,1.6.43,2.73.48,3.37l.07,3.23a.06.06,0,0,1-.07.07l-.76.35-4.61,1.58-6.27,1.17a95.59,95.59,0,0,1-22-.21,79.93,79.93,0,0,1-14.66-3,31.53,31.53,0,0,1-3.79-1.44l-1.31-.62,1.24.69c.33.18,1.59.73,3.79,1.65a78.1,78.1,0,0,0,14.59,3.51,92.13,92.13,0,0,0,22.3.69l3.24-.41,6.47-1.66a10,10,0,0,0,1.58-.62l1.51-.68c.14,0,.21,0,.21-.07V608l.07-.49-.14-2.61a24.87,24.87,0,0,0-.48-3.58,29.68,29.68,0,0,0-2.41-6.95l-1.65-3.24a10.85,10.85,0,0,0-2.55-3,5,5,0,0,0-1.86-.68c-.82-.14-1.42-.26-1.79-.35a8,8,0,0,1-3-.82Z" transform="translate(-0.2)"/></g><g id="Duplicate_Items_Folder_Symbol_9_copy_17_0_Layer0_1_MEMBER_3_MEMBER_0_MEMBER_0_FILL" data-name="Duplicate Items Folder Symbol 9 copy 17 0 Layer0 1 MEMBER 3 MEMBER 0 MEMBER 0 FILL"><path class="cls-4" d="M162.07,590.41l-1.58,2.35a29.7,29.7,0,0,0-3.17,7.15q-1,3.72-1.24,5.23l-.14,1a.23.23,0,0,0,.07.27.79.79,0,0,0,.28.14l.55.21,1.38.75,3,1.24a72.25,72.25,0,0,0,13.76,3.31,79,79,0,0,0,25.67-.07,42.83,42.83,0,0,0,4.34-1l3.17-1.1,2.54-1.24-5.85,1.93a37.61,37.61,0,0,1-4.33.69,92.31,92.31,0,0,1-25.33-.69,73.06,73.06,0,0,1-13.56-3l-4.27-1.72-.21-.13v-.42q.42-2.61,1-5.16a29.44,29.44,0,0,1,2.61-7.3Z" transform="translate(-0.2)"/></g><g id="Duplicate_Items_Folder_Symbol_9_copy_17_0_Layer0_1_MEMBER_4_MEMBER_0_MEMBER_0_FILL" data-name="Duplicate Items Folder Symbol 9 copy 17 0 Layer0 1 MEMBER 4 MEMBER 0 MEMBER 0 FILL"><path class="cls-4" d="M173.56,591.72l-1.78,3.1a35.71,35.71,0,0,0-2.83,8.26,42.79,42.79,0,0,0-.62,4.82v.48h-.13l-.49.07H166a12.77,12.77,0,0,1-2.61-.21l-1-.14.9.42a18.93,18.93,0,0,0,2.61.69l1.79.27h1.45c.14,0,.21,0,.21-.07l.06-.2,1-5.79c.69-3.16,1.38-5.92,2.06-8.26Z" transform="translate(-0.2)"/></g><g id="Duplicate_Items_Folder_Symbol_9_copy_17_0_Layer0_1_MEMBER_5_MEMBER_0_MEMBER_0_FILL" data-name="Duplicate Items Folder Symbol 9 copy 17 0 Layer0 1 MEMBER 5 MEMBER 0 MEMBER 0 FILL"><path class="cls-4" d="M191.46,592.41l.55-.83-.76.69a10.51,10.51,0,0,0-1.3,2.48,43.49,43.49,0,0,0-1.86,8.81,42.94,42.94,0,0,0-.35,5v2.2a1.45,1.45,0,0,0,.49,1.17,1.36,1.36,0,0,0,1.17.28,12.45,12.45,0,0,0,2.68-.62l1-.42-1,.21a17.51,17.51,0,0,1-2.61.07,2.42,2.42,0,0,1-.56-.14,1.6,1.6,0,0,1-.06-.55l.82-7c.64-5.42,1-8.35,1.1-8.81A12.84,12.84,0,0,1,191.46,592.41Z" transform="translate(-0.2)"/></g><g id="Duplicate_Items_Folder_Symbol_6_copy_21_0_Layer0_0_FILL" data-name="Duplicate Items Folder Symbol 6 copy 21 0 Layer0 0 FILL"><path class="cls-5" d="M301.73,590a5.52,5.52,0,0,0-2.07-.89,40.33,40.33,0,0,0-4.89-.76c-2.29-.28-3.94-.53-4.95-.76q-6.06-1.3-8.05-5.23l-1.24-2.89A11.42,11.42,0,0,0,276.6,575a14.25,14.25,0,0,0-5.57-2.27q-5.1-.9-11.91,1.44a19.57,19.57,0,0,0-7.3,4.06,13.82,13.82,0,0,0-3,6q-.63,2.34-1.45,6.81a28.17,28.17,0,0,0-.62,4,8.09,8.09,0,0,0,.69,3.78q1.86,3.86,9.22,6.47a94.42,94.42,0,0,0,11.43,2.89,69.81,69.81,0,0,0,24.16.62q6.81-1.1,9.43-3.92a10.19,10.19,0,0,0,2.48-5.78,14.64,14.64,0,0,0-.83-6.47A5.26,5.26,0,0,0,301.73,590Z" transform="translate(-0.2)"/></g><g id="Duplicate_Items_Folder_Symbol_6_copy_21_0_Layer0_1_MEMBER_0_FILL" data-name="Duplicate Items Folder Symbol 6 copy 21 0 Layer0 1 MEMBER 0 FILL"><path class="cls-9" d="M308.13,583.46a15.08,15.08,0,0,0-8-2.06q-3.3.4-4.95.48-4.41-.35-6.61-.48a9.59,9.59,0,0,0-6,1.24,14,14,0,0,0-1.93,1.72,8.34,8.34,0,0,1-1.92,1.44,13,13,0,0,1-3.17.76,7.47,7.47,0,0,0-3,.9q-1.31.88-3.51,5.09a26.8,26.8,0,0,0-3.23,14.8q9.42,4.81,27.94,3.51,17.42-1.25,26.23-6.13-1.46-9.91-5.58-15.69A18.13,18.13,0,0,0,308.13,583.46Z" transform="translate(-0.2)"/></g><g id="Duplicate_Items_Folder_Symbol_6_copy_21_0_Layer0_1_MEMBER_1_FILL" data-name="Duplicate Items Folder Symbol 6 copy 21 0 Layer0 1 MEMBER 1 FILL"><path class="cls-10" d="M266.69,598.47a28.08,28.08,0,0,0-.89,8.88q9.42,4.81,27.94,3.51,17.42-1.25,26.23-6.13a43.51,43.51,0,0,0-2.69-10.46,3.67,3.67,0,0,1-3.16,3.92,7.64,7.64,0,0,1-3.24-.14,8.42,8.42,0,0,1-5.85-4.12,4.81,4.81,0,0,1-.07,2.68,5.35,5.35,0,0,1-1.38,2.41,9.83,9.83,0,0,1-5.91,2.55,12,12,0,0,1-7.16-.83,6.82,6.82,0,0,1-2.48-2,5.75,5.75,0,0,1-1.24-2.82,5.84,5.84,0,0,1-2.89,4.82,11.18,11.18,0,0,1-6.61,1.51A19.44,19.44,0,0,1,266.69,598.47Z" transform="translate(-0.2)"/></g><g id="Duplicate_Items_Folder_Symbol_6_copy_21_0_Layer0_1_MEMBER_2_MEMBER_0_MEMBER_0_FILL" data-name="Duplicate Items Folder Symbol 6 copy 21 0 Layer0 1 MEMBER 2 MEMBER 0 MEMBER 0 FILL"><path class="cls-4" d="M306.82,583.46a19,19,0,0,1,8.74,8.95,32.16,32.16,0,0,1,2.41,6.33c.09.28.37,1.4.83,3.38l.34,2.13-.28.14a54.82,54.82,0,0,1-13.21,4.13,95.3,95.3,0,0,1-12.94,1.72q-13.08.88-22-1.45l-4.2-1.44-.41-.21a.14.14,0,0,1-.07-.21l-.07-3a29.55,29.55,0,0,1,1-6.26c.32-1.1.78-2.39,1.37-3.85l.62-1.31-.69,1.31a27.28,27.28,0,0,0-1.51,3.78,28.53,28.53,0,0,0-1.31,6.33l-.07,3.38a.46.46,0,0,0,.21.27l4.89,1.86q9.07,2.76,22.23,2A105.74,105.74,0,0,0,305.92,610a56,56,0,0,0,13.63-4.2l1.24-.62V605l-1.37-6.68a31.34,31.34,0,0,0-2.55-6.61,19.57,19.57,0,0,0-9.5-9.36,15.59,15.59,0,0,0-6.13-1.51,14.8,14.8,0,0,0-3,.2c-1.61.23-2.53.35-2.76.35a48.21,48.21,0,0,1-5.3-.28,16.66,16.66,0,0,0-5.09.07,7.45,7.45,0,0,0-4,2.34,9.37,9.37,0,0,1-3.1,2.34c-1.56.28-2.71.51-3.44.69a4.52,4.52,0,0,0-2.69,1.31,10.21,10.21,0,0,0-1.37,1.93c-.23.36-.51.87-.83,1.51l-.62,1.24.69-1.24a35.42,35.42,0,0,1,2.34-3.3,4.79,4.79,0,0,1,2.55-1.11,15.77,15.77,0,0,1,1.65-.2,8.28,8.28,0,0,0,1.86-.42,9.41,9.41,0,0,0,3.37-2.34,7,7,0,0,1,3.72-2,16.5,16.5,0,0,1,4.82,0,37,37,0,0,0,5.43.41c1.29,0,3.19-.18,5.72-.41A14.81,14.81,0,0,1,306.82,583.46Z" transform="translate(-0.2)"/></g><g id="Duplicate_Items_Folder_Symbol_6_copy_21_0_Layer0_1_MEMBER_3_MEMBER_0_MEMBER_0_FILL" data-name="Duplicate Items Folder Symbol 6 copy 21 0 Layer0 1 MEMBER 3 MEMBER 0 MEMBER 0 FILL"><path class="cls-4" d="M314.39,589l1.79,3.16a37.43,37.43,0,0,1,2.82,9.3l.48,3-2.89,1.3a57.53,57.53,0,0,1-7.36,2.28,100.8,100.8,0,0,1-17.69,2.13,83.86,83.86,0,0,1-31.87-4.27,40.63,40.63,0,0,1-9-3.85l-1.24-.9a5,5,0,0,1-.89-.75l-.62-.62,1.38,1.44a5.26,5.26,0,0,0,1.24,1,38.73,38.73,0,0,0,8.87,4.48,95.15,95.15,0,0,0,14.18,3.92,70.56,70.56,0,0,0,18,1.1,90.37,90.37,0,0,0,17.82-2.41,44.7,44.7,0,0,0,7.51-2.54l3.44-1.79-.69-3.58a36,36,0,0,0-3.37-9.29Z" transform="translate(-0.2)"/></g><g id="Duplicate_Items_Folder_Symbol_6_copy_21_0_Layer0_1_MEMBER_4_MEMBER_0_MEMBER_0_FILL" data-name="Duplicate Items Folder Symbol 6 copy 21 0 Layer0 1 MEMBER 4 MEMBER 0 MEMBER 0 FILL"><path class="cls-4" d="M302.9,590.35l1.1,3.44c.69,2.34,1.37,5.09,2.06,8.26l.83,4.61.14,1.24.07.2h1.65l1.79-.27a18.93,18.93,0,0,0,2.61-.69l.9-.34-3.58.34-1.72-.07-.48-.07h-.14v-.48a36.45,36.45,0,0,0-.62-4.75,33.23,33.23,0,0,0-2.82-8.26Z" transform="translate(-0.2)"/></g><g id="Duplicate_Items_Folder_Symbol_6_copy_21_0_Layer0_1_MEMBER_5_MEMBER_0_MEMBER_0_FILL" data-name="Duplicate Items Folder Symbol 6 copy 21 0 Layer0 1 MEMBER 5 MEMBER 0 MEMBER 0 FILL"><path class="cls-4" d="M285.21,591l-.76-.76.55.89a9.73,9.73,0,0,1,.76,2.48q.14.69,1.1,8.81l.82,7a2,2,0,0,1-.06.62,1.44,1.44,0,0,1-.55.14,24.24,24.24,0,0,1-2.62-.14l-1-.14,1,.35a15.66,15.66,0,0,0,2.69.69,1.86,1.86,0,0,0,1.17-.28,1.54,1.54,0,0,0,.48-1.24v-2.2a44.45,44.45,0,0,0-.35-5,46.68,46.68,0,0,0-1.86-8.81A8.74,8.74,0,0,0,285.21,591Z" transform="translate(-0.2)"/></g><g id="Duplicate_Items_Folder_Symbol_24_copy_14_0_Layer0_0_FILL" data-name="Duplicate Items Folder Symbol 24 copy 14 0 Layer0 0 FILL"><path class="cls-5" d="M199.44,308.14a10.6,10.6,0,0,1,4.13,2.89q5.66,6.41,3.93,21.27L273.78,336a40.27,40.27,0,0,1,.83-16.86,38.49,38.49,0,0,1,7.5-14.87l-41.23-19.55-43.36,23Z" transform="translate(-0.2)"/></g><g id="Duplicate_Items_Folder_Symbol_2_copy_25_0_Layer0_0_MEMBER_0_FILL" data-name="Duplicate Items Folder Symbol 2 copy 25 0 Layer0 0 MEMBER 0 FILL"><path class="cls-5" d="M175.24,342.31a7.91,7.91,0,0,1,3.3-.14,11.7,11.7,0,0,1,5,2.37,21.42,21.42,0,0,1,6.85,8.07,21.73,21.73,0,0,1,2.26,10.27A27.55,27.55,0,0,1,188.23,376a44.62,44.62,0,0,1-11.54,12.73,171.7,171.7,0,0,0-16.74,14,76.78,76.78,0,0,0-7.61,8.73l-3,2.43a25.52,25.52,0,0,1-7.37,3.86q-11.91,4-19.49-7.85-6.06-9.41-1.95-18a20.44,20.44,0,0,1,3.45-5l1.89-1.72q.39-.3,14.28-14.09,14.53-14.47,20.71-19.85a64.68,64.68,0,0,1,8.14-6.13A22.11,22.11,0,0,1,175.24,342.31Z" transform="translate(-0.2)"/></g><g id="Duplicate_Items_Folder_Symbol_2_copy_25_0_Layer0_0_MEMBER_1_MEMBER_0_MEMBER_0_FILL" data-name="Duplicate Items Folder Symbol 2 copy 25 0 Layer0 0 MEMBER 1 MEMBER 0 MEMBER 0 FILL"><path class="cls-4" d="M179.35,384.27a30.58,30.58,0,0,1-4.3,6,87,87,0,0,1-6.48,6.06l-6.8,5.67c-1.79,1.49-3.56,3.13-5.33,4.9q-2.9,2.91-4.6,4.84a50.72,50.72,0,0,1,4-5.33c1.79-2,3.45-3.83,5-5.38,1-.91,3.2-2.86,6.66-5.85q4.47-3.69,6.63-5.79a45.41,45.41,0,0,0,4.6-5.42,30.46,30.46,0,0,0,2.41-4.24l.73-1.63-.52,1.7A30.63,30.63,0,0,1,179.35,384.27Z" transform="translate(-0.2)"/></g><g id="Duplicate_Items_Folder_Symbol_2_copy_24_0_Layer0_0_MEMBER_0_FILL" data-name="Duplicate Items Folder Symbol 2 copy 24 0 Layer0 0 MEMBER 0 FILL"><path class="cls-5" d="M289.87,353.71A21.84,21.84,0,0,0,287.09,364a28.62,28.62,0,0,0,3.79,13.62,46.22,46.22,0,0,0,11,13.68A177,177,0,0,1,318,406.59a79.89,79.89,0,0,1,7.23,9.37l2.87,2.66A26.63,26.63,0,0,0,335.3,423q11.77,4.83,20-6.61,6.56-9.12,2.84-18.08a21.61,21.61,0,0,0-3.22-5.29l-1.82-1.87q-1.87-1.59-2.79-2.4a15.36,15.36,0,0,1-2.56-2.54L334,370q-7.92-9.17-14.43-15.58a66.76,66.76,0,0,0-7.87-6.77,22.91,22.91,0,0,0-6.13-3.31,7.83,7.83,0,0,0-3.31-.37,11.38,11.38,0,0,0-5.12,2.06A20.89,20.89,0,0,0,289.87,353.71Z" transform="translate(-0.2)"/></g><g id="Duplicate_Items_Folder_Symbol_2_copy_24_0_Layer0_0_MEMBER_1_MEMBER_0_MEMBER_0_FILL" data-name="Duplicate Items Folder Symbol 2 copy 24 0 Layer0 0 MEMBER 1 MEMBER 0 MEMBER 0 FILL"><path class="cls-4" d="M299.4,386.55a31.69,31.69,0,0,0,4,6.32q2,2.47,6.22,6.59,6.36,6,6.56,6.22c1.72,1.63,3.42,3.4,5.11,5.33,1.84,2.09,3.31,3.83,4.38,5.21a51,51,0,0,0-3.78-5.67c-1.69-2.19-3.27-4.13-4.75-5.8q-1.41-1.47-6.41-6.38-4.32-4-6.38-6.33a47.28,47.28,0,0,1-4.35-5.8,31.25,31.25,0,0,1-2.22-4.46l-.65-1.7.44,1.75A31.78,31.78,0,0,0,299.4,386.55Z" transform="translate(-0.2)"/></g><g id="Duplicate_Items_Folder_cee_copy_4_0_Layer5_0_FILL" data-name="Duplicate Items Folder cee copy 4 0 Layer5 0 FILL"><path class="cls-5" d="M285.07,330.93q-3.72-2.34-9.71-5.37a133.07,133.07,0,0,0-22.78-9.3,27.45,27.45,0,0,0-12.53-.68,27.35,27.35,0,0,0-12.52.68,135,135,0,0,0-22.85,9.3L195,330.93q-6.12,3.3-19.34,12.45a24.32,24.32,0,0,0-7.57,7.64,17.07,17.07,0,0,0-1.86,10.6,12.73,12.73,0,0,0,2.27,5.85,9.37,9.37,0,0,0,5.09,3.58q1,.29,3,.69a4.2,4.2,0,0,1,2.41,1.45,5,5,0,0,1,.76,2.13l5.51,29.12a37.92,37.92,0,0,1,.48,6.95,27,27,0,0,0,.89,4.54c.6,2.29,1,3.79,1.1,4.47a80.11,80.11,0,0,1,1.17,9.37,66.52,66.52,0,0,1,0,8.74c-.09,1.92-.25,4.84-.48,8.74,0,.82-.09,2-.14,3.65a19.88,19.88,0,0,1-.41,3.64c0,.23-.39,1.66-1,4.27-.37,1.7-.64,3.12-.83,4.27a19.26,19.26,0,0,0-.13,7.23,23.27,23.27,0,0,0,2.75,5.64,59.69,59.69,0,0,0,7.5,10.39,47.64,47.64,0,0,0,4.89,4.13c.37.28,1.17.88,2.41,1.79a5.44,5.44,0,0,0,2.54,1.17l1.72.83q11.85,5.16,27.4,5.85h9.84q15.63-.69,27.4-5.85l1.79-.83a33.43,33.43,0,0,0,7.64-5.37q4.26-4.26,6.53-6.47a23,23,0,0,0,6.75-12.32,13.63,13.63,0,0,0-.28-5.36c-.59-2.35-1-4.11-1.17-5.3q-1.31-9.57-1.44-10.47a50.11,50.11,0,0,1-.14-8.46c.32-3.77.55-6.61.69-8.54q.14-2.13,0-7.91a62.12,62.12,0,0,1,.27-7.78q1.17-8.13,3.52-20.1,2.61-13.35,3.85-20a5.83,5.83,0,0,1,.69-2.13,4.56,4.56,0,0,1,2.48-1.45c.64-.18,1.65-.41,3-.69a9.34,9.34,0,0,0,5-3.58,11.82,11.82,0,0,0,2.27-5.85,16.72,16.72,0,0,0-1.79-10.6,24.32,24.32,0,0,0-7.57-7.64Q290.84,334.1,285.07,330.93Z" transform="translate(-0.2)"/></g><g id="Duplicate_Items_Folder_cee_copy_4_0_Layer4_0_FILL" data-name="Duplicate Items Folder cee copy 4 0 Layer4 0 FILL"><path class="cls-4" d="M300.69,374.22l-1,3.65q-.75,3-2.27,10.05a329.3,329.3,0,0,0-5.37,33.65q-.69,6.75-.89,9.71l-.35,4.61c0,.55,0,2,.14,4.48a124.65,124.65,0,0,0,1.58,15.28,93.15,93.15,0,0,0,2.41,10l.41,1.52a3.24,3.24,0,0,1-.13,1.17,2,2,0,0,0,.27-1.17,12,12,0,0,0-.34-1.58q-1.24-5.58-1.86-10.12a148.19,148.19,0,0,1-1-15.21V436l1.3-14.18q2.28-19.75,4.62-33.73Z" transform="translate(-0.2)"/></g><g id="Duplicate_Items_Folder_cee_copy_4_0_Layer3_0_FILL" data-name="Duplicate Items Folder cee copy 4 0 Layer3 0 FILL"><path class="cls-4" d="M182.72,387.92l-3.3-13.7,2.47,13.83q2.42,14.54,4.55,33.66c.13,1.38.55,4.61,1.23,9.71q.77,5.64.9,8.88a88.28,88.28,0,0,1-1.24,15.07l-2.2,14,3-13.83a83.43,83.43,0,0,0,1.79-15.28c0-2.3-.28-5.3-.69-9q-1-8.4-1.17-9.64Q186.08,404,182.72,387.92Z" transform="translate(-0.2)"/></g><g id="Duplicate_Items_Folder_Symbol_11_copy_13_0_Layer0_0_MEMBER_0_MEMBER_0_FILL" data-name="Duplicate Items Folder Symbol 11 copy 13 0 Layer0 0 MEMBER 0 MEMBER 0 FILL"><path class="cls-11" d="M234.41,333.06H234a89,89,0,0,0-9.09,1.24q-15.48,2.82-25.95,17.41a61.06,61.06,0,0,0-11.08,28.84,38.2,38.2,0,0,1,4.82-5.71,51.36,51.36,0,0,0-1.93,23.61l3.51-8.06q-1.91,4.65-.07,12.26,1,4.34,3.72,12.18,2.07,7,3,11.43a57.92,57.92,0,0,1,1.31,11.63,95.06,95.06,0,0,1-1.38,14.25,98.41,98.41,0,0,0-1.31,14.24,45.44,45.44,0,0,0,3,15.49,8.87,8.87,0,0,0,4.13,4.89,22.77,22.77,0,0,0,6.47,2.13,145.53,145.53,0,0,0,20.86,3v.41h12.11v-.41a141.8,141.8,0,0,0,20.79-3,24,24,0,0,0,6.54-2.13,9.22,9.22,0,0,0,4.13-4.89,45.44,45.44,0,0,0,3-15.49,95.05,95.05,0,0,0-1.38-14.24,109,109,0,0,1-1.38-14.25A65.07,65.07,0,0,1,279.22,426c.6-2.89,1.6-6.79,3-11.7q1-3.16,2.68-10.95v-.2q1.59-6,2.14-9,1.77-8.83.41-10.12a28.37,28.37,0,0,0,4.06,3,35.37,35.37,0,0,0-2.34-18.93l5.71,2.76a68.39,68.39,0,0,0-15.35-23Q268.21,336.7,255.2,334.3c-3-.55-6.06-1-9.09-1.24h-.41l-1.79-.14Z" transform="translate(-0.2)"/></g><g id="Duplicate_Items_Folder_cee_copy_4_0_Layer1_0_FILL" data-name="Duplicate Items Folder cee copy 4 0 Layer1 0 FILL"><path class="cls-7" d="M295.6,476.43a49.42,49.42,0,0,0-.21-7.71l-.48-3.71Q277.3,476.58,237.09,476a187.62,187.62,0,0,1-31-2.89q-14.45-2.76-20.58-7-.48,2-1,6.4c-.37,3-.41,4.59-.14,4.68l19.89,17.62q6.94,6,12.05,10.33c2.28-.09,4.69-.22,7.23-.42q11.42-1,17.07-1.44,9.63-.76,23.19-.9,10.26,0,15.14-1.31l.28-.06a50.44,50.44,0,0,0,8.47-9.16c2-2.94,3.55-5.34,4.61-7.23A45.37,45.37,0,0,0,295.6,476.43Z" transform="translate(-0.2)"/></g><path id="Duplicate_Items_Folder_cee_copy_4_0_Layer0_0_1_STROKES" data-name="Duplicate Items Folder cee copy 4 0 Layer0 0 1 STROKES" class="cls-12" d="M184.3,477.12q6.13,4.28,20.86,7.09a195.12,195.12,0,0,0,31.66,3Q278,488,295.6,476.43q.61-8-.69-11.42Q277.3,476.58,237.09,476a187.62,187.62,0,0,1-31-2.89q-14.45-2.76-20.58-7a20.84,20.84,0,0,0-1.17,5A22.7,22.7,0,0,0,184.3,477.12Z" transform="translate(-0.2)"/><g id="Duplicate_Items_Folder_Symbol_10_copy_13_0_Layer1_0_FILL" data-name="Duplicate Items Folder Symbol 10 copy 13 0 Layer1 0 FILL"><path class="cls-13" d="M229.64,506.44a1.07,1.07,0,0,0,.05-.76l-.22.14a1.91,1.91,0,0,0-1,1.52l.55-.21a1.11,1.11,0,0,0,.6-.69m25.6,6.13a4.9,4.9,0,0,1-2.63.48q-8.37-.42-16.68-.41l-3.07-.21a21.22,21.22,0,0,1-4.26-1.1,2.75,2.75,0,0,1-1.64-1.1,1.93,1.93,0,0,1-.22-1.45,1.67,1.67,0,0,1,.71-1.17,7.71,7.71,0,0,0,.87-.27c0-.2,0-.41,0-.62l-.1-1.52c-.45,0-1,0-1.54,0a2.26,2.26,0,0,1-1.36-.75,1.79,1.79,0,0,1-.44-1.59c.14-1,.89-1.53,2.24-1.72a54.19,54.19,0,0,1,7.77-.41l22.1.07a4,4,0,0,1,1.69.27,1.71,1.71,0,0,1,1.15,1.52,2.09,2.09,0,0,1-.49,1.51,2.24,2.24,0,0,1-1.31.76h-.17c-.14.38-.33.82-.54,1.31l-.22.48h.65a10.88,10.88,0,0,1,2.74.27,2.85,2.85,0,0,1,.82.35,24.78,24.78,0,0,0,1.31-3.51,4.46,4.46,0,0,0-.11-3,2.8,2.8,0,0,0-2.18-1.31q-3.72-.9-8.87-1.72a90.71,90.71,0,0,0-24.39-.41,5.29,5.29,0,0,0-1.64.41,2.45,2.45,0,0,0-1.32,1.17,7,7,0,0,0-.33,3.1l.44,5.23a24,24,0,0,0,.38,3.17l.72,2.4c.14.69.25,1.17.32,1.45a2.37,2.37,0,0,0,.61,1.17,2.09,2.09,0,0,0,1.53.48,18.43,18.43,0,0,0,2-.14l6.23-1a29.56,29.56,0,0,1,5.25-.34,71.4,71.4,0,0,1,14.17,1.17,2.92,2.92,0,0,0,2.52-.21,5.25,5.25,0,0,0,1.2-2.62q.22-.76.66-1.92a5.71,5.71,0,0,1-.88.07,5.41,5.41,0,0,0-2.29.48Z" transform="translate(-0.2)"/><path class="cls-7" d="M255,506.51a2,2,0,0,0,.22-1.38,10.47,10.47,0,0,1,2.62-.27H258a2.24,2.24,0,0,0,1.31-.76,2.09,2.09,0,0,0,.49-1.51,1.71,1.71,0,0,0-1.15-1.52,4,4,0,0,0-1.69-.27l-22.1-.07a54.19,54.19,0,0,0-7.77.41c-1.35.19-2.1.76-2.24,1.72a1.79,1.79,0,0,0,.44,1.59,2.26,2.26,0,0,0,1.36.75c.58,0,1.09,0,1.54,0a5,5,0,0,1,1.36.35l.11.13a1.07,1.07,0,0,1-.05.76,1.11,1.11,0,0,1-.6.69l-.55.21h-.17a7.71,7.71,0,0,1-.87.27,1.67,1.67,0,0,0-.71,1.17,1.93,1.93,0,0,0,.22,1.45,2.75,2.75,0,0,0,1.64,1.1,21.22,21.22,0,0,0,4.26,1.1l3.07.21q8.31,0,16.68.41a4.9,4.9,0,0,0,2.63-.48l1.37-1.17a5.41,5.41,0,0,1,2.29-.48,5.71,5.71,0,0,0,.88-.07,2.63,2.63,0,0,0,1.37-.48,2.18,2.18,0,0,0,.76-1.11,1.94,1.94,0,0,0-.05-1.37,1.62,1.62,0,0,0-.55-.62,2.85,2.85,0,0,0-.82-.35,10.88,10.88,0,0,0-2.74-.27h-.65A13.94,13.94,0,0,1,255,506.51Z" transform="translate(-0.2)"/></g><g id="Duplicate_Items_Folder_Symbol_10_copy_13_0_Layer0_0_MEMBER_0_MEMBER_0_FILL" data-name="Duplicate Items Folder Symbol 10 copy 13 0 Layer0 0 MEMBER 0 MEMBER 0 FILL"><path class="cls-8" d="M232.21,515.05l3.72-.28a81,81,0,0,1,8.86-.07,61.5,61.5,0,0,1,8.81.83q2.29.35,3.66.69a27.11,27.11,0,0,0-3.61-1.11,46.49,46.49,0,0,0-8.86-1.17,60.75,60.75,0,0,0-8.92.42Z" transform="translate(-0.2)"/></g><g id="Duplicate_Items_Folder_2efdew32we_copy_4_0_Layer0_0_MEMBER_0_MEMBER_0_MEMBER_0_MEMBER_0_FILL" data-name="Duplicate Items Folder 2efdew32we copy 4 0 Layer0 0 MEMBER 0 MEMBER 0 MEMBER 0 MEMBER 0 FILL"><path class="cls-5" d="M164.11,71.19l3.34,2.25,2.16-1.83a59.54,59.54,0,0,0,8.31-8.9A303.26,303.26,0,0,0,127.5,6.86q-8.09-7-13.75-5.5a11.26,11.26,0,0,0-4.31,2.49,49.7,49.7,0,0,0-3.63,3.67A74.39,74.39,0,0,1,86.67,22.46a76.41,76.41,0,0,1-22.9,8.07A86.65,86.65,0,0,0,53,33q-5.82,2.13-7.94,6.36a12,12,0,0,0-1.16,4,35,35,0,0,0-.4,4.12q-.41,8.67-3.26,45.32-2.1,27.49-1.81,45.2a7,7,0,0,0,.57,3.31c.54.92,1.75,1.67,3.62,2.25a27.22,27.22,0,0,0,13.21.53,38.65,38.65,0,0,0,12.6-5,56.31,56.31,0,0,0,10.44-8.39,115.15,115.15,0,0,0,8.89-10.13,176.88,176.88,0,0,0,22-34q10.69-22.14,10.73-43.21,8.36,2.32,23.16,11.89Q157.8,64.43,164.11,71.19Z" transform="translate(-0.2)"/></g><g id="Duplicate_Items_Folder_2efdew32we_copy_4_0_Layer0_0_MEMBER_0_MEMBER_0_MEMBER_0_MEMBER_1_FILL" data-name="Duplicate Items Folder 2efdew32we copy 4 0 Layer0 0 MEMBER 0 MEMBER 0 MEMBER 0 MEMBER 1 FILL"><path class="cls-2" d="M167.45,73.44l-3.34-2.25q-6.31-6.76-20.5-16-14.79-9.57-23.16-11.89,0,21.06-10.73,43.21a59.4,59.4,0,0,1,12.62,3.21,47.52,47.52,0,0,1,11.28,5.19Q150.59,87.85,167.45,73.44Z" transform="translate(-0.2)"/></g><g id="Duplicate_Items_Folder_2efdew32we_copy_4_0_Layer0_0_MEMBER_1_MEMBER_0_MEMBER_0_MEMBER_0_FILL" data-name="Duplicate Items Folder 2efdew32we copy 4 0 Layer0 0 MEMBER 1 MEMBER 0 MEMBER 0 MEMBER 0 FILL"><path class="cls-14" d="M175.62,59.93a38,38,0,0,0,2.78,3.41A32.17,32.17,0,0,0,176,59.59q-4-5.91-7.42-10.3a309.89,309.89,0,0,0-31.11-34.72q-6.37-6.08-11.62-10.35a20.94,20.94,0,0,0-7.65-4,10.59,10.59,0,0,0-4.69,0,10.25,10.25,0,0,0-4.16,2.21,23.25,23.25,0,0,0-3.28,3.12L103,8.72a78.16,78.16,0,0,1-6.76,6,81.06,81.06,0,0,1-7.58,5.19,84.67,84.67,0,0,1-8.46,4.29,76.61,76.61,0,0,1-18.8,5.51,53.26,53.26,0,0,0-10.29,2.61,16.4,16.4,0,0,0-4.79,3,12.28,12.28,0,0,0-3.17,5,20.87,20.87,0,0,0-.91,5.56L39.54,84.22q-2.32,28-2.48,43.81-.08,5.24,0,10.61a6.41,6.41,0,0,0,.65,3A4.79,4.79,0,0,0,40.2,144a9.67,9.67,0,0,0,2.67,1l2.61.59q9.9,1.59,20.15-3.5A57.69,57.69,0,0,0,81,130.31q4.55-4.89,11.49-13.88,5.46-7.08,9.69-13.77a128.57,128.57,0,0,0,7.63-13.59,116.42,116.42,0,0,0,8.82-25.13l2-10.78a46,46,0,0,0,.55-4.81l.48-4.33q.52-8.25.38-12.66T121.85,27s-.16,1.46-.34,4.4c-.06,1-.15,2.73-.28,5.3l-2.78,21.43-1.32,5.49A119.4,119.4,0,0,1,108,88.22a128.08,128.08,0,0,1-7.62,13.32Q96,108.21,90.73,115q-7.44,9.31-11.49,13.6a52.86,52.86,0,0,1-14.75,11.15q-9.55,4.68-18.56,3.18l-2.4-.52-2.12-.78a2.75,2.75,0,0,1-1.29-1.19,4.48,4.48,0,0,1-.39-1.93V128.07Q40,112.38,42.29,84.4l2.39-33c.13-2.43.22-4.22.29-5.36a21.35,21.35,0,0,1,.75-4.88q1.44-4.32,6.5-6.45a46.28,46.28,0,0,1,9.67-2.48,80,80,0,0,0,19.42-5.71A90.44,90.44,0,0,0,90,22q4.17-2.62,7.79-5.39a91.35,91.35,0,0,0,6.9-6.17q.42-.41,3.07-3.26a29.9,29.9,0,0,1,3-2.92,9.14,9.14,0,0,1,3.39-1.81,7.51,7.51,0,0,1,3.65,0,19.28,19.28,0,0,1,6.91,3.47q5,4,11.49,10.07a325,325,0,0,1,31.66,34Q170.63,53.32,175.62,59.93Z" transform="translate(-0.2)"/></g><g id="Duplicate_Items_Folder_2efdew32we_copy_4_0_Layer0_0_MEMBER_1_MEMBER_1_MEMBER_0_MEMBER_0_MEMBER_0_FILL" data-name="Duplicate Items Folder 2efdew32we copy 4 0 Layer0 0 MEMBER 1 MEMBER 1 MEMBER 0 MEMBER 0 MEMBER 0 FILL"><path class="cls-4" d="M121.23,90.13q6.17,2.09,9,3.29L134,95.13l-3.34-2.39a49.43,49.43,0,0,0-9-4,45.84,45.84,0,0,0-9.54-2.13,26.09,26.09,0,0,0-3-.18l-1.1,0,4,.89Q115.54,88.2,121.23,90.13Z" transform="translate(-0.2)"/></g><g id="Duplicate_Items_Folder_2edew2wdd_copy_4_0_Layer0_0_MEMBER_0_MEMBER_0_MEMBER_0_MEMBER_0_FILL" data-name="Duplicate Items Folder 2edew2wdd copy 4 0 Layer0 0 MEMBER 0 MEMBER 0 MEMBER 0 MEMBER 0 FILL"><path class="cls-5" d="M434.62,42.6q-1.94-4.29-7.76-6.58a84,84,0,0,0-10.7-2.77,76.15,76.15,0,0,1-22.66-8.71A74.71,74.71,0,0,1,374.79,9.06c-1.71-1.95-2.89-3.21-3.52-3.77A11.34,11.34,0,0,0,367,2.68Q361.42,1,353.13,7.79a302.87,302.87,0,0,0-52,54.4,59.15,59.15,0,0,0,8.06,9.13l2.1,1.89,3.41-2.16q6.5-6.58,20.94-15.4,15.06-9.13,23.49-11.23-.57,21.06,9.5,43.5a177.21,177.21,0,0,0,21,34.65A114.5,114.5,0,0,0,398.23,133a56.67,56.67,0,0,0,10.2,8.68A38.84,38.84,0,0,0,420.89,147a27.12,27.12,0,0,0,13.21-.16c1.89-.52,3.12-1.24,3.68-2.15a6.83,6.83,0,0,0,.67-3.29q.8-17.68-.53-45.24-1.82-36.7-2-45.39c-.07-2-.14-3.39-.22-4.13A13.5,13.5,0,0,0,434.62,42.6Z" transform="translate(-0.2)"/></g><g id="Duplicate_Items_Folder_2edew2wdd_copy_4_0_Layer0_0_MEMBER_0_MEMBER_0_MEMBER_0_MEMBER_1_FILL" data-name="Duplicate Items Folder 2edew2wdd copy 4 0 Layer0 0 MEMBER 0 MEMBER 0 MEMBER 0 MEMBER 1 FILL"><path class="cls-2" d="M359.15,44.42q-8.43,2.09-23.49,11.23-14.45,8.82-20.94,15.4l-3.41,2.16q16.45,14.9,33.21,22.43A47.37,47.37,0,0,1,356,90.77a59.48,59.48,0,0,1,12.7-2.85Q358.57,65.48,359.15,44.42Z" transform="translate(-0.2)"/></g><g id="Duplicate_Items_Folder_2edew2wdd_copy_4_0_Layer0_0_MEMBER_1_MEMBER_0_MEMBER_0_FILL" data-name="Duplicate Items Folder 2edew2wdd copy 4 0 Layer0 0 MEMBER 1 MEMBER 0 MEMBER 0 FILL"><path class="cls-14" d="M428.73,35.36a54.2,54.2,0,0,0-10.21-2.9,76.82,76.82,0,0,1-18.64-6,85.47,85.47,0,0,1-8.33-4.53,79.9,79.9,0,0,1-7.43-5.4,76,76,0,0,1-6.59-6.15l-3-3.21a22.41,22.41,0,0,0-3.19-3.21,10.18,10.18,0,0,0-4.1-2.33,10.58,10.58,0,0,0-4.68-.14,20.74,20.74,0,0,0-7.76,3.75q-4.8,3.64-11.91,10A309.07,309.07,0,0,0,310.83,49c-2.33,2.86-4.91,6.22-7.71,10.08a31.19,31.19,0,0,0-2.47,3.68,33.64,33.64,0,0,0,2.87-3.33q5.26-6.47,8.06-9.73a323.51,323.51,0,0,1,32.61-33.13q6.84-6,11.84-9.75A18.3,18.3,0,0,1,363,3.59a7.46,7.46,0,0,1,3.65.12A9.14,9.14,0,0,1,370,5.62,59.2,59.2,0,0,1,375.85,12a89.92,89.92,0,0,0,6.73,6.36q3.54,2.88,7.63,5.62a93.25,93.25,0,0,0,8.53,4.8A80.12,80.12,0,0,0,418,35a46.62,46.62,0,0,1,9.6,2.75c3.32,1.52,5.43,3.73,6.3,6.63a21,21,0,0,1,.62,4.9c.08,1.15.12,2.94.13,5.37l1.46,33.06q1.53,28,1.31,43.73l-.29,10.46a4.44,4.44,0,0,1-.44,1.92,2.73,2.73,0,0,1-1.32,1.15l-2.15.73-2.41.44q-9,1.26-18.46-3.7a52.88,52.88,0,0,1-14.43-11.56Q394,126.49,386.82,117q-5.06-6.95-9.3-13.76a126.66,126.66,0,0,1-7.24-13.52,119.38,119.38,0,0,1-8.39-24.9l-3-19.73-.37-7.3c-.06-2.57-.1-4.34-.14-5.3a26.33,26.33,0,0,0-.28-4.41s-.13,1.46-.27,4.4-.17,7.15,0,12.66l.35,4.35a47.85,47.85,0,0,0,.42,4.82l1.7,10.83a116.5,116.5,0,0,0,8.11,25.38,129,129,0,0,0,7.24,13.8q4,6.8,9.3,14a175.15,175.15,0,0,0,11.15,14.2,57.38,57.38,0,0,0,15,12.19q10.11,5.37,20.05,4.07l2.62-.52a9.6,9.6,0,0,0,2.7-.92,4.86,4.86,0,0,0,2.51-2.24,7.76,7.76,0,0,0,.8-3l.28-10.59q.3-15.82-1.23-43.87l-1.66-38.43a20.88,20.88,0,0,0-.75-5.59,12.37,12.37,0,0,0-3-5.07A16.78,16.78,0,0,0,428.73,35.36Z" transform="translate(-0.2)"/></g><g id="Duplicate_Items_Folder_Symbol_21_copy_12_0_Layer0_0_MEMBER_0_FILL" data-name="Duplicate Items Folder Symbol 21 copy 12 0 Layer0 0 MEMBER 0 FILL"><path class="cls-5" d="M285.71,39.32q-10.5-2.49-19.64-3.86a171.91,171.91,0,0,0-30-2.07c-1.42,0-3.55.11-6.4.25q-5.18.27-12.75,1.13-9.45,1.17-19.67,3.3Q153,47.63,126.33,74.85,108,93.59,98.63,125.74q-2.61,8.91-7.06,27A208.72,208.72,0,0,1,83,179.35a103.28,103.28,0,0,1-9.62,18.52l-.75-.57A33.72,33.72,0,0,1,56.4,210.57a39.26,39.26,0,0,0,12.64,2,58.81,58.81,0,0,1-17.35,9.53,64.43,64.43,0,0,1-20,3.78,121.48,121.48,0,0,0,19.37,12.67l-.64,1.43a46.6,46.6,0,0,1,7.53,7.75,20.2,20.2,0,0,1-6.2.32q12.46,13.74,38.1,31.18l10,6.61a273,273,0,0,0,58.33,27.26,301.37,301.37,0,0,0,78.26,14.67v.07l1.72,0v-.07a302.16,302.16,0,0,0,78.72-12.44,268.8,268.8,0,0,0,59-25.6l10.21-6.32q26.11-16.71,39-30.08a21,21,0,0,1-6.19-.5,54.14,54.14,0,0,1,7.75-7.53l-.6-1.46a117.72,117.72,0,0,0,19.79-12.11,65,65,0,0,1-20-4.34,58.85,58.85,0,0,1-17.06-10,38.26,38.26,0,0,0,12.68-1.61A33.79,33.79,0,0,1,405.72,202l-.84.54a112.59,112.59,0,0,1-9.09-18.79A208.45,208.45,0,0,1,388,156.9q-3.94-18.17-6.22-27.15-8.43-32.4-26.25-51.65Q329.61,50.13,285.71,39.32Z" transform="translate(-0.2)"/></g><g id="Duplicate_Items_Folder_Symbol_21_copy_12_0_Layer0_0_MEMBER_1_FILL" data-name="Duplicate Items Folder Symbol 21 copy 12 0 Layer0 0 MEMBER 1 FILL"><path class="cls-2" d="M143.65,71.72q4.2-4.27,14.95-15.48,9.45-9.12,16.07-11.75-28.72,10.36-48.34,30.36Q108,93.53,98.63,125.74q-2.61,8.91-7.06,27A212.85,212.85,0,0,1,83,179.42a107.57,107.57,0,0,1-9.62,18.45l-.75-.57A33.33,33.33,0,0,1,56.4,210.57a39.26,39.26,0,0,0,12.64,2,58.81,58.81,0,0,1-17.35,9.53,64.43,64.43,0,0,1-20,3.78,114.61,114.61,0,0,0,19.44,12.67l-.71,1.43a46.72,46.72,0,0,1,7.53,7.75,23.12,23.12,0,0,1-6.2.32q12.46,13.74,38.1,31.18l9.69,6.33.34.28a227.49,227.49,0,0,0,29.92,16.39,243.73,243.73,0,0,0,38.08,13.41,253.57,253.57,0,0,1-47.75-21.32q-23.19-15.13-36.69-23.72a49.7,49.7,0,0,0,20.21-3.22,218.86,218.86,0,0,1-46.11-29.43,33,33,0,0,0,12.74-.51A34.76,34.76,0,0,0,82,232.27l-15.34-.5a34.3,34.3,0,0,0,12.84-2.36,37.26,37.26,0,0,0,12-7.33A226.72,226.72,0,0,1,97,167.57a230,230,0,0,1,18-51.44Q129.62,86.12,143.65,71.72Z" transform="translate(-0.2)"/></g><g id="Duplicate_Items_Folder_Symbol_21_copy_12_0_Layer0_0_MEMBER_2_MEMBER_0_MEMBER_0_MEMBER_0_FILL" data-name="Duplicate Items Folder Symbol 21 copy 12 0 Layer0 0 MEMBER 2 MEMBER 0 MEMBER 0 MEMBER 0 FILL"><path class="cls-4" d="M122.69,79l3.64-4.15-3.77,4a23.74,23.74,0,0,0-2,2.17L112,92.68l-6.44,12.1c-.37.72-1.18,2.62-2.42,5.67A216,216,0,0,0,95,136.5q-1.17,4.67-3.43,13.65c-1.32,5.12-2.45,9.32-3.42,12.61a172.2,172.2,0,0,1-7.31,20.89,113.51,113.51,0,0,1-6.94,13.26l-3,4.57,3.16-4.43a109.74,109.74,0,0,0,7.34-13.11,154.23,154.23,0,0,0,7.94-20.82q1.8-5.82,7-26.26a225.76,225.76,0,0,1,7.87-26q1.43-3.82,2.28-5.61l6.09-12.16,8.15-11.87C121.69,80.2,122.32,79.45,122.69,79Z" transform="translate(-0.2)"/></g><g id="Duplicate_Items_Folder_Symbol_21_copy_12_0_Layer0_0_MEMBER_3_FILL" data-name="Duplicate Items Folder Symbol 21 copy 12 0 Layer0 0 MEMBER 3 FILL"><path class="cls-2" d="M323.71,58.58q5.42,5.45,14.5,15.9A121.9,121.9,0,0,1,353.6,96q5.64,9.65,12,23.71a234.69,234.69,0,0,1,16.55,51.93,231.48,231.48,0,0,1,4,54.64,36.17,36.17,0,0,0,11.73,7.67,34.36,34.36,0,0,0,12.77,2.73l-15.36.06a34.6,34.6,0,0,0,11.63,5.46,33.05,33.05,0,0,0,12.72.87,221.58,221.58,0,0,1-46.93,28.11,49.39,49.39,0,0,0,20.12,3.8q-24.66,15.69-37.36,22.66a253.53,253.53,0,0,1-48.33,20,241.22,241.22,0,0,0,38.45-12.33,223,223,0,0,0,30.3-15.54l10.21-6.32q26.11-16.71,39-30.08a23.25,23.25,0,0,1-6.19-.5,54.61,54.61,0,0,1,7.75-7.53l-.6-1.46a117.72,117.72,0,0,0,19.79-12.11,65.61,65.61,0,0,1-20-4.34,59.21,59.21,0,0,1-17-10,38,38,0,0,0,12.62-1.61A33.79,33.79,0,0,1,405.72,202l-.84.54a117.55,117.55,0,0,1-9.09-18.72A207.51,207.51,0,0,1,388,156.9q-3.94-18.17-6.22-27.15-8.43-32.46-26.25-51.65-19.18-20.62-47.6-31.72Q314.52,49.2,323.71,58.58Z" transform="translate(-0.2)"/></g><g id="Duplicate_Items_Folder_Symbol_21_copy_12_0_Layer0_0_MEMBER_4_MEMBER_0_MEMBER_0_MEMBER_0_FILL" data-name="Duplicate Items Folder Symbol 21 copy 12 0 Layer0 0 MEMBER 4 MEMBER 0 MEMBER 0 MEMBER 0 FILL"><path class="cls-4" d="M214.28,324.45c-2-.21-3.53-.41-4.54-.61l-8.86-1.37c-2-.3-4.87-.85-8.72-1.63l-24.76-6.07a278.86,278.86,0,0,1-53.87-21.69A246.93,246.93,0,0,1,80.45,272l-4.63-3.57,4.49,3.78a250.47,250.47,0,0,0,32.87,21.53A279.75,279.75,0,0,0,167,316l24.83,6.13c3.25.73,6.15,1.3,8.72,1.71l8.92,1.43c1.06.2,2.59.4,4.61.62l13.81,1.5q6.12.36,9.42.62l4.82.27q1.65,0,4.68-.21l27.44-2.78,8.76-1.45c3.4-.6,6.26-1.16,8.56-1.67q2.83-.66,8.35-1.81l8.09-2.09c1.79-.43,4.4-1.18,7.81-2.23l7.6-2.37q11.07-3.84,14.19-5.17c1.52-.62,3.76-1.5,6.71-2.66l18.09-8.48a242.1,242.1,0,0,0,33.4-20.66l7.94-6.29-8.08,6.15a257.92,257.92,0,0,1-33.6,20.17L344,305c-.92.4-3.14,1.27-6.64,2.59q-2.77,1.14-7,2.59l-7.27,2.51c-3.31,1-5.83,1.71-7.53,2.24-3.41,1.05-6,1.79-7.81,2.23l-8,2-8.36,1.74q-4.62,1-17.25,3.05l-29.64,2.82-7-.24c-4.26-.24-7.38-.45-9.35-.61-.46,0-2-.15-4.67-.41Z" transform="translate(-0.2)"/></g><g id="Duplicate_Items_Folder_Symbol_21_copy_12_0_Layer0_0_MEMBER_5_MEMBER_0_MEMBER_0_MEMBER_0_FILL" data-name="Duplicate Items Folder Symbol 21 copy 12 0 Layer0 0 MEMBER 5 MEMBER 0 MEMBER 0 MEMBER 0 FILL"><path class="cls-4" d="M361.06,84.44c-.14-.18-.77-.92-1.9-2.23l-3.65-4.11L359,82.35c.36.46,1,1.23,1.82,2.3l7.82,12.08,5.81,12.34,2.12,5.67q3.44,10.11,7.13,26.19,4.66,20.58,6.3,26.46a143.7,143.7,0,0,0,7.28,21,107.58,107.58,0,0,0,7,13.32l2.29,3.41a6.54,6.54,0,0,0,.81,1.11l-2.89-4.65a122,122,0,0,1-6.49-13.45,163.12,163.12,0,0,1-6.79-21.09q-1.25-4.84-3-12.71-3-13.47-3-13.74a208.29,208.29,0,0,0-7.47-26.26q-2-5.19-2.19-5.75l-6.16-12.27Z" transform="translate(-0.2)"/></g><g id="Duplicate_Items_Folder_Symbol_18_copy_14_3_Layer0_0_MEMBER_0_FILL" data-name="Duplicate Items Folder Symbol 18 copy 14 3 Layer0 0 MEMBER 0 FILL"><path class="cls-15" d="M328.15,254.55q-3.73-13.06-17.62-19a107.12,107.12,0,0,0-11.65-3.88,89.91,89.91,0,0,1-11.5-4.16A70.58,70.58,0,0,1,272,216.93q-9.24-8.53-14.14-12.46-13.08-10.5-26.37-9.18-12.21,1.2-26.48,13.05-7.61,6.57-11.57,9.68A65.37,65.37,0,0,1,180.57,226a89,89,0,0,1-11.69,3.82,109.44,109.44,0,0,0-11.68,3.55q-14.13,5.58-18.16,18.54-3.9,12.4,3,25.92l1.27-6.93,7.57,14.77.48-9.91a17,17,0,0,0,4.79,11.91v-10q.19,5.75,7.38,14.14,4,4.68,11.52,12.21l.75.91q8,9.33,10.77,12.34a116.75,116.75,0,0,0,11.75,11.24q19.8,16.26,33.56,16.45,15.69.29,33-13.37,9.18-7.31,25.83-25.93,2.81-3.12,11.8-11.88,7.51-8.22,7.84-13.93l-.35,10a16.87,16.87,0,0,0,5.2-11.77l.2,9.92,8-14.55,1,7Q331.7,267.06,328.15,254.55Z" transform="translate(-0.2)"/></g><g id="Duplicate_Items_Folder_Symbol_18_copy_14_3_Layer0_1_MEMBER_0_MEMBER_0_FILL" data-name="Duplicate Items Folder Symbol 18 copy 14 3 Layer0 1 MEMBER 0 MEMBER 0 FILL"><path class="cls-16" d="M234.55,278.35l0,1.79,1.45,0-.49-14.53-.74,8.86C234.65,275.79,234.59,277.08,234.55,278.35Z" transform="translate(-0.2)"/></g><g id="Duplicate_Items_Folder_Symbol_18_copy_14_3_Layer0_2_MEMBER_0_MEMBER_0_MEMBER_0_FILL" data-name="Duplicate Items Folder Symbol 18 copy 14 3 Layer0 2 MEMBER 0 MEMBER 0 MEMBER 0 FILL"><path class="cls-17" d="M274.46,322.9a112.19,112.19,0,0,1-8.71,7.1,115.07,115.07,0,0,1-14.1,9,50.29,50.29,0,0,1-8.93,3.79,28.94,28.94,0,0,1-20.44-.29,50.1,50.1,0,0,1-8.82-4,115.76,115.76,0,0,1-13.84-9.36q-4.56-3.57-8.5-7.34l-2.92-2.94,2.78,3.07a80.29,80.29,0,0,0,8.22,7.83,105,105,0,0,0,13.62,9.83q10.11,6.06,19.67,6.47,9.49-.14,19.77-5.91a105.7,105.7,0,0,0,13.9-9.44,81,81,0,0,0,8.43-7.59l2.87-3Z" transform="translate(-0.2)"/></g><g id="Duplicate_Items_Folder_Symbol_18_copy_14_3_Layer0_3_MEMBER_0_MEMBER_0_MEMBER_0_MEMBER_0_MEMBER_0_FILL" data-name="Duplicate Items Folder Symbol 18 copy 14 3 Layer0 3 MEMBER 0 MEMBER 0 MEMBER 0 MEMBER 0 MEMBER 0 FILL"><path class="cls-18" d="M285,268.67q-13.9,14.38-26,15.6a27.9,27.9,0,0,1-9.22-.75c-3.51-1.06-6-1.79-7.54-2.17a32.44,32.44,0,0,0-6-1,33.4,33.4,0,0,0-6,.81c-3.18.91-5.71,1.57-7.6,1.95a27.85,27.85,0,0,1-9.23.49q-12.09-1.55-25.58-16.33a95.31,95.31,0,0,0,11.11,27.35q7.65,13.11,13.33,16.22,3.13,1.69,12,7.26,8.19,4.74,12.39,4.58Q257,322,271.29,299a119.9,119.9,0,0,0,8.92-17.84Q283.93,271.19,285,268.67Z" transform="translate(-0.2)"/></g><g id="Duplicate_Items_Folder_Symbol_18_copy_14_3_Layer0_3_MEMBER_0_MEMBER_1_MEMBER_0_FILL" data-name="Duplicate Items Folder Symbol 18 copy 14 3 Layer0 3 MEMBER 0 MEMBER 1 MEMBER 0 FILL"><path class="cls-19" d="M250.75,320a31.78,31.78,0,0,0,8.06-5.12q-3.6-8-17.84-8.72a5.63,5.63,0,0,0-3.59.64,3.28,3.28,0,0,0-1.26,1.56,3.66,3.66,0,0,0-.37,1.37,4.6,4.6,0,0,0-2.77-3.41,8.73,8.73,0,0,0-4.6-.61q-12.19.57-17.84,5.18a12.66,12.66,0,0,0,3,3.14c.59.42,1.75,1.22,3.48,2.39a38.43,38.43,0,0,0,19.59,6.33A30.32,30.32,0,0,0,250.75,320Z" transform="translate(-0.2)"/></g><g id="Duplicate_Items_Folder_Symbol_18_copy_14_3_Layer0_3_MEMBER_0_MEMBER_2_MEMBER_0_MEMBER_0_MEMBER_0_FILL" data-name="Duplicate Items Folder Symbol 18 copy 14 3 Layer0 3 MEMBER 0 MEMBER 2 MEMBER 0 MEMBER 0 MEMBER 0 FILL"><path class="cls-1" d="M226.58,281.81a14.69,14.69,0,0,1-3,.72l-3,.37a42.39,42.39,0,0,1-7.44.44l-.55-.07q.93,1.59,3.09,5.34a12.84,12.84,0,0,0,3.79,4.25,2.86,2.86,0,0,0,1.51.44,2.41,2.41,0,0,0,1.52-.46,3.85,3.85,0,0,0,.92-1.71l2.94-8.43A1.92,1.92,0,0,0,226.58,281.81Z" transform="translate(-0.2)"/></g><g id="Duplicate_Items_Folder_Symbol_18_copy_14_3_Layer0_3_MEMBER_0_MEMBER_2_MEMBER_1_MEMBER_0_MEMBER_0_FILL" data-name="Duplicate Items Folder Symbol 18 copy 14 3 Layer0 3 MEMBER 0 MEMBER 2 MEMBER 1 MEMBER 0 MEMBER 0 FILL"><path class="cls-1" d="M253,283.77l-3-.46a14.78,14.78,0,0,1-2.94-.79,1.9,1.9,0,0,0,.19.89l2.7,8.51a3.84,3.84,0,0,0,.87,1.73,2.22,2.22,0,0,0,1.51.57,3.33,3.33,0,0,0,1.52-.46,12.88,12.88,0,0,0,3.91-4.14q1.2-1.77,3.24-5.25l-.55.06A41.81,41.81,0,0,1,253,283.77Z" transform="translate(-0.2)"/></g><g id="Duplicate_Items_Folder_Symbol_18_copy_14_3_Layer0_3_MEMBER_0_MEMBER_2_MEMBER_2_MEMBER_0_MEMBER_0_FILL" data-name="Duplicate Items Folder Symbol 18 copy 14 3 Layer0 3 MEMBER 0 MEMBER 2 MEMBER 2 MEMBER 0 MEMBER 0 FILL"><path class="cls-16" d="M277.6,276c3.3-3,5.16-4.73,5.58-5.22q3.21-3.27,3.92-4.15l3.15-3.74-3.36,3.53c-.46.55-1.81,1.9-4.05,4.08a34.67,34.67,0,0,1-2.58,2.37l-3.06,2.57-7.65,5a33.18,33.18,0,0,1-9.75,3.16,28,28,0,0,1-11.27-1l-5.89-1.81a32,32,0,0,0-6.39-1.05l-.07-.07a35.71,35.71,0,0,0-6.41.94l-6,1.64a28.07,28.07,0,0,1-11.3.73,30.6,30.6,0,0,1-9.65-3.51q-1.44-.78-4-2.46l-3.47-2.67-5.5-5.1c-2.18-2.24-3.49-3.63-3.94-4.19l-3.25-3.62,6.84,8.08q.81.9,5.43,5.38l7.42,5.47a30.68,30.68,0,0,0,10,3.79,28.3,28.3,0,0,0,11.78-.59l5.94-1.57a35.49,35.49,0,0,1,6.14-.88,35.22,35.22,0,0,1,6,1.05l5.9,1.74a28.26,28.26,0,0,0,11.75.92,30.7,30.7,0,0,0,10.1-3.5Z" transform="translate(-0.2)"/></g><g id="Duplicate_Items_Folder_Symbol_18_copy_14_3_Layer0_3_MEMBER_0_MEMBER_2_MEMBER_3_MEMBER_0_MEMBER_0_FILL" data-name="Duplicate Items Folder Symbol 18 copy 14 3 Layer0 3 MEMBER 0 MEMBER 2 MEMBER 3 MEMBER 0 MEMBER 0 FILL"><path class="cls-16" d="M262.25,310.06a41.85,41.85,0,0,1-11.34,8.72,27.44,27.44,0,0,1-14.85,3,34.45,34.45,0,0,1-14.67-4.13A44.38,44.38,0,0,1,210,308.84a85.91,85.91,0,0,1-13.82-20.3,138.31,138.31,0,0,1-6.46-15.44l-2-5.81,1.7,5.94a129.29,129.29,0,0,0,6,15.64,78.14,78.14,0,0,0,13.54,21,44.88,44.88,0,0,0,11.63,9.26A34,34,0,0,0,236,323.52a27.5,27.5,0,0,0,15.67-3.29,42.94,42.94,0,0,0,11.7-9.19,85.69,85.69,0,0,0,13.58-20.87,133.56,133.56,0,0,0,6.21-15.61l1.87-5.89-2.08,5.75a153.41,153.41,0,0,1-6.75,15.32Q269.51,302.46,262.25,310.06Z" transform="translate(-0.2)"/></g><g id="Duplicate_Items_Folder_Symbol_14_copy_8_0_Layer0_0_MEMBER_0_FILL" data-name="Duplicate Items Folder Symbol 14 copy 8 0 Layer0 0 MEMBER 0 FILL"><path class="cls-20" d="M282.53,234.22q-.82-5.39-20.82-17.3-18.9-11.28-25-12-6.21.52-25.42,11.27Q190.93,227.56,190,232.9V233q44.33,10.07,92.48,2.62A7,7,0,0,0,282.53,234.22Z" transform="translate(-0.2)"/></g><g id="Duplicate_Items_Folder_Symbol_14_copy_8_0_Layer0_0_MEMBER_1_FILL" data-name="Duplicate Items Folder Symbol 14 copy 8 0 Layer0 0 MEMBER 1 FILL"><path class="cls-21" d="M282.51,235.59a168.9,168.9,0,0,1-39.71,4.26A207.44,207.44,0,0,1,190,233c-.2,1.29.33,2.94,1.59,5l.13.14q11.66,18.06,41.59,28.4a6.36,6.36,0,0,0,2.4.45,7.4,7.4,0,0,0,2.55-.38,108.26,108.26,0,0,0,25.5-11.75A69.47,69.47,0,0,0,275,245.88q3.63-3.66,4.47-4.62Q282.2,238.07,282.51,235.59Z" transform="translate(-0.2)"/></g><g id="Duplicate_Items_Folder_Symbol_14_copy_8_0_Layer0_0_MEMBER_2_MEMBER_0_MEMBER_0_FILL" data-name="Duplicate Items Folder Symbol 14 copy 8 0 Layer0 0 MEMBER 2 MEMBER 0 MEMBER 0 FILL"><path class="cls-16" d="M278.92,236.44l3.59-.85-13.64.84a316.32,316.32,0,0,1-32.63.5q-8-.31-17.88-1.28l-14.71-1.45L190,233l13.24,3.22A192.58,192.58,0,0,0,236,241.06a153.82,153.82,0,0,0,33.08-2.56C273.39,237.73,276.66,237.05,278.92,236.44Z" transform="translate(-0.2)"/></g><g id="Duplicate_Items_Folder_ededee_copy_8_0_Layer5_0_FILL" data-name="Duplicate Items Folder ededee copy 8 0 Layer5 0 FILL"><path class="cls-22" d="M280,114a60.23,60.23,0,0,0-11.62,18.58,79.42,79.42,0,0,0-5.54,22.73q-.82,8.74-.06,12.89,1.31,7.14,7.14,9.68,10.47,4.53,19,7.22a112.58,112.58,0,0,0,19.74,4.39q11.47,1.44,16.63.7,9.15-1.35,12.79-8.75,2.35-4.78,3.29-13.21a88.4,88.4,0,0,0,2.21-28.82q-2.55-27.82-25.3-35.36Q296.27,96.81,280,114Z" transform="translate(-0.2)"/></g><g id="Duplicate_Items_Folder_ededee_copy_8_0_Layer4_0_FILL" data-name="Duplicate Items Folder ededee copy 8 0 Layer4 0 FILL"><path class="cls-1" d="M303.42,125Q287,124.48,275,136.89t-12.55,30.52q-.54,18.06,10.7,31.21t27.62,13.6q16.4.5,28.39-11.92t12.51-30.52q.54-18.06-10.66-31.21T303.42,125Z" transform="translate(-0.2)"/></g><g class="cls-23"><g id="Duplicate_Items_Folder_Symbol_28_copy_9_0_Layer0_0_FILL" data-name="Duplicate Items Folder Symbol 28 copy 9 0 Layer0 0 FILL"><path class="cls-24" d="M324.11,152.33a27.8,27.8,0,0,1,7.84,20.8A29.11,29.11,0,0,1,281.62,192a29.07,29.07,0,1,1,42.49-39.69Z" transform="translate(-0.2)"/></g><g id="Duplicate_Items_Folder_Symbol_28_copy_9_0_Layer0_1_FILL" data-name="Duplicate Items Folder Symbol 28 copy 9 0 Layer0 1 FILL"><path d="M318.49,157.57a21.37,21.37,0,1,1-37,13.82,20.78,20.78,0,0,1,6.73-14.9,21.42,21.42,0,0,1,30.23,1.08Z" transform="translate(-0.2)"/></g><g id="Duplicate_Items_Folder_Symbol_28_copy_9_0_Layer0_2_FILL" data-name="Duplicate Items Folder Symbol 28 copy 9 0 Layer0 2 FILL"><path class="cls-1" d="M284.83,173.86a6,6,0,0,1-4.18-1.89,5.82,5.82,0,0,1-1.63-4.33,5.88,5.88,0,0,1,1.89-4.12,5.75,5.75,0,0,1,4.28-1.63,5.66,5.66,0,0,1,4.17,1.88,5.76,5.76,0,0,1,1.63,4.28,5.94,5.94,0,0,1-1.88,4.18A5.76,5.76,0,0,1,284.83,173.86Z" transform="translate(-0.2)"/></g></g><path id="Duplicate_Items_Folder_ededee_copy_8_0_Layer1_0_MEMBER_0_1_STROKES" data-name="Duplicate Items Folder ededee copy 8 0 Layer1 0 MEMBER 0 1 STROKES" class="cls-25" d="M341.77,164.72c.11,1.61.14,3.23.1,4.86q-.54,18.06-12.51,30.52T301,212q-16.43-.5-27.62-13.6t-10.7-31.21a48.34,48.34,0,0,1,.39-4.84" transform="translate(-0.2)"/><path id="Duplicate_Items_Folder_Symbol_16_copy_10_0_Layer0_0_1_STROKES" data-name="Duplicate Items Folder Symbol 16 copy 10 0 Layer0 0 1 STROKES" class="cls-25" d="M341.6,164.92c.11,1.61.15,3.23.1,4.86q-.54,18.06-12.51,30.52T300.8,212.22q-16.43-.5-27.62-13.6t-10.7-31.21c0-1.63.18-3.25.39-4.85" transform="translate(-0.2)"/><g id="Duplicate_Items_Folder_Symbol_16_copy_10_0_Layer0_1_MEMBER_0_MEMBER_0_FILL" data-name="Duplicate Items Folder Symbol 16 copy 10 0 Layer0 1 MEMBER 0 MEMBER 0 FILL"><path class="cls-26" d="M289.71,124.81A39.36,39.36,0,0,0,278.39,131a42.2,42.2,0,0,0-13.05,17.15,40.65,40.65,0,0,0-3.31,14,26.87,26.87,0,0,0,0,3.88c.11.9.25,1.35.41,1.36s.34-.43.53-1.29c.32-1.41.58-2.64.81-3.69a54.32,54.32,0,0,1,4.54-12.84A42.22,42.22,0,0,1,281,134.46a36.39,36.39,0,0,1,10.19-5.32,34.32,34.32,0,0,1,24.18.72,35.77,35.77,0,0,1,9.86,5.93,42.12,42.12,0,0,1,11.73,15.85,52.22,52.22,0,0,1,3.72,13.09c.19,1.07.38,2.31.59,3.73.16.88.32,1.32.49,1.32s.32-.44.49-1.33a27.35,27.35,0,0,0,.28-3.87A41.52,41.52,0,0,0,340,150.43a43,43,0,0,0-12-17.9,40.51,40.51,0,0,0-10.93-6.9,37.82,37.82,0,0,0-27.4-.82Z" transform="translate(-0.2)"/></g><g id="Duplicate_Items_Folder_ededee_copy_7_0_Layer5_0_FILL" data-name="Duplicate Items Folder ededee copy 7 0 Layer5 0 FILL"><path class="cls-22" d="M160.46,102.72q-23.15,6.16-27.37,33.78a89,89,0,0,0,.48,28.91q.45,8.46,2.5,13.37,3.19,7.6,12.24,9.51,5.12,1.05,16.64.3a112.6,112.6,0,0,0,20-3.2q8.64-2.19,19.36-6.07,6-2.19,7.7-9.24c.68-2.72.92-7,.72-12.87a79.31,79.31,0,0,0-4.17-23,60.42,60.42,0,0,0-10.48-19.25Q182.84,96.78,160.46,102.72Z" transform="translate(-0.2)"/></g><g id="Duplicate_Items_Folder_ededee_copy_7_0_Layer4_0_FILL" data-name="Duplicate Items Folder ededee copy 7 0 Layer4 0 FILL"><path class="cls-1" d="M172.71,124.43q-16.43-.5-28.39,11.92t-12.55,30.51q-.54,18.06,10.7,31.21t27.62,13.6q16.4.5,28.39-11.92T211,169.24q.54-18.06-10.66-31.21T172.71,124.43Z" transform="translate(-0.2)"/></g><g class="cls-27"><g id="Duplicate_Items_Folder_Symbol_28_copy_9_0_Layer0_0_FILL-2" data-name="Duplicate Items Folder Symbol 28 copy 9 0 Layer0 0 FILL"><path class="cls-24" d="M194.34,151.78a27.77,27.77,0,0,1,7.84,20.8,29.05,29.05,0,0,1-30.1,28.06,29.07,29.07,0,0,1-18.82-50.33,29,29,0,0,1,41.08,1.47Z" transform="translate(-0.2)"/></g><g id="Duplicate_Items_Folder_Symbol_28_copy_9_0_Layer0_1_FILL-2" data-name="Duplicate Items Folder Symbol 28 copy 9 0 Layer0 1 FILL"><path d="M188.72,157a21.42,21.42,0,0,1-1.08,30.23A20.3,20.3,0,0,1,172.37,193,21.38,21.38,0,1,1,188.72,157Z" transform="translate(-0.2)"/></g><g id="Duplicate_Items_Folder_Symbol_28_copy_9_0_Layer0_2_FILL-2" data-name="Duplicate Items Folder Symbol 28 copy 9 0 Layer0 2 FILL"><path class="cls-1" d="M155.06,173.3a5.94,5.94,0,0,1-4.18-1.88,5.84,5.84,0,0,1-1.63-4.34,5.9,5.9,0,0,1,1.89-4.12,5.75,5.75,0,0,1,4.28-1.63,5.63,5.63,0,0,1,4.17,1.89,5.75,5.75,0,0,1,1.63,4.28,5.93,5.93,0,0,1-1.88,4.17A5.76,5.76,0,0,1,155.06,173.3Z" transform="translate(-0.2)"/></g></g><path id="Duplicate_Items_Folder_ededee_copy_7_0_Layer1_0_MEMBER_0_1_STROKES" data-name="Duplicate Items Folder ededee copy 7 0 Layer1 0 MEMBER 0 1 STROKES" class="cls-25" d="M211.06,164.18c.11,1.61.15,3.23.1,4.86q-.54,18.06-12.51,30.51t-28.39,11.92q-16.42-.48-27.62-13.6t-10.7-31.21c.05-1.63.18-3.24.39-4.84" transform="translate(-0.2)"/><path id="Duplicate_Items_Folder_Symbol_16_copy_10_0_Layer0_0_1_STROKES-2" data-name="Duplicate Items Folder Symbol 16 copy 10 0 Layer0 0 1 STROKES" class="cls-25" d="M210.89,164.38c.11,1.61.15,3.23.1,4.86q-.54,18.06-12.51,30.51t-28.39,11.92q-16.43-.48-27.62-13.6t-10.7-31.21c0-1.63.18-3.24.39-4.84" transform="translate(-0.2)"/><g id="Duplicate_Items_Folder_Symbol_16_copy_10_0_Layer0_1_MEMBER_0_MEMBER_0_FILL-2" data-name="Duplicate Items Folder Symbol 16 copy 10 0 Layer0 1 MEMBER 0 MEMBER 0 FILL"><path class="cls-26" d="M159,124.26a39.6,39.6,0,0,0-11.32,6.23,42.39,42.39,0,0,0-13.05,17.16,40.78,40.78,0,0,0-3.31,14,25.19,25.19,0,0,0,.05,3.87c.1.91.24,1.36.4,1.36s.34-.42.53-1.29c.32-1.4.58-2.63.81-3.69A54.32,54.32,0,0,1,137.65,149a42.18,42.18,0,0,1,12.62-15.12,36.69,36.69,0,0,1,10.19-5.33,35.57,35.57,0,0,1,12.18-1.84,34.94,34.94,0,0,1,12,2.56,36,36,0,0,1,9.86,5.93,42.15,42.15,0,0,1,11.73,15.86A52.52,52.52,0,0,1,210,164.19c.18,1.06.38,2.31.58,3.73.16.87.33,1.31.49,1.32s.32-.44.49-1.33a27.47,27.47,0,0,0,.28-3.87,41.44,41.44,0,0,0-2.48-14.15,43,43,0,0,0-12-17.91,40.36,40.36,0,0,0-10.93-6.9,37.82,37.82,0,0,0-27.4-.82Z" transform="translate(-0.2)"/></g><g id="Duplicate_Items_Folder_veve_copy_3_0_Layer3_0_FILL" data-name="Duplicate Items Folder veve copy 3 0 Layer3 0 FILL"><path class="cls-28" d="M326.58,98.75a53.57,53.57,0,0,0-31-14.2,61.63,61.63,0,0,0-2.69,10.22,35.91,35.91,0,0,0-.49,10l13.2.87q15,1.93,24.06,7a28.61,28.61,0,0,1,5.79,4.28,5.32,5.32,0,0,0,.93-2,5.82,5.82,0,0,0-.69-4.55A40.34,40.34,0,0,0,326.58,98.75Z" transform="translate(-0.2)"/></g><g id="Duplicate_Items_Folder_Symbol_26_copy_14_0_Layer0_0_FILL" data-name="Duplicate Items Folder Symbol 26 copy 14 0 Layer0 0 FILL"><path class="cls-29" d="M294,97.43a82.15,82.15,0,0,0-1.5-9.88c-.17,1.24-.34,2.86-.51,4.84a102.82,102.82,0,0,0-.27,11.58l.11,3.27s0,0,.08,0l.08,0,1.23-.13q10.32-1,14.39-2.38l-1.29-.28c-1.49-.27-2.67-.44-3.54-.52a44.25,44.25,0,0,0-5.3-.08l-3.07.32,0,0v-.25Q294.3,100.54,294,97.43Z" transform="translate(-0.2)"/></g><g id="Duplicate_Items_Folder_Symbol_25_copy_21_0_Layer0_0_FILL" data-name="Duplicate Items Folder Symbol 25 copy 21 0 Layer0 0 FILL"><path class="cls-29" d="M289.05,86.54c-.14,1.25-.27,2.87-.39,4.85a110.78,110.78,0,0,0-.09,11.22,2.73,2.73,0,0,1,0,.41l.2,2.7a2.33,2.33,0,0,0,.53,1.36,1.9,1.9,0,0,0,1,.72h.13a4,4,0,0,0,1.43-.21l11.18-2.6-1.31-.12c-1-.11-2.17-.17-3.58-.19s-3.31.12-5.27.33l-1.52.24-.08-.08v0h0l0-.2-.06-2.09A92.92,92.92,0,0,0,289.05,86.54Z" transform="translate(-0.2)"/></g><g id="Duplicate_Items_Folder_Symbol_24_copy_13_0_Layer0_0_FILL" data-name="Duplicate Items Folder Symbol 24 copy 13 0 Layer0 0 FILL"><path class="cls-29" d="M285.08,92.59l-1.95-4.47c.12,1.26.35,2.87.67,4.84a111.52,111.52,0,0,0,2.55,11.46l1.19,4,2.83-.61a1.9,1.9,0,0,1-1-.72,2.33,2.33,0,0,1-.53-1.36l-.2-2.7a2.73,2.73,0,0,0,0-.41A103,103,0,0,0,285.08,92.59Z" transform="translate(-0.2)"/></g><g id="Duplicate_Items_Folder_veve_copy_3_0_Layer1_0_FILL" data-name="Duplicate Items Folder veve copy 3 0 Layer1 0 FILL"><path class="cls-28" d="M179,85.3A58.59,58.59,0,0,0,167.79,88a51.38,51.38,0,0,0-17.56,10.35q-6.61,5.82-9.45,11.36a5.79,5.79,0,0,0-.83,4.53,5.4,5.4,0,0,0,.87,2.08,28.27,28.27,0,0,1,5.91-4.12q8-4.22,20.8-6h.07a106.6,106.6,0,0,1,11.72-.87h4.88A61.77,61.77,0,0,0,181.6,85C180.73,85.08,179.85,85.18,179,85.3Z" transform="translate(-0.2)"/></g><g id="Duplicate_Items_Folder_Symbol_26_copy_14_0_Layer0_0_FILL-2" data-name="Duplicate Items Folder Symbol 26 copy 14 0 Layer0 0 FILL"><path class="cls-29" d="M182.8,98.19a81.44,81.44,0,0,1,1.78-9.83c.13,1.25.26,2.86.37,4.85a101.39,101.39,0,0,1-.06,11.58l-.2,3.27s0,0-.08,0l-.08,0-1.23-.16Q173,106.57,169,105.1l1.31-.24q2.24-.33,3.54-.42a43.09,43.09,0,0,1,5.31.08l3.06.4,0,0v-.25C182.37,102.4,182.56,100.26,182.8,98.19Z" transform="translate(-0.2)"/></g><g id="Duplicate_Items_Folder_Symbol_25_copy_21_0_Layer0_0_FILL-2" data-name="Duplicate Items Folder Symbol 25 copy 21 0 Layer0 0 FILL"><path class="cls-29" d="M188.08,87.45c.11,1.25.2,2.87.26,4.86q.16,5.7-.23,11.21a2,2,0,0,0,0,.41l-.28,2.69a2.28,2.28,0,0,1-.57,1.35,1.92,1.92,0,0,1-1.06.7H186a4.19,4.19,0,0,1-1.43-.25l-11.1-2.92,1.3-.08c1-.08,2.18-.11,3.59-.09s3.31.22,5.27.48l1.51.29.08-.08v0h0l0-.21.12-2.08A92.68,92.68,0,0,1,188.08,87.45Z" transform="translate(-0.2)"/></g><g id="Duplicate_Items_Folder_Symbol_24_copy_13_0_Layer0_0_FILL-2" data-name="Duplicate Items Folder Symbol 24 copy 13 0 Layer0 0 FILL"><path class="cls-29" d="M191.89,93.61,194,89.2c-.16,1.25-.43,2.85-.81,4.81a108.94,108.94,0,0,1-2.88,11.39l-1.3,3.95-2.81-.68a1.92,1.92,0,0,0,1.06-.7,2.28,2.28,0,0,0,.57-1.35l.28-2.69a2,2,0,0,1,0-.41A98.29,98.29,0,0,1,191.89,93.61Z" transform="translate(-0.2)"/></g><rect class="cls-30" x="135.06" y="228.28" width="183.25" height="393.64" transform="translate(-200.68 647.85) rotate(-89.47)"/><rect class="cls-31" x="140.08" y="237.85" width="172.36" height="379.36" transform="translate(-203.54 649.84) rotate(-89.47)"/><path class="cls-32" d="M416.77,343.09c0-.5-152.95-1.11-162.07-.26l-9.82.91c46.15.36,102.3,2.07,148.35,5.14,5.78.39,12.28,1.16,15.82,5.75,6.2,8,5.73,24.59,6.49,34.47,1,13.2.18,110.31-.9,123.51C417.27,484.34,416.49,371.48,416.77,343.09Z" transform="translate(-0.2)"/><path class="cls-32" d="M35.75,511.56l7.77.08c31.86.3,73.72.61,105.57.92l56.89.56,75.4.73c22.05.21,99,1.16,120.87,1.38-44.68-.44-144-6.29-188.69-7.92-39.89-1.46-134.48,1.56-148.74-17.26-8.93-11.78-8.38-30-9.3-48.87-.88-17.86.61-36.81,2.63-54.3,3.52-30.6,18.47-38.18,31.74-41.15,11.82-2.64,56.64-4.52,73.46-4.86-5.55-.67-125.92-2-125.93-1.07Z" transform="translate(-0.2)"/><g class="cls-33"><path class="cls-34" d="M35.75,511.68l1.67-171.86c7.49-.31,14.94-.21,22.43,0-5.77,0-11.69.08-17.15,3.89-3.78,2.64-5.12,10.59-.55,13.13a5.81,5.81,0,0,0,3.6.39l2.6-.28a29.19,29.19,0,0,0-4.85,1.39,4.43,4.43,0,0,0-2,1.31,5.6,5.6,0,0,0-1.13,3.41c0,2.56.06,5.12,0,7.74Q40,379.38,39.82,388q-.26,10.59-.44,21.18c-.07,4-.75,12.56,1.16,15.26a3.06,3.06,0,0,0,1.94,1.19,12.19,12.19,0,0,0,5.57.06,18.54,18.54,0,0,0-5.76,2.51,4.93,4.93,0,0,0-2,2.15c-.78,1.63-.89,4-1,6.23-.37,12.18-1,24.14-1.6,36.28-.37,6.94-.69,14-.64,20.93,0,5.29,1.76,6.47,4.14,6.85a53.19,53.19,0,0,0,11.26.58l-4,.4a33.69,33.69,0,0,0-7.63,1.35A2.32,2.32,0,0,0,39.44,504c-1.91,3.26-.18,6.67,1.6,7.2l1.92.57C40.72,511.08,38,511.7,35.75,511.68Z" transform="translate(-0.2)"/></g><path class="cls-35" d="M19.61,321.28,17.58,530l417.32,3.86,2-208.75ZM417.37,517.84l-384-3.54,1.72-177,384,3.53Z" transform="translate(-0.2)"/><g id="Layer0_4_MEMBER_3_MEMBER_0_MEMBER_0_FILL" data-name="Layer0 4 MEMBER 3 MEMBER 0 MEMBER 0 FILL"><path class="cls-36" d="M29.58,341.56l-.15,6.4q-.13,6.38-.23,16.58-.11,9.3-.12,16.6l.09,6.88,0-.48.17-6.39q.13-7.31.21-16.61l0-23.46Z" transform="translate(-0.2)"/></g><g id="Layer0_4_MEMBER_4_MEMBER_0_MEMBER_0_FILL" data-name="Layer0 4 MEMBER 4 MEMBER 0 MEMBER 0 FILL"><path class="cls-36" d="M22.33,385.76,22,399.29c0,1.78-.54,55.26-.59,59.28-.08,5.9-.44,44.42-.44,49.06l0,6.1c0,.3,0,.46,0,.46l.2-6.55c.08-4.05.48-42.57.54-49.07l.51-72.92Z" transform="translate(-0.2)"/></g><g id="Layer0_3_MEMBER_2_MEMBER_0_MEMBER_0_FILL" data-name="Layer0 3 MEMBER 2 MEMBER 0 MEMBER 0 FILL"><path class="cls-36" d="M425.46,335.63c0-.69,0-1,0-1a7.91,7.91,0,0,0-.08,1l-.12,5.82q-.13,7-.16,9.18v12a5.58,5.58,0,0,0,.07,1,4,4,0,0,0,.1-1l.09-2.78c.05-1.58.09-4.64.14-9.2q0-2.14,0-9.18Z" transform="translate(-0.2)"/></g><g id="Layer0_3_MEMBER_3_MEMBER_0_MEMBER_0_FILL" data-name="Layer0 3 MEMBER 3 MEMBER 0 MEMBER 0 FILL"><path class="cls-36" d="M425.61,372.29l-.06-6.88-.05.48-.17,6.4q-.19,12.75-.23,16.58c-.07,6.82-.59,62.94-.59,67.19l.09,6.88,0-.49.86-73.58Q425.62,378.67,425.61,372.29Z" transform="translate(-0.2)"/></g><g id="Layer0_3_MEMBER_4_MEMBER_0_MEMBER_0_FILL" data-name="Layer0 3 MEMBER 4 MEMBER 0 MEMBER 0 FILL"><path class="cls-36" d="M433.21,387.08l0-.11-.9,72.93c-.07,6.5-.42,45-.41,49.06,0,2.06,0,3.66,0,4.8l.05,1.75s.05-.15.05-.46l.17-6.08c.06-2.71.44-41.23.52-49.07Z" transform="translate(-0.2)"/></g><g id="Layer0_2_MEMBER_5_FILL" data-name="Layer0 2 MEMBER 5 FILL"><path class="cls-37" d="M434.79,526.3v-1.64l-54.18.28Z" transform="translate(-0.2)"/></g><g id="Layer0_2_MEMBER_2_FILL" data-name="Layer0 2 MEMBER 2 FILL"><path class="cls-37" d="M17.74,522.27v1.07l182.37,1Z" transform="translate(-0.2)"/></g><g id="Layer0_2_MEMBER_3_MEMBER_0_MEMBER_0_FILL" data-name="Layer0 2 MEMBER 3 MEMBER 0 MEMBER 0 FILL"><path class="cls-38" d="M217.43,531.87l-.65-8.16-1,8.15" transform="translate(-0.2)"/></g><g id="Layer0_2_MEMBER_4_MEMBER_0_MEMBER_0_FILL" data-name="Layer0 2 MEMBER 4 MEMBER 0 MEMBER 0 FILL"><path class="cls-36" d="M344.23,529.46l-4.45-.13q-4.56-.14-13-.26-13.2-.21-42.78-.26L228,528.57l13.28.33q7.26.14,19.23.21l23.55.07q30.23.06,42.78.16l17.66.17s.06,0,.06,0h-.06Z" transform="translate(-0.2)"/></g><g class="cls-39"><g id="Layer0_1_MEMBER_5_FILL" data-name="Layer0 1 MEMBER 5 FILL"><path class="cls-38" d="M19.61,323V324l160,.76Z" transform="translate(-0.2)"/></g></g><g class="cls-39"><g id="Layer0_1_MEMBER_5_FILL-2" data-name="Layer0 1 MEMBER 5 FILL"><path class="cls-38" d="M19.24,361.08l0,1.65,8.94-.56Z" transform="translate(-0.2)"/></g></g><g id="Layer0_4_MEMBER_1_FILL" data-name="Layer0 4 MEMBER 1 FILL"><path class="cls-38" d="M33.57,499.92l1.7-1.08-1.68-.71-6.76.63Z" transform="translate(-0.2)"/></g><g id="Layer0_4_MEMBER_1_FILL-2" data-name="Layer0 4 MEMBER 1 FILL"><polygon class="cls-40" points="33.39 498.13 33.37 499.92 35.06 498.85 33.39 498.13"/></g><g id="Layer0_1_MEMBER_6_MEMBER_0_MEMBER_0_FILL" data-name="Layer0 1 MEMBER 6 MEMBER 0 MEMBER 0 FILL"><path class="cls-36" d="M264.52,336.72s0,0-.09,0l-5.34-.21c-4.44-.16-9.19-.27-14.83-.41q-16-.33-22-.36-4.23,0-6.35,0c-1.46,0-3.68,0-6.64,0q-9.09,0-13.93-.11l-26.94-.55q-6.65-.16-22-.1l-20.26-.11,5.43.2c4.51.11,9.46.15,14.83.15h10.25c4.33,0,8.24.09,11.74.2l13,.37q6,.15,14,.22,4.88.07,13.94.12c3,0,5.17,0,6.63,0l6.36-.07q7.19,0,22,.28Z" transform="translate(-0.2)"/></g><g id="Layer0_1_MEMBER_7_MEMBER_0_MEMBER_0_FILL" data-name="Layer0 1 MEMBER 7 MEMBER 0 MEMBER 0 FILL"><path class="cls-36" d="M354.84,327.37l-.09,0-17.5-.15q-12.6-.12-42.41-.6l-23.37-.32c-8.9-.12-15.08-.16-19.06-.16l-14.32.08,1.46,0q6.55,0,12.86.11l42.41.63q28.95.48,42.43.52l17.5-.12Z" transform="translate(-0.2)"/></g><g id="Layer0_1_MEMBER_8_FILL" data-name="Layer0 1 MEMBER 8 FILL"><path class="cls-37" d="M436.88,331.07l0-1.64-53.8.4Z" transform="translate(-0.2)"/></g><g id="Layer0_1_MEMBER_3_MEMBER_0_FILL" data-name="Layer0 1 MEMBER 3 MEMBER 0 FILL"><path class="cls-38" d="M355,340.32l.82,1.56.84-1.5-.63-6.13Z" transform="translate(-0.2)"/></g><g id="Layer0_1_MEMBER_4_FILL" data-name="Layer0 1 MEMBER 4 FILL"><path class="cls-38" d="M192,322.87l-1.92,0,.91,5.23Z" transform="translate(-0.2)"/></g><g class="cls-39"><g id="Layer0_1_MEMBER_5_FILL-3" data-name="Layer0 1 MEMBER 5 FILL"><path class="cls-38" d="M239.9,532.09l1.64,0" transform="translate(-0.2)"/></g></g><text class="cls-41" transform="translate(47.42 378.54) scale(0.99 1)">Hello! I am Puppydoo<tspan x="80.13" y="37.08">I am curious</tspan><tspan x="104.79" y="74.15">I am silly</tspan><tspan x="88.64" y="111.23">I learn fast</tspan></text><path class="cls-9" d="M25.73,419.15a11.12,11.12,0,0,1-8,2.19,26.91,26.91,0,0,1-8.37-2.79C4,416-.61,415.21,1.72,408A14.59,14.59,0,0,1,12.8,398a28,28,0,0,1,5.66-.87s.63,8,.63,8l-2.46-1.38a18.89,18.89,0,0,1,6.05,4.53c1.66,1.75,3.74,3.64,4.46,6A4.07,4.07,0,0,1,25.73,419.15Z" transform="translate(-0.2)"/><path class="cls-9" d="M11.37,435.54c3.58.23,6.9-1,10-2.58,2.3-1.16,6.24-3.15,5.17-6.34-1-2.92-5.15-3.31-7.68-4.48L6,416.16c-2.36,1.24-3.9,4-4.52,6.79C-.29,430.83,2.92,435,11.37,435.54Z" transform="translate(-0.2)"/><path class="cls-42" d="M18.55,397.14l-.75,0c-.49,0-1.22.08-2.15.2A23.46,23.46,0,0,0,8,399.66a15.33,15.33,0,0,0-4.37,3.48,12.33,12.33,0,0,0-1.74,2.64,12.52,12.52,0,0,0-.62,1.55A9.64,9.64,0,0,0,1,409a8.25,8.25,0,0,0,2.48,6.76,19.7,19.7,0,0,0,6.44,4.13,28.13,28.13,0,0,0,7.33,2,11.73,11.73,0,0,0,3.7-.09,12.55,12.55,0,0,0,3.39-1.08A7.17,7.17,0,0,0,27,418.56a4.73,4.73,0,0,0,.88-3.2,6.38,6.38,0,0,0-1.16-2.79,20.28,20.28,0,0,0-1.7-2.06c-1.12-1.22-2.11-2.4-3.11-3.3a19.34,19.34,0,0,0-2.69-2.13,14.08,14.08,0,0,0-1.89-1l-.69-.29.66.34a14.76,14.76,0,0,1,1.81,1.16,21.28,21.28,0,0,1,2.51,2.25c.93.95,1.83,2.14,2.9,3.44A19.44,19.44,0,0,1,26.06,413a5.59,5.59,0,0,1,.92,2.45,3.85,3.85,0,0,1-.8,2.52,6.32,6.32,0,0,1-2.35,1.77,11.94,11.94,0,0,1-6.45.92,28.34,28.34,0,0,1-7-2,19.1,19.1,0,0,1-6.05-3.8,7.13,7.13,0,0,1-2.27-5.78,9.69,9.69,0,0,1,.24-1.51,11.45,11.45,0,0,1,.52-1.42,12.09,12.09,0,0,1,1.52-2.5,15,15,0,0,1,4-3.47,24.53,24.53,0,0,1,7.34-2.67c.91-.18,1.63-.29,2.12-.34Z" transform="translate(-0.2)"/><path class="cls-9" d="M7.44,435.56c-2.87,4.75-1.57,7.77,3.18,10.08a10.46,10.46,0,0,0,8.66-.27,15.63,15.63,0,0,0,5.1-3.22,8,8,0,0,0,2.24-3.73c.7-3-3.48-4.76-5.81-5.38Z" transform="translate(-0.2)"/><path class="cls-42" d="M7.44,435.56l-.22.35a7.3,7.3,0,0,0-.61,1,6.42,6.42,0,0,0-.84,4.31A5.46,5.46,0,0,0,7.33,444a11.57,11.57,0,0,0,2.91,2.07,10.2,10.2,0,0,0,8.1.37,16.88,16.88,0,0,0,6.84-4.33,6.93,6.93,0,0,0,1.71-3.22,3.73,3.73,0,0,0-.05-1.73,4,4,0,0,0-.74-1.38,6.3,6.3,0,0,0-2-1.59,10.62,10.62,0,0,0-1.75-.74,12.06,12.06,0,0,0-1.54-.4,14.8,14.8,0,0,1,1.47.59,11,11,0,0,1,1.6.9,6.18,6.18,0,0,1,1.69,1.63,3,3,0,0,1,.45,2.53,6.23,6.23,0,0,1-1.65,2.67,17.57,17.57,0,0,1-6.44,3.83,9.64,9.64,0,0,1-7.2-.12c-2.13-1-3.86-2.32-4.33-4A6.37,6.37,0,0,1,6.79,437c.18-.48.36-.83.47-1.07Z" transform="translate(-0.2)"/><path class="cls-42" d="M6,416.05l-.49.31a10.43,10.43,0,0,0-1.35,1,12.21,12.21,0,0,0-3.3,5.24,11.84,11.84,0,0,0-.6,4.32,9.43,9.43,0,0,0,1.53,4.84,8.65,8.65,0,0,0,4.48,3.45,18.9,18.9,0,0,0,5.88,1,20.46,20.46,0,0,0,10.94-3.05,14.91,14.91,0,0,0,3.84-3.26,4.67,4.67,0,0,0,.59-1.1,3.69,3.69,0,0,0,.16-1.23,3.16,3.16,0,0,0-1-2,9.64,9.64,0,0,0-3.07-1.87c-1-.4-1.81-.67-2.5-.89l-2.16-.68s.74.33,2.09.87c.67.28,1.49.62,2.4,1.08A9.4,9.4,0,0,1,26.15,426a2.45,2.45,0,0,1,.71,1.59,2.85,2.85,0,0,1-.16.9,3.81,3.81,0,0,1-.52.85,14.74,14.74,0,0,1-3.69,2.85,20.51,20.51,0,0,1-10.35,2.69A18.73,18.73,0,0,1,6.65,434a7.63,7.63,0,0,1-4-2.89,8.75,8.75,0,0,1-1.55-4.28,11.46,11.46,0,0,1,.34-4.07,12.35,12.35,0,0,1,2.81-5.28A10.92,10.92,0,0,1,5.5,416.4Z" transform="translate(-0.2)"/><path class="cls-9" d="M426.84,418.33a11.12,11.12,0,0,0,7.75,3,26.34,26.34,0,0,0,8.6-1.95c5.59-2,10.26-2.32,8.65-9.76a14.57,14.57,0,0,0-10-11,27.77,27.77,0,0,0-5.55-1.43s-.11,7.25-.11,7.25l1.28-.49a19.08,19.08,0,0,0-6.47,3.91c-1.83,1.58-4.09,3.26-5,5.49A4.1,4.1,0,0,0,426.84,418.33Z" transform="translate(-0.2)"/><path class="cls-9" d="M439.5,436.06c-3.57-.12-6.76-1.68-9.73-3.56-2.17-1.38-5.89-3.76-4.52-6.82,1.26-2.81,5.46-2.78,8.09-3.69l13.45-4.68c2.23,1.47,3.49,4.35,3.83,7.2C451.58,432.53,448,436.35,439.5,436.06Z" transform="translate(-0.2)"/><path class="cls-42" d="M436.17,397.13l.73.16c.48.1,1.19.28,2.08.55a24.6,24.6,0,0,1,7,3.39,14.94,14.94,0,0,1,3.63,3.85,11.68,11.68,0,0,1,1.26,2.64,9.76,9.76,0,0,1,.38,1.46,8.62,8.62,0,0,1,.09,1.53,7.09,7.09,0,0,1-2.83,5.52,19.32,19.32,0,0,1-6.4,3.19,28.25,28.25,0,0,1-7.15,1.24,11.81,11.81,0,0,1-6.32-1.56,6.23,6.23,0,0,1-2.17-2,3.84,3.84,0,0,1-.54-2.59,5.43,5.43,0,0,1,1.16-2.34,18.68,18.68,0,0,1,1.74-1.9c1.2-1.18,2.21-2.29,3.22-3.13a20.62,20.62,0,0,1,2.73-2,15.28,15.28,0,0,1,1.91-1l.7-.28-.72.23a13.6,13.6,0,0,0-2,.85,19.59,19.59,0,0,0-2.89,1.85c-1.07.79-2.17,1.87-3.41,3a19.87,19.87,0,0,0-1.9,1.89,6.32,6.32,0,0,0-1.43,2.66,4.73,4.73,0,0,0,.56,3.27A7.18,7.18,0,0,0,428.1,420a12.15,12.15,0,0,0,3.26,1.41,11.84,11.84,0,0,0,3.68.46,28.14,28.14,0,0,0,7.49-1.24,19.68,19.68,0,0,0,6.82-3.48,8.2,8.2,0,0,0,3.13-6.47,9.85,9.85,0,0,0-.15-1.73,13.64,13.64,0,0,0-.47-1.61,12.93,12.93,0,0,0-1.46-2.79,15.52,15.52,0,0,0-4-3.9,23.55,23.55,0,0,0-7.36-3c-.91-.22-1.63-.35-2.12-.42Z" transform="translate(-0.2)"/><path class="cls-9" d="M443.42,436.48c2.38,5,.79,7.88-4.17,9.7a10.42,10.42,0,0,1-8.59-1.12,15.8,15.8,0,0,1-4.75-3.71,7.85,7.85,0,0,1-1.86-3.93c-.4-3.1,3.93-4.39,6.31-4.78Z" transform="translate(-0.2)"/><path class="cls-42" d="M443.42,436.48l.14.38c.09.26.23.63.36,1.12a6.36,6.36,0,0,1,0,4.09c-.64,1.61-2.49,2.8-4.71,3.54A9.61,9.61,0,0,1,432,445a17.51,17.51,0,0,1-6-4.45,6.24,6.24,0,0,1-1.37-2.81,3,3,0,0,1,.69-2.48,6.16,6.16,0,0,1,1.85-1.45,11.28,11.28,0,0,1,1.68-.74,12.84,12.84,0,0,1,1.52-.44,11,11,0,0,0-1.57.25,9.27,9.27,0,0,0-1.81.56,6.29,6.29,0,0,0-2.15,1.38,3.9,3.9,0,0,0-.87,1.3,3.78,3.78,0,0,0-.23,1.71,7,7,0,0,0,1.38,3.39,16.91,16.91,0,0,0,6.38,5,10.23,10.23,0,0,0,8.1.43,11.53,11.53,0,0,0,3.1-1.76,5.52,5.52,0,0,0,1.83-2.58,6.48,6.48,0,0,0-.41-4.39c-.19-.48-.38-.83-.5-1.07Z" transform="translate(-0.2)"/><path class="cls-42" d="M446.82,417.2l.43.4a10.59,10.59,0,0,1,1.12,1.22,12.42,12.42,0,0,1,2.28,5.53,11.78,11.78,0,0,1-.07,4.09,8.87,8.87,0,0,1-2,4.11,7.65,7.65,0,0,1-4.26,2.48,18.75,18.75,0,0,1-5.54.33,20.38,20.38,0,0,1-10-3.7,14.6,14.6,0,0,1-3.4-3.21,3.83,3.83,0,0,1-.43-.89,3.18,3.18,0,0,1-.08-.91,2.57,2.57,0,0,1,.87-1.52,9.7,9.7,0,0,1,2.94-1.66c1-.37,1.81-.62,2.5-.83,1.39-.4,2.16-.66,2.16-.66s-.78.18-2.21.46c-.71.15-1.58.34-2.58.64a9.77,9.77,0,0,0-3.24,1.56,3.17,3.17,0,0,0-1.2,1.89,3.24,3.24,0,0,0,0,1.24,4.28,4.28,0,0,0,.47,1.15,15,15,0,0,0,3.5,3.63,20.46,20.46,0,0,0,10.59,4.12,19,19,0,0,0,5.94-.43,8.64,8.64,0,0,0,4.8-3,9.51,9.51,0,0,0,2-4.66,11.81,11.81,0,0,0-.17-4.36,12.27,12.27,0,0,0-2.77-5.55,9.79,9.79,0,0,0-1.24-1.13Z" transform="translate(-0.2)"/></g></g></svg>