<svg xmlns="http://www.w3.org/2000/svg" xmlns:xlink="http://www.w3.org/1999/xlink" viewBox="0 0 614.68 920.66"><defs><style>.cls-1{fill:#768298;}.cls-2{fill:url(#linear-gradient);}.cls-3{fill:#a9b5c7;}.cls-4{fill:url(#linear-gradient-2);}.cls-5{fill:#768398;}.cls-6{fill:#d0c3c1;}.cls-7{fill:#bfafac;}.cls-8{fill:#33424d;}.cls-9{fill:#3672b7;}.cls-10{fill:#1d4c7e;}.cls-11{fill:#2d68a6;}.cls-12{fill:#dfe3ea;}.cls-13{fill:#99a0ac;}.cls-14{fill:#54b365;}.cls-15{fill:url(#radial-gradient);}.cls-16{fill:url(#linear-gradient-3);}.cls-17{fill:#84635c;}.cls-18{fill:#693d35;}.cls-19{fill:url(#linear-gradient-4);}.cls-20{fill:url(#radial-gradient-2);}.cls-21{fill:#203240;}.cls-22{fill:#221f20;}.cls-23{fill:#e5e6ea;}.cls-24{fill:none;stroke:#221f20;stroke-miterlimit:15.62;stroke-width:1.41px;}.cls-25{fill:#090806;}.cls-26{fill:#d1cfcd;}.cls-27{fill:url(#linear-gradient-5);}.cls-28{fill:#d05e5a;}.cls-29{fill:#010101;}.cls-30{fill:url(#linear-gradient-6);}.cls-31{fill:#2a1d1a;}.cls-32{fill:#4d6176;}.cls-33{fill:#774b2c;}.cls-34{fill:#fcf4dd;}.cls-35{fill:#f1e8d1;}.cls-36{opacity:0.5;}.cls-37{fill:#9d947f;}.cls-38{fill:#c78e62;}.cls-39{fill:#795741;}.cls-40{fill:#663f26;}.cls-41{fill:#442917;}.cls-42{isolation:isolate;}.cls-43{fill:#30190c;}.cls-44{font-size:39.3px;fill:#005d52;font-family:Adventuring;}.cls-45{fill:#d3c7c4;}.cls-46{fill:#34434e;}</style><linearGradient id="linear-gradient" x1="-1551.85" y1="3862.53" x2="-1634.53" y2="3963.48" gradientTransform="matrix(-1.99, 0.1, -0.1, -1.99, -2314.32, 8482.97)" gradientUnits="userSpaceOnUse"><stop offset="0.01" stop-color="#b4c0d1"/><stop offset="1" stop-color="#e2e6ed"/></linearGradient><linearGradient id="linear-gradient-2" x1="-714.85" y1="3884.5" x2="-797.53" y2="3985.45" gradientTransform="matrix(1.98, 0.19, 0.19, -1.98, 910.32, 8486.04)" xlink:href="#linear-gradient"/><radialGradient id="radial-gradient" cx="-939.45" cy="1783.87" r="96.03" gradientTransform="matrix(1.56, -0.03, 0, 1.57, 1729.19, -2403.88)" gradientUnits="userSpaceOnUse"><stop offset="0.23" stop-color="#ac8068"/><stop offset="0.99" stop-color="#30465e"/></radialGradient><linearGradient id="linear-gradient-3" x1="-696.16" y1="4430.54" x2="-615.14" y2="4469.67" gradientTransform="matrix(1.56, 0, 0, -1.56, 1487.53, 7006.29)" gradientUnits="userSpaceOnUse"><stop offset="0" stop-color="#758196"/><stop offset="1" stop-color="#d6a58a"/></linearGradient><linearGradient id="linear-gradient-4" x1="-827.44" y1="4432.47" x2="-910.61" y2="4466.77" gradientTransform="matrix(1.56, 0, 0, -1.56, 1513.45, 7006.22)" xlink:href="#linear-gradient-3"/><radialGradient id="radial-gradient-2" cx="-939.45" cy="1765.1" r="160.89" gradientTransform="translate(1764.56 -2358.16) scale(1.56)" gradientUnits="userSpaceOnUse"><stop offset="0.28" stop-color="#d6a58a"/><stop offset="0.4" stop-color="#ba9a8d"/><stop offset="0.55" stop-color="#9c8f91"/><stop offset="0.7" stop-color="#868793"/><stop offset="0.83" stop-color="#7a8395"/><stop offset="0.95" stop-color="#758196"/></radialGradient><linearGradient id="linear-gradient-5" x1="-825.35" y1="4273.87" x2="-826.33" y2="4393.79" gradientTransform="matrix(1.56, 0, 0, -1.56, 1595.05, 7160.58)" gradientUnits="userSpaceOnUse"><stop offset="0.24" stop-color="#d6a58a"/><stop offset="1" stop-color="#758196"/></linearGradient><linearGradient id="linear-gradient-6" x1="-816.04" y1="4524.03" x2="-814.22" y2="4432.36" gradientTransform="matrix(1.56, 0, 0, -1.56, 1595.05, 7160.58)" gradientUnits="userSpaceOnUse"><stop offset="0" stop-color="#8294aa"/><stop offset="1" stop-color="#758196"/></linearGradient></defs><title>Asset 63</title><g id="Layer_2" data-name="Layer 2"><g id="Layer_2-2" data-name="Layer 2"><g id="Duplicate_Items_Folder_right_left_arm_0_Layer0_0_MEMBER_0_FILL" data-name="Duplicate Items Folder right left arm 0 Layer0 0 MEMBER 0 FILL"><path class="cls-1" d="M514.83,479.57q25.62-12.31,38.14-16.05l2.56-.69q47.18,68.42,47.77,103.63a46.69,46.69,0,0,1-11.78,32Q580.46,611.29,565.23,614a51,51,0,0,1-20.11-.4,70.88,70.88,0,0,1-17.38-6.49Q517,601.53,503.4,584.33q-7-17-13.46-34.78-12.76-35.38-10.65-44.89Q481.38,495.72,514.83,479.57Z"/></g><g id="Duplicate_Items_Folder_right_left_arm_0_Layer0_1_FILL" data-name="Duplicate Items Folder right left arm 0 Layer0 1 FILL"><path class="cls-2" d="M466.52,395.73l8.5-17.27q35.53,9.27,69.65,47.5a268.48,268.48,0,0,1,50.52,83.15l-10.08,3.59q-12.61,4.72-25.65,11Q518,543.39,489.23,569.45q-22.11-47.31-28.47-84.35Q452.74,438.57,466.52,395.73Z"/></g><g id="Duplicate_Items_Folder_right_left_arm_0_Layer0_2_MEMBER_0_FILL" data-name="Duplicate Items Folder right left arm 0 Layer0 2 MEMBER 0 FILL"><path class="cls-3" d="M458.57,468.21c-.17-3.25-.18-4.87-.05-4.88s.38,1.58.74,4.74l.87,5.54q.76,5.13,1.17,7.41,1.14,6.62,4.24,18.8,2.85,11,6.82,22.76,5.76,17.34,15.18,40.36l5.09,12a37.79,37.79,0,0,1,1.63,4.59L492,575.27q-3.33-6.81-5.58-11.87-9.09-20.25-15.77-40.23-4.14-12.84-6.63-22.87a192.42,192.42,0,0,1-3.85-19.12q-.12-.3-1.07-7.42Z"/></g><g id="Duplicate_Items_Folder_right_left_arm_0_Layer0_0_MEMBER_0_FILL-2" data-name="Duplicate Items Folder right left arm 0 Layer0 0 MEMBER 0 FILL"><path class="cls-1" d="M103.15,479q-25-13.44-37.38-17.73l-2.52-.81Q13.06,526.72,10.9,561.87a46.73,46.73,0,0,0,10.34,32.55Q31.73,607.67,46.82,611a51,51,0,0,0,20.11.5,71,71,0,0,0,17.65-5.71q10.94-5.05,25.33-21.65,7.78-16.63,15-34.14,14.32-34.77,12.64-44.36Q135.86,496.64,103.15,479Z"/></g><g id="Duplicate_Items_Folder_right_left_arm_0_Layer0_1_FILL-2" data-name="Duplicate Items Folder right left arm 0 Layer0 1 FILL"><path class="cls-4" d="M155.16,397.41l-7.72-17.63q-35.93,7.68-71.7,44.35a268.31,268.31,0,0,0-54.18,80.81l9.91,4q12.39,5.28,25.14,12.09Q97.14,542.63,124.72,570q24.21-46.29,32.2-83Q167,440.83,155.16,397.41Z"/></g><g id="Duplicate_Items_Folder_right_left_arm_0_Layer0_2_MEMBER_0_FILL-2" data-name="Duplicate Items Folder right left arm 0 Layer0 2 MEMBER 0 FILL"><path class="cls-3" d="M159.87,470.17c.31-3.23.4-4.86.26-4.87s-.44,1.56-.94,4.71l-1.13,5.48q-1,5.1-1.49,7.35-1.42,6.57-5.07,18.6-3.34,10.88-7.83,22.43-6.53,17.07-17,39.65l-5.61,11.75a37.5,37.5,0,0,0-1.83,4.52l2.49-4.15c2.42-4.44,4.45-8.3,6.1-11.61q10-19.83,17.55-39.49Q150.1,511.9,153,502a192.43,192.43,0,0,0,4.7-18.93q.13-.3,1.4-7.36Z"/></g><g id="Symbol_69_0_Layer0_0_FILL" data-name="Symbol 69 0 Layer0 0 FILL"><path class="cls-5" d="M295.32,877.27v-.54q-1.24-41,7.89-111.11-3.58-15.32-17.1-29.75Q259.17,707,210.06,711.59t-69.1,32q-10,13.74-10.15,26.55,5.07,30.68,8.51,61.52,4,35.54,3.51,52.63l12.65,2.19q19,2.49,50.68,4.45a216.72,216.72,0,0,0,63.63-5.62Q285.72,881.48,295.32,877.27Z"/></g><g id="Symbol_81_0_Layer0_0_MEMBER_0_FILL" data-name="Symbol 81 0 Layer0 0 MEMBER 0 FILL"><path class="cls-5" d="M293.76,902.65A8.4,8.4,0,0,0,297.9,899a7.31,7.31,0,0,0,.78-5.31,225,225,0,0,1-3.75-26.31l-114.78-7.42a89.35,89.35,0,0,0-37.94,5.46,102.82,102.82,0,0,0-21.71,11.48q-13.11,9.14-14.91,17.88-.63,3.36,2.42,6.41,3.75,3.66,21.86,7.88a315.23,315.23,0,0,0,44.35,6.72q65.67,5.61,112.51-10.39Q291.43,903.67,293.76,902.65Z"/></g><g id="Symbol_81_0_Layer0_0_MEMBER_1_FILL" data-name="Symbol 81 0 Layer0 0 MEMBER 1 FILL"><path class="cls-6" d="M126.9,908.35a33.93,33.93,0,0,0,4.77-12.26,32.33,32.33,0,0,0-.16-13,10.4,10.4,0,0,0-2.11-4.76c-1.61-1.88-4-2.76-7-2.66q-14.91,9.76-16.78,19.13-.63,3.36,2.42,6.41Q111.28,904.29,126.9,908.35Z"/></g><g id="Symbol_81_0_Layer0_0_MEMBER_2_FILL" data-name="Symbol 81 0 Layer0 0 MEMBER 2 FILL"><path class="cls-6" d="M162.27,890a13.82,13.82,0,0,0-7.18-1.72c-3.17.05-6.51,1.41-10,4.06a31.26,31.26,0,0,0-11.87,17.41,306.94,306.94,0,0,0,43.64,6.17l-2.81-8.27c-1.09-3.07-1.92-5.29-2.49-6.64a27.56,27.56,0,0,0-3.67-6.25A17.1,17.1,0,0,0,162.27,890Z"/></g><g id="Symbol_81_0_Layer0_0_MEMBER_3_FILL" data-name="Symbol 81 0 Layer0 0 MEMBER 3 FILL"><path class="cls-7" d="M157,908.66a11.06,11.06,0,0,1-2.11,4.92q12,1.63,21.94,2.34l-2.81-8.27c-1.09-3.07-1.92-5.29-2.49-6.64a27.56,27.56,0,0,0-3.67-6.25,17.1,17.1,0,0,0-5.63-4.76,13.82,13.82,0,0,0-7.18-1.72l-1,.08A11.35,11.35,0,0,1,156,892,30.14,30.14,0,0,1,157,908.66Z"/></g><g id="Symbol_81_0_Layer0_0_MEMBER_4_MEMBER_0_MEMBER_0_FILL" data-name="Symbol 81 0 Layer0 0 MEMBER 4 MEMBER 0 MEMBER 0 FILL"><path class="cls-8" d="M106.06,893.12a8.76,8.76,0,0,1,.7-1.56q1.24-3.19,5.46-7.42,8.59-8.82,25.69-16.39a84,84,0,0,1,29.52-7.58c2.6-.2,5.7-.31,9.29-.31l3.43.08-3.43-.24q-5-.15-9.29.08a77.13,77.13,0,0,0-13.75,1.8A81.53,81.53,0,0,0,137.52,867q-16.94,7.57-25.61,16.86a24.67,24.67,0,0,0-5.31,7.73Q106.42,892,106.06,893.12Z"/></g><g id="Symbol_68_0_Layer0_0_MEMBER_0_FILL" data-name="Symbol 68 0 Layer0 0 MEMBER 0 FILL"><path class="cls-9" d="M209.82,554.88q-72.76.15-95.25,53.25a107.37,107.37,0,0,0-8.12,36.46,89,89,0,0,0,.23,16.56q5.55,18.11,9.68,67.07,5.48,65,7.5,79.33l5.46,3a153.85,153.85,0,0,0,16.48,6.72q29.43,10.23,66.84,12.65a442.5,442.5,0,0,0,72.53-.94,253.75,253.75,0,0,0,27.72-3.9q2.66-25.38,5-99.4,2-62.62,5.93-80.42a62.51,62.51,0,0,0-.23-14.14,79.1,79.1,0,0,0-9.84-31.15Q288,554.72,209.82,554.88Z"/></g><g id="Symbol_83_0_Layer0_0_FILL" data-name="Symbol 83 0 Layer0 0 FILL"><path class="cls-5" d="M491.46,745.16q-20-27.4-69.1-32t-76.05,24.28q-13.43,14.45-17.1,29.75,9.14,70.11,7.89,111.11l-.08.54,6.79,2.58q8.74,3,18.74,5.47a216.71,216.71,0,0,0,63.64,5.62Q458,890.55,477.64,891a106.91,106.91,0,0,1,13.35.85q-.54-18.35,2.74-55.59t7.8-64.57Q501.38,758.9,491.46,745.16Z"/></g><g id="Symbol_82_0_Layer0_0_MEMBER_0_FILL" data-name="Symbol 82 0 Layer0 0 MEMBER 0 FILL"><path class="cls-5" d="M338.81,906.08q2,.87,7,2.74,46.85,16,112.52,10.38a316.57,316.57,0,0,0,44.35-6.71q18.1-4.22,21.86-7.89,3.12-3,2.42-6.4-1.8-8.75-15-17.88a102.61,102.61,0,0,0-21.71-11.48,89,89,0,0,0-37.87-5.47l-114.85,7.42a212.37,212.37,0,0,1-3.67,26.32,7.81,7.81,0,0,0,.78,5.3A8.33,8.33,0,0,0,338.81,906.08Z"/></g><g id="Symbol_82_0_Layer0_0_MEMBER_1_FILL" data-name="Symbol 82 0 Layer0 0 MEMBER 1 FILL"><path class="cls-6" d="M500.83,899.53a35.14,35.14,0,0,0,4.84,12.25q15.46-4,18.9-7.18a7.2,7.2,0,0,0,2.42-6.4q-1.95-9.53-16.87-19.13c-3.07-.11-5.41.78-7,2.65a11.63,11.63,0,0,0-2,4.77A33.27,33.27,0,0,0,500.83,899.53Z"/></g><g id="Symbol_82_0_Layer0_0_MEMBER_2_FILL" data-name="Symbol 82 0 Layer0 0 MEMBER 2 FILL"><path class="cls-6" d="M458.51,911.08l-2.89,8.28a315,315,0,0,0,43.73-6.17,30.8,30.8,0,0,0-12-17.41q-5.07-4-9.91-4.06a13.76,13.76,0,0,0-7.19,1.72,16.94,16.94,0,0,0-5.62,4.76,27,27,0,0,0-3.67,6.25Q460.16,906.47,458.51,911.08Z"/></g><g id="Symbol_82_0_Layer0_0_MEMBER_3_FILL" data-name="Symbol 82 0 Layer0 0 MEMBER 3 FILL"><path class="cls-7" d="M477.64,917a9.65,9.65,0,0,1-2.11-4.92,30.23,30.23,0,0,1,1.1-16.63,9,9,0,0,1,1.87-3.67l-1-.08a13.76,13.76,0,0,0-7.19,1.72,16.94,16.94,0,0,0-5.62,4.76,27,27,0,0,0-3.67,6.25q-.86,2-2.5,6.63l-2.89,8.28Q465.7,918.66,477.64,917Z"/></g><g id="Symbol_82_0_Layer0_0_MEMBER_4_MEMBER_0_MEMBER_0_FILL" data-name="Symbol 82 0 Layer0 0 MEMBER 4 MEMBER 0 MEMBER 0 FILL"><path class="cls-8" d="M455.78,863.3q5.39,0,9.37.31a85.1,85.1,0,0,1,29.51,7.57q17.1,7.58,25.69,16.4a25.33,25.33,0,0,1,5.47,7.42c.1.21.39,1,.86,2.34l.31.86-.24-.86a8,8,0,0,0-.85-2.34q-1.1-3.21-5.24-7.73-8.58-9.21-25.68-16.87A76.7,76.7,0,0,0,478.89,865a78.55,78.55,0,0,0-13.74-1.79c-2.86-.16-6-.18-9.37-.08l-3.36.23Z"/></g><g id="Symbol_67_0_Layer0_0_MEMBER_0_FILL" data-name="Symbol 67 0 Layer0 0 MEMBER 0 FILL"><path class="cls-9" d="M517.85,609.69q-22.41-53.1-95.25-53.25-78.17-.15-103.93,45a79.1,79.1,0,0,0-9.84,31.16,62.42,62.42,0,0,0-.23,14.13q4,17.81,5.93,80.42,2.34,74,5,99.4l27.72,3.9a441.39,441.39,0,0,0,72.53.94q37.34-2.41,66.76-12.65,14.76-5.07,22-9.68,2-14.61,7.5-79.33,4.14-49,9.6-67.07a92.54,92.54,0,0,0,.31-16.56A110.09,110.09,0,0,0,517.85,609.69Z"/></g><g id="Symbol_66_0_Layer0_0_MEMBER_0_FILL" data-name="Symbol 66 0 Layer0 0 MEMBER 0 FILL"><path class="cls-9" d="M444.54,755.94q47.41-32,63.32-83.39H158.06q14.81,40.66,47.86,73.08,21.87,21.39,41.31,31.31A229.63,229.63,0,0,0,382,783.42l19.29-5.62A194.37,194.37,0,0,0,444.54,755.94Z"/></g><g id="Symbol_66_0_Layer0_0_MEMBER_1_MEMBER_0_MEMBER_0_FILL" data-name="Symbol 66 0 Layer0 0 MEMBER 1 MEMBER 0 MEMBER 0 FILL"><path class="cls-10" d="M344.44,789.51l9.05-1.56c1.57-.31,4-.89,7.34-1.72,2.29-.52,4.12-1,5.47-1.4l4.61-1.41-10.23,2.34q-5,1.1-7.34,1.41l-9,1.25q-3.44.47-10.39.93a202.1,202.1,0,0,1-23.81.16,228.91,228.91,0,0,1-23.66-2.65q-8.28-1.65-10.23-2.11l-8.82-2.19-7.18-2.19-9.92-3.43,9.76,3.9,7.1,2.42,8.83,2.5a94.56,94.56,0,0,0,10.23,2.34,164.12,164.12,0,0,0,23.81,3,175,175,0,0,0,24-.39Q341.09,790.05,344.44,789.51Z"/></g><g id="Symbol_65_0_Layer3_0_FILL" data-name="Symbol 65 0 Layer3 0 FILL"><path class="cls-11" d="M155.09,542.15q-27.87,22.41-39.9,52.55-12.64,31.69-5.78,67.38a345.45,345.45,0,0,1,5.16,43.49q24.51,13.74,31.54,17.34Q181.95,741,229,748.75a451.27,451.27,0,0,0,87.14,5.31q55.13-1.71,102.68-15.15,54.42-15.37,92.76-44.74,2.17-1.63,8.43-18.89,6.87-18.9,7.73-29.59,3.83-47.72-13.9-78-15.86-26.85-50-41.77-28.26-12.33-74.18-18.12-24.36-3.12-86.35-6.87-43.65-2.66-82.69,8.36Q182.58,520.13,155.09,542.15Z"/></g><g id="Symbol_65_0_Layer2_0_FILL" data-name="Symbol 65 0 Layer2 0 FILL"><path class="cls-12" d="M487.25,411.37q-5.87-15.39-11.72-24.68a76.27,76.27,0,0,0-19.67-21.31q-26-19.14-68.95-29-43.26-9.92-96.51-8.67-43.87,1-91.51,21.63a240,240,0,0,0-31.31,16.08q-12.11,7.57-14.44,11.48-37.24,61.53-50.83,164-7.89,59.58-7.89,145.62l6.4,7.34q9.84,8.82,26.79,16.4,54.11,24.12,159.2,26.55,114.32,3,189.43-25.69,23.49-9,40.21-20l12-9.22.16-6.24a806.5,806.5,0,0,0-4.84-101.58Q514,482.11,487.25,411.37Z"/></g><g id="Symbol_65_0_Layer2_0_MEMBER_0_MEMBER_0_MEMBER_0_STROKES_1_FILL" data-name="Symbol 65 0 Layer2 0 MEMBER 0 MEMBER 0 MEMBER 0 STROKES 1 FILL"><path class="cls-13" d="M496.77,439.47l10.39,39.2,13,72.23,5.31,49.19q.86,9.13,1.48,20.14l1.56,55.36c-.05.1,0,.16.08.16l.16-.08.31-10.31-.86-45.21q-.24-5.39-1.25-20.22L525,578.38q-.94-9.92-2.5-22.18l-10.38-60.9-.16-.54-.08-.63L497,439.4c0-.16-.06-.19-.16-.08S496.67,439.37,496.77,439.47Z"/></g><g id="Symbol_65_0_Layer2_0_MEMBER_0_MEMBER_0_MEMBER_1_STROKES_1_FILL" data-name="Symbol 65 0 Layer2 0 MEMBER 0 MEMBER 0 MEMBER 1 STROKES 1 FILL"><path class="cls-13" d="M124.64,439.4l-7.26,22.87-8.12,33q-2.12,9.69-4,20.77l-3.74,24.52v.31l-4.84,48.26-2.42,97.28c0,.11,0,.16.15.16l.08-.08,1.72-63.09,6.71-82,.08-.31V541l.08-.24,3.59-24.43q2.19-12.57,3.83-20.77,2-10.16,4-18.43l10.38-37.64c.11-.1.08-.15-.07-.15S124.64,439.24,124.64,439.4Z"/></g><g id="Duplicate_Items_Folder_Symbol_8_copy_42_0_Layer0_0_MEMBER_0_FILL" data-name="Duplicate Items Folder Symbol 8 copy 42 0 Layer0 0 MEMBER 0 FILL"><path class="cls-9" d="M233,560.27q0,31.31,21.63,53.56T306.88,636q30.53,0,52.16-22.17t21.63-53.56q0-31.39-21.63-53.57t-52.16-22.25q-30.61,0-52.24,22.25T233,560.27Z"/></g><g id="Duplicate_Items_Folder_Symbol_8_copy_42_0_Layer0_0_MEMBER_1_FILL" data-name="Duplicate Items Folder Symbol 8 copy 42 0 Layer0 0 MEMBER 1 FILL"><path class="cls-14" d="M343.42,620.78H343a2.25,2.25,0,0,0-1.17.39,17.17,17.17,0,0,0-2,1.72,4.65,4.65,0,0,0,1.88-.94l1.79-1.17m6.72-.31-.24.07a27.1,27.1,0,0,1-3.9,2.35l-2.5,1.17a6.11,6.11,0,0,0-1.17.86c.21.1,1.33-.39,3.36-1.49q2.65-1.56,4.06-2.5l.31-.23-.7.39.78-.62m6.79-32.56c.05-.06,0-.08-.16-.08a4.91,4.91,0,0,0-3.43,2.73l1.25-.62a5.24,5.24,0,0,0,2.34-2m1.25-6.41c-.21.06-.31.16-.31.32s.07.52.23.62c.36.1.6,0,.7-.31V582c0-.31-.21-.47-.62-.47m1.48.71.08-.08h-.08v.08m1.56-.47a1.59,1.59,0,0,0-1.17-.39,1.12,1.12,0,0,0-.62.15c-.16.16-.13.32.08.47l.23.16c.83.47,1.35.49,1.56.08l-.08-.47m8.75,3.35v-.78q-1.25-4.6-2.81-4.52a1.9,1.9,0,0,0-1.41.93,2.2,2.2,0,0,1-1.33,1c-.2,0-.28-.18-.23-.71s.08-.8.08-.85l-.08.07a6.29,6.29,0,0,0,.08-1.56.64.64,0,0,0-.78-.47,2.83,2.83,0,0,0-1.25.94c.05-.42,0-.62-.16-.62s-.18.07-.23.23a5,5,0,0,0,.94,1.25.91.91,0,0,0,1.09.31,3,3,0,0,1-1.41.78h.08c.21.16.26.45.16.86a1.11,1.11,0,0,0,0,.86c.1,0,.31-.31.62-.94a2.06,2.06,0,0,0,.16,1,2.28,2.28,0,0,0,.93.62,1.46,1.46,0,0,1,.4.78q.07.47.15,2.58c0-.1-.09-.13-.23-.08a5.25,5.25,0,0,0-.94,1.41,5.11,5.11,0,0,1,1.48-.39c-.31.93-.1,1.35.63,1.25.68-.47,1-.81.86-1l-.08-.08.55-.31a1.16,1.16,0,0,0,.31-.55,2.69,2.69,0,0,0,.7,1.1,3.8,3.8,0,0,1,0,1.09,2,2,0,0,0,.08,1c.26.57.52.72.78.46.1-.36.18-.62.23-.78a3.11,3.11,0,0,0-.07-1.17c-.06-.57-.08-1-.08-1.25a9,9,0,0,0,.78-2.5m2.5-3.59.15-.07-.07,1.48-.16.23-.55,1c-.1.15-.21.18-.31.08a.52.52,0,0,0-.7.07l-.16.86c.73.37,1.35-.28,1.88-1.95,0,.37,0,.55.07.55v.08l.24-.39v-.16l.08-.08h-.08a3.69,3.69,0,0,0,.23-1.64c0-.52-.15-.75-.31-.7l-.16.15v.32l-.15.15m-11.64-5.77c-.15.15-.23.26-.23.31l-.16.23.08-1.09.16-.39h-.08a3,3,0,0,0-.63,1.72,1.72,1.72,0,0,0,0,.78,2.73,2.73,0,0,0,.08.86c.05.52.16.7.31.54a1.56,1.56,0,0,1,.16-1.25.87.87,0,0,1,.47-.15,3.46,3.46,0,0,1,.16-1.72c-.06-.05-.16,0-.32.16m-6.63.7-.24.31-.47,1.72a6.58,6.58,0,0,1-.7,1.48,5.65,5.65,0,0,0-.78,1.49,10.94,10.94,0,0,0-.23,3.27,2.88,2.88,0,0,1,.93,0,10.68,10.68,0,0,1,1.1-3.51,2.22,2.22,0,0,1,.07,1.41c-.1.88.13,1.22.71,1,0,.11-.06.47-.16,1.09l.08.08a1.35,1.35,0,0,0,.55-.78,2.56,2.56,0,0,0,.23-.94.66.66,0,0,0-.39.24,6,6,0,0,0-.08-1.64,10.61,10.61,0,0,1-.23-1.72c.2.37.49.29.86-.23.46-.73.8-1.12,1-1.17a4.09,4.09,0,0,0-1.33.07,2.87,2.87,0,0,1-1.4-.15c-.31-.16-.13-.47.54-.94a2.8,2.8,0,0,1,2.27-.39,1.76,1.76,0,0,0,1.17-.23l.7-1c.11-.21.11-.36,0-.47l-.39.08a21.13,21.13,0,0,0-3.2.55,1.11,1.11,0,0,0-.62.39m3-13.51a2.23,2.23,0,0,0-.47,1.33c-.15.67-.15,1,0,1s.37-.31.63-.93l.15-.71a.91.91,0,0,0-.15-.62l-.16-.08m-3.28-.55v.08c-.26.57-.36.89-.31.94l.23-.16-1.32,2.27-.08.07a4.91,4.91,0,0,0-.47,1,5.11,5.11,0,0,0,1.41-1.25,3.71,3.71,0,0,0,.85-1.87,1.94,1.94,0,0,0-.31-1.1m3.2-.86v.24c.32-.31.58-.24.78.23v-.23a1,1,0,0,0-.46-1.09l-.24.93.08-.08v.08h-.08l-.08-.08m-.31,1-.62-.78-.08-.08v.47a2.93,2.93,0,0,0-.08,1.48c.1.26.39.16.86-.31l.16-.31a.67.67,0,0,0-.24-.47m-3-6.25a2.38,2.38,0,0,0,.07,1.33,1.87,1.87,0,0,0,.71,1.09.42.42,0,0,0,.07-.54c.21.15.27.6.16,1.32h-.23c-.11.32.2.89.93,1.72.42-.52.26-1.06-.46-1.64a1.29,1.29,0,0,1,.78-.08.37.37,0,0,0,.23.47.36.36,0,0,0,.08-.39,2.65,2.65,0,0,1,1.09,1,1.18,1.18,0,0,0-.31-.63c0-.41.18-.44.55-.08a4.86,4.86,0,0,1,.62,1H358a2.47,2.47,0,0,0,.63,1.48c-.16.11-.26.11-.32,0l.08-.07-.08-.32c-.08.09-.11.17-.07.24a1.55,1.55,0,0,0,0,1.17h-.08l.94,1.72a6.49,6.49,0,0,1-1.25,1.79l.07-.15c-.1-.16-.31-.21-.62-.16a.79.79,0,0,0-.63.55,4.68,4.68,0,0,0-.23,1.17l.47-.78c.1.15.36.18.78.07s.47-.05.47.16a3.2,3.2,0,0,1-.16.7,1.32,1.32,0,0,0,0,.63,2.42,2.42,0,0,0,.86,1,2.09,2.09,0,0,1,.31-.86,1.92,1.92,0,0,0,.32-.78c.05.52.13.81.23.86l.16-.62c.26-1.93.05-3.28-.63-4.06v-.08c.11,0,.13-.29.08-.86l-.16.47v.23c-.2-.15-.33-.73-.39-1.71.58.2.68-.21.32-1.25-.16-.32-.29-.5-.4-.55a.94.94,0,0,0-.54,0c-.31-1.09-.55-1.64-.7-1.64l-.16.31a.64.64,0,0,0-.55-.62q-.39-.16-.54,0l-.08.31-.08-.86v-.47a8.78,8.78,0,0,0-.16-3.9,1.11,1.11,0,0,0-1-.63c-.57-.1-.91-.31-1-.62l-.07-.08.07.16a7.62,7.62,0,0,1,0,1.72,3.81,3.81,0,0,0,.16,1.63l-.23.08M353,544a2.84,2.84,0,0,1-.39,1.1c-.52,1-.6,1.69-.24,2.11h-.08l.55.54a4.35,4.35,0,0,1,.08-1.79,4.34,4.34,0,0,0,.23-1.41L353,544m-18.82,70.36A4.54,4.54,0,0,0,333,615.7v.24c.36.31,1.48.1,3.35-.63a20.7,20.7,0,0,1,4.14-1.4q4.22-1.17,5.08-.47a19.33,19.33,0,0,1-1.33,2.73A31.89,31.89,0,0,0,347.4,614a3.92,3.92,0,0,1-1.32,1.41l-1.33,1.17H345a3.17,3.17,0,0,1-.93,1.17,2.47,2.47,0,0,0-.79,1.33,8.34,8.34,0,0,0,2.11-.55l-.54.39h.23l-.39.55a38.87,38.87,0,0,0,14.91-11.87l.24-.31-.08.08.16-.24-.08.16.23-.31a8.9,8.9,0,0,0,1.1-2l1.09-3a5.58,5.58,0,0,0,.23-1.41,3.63,3.63,0,0,1,.32-1.32c.83-1.77,1.32-2.84,1.48-3.2a10.22,10.22,0,0,0,.23-1.49,6.47,6.47,0,0,1,1-3.59h-.08a28.78,28.78,0,0,0-2.11,3.75,16.35,16.35,0,0,1-2.34,3.59c-.78.78-1.28.36-1.48-1.25a3.28,3.28,0,0,1,.23-1.17c.21-.42.83-1.61,1.87-3.59l-.54.54.15-.78c-.1.26-.26.37-.46.32s-.73-.37-1.72-.94c-.47.94-.84,1.46-1.1,1.56-1.19.31-2,1.35-2.42,3.12a1.18,1.18,0,0,0-1,0,.86.86,0,0,0-.31-.78,2.11,2.11,0,0,1-.55-.7,12.42,12.42,0,0,1-3,2.66,6.89,6.89,0,0,1-.31,1l-.08-.16-.31.55a4.53,4.53,0,0,1,.24-1.25,7.54,7.54,0,0,0-2,1.8,8,8,0,0,1-1.79,1.72,9.88,9.88,0,0,1-2.81,1c-.16.1-.68.47-1.56,1.09a4,4,0,0,1-1.8.71l.16-.39c-1.36.67-2.29,2.08-2.81,4.21a1.68,1.68,0,0,1-.32.7V608a6.52,6.52,0,0,0-1,2.58,6.19,6.19,0,0,1-.86,2.58,6.93,6.93,0,0,1-1.25,1.25m17.33-26.47-1.09.39-.78-.08.23.15c-.15.11-.33,0-.54-.23a1.51,1.51,0,0,0-.71.16c-.1-.37-.26-.55-.46-.55s-.11.44.31,1a4.69,4.69,0,0,0,1.87-.07c-.05-.21.31-.29,1.1-.24a10,10,0,0,1,1.17.08l-.08.08,1.4-.63.32.08v.08l-.39.08.31.23v-.08l.78-.23-.08.08.31-.08.16-.23.08-.08H355l-.47.08a.46.46,0,0,0-.47-.08l-.23.08a5.76,5.76,0,0,0-2.35,0m-5.93-1.25a1.28,1.28,0,0,0,1.25-.24,1,1,0,0,0-.78-.7h-.16a3.16,3.16,0,0,0-1.33.16,10.7,10.7,0,0,1-1.32.23,2.75,2.75,0,0,1-1.33-.55,2.43,2.43,0,0,0-1.41-.39,6.6,6.6,0,0,1-1.79.94,13,13,0,0,0,3.36,1.17h0c1.77.47,2.94.76,3.51.86.73.1,1.12,0,1.17-.23q0,.54.39.54a.63.63,0,0,0,.55-.23l.08-.08c0-.42-.37-.7-1.1-.86a1.47,1.47,0,0,1-1.09-.62m-30-20.23h.07v-.07l.08-.08-.08-.16-.15.16.08.23v-.08m-.08-.15v.15l.08.24-.08-.39m-1.72-1.64a.21.21,0,0,0,.23.23,3.83,3.83,0,0,1,0,2.27,3.94,3.94,0,0,0,0,2.49c.63.94,1.07.92,1.33-.07a13.29,13.29,0,0,0,.16-3.13l-.08-.15c.21-.26.16-.55-.16-.86a1.67,1.67,0,0,0-1.25-.86l-.23.08m37.95,4.06v-.08l-.63.39a5.8,5.8,0,0,0-.93,2.58.65.65,0,0,0-.24-.47l-.39,1.17c-.1,0-.21-.1-.31-.31a.49.49,0,0,0-.31-.39,4.78,4.78,0,0,1-1.33,1.79c-.73.68-1.17.89-1.33.63v-.08a6.22,6.22,0,0,0-.39,1.8l-.78-.32c-.31-.15-.44-.36-.39-.62a2.53,2.53,0,0,0-.86,2.42c.42,3.07.86,4.61,1.33,4.61.26,0,.44-.19.55-.55.05.36.39.6,1,.7a1.81,1.81,0,0,0,1.25-.08c-.16.78.29.91,1.33.39h.31c.08,0,.05.15-.08.32l.39-.55a2.08,2.08,0,0,0,.31-1,4.75,4.75,0,0,1,.32-1.09A14.43,14.43,0,0,0,352,577.6a1.78,1.78,0,0,0,.16-1.25c.31.42.57.44.78.08.21-.63-.16-1.64-1.1-3l.32.16-.39-.63c.38,0,.56-.15.54-.46h.08l-.08-.55a.34.34,0,0,0,.47.08.49.49,0,0,0,.08-.47l-.08-.31h.08a7.43,7.43,0,0,0,.55-.78q.39-.63,0-.63l-.79.24.24-.16a.74.74,0,0,0-.47,0,1,1,0,0,0-.08-1c-.1-.2-.23-.31-.39-.31l-.23.16m-21,1.64h-.23q1.41.31,5.15,9.45c.94,2.18,1.56,3.56,1.88,4.13.41.84.75,1.17,1,1l-.08-.31a1.93,1.93,0,0,0,.78-.24,1.47,1.47,0,0,0,.71-.78,4.43,4.43,0,0,0-.16-3,5.22,5.22,0,0,0,.86,1.17q.31.32.78,0a.37.37,0,0,1-.08-.39.14.14,0,0,1,.16-.16.1.1,0,0,0,.16,0l-.16-.08h.08l-.08-.08a8.64,8.64,0,0,0-1.33-1.17c-.15-.1-.36-.05-.62.16a13.33,13.33,0,0,1-1.33-2.42,5.46,5.46,0,0,0-.31-1.64,2,2,0,0,0-.78-.55l-.08.47-.47-.55.23.08a1,1,0,0,0-.23-.78l-.39-.39a13.6,13.6,0,0,1-1.87-1.25,11.87,11.87,0,0,0-2-2.11,3.25,3.25,0,0,0-1.57-.54m-26.86-76,.24.07a6.48,6.48,0,0,0,1.48-.31l.08-.08a2.2,2.2,0,0,0-1.33-.47.43.43,0,0,0-.47.32c-.1.2-.1.36,0,.47m-2.42-1-.46.23c.93.42,1.43.63,1.48.63a1,1,0,0,0,.86-.16l.23-.15v-.08h-.15c-.16-.05-.16-.16,0-.31a1.84,1.84,0,0,1-1.1-.24A2.91,2.91,0,0,0,301,493h-.54c.1.21,0,.28-.24.23l.55.16-.55-.08.24.16.93-.16m-11.47-.08H290a1.28,1.28,0,0,0,1-.15c.05.15.47.1,1.25-.16V493l-.08.08h.16l.07-.08v-.16l-.54-.08.15-.15-.62.15.23.08-1.17.31h-.23l.39-.15-.55-.08.39-.08H291v-.08h-.31l-.32-.15v.15a2.15,2.15,0,0,1-1,.16l-.08.08c.05,0,.05,0,0,.08h-.08v.07l-.47-.07v.23l.55-.08.39.16.31-.08-.07-.08m32.32,2.66-1.95-.47a3.56,3.56,0,0,0-1.33-.39l-.15.15a1.33,1.33,0,0,0,.31.39h.47l1.87.39.78-.07m.78-.63-.7.16.62.15c1,.42,1.54.5,1.64.24v-.08a3,3,0,0,0-1.56-.47m33.73,26.24a1.25,1.25,0,0,0,0-.63l.16-.08a2.83,2.83,0,0,1,0-.93,1,1,0,0,0-.24.86v.07a1.05,1.05,0,0,0-.31.32l-.15-.24c.2.37,0,.42-.63.16-1-.57-1.74-1-2.26-1.25l.23.23a16.1,16.1,0,0,1,.94,1.88c.1.21.23.31.39.31q-.7.46,0,1.17a3,3,0,0,0,.94.63q.3.08.39,0V524l.54.7-.78-.47a5.67,5.67,0,0,1,1.64,3c.21,1,.13,1.48-.23,1.48s-.37.71.31,2.11c-.73-.47-1.41-.29-2,.55a5.49,5.49,0,0,0-.86,1.71.89.89,0,0,0,.24.94l.39.63v-.24h.07c.11.16.34.5.71,1a2.37,2.37,0,0,0,.78.93c.1.11.18.13.23.08s.13-.31.08-.62a5.94,5.94,0,0,0-1.48-2.74l-.39-.15c.1-.37.49-.65,1.17-.86s1.14-.16,1.4.16l-.54.85c-.21.58-.47.86-.79.86a3.24,3.24,0,0,1,1.25.94l.16-.94c.1,0,.23,0,.39.16l-.08-.86-.08-.16-.07-.46.31.46c.26.47.44.5.55.08V532l.39.08H360c-.1-.37-.13-.57-.07-.63l.15.08c-.1.11,0,.29.24.55a5.26,5.26,0,0,1-.08-.78l.23.08-.15-.47v-.08a1.86,1.86,0,0,1,.31.55,1.05,1.05,0,0,0,.39.54v-.08a4.63,4.63,0,0,0-.55-1.71l-.62-1,.08.31q-2.26-4.53-3.6-5.7a1.7,1.7,0,0,0,1.25-1.56l-.86-.62h.08m.24-2.66-.08.24.16.39c.2,0,.2-.19,0-.55v-.08H357m-4.3-.31c.42.31.65.44.71.39a9.77,9.77,0,0,0-1.41-1.41,6.09,6.09,0,0,1-1.09-1.24v-.08l.7.15a2.46,2.46,0,0,0-.86-1.09,5.16,5.16,0,0,0-1.33-.86c-.67-.36-1.14-.62-1.4-.78-1.1-1.09-1.93-1.87-2.5-2.34a2,2,0,0,0-1.09-.47l-.24.08a6.85,6.85,0,0,0,1,.78,18.88,18.88,0,0,1,2.81,2.58c.73.72,1.72,1.74,3,3a21.9,21.9,0,0,0,1.8,1.87l-.47-.85.39.23m-67.93,77.3-.39-1.33c-.36-1.3-.7-1.9-1-1.79a2.65,2.65,0,0,0-.71,1.25c-.05.1-.2.46-.46,1.09a2.78,2.78,0,0,1-.63,1.09l-.23.24-.24.54a2.86,2.86,0,0,1-.7.63,1.18,1.18,0,0,0-.47.93l.7,7.11a3.4,3.4,0,0,0,.94,1.41c.37.36.68.52.94.46.67,0,1.17-1,1.48-2.88a15.38,15.38,0,0,0,.16-4.85,9.13,9.13,0,0,1,.08-3.35l.23.54.08-1.4.15.23.08.08m-22.48-95h-.08l-.47.39c0-.11-.16,0-.47.31l-.31.15h.08v.16l-.16.16H261a.73.73,0,0,0-.31.15c-.21.11-.32.19-.32.24h.08c-.62.47-.81.73-.55.78s.76-.08,1.49-.55l.47-.31a1.93,1.93,0,0,1,.62-.47l-.08-.08.78-.7h-.46a1.85,1.85,0,0,0-.63.47l.16-.31c-.16,0-.47.2-.94.62l1-1m-9.61,23.81c-.15.1-.23.1-.23,0h-.08l-.16.62c-.41,1.31-.52,1.88-.31,1.72s.65-.7,1.17-1.79c.21-.52.24-.78.08-.78l-.47.23m.78-1.64a2,2,0,0,0-.31.55,1,1,0,0,0-.08.62,5,5,0,0,0,.78-1.33l.24-.54H254a4.37,4.37,0,0,0-.55.7m2.19-12.88h-.08a6.77,6.77,0,0,1-1.64,1,1.13,1.13,0,0,1-.39.55c0,.1-.18.42-.7.94a3.8,3.8,0,0,1-.55.62c-.16.26-.05.31.31.16a8.89,8.89,0,0,0,2.74-2.5c.52-.52.62-.78.31-.78m1.09-.86.08-.16-.7.63.31-.24-.31.47c.09,0,.3-.16.62-.47-.31.32-.47.56-.47.71l.32.07a1.55,1.55,0,0,0-.63.71h.08a4.19,4.19,0,0,1-.86.78,10.52,10.52,0,0,0-1.56,1.56v.15c0,.11.05.16.15.16l.55-.23-.23.23c.78-.47,1.25-.49,1.4-.08A1.34,1.34,0,0,1,256,513a1.91,1.91,0,0,0,.55-.47c.15-.26.1-.39-.16-.39h-.16a4.71,4.71,0,0,0,.47-.86c.16.1.39-.55.71-1.95l-.08-.08a3.67,3.67,0,0,0,1.09-.7c.42-.37.63-.65.63-.86s-.32,0-.78.23l.23-.23a1.42,1.42,0,0,1-.78.31l.08-.16v-.08a4.92,4.92,0,0,0,.7-.62,1.19,1.19,0,0,0-.55.31l-.39.39V508l.16-.08-.47.55c0,.05.1,0,.16-.16v.08l.31-.15-1.17,1,.86-.55-.63.63m30.37-11.48-.31.16.24.15.15-.15-.08-.08.08-.08c.47.73,1,.86,1.64.39l-.54-.94c.62-.2,1-.54,1-1a3.43,3.43,0,0,0,1.33-.47,6.34,6.34,0,0,1,2.58-.62l.31-.16-1.72-.16-.7.16-.47.23-1.8.55q.07.15-.39.39l-.93.63c-.63.46-.92.75-.86.85l.46.16m.79-4.37-.08.08q0,.08.15,0l.39-.08h.08l-.54-.08.23-.08h-.08l.47-.08c0-.2-.18-.31-.55-.31a5.67,5.67,0,0,0-1.25.31h.71v.08h-.32c.05.09.26.12.63.08h0l.16.08m-10.55,1.25.4.23,1-.47a2.15,2.15,0,0,1,.86-.39c0,.16-.16.34-.47.55l1.17-.16a.52.52,0,0,0,0-.39l-.47-.31,1.8-.16c.52-.1.7-.31.55-.62h-.47a3.25,3.25,0,0,0-1.72.39l-.31.08-.08.08h.16l-.08.07a.84.84,0,0,0-.71.24c-.1-.11-.13-.21-.07-.31a.92.92,0,0,1-.63.07h-.08l-.31.32a2.26,2.26,0,0,0,.94.15,4.88,4.88,0,0,0-1.49.63m-4.84,4.76.24-.23-1.8.85.7-.15-.15.15-1,.71q-1.56.93-4.52,2.81l-1.25.62a5.42,5.42,0,0,0-2.19,2.11,3.24,3.24,0,0,1-.23,1l.23.15a5.58,5.58,0,0,0,2-1.25q-1,3.52-2.26,3.28a1.58,1.58,0,0,1-.16.63c-.05.1-.21.18-.47.23l.31.16,1.1-1.1-.16.39a2.89,2.89,0,0,0,1.49-.54c.46-.31,1.77-1.43,3.9-3.36q-.47-1.8,3.67-3.43c.36-.89.91-1.07,1.64-.55l-2.66,2.19a10,10,0,0,0-1.09,1.4,10.4,10.4,0,0,0,3-.31l.07.15.32.24.07.39a8.9,8.9,0,0,0-3.2.47,3.79,3.79,0,0,0-.47,1,1,1,0,0,1-.85.78l-.47-.47a10.78,10.78,0,0,0-2.27,2.74,11.58,11.58,0,0,1-3.59.7l-.15-.31.31-.16-1.33.08c-.16-.21-.13-.52.08-.94l-.08.32c.26,0,.49-.19.7-.55h-.31a3.29,3.29,0,0,0,.86-.86c.36-.47.6-.75.7-.86a2,2,0,0,0-1.09.47v.08l-.39.31a18.26,18.26,0,0,0-1.8,2.58l-.23-.24a24.26,24.26,0,0,0-3.28,2q-3.36,2.19-3.67,3.13a6.77,6.77,0,0,0-1.56.62c.47.83.28,1.93-.55,3.28s-1.48,1.85-2.11,1.8a2.45,2.45,0,0,0-2,.54,37.16,37.16,0,0,0-2.34,4.53l.08-.08-.94,2,.31-.07a1.75,1.75,0,0,1,.32.7,1.11,1.11,0,0,0,.31.62,6.21,6.21,0,0,0,3.28-3.28,21.41,21.41,0,0,1,2.81-3.51l1.64-1.56h.23l1.49-.39a1,1,0,0,1,1.25.39l.85,2a4,4,0,0,1-.23,3.44,3,3,0,0,1-1.09.62c-.52.26-.68.55-.47.86a1.28,1.28,0,0,0,.86-.24,1.65,1.65,0,0,1,.86-.31,3.74,3.74,0,0,0,.7-1.64l.16-1a2.64,2.64,0,0,1,.62.15.78.78,0,0,0,.62-.07A4.22,4.22,0,0,0,257,524a4.16,4.16,0,0,1-.79-1.72,2.56,2.56,0,0,1,.16-1.41,3.25,3.25,0,0,1,.94-.85l.31.15.23-.15.16.31a1.58,1.58,0,0,0-.23.86l.31.86c.05.2.21.72.47,1.56a2.69,2.69,0,0,1,.23,1.64L258.7,527a1,1,0,0,0,.71.71,1.31,1.31,0,0,0,.23,2.1l.23-.15.08-.78.55-.47-.23-.24c.15-.1.33,0,.54.16a.75.75,0,0,0,.24-.55l.15.24a4,4,0,0,0-.15-1.41,2.35,2.35,0,0,1-.16-1.4l.31.7.08-.31.62-.08c-.1-.37-.13-.6-.07-.7a1.4,1.4,0,0,1,1.71.07,2.8,2.8,0,0,1-.31,1.33,1,1,0,0,0,.08,1.25l-.23,1.64.62.08-.16.23a6.19,6.19,0,0,0,2.35.32l3.82-.16c.47.26.24,1.4-.7,3.43s-2.06,3.28-3.36,3.44l-.39-.62a3.68,3.68,0,0,0-1.87.23,3.12,3.12,0,0,1-1.88.16,6,6,0,0,1-1.71-.94,5.57,5.57,0,0,0-1.8-.94l-.47-.08c-.47.11-.86.65-1.17,1.64q-.63,2-3,.39c-1.62-1-2.5-2.13-2.66-3.28a3.74,3.74,0,0,1,.55-1.4c.41-.78.65-1.22.7-1.33.26-.62.34-1,.23-1.17a1.05,1.05,0,0,0-.7-.16l-3,.24a7.79,7.79,0,0,0-2.19,1.17,3.92,3.92,0,0,1-1.56.86c-.42-.31-.76-.42-1-.31A14,14,0,0,0,242,533c0,.06-1.09,2.11-3.28,6.17q-3.19,6.8-3.51,10.47l.08-.32a19.22,19.22,0,0,1-.47,4.22,20.79,20.79,0,0,0-.39,4.22,47.36,47.36,0,0,0,2.19,12c.41,1,.86,1.61,1.32,1.72.68.1,1.83-.44,3.44-1.64.36-.31.68-.39.94-.24a24.89,24.89,0,0,1,2.42,2.35.55.55,0,0,0,.54-.32l.32.16.31-.23a3.36,3.36,0,0,1,1,2.81,4.92,4.92,0,0,0,.78,3c-.62,1.1-.36,2.58.78,4.46a8.06,8.06,0,0,0,3.13,3.2c-.37.73.34,2.63,2.11,5.7l.07.23a14.71,14.71,0,0,1,.94,3.83,13.22,13.22,0,0,0,1,3.74l2.5,3.75a47.89,47.89,0,0,0,4.06,5.47q7.09,7.72,7.65,8h1.64a3.58,3.58,0,0,0,2.57-2.58,6.7,6.7,0,0,0,.55-3.67,4.54,4.54,0,0,0-1.25-1.87,2.77,2.77,0,0,0,1.17-1.56,4.09,4.09,0,0,0-.78-2.81,3.61,3.61,0,0,1-.62-2.89,6,6,0,0,1,1.71-2,2.92,2.92,0,0,0,1.25-2.34,10,10,0,0,0-.7-2.5,10,10,0,0,1-.7-2.58l.08-.39a6.57,6.57,0,0,1-1.8-3.67q-.85-4.85,3.59-10.54a32.73,32.73,0,0,0,5.86-10.46c.31-2.4.47-3.65.47-3.75s-1.56.23-4.53,1.17a3.17,3.17,0,0,1-1.17.08c-.37-.11-1.41-.5-3.13-1.17a4.53,4.53,0,0,0,.71-.71,1.44,1.44,0,0,0-.08-1,12.13,12.13,0,0,0-2.11-2.11q-1.95-1.49-3.05-5.7-1.39-5.24-1.79-6.4a19.74,19.74,0,0,0-1.41-2.89,9.54,9.54,0,0,1-1.25-3.36,3.42,3.42,0,0,1,.55-2.26,4.84,4.84,0,0,0,1.17,2.89,3.46,3.46,0,0,1,.78-2.27,5.23,5.23,0,0,0,.24,3l7,18.9q1.1,1.08,5.63-1.72,4.37-3,4.45-3.13a26.48,26.48,0,0,0,4.45-4.6,9,9,0,0,0,1.48-2.89,2.84,2.84,0,0,0-.16-1.17,2.62,2.62,0,0,0-1.24-.86,3.11,3.11,0,0,1-1.25-.78,2.32,2.32,0,0,1-.32-1.41,2.62,2.62,0,0,0-.46-1.48,3.24,3.24,0,0,1-5.24,2.26l-1.95-4.37a4.51,4.51,0,0,0-.39-1.25,1.11,1.11,0,0,0-.62-.39l1-.94h.39a3.34,3.34,0,0,1,1.8,1.88,4.26,4.26,0,0,0,1.56,2,5.09,5.09,0,0,0,2.11.31,3.82,3.82,0,0,1,2,.31l.94.63c.93.62,2.39.8,4.37.54s3.49-.2,4.37.32a5.34,5.34,0,0,0,1.8,2.42,3.21,3.21,0,0,0,2.42.86,1.49,1.49,0,0,1-1.1.62,3.6,3.6,0,0,1,.78,1.25,1.61,1.61,0,0,0,1.1,1,1.48,1.48,0,0,0,1.17-.46,1.62,1.62,0,0,0,.47-1.25l-.16-.32.24.08.15.55.24.15q-1.65,3.28,1.95,11.25,3.59,7.72,5.07,6.79a5,5,0,0,0,.94-1.4,13.23,13.23,0,0,0,1-4.77,16.61,16.61,0,0,1,.86-4.76,13.49,13.49,0,0,1,3.13-3.83,11.27,11.27,0,0,0,3.12-3.74l.23.46.24-.15.23.23.16-.23h.55l.39-.39.31.54a3,3,0,0,0,.47-1.32h.54l.86,1.25,1.72,2.42a6,6,0,0,1,1.25,2.73,5.83,5.83,0,0,0,.7,2.26c.21.26.37.37.47.32a8.14,8.14,0,0,0,1.17-.71l.16.24c.41-.16.6-.63.54-1.41a13.55,13.55,0,0,1,2.27,9.76,9,9,0,0,0,.15,3.44c.53-.47.94-.44,1.25.08a12.5,12.5,0,0,1,.94,3.2,13.62,13.62,0,0,0,1.33,4.14,2,2,0,0,0,2.26,1c-.15-.15-.23-.26-.23-.31a19.9,19.9,0,0,1-.86-3.59,8.38,8.38,0,0,0-1.09-3.44,8.58,8.58,0,0,1-2.58-3.67q-.78-3.75,1.33-5.31a10,10,0,0,0,2.42,2.89,7.47,7.47,0,0,1,2.18,3.12l-.39.63c.52.31,1,.08,1.41-.7a4.49,4.49,0,0,0,.62-1.88c.78.58,1.38.21,1.8-1.09a7.84,7.84,0,0,0,.31-3,9.86,9.86,0,0,0-2.26-4.21,9.8,9.8,0,0,1-2.27-4.3c-.1-.78.37-1.38,1.41-1.79a3,3,0,0,1,1.87-.24c.37.16.55.65.55,1.49a.7.7,0,0,0-.39.54c0,.21-.05.94-.16,2.19l-.31.62a1.92,1.92,0,0,0,1.72-1.17,2.13,2.13,0,0,0-.63-2.26c.16-1.35.55-2.06,1.17-2.11a1.28,1.28,0,0,1,.94.39,3.72,3.72,0,0,0,.63-1,2.27,2.27,0,0,0-.24-.78,1.93,1.93,0,0,1,.55.7,11.71,11.71,0,0,1,1.56-1,6.07,6.07,0,0,0,1.56-1,4.23,4.23,0,0,0,.78-.94c.05-.21.13-.62.24-1.25l-.08.08a3.94,3.94,0,0,1-.16-1.72,5.21,5.21,0,0,1,.16-1.56h.23a2.22,2.22,0,0,0-.23-1.25l.15-.23a1.39,1.39,0,0,0-.39-.86,2.85,2.85,0,0,0-1.09-.39l.16-.16a2.33,2.33,0,0,0-.63-1.56,2.13,2.13,0,0,0-.62-.47,2.83,2.83,0,0,1,1.17.78l.23-.15a29.36,29.36,0,0,1-2.89-2.82,6.16,6.16,0,0,1-1.4-2,1.62,1.62,0,0,1,.39-1.17,2.26,2.26,0,0,0,.47-1,8.06,8.06,0,0,0-2.34-.31,3.07,3.07,0,0,1-2.19-.86c-.47-.47-.42-1.07.16-1.8l.93-.94c.31-.15.6,0,.86.32a1.15,1.15,0,0,1,.31.7l-.23.39c.31.05.49.31.55.78l.31.16c.26,0,.47-.21.62-.63s.29-.7.55-.7a1.32,1.32,0,0,1,1,.55,3.46,3.46,0,0,0,.86.7.89.89,0,0,0-.07.62l1.64.55v-.08h.07v.08a1.36,1.36,0,0,1,.86,1l-.23-.16c.41,2.34,1.17,3.3,2.26,2.89v-.31l.55-.16a7.07,7.07,0,0,0-.63-2.19,3.13,3.13,0,0,0-1.32-1.32,5.88,5.88,0,0,1-1.49-1.25,4.5,4.5,0,0,1-.23-2.11,2.61,2.61,0,0,0-.7-2l.31.08-.08-.78.08.31.23-.24a2.06,2.06,0,0,0,.78.63l.32-.16q.69-1.63-.55-4.76a11.88,11.88,0,0,0-4.92-5.78h.23a3.39,3.39,0,0,0-2.65-1.25l.39.55-.55.23a2.34,2.34,0,0,0-.86-1l-.62-.47a3.65,3.65,0,0,0,1,1.17,2.65,2.65,0,0,1-2.74-2,2.55,2.55,0,0,1,.24-2.58,1.43,1.43,0,0,1,1.4-.39,3.73,3.73,0,0,0,1.41.24v-.08l.62.08h.31l.63.08-.24.15c.63.63,1.18.6,1.64-.08-1-.83-1.58-1.35-1.79-1.56a1.64,1.64,0,0,1-.31-.7l.23-.16a7.51,7.51,0,0,1,2.34,1.25l-.23-.7.31-.08-1.17-.78a2.45,2.45,0,0,1,1.41.78,6.51,6.51,0,0,1,1.79,2.73l-.15.32a48.6,48.6,0,0,0,3.9,3,24.8,24.8,0,0,1,3.83,3.28l-.08.31v.08l.23.24-.15-.78a4.85,4.85,0,0,1-1-1.8l.08-.08L353,510.84l.07-.39a10.37,10.37,0,0,0-2.18-1.87l-1.25-.86c-1.3-.78-2-1.43-2.11-2a5.34,5.34,0,0,1,2.11.16l.15-.31-.86-1.09.24-.24-.24-.39a2,2,0,0,1,.94.24c-.1-.11-1.25-.73-3.43-1.88l.15-.23-.86-.63a17.25,17.25,0,0,1,1.8,1,2.08,2.08,0,0,0,2.11.08c-.31-.21-.81-.5-1.49-.86h.32c-.52-.63-2.11-1.3-4.77-2a22,22,0,0,0-6.09-1,3.38,3.38,0,0,0,1.41.86l-1.64-.47a.78.78,0,0,0-.55-.23c-1.92-.16-3.38-.29-4.37-.39l-2.42.08a3.23,3.23,0,0,1-2.42-.71,3,3,0,0,0-1.33-.7,13.11,13.11,0,0,0-3.12.08l.08.31.7.31-.94-.08.16.16-1-.16a2.92,2.92,0,0,0-1.32,0l.15.39a4.68,4.68,0,0,1-2.73-.39l-2.58-1.09.08.31-.16.24a13.43,13.43,0,0,1-5.07-1.25,14.79,14.79,0,0,0-5.15-1.33,1.23,1.23,0,0,0-.71.47h-.31l.31.23-1.79-.07a.84.84,0,0,0-.55.31,5,5,0,0,0-1.8.08c-.26,0-.33.28-.23.7l.23.16a3.87,3.87,0,0,1-1.17.15,6.48,6.48,0,0,0-1.25.08l-.15.08a2,2,0,0,1,1.4.86l-2.34-.32.31.16-.23.16-.31-.08.93.62-1.32-.15-.16-.86-.23-.16a1.21,1.21,0,0,1-.55.78,5.37,5.37,0,0,0,2,1.95,1.09,1.09,0,0,0-1.17-.07c.26.83-.31,1.3-1.72,1.4a8.29,8.29,0,0,0,.86-.47,1.71,1.71,0,0,0,.31-.7,5.85,5.85,0,0,1-.39-1.48,10.23,10.23,0,0,0-.31-1.49l-.31-.07h-.08l-.63-.16a1.38,1.38,0,0,1-.62.78,1.54,1.54,0,0,0-.63.7,2.17,2.17,0,0,0,.63,1.56,30,30,0,0,1-4.29-1.17l1,.71a9.68,9.68,0,0,1-3.36.62l.55-.47a4.29,4.29,0,0,0-2.27.7,4.77,4.77,0,0,1-2.26.63c.05-.26.13-.42.23-.47a3.48,3.48,0,0,1,.71-.16c0-.83-.42-1-1.25-.46l.15.23-.54,1.48-.24-.23a4.28,4.28,0,0,0-1.64.47,4.27,4.27,0,0,1-1.71.55l.23.62c-.31.1-.52,0-.62-.16s-.21-.78-.47-1.87a4.36,4.36,0,0,1,1.17.47,1.77,1.77,0,0,0,1.25.15,1.56,1.56,0,0,0,.86-.46c.36-.37.49-.68.39-.94s-1-.57-2.5-.94l-.08-.31-1.17-.08.78-.23-.31-.16-.39.08.23-.16a3.65,3.65,0,0,0-1.48.47l.54-.47-.31-.15a1.82,1.82,0,0,0-.93.7l-.4-.08c-.05.11-.33.21-.85.31v-.31a5.29,5.29,0,0,1-2,.86M274.4,518l-.08.07a1.5,1.5,0,0,1-1.09.32.46.46,0,0,0,.23.39.31.31,0,0,1,.16.31c-.32-.16-.55.1-.71.78q-1.32-.32-1.56-.39c-.31-.11-.39-.26-.23-.47v-.08l.31-.23-.08.08c1.3-.94,2.32-1.2,3-.78m7.42.7a2,2,0,0,1,1.56-.7c.73,0,1,.39.93,1a.83.83,0,0,0,.16.86,11.92,11.92,0,0,0-1.33.31c-.1.11-.1.29,0,.55a.6.6,0,0,0-.54.23c0,.37.33.91,1,1.64a4.88,4.88,0,0,1,1.25,2.66,23.49,23.49,0,0,1,.23,4.06,5,5,0,0,0-1.24.31,1.47,1.47,0,0,1-1.33,0v-.08l-.24-.15a3,3,0,0,1-1.56-1.8,2.34,2.34,0,0,1,.31-1.33q.39-.86,1-.78A3.33,3.33,0,0,0,281,524a3.87,3.87,0,0,1-1.17-1.33,1.58,1.58,0,0,1,.39-1.33.75.75,0,0,1-.47,0,2,2,0,0,1,.15-1,3.75,3.75,0,0,0,.24-.94l.39.16a3.26,3.26,0,0,0,1.33-.94m-13.75.23v-.08a2.83,2.83,0,0,1,2.19.39c-.68.58-1,.94-.94,1.1a2.36,2.36,0,0,0,1.72,0,1.78,1.78,0,0,1,1.64,0,6.65,6.65,0,0,1,1.95,1.79c.47.68.55,1.25.24,1.72a2.7,2.7,0,0,1-2.11.94,4.44,4.44,0,0,1-1.49-.55,9.18,9.18,0,0,0-1.48-.78,2.9,2.9,0,0,0-1.87.47,2.92,2.92,0,0,1-1.88.47c-.15-.05-.36-.34-.62-.86l-.47-.63a5.4,5.4,0,0,0,1.41-1.79,5.74,5.74,0,0,1,1.71-2.19m4.14-24.51-.39.07c1.72-.67,3-1.19,3.83-1.56l.31-.08a4.22,4.22,0,0,0-2,.39,1.82,1.82,0,0,1,1.09-.46.9.9,0,0,0,.86-.71h-.23l-1,.24-1.09.47.31-.24-.39.24.08-.08-.63.31a66.05,66.05,0,0,0-9.68,6.17c-1.14.83-2.81,2.18-5,4.06l2.49-2-.54.47,2.42-1.72-.08.08a2.09,2.09,0,0,0,.94-.39,3,3,0,0,0,2-1.25l-.55.15,1-.54-.4.31a1.32,1.32,0,0,0,.55-.24,2.08,2.08,0,0,0,.24-.15l.07-.08.47-.31-.15.08.85-.78c.27,0,.42-.08.47-.24v.08a.52.52,0,0,0,.39,0l.32-.23-.32.07,1-.47a4.56,4.56,0,0,0,1.48-.93h-.15V495a2.22,2.22,0,0,0,1.17-.47h-.08Z"/></g><g id="Duplicate_Items_Folder_Symbol_9_copy_20_0_Layer0_0_MEMBER_0_FILL" data-name="Duplicate Items Folder Symbol 9 copy 20 0 Layer0 0 MEMBER 0 FILL"><path class="cls-15" d="M213.65,339.28q-29.82,9.89-47.16,27.89,8.12,35.94,50.75,61.21A159.57,159.57,0,0,0,257,445.12q21.08,5.69,39.5,4.49,57.78-3.87,96.9-20.53,50.06-21.42,65.51-62.58-27.24-19.72-68.55-30.31-44.82-11.54-96.12-9.44Q245.73,328.72,213.65,339.28Z"/></g><g id="Duplicate_Items_Folder_Symbol_9_copy_20_0_Layer0_0_MEMBER_1_FILL" data-name="Duplicate Items Folder Symbol 9 copy 20 0 Layer0 0 MEMBER 1 FILL"><path class="cls-9" d="M219.19,425.13Q177,404.07,165.63,366.62l-11.95,8.3q12,41.35,59.89,66.62a177.76,177.76,0,0,0,43.49,16.13,151.26,151.26,0,0,0,41.86,4.19q52.86-2.7,96.82-22.33,49.65-22.23,75.34-61.33L458.2,364.65q-25.92,34.19-68.4,54.51Q348,439.1,298.92,441.56A158.56,158.56,0,0,1,219.19,425.13Z"/></g><g id="Symbol_78_0_Layer0_0_MEMBER_0_FILL" data-name="Symbol 78 0 Layer0 0 MEMBER 0 FILL"><path class="cls-16" d="M526.75,58.83a41.42,41.42,0,0,1,2.11-12.41,49.83,49.83,0,0,0,2-4.85,9,9,0,0,0,.63-5.07q-.63-3.51-4.84-5.86a68.25,68.25,0,0,0-8-3.12q-7.49-2.58-23.81-14.6Q480.46,2.38,470.46.82a30.8,30.8,0,0,0-15,1.4,32.18,32.18,0,0,0-12.81,8Q431.82,21.59,431.5,43.37c-.06,5.21-.11,8-.16,8.28a23.72,23.72,0,0,1-1.72,8,18.85,18.85,0,0,1-6.48,7.81,26.52,26.52,0,0,1-9.45,4.22,47.4,47.4,0,0,1-10.22,1.17q-3.92.07-10.39-.47l34,33.89q3.36,4.13,9.76,4.21a22.79,22.79,0,0,0,11.17-2.89q.7-.39,9.68-6.17A37.25,37.25,0,0,1,468,96.62q4.92-1.17,13-.08a110.27,110.27,0,0,0,13.2,1.33,31.43,31.43,0,0,0,20.3-7.73,31.55,31.55,0,0,0,11.24-18.58A97.75,97.75,0,0,0,526.75,58.83Z"/></g><g id="Symbol_78_0_Layer0_0_MEMBER_1_FILL" data-name="Symbol 78 0 Layer0 0 MEMBER 1 FILL"><path class="cls-17" d="M483,18.46a28.39,28.39,0,0,0-9.29-3.2,20.64,20.64,0,0,0-9.68.55,20.89,20.89,0,0,0-9.61,6.79,31.8,31.8,0,0,0-5.7,10.7,55.85,55.85,0,0,0-2.18,11.79q-.39,4.06-.86,12.1a76.88,76.88,0,0,1-1.56,12,37.85,37.85,0,0,1-4.22,11.24A28.94,28.94,0,0,1,452,72.73a19.72,19.72,0,0,1-2.26,8.82,18.79,18.79,0,0,1-5.86,6.8c1.22-.79,4.24-1.2,9.06-1.25q3.9-.09,9.84,0,9.6-.7,10.93-.86a59.35,59.35,0,0,0,10.85-2A42.45,42.45,0,0,0,497.79,78a30.83,30.83,0,0,0,9.68-10.7q.31-.62,4.06-9.83,2.41-6,5.54-8.83c1-.88,1.62-1.46,1.88-1.72a3.47,3.47,0,0,0,1-2.1q.39-3.44-6.48-4.77-7.8-1.48-16-9.37Q487.17,20.73,483,18.46Z"/></g><g id="Symbol_78_0_Layer0_0_MEMBER_2_MEMBER_0_MEMBER_0_FILL" data-name="Symbol 78 0 Layer0 0 MEMBER 2 MEMBER 0 MEMBER 0 FILL"><path class="cls-18" d="M497,30.88q6.09,5.77,11.55,7.81a33.75,33.75,0,0,0,3.67,1.09l1.25.23-1.25-.31c-.67-.21-1.85-.65-3.51-1.33q-5.16-2.1-11-8.2-4.21-4.44-6.79-6.87a38.16,38.16,0,0,0-9.22-6.4A27.4,27.4,0,0,0,469.52,14a18.58,18.58,0,0,0-12.65,4.61,28.14,28.14,0,0,0-7.81,10.93,45.32,45.32,0,0,0-3,12q-.56,4.38-.78,11.09c-.21,4.9-.39,8.07-.55,9.53A47.55,47.55,0,0,1,442,75.7a31.49,31.49,0,0,1-1.48,3.51l1.79-3.36a48.78,48.78,0,0,0,3.44-13.51c.26-1.82.54-5,.86-9.6s.72-8.28,1.09-10.93a50.82,50.82,0,0,1,3.12-11.48,26.61,26.61,0,0,1,7.42-10.15,18.06,18.06,0,0,1,11.4-4.29A26.81,26.81,0,0,1,481,18.46a38.33,38.33,0,0,1,9,5.86Q492.56,26.58,497,30.88Z"/></g><g id="Symbol_79_0_Layer0_0_MEMBER_0_FILL" data-name="Symbol 79 0 Layer0 0 MEMBER 0 FILL"><path class="cls-19" d="M187.73,42.2q-1.56-21.71-13.12-32.4a31.92,31.92,0,0,0-13.2-7.27,31.11,31.11,0,0,0-15.14-.46q-9.92,2.1-23.66,13.5Q107,28.46,99.65,31.5a65.76,65.76,0,0,0-7.73,3.59q-4,2.58-4.53,6.17a10.38,10.38,0,0,0,.94,5Q89,47.82,90.67,51q2,4.38,2.81,12.18A99.09,99.09,0,0,0,95.2,75.85a31.78,31.78,0,0,0,12.42,17.88,31.74,31.74,0,0,0,20.69,6.64q2.58-.15,13.12-2.19,8-1.56,13-.62a34.61,34.61,0,0,1,10.46,4.14q9.52,5.31,10,5.54a22.69,22.69,0,0,0,11.32,2.26q6.4-.39,9.45-4.76l32-35.84c-4.38.63-7.81,1-10.31,1.1a43.18,43.18,0,0,1-10.23-.55,28.18,28.18,0,0,1-9.68-3.67,18.87,18.87,0,0,1-7-7.42,23.32,23.32,0,0,1-2.19-7.88C188.2,49.43,188,46.68,187.73,42.2Z"/></g><g id="Symbol_79_0_Layer0_0_MEMBER_1_FILL" data-name="Symbol 79 0 Layer0 0 MEMBER 1 FILL"><path class="cls-17" d="M176.64,68.75a85.25,85.25,0,0,1-2.26-12q-.87-8-1.49-11.95A62,62,0,0,0,170,33.14a32.07,32.07,0,0,0-6.32-10.3,21.76,21.76,0,0,0-10.07-6.17q-9-2.34-18.74,3.74-4.14,2.5-13.74,13-7.74,8.35-15.46,10.3-6.72,1.8-6.25,5.08a4.24,4.24,0,0,0,1.25,2.11,16.86,16.86,0,0,0,1.87,1.64q3.28,2.66,6,8.43c2.87,6,4.45,9.21,4.77,9.68a31.39,31.39,0,0,0,10.23,10.07,43.73,43.73,0,0,0,13.58,5.47,58.43,58.43,0,0,0,10.93,1.33q3.67.15,11,.23,2,0,9.84-.55c4.77-.25,7.76,0,9,.71a18.69,18.69,0,0,1-6.17-6.48A19.75,19.75,0,0,1,169,72.73a31,31,0,0,1,12.57,7A36.57,36.57,0,0,1,176.64,68.75Z"/></g><g id="Symbol_79_0_Layer0_0_MEMBER_2_MEMBER_0_MEMBER_0_FILL" data-name="Symbol 79 0 Layer0 0 MEMBER 2 MEMBER 0 MEMBER 0 FILL"><path class="cls-18" d="M174.53,52.27q-.61-6.71-1.4-11a44.64,44.64,0,0,0-3.75-11.79A29.17,29.17,0,0,0,160.87,19,19.41,19.41,0,0,0,148,15.11a26.81,26.81,0,0,0-12,3.67,37.6,37.6,0,0,0-8.82,6.94l-6.41,7.19q-5.46,6.31-10.46,8.9a25,25,0,0,1-3.44,1.48l-1.24.39,1.24-.31,3.6-1.25q5.14-2.26,11.08-8.51l6.64-6.87a37.27,37.27,0,0,1,8.59-6.48,25.79,25.79,0,0,1,11.24-3.2,18.25,18.25,0,0,1,11.64,3.59,27.11,27.11,0,0,1,8,9.68,51.23,51.23,0,0,1,3.83,11.24q.78,3.91,1.72,10.86t1.4,9.52a46.94,46.94,0,0,0,4.29,13.36c.27.52.89,1.61,1.88,3.28l.78,1.09-.7-1.17a23.63,23.63,0,0,1-1.72-3.36,49.88,49.88,0,0,1-3.51-13.35Q175.24,59.46,174.53,52.27Z"/></g><g id="Symbol_80_0_Layer0_0_FILL" data-name="Symbol 80 0 Layer0 0 FILL"><path class="cls-20" d="M526.05,299.24q2-18.66-2.65-43.8-3-16-10.7-43.1Q485.05,115.91,430.87,58.6,374.11-1.45,304.46,0,254,1.12,207.79,41.57q-34.57,30.3-62.69,78.32A414.39,414.39,0,0,0,108.24,202q-15.85,49.28-14.68,89.48.87,29.21,17.88,51.14,14.37,18.59,40.68,32.33a195.82,195.82,0,0,0,24.6,10.93,308.63,308.63,0,0,0,84.4,18.66q39.28,3.21,86.36-2,45-4.92,78.47-14.6,42.41-12.26,72.77-33.42Q521.84,338.52,526.05,299.24Z"/></g><g id="Symbol_80_0_Layer0_1_MEMBER_0_MEMBER_0_FILL" data-name="Symbol 80 0 Layer0 1 MEMBER 0 MEMBER 0 FILL"><path class="cls-21" d="M251.72,403.69a297.06,297.06,0,0,1-38.21-7.19,244.2,244.2,0,0,1-25.1-7.64l-8.93-3.52,8.87,3.84a236.83,236.83,0,0,0,24.91,8.28,310.32,310.32,0,0,0,38.26,7.89,338.87,338.87,0,0,0,47.77,2.85A411,411,0,0,0,347,404.56q17.83-2.34,38.43-6.52,11.42-2.35,25.64-5.94l9.29-2.52-9.31,2.21q-12.26,2.73-25.77,5.24-20.94,3.81-38.47,5.9a457,457,0,0,1-47.58,3.31A351.63,351.63,0,0,1,251.72,403.69Z"/></g><g id="Symbol_77_0_Layer0_0_MEMBER_0_MEMBER_0_MEMBER_0_FILL" data-name="Symbol 77 0 Layer0 0 MEMBER 0 MEMBER 0 MEMBER 0 FILL"><path class="cls-22" d="M343.81,31.11l1.8-4.37L343,30.64A42.55,42.55,0,0,0,338,40.87a24.06,24.06,0,0,0-.78,11.4,27.3,27.3,0,0,0,.94,3.36l.55,1.09-.24-1.17c-.15-1.56-.23-2.68-.23-3.36A33.21,33.21,0,0,1,340,41.42Q341.24,37.43,343.81,31.11Z"/></g><g id="Symbol_77_0_Layer0_0_MEMBER_1_MEMBER_0_MEMBER_0_FILL" data-name="Symbol 77 0 Layer0 0 MEMBER 1 MEMBER 0 MEMBER 0 FILL"><path class="cls-22" d="M348.5,32.91,350,29.55a22.42,22.42,0,0,0-2.34,2.89,28,28,0,0,0-4.06,8.12,29.59,29.59,0,0,0-1.41,9,23.31,23.31,0,0,0,.24,3.75l.78-3.59q.78-3.6,2.26-8.52Q346.94,36.82,348.5,32.91Z"/></g><g id="Symbol_77_0_Layer0_0_MEMBER_2_FILL" data-name="Symbol 77 0 Layer0 0 MEMBER 2 FILL"><path class="cls-22" d="M375.67,47.35a90.25,90.25,0,0,1,34,6.33q-8.26-12.49-20.06-18.35a40.82,40.82,0,0,0-13.12-3.83,32.85,32.85,0,0,0-13.59,1.25,29.94,29.94,0,0,0-11.79,6.87A26.14,26.14,0,0,0,344,51.18l-2.34,2.58A91.91,91.91,0,0,1,375.67,47.35Z"/></g><g id="Symbol_77_0_Layer0_1_MEMBER_0_MEMBER_0_MEMBER_0_FILL" data-name="Symbol 77 0 Layer0 1 MEMBER 0 MEMBER 0 MEMBER 0 FILL"><path class="cls-22" d="M265.57,30.64,263,26.74l1.72,4.37q2.56,6.33,3.82,10.31a33.48,33.48,0,0,1,1.72,10.77,18.89,18.89,0,0,1-.23,3.36l-.24,1.17.55-1.09a12.55,12.55,0,0,0,.93-3.36,23.81,23.81,0,0,0-.78-11.4A42.55,42.55,0,0,0,265.57,30.64Z"/></g><g id="Symbol_77_0_Layer0_1_MEMBER_1_MEMBER_0_MEMBER_0_FILL" data-name="Symbol 77 0 Layer0 1 MEMBER 1 MEMBER 0 MEMBER 0 FILL"><path class="cls-22" d="M261,32.44l-2.42-2.89L260,32.91a86.25,86.25,0,0,1,3.05,8.27q1.49,4.92,2.26,8.52l.78,3.59a23.31,23.31,0,0,0,.24-3.75,29.59,29.59,0,0,0-1.41-9A27.89,27.89,0,0,0,261,32.44Z"/></g><g id="Symbol_77_0_Layer0_1_MEMBER_2_FILL" data-name="Symbol 77 0 Layer0 1 MEMBER 2 FILL"><path class="cls-22" d="M266.9,53.76l-2.34-2.58a26.07,26.07,0,0,0-7.11-11.56,29.13,29.13,0,0,0-11.79-6.87,32.51,32.51,0,0,0-13.5-1.25A41.64,41.64,0,0,0,219,35.33q-11.79,5.85-20.07,18.35a90.57,90.57,0,0,1,34.05-6.33A91.76,91.76,0,0,1,266.9,53.76Z"/></g><g id="Symbol_76_0_Layer7_0_FILL" data-name="Symbol 76 0 Layer7 0 FILL"><path class="cls-23" d="M348.89,91.47q-12.57,14.37-12.57,34.59t12.57,34.67Q361.46,175,379.18,175t30.38-14.28q12.57-14.37,12.57-34.67T409.56,91.47Q397,77.18,379.18,77.18T348.89,91.47Z"/></g><g id="Symbol_76_0_Layer6_0_FILL" data-name="Symbol 76 0 Layer6 0 FILL"><path class="cls-23" d="M199,91.47q-12.57,14.37-12.57,34.59T199,160.73Q211.54,175,229.35,175t30.29-14.28q12.57-14.37,12.57-34.67T259.64,91.47q-12.57-14.3-30.29-14.29T199,91.47Z"/></g><path id="Symbol_76_0_Layer5_0_1_STROKES" data-name="Symbol 76 0 Layer5 0 1 STROKES" class="cls-24" d="M336.32,126.06q0,20.3,12.57,34.67T379.18,175q17.81,0,30.38-14.28t12.57-34.67q0-20.22-12.57-34.59T379.18,77.18q-17.71,0-30.29,14.29T336.32,126.06Z"/><g id="Symbol_76_0_Layer4_0_MEMBER_0_FILL" data-name="Symbol 76 0 Layer4 0 MEMBER 0 FILL"><path class="cls-9" d="M380.35,97.56q-13.28,0-22.72,10.77t-9.45,25.93q0,15.15,9.45,25.92t22.72,10.7q13.35,0,22.8-10.7t9.37-25.92q0-15.22-9.37-25.93T380.35,97.56Z"/></g><g id="Symbol_76_0_Layer4_0_MEMBER_1_FILL" data-name="Symbol 76 0 Layer4 0 MEMBER 1 FILL"><path class="cls-25" d="M365.36,117.08a26.66,26.66,0,0,0,0,34.28q6.25,7.09,15,7.1a19.15,19.15,0,0,0,15-7.1,26.63,26.63,0,0,0,0-34.28,19.36,19.36,0,0,0-30,0Z"/></g><g id="Symbol_76_0_Layer4_0_MEMBER_2_FILL" data-name="Symbol 76 0 Layer4 0 MEMBER 2 FILL"><path class="cls-26" d="M391.75,115.13a7.06,7.06,0,0,0,0,9.05,5.16,5.16,0,0,0,8,0,7.06,7.06,0,0,0,0-9.05,5.16,5.16,0,0,0-8,0Z"/></g><path id="Symbol_76_0_Layer3_0_1_STROKES" data-name="Symbol 76 0 Layer3 0 1 STROKES" class="cls-24" d="M186.4,126.06q0,20.3,12.57,34.67T229.35,175q17.72,0,30.29-14.28t12.57-34.67q0-20.22-12.57-34.59T229.35,77.18q-17.81,0-30.38,14.29T186.4,126.06Z"/><g id="Symbol_76_0_Layer2_0_MEMBER_0_FILL" data-name="Symbol 76 0 Layer2 0 MEMBER 0 FILL"><path class="cls-9" d="M207.79,108.33q-9.43,10.71-9.44,25.93t9.44,25.92q9.38,10.69,22.73,10.7t22.72-10.7q9.45-10.77,9.45-25.92t-9.45-25.93q-9.45-10.77-22.72-10.77T207.79,108.33Z"/></g><g id="Symbol_76_0_Layer2_0_MEMBER_1_FILL" data-name="Symbol 76 0 Layer2 0 MEMBER 1 FILL"><path class="cls-25" d="M215.45,117.08a26.63,26.63,0,0,0,0,34.28,19.37,19.37,0,0,0,15.07,7.1,19.16,19.16,0,0,0,15-7.1,26.66,26.66,0,0,0,0-34.28,19.14,19.14,0,0,0-15-7.11Q221.69,110,215.45,117.08Z"/></g><g id="Symbol_76_0_Layer2_0_MEMBER_2_FILL" data-name="Symbol 76 0 Layer2 0 MEMBER 2 FILL"><path class="cls-26" d="M241.84,115.13a7.06,7.06,0,0,0,0,9.05,5.1,5.1,0,0,0,4,1.88,5.33,5.33,0,0,0,4.06-1.88,7.06,7.06,0,0,0,0-9.05,5.33,5.33,0,0,0-4.06-1.88A5.1,5.1,0,0,0,241.84,115.13Z"/></g><g id="Symbol_76_0_Layer0_0_STROKES_1_FILL" data-name="Symbol 76 0 Layer0 0 STROKES 1 FILL"><path class="cls-22" d="M408.46,87.41l-.23-.31-3.05-2.82-.62-.46-.31-.32-.39-.23-.63-.55-6.71-4.06c-.21-.1-1.28-.57-3.21-1.4l-6.09-1.72-.85-.16-9-.46-6.25.62-6.09,1.72a24.68,24.68,0,0,0-3.2,1.4l-6.72,4.06-.62.55-.39.23-.31.32-.63.46-4.68,4.61-.24.31-.31.32-.47.62-.55.55L346,91.94l-.16.15-.08.16-1.09,1.56a46.84,46.84,0,0,0-5.39,10l-1.56,4.76a32.16,32.16,0,0,0-1,4.45c-.32,1.92-.5,3.23-.55,3.9v.47l-.08.39-.15,5.7.07.55.08,2.11.08.46h.31l.63-6.24,1.56-7a37.87,37.87,0,0,1,1.33-4.06l.23-.55.16-.54,1.64-3.6.15-.23.24-.62,1.95-3.36a54.47,54.47,0,0,1,3.2-4.53l1.09-1.41.16-.07.08-.16,1.4-1.56v-.08h.08l2-2.11.31-.23L353,90l5.38-4.21,5.39-3a24,24,0,0,1,2.89-1.17L372.78,80l4-.47,5.62.08,6.33,1,5.93,2.1,5.39,3L405.42,90l.23.32.31.23,1,1,.23.31.32.23.54.55v.08l.08.08.16.07,2.49,3a54.58,54.58,0,0,1,3.21,4.53l1.95,3.36.23.62.16.23,1.64,3.6.15.54.24.55c.57,1.51,1,2.86,1.33,4.06L422,126.6h.31l.08-2.57.08-.55-.16-5.7-.08-.39v-.47c-.05-.67-.23-2-.54-3.9a32.12,32.12,0,0,0-1-4.45l-1.56-4.76a46.4,46.4,0,0,0-5.39-10l-2.49-3.43L411,90.3l-.08-.08-.08-.16-2.42-2.65M232.86,75,227,74.92l-.47.07h-.85l-4.46.55-6.09,1.72-3.2,1.4-6.71,4.06-.63.55-.39.23-.31.32-.62.46-4.69,4.61-.23.31-.32.32-.46.62-.55.55-.94,1.25-.15.15-.08.16-1.09,1.56a46.4,46.4,0,0,0-5.39,10l-1.56,4.76a32.12,32.12,0,0,0-1,4.45c-.31,1.92-.49,3.23-.55,3.9v.47l-.07.39-.16,5.7.08.55.08,2.11.07.46h.32l.62-6.24,1.56-7c.32-1.2.76-2.55,1.33-4.06l.23-.55.16-.54,1.64-3.6.16-.23.23-.62,1.95-3.36q1.49-2.34,3.2-4.53l1.1-1.41.15-.07.08-.16,1.41-1.56v-.08h.08l2-2.11.31-.23L203,90l2.89-2.42L211,84.13l5.7-2.58,3-.93,7.11-1.1,5.62.08,6.32,1,3.05.93a24.71,24.71,0,0,1,2.89,1.17l2.81,1.41,5.07,3.43L255.5,90l.24.32.31.23,1,1,.24.31.31.23.55.55v.08l.08.08.15.07,2.11,2.5.39.55q1.71,2.19,3.2,4.53l2,3.36.24.62.15.23,1.64,3.6.16.54.23.55a37.87,37.87,0,0,1,1.33,4.06l2.27,13.19h.31l.08-2.57.07-.55-.15-5.7-.08-.39v-.47c-.05-.67-.23-2-.55-3.9a33.68,33.68,0,0,0-1-4.45l-1.56-4.76a46.84,46.84,0,0,0-5.39-10l-2.5-3.43-.16-.08-.07-.08-.08-.16-2.42-2.65-.24-.31-3-2.82-.63-.46-.31-.32-.39-.23-.62-.55-6.72-4.06a19.84,19.84,0,0,0-3.2-1.4l-4.29-1.33Z"/></g><g id="Symbol_75_2_Layer0_0_MEMBER_0_FILL" data-name="Symbol 75 2 Layer0 0 MEMBER 0 FILL"><path class="cls-27" d="M402.06,461.88q25-17.88,43.8-73.39a411.18,411.18,0,0,0,19.76-88H143.69a356.47,356.47,0,0,0,23.74,96q19.51,49.19,41.61,65.35,15.54,11.33,41.15,17.88a228.84,228.84,0,0,0,53,6.64,221.25,221.25,0,0,0,54.27-5.62Q384.57,474.38,402.06,461.88Z"/></g><g id="Symbol_75_2_Layer0_0_MEMBER_1_MEMBER_0_FILL" data-name="Symbol 75 2 Layer0 0 MEMBER 1 MEMBER 0 FILL"><path d="M384.49,416.05q23-12.26,42.32-54.11,16-34.44,20.38-64.57l-285.15,3q4.14,32,22.25,67.31,18.59,36.15,37.56,47.08,28.26,16.24,78.63,17.26Q352.56,433.07,384.49,416.05Z"/></g><g id="Symbol_75_2_Layer0_0_MEMBER_1_MEMBER_1_FILL" data-name="Symbol 75 2 Layer0 0 MEMBER 1 MEMBER 1 FILL"><path class="cls-28" d="M384.49,416.05q11.33-6.09,22-19a341.4,341.4,0,0,0-100.1-10.47,328.26,328.26,0,0,0-96.66,18.82,66,66,0,0,0,12.1,9.37q28.26,16.24,78.63,17.26Q352.56,433.07,384.49,416.05Z"/></g><g id="Symbol_75_2_Layer0_0_MEMBER_2_FILL" data-name="Symbol 75 2 Layer0 0 MEMBER 2 FILL"><path class="cls-23" d="M388.16,361.16a47.23,47.23,0,0,0,1.56-12l-43.1-.62-.15,4.61a50.71,50.71,0,0,0,3.28,14l10.54,2.42a59.49,59.49,0,0,0,26.23-2.81A45,45,0,0,0,388.16,361.16Z"/></g><g id="Symbol_75_2_Layer0_0_MEMBER_3_FILL" data-name="Symbol 75 2 Layer0 0 MEMBER 3 FILL"><path class="cls-23" d="M238.87,367.17l10.54,2.42a59.53,59.53,0,0,0,26.24-2.81,45,45,0,0,0,1.64-5.62,47.68,47.68,0,0,0,1.56-12l-43.1-.62-.16,4.61A51.08,51.08,0,0,0,238.87,367.17Z"/></g><g id="Symbol_75_2_Layer0_0_MEMBER_4_MEMBER_0_MEMBER_0_FILL" data-name="Symbol 75 2 Layer0 0 MEMBER 4 MEMBER 0 MEMBER 0 FILL"><path class="cls-29" d="M461.79,279.64l-1.25-.08,3.59,2.5a47,47,0,0,1,7.19,6.72,45.51,45.51,0,0,1,5.93,7.88l2.11,3.83v-1.17a11.68,11.68,0,0,0-.23-3.36,22.39,22.39,0,0,0-1.41-4.76,19.9,19.9,0,0,0-3.36-5.08,19.51,19.51,0,0,0-4.76-3.9,18.17,18.17,0,0,0-4.61-2A17.26,17.26,0,0,0,461.79,279.64Z"/></g><g id="Symbol_75_2_Layer0_0_MEMBER_5_MEMBER_0_MEMBER_0_FILL" data-name="Symbol 75 2 Layer0 0 MEMBER 5 MEMBER 0 MEMBER 0 FILL"><path class="cls-29" d="M144,273.79l.78-.86-1.17.31a15.58,15.58,0,0,0-2.89,1.25,15.94,15.94,0,0,0-3.82,2.73,18.23,18.23,0,0,0-3.59,4.61,19.74,19.74,0,0,0-1.88,5.54,19.13,19.13,0,0,0-.23,4.69,16,16,0,0,0,.62,3.12l.39,1.09,1-4a45.3,45.3,0,0,1,3.67-8.51,44.2,44.2,0,0,1,5.07-7.73C143,274.85,143.69,274.1,144,273.79Z"/></g><g id="Symbol_75_2_Layer0_0_MEMBER_6_MEMBER_0_MEMBER_0_MEMBER_0_FILL" data-name="Symbol 75 2 Layer0 0 MEMBER 6 MEMBER 0 MEMBER 0 MEMBER 0 FILL"><path class="cls-5" d="M466.32,304.32h-.08q1.1-10.69-3.12-26.47a135.22,135.22,0,0,0-15-35.14Q421.42,198,371.84,183.14q-33-9.84-71.13-9.37-40.83.61-74.57,13.27-37.71,14.13-59.1,41.07-24.14,30.38-24.75,74.25a87.26,87.26,0,0,0,20.45,24.21q12.88,10.77,26.47,15.23a91.78,91.78,0,0,0,20.15,4q6.79.71,20.53,1.09l124.23,3.36q24.67.61,37.24-.39,20.61-1.65,35.84-8Q455.7,329.85,466.32,304.32Z"/></g><g id="Symbol_75_2_Layer0_0_MEMBER_7_FILL" data-name="Symbol 75 2 Layer0 0 MEMBER 7 FILL"><path class="cls-30" d="M323.9,217.41a380.75,380.75,0,0,0,56.61-3.59q25.53-3.44,32-7.34a138.68,138.68,0,0,0-38.26-21.63,170.06,170.06,0,0,0-61.68-11.16,319.82,319.82,0,0,0-53.25,4.92q-27.57,4.68-26.39,7.57,6.48,16.24,33.81,24.28Q289.39,217.1,323.9,217.41Z"/></g><g id="Symbol_75_2_Layer0_0_MEMBER_8_MEMBER_0_MEMBER_0_MEMBER_0_FILL" data-name="Symbol 75 2 Layer0 0 MEMBER 8 MEMBER 0 MEMBER 0 MEMBER 0 FILL"><path class="cls-29" d="M470.61,289a72.54,72.54,0,0,1-11.47,27.17A64.35,64.35,0,0,1,442,332.66a87.55,87.55,0,0,1-26.39,11.71,144.08,144.08,0,0,1-33,4.3q-7.57.22-18.12-.08-12.48-.31-19-.55l-40.05-1.17q-48.34-1.25-77.23-1.72Q206.32,344.68,195,342a73.12,73.12,0,0,1-14.13-5,88.32,88.32,0,0,1-12-7,93.22,93.22,0,0,1-17.8-16,75.82,75.82,0,0,1-10.31-15c0-.06-.49-1.12-1.48-3.2-.68-1.51-1.1-2.48-1.25-2.89q-1.48-4.21-1.56-4.61l-1-3.9.86,4a38.7,38.7,0,0,0,1.41,4.68c0,.11.36,1.07,1.09,2.89l1.41,3.28a77.34,77.34,0,0,0,9.83,15.54,94.14,94.14,0,0,0,17.57,16.86,89.08,89.08,0,0,0,12.18,7.58,75.3,75.3,0,0,0,14.52,5.46,107.45,107.45,0,0,0,16.32,2.82q6.87.69,17.42,1,28.65,1,77.22,2.42l40,.94q26.7.61,37.4.15a138,138,0,0,0,33.57-5,87.62,87.62,0,0,0,26.78-12.73,64.4,64.4,0,0,0,17.1-17.41,69.62,69.62,0,0,0,8-16.56,81.7,81.7,0,0,0,2.65-11.24l.63-4Z"/></g><g id="Symbol_75_2_Layer0_0_MEMBER_9_MEMBER_0_MEMBER_0_FILL" data-name="Symbol 75 2 Layer0 0 MEMBER 9 MEMBER 0 MEMBER 0 FILL"><path class="cls-5" d="M391.21,228.5q9.29-9.28,12.8-13.66a49.29,49.29,0,0,0,9-16.09,36.88,36.88,0,0,0,1-18.58,29.15,29.15,0,0,0-8.51-16q-10.62-10-26.94-8.12-13.9,1.64-26.94,10.85a61.61,61.61,0,0,0-21.78,26.32q-7.27,16.93-1.64,32.71,9.75,12,33,11.48Q382.78,236.94,391.21,228.5Z"/></g><g id="Symbol_75_2_Layer0_0_MEMBER_9_MEMBER_0_MEMBER_1_FILL" data-name="Symbol 75 2 Layer0 0 MEMBER 9 MEMBER 0 MEMBER 1 FILL"><path class="cls-31" d="M386.52,187.35q-.54-3-4.29-4.06a12.64,12.64,0,0,0-7,.08q-8,2.26-14,13.51-5.24,12.65-6.79,16.24l.23.31a95.51,95.51,0,0,0,20.38-9.13Q388.16,196.17,386.52,187.35Z"/></g><g id="Symbol_75_2_Layer0_0_MEMBER_9_MEMBER_0_MEMBER_2_MEMBER_0_MEMBER_0_FILL" data-name="Symbol 75 2 Layer0 0 MEMBER 9 MEMBER 0 MEMBER 2 MEMBER 0 MEMBER 0 FILL"><path class="cls-32" d="M415.1,181.5a29.2,29.2,0,0,0-11.48-20.23,31,31,0,0,0-14.83-6.09,36.59,36.59,0,0,0-7.58-.31,64.53,64.53,0,0,0-7.26,1,56.22,56.22,0,0,0-12.57,4.53,73.68,73.68,0,0,0-10,5.94,63.94,63.94,0,0,0-12.11,11.48l-2.73,3.67-.78,1.32.86-1.25q1.1-1.48,2.89-3.51A62.69,62.69,0,0,1,352,167.21a70.89,70.89,0,0,1,9.92-5.55,55,55,0,0,1,12.41-4.06,36.38,36.38,0,0,1,7-.86,33.81,33.81,0,0,1,7.26.32,29.28,29.28,0,0,1,13.82,5.77,30.38,30.38,0,0,1,5.47,5.47,28.22,28.22,0,0,1,3.59,6.48,26.79,26.79,0,0,1,1.87,6.95,30.88,30.88,0,0,1,.47,7q-.15,11.32-7.57,22.88a73.29,73.29,0,0,1-10.54,12.72c-.73.78-1.82,1.83-3.28,3.13l-1.17,1.09,4.68-4a70.51,70.51,0,0,0,11.17-12.42,49.51,49.51,0,0,0,5.54-10.23,39.81,39.81,0,0,0,2.89-13.11A31.25,31.25,0,0,0,415.1,181.5Z"/></g><g id="Symbol_75_2_Layer0_0_MEMBER_9_MEMBER_1_MEMBER_0_FILL" data-name="Symbol 75 2 Layer0 0 MEMBER 9 MEMBER 1 MEMBER 0 FILL"><path class="cls-5" d="M292,193.21a61.87,61.87,0,0,0-21.71-26.32q-13.12-9.21-27-10.85-16.32-1.87-26.93,8.12a29.1,29.1,0,0,0-8.52,16,37.66,37.66,0,0,0,1.1,18.58,49.9,49.9,0,0,0,8.9,16.09q3.68,4.53,12.8,13.66,3.75,3.75,12,6.17a68.2,68.2,0,0,0,18,2.73q23.26.47,33-11.48Q299.22,210.16,292,193.21Z"/></g><g id="Symbol_75_2_Layer0_0_MEMBER_9_MEMBER_1_MEMBER_1_FILL" data-name="Symbol 75 2 Layer0 0 MEMBER 9 MEMBER 1 MEMBER 1 FILL"><path class="cls-31" d="M267.06,213.43l.23-.31a126.8,126.8,0,0,0-6.79-16.24q-5.94-11.32-14-13.51a12.64,12.64,0,0,0-7-.08c-2.49.68-3.93,2-4.29,4.06q-1.64,8.82,11.4,17A95.51,95.51,0,0,0,267.06,213.43Z"/></g><g id="Symbol_75_2_Layer0_0_MEMBER_9_MEMBER_1_MEMBER_2_MEMBER_0_MEMBER_0_FILL" data-name="Symbol 75 2 Layer0 0 MEMBER 9 MEMBER 1 MEMBER 2 MEMBER 0 MEMBER 0 FILL"><path class="cls-32" d="M282.36,178.06l3.75,4.76-3.51-5a69.64,69.64,0,0,0-12.18-11.48,74.37,74.37,0,0,0-10-5.94,56.22,56.22,0,0,0-12.57-4.53,47.93,47.93,0,0,0-7.18-1,37.19,37.19,0,0,0-7.66.31,30.08,30.08,0,0,0-14.75,6.09,32.48,32.48,0,0,0-5.86,5.78,30.2,30.2,0,0,0-3.75,7,27.15,27.15,0,0,0-2,7.42,32.39,32.39,0,0,0-.39,7.26,39.81,39.81,0,0,0,2.89,13.11,50,50,0,0,0,5.54,10.23,73.24,73.24,0,0,0,11.17,12.42l4.68,4-4.45-4.22a75.43,75.43,0,0,1-10.54-12.72q-7.26-11.4-7.57-22.88a39,39,0,0,1,.47-7,31,31,0,0,1,1.95-6.95A23.44,23.44,0,0,1,214,168.3a28.16,28.16,0,0,1,5.39-5.47,29.32,29.32,0,0,1,13.9-5.77,32.65,32.65,0,0,1,7.18-.32,36.38,36.38,0,0,1,7,.86,55,55,0,0,1,12.41,4.06,67.44,67.44,0,0,1,9.92,5.55A61.87,61.87,0,0,1,282.36,178.06Z"/></g><path class="cls-1" d="M5.79,595.32c-5-9.38-4.74-20.35-.12-29.82,4.15-8.5,12.14-17.35,21-20.86A68.47,68.47,0,0,1,74,543.7a24.53,24.53,0,0,1,5.77,2.71c4.83,3.29,7.37,9.24,7.68,15.07S86.11,573.09,84,578.54c-3,7.88-7.1,15.47-12.91,21.59a47.6,47.6,0,0,1-8.55,7.09,43.33,43.33,0,0,1-31.15,6.46A37,37,0,0,1,5.79,595.32Z"/><path class="cls-1" d="M609.12,593.05c4.82-9,4.55-19.51.12-28.6-4-8.15-11.64-16.64-20.15-20a65.66,65.66,0,0,0-45.36-.91,23.77,23.77,0,0,0-5.54,2.6c-4.63,3.15-7.07,8.86-7.37,14.46s1.28,11.13,3.29,16.36c2.9,7.55,6.8,14.83,12.38,20.7a45.33,45.33,0,0,0,8.2,6.8,41.61,41.61,0,0,0,29.87,6.2C594.79,608.72,604.21,602.23,609.12,593.05Z"/><rect class="cls-33" x="41.45" y="463.62" width="531.8" height="251.01"/><rect class="cls-34" x="50.67" y="474.42" width="512.25" height="236.1"/><path class="cls-35" d="M562.92,474.42c0-.69-195.82.37-208.3,1.65l-13.43,1.38q94.83-.18,189.57,5.21c7.92.45,16.83,1.43,21.74,7.66,8.6,10.93,8.18,33.6,9.35,47.13,1.57,18.07,1.71,151.09.41,169.18C565.49,667.88,562.92,513.3,562.92,474.42Z"/><path class="cls-35" d="M50.67,710H393.45c30.19,0,121.89.41,151.87.41-61.2,0-203.65-6.82-264.85-8.47-54.66-1.47-170.49,3.8-190.27-21.78-12.39-16-11.87-41-13.39-66.82-1.44-24.45.35-50.43,2.88-74.42,4.42-41.95,24.8-52.53,42.93-56.78,16.15-3.78,63.82-6.81,86.86-7.5-7.61-.84-158.81-1.2-158.81.07Z"/><g class="cls-36"><path class="cls-37" d="M50.67,710.13V474.71c10.25-.52,20.46-.48,30.73-.28-7.91.09-16,.26-23.44,5.55-5.15,3.67-6.87,14.58-.58,18,1.6.87,3.28.68,4.93.49l3.56-.42a40.6,40.6,0,0,0-6.62,2,6.19,6.19,0,0,0-2.79,1.84,7.57,7.57,0,0,0-1.5,4.68c0,3.51.14,7,.07,10.6q-.26,11.75-.43,23.5-.21,14.5-.32,29c0,5.42-.86,17.21,1.79,20.87a4.09,4.09,0,0,0,2.68,1.61,16.62,16.62,0,0,0,7.62,0,25.39,25.39,0,0,0-7.86,3.52,6.84,6.84,0,0,0-2.73,3c-1.05,2.25-1.16,5.54-1.22,8.56-.34,16.68-1,33.07-1.7,49.7-.42,9.52-.76,19.14-.6,28.69.12,7.24,2.5,8.84,5.76,9.32a73.18,73.18,0,0,0,15.43.65l-5.45.6a45.72,45.72,0,0,0-10.44,2,3.16,3.16,0,0,0-1.93,1.46c-2.58,4.49-.17,9.14,2.27,9.83l2.64.76C57.47,709.25,53.8,710.13,50.67,710.13Z"/></g><path class="cls-38" d="M26,449.56v286H590.29V449.56Zm540,264.2H47.47V471.3h518.6Z"/><g id="Layer0_4_MEMBER_3_MEMBER_0_MEMBER_0_FILL" data-name="Layer0 4 MEMBER 3 MEMBER 0 MEMBER 0 FILL"><path class="cls-39" d="M40,477.2,39.84,486q-.09,8.73-.09,22.72,0,12.75.06,22.74l.21,9.42.06-.66.15-8.76q.09-10,.06-22.74L40,476.54Z"/></g><g id="Layer0_4_MEMBER_4_MEMBER_0_MEMBER_0_FILL" data-name="Layer0 4 MEMBER 4 MEMBER 0 MEMBER 0 FILL"><path class="cls-39" d="M30.61,537.83l-.21,18.54c0,2.45,0,75.71,0,81.21,0,8.08,0,60.85.06,67.21l.15,8.34q0,.63.06.63l.18-9c.06-5.54.09-58.31.09-67.21l-.27-99.9Z"/></g><g id="Layer0_3_MEMBER_2_MEMBER_0_MEMBER_0_FILL" data-name="Layer0 3 MEMBER 2 MEMBER 0 MEMBER 0 FILL"><path class="cls-39" d="M574.73,464.07a12.54,12.54,0,0,0-.09-1.41,12.54,12.54,0,0,0-.09,1.41l-.09,8q-.09,9.63-.09,12.57l.15,16.42a6.07,6.07,0,0,0,.12,1.38,6.07,6.07,0,0,0,.12-1.38l.09-3.81q.06-3.25.06-12.61,0-2.94-.09-12.57Z"/></g><g id="Layer0_3_MEMBER_3_MEMBER_0_MEMBER_0_FILL" data-name="Layer0 3 MEMBER 3 MEMBER 0 MEMBER 0 FILL"><path class="cls-39" d="M575.42,514.29l-.18-9.42-.06.66-.15,8.76q-.09,17.46-.09,22.71c0,9.35,0,86.22.09,92l.21,9.42.06-.66.21-100.8Q575.51,523,575.42,514.29Z"/></g><g id="Layer0_3_MEMBER_4_MEMBER_0_MEMBER_0_FILL" data-name="Layer0 3 MEMBER 4 MEMBER 0 MEMBER 0 FILL"><path class="cls-39" d="M586,534.45l0-.15-.27,99.9c0,8.9,0,61.67.09,67.21q0,4.23.09,6.57l.09,2.4s.06-.21.06-.63l.15-8.34c0-3.7.06-56.47.06-67.21Z"/></g><g id="Layer0_2_MEMBER_5_FILL" data-name="Layer0 2 MEMBER 5 FILL"><path class="cls-40" d="M590,725.12v-2.25L515.82,724Z"/></g><g id="Layer0_2_MEMBER_2_FILL" data-name="Layer0 2 MEMBER 2 FILL"><path class="cls-40" d="M26.15,724.87v1.47l236.1-1Z"/></g><g id="Layer0_2_MEMBER_3_MEMBER_0_MEMBER_0_FILL" data-name="Layer0 2 MEMBER 3 MEMBER 0 MEMBER 0 FILL"><path class="cls-41" d="M286.09,735.51l-1-11.18-1.26,11.18"/></g><g id="Layer0_2_MEMBER_4_MEMBER_0_MEMBER_0_FILL" data-name="Layer0 2 MEMBER 4 MEMBER 0 MEMBER 0 FILL"><path class="cls-39" d="M479.73,730.52l-6.09-.12q-6.24-.12-17.76-.18-18.09-.12-58.6.21l-76.79.42,18.18.27q10,.09,26.35,0l32.26-.21q41.4-.33,58.6-.36h24.18q.09,0,.09,0h-.09Z"/></g><g class="cls-42"><g id="Layer0_1_MEMBER_5_FILL" data-name="Layer0 1 MEMBER 5 FILL"><path class="cls-41" d="M26.05,451.84v1.44l205.49-.95Z"/></g></g><g class="cls-42"><g id="Layer0_1_MEMBER_5_FILL-2" data-name="Layer0 1 MEMBER 5 FILL"><path class="cls-41" d="M26.05,504.08v2.25l12.24-.89Z"/></g></g><g id="Layer0_4_MEMBER_1_FILL" data-name="Layer0 4 MEMBER 1 FILL"><path class="cls-41" d="M47.53,694.06l2.31-1.5-2.31-1-9.24,1Z"/></g><g id="Layer0_4_MEMBER_1_FILL-2" data-name="Layer0 4 MEMBER 1 FILL"><polygon class="cls-43" points="47.54 691.6 47.54 694.05 49.84 692.56 47.54 691.6"/></g><g id="Layer0_1_MEMBER_6_MEMBER_0_MEMBER_0_FILL" data-name="Layer0 1 MEMBER 6 MEMBER 0 MEMBER 0 FILL"><path class="cls-39" d="M368,467.58s0,0-.12,0l-7.32-.21c-6.07-.16-12.58-.26-20.31-.36q-22-.24-30.1-.21c-3.86,0-26.76.09-28.7.15s-5,.11-9.09.15q-12.45.06-19.09,0l-36.9-.39q-9.11-.15-30.13.15l-27.76.12,7.45.21q9.27.12,20.31,0l14-.12q8.88,0,16.09.12l17.79.33q8.19.12,19.11.12,6.66,0,19.09,0,6.09-.06,9.09-.15l28.7-.18q9.84-.06,30.1.09Z"/></g><g id="Layer0_1_MEMBER_7_MEMBER_0_MEMBER_0_FILL" data-name="Layer0 1 MEMBER 7 MEMBER 0 MEMBER 0 FILL"><path class="cls-39" d="M491.58,453.58l-.12,0-24,0q-17.25,0-58.09-.27l-32-.12c-12.2-.05-20.66,0-26.1,0l-19.63.3,2,0q9-.06,17.62,0l58.09.3q39.66.27,58.12.15l24-.39Z"/></g><g id="Layer0_1_MEMBER_8_FILL" data-name="Layer0 1 MEMBER 8 FILL"><path class="cls-40" d="M590.31,457.68v-2.25l-73.68,1.26Z"/></g><g id="Layer0_1_MEMBER_3_MEMBER_0_FILL" data-name="Layer0 1 MEMBER 3 MEMBER 0 FILL"><path class="cls-41" d="M492,471.31l1.13,2.12,1.14-2.06-.95-8.39Z"/></g><g id="Layer0_1_MEMBER_4_FILL" data-name="Layer0 1 MEMBER 4 FILL"><path class="cls-41" d="M248.41,449.58h-2.62l1.31,7.14Z"/></g><g class="cls-42"><g id="Layer0_1_MEMBER_5_FILL-3" data-name="Layer0 1 MEMBER 5 FILL"><path class="cls-41" d="M336.87,735.51h2.25"/></g></g><text class="cls-44" transform="translate(65.04 530.82) scale(0.99 1)">Hello! I am Hippopopo<tspan x="24.42" y="47.16">I am compassionate</tspan><tspan x="98.95" y="94.31">I am learning</tspan><tspan x="99.6" y="141.47">I am cheerful</tspan></text><path class="cls-1" d="M67.05,599.27c-.93.51-2,.81-2.84,1.39a21.69,21.69,0,0,1,3.54,1.16c.89.4,1.77,1,2.64,1.46a17.26,17.26,0,0,1,3.91,2.62c.69.7,1.85,1.9,2,2.86a3.35,3.35,0,0,1-1.26,2.64,47,47,0,0,1-7.38,5.78c-3,2.07-6.15,4.17-9.66,5.28a26.33,26.33,0,0,1,12.52,3.68,1,1,0,0,1,.49.45,1,1,0,0,1,0,.61,9.83,9.83,0,0,1-1.28,2.6c-2.72,4.34-4.83,8.72-9.36,11.47-3.44,2.11-7.38,3.26-11.27,4.36a24.56,24.56,0,0,1-5.92,1.17c-4.82.2-9.38-2.3-13.15-5.34a80.1,80.1,0,0,1-11.47-12c-6.67-8.15-13.13-16.78-16.38-26.81-4-12.4-2.33-26.32,3.82-37.78l18.27,5c5.74,3.59,12.42,5.16,19,6.21,3.4.53,6.81.94,10.21,1.42,3.11.44,6.63.62,9.53,1.78a43.67,43.67,0,0,1,12.31,7,21.12,21.12,0,0,1,1.37,1.69c.34.35,1,.46,1.09,1a1.47,1.47,0,0,1-.31,1,24.32,24.32,0,0,1-3.85,4.44A35.73,35.73,0,0,1,67.05,599.27Z"/><path class="cls-45" d="M73.65,594.41A24,24,0,0,0,77.51,590a1.47,1.47,0,0,0,.31-1c-.09-.56-.75-.67-1.09-1a21.12,21.12,0,0,0-1.37-1.69,43.67,43.67,0,0,0-12.31-7c-2.9-1.16-6.42-1.34-9.53-1.78l-1.63-.22a20.28,20.28,0,0,1,2.46,9.16c.16,5.46-1.62,10.84-4.14,15.69,4.75-.89,9.23,3.7,9.66,8.52s-2.16,9.43-5.39,13c5.18,4,7.36,11.18,6,17.52,4.45-2.75,6.56-7.09,9.25-11.39A9.83,9.83,0,0,0,71,627.2a1,1,0,0,0,0-.61,1,1,0,0,0-.49-.45A26.33,26.33,0,0,0,58,622.46c3.51-1.11,6.61-3.21,9.66-5.28a47,47,0,0,0,7.38-5.78,3.35,3.35,0,0,0,1.26-2.64c-.16-1-1.32-2.16-2-2.86a17.26,17.26,0,0,0-3.91-2.62c-.87-.47-1.75-1.06-2.64-1.46a21.69,21.69,0,0,0-3.54-1.16c.89-.58,1.91-.88,2.84-1.39A35.33,35.33,0,0,0,73.65,594.41Z"/><path class="cls-46" d="M63.84,600.4a24.26,24.26,0,0,1,2.38,1,28,28,0,0,1,5.91,3.7c.57.47,1.15,1,1.72,1.53a7.85,7.85,0,0,1,1.56,1.81,1.6,1.6,0,0,1,.23,1,1.54,1.54,0,0,1-.59.88l-2,2a38.87,38.87,0,0,1-4.71,3.84,50.59,50.59,0,0,1-5.52,3.49,38.06,38.06,0,0,1-6,2.53,48.39,48.39,0,0,1-5.89,1.59,89,89,0,0,1-10.27,1.48c-3,.27-5.35.4-7,.49l-2.58.14,2.58.06c1.66,0,4.07,0,7.05-.06a75.86,75.86,0,0,0,10.44-1.07,47.55,47.55,0,0,0,6-1.49,36,36,0,0,0,6.2-2.57c.5-.28,1-.53,1.5-.83L66.3,619c.93-.62,1.81-1.25,2.69-1.88a36.6,36.6,0,0,0,4.75-4.05c.7-.7,1.36-1.4,2-2.08a2.18,2.18,0,0,0,.41-3,8.45,8.45,0,0,0-1.8-1.94c-.61-.55-1.24-1-1.84-1.48a26.64,26.64,0,0,0-6.21-3.38A23.68,23.68,0,0,0,63.84,600.4Z"/><path class="cls-46" d="M24.27,569.84l1.05.65c.34.22.78.47,1.3.74s1.13.61,1.83.92A51.53,51.53,0,0,0,40.91,576c2.7.53,5.69,1,8.88,1.43a84.78,84.78,0,0,1,10.08,1.86,37.09,37.09,0,0,1,5.18,1.81c.43.19.85.39,1.27.6s.81.45,1.22.7c.82.5,1.65,1,2.47,1.55,1.65,1.06,3.32,2.18,4.92,3.4A11.71,11.71,0,0,1,77,589.24l0,0-.41.59c-.3.41-.61.82-.93,1.22a30.88,30.88,0,0,1-9.1,7.69c-3.37,1.81-7.21,2.13-10.8,2.41s-7,.63-10.27.76-6.22.18-9,.12a108.31,108.31,0,0,1-12.94-1c-1.52-.22-2.7-.41-3.49-.56L19,600.3l1.21.27c.79.18,2,.41,3.47.69a102.06,102.06,0,0,0,13,1.45c2.75.13,5.77.18,9,.1s6.7-.34,10.31-.56,7.61-.48,11.29-2.4a31.36,31.36,0,0,0,9.51-8c.34-.42.66-.84,1-1.27l.48-.7a.62.62,0,0,0,.15-.34.56.56,0,0,0,0-.36,1.55,1.55,0,0,0-.26-.65,6.41,6.41,0,0,0-1.18-1.24c-.4-.35-.81-.68-1.22-1-1.66-1.25-3.35-2.37-5-3.43-.85-.53-1.68-1-2.52-1.54-.43-.25-.84-.5-1.31-.73s-.88-.42-1.33-.6a35.18,35.18,0,0,0-5.36-1.8,79.34,79.34,0,0,0-10.23-1.68c-3.21-.39-6.19-.76-8.89-1.2A53.49,53.49,0,0,1,28.53,572c-.71-.28-1.33-.58-1.85-.84a14.28,14.28,0,0,1-1.33-.69Z"/><path class="cls-46" d="M58,622.56s.77.05,2.14.26a30.35,30.35,0,0,1,9.3,3c.32.16.64.34,1,.52s.43.21.42.3l-1,1.8a57.54,57.54,0,0,1-5.89,8.7c-.59.71-1.2,1.4-1.83,2.06a11.5,11.5,0,0,1-1.93,1.72,19.43,19.43,0,0,1-4.43,2.24c-3,1.1-5.92,1.82-8.26,2.59a17.54,17.54,0,0,1-5.7.92,14.83,14.83,0,0,1-1.59-.13l-.54-.08.54.14a14.33,14.33,0,0,0,1.57.27,17,17,0,0,0,5.88-.52c2.41-.62,5.28-1.17,8.45-2.2a19.21,19.21,0,0,0,4.76-2.25A13.05,13.05,0,0,0,63,640.06c.65-.67,1.28-1.38,1.89-2.11a49.1,49.1,0,0,0,5.86-9l.55-1.09.65-1.37.11-.22c0-.08-.12-.09-.17-.14l-.45-.24-.63-.34-1-.48a27.28,27.28,0,0,0-3.85-1.41,28.24,28.24,0,0,0-5.8-1C58.73,622.53,58,622.56,58,622.56Z"/><path class="cls-1" d="M550.37,596.83c.9.49,1.87.78,2.73,1.34a20.4,20.4,0,0,0-3.39,1.1c-.85.39-1.7,1-2.53,1.41a16.5,16.5,0,0,0-3.75,2.51,6.71,6.71,0,0,0-1.93,2.75,3.19,3.19,0,0,0,1.21,2.53,44.37,44.37,0,0,0,7.08,5.54,36.78,36.78,0,0,0,9.26,5.06,25.18,25.18,0,0,0-12,3.53,1,1,0,0,0-.46.43.92.92,0,0,0,0,.59,9.14,9.14,0,0,0,1.22,2.49c2.6,4.16,4.63,8.36,9,11a42.45,42.45,0,0,0,10.81,4.18,24,24,0,0,0,5.68,1.12c4.62.19,9-2.21,12.6-5.12a76.48,76.48,0,0,0,11-11.52c6.4-7.82,12.59-16.1,15.71-25.72,3.85-11.89,2.23-25.24-3.67-36.22l-17.51,4.79c-5.52,3.45-11.92,5-18.27,6-3.25.52-6.53.9-9.79,1.37-3,.42-6.35.6-9.14,1.71a41.7,41.7,0,0,0-11.8,6.67c-.55.48-.83,1.13-1.32,1.62-.32.33-1,.44-1,1a1.39,1.39,0,0,0,.3,1,23.12,23.12,0,0,0,3.7,4.27A34.66,34.66,0,0,0,550.37,596.83Z"/><path class="cls-45" d="M544.05,592.18a23.12,23.12,0,0,1-3.7-4.27,1.39,1.39,0,0,1-.3-1c.08-.54.72-.65,1-1,.49-.49.77-1.14,1.32-1.62a41.7,41.7,0,0,1,11.8-6.67c2.79-1.11,6.16-1.29,9.14-1.71l1.57-.22a19.43,19.43,0,0,0-2.36,8.79c-.16,5.24,1.55,10.39,4,15-4.56-.86-8.86,3.55-9.27,8.17s2.08,9,5.17,12.5c-5,3.83-7,10.72-5.75,16.8-4.27-2.63-6.29-6.79-8.87-10.92a9.14,9.14,0,0,1-1.22-2.49.92.92,0,0,1,0-.59,1,1,0,0,1,.46-.43,25.18,25.18,0,0,1,12-3.53,36.78,36.78,0,0,1-9.26-5.06,44.37,44.37,0,0,1-7.08-5.54,3.19,3.19,0,0,1-1.21-2.53,6.71,6.71,0,0,1,1.93-2.75,16.5,16.5,0,0,1,3.75-2.51c.83-.45,1.68-1,2.53-1.41a20.4,20.4,0,0,1,3.39-1.1c-.86-.56-1.83-.85-2.72-1.34A34.39,34.39,0,0,1,544.05,592.18Z"/><path class="cls-46" d="M553.46,597.92a20.55,20.55,0,0,0-2.36.77,26.23,26.23,0,0,0-6,3.25c-.58.43-1.17.89-1.76,1.41a8.26,8.26,0,0,0-1.73,1.87,2.34,2.34,0,0,0-.37,1.47,2.32,2.32,0,0,0,.77,1.37c.61.65,1.24,1.32,1.91,2a35.08,35.08,0,0,0,4.56,3.88c.84.61,1.68,1.21,2.58,1.8l1.37.88c.47.28,1,.53,1.45.79a34.7,34.7,0,0,0,6,2.47,44.44,44.44,0,0,0,5.8,1.42,72,72,0,0,0,10,1c2.85.1,5.16.08,6.76,0l2.47,0-2.47-.13c-1.59-.09-3.89-.22-6.73-.47a85.13,85.13,0,0,1-9.85-1.42,50.56,50.56,0,0,1-5.64-1.52,36.81,36.81,0,0,1-5.74-2.43,48.08,48.08,0,0,1-5.3-3.35,36.38,36.38,0,0,1-4.51-3.68l-2-1.91a1.49,1.49,0,0,1-.56-.84,1.59,1.59,0,0,1,.22-1,7.7,7.7,0,0,1,1.5-1.74,22,22,0,0,1,1.65-1.47,27.18,27.18,0,0,1,5.66-3.54C552.62,598.2,553.46,597.92,553.46,597.92Z"/><path class="cls-46" d="M591.4,568.62l-1,.57c-.34.2-.76.42-1.27.66s-1.1.54-1.78.81a51,51,0,0,1-12,3.24c-2.59.42-5.44.77-8.52,1.14a77.28,77.28,0,0,0-9.81,1.62,34.09,34.09,0,0,0-5.14,1.72c-.43.18-.86.38-1.28.58s-.84.46-1.25.7c-.81.47-1.61,1-2.42,1.48-1.61,1-3.23,2.08-4.81,3.28a11.72,11.72,0,0,0-2.31,2.14,1.46,1.46,0,0,0-.25.63.7.7,0,0,0,0,.35.66.66,0,0,0,.14.32l.46.67c.3.41.61.82.93,1.22a30.26,30.26,0,0,0,9.12,7.64c3.54,1.84,7.38,2.08,10.83,2.31s6.78.48,9.89.53,6,0,8.64-.1A97.67,97.67,0,0,0,592,598.74c1.45-.26,2.57-.49,3.33-.66l1.15-.26-1.16.2c-.77.15-1.9.33-3.35.54a105.49,105.49,0,0,1-12.41,1c-2.63.05-5.51,0-8.59-.12s-6.36-.46-9.85-.72-7.13-.59-10.36-2.32a29.46,29.46,0,0,1-8.72-7.37c-.31-.39-.61-.78-.89-1.17l-.4-.57,0,0a11.2,11.2,0,0,1,2-1.86c1.53-1.17,3.13-2.24,4.71-3.26.79-.51,1.58-1,2.37-1.48.39-.24.8-.49,1.17-.67s.81-.39,1.22-.57a34.23,34.23,0,0,1,5-1.75,78.94,78.94,0,0,1,9.66-1.77c3.06-.44,5.93-.87,8.52-1.38a49.33,49.33,0,0,0,11.95-3.65c.67-.3,1.25-.61,1.75-.88a12.19,12.19,0,0,0,1.24-.72Z"/><path class="cls-46" d="M559.09,619.17s-.73,0-2.06.06a26.76,26.76,0,0,0-5.57,1,26.35,26.35,0,0,0-3.69,1.36c-.32.14-.64.3-1,.46l-.61.32-.43.23s-.19.06-.17.13l.11.22c.2.43.41.87.63,1.31l.52,1a46.78,46.78,0,0,0,5.62,8.63c.59.71,1.19,1.39,1.82,2a11.54,11.54,0,0,0,2.05,1.77,18.39,18.39,0,0,0,4.57,2.16c3,1,5.79,1.52,8.1,2.11a16,16,0,0,0,5.64.49,14.59,14.59,0,0,0,1.51-.25l.52-.13-.53.08c-.35,0-.86.1-1.52.12a16.86,16.86,0,0,1-5.47-.89c-2.24-.73-5-1.43-7.91-2.48a18.47,18.47,0,0,1-4.25-2.15,11.06,11.06,0,0,1-1.86-1.65c-.6-.63-1.18-1.29-1.75-2a55.86,55.86,0,0,1-5.65-8.35l-.94-1.72c0-.09,0-.05.4-.29l.93-.5a29.83,29.83,0,0,1,3.51-1.52,29.11,29.11,0,0,1,5.41-1.36C558.36,619.22,559.09,619.17,559.09,619.17Z"/></g></g></svg>