<svg xmlns="http://www.w3.org/2000/svg" xmlns:xlink="http://www.w3.org/1999/xlink" viewBox="0 0 549.97 1031.36"><defs><style>.cls-1{fill:#fff;}.cls-2{fill:#d1824c;}.cls-3{fill:#9a623f;}.cls-4{fill:#ececec;}.cls-5{fill:#b1b1b1;}.cls-6{fill:#a3a3a3;}.cls-7{fill:#b57647;}.cls-10,.cls-21,.cls-30,.cls-8{fill:none;}.cls-8{stroke:#8c4c26;stroke-width:0.9px;}.cls-10,.cls-21,.cls-8{stroke-miterlimit:12.83;}.cls-9{fill:#ebebeb;}.cls-10,.cls-21{stroke:#b1b1b1;}.cls-10{stroke-width:1.8px;}.cls-11{fill:#2a333e;}.cls-12{fill:#8d4d27;}.cls-13{fill:#d6bb8f;}.cls-14{fill:#ead5b2;}.cls-15{fill:#0e1115;}.cls-16{fill:url(#linear-gradient);}.cls-17{fill:#dcdcdc;}.cls-18{fill:#221f20;}.cls-19{fill:#0f0d0d;}.cls-20{fill:#f6f6f6;}.cls-21{stroke-width:1.28px;}.cls-22{fill:url(#linear-gradient-2);}.cls-23{fill:url(#linear-gradient-3);}.cls-24{fill:#edc48e;}.cls-25{fill:#b76262;}.cls-26{fill:#3e3b3c;}.cls-27{mask:url(#mask);}.cls-28{fill:#854a2c;}.cls-29{mask:url(#mask-2);}.cls-30{stroke:#000;stroke-miterlimit:12.83;stroke-width:1.8px;}.cls-31{fill:#2a2e33;}.cls-32{fill:#140e12;}.cls-33{fill:#a4a4a4;}.cls-34{fill:#774b2c;}.cls-35{fill:#fcf4dd;}.cls-36{fill:#f1e8d1;}.cls-37{opacity:0.5;}.cls-38{fill:#9d947f;}.cls-39{fill:#c78e62;}.cls-40{fill:#795741;}.cls-41{fill:#663f26;}.cls-42{fill:#442917;}.cls-43{isolation:isolate;}.cls-44{fill:#30190c;}.cls-45{font-size:38px;fill:#005d52;font-family:Adventuring;}.cls-46{fill:#636365;}</style><linearGradient id="linear-gradient" x1="-986.17" y1="4961.73" x2="-992.17" y2="4911.03" gradientTransform="matrix(1.28, 0, 0, -1.28, 1543.83, 7174.5)" gradientUnits="userSpaceOnUse"><stop offset="0" stop-opacity="0"/><stop offset="1"/></linearGradient><linearGradient id="linear-gradient-2" x1="-1031.35" y1="4838.94" x2="-1104.08" y2="4847.51" gradientTransform="matrix(1.28, 0.07, 0.07, -1.28, 1228.26, 6513.51)" gradientUnits="userSpaceOnUse"><stop offset="0" stop-color="#493a25"/><stop offset="1" stop-color="#ad8157"/></linearGradient><linearGradient id="linear-gradient-3" x1="-979.3" y1="4838.98" x2="-904.6" y2="4844.88" xlink:href="#linear-gradient-2"/><mask id="mask" x="188.56" y="340.32" width="70.95" height="70.89" maskUnits="userSpaceOnUse"><g transform="translate(-0.26)"><g id="Mask_Mask_1" data-name="Mask Mask 1"><g id="Mask_Mask_Duplicate_Items_Folder_Symbol_32_0_Layer0_0_FILL" data-name="Mask Mask Duplicate Items Folder Symbol 32 0 Layer0 0 FILL"><path class="cls-1" d="M250.76,352.18a35.38,35.38,0,1,0,8.95,25.63A34.15,34.15,0,0,0,250.76,352.18Z"/></g></g></g></mask><mask id="mask-2" x="315.35" y="347.51" width="70.95" height="70.89" maskUnits="userSpaceOnUse"><g transform="translate(-0.26)"><g id="Mask_Mask_2" data-name="Mask Mask 2"><g id="Mask_Mask_Duplicate_Items_Folder_Symbol_33_0_Layer0_0_FILL" data-name="Mask Mask Duplicate Items Folder Symbol 33 0 Layer0 0 FILL"><path class="cls-1" d="M327.48,356.53a35.44,35.44,0,1,0,25.62-9A34.18,34.18,0,0,0,327.48,356.53Z"/></g></g></g></mask></defs><title>Asset 61</title><g id="Layer_2" data-name="Layer 2"><g id="Layer_2-2" data-name="Layer 2"><g id="Duplicate_Items_Folder_Symbol_1_copy_20_22_Layer0_0_STROKES_1_FILL" data-name="Duplicate Items Folder Symbol 1 copy 20 22 Layer0 0 STROKES 1 FILL"><path class="cls-2" d="M383.66,990.42l-.37.08-1.28,0c-1,0-2,0-3.08,0l-4.84-.37-8.93-1.83a3,3,0,0,1-.78-.22l-1.91-.55-.18-.08-.21,0-8.87-3.59-.13-.09-.12,0-4.66-2.39-.07,0,0,0-.12,0-1.5-1.08-.51-.15-2-1.42-.1-.09-.06,0-.67-.23-11-8.38q-3.26-2.82-6.68-6.26t-6.51-7.1l-5.44-6.81.1.09,0,0-.14-.23q-1.56-2-2.63-3.46l-8.64-13,0-.1,0,0,0-.1-.49-.88.3.36-.55-.92c-.57-.89-1.37-2.23-2.42-4q-2-3.42-4.37-7.85l-.54-1-.15-.23,0-.09V918l-.07-.09-.32-.71c-.07-.09-.1-.13-.08-.13l-.07-.1-2.06-4.2v0l-.32-.45-.09-.24-16-35.18,0-.15-.85-2,0-.09,0-.05-4.56-10.9q-4.89-11.65-7.34-17.19a28.79,28.79,0,0,1-1-2.89,26.92,26.92,0,0,1-.62-2.87c-.14-.87-.25-1.82-.34-2.86l0-1.46a13.66,13.66,0,0,1,0-1.42l.1-1.33.21-1.24a11.16,11.16,0,0,1,.61-2.21,14.25,14.25,0,0,1,1.87-3.6,9.35,9.35,0,0,1,6.18-3.33l.2,0,.23,0,.43,0,.87.11,1.66.53a11.81,11.81,0,0,1,1.67,1.11,14.54,14.54,0,0,1,1.69,1.65q4.69,5.11,7.31,7.9l11.13,11.74,0,0h0v.05l0,0,1.27,1.34.11.14.1.09.2.22.92.84.31.36,17.73,16.73h0l-.4-.55.07,0,2.76,2.57.13.09.46.44h0l0,0,.09,0,4.33,3.05a9.61,9.61,0,0,0,1.25.76l.22.13v0l.52.58,0,0,.51.39.14.13.06,0h0l7.21,4h0a1.29,1.29,0,0,0,.16.18h0l1.39.94.12,0,.07,0,.41.11.13.08H335l0,0,4.46,2h.12l1.36.51c.6.23,1.64.56,3.09,1l3.08.68h.11l-.75-.27h.06l.09,0,1.78.41-.31-.12h.12l3.13.44.2,0,.17,0,6.35-.27.13-.06,2.55-.49.25,0,3.12-.94.14-.06h.14l1.68-.7.11-.06h.09l.05,0-.8,3.4-.06.2v0l0,0-.2,1.48v.05h0v0l-.86,1.55-.06.15.28-.07v0l0,.05-2.23,6.42L360,900l7.82,6a.3.3,0,0,0-.17.06h0l1.19.52.15,0,.07.09.18.08,1.07.68,6.42,2.85-6,5.22h0l0,0h0l-1.1.64v.05h.06l-.74.46a13.26,13.26,0,0,1-1.3.81l-4.29,2.27-.38.13,3.47,2.31,0,0,.43.25.36.26.3.17,3.7,2.24.09,0h0v0h.06l1.13.53.12,0h0l.22.13.74.37.19.13,6.5,2.6c1.64.53,3.08.94,4.33,1.25s2.7.54,4.42.79l7.75.58L393.19,937c-1.34,1.89-2.66,3.62-4,5.18q-2.55,3-4.92,5.41l-5,4.49-.11.06,0,0-.05.05-1.23.9,0,0h-.06l-.08,0-.12.16-.78.62,0,.05h-.17l-7.84,4.81,5.91,4.81,4.28,3,.2-.07v.05h0l.06,0,1.14,1,.22.13v0h0l.1,0,.12.09,1.59.87h.05l.19.13,7.21,3.75,3.18.78-4,2.77-1.36.82-.19.06-4.41,2.19-.31.07h-.05l-1,.39h-.15l-.27.08h0l-.88.28-6.22,1.14-.88.13-.82.08-.23,0-.37,0-.34,0,10,5.74,1.15.62.06,0h0l.3-.08,1.4,1h0l0,0,.09,0,.17,0,.34.11a9.86,9.86,0,0,0,1.32.46l.22.13h.06l.79.32-2.85.37a8.22,8.22,0,0,1-1,0Z" transform="translate(-0.26)"/><path d="M420,939.94c-.22.64-.63,1.71-1.23,3.2l-3.64,8.07-.07.11-1.24,2.32-.07.1,0,0v.05l-1,2-.2.21-1.85,3.26c-.59,1.07-1.19,2.09-1.83,3.06l-2.34,3.65-.07.15-.08.06,0,.1-.25.32-.11.2L406,967l0,.1-.28.47v.05h0l0,0-1.54,2.2q-1.08,1.53-2.31,3.06l-1.1,1.38,1.89,0c1.67-.09,3.18-.22,4.54-.38l2.71-.36c.68-.1,1.62-.27,2.83-.52q2.1-.44,5-1.31-1.35,1.5-2.94,3.07l-3.91,3.55-.14.06-.48.44-.11.06-.34.28,0,0h-.05l0,.05-12.31,7.88L387.63,990l-.79-.32-.28-.12-1.93-.69h0v0l-.09,0-1.3-.9,0,0-.34.08-1.2-.61-10-5.74.34,0h.6l.82-.08,3.79-.27,4.12-1.12.08-.06h0l.28-.08h.08l1-.44.05,0H383l.19-.06,4.41-2.19.19-.06,1.36-.82,4-2.77-3.18-.78L382.69,969l-.19-.13h-.05l-1.59-.87-.12-.09-.1,0h0v0l-.22-.13-1.14-1-.06,0h0v-.05l-.2.07-4.28-3-5.91-4.81,7.84-4.81h.17l0-.05.78-.62.12-.16.08,0h.06l0,0,1.23-.9.05-.05,0,0,.11-.06,5-4.49q2.37-2.39,4.92-5.41c1.32-1.56,2.64-3.29,4-5.18l3.61-5.33-7.75-.58c-1.72-.25-3.19-.52-4.42-.79s-2.69-.72-4.33-1.25l-6.5-2.6-.19-.13-.74-.37-.19-.13h-.06l-.12,0-.25-.17-.92-.4,0-.05h.05l-3.28-1.94-.22-.17-.31-.12-.3-.17-.36-.26-.28-.21-.15,0,0,0-3.47-2.31.38-.13,4.29-2.27a13.26,13.26,0,0,0,1.3-.81l.74-.46h-.06v-.05l1.1-.64h0l0,0h0l6-5.22-6.42-2.85-1.07-.68-.18-.08-.07-.09-.15,0-1.19-.52h0a.3.3,0,0,1,.17-.06L360,900l2.33-5.21,2.23-6.42,0-.05v0l-.28.07.06-.15.86-1.55v0h0v-.05l.2-1.48,0,0v0l.06-.2.8-3.4,4.71-.8c1-.26,1.92-.54,2.76-.85l1.44-.58h0l0,0v0l.13-.11.27-.13h.06l0,0h.08l.81-.37c.64-.29,1.46-.73,2.47-1.32l1-.53.21-.17h0l-.2.21,1.39-1h0l0,0h.05l0,0v.15l-.05.05-.89,2.09.25-.26v0l-.07.16a14,14,0,0,1-.44,1.36c-.19.6-.53,1.63-1,3.08l-1,2.83a28.26,28.26,0,0,1,3.87-2l.62-.31h0l-.12.16,1.33-.77h.06l0-.05.17,0,.63-.21h.14l0,0h.09l1-.39q2.81-1.05,9-3.07l8.88-1.88.08,0h.08l.05-.05,1.37-.48.2,0,.19-.06,8.94-2.33.13-.06.75-.22.17.23.32,0,.74-.27c1.62-.19,3.82-.53,6.58-1l3.43-.33a2.53,2.53,0,0,1,.61,0L429,872a100.37,100.37,0,0,1,1,12.91l-.14,7.64q-.21,4.38-.61,8.37l-.85,6.44v.15l0,0v.09l-.71,4.28V912l0,.06v0l-1.16,6-2.91,11.33Q421.84,935.38,420,939.94Z" transform="translate(-0.26)"/></g><g id="Duplicate_Items_Folder_Symbol_12_copy_21_0_Layer0_0_FILL" data-name="Duplicate Items Folder Symbol 12 copy 21 0 Layer0 0 FILL"><path class="cls-2" d="M342,585.3a37.59,37.59,0,0,0-2.17,14.39,44.09,44.09,0,0,0,2.62,13.12,44.56,44.56,0,0,0,6.31,11.75q8.46,11.45,33.9,26,16.19,9.29,19.71,11.48a98.36,98.36,0,0,1,16.78,12.59l5-.38a23.67,23.67,0,0,0,10.64-5,18.92,18.92,0,0,0,7.28-14.8q.17-9.75-8.25-17.33-6.74-6-25.57-18.72-24.17-16.15-30.1-20.56t-15.45-12.61q-3.19-3.06-5.14-4.74-3.48-3-5.89-3.48Q345.37,575.71,342,585.3Z" transform="translate(-0.26)"/></g><g id="Duplicate_Items_Folder_Symbol_12_copy_21_0_Layer0_1_MEMBER_0_MEMBER_0_FILL" data-name="Duplicate Items Folder Symbol 12 copy 21 0 Layer0 1 MEMBER 0 MEMBER 0 FILL"><path class="cls-3" d="M365,638.9c-1.51-.9-2.3-1.3-2.38-1.19a9.17,9.17,0,0,0,2.07,1.74c1.23,1,3.22,2.33,6,4.13q3.8,2.48,20.56,12.21l11.19,6.91q3.54,2.34,4.74,3.21l9.64,7.4c1.32,1.16,2,1.69,2.14,1.62s-.47-.78-1.7-2.1l-2.18-2.22-11.79-9.25-11.18-7-20.8-11.78Z" transform="translate(-0.26)"/></g><g id="Duplicate_Items_Folder_Symbol_12_copy_21_0_Layer0_2_MEMBER_0_FILL" data-name="Duplicate Items Folder Symbol 12 copy 21 0 Layer0 2 MEMBER 0 FILL"><path class="cls-4" d="M347.91,575q-15.14,8.87-10.78,31.51a72.29,72.29,0,0,0,7.38,20.92q10.28,8.05,49,33.84a112,112,0,0,0,21-34,94.24,94.24,0,0,0,3.64-11.42l.94-4.35Q394,597,368.45,584.55Z" transform="translate(-0.26)"/></g><g id="Duplicate_Items_Folder_Symbol_12_copy_21_0_Layer0_2_MEMBER_1_MEMBER_0_MEMBER_0_MEMBER_0_FILL" data-name="Duplicate Items Folder Symbol 12 copy 21 0 Layer0 2 MEMBER 1 MEMBER 0 MEMBER 0 MEMBER 0 FILL"><path class="cls-5" d="M344.51,627.39l6.81,5.5q8.55,6.45,17.11,12.27,13.57,9.3,25.06,16.07-10.71-8-24.24-17.23Z" transform="translate(-0.26)"/></g><g id="Duplicate_Items_Folder_Symbol_12_copy_21_0_Layer0_2_MEMBER_2_MEMBER_0_MEMBER_0_MEMBER_0_FILL" data-name="Duplicate Items Folder Symbol 12 copy 21 0 Layer0 2 MEMBER 2 MEMBER 0 MEMBER 0 MEMBER 0 FILL"><path class="cls-5" d="M405.93,608.77l1.08-4.06,6,3.26-6.14-3.6-1.4,4.28q-.82,2.67-2.14,6.18a141.67,141.67,0,0,1-7.14,16,131.58,131.58,0,0,1-8,13.59l-6.5,9.14,7.35,4.71-6.82-4.86,6.6-8.57a129.23,129.23,0,0,0,8.28-13.55,126.46,126.46,0,0,0,6.9-16.19Q405,612,405.93,608.77Z" transform="translate(-0.26)"/></g><g id="Duplicate_Items_Folder_Symbol_12_copy_21_0_Layer0_2_MEMBER_3_MEMBER_0_MEMBER_0_MEMBER_0_FILL" data-name="Duplicate Items Folder Symbol 12 copy 21 0 Layer0 2 MEMBER 3 MEMBER 0 MEMBER 0 MEMBER 0 FILL"><path class="cls-5" d="M341.5,578.7a35.77,35.77,0,0,0-3.15,4,28.57,28.57,0,0,0-2.87,7,31.49,31.49,0,0,0-1,9.34,48.55,48.55,0,0,0,3.62,16.44q1,2.45,2.13,4.64l.89,1.65-.75-1.68q-.87-2.05-1.83-4.78a71.16,71.16,0,0,1-2-7.23,52.79,52.79,0,0,1-1.12-9.12,30.72,30.72,0,0,1,3.34-16,24.39,24.39,0,0,1,2.85-4.15l1.14-1.47Z" transform="translate(-0.26)"/></g><g id="Duplicate_Items_Folder_Symbol_12_copy_21_2_Layer0_0_MEMBER_0_MEMBER_0_FILL" data-name="Duplicate Items Folder Symbol 12 copy 21 2 Layer0 0 MEMBER 0 MEMBER 0 FILL"><path class="cls-6" d="M138.58,608.49q4.93,2.37,12.79,13.83,11,16.06,11.7,34Q144.59,633.55,138.58,608.49Z" transform="translate(-0.26)"/></g><g id="Duplicate_Items_Folder_Symbol_12_copy_21_2_Layer0_0_MEMBER_0_MEMBER_1_FILL" data-name="Duplicate Items Folder Symbol 12 copy 21 2 Layer0 0 MEMBER 0 MEMBER 1 FILL"><path class="cls-2" d="M203.53,595.1q6.9,13.51-.44,24-4,5.67-25.44,18.58Q150,654.4,141.23,661l-2.59,1.17a25.07,25.07,0,0,1-6.29,1.56q-10.26,1-16.82-7.77-5.19-7-3.49-14.36,1.65-7.2,9.56-13.59,7.35-6,31.05-20.21,26.86-15.74,36-21.23,3.74-2.16,8,.46A20.26,20.26,0,0,1,203.53,595.1Z" transform="translate(-0.26)"/></g><g id="Duplicate_Items_Folder_Symbol_12_copy_21_2_Layer0_0_MEMBER_0_MEMBER_2_FILL" data-name="Duplicate Items Folder Symbol 12 copy 21 2 Layer0 0 MEMBER 0 MEMBER 2 FILL"><path class="cls-4" d="M207.09,573.47q14.47,8.58,10.29,30.32a70.23,70.23,0,0,1-7.12,20.15q-9.87,7.68-47.13,32.48-.69-18-11.76-34.1-7.86-11.46-12.79-13.83,24.07-13.87,48.69-25.8Q199.57,576.72,207.09,573.47Z" transform="translate(-0.26)"/></g><g id="Duplicate_Items_Folder_Symbol_12_copy_21_2_Layer0_0_MEMBER_0_MEMBER_3_FILL" data-name="Duplicate Items Folder Symbol 12 copy 21 2 Layer0 0 MEMBER 0 MEMBER 3 FILL"><path class="cls-5" d="M203.68,629.14q-6.59,5.08-16.39,11.83-13.15,8.91-24.16,15.45,10.26-7.68,23.29-16.59l23.84-15.89Z" transform="translate(-0.26)"/></g><g id="Duplicate_Items_Folder_Symbol_12_copy_21_2_Layer0_0_MEMBER_0_MEMBER_4_FILL" data-name="Duplicate Items Folder Symbol 12 copy 21 2 Layer0 0 MEMBER 0 MEMBER 4 FILL"><path class="cls-5" d="M174.3,646l.09,2.77-.06.31-.51.37-6.45,4.08,6.64-4.64v-.38l-.16-2.45a62.74,62.74,0,0,0-7.78-25.45,69.32,69.32,0,0,0-8.92-11.78q-1.54-1.71-4.53-4.51c-1-.84-1.73-1.5-2.18-2-.17-.09-.27-.11-.32-.07l-11.55,6.22,11.56-6.85.13-.12.12.12.38.26,2.24,1.91q2.3,2,4.79,4.51a62.87,62.87,0,0,1,9,11.77A54.4,54.4,0,0,1,172.48,634,80.38,80.38,0,0,1,174.3,646Z" transform="translate(-0.26)"/></g><g id="Duplicate_Items_Folder_Symbol_12_copy_21_2_Layer0_0_MEMBER_0_MEMBER_5_FILL" data-name="Duplicate Items Folder Symbol 12 copy 21 2 Layer0 0 MEMBER 0 MEMBER 5 FILL"><path class="cls-5" d="M216.24,581a23,23,0,0,1,2.75,6.75,31.66,31.66,0,0,1,.91,8.93,40.52,40.52,0,0,1-1.22,8.9,34.78,34.78,0,0,1-2.27,7,40.18,40.18,0,0,1-2,4.44l-.9,1.62,2.51-6.19a64.61,64.61,0,0,0,1.9-7,52.57,52.57,0,0,0,1.1-8.78,28.66,28.66,0,0,0-3.23-15.48,21.22,21.22,0,0,0-2.66-4L212,575.79l1.3,1.33A23,23,0,0,1,216.24,581Z" transform="translate(-0.26)"/></g><g id="Duplicate_Items_Folder_Symbol_18_copy_7_0_Layer0_0_MEMBER_0_MEMBER_0_FILL" data-name="Duplicate Items Folder Symbol 18 copy 7 0 Layer0 0 MEMBER 0 MEMBER 0 FILL"><path class="cls-7" d="M196.46,921.21q-2.37,5.07.45,13.15a153.55,153.55,0,0,0,9.55,21.17q3.72,6.86,11.42,20.26,1.8,3.15,5.52,10.78,3.53,6.79,6.8,9.88a13.36,13.36,0,0,0,9,3.65,20.48,20.48,0,0,0,9.94-2.5,8.6,8.6,0,0,0,3.53-3.59,2.72,2.72,0,0,0,.26-2c-.35-.81-.6-1.47-.77-2q-1.09-3.27-2.19-7.63a150.54,150.54,0,0,1-3.91-24.63,188.16,188.16,0,0,1,.64-37.91,26.58,26.58,0,0,0-8.21-7.5q-10.9-6.68-24.24-2.69Q199.92,914,196.46,921.21Z" transform="translate(-0.26)"/></g><path id="Duplicate_Items_Folder_Symbol_18_copy_7_0_Layer0_0_MEMBER_0_MEMBER_1_1_STROKES" data-name="Duplicate Items Folder Symbol 18 copy 7 0 Layer0 0 MEMBER 0 MEMBER 1 1 STROKES" class="cls-8" d="M246.49,921.79a201.08,201.08,0,0,0-1.16,25.85,180.81,180.81,0,0,0,1.93,21.48,152.84,152.84,0,0,0,3.52,16.36,49.66,49.66,0,0,1,1.54,6.16,5.81,5.81,0,0,1-2.5,5.32,15.65,15.65,0,0,1-5.58,2.63,15.46,15.46,0,0,1-6.22.26q-5.7-.9-10-6.48-1.27-1.67-6.28-10.65-8.65-15.65-9.81-17.77-5.26-9.48-7.76-14.36a123.59,123.59,0,0,1-6.74-14.88,35.4,35.4,0,0,1-2-7.06,10.71,10.71,0,0,1,1-7.12" transform="translate(-0.26)"/><g id="Duplicate_Items_Folder_Symbol_19_0_Layer0_0_MEMBER_0_MEMBER_0_MEMBER_0_MEMBER_0_FILL" data-name="Duplicate Items Folder Symbol 19 0 Layer0 0 MEMBER 0 MEMBER 0 MEMBER 0 MEMBER 0 FILL"><path class="cls-7" d="M197.55,998.82a18.61,18.61,0,0,0-5.71-.64q-16.35,2-20.33,15.91a28.7,28.7,0,0,0-.71,13.53q7.51,3.33,30.85,1.67,11.68-.84,21.81-2.38,10-6.48,20.46-20.33l8.4-12.51a9.48,9.48,0,0,0-1.15-6.41,10.51,10.51,0,0,0-4.55-4.75q-5.33-2.43-11.61.52a31.86,31.86,0,0,0-9,7.18l-3.47,6.16q-4,6.54-7.12,8.4l-8.53-1.09A17.22,17.22,0,0,0,197.55,998.82Z" transform="translate(-0.26)"/></g><path id="Duplicate_Items_Folder_Symbol_19_0_Layer0_0_MEMBER_0_MEMBER_1_1_STROKES" data-name="Duplicate Items Folder Symbol 19 0 Layer0 0 MEMBER 0 MEMBER 1 1 STROKES" class="cls-8" d="M251.68,987.08a11.4,11.4,0,0,1,.71,7l-8.47,12.51q-10.46,13.86-20.46,20.4-10.12,1.47-21.81,2.31-23.34,1.67-30.85-1.67a28.7,28.7,0,0,1,.71-13.53q4-13.92,20.33-15.91a18.61,18.61,0,0,1,5.71.64,17.22,17.22,0,0,1,9.36,5.26c5.6.77,8.45,1.13,8.53,1.09q3.09-1.86,7.19-8.59l3.52-6.35" transform="translate(-0.26)"/><g id="Duplicate_Items_Folder_Symbol_19_0_Layer0_0_MEMBER_1_MEMBER_0_FILL" data-name="Duplicate Items Folder Symbol 19 0 Layer0 0 MEMBER 1 MEMBER 0 FILL"><path class="cls-9" d="M195.5,998.05q-8.73-1.86-15.2,3.08-9.24,7-11.1,16.29a27.13,27.13,0,0,0-.39,6.41,6.57,6.57,0,0,1,.07,1.29,2,2,0,0,0,.25,1.28,15.64,15.64,0,0,0,11.1,4.17q7.44-.19,16.1-.9,6.15-.39,12.31-1.15l4.82-.64c.21,0,.83-.05,1.86-.13s1.49-.32,1.66-.58q.71-1.1-.57-6.61a36.34,36.34,0,0,0-7.51-14.49A22.33,22.33,0,0,0,195.5,998.05Z" transform="translate(-0.26)"/></g><path id="Duplicate_Items_Folder_Symbol_19_0_Layer0_0_MEMBER_1_MEMBER_1_1_STROKES" data-name="Duplicate Items Folder Symbol 19 0 Layer0 0 MEMBER 1 MEMBER 1 1 STROKES" class="cls-10" d="M203.77,1001.51a22.46,22.46,0,0,0-11.87-3.65,19.88,19.88,0,0,0-12.05,3.46,24.07,24.07,0,0,0-10.27,15.91,27.55,27.55,0,0,0-.45,9.17q5.91,5,24.25,3.85,6.15-.39,23.67-3" transform="translate(-0.26)"/><g id="Duplicate_Items_Folder_Symbol_19_0_Layer0_0_MEMBER_1_MEMBER_2_MEMBER_0_MEMBER_0_MEMBER_0_FILL" data-name="Duplicate Items Folder Symbol 19 0 Layer0 0 MEMBER 1 MEMBER 2 MEMBER 0 MEMBER 0 MEMBER 0 FILL"><path class="cls-5" d="M181.39,1000.42l-1.86,1.29,2-1a20.21,20.21,0,0,1,2.44-1,6.15,6.15,0,0,1,1.54-.51l1.73-.39a22,22,0,0,1,8.73.32,22.32,22.32,0,0,1,9.42,4.88,30.31,30.31,0,0,1,6.93,8.21,45.72,45.72,0,0,1,3.4,8.21,23.76,23.76,0,0,1,1.15,6,16.62,16.62,0,0,1,0,2.25,15.88,15.88,0,0,0,.33-2.25,25.87,25.87,0,0,0-.52-6.16,39.53,39.53,0,0,0-2.95-8.78,28.4,28.4,0,0,0-7.12-8.92,23,23,0,0,0-10.26-5,20.27,20.27,0,0,0-9.3.38l-1.8.52c-.68.34-1.19.57-1.54.7A13.62,13.62,0,0,0,181.39,1000.42Z" transform="translate(-0.26)"/></g><g id="Duplicate_Items_Folder_Symbol_19_0_Layer0_0_MEMBER_1_MEMBER_3_MEMBER_0_MEMBER_0_MEMBER_0_FILL" data-name="Duplicate Items Folder Symbol 19 0 Layer0 0 MEMBER 1 MEMBER 3 MEMBER 0 MEMBER 0 MEMBER 0 FILL"><path class="cls-5" d="M199.92,1011.9a18.08,18.08,0,0,0-4.87,5.26,19.89,19.89,0,0,0-2.76,7.64,14,14,0,0,0,.38,5.71l.71-.13a20.6,20.6,0,0,1,.38-5.33,23.32,23.32,0,0,1,2.89-6.86,21.22,21.22,0,0,1,4.3-5,12.14,12.14,0,0,1,4.62-2.63,13,13,0,0,1,3.59-.52,12.35,12.35,0,0,1,1.41.07l-1.35-.39-.77-.12-1.92-.13-1.22.19A11.52,11.52,0,0,0,199.92,1011.9Z" transform="translate(-0.26)"/></g><g id="Duplicate_Items_Folder_Symbol_19_0_Layer0_0_MEMBER_1_MEMBER_4_MEMBER_0_MEMBER_0_MEMBER_0_FILL" data-name="Duplicate Items Folder Symbol 19 0 Layer0 0 MEMBER 1 MEMBER 4 MEMBER 0 MEMBER 0 MEMBER 0 FILL"><path class="cls-5" d="M191.26,1001.32l.39-.19-.39.06-1.22.32a13.35,13.35,0,0,0-4.23,2.12,16.56,16.56,0,0,0-4.62,5.26,26.77,26.77,0,0,0-3,8,31.62,31.62,0,0,0-.26,13.54l1.09-.2a46.38,46.38,0,0,1,1-12.89,34,34,0,0,1,2.56-7.63,18,18,0,0,1,3.85-5.32,14.92,14.92,0,0,1,3.66-2.57Z" transform="translate(-0.26)"/></g><g id="Duplicate_Items_Folder_Symbol_17_copy_8_0_Layer0_0_MEMBER_0_FILL" data-name="Duplicate Items Folder Symbol 17 copy 8 0 Layer0 0 MEMBER 0 FILL"><path class="cls-2" d="M224,802.68a40.62,40.62,0,0,0-13.53,12.77q-8.53,9.48-11.93,35.91-2.5,19.18-4,68.38l.84,4.74a22.49,22.49,0,0,0,5.06,9.3,11.07,11.07,0,0,1,1.42,1.93,13.47,13.47,0,0,0,1,1.47q6.93,8,18.28,8.73,14.82,1,23.86-15.53a9.9,9.9,0,0,0,.9-3.4l.19-2.18q6-31.42,24.44-54.45A67.36,67.36,0,0,0,280.29,845q5-28-18.92-41.56Q241.48,792.17,224,802.68Z" transform="translate(-0.26)"/></g><path id="Duplicate_Items_Folder_Symbol_17_copy_8_0_Layer0_0_MEMBER_1_1_STROKES" data-name="Duplicate Items Folder Symbol 17 copy 8 0 Layer0 0 MEMBER 1 1 STROKES" class="cls-8" d="M246.17,925.51a113.37,113.37,0,0,1,9.23-31.11,104.45,104.45,0,0,1,14.82-24,66.81,66.81,0,0,0,10.2-25.79Q285.55,816,260,802.49q-21.1-11.16-39.32,2.63a49.8,49.8,0,0,0-13.92,16,72.11,72.11,0,0,0-6.73,19.5,196.79,196.79,0,0,0-2.7,20.53q-1.8,19.62-2.31,39.31-.37,13.35,0,17.64.84,10,5.13,16.61" transform="translate(-0.26)"/><g id="Duplicate_Items_Folder_Symbol_17_copy_8_0_Layer0_1_MEMBER_0_FILL" data-name="Duplicate Items Folder Symbol 17 copy 8 0 Layer0 1 MEMBER 0 FILL"><path class="cls-11" d="M279.84,811.79a43,43,0,0,0-22.64-18.92q-15.52-5.91-29.57.9-16.09,7.76-24.44,30.27-6.93,18.74-10.77,46.44a277,277,0,0,0-2.12,62.15l4.3,3.14a52.53,52.53,0,0,0,12.89,5.58q22.83,6.74,51.31-3.59,1.49-21,9.43-49.07,1.92-6.8,15.14-47.72Q288.17,826,279.84,811.79Z" transform="translate(-0.26)"/></g><g id="Duplicate_Items_Folder_Symbol_21_copy_5_0_Layer0_0_MEMBER_0_MEMBER_0_FILL" data-name="Duplicate Items Folder Symbol 21 copy 5 0 Layer0 0 MEMBER 0 MEMBER 0 FILL"><path class="cls-7" d="M304.28,992a2.71,2.71,0,0,0,.25,2,8.5,8.5,0,0,0,3.6,3.59,20.25,20.25,0,0,0,9.94,2.5,13.53,13.53,0,0,0,9-3.65q3.21-3.09,6.8-9.88,3.72-7.64,5.45-10.78,7.69-13.39,11.42-20.26a152.36,152.36,0,0,0,9.55-21.17q2.84-8.08.45-13.15Q357.32,914,343,909.67q-13.27-4-24.18,2.69a27.57,27.57,0,0,0-8.27,7.5,190.45,190.45,0,0,1,.7,37.91,154.72,154.72,0,0,1-4,24.63q-1.1,4.36-2.18,7.63C304.88,990.55,304.62,991.21,304.28,992Z" transform="translate(-0.26)"/></g><path id="Duplicate_Items_Folder_Symbol_21_copy_5_0_Layer0_0_MEMBER_0_MEMBER_1_1_STROKES" data-name="Duplicate Items Folder Symbol 21 copy 5 0 Layer0 0 MEMBER 0 MEMBER 1 1 STROKES" class="cls-8" d="M310.75,921.79a186.06,186.06,0,0,1,1.16,25.85A163.73,163.73,0,0,1,310,969.12a155.15,155.15,0,0,1-3.53,16.36,49.66,49.66,0,0,0-1.54,6.16,5.81,5.81,0,0,0,2.5,5.32,15.63,15.63,0,0,0,5.64,2.63,15.14,15.14,0,0,0,6.16.26q5.71-.9,10-6.48,1.27-1.67,6.28-10.65,8.67-15.65,9.82-17.77,6.6-12,7.82-14.36a138.61,138.61,0,0,0,6.67-14.88,39.32,39.32,0,0,0,2.05-7.06,10.89,10.89,0,0,0-1.09-7.12" transform="translate(-0.26)"/><g id="Duplicate_Items_Folder_Symbol_22_copy_0_Layer0_0_MEMBER_0_MEMBER_0_MEMBER_0_MEMBER_0_FILL" data-name="Duplicate Items Folder Symbol 22 copy 0 Layer0 0 MEMBER 0 MEMBER 0 MEMBER 0 MEMBER 0 FILL"><path class="cls-7" d="M322.24,983.43q-6.28-3-11.61-.52a10.47,10.47,0,0,0-4.56,4.75,9.54,9.54,0,0,0-1.15,6.41l8.4,12.51q10.46,13.86,20.46,20.33l21.81,2.38q23.34,1.67,30.85-1.67a28.7,28.7,0,0,0-.71-13.53q-4-13.92-20.33-15.91a18.64,18.64,0,0,0-5.71.64,17.22,17.22,0,0,0-9.36,5.26l-8.53,1.09q-3-1.86-7.12-8.4l-3.46-6.16A30.24,30.24,0,0,0,322.24,983.43Z" transform="translate(-0.26)"/></g><path id="Duplicate_Items_Folder_Symbol_22_copy_0_Layer0_0_MEMBER_0_MEMBER_1_1_STROKES" data-name="Duplicate Items Folder Symbol 22 copy 0 Layer0 0 MEMBER 0 MEMBER 1 1 STROKES" class="cls-8" d="M305.56,987.08a11.47,11.47,0,0,0-.71,7l8.47,12.51q10.46,13.86,20.46,20.4l21.81,2.31q23.34,1.67,30.85-1.67a28.7,28.7,0,0,0-.71-13.53q-4-13.92-20.33-15.91a18.64,18.64,0,0,0-5.71.64,17.22,17.22,0,0,0-9.36,5.26l-8.53,1.09q-3-1.86-7.19-8.59l-3.52-6.35" transform="translate(-0.26)"/><g id="Duplicate_Items_Folder_Symbol_22_copy_0_Layer0_0_MEMBER_1_MEMBER_0_FILL" data-name="Duplicate Items Folder Symbol 22 copy 0 Layer0 0 MEMBER 1 MEMBER 0 FILL"><path class="cls-9" d="M348.34,1006.07a35.66,35.66,0,0,0-7.44,14.49c-.85,3.55-1.07,5.75-.64,6.61.17.26,1.37.49,3.59.71l4.75.64q6.15.76,12.31,1.15,8.59.7,16.1.9a15.64,15.64,0,0,0,11.1-4.17,5.37,5.37,0,0,0,.32-2.57,26.61,26.61,0,0,0-.39-6.41q-1.79-9.3-11.09-16.29-6.48-4.93-15.2-3.08A22.56,22.56,0,0,0,348.34,1006.07Z" transform="translate(-0.26)"/></g><path id="Duplicate_Items_Folder_Symbol_22_copy_0_Layer0_0_MEMBER_1_MEMBER_1_1_STROKES" data-name="Duplicate Items Folder Symbol 22 copy 0 Layer0 0 MEMBER 1 MEMBER 1 1 STROKES" class="cls-10" d="M353.47,1001.51a22.46,22.46,0,0,1,11.87-3.65,19.93,19.93,0,0,1,12.06,3.46,24.1,24.1,0,0,1,10.26,15.91,25.35,25.35,0,0,1,.45,9.17q-5.91,5-24.25,3.85-6.15-.39-23.66-3" transform="translate(-0.26)"/><g id="Duplicate_Items_Folder_Symbol_22_copy_0_Layer0_0_MEMBER_1_MEMBER_2_MEMBER_0_MEMBER_0_MEMBER_0_FILL" data-name="Duplicate Items Folder Symbol 22 copy 0 Layer0 0 MEMBER 1 MEMBER 2 MEMBER 0 MEMBER 0 MEMBER 0 FILL"><path class="cls-5" d="M345,1012.23a29.12,29.12,0,0,1,6.86-8.21,22.35,22.35,0,0,1,9.43-4.88,22,22,0,0,1,8.72-.32l1.73.39a6,6,0,0,1,1.54.51,20.21,20.21,0,0,1,2.44,1l2,1-1.86-1.29a14.35,14.35,0,0,0-2.31-1.28,10.09,10.09,0,0,0-1.54-.7l-1.8-.52a20.27,20.27,0,0,0-9.3-.38,23,23,0,0,0-10.26,5,28.54,28.54,0,0,0-7.12,8.92,39.53,39.53,0,0,0-2.95,8.78,25.34,25.34,0,0,0-.51,6.16,14.76,14.76,0,0,0,.32,2.25,16.62,16.62,0,0,1,0-2.25,23.76,23.76,0,0,1,1.15-6A40.62,40.62,0,0,1,345,1012.23Z" transform="translate(-0.26)"/></g><g id="Duplicate_Items_Folder_Symbol_22_copy_0_Layer0_0_MEMBER_1_MEMBER_3_MEMBER_0_MEMBER_0_MEMBER_0_FILL" data-name="Duplicate Items Folder Symbol 22 copy 0 Layer0 0 MEMBER 1 MEMBER 3 MEMBER 0 MEMBER 0 MEMBER 0 FILL"><path class="cls-5" d="M348,1009.72l-1.35.39a6,6,0,0,0,1.41-.07,13.17,13.17,0,0,1,3.6.52,12.65,12.65,0,0,1,4.68,2.63,22.2,22.2,0,0,1,4.23,5,23.32,23.32,0,0,1,2.89,6.86,20.6,20.6,0,0,1,.38,5.33l.71.13a14,14,0,0,0,.38-5.71,18.66,18.66,0,0,0-2.76-7.64,18.08,18.08,0,0,0-4.87-5.26,11.52,11.52,0,0,0-5.39-2.24l-1.22-.19Z" transform="translate(-0.26)"/></g><g id="Duplicate_Items_Folder_Symbol_22_copy_0_Layer0_0_MEMBER_1_MEMBER_4_MEMBER_0_MEMBER_0_MEMBER_0_FILL" data-name="Duplicate Items Folder Symbol 22 copy 0 Layer0 0 MEMBER 1 MEMBER 4 MEMBER 0 MEMBER 0 MEMBER 0 FILL"><path class="cls-5" d="M366,1001.19l-.45-.06.39.13,1.15.51a14.92,14.92,0,0,1,3.66,2.57,18,18,0,0,1,3.85,5.32,34,34,0,0,1,2.56,7.63,46,46,0,0,1,1,12.89l1.09.2a31.62,31.62,0,0,0-.26-13.54,26.77,26.77,0,0,0-3-8,16.32,16.32,0,0,0-4.62-5.26,14.16,14.16,0,0,0-4.17-2.12Z" transform="translate(-0.26)"/></g><g id="Duplicate_Items_Folder_Symbol_20_0_Layer0_0_MEMBER_0_FILL" data-name="Duplicate Items Folder Symbol 20 0 Layer0 0 MEMBER 0 FILL"><path class="cls-2" d="M276.76,833.15a62.21,62.21,0,0,0,7.25,25q1.47,5.13,13.6,30.21,10.9,22.7,13.53,36.49l.19,2.18a10.38,10.38,0,0,0,.9,3.4q9,16.49,23.92,15.53a27.65,27.65,0,0,0,11-3.21,25.61,25.61,0,0,0,7.25-5.52,13.24,13.24,0,0,0,1-1.47,10.55,10.55,0,0,1,1.41-1.93,22.49,22.49,0,0,0,5.06-9.3l.84-4.74a438.65,438.65,0,0,0-6.1-57.67,354.68,354.68,0,0,0-9-37.45,40.71,40.71,0,0,0-9.75-15.85q-14.24-14.61-36.3-8.91Q274.84,806.79,276.76,833.15Z" transform="translate(-0.26)"/></g><path id="Duplicate_Items_Folder_Symbol_20_0_Layer0_0_MEMBER_1_1_STROKES" data-name="Duplicate Items Folder Symbol 20 0 Layer0 0 MEMBER 1 1 STROKES" class="cls-8" d="M311.08,925.51q-1.93-13-12.7-36-12.7-26.94-14.05-31.3a62.3,62.3,0,0,1-7.57-25.6q-1.92-26.86,26.36-33.35Q326.4,794,340.39,812a49,49,0,0,1,9.3,19.12q3.58,11.53,7.95,35.46,4.37,24.18,4.62,33.93.39,13.35,0,17.64-.84,10-5.13,16.61" transform="translate(-0.26)"/><g id="Duplicate_Items_Folder_Symbol_20_0_Layer0_1_MEMBER_0_FILL" data-name="Duplicate Items Folder Symbol 20 0 Layer0 1 MEMBER 0 FILL"><path class="cls-11" d="M284.07,803q-10.71,10.79-9.87,26.49.89,17.58,11.67,54.78,11.42,39.43,12.76,51.37,28.49,10.33,51.25,4.68,11.36-2.82,17.06-7.69,2.25-25.85-4.62-56.32-8.2-30.21-9.94-41.56-3.47-22.26-16.67-33.67A36.32,36.32,0,0,0,308.77,792,36.8,36.8,0,0,0,284.07,803Z" transform="translate(-0.26)"/></g><g id="Duplicate_Items_Folder_Symbol_16_copy_0_Layer12_0_FILL" data-name="Duplicate Items Folder Symbol 16 copy 0 Layer12 0 FILL"><path class="cls-2" d="M327.94,563.25a64,64,0,0,1-7.31-8.53,37.15,37.15,0,0,1-2.95-5.13q-3.39-7.83-1-24a133.54,133.54,0,0,1,5.9-24.25l-94.55-1a63.89,63.89,0,0,1,9.05,25.33q1.92,13-.64,23a32.22,32.22,0,0,1-2.06,5.51,40.17,40.17,0,0,1-7.11,9.63q-2.76,2.88-8.6,8.4-9.36,9.56-11.54,19-4.43,19,3.14,49.39,2.06,8.21,6.35,24.63a141.29,141.29,0,0,1,4,24.57q1,16.92-2.62,42.14-5.77,39.88-6,41.88a147.65,147.65,0,0,0-.58,23.92,113.15,113.15,0,0,0,1.35,12l1.09,5.83A89.83,89.83,0,0,0,221.92,838a71.45,71.45,0,0,0,14.3,19.12,56.92,56.92,0,0,0,35.28,15.33A61.37,61.37,0,0,0,299,868.68q15.78-6,28.92-25.78,12.65-19,12.45-49.26-.08-13-5.45-51.63-2.7-19.5.83-43.36a320.94,320.94,0,0,1,9.81-43q3.46-12,4.94-19a101.32,101.32,0,0,0,2.18-19.3q3.15-32.58-16.23-46.89A85.39,85.39,0,0,1,327.94,563.25Z" transform="translate(-0.26)"/></g><g id="Duplicate_Items_Folder_Symbol_16_copy_0_Layer11_0_FILL" data-name="Duplicate Items Folder Symbol 16 copy 0 Layer11 0 FILL"><path class="cls-7" d="M305.5,551.9q12.44.12,12.12-2c-.52-2.82-.9-5-1.16-6.42a47.14,47.14,0,0,1-.77-6.92q-.06-15.21,6.87-35.22l-94.55-1a61.13,61.13,0,0,1,7.57,17.57A71.43,71.43,0,0,1,237.89,537q-.19,7.69,40.09,12.82A231,231,0,0,0,305.5,551.9Z" transform="translate(-0.26)"/></g><g id="Duplicate_Items_Folder_Symbol_16_copy_0_Layer10_0_STROKES_1_FILL" data-name="Duplicate Items Folder Symbol 16 copy 0 Layer10 0 STROKES 1 FILL"><path class="cls-12" d="M236.55,858l5.83,4.94,7.25,4.55,3.53,1.73.38.13,1.16.52,6.41,2.18h.13v.06h.13l.38.13,3.66.77.45.13,3.27.45h.38l.26.06,8.21.06,5.13-.51.64-.13a11.21,11.21,0,0,0,1.35-.25l.7-.07,11.68-3.33.7-.32-.06-.2-4.94,1H293l-1.22.25-8.21,1.09h-.32l-.39.07-1.73.06-.32.06-6.73.07-1.54-.13h-.39l-.38-.06-1.54-.13H270l-.2-.07h-.45l-7.05-1.34-.39-.13h-.12l-7.7-2.57-6.73-3.14-.26-.19-.32-.13-2.38-1.35L236.8,857l-.25-.26-3-2.37-.2.19,2.89,3.08.26.32m-30.92-241.1.51,5.52q.71,4.86,1.29,7.82l8.33,36.3.13.39,2.7,16.55V684l.19,1.35.51,14.36-2,30.53-5.45,43.43.19.06,8.15-49.26v-.19l.06-.26,1.61-26.17-.52-12.25-.06-.25v-.26L218.91,670l-10.33-40L206,616.87v-.39l-.19-1-.19.06v1l.06.32m146.82-8.4v7.12c-.09,2.73-.24,5.43-.45,8.08l-.58,5-.13.64v.32l-2.56,12.7-.07.19v.2l-1,3.59q-1.35,5-3.91,13.4l-4.11,13.41-.19.45v.13l-.06.13-1.93,7.76c-.55,2.18-1.09,4.72-1.6,7.63l-2.63,21.68-.19,8.85q-.07,6.68.44,14l1.35,14,4.3,24.18.19-.07L336.92,753l-1.41-19.31c-.21-4.74-.25-9.41-.13-14l.33-8.72,2.75-21.81,3.4-14.75v-.07l.07-.13,4.1-13.91q2.82-10.27,3.59-13.54l.84-3.65.13-.39,1.54-8.4c.51-3.81.83-7.33,1-10.58q.2-3.4.06-8.21v-.84l-.51-6.35Z" transform="translate(-0.26)"/></g><g id="Duplicate_Items_Folder_Symbol_8_copy_16_0_Layer0_0_MEMBER_0_FILL" data-name="Duplicate Items Folder Symbol 8 copy 16 0 Layer0 0 MEMBER 0 FILL"><path class="cls-13" d="M325.25,615.91A51.72,51.72,0,0,0,315.31,599q-17.44-19.89-47.08-13.92a44.24,44.24,0,0,0-23.28,13,42,42,0,0,0-12.51,28.09,28.18,28.18,0,0,1-.58,3.72,34,34,0,0,1-1.22,4.23q2.45-6,3.08-7.37c-.12,2.39-.12,4.81,0,7.24.05,1.5.17,4.07.39,7.7l3.14-6.22q-.31,4.68,4.11,17.19,5.05,14.3,6,23.09,1.73,15.33-1.16,34.7a208.23,208.23,0,0,1-7.82,33,175.75,175.75,0,0,0-5.84,21.81,90.71,90.71,0,0,0-1.73,24.18q1.72,23.6,13.08,39.25,12.83,17.58,33.93,18.35a36,36,0,0,0,21.3-6A51.71,51.71,0,0,0,315.31,824q14.24-23.47,9.94-52.6-1.15-7.83-7.7-30.08-5.58-19-5.9-30.34a254.29,254.29,0,0,1,2.12-37.71q2.5-20.6,6.48-32.33c.08,2.35,1.37,4.71,3.85,7.06a44.16,44.16,0,0,0,.25-11.8,41.22,41.22,0,0,0-2.5-11.55,8.7,8.7,0,0,1,4,1.92,5.77,5.77,0,0,1,2.11,3.47Q328.27,624.05,325.25,615.91Z" transform="translate(-0.26)"/></g><g id="Duplicate_Items_Folder_Symbol_8_copy_16_0_Layer0_0_MEMBER_1_MEMBER_0_FILL" data-name="Duplicate Items Folder Symbol 8 copy 16 0 Layer0 0 MEMBER 1 MEMBER 0 FILL"><path class="cls-14" d="M276.44,606a8,8,0,0,0,1-2.38c-.17-.13-.77.52-1.8,1.93a36.34,36.34,0,0,0-3.46,6.22q-4.43,9.94-4.36,23.73v3.78l2.82-3.91v.13L269.32,641a70.2,70.2,0,0,0-1.09,8,62.54,62.54,0,0,0,.45,13.47,55.33,55.33,0,0,0,1.92,8.85c.69,2.14,1.14,3.16,1.35,3.08s0-1.13-.38-3.27q-.78-4.76-1.09-8.85a69.65,69.65,0,0,1,.06-13.09q.45-4,1.22-7.63l1.15-4.75v-.13l1.61-4.81.32-2.88-2.5,1.34a22.06,22.06,0,0,0-2.06,1.54,62.51,62.51,0,0,1,3.4-19.49A53.16,53.16,0,0,1,276.44,606Z" transform="translate(-0.26)"/></g><g id="Duplicate_Items_Folder_Symbol_16_copy_0_Layer8_0_FILL" data-name="Duplicate Items Folder Symbol 16 copy 0 Layer8 0 FILL"><path class="cls-11" d="M304,877.53a117.57,117.57,0,0,0,16.86-8.46Q345.65,854,352,834.88a46.3,46.3,0,0,0-1-6.35q-1.41-7.57-1.6-9-18.66-2.06-84.41-.26-62.14,1.72-62.34,2.44c-.3,1.66-.88,4.38-1.73,8.14a24.46,24.46,0,0,0-.84,4.3q6.36,12.82,32.91,26.81a212,212,0,0,0,25.27,11.42,91.18,91.18,0,0,1,37.65,7.76C296.54,880.35,299.21,879.5,304,877.53Z" transform="translate(-0.26)"/></g><g id="Duplicate_Items_Folder_Symbol_16_copy_0_Layer7_0_STROKES_1_FILL" data-name="Duplicate Items Folder Symbol 16 copy 0 Layer7 0 STROKES 1 FILL"><path class="cls-15" d="M258.35,872l-.38.06-.07.19L276,874.58l.45.13,4.49.9,14.05,4,1,.51.07.07.19-.2-.13-.06-.26-.26-1.09-.64-2.88-1.28-10.71-3.4-.45-.06-4-.9-.45-.07-.45-.13-11.67-1.15Z" transform="translate(-0.26)"/></g><g id="Duplicate_Items_Folder_Path_copy_28_0_Layer0_0_FILL" data-name="Duplicate Items Folder  Path  copy 28 0 Layer0 0 FILL"><path class="cls-16" d="M351.67,832.07l-2.18-12.51q-11-1.21-38.68-1.09-7.24.07-41.11.58-10.65.19-37.07,1.22-25.6,1-30,1.35l-1.92,9.49q5,4.36,15.52,9.62,21,10.51,48.3,15,22.44,3.72,53.62-7.51Q340.77,840.16,351.67,832.07Z" transform="translate(-0.26)"/></g><g id="Duplicate_Items_Folder_Symbol_16_copy_0_Layer5_0_FILL" data-name="Duplicate Items Folder Symbol 16 copy 0 Layer5 0 FILL"><path class="cls-4" d="M325.06,555.1c-2.14-2.14-3.29-3.16-3.47-3.08q-5.83,3.86-21.87,14.76-14.69,9.75-22.51,13.47-7.31-3.46-16.48-8.86Q242.39,560.56,233,550.87q-5.32,6.42-17.12,15.2-10.07,7.44-11.87,11.29-4.49,9.75-6,23.86a98.76,98.76,0,0,0,.38,25.72q.26,1.47,8,38.35,5.78,27.33,6.29,45.61,1.53,49.83-11.49,116.28l6.35,3.47q8,4.1,16.55,7.56,27.14,10.85,48.24,10.2l2.3-9.55L278,848.93l5.9-.26a122.33,122.33,0,0,0,15.78-2.18A156.89,156.89,0,0,0,350,826.93l-4.56-25.6q-4-20.77-5.9-40.4-2.37-23.61-1.15-41a365.92,365.92,0,0,1,5.32-40.15q5-25.34,7.12-37.14,3.66-20.32,4-33.61.53-16.92-3.85-29.56a17.44,17.44,0,0,0-5.19-7.12q-4.87-3.66-7.25-5.58A155.79,155.79,0,0,1,325.06,555.1Z" transform="translate(-0.26)"/></g><g id="Duplicate_Items_Folder_Symbol_16_copy_0_Layer4_0_FILL" data-name="Duplicate Items Folder Symbol 16 copy 0 Layer4 0 FILL"><path class="cls-17" d="M342.82,684.6q5-24.75,8.47-42.2-.32.38-4.36,15.78A222.09,222.09,0,0,1,336.35,690q-18.09,42.13-49.26,51.18A76,76,0,0,1,312,740.4a34.16,34.16,0,0,1,10.71,2.89q12.13,6,14.82,27.39,1.67,13.27-.45,33.35-1.53,14.94-7.18,23.22-6.42,9.36-19.82,13.34-11.1,3.39-18.22,5.06a123.66,123.66,0,0,1-16.42,2.76Q298.57,846.69,313,843a144.14,144.14,0,0,0,37.39-16l-4.55-24.31a395.41,395.41,0,0,1-6.35-41.44A255.94,255.94,0,0,1,338.34,720,313.11,313.11,0,0,1,342.82,684.6Z" transform="translate(-0.26)"/></g><g id="Duplicate_Items_Folder_Symbol_16_copy_0_Layer3_0_STROKES_1_FILL" data-name="Duplicate Items Folder Symbol 16 copy 0 Layer3 0 STROKES 1 FILL"><path class="cls-5" d="M203.06,652.59l6.35,32.72,1.48,11.8.06.32,1.67,26-2,45.86-.06.39V770l-6,38.49-4.49,18.73,9.94,6,11.23,5.45,20.91,7,2.88.71h.13l.13.06,13.15,2.57c1.58.26,3.16.45,4.74.58l4.24.38H268a42.88,42.88,0,0,0,4.81,0h1l1.09-5.58.13.58v.32l.06.13v.12l.07.2.32,1.47.32.71a1.62,1.62,0,0,0,.38.83l.32.45.45.45.71.32.26.06,6.41-.19.38-.06h.65L303,847.26l12.51-3.4.32-.07,3.27-1.15.39-.06,14.24-5.65L351,827.7l.71-.45-1-3.79-.13-.77-.13-.32-1.47-7.12-.13-.38-.06-.39q-.78-4-2.06-12.06l-5.83-48.68q-.78-7.95-1-12.18l-.32-6.1q-.14-4.1-.06-6.09l.57-12.25q.33-5.26,1.09-12.19.71-6,1.54-12.12l3.72-24.24q1-6,2.12-12.13l4.81-24.05-.19-.06q-1.15,4.35-2.83,12l-2.5,12q-1.33,6.42-2.31,12.06l-5.77,36.43q-.9,8-1.22,12.26l-.64,9.17.07,13.15,1,14.56q.45,6,1.16,12.25l4.36,36.62q1.27,8.09,2.05,12.12l2.44,11.23c-.84.53-2.15,1.32-3.91,2.37-1.29.77-2.91,1.65-4.88,2.63l-12,5.45-9.82,3.72-.32.07-.64.25L316,841l-.64.25-.32.07-.32.13-17.32,4.29-12.89,1.61-2,.06a11.12,11.12,0,0,1-1.35.06l-2.76.07v-.07l-.38-1-.39-1.41v-.06l-.12-1.09-3.4-14.69-.45,8.15-.07.06V838l-.06.38v.13l-.06.19-1.74,8.92-7.69-.32-18.15-3.14-.07-.07h-.19l-.58-.19-2.31-.51-19.94-6.67-6.42-2.89-13.6-7.63,1.16-4.36.06-.39.13-.38,2.69-12,5.91-39.57,1.73-40q-.13-6.87-.45-12.25l-1.73-20v-.38l-1.67-11.81-6.86-32.64L198,632.9l-.19.07Z" transform="translate(-0.26)"/></g><g id="Duplicate_Items_Folder_Symbol_16_copy_0_Layer2_0_STROKES_1_FILL" data-name="Duplicate Items Folder Symbol 16 copy 0 Layer2 0 STROKES 1 FILL"><path class="cls-5" d="M278.17,584.41l-1,10.91q-.57,8-.83,12.51l-3.47,127.38.32,83.51,1,19.94.19-.06,4-254.12Z" transform="translate(-0.26)"/></g><g id="Duplicate_Items_Folder_Symbol_36_copy_0_Layer0_0_FILL" data-name="Duplicate Items Folder Symbol 36 copy 0 Layer0 0 FILL"><path class="cls-18" d="M281.64,602.25a16.43,16.43,0,0,1-3.79,1,14,14,0,0,1-8.14-1.22L251.3,706.92l8.46,15.39q9.57,16.94,15.27,24.57l23.67-39.13Z" transform="translate(-0.26)"/></g><g id="Duplicate_Items_Folder_Symbol_36_copy_0_Layer0_1_FILL" data-name="Duplicate Items Folder Symbol 36 copy 0 Layer0 1 FILL"><path class="cls-18" d="M286.19,585.18a48.66,48.66,0,0,0-4.49-3,23.21,23.21,0,0,0-4.55-1.86,43.27,43.27,0,0,0-11.55,3.46l.06.2a68.81,68.81,0,0,0,2.06,9,59.71,59.71,0,0,1,2,9,14,14,0,0,0,8.14,1.22,16.43,16.43,0,0,0,3.79-1q.71-2.89,2.5-8.92A70.06,70.06,0,0,0,286.19,585.18Z" transform="translate(-0.26)"/></g><g id="Duplicate_Items_Folder_Symbol_36_copy_0_Layer0_2_MEMBER_0_MEMBER_0_FILL" data-name="Duplicate Items Folder Symbol 36 copy 0 Layer0 2 MEMBER 0 MEMBER 0 FILL"><path class="cls-19" d="M280,603.27a5.9,5.9,0,0,0,1.61-1l-6,.12a36.38,36.38,0,0,1-4.11-.19l-1.79-.19,1.47,1.15a8.88,8.88,0,0,0,4.43,1.16A9.67,9.67,0,0,0,280,603.27Z" transform="translate(-0.26)"/></g><g id="Duplicate_Items_Folder_Symbol_37_copy_5_0_Layer1_0_FILL" data-name="Duplicate Items Folder Symbol 37 copy 5 0 Layer1 0 FILL"><path class="cls-20" d="M286.45,586.47q1.16,1.34,6.54,11.8,4.69,8.94,4.81,9.62L302,602q4.93-5.64,11.22-17.83,8.65-16.68,9.49-28.8.13-2.76-2.75-9.43a266.78,266.78,0,0,1-24.95,23q-10.67,8.36-17.71,11.36A17.4,17.4,0,0,1,286.45,586.47Z" transform="translate(-0.26)"/></g><path id="Duplicate_Items_Folder_Symbol_37_copy_5_0_Layer1_0_1_STROKES" data-name="Duplicate Items Folder Symbol 37 copy 5 0 Layer1 0 1 STROKES" class="cls-21" d="M277.27,580.25q7.05-3,17.71-11.36a266.78,266.78,0,0,0,24.95-23q2.88,6.68,2.75,9.43-.82,12.12-9.49,28.8Q306.9,596.34,302,602c-.1.11-1.49,2.07-4.17,5.9q-.13-.69-4.84-9.62-5.39-10.46-6.54-11.8A17.4,17.4,0,0,0,277.27,580.25Z" transform="translate(-0.26)"/><g id="Duplicate_Items_Folder_Symbol_37_copy_5_0_Layer0_0_FILL" data-name="Duplicate Items Folder Symbol 37 copy 5 0 Layer0 0 FILL"><path class="cls-20" d="M267,586.47a17.41,17.41,0,0,1,9.17-6.22q-8.65-3.54-21.55-15.33-4.87-4.42-18.66-18.48-3.27,5.46-3.53,6-1.92,3.53-1.86,5,.84,12.38,9.88,30.27,7.38,14.49,12.95,20.59a22.28,22.28,0,0,0,2.7-3.08,51.36,51.36,0,0,0,4.36-7Q265.86,587.81,267,586.47Z" transform="translate(-0.26)"/></g><path id="Duplicate_Items_Folder_Symbol_37_copy_5_0_Layer0_0_1_STROKES" data-name="Duplicate Items Folder Symbol 37 copy 5 0 Layer0 0 1 STROKES" class="cls-21" d="M276.18,580.25q-8.65-3.54-21.55-15.33-4.87-4.42-18.66-18.48-3.27,5.46-3.53,6-1.92,3.53-1.86,5,.84,12.38,9.88,30.27,7.38,14.49,12.95,20.59a22.28,22.28,0,0,0,2.7-3.08,51.36,51.36,0,0,0,4.36-7q5.38-10.46,6.54-11.8A17.41,17.41,0,0,1,276.18,580.25Z" transform="translate(-0.26)"/><g id="Duplicate_Items_Folder_Symbol_24_copy_0_Layer0_0_MEMBER_0_FILL" data-name="Duplicate Items Folder Symbol 24 copy 0 Layer0 0 MEMBER 0 FILL"><path class="cls-2" d="M200.75,113.45q-7-25.2-9.42-43.51Q180,99.24,160,157.2q7.5,8.27,5.23,14.3T153,176q-11,21.35-19.07,57.58-10,44.79-2.84,69.47.17.46,1.17,5.4a85.89,85.89,0,0,0,4,11.86A92.8,92.8,0,0,0,160,353.46a50.59,50.59,0,0,0,14.85-4.62q8.87-4.56,12.76-6.53,25.65-12.75,36.49-44.12A110.12,110.12,0,0,0,229,277.9l.81-8.56q.47-51.3-16-110.7Q204.82,128,200.75,113.45Z" transform="translate(-0.26)"/></g><g id="Duplicate_Items_Folder_Symbol_24_copy_0_Layer0_0_MEMBER_1_MEMBER_0_MEMBER_0_MEMBER_0_FILL" data-name="Duplicate Items Folder Symbol 24 copy 0 Layer0 0 MEMBER 1 MEMBER 0 MEMBER 0 MEMBER 0 FILL"><path class="cls-22" d="M187.91,174.52q4.69-27.28,5.68-35.59s-4.11,8.7-12.33,26a334.61,334.61,0,0,0-18.12,45.42q-20.28,66.69,9.5,106.74a62.84,62.84,0,0,1,4.44-9.26q5.71-10,12.65-12.39-13.46-26.46-7.93-78.82Q183.48,200.61,187.91,174.52Z" transform="translate(-0.26)"/></g><g id="Duplicate_Items_Folder_Symbol_24_copy_0_Layer0_0_MEMBER_2_MEMBER_0_MEMBER_0_MEMBER_0_FILL" data-name="Duplicate Items Folder Symbol 24 copy 0 Layer0 0 MEMBER 2 MEMBER 0 MEMBER 0 MEMBER 0 FILL"><path class="cls-12" d="M189.45,148.53q-4.57,8.28-9.23,17.78-6.78,14.26-11.95,27.27A280.31,280.31,0,0,0,157,228.34q-4.92,20.16-3.85,36.27a117.4,117.4,0,0,0,2.12,15.86,113.19,113.19,0,0,0,3.87,13.33,74.87,74.87,0,0,0,9.27,17.8l3.42,4.25-3.15-4.42a74.07,74.07,0,0,1-8.62-18,113.53,113.53,0,0,1-3.49-13.23,112.15,112.15,0,0,1-1.81-15.72q-.84-15.78,4.08-35.74a322.3,322.3,0,0,1,10.89-34.59q5.14-13.71,11.32-27.43,3.9-8.77,8.61-18.08l3.45-6.49-.93,1.62C191.66,144.67,190.73,146.24,189.45,148.53Z" transform="translate(-0.26)"/></g><g id="Duplicate_Items_Folder_Symbol_24_copy_0_Layer0_0_MEMBER_3_MEMBER_0_MEMBER_0_MEMBER_0_FILL" data-name="Duplicate Items Folder Symbol 24 copy 0 Layer0 0 MEMBER 3 MEMBER 0 MEMBER 0 MEMBER 0 FILL"><path class="cls-3" d="M185.67,36.15q2,12.63,3.76,25.46,1.59,10.56,2,10.58.84-.07.16-10.78-.72-12.06-2.84-25.73-2.34-14.33-5.12-25.41Q181-.15,180.46,0t1.13,10.67Z" transform="translate(-0.26)"/></g><g id="Duplicate_Items_Folder_Symbol_24_copy_0_Layer0_0_MEMBER_3_MEMBER_1_MEMBER_0_MEMBER_0_FILL" data-name="Duplicate Items Folder Symbol 24 copy 0 Layer0 0 MEMBER 3 MEMBER 1 MEMBER 0 MEMBER 0 FILL"><path class="cls-3" d="M185.45,59.2a45.84,45.84,0,0,1,2.2,4.3c.46.88,1,2.09,1.66,3.62A25.45,25.45,0,0,1,190.43,70a8.56,8.56,0,0,0,1.15,2.38c.13,0,0-.9-.36-2.59s-.69-2.65-.8-3q-1.09-3.34-1.32-3.87c-.82-2.14-1.46-3.68-1.92-4.6s-1.31-2.61-2.67-5c-.71-1.11-1.24-1.95-1.59-2.53l-5.84-8.1a64.77,64.77,0,0,0-4.4-5.07q-3-3.06-4.44-4.49c-1.83-1.73-3.23-3-4.22-3.77-1.84-1.57-3.13-2.6-3.87-3.12l-5.87-4c-1.49-.9-2.28-1.29-2.38-1.17s.51.82,1.82,2l17.06,16.32c.45.45,1.89,2.12,4.34,5l7.52,10.19C184.28,57.16,185.22,58.75,185.45,59.2Z" transform="translate(-0.26)"/></g><g id="Duplicate_Items_Folder_Symbol_24_copy_0_Layer0_0_MEMBER_4_MEMBER_0_MEMBER_0_MEMBER_0_FILL" data-name="Duplicate Items Folder Symbol 24 copy 0 Layer0 0 MEMBER 4 MEMBER 0 MEMBER 0 MEMBER 0 FILL"><path class="cls-12" d="M193.16,79.68a155,155,0,0,1,1.5,25.65,315.75,315.75,0,0,1-2.74,38.13q-1.15,9.06-3.45,22.36-1.28,7.69-4.18,23.91-5,29.21-5.67,46.65-.83,21.41,3.5,38.16a102.19,102.19,0,0,0,4.86,14c1.33,2.86,2.22,4.66,2.65,5.42,1.23,2.38,2.05,3.86,2.44,4.44l2.73,3.95-.41-.61c-1.21-2.08-1.9-3.23-2-3.45l-4.84-10a109.42,109.42,0,0,1-4.41-13.93q-3.94-16.6-2.86-37.94.92-17.35,6-46.36,2.85-16.23,4.12-23.93,2.16-13.23,3.19-22.43a292.69,292.69,0,0,0,2.11-38.3,153.54,153.54,0,0,0-2.2-25.75l-.8-4a27.37,27.37,0,0,0-.74-2.87l-.7-2.35.63,2.41a20.69,20.69,0,0,1,.61,2.86Z" transform="translate(-0.26)"/></g><g id="Duplicate_Items_Folder_Symbol_23_copy_0_Layer0_0_MEMBER_0_FILL" data-name="Duplicate Items Folder Symbol 23 copy 0 Layer0 0 MEMBER 0 FILL"><path class="cls-2" d="M413.05,83.34q-4.2,18.51-13.86,44.89-5.62,15.42-18.24,47.66Q357.25,238,353,277.16l.09,8.61a123.85,123.85,0,0,0,2.92,21.11q7.43,33.31,29.8,51.16,5.47,4.35,11.39,9.83a26.61,26.61,0,0,0,11.09,4.93,152.48,152.48,0,0,0,19.47-19.26q9.84-11.58,14.51-21.47.44-.87-5-7.6-5.18-6.33-4.66-6.31c1,.06,3.82.31,8.51.74,4.27.24,6.55,0,6.85-.77q9.39-24.06,4.21-70.87-4.33-39.12-13-60.61-10.32.63-11.3-2.44-1.09-3.35,7-14.32Q421.69,113.51,413.05,83.34Z" transform="translate(-0.26)"/></g><g id="Duplicate_Items_Folder_Symbol_23_copy_0_Layer0_0_MEMBER_1_MEMBER_0_MEMBER_0_MEMBER_0_FILL" data-name="Duplicate Items Folder Symbol 23 copy 0 Layer0 0 MEMBER 1 MEMBER 0 MEMBER 0 MEMBER 0 FILL"><path class="cls-23" d="M405.1,156.57q-.37,13.67.71,39.68,1.13,27.81,1,39.76-.46,45.84-16.14,70.65,6.71,3.07,11.5,13.57a65.33,65.33,0,0,1,3.57,9.58q33.06-37.06,20.8-100.71-3.68-19-12.5-44.65Q405.62,160.14,405.1,156.57Z" transform="translate(-0.26)"/></g><g id="Duplicate_Items_Folder_Symbol_23_copy_0_Layer0_0_MEMBER_2_MEMBER_0_MEMBER_0_MEMBER_0_FILL" data-name="Duplicate Items Folder Symbol 23 copy 0 Layer0 0 MEMBER 2 MEMBER 0 MEMBER 0 MEMBER 0 FILL"><path class="cls-12" d="M406.56,162.63q1.43,5.61,5.42,18.94,5.65,19,8.1,28.08a302.88,302.88,0,0,1,7.53,34.93,156.45,156.45,0,0,1,1.53,18.33,99.46,99.46,0,0,1-1,17.09,105.88,105.88,0,0,1-7.94,27.88,79.23,79.23,0,0,1-10.07,16.78L405.3,330l5-5.18a71.21,71.21,0,0,0,10.71-16.61,100.84,100.84,0,0,0,8.66-28,92,92,0,0,0,1.23-17.34,128.55,128.55,0,0,0-1.45-18.58,268.42,268.42,0,0,0-7.84-35.08q-2.52-8.68-8.76-27.92-4.11-12.37-6.07-18.78l-2-6.93.47,1.83Q405.56,158.59,406.56,162.63Z" transform="translate(-0.26)"/></g><g id="Duplicate_Items_Folder_Symbol_23_copy_0_Layer0_0_MEMBER_3_MEMBER_0_MEMBER_0_MEMBER_0_FILL" data-name="Duplicate Items Folder Symbol 23 copy 0 Layer0 0 MEMBER 3 MEMBER 0 MEMBER 0 MEMBER 0 FILL"><path class="cls-3" d="M420.18,49.24Q416.45,63.1,414.3,74.8q-1.83,10.82-1.2,10.92.45.09,3.36-10.41l13.65-50.5q2.65-10.57,2.27-10.66c-.37-.15-1.83,3.19-4.35,10Q423.83,35.76,420.18,49.24Z" transform="translate(-0.26)"/></g><g id="Duplicate_Items_Folder_Symbol_23_copy_0_Layer0_0_MEMBER_3_MEMBER_1_MEMBER_0_MEMBER_0_FILL" data-name="Duplicate Items Folder Symbol 23 copy 0 Layer0 0 MEMBER 3 MEMBER 1 MEMBER 0 MEMBER 0 FILL"><path class="cls-3" d="M448.44,42.62q-4.21,2.91-8.39,6.33L428.29,60.3l-4.14,5a22.93,22.93,0,0,0-1.87,2.33l-3.09,4.71q-1.71,3-2.49,4.29c-.29.5-.87,1.73-1.75,3.69a26.71,26.71,0,0,0-1.13,2.83c-.6,1.59-.84,2.43-.72,2.53s.64-.74,1.41-2.24l1.5-2.61c.42-.66,1.11-1.8,2.06-3.42q2.39-3.53,2.73-4l3.27-4.44c.32-.46.95-1.23,1.87-2.34l6.5-7.15L449.57,44.1q7.49-6.14,7.24-6.4c0-.13-.83.23-2.37,1.08S450.76,41,448.44,42.62Z" transform="translate(-0.26)"/></g><g id="Duplicate_Items_Folder_Symbol_23_copy_0_Layer0_0_MEMBER_4_MEMBER_0_MEMBER_0_MEMBER_0_FILL" data-name="Duplicate Items Folder Symbol 23 copy 0 Layer0 0 MEMBER 4 MEMBER 0 MEMBER 0 MEMBER 0 FILL"><path class="cls-12" d="M410.16,93.39a158.36,158.36,0,0,0-4.57,26.21A311.62,311.62,0,0,0,404.26,159q.17,7.28.8,23.3.62,16.23.84,24.91.64,29.26-1,48.19-2,22.31-7.76,38.36a79,79,0,0,1-6.43,13.58l-3.44,5.14a10.56,10.56,0,0,1-1.66,2.21L384,316.63a49.84,49.84,0,0,1-5.1,5l-1.9,1.69,2-1.62a44.7,44.7,0,0,0,5.29-5l1.65-1.84a19.29,19.29,0,0,0,1.72-2.15l3.57-5.06A77.35,77.35,0,0,0,398,294.1q6.23-15.78,8.48-38.52,2-20,1.26-48.36-.21-9.84-.9-25-.8-18.68-1-23.25a328.2,328.2,0,0,1,.68-39.34,174.35,174.35,0,0,1,3.87-26.25l2.84-9.28-.9,2.32a16.75,16.75,0,0,0-1,2.9C411.15,89.89,410.76,91.24,410.16,93.39Z" transform="translate(-0.26)"/></g><g id="Duplicate_Items_Folder_Symbol_29_copy_0_Layer0_0_MEMBER_0_MEMBER_0_MEMBER_0_MEMBER_0_FILL" data-name="Duplicate Items Folder Symbol 29 copy 0 Layer0 0 MEMBER 0 MEMBER 0 MEMBER 0 MEMBER 0 FILL"><path class="cls-2" d="M414.65,362.18q-4.56-15.81-7.09-23.41-8.93-27.22-24.68-42.89a115.28,115.28,0,0,0-69.58-32.66l-.07.12q-32.16-6.12-60.76-1.52Q220.19,267,197,285.34q-17.43,13.73-29.37,39.84-3.37,7.26-9.69,22.45a204,204,0,0,1-11.38,22.86,118.29,118.29,0,0,1-18.39,24,83.1,83.1,0,0,1-24.48,17.11,51.61,51.61,0,0,0,11.95,9.09,13.52,13.52,0,0,1-13.35,5.42q.38.08,4.57,11.11a100,100,0,0,0,9.56,13.84q13.4,16.5,34,31.1a242.28,242.28,0,0,0,55,28.49,278,278,0,0,0,35.63,10.62q11.65,2.73,19.49,4.06a138.13,138.13,0,0,0,19.73,2.15,11.13,11.13,0,0,0,1.28,0v-.13q73.63-1.35,128-32.19A164.07,164.07,0,0,0,444.83,469q12.53-12.47,16.25-22.53a13.71,13.71,0,0,1-12.72-6.89,48.09,48.09,0,0,0,12.9-7.68,83.18,83.18,0,0,1-22.39-19.78,118.25,118.25,0,0,1-15.56-25.93A213.81,213.81,0,0,1,414.65,362.18Z" transform="translate(-0.26)"/></g><g id="Duplicate_Items_Folder_Symbol_29_copy_0_Layer0_0_MEMBER_1_MEMBER_0_MEMBER_0_MEMBER_0_FILL" data-name="Duplicate Items Folder Symbol 29 copy 0 Layer0 0 MEMBER 1 MEMBER 0 MEMBER 0 MEMBER 0 FILL"><path class="cls-7" d="M428.2,408.88q6.07,12.87,15.21,20.64a35,35,0,0,1-11.34,5l-12.26,3.22a76.13,76.13,0,0,0,28.06,17.33q-27.56,30.36-72.13,47.31a243.09,243.09,0,0,1-92,15.79q-50.25-1-91.75-21.26-45.39-22.11-71.69-63.62a41.86,41.86,0,0,0,11.26-7.13,40,40,0,0,0,8.48-10.25l-17-3a72.6,72.6,0,0,0,16.64-20.45A93,93,0,0,0,149,367.62a139.77,139.77,0,0,1-18.22,24.6,85.62,85.62,0,0,1-27.12,19.4,51.61,51.61,0,0,0,11.95,9.09,13.52,13.52,0,0,1-13.35,5.42q.38.08,4.57,11.11a100,100,0,0,0,9.56,13.84q13.4,16.5,34,31.1a242.28,242.28,0,0,0,55,28.49,278,278,0,0,0,35.63,10.62q11.65,2.73,19.49,4.06a138.13,138.13,0,0,0,19.73,2.15,11.13,11.13,0,0,0,1.28,0v-.13q73.63-1.35,128-32.19A164.07,164.07,0,0,0,444.83,469q12.53-12.47,16.25-22.53a13.71,13.71,0,0,1-12.72-6.89,48.09,48.09,0,0,0,12.9-7.68A79.11,79.11,0,0,1,441.34,415q-11.2-13-20.95-33.95A86.84,86.84,0,0,0,428.2,408.88Z" transform="translate(-0.26)"/></g><g id="Duplicate_Items_Folder_Symbol_29_copy_0_Layer0_0_MEMBER_2_MEMBER_0_MEMBER_0_MEMBER_0_MEMBER_0_FILL" data-name="Duplicate Items Folder Symbol 29 copy 0 Layer0 0 MEMBER 2 MEMBER 0 MEMBER 0 MEMBER 0 MEMBER 0 FILL"><path class="cls-12" d="M314.45,263.34l3.57.46q9,1.6,13.52,2.89A110.23,110.23,0,0,1,352,274.47a129,129,0,0,1,11.83,6.64,131.68,131.68,0,0,1,12.2,9.17l6,5.55q1.09,1,5.95,6.18a101.05,101.05,0,0,1,11,14.44,61.68,61.68,0,0,1,7.14,17.94q.63,2.53,2.33,9.9,1.5,6.43,2.5,10.29,3.21,11.35,6.86,20.75a207.09,207.09,0,0,0,9.42,20.84,109.71,109.71,0,0,0,13.47,19.58,83,83,0,0,0,18.49,16l.31.21h.13l-2.35,1.73q-2.13,1.41-5.12,3L447.24,439l-.2.12s0,0,.06.13l1.23,2.06a15.51,15.51,0,0,0,4.7,4.25,15.23,15.23,0,0,0,6.07,1.89l.51,0-.38,1-.65,1.25a68.06,68.06,0,0,1-6.33,9.66,114.39,114.39,0,0,1-15.75,16.07,164.86,164.86,0,0,1-17.37,13A217.4,217.4,0,0,1,383.51,507a255.63,255.63,0,0,1-33.26,11,299.39,299.39,0,0,1-50.06,8.34l-13.8.88,13.84-.56A296.7,296.7,0,0,0,350.52,519,256.62,256.62,0,0,0,384,508.2a220.71,220.71,0,0,0,36-18.39,191.48,191.48,0,0,0,17.63-13,124.44,124.44,0,0,0,16.09-16.3,61.58,61.58,0,0,0,6.47-9.92l.72-1.3,1.5-3.77h-3.15a12.74,12.74,0,0,1-5.31-1.59,13.18,13.18,0,0,1-4.09-3.76l-.12-.2.53-.16,2.77-1.32a53.23,53.23,0,0,0,5.32-3.23l4.43-3.35.07-.13-2.66-1.69a78.63,78.63,0,0,1-18.07-15.61,108.92,108.92,0,0,1-13.3-19.19,201.7,201.7,0,0,1-9.37-20.57,215.93,215.93,0,0,1-6.93-20.57Q411.48,350.31,410,344q-1.75-7.62-2.39-10a62.57,62.57,0,0,0-7.45-18.28,71.76,71.76,0,0,0-5.41-7.63q-1.5-1.89-5.84-6.88l-12.25-11.68a110.47,110.47,0,0,0-12.4-9.06,124.26,124.26,0,0,0-12-6.59,114.06,114.06,0,0,0-20.58-7.53c-2.95-.76-7.47-1.64-13.53-2.63Z" transform="translate(-0.26)"/></g><g id="Duplicate_Items_Folder_Symbol_29_copy_0_Layer0_0_MEMBER_2_MEMBER_1_MEMBER_0_MEMBER_0_MEMBER_0_FILL" data-name="Duplicate Items Folder Symbol 29 copy 0 Layer0 0 MEMBER 2 MEMBER 1 MEMBER 0 MEMBER 0 MEMBER 0 FILL"><path class="cls-12" d="M312.15,263.15l-3-.55c-1.4-.3-3.54-.63-6.43-1l-8.94-1.09a189,189,0,0,0-24.56-.68A142.61,142.61,0,0,0,237,264.74l-17.84,6.44a90.12,90.12,0,0,0-9.06,4.56l-4.46,2.7c-2.57,1.66-4,2.62-4.4,2.9l-4.36,3.22c-.94.72-2.33,1.89-4.18,3.49a22.64,22.64,0,0,0-2.1,1.88L184.75,296a101.32,101.32,0,0,0-13.24,19.36q-4,7.41-10.32,22.28-6.81,16-10.43,23.18c-1,2.08-2,4-3,5.74-1.28,2.28-2.4,4.17-3.34,5.66a112.92,112.92,0,0,1-7.49,10.88,95.87,95.87,0,0,1-19.06,19,81.34,81.34,0,0,1-11.19,7l-4.43,2.19c-.09,0-.07.06,0,.19l2.74,2.73a51.89,51.89,0,0,0,4.91,3.94,29.06,29.06,0,0,0,2.48,1.68l1.8,1.06-.34.43-.47.36a8.35,8.35,0,0,1-2,1.37,21.81,21.81,0,0,1-4.39,1.48l-3.18.53-1.54.1-.1.58,0,.32a.92.92,0,0,1-.43.81.09.09,0,0,0,0,.13l2,5.12q1.08,2.56,2.59,5.41a73.55,73.55,0,0,0,6.24,10q2.32,3.09,7.4,8.77c2.43,2.63,5.06,5.32,7.9,8.1a187.55,187.55,0,0,0,33.43,25.66,256.62,256.62,0,0,0,63.65,27.38q9.8,2.87,25.35,6.12,11.43,2.32,19.1,3.14a114.94,114.94,0,0,0,12,.81l3.15-.08-3.15,0q-4.42-.06-12-.94-8.23-1-19-3.45-14.77-3.29-25.21-6.32a264,264,0,0,1-63.17-27.86,192.4,192.4,0,0,1-33.05-25.71q-3.9-3.75-7.7-8-5-5.62-7.28-8.7a78.7,78.7,0,0,1-6.07-9.73q-.93-1.72-2.52-5.28L103.58,427h.07l3.75-.55a24.38,24.38,0,0,0,4.79-1.66,13,13,0,0,0,2.4-1.54l1.15-1.15,1.25-1.6.07-.06H117l-.18-.14-.31-.15L111,416.66a49.27,49.27,0,0,1-4.67-3.8l-1-.95,2.18-1A81.15,81.15,0,0,0,119,403.69a102.75,102.75,0,0,0,19.41-19.4q3.88-5,7.63-11.06,1.2-1.86,3.34-5.72l3-5.81q3.76-7.43,10.45-23.37,6.24-14.94,10.12-22.23A99.42,99.42,0,0,1,185.85,297l3.77-4.09c1.73-1.74,3.06-3,4-3.76l8.41-6.72c.59-.43,2-1.4,4.34-2.9,1.92-1.26,3.38-2.16,4.4-2.7,2-1.09,3.47-1.88,4.44-2.39a37.86,37.86,0,0,1,4.43-2.19l4.41-2,13.24-4.59a148.41,148.41,0,0,1,32-5.25,187.82,187.82,0,0,1,24.52.42Z" transform="translate(-0.26)"/></g><g id="Duplicate_Items_Folder_Symbol_28_copy_0_Layer2_0_FILL" data-name="Duplicate Items Folder Symbol 28 copy 0 Layer2 0 FILL"><path class="cls-24" d="M371.61,452.82q-21.15,1.57-42.78-14.69-16.14-12.22-33.52-35.5L293.6,400a9,9,0,0,0-3.17-3,4.62,4.62,0,0,0-1.7-.67l-.51-.1a3.33,3.33,0,0,0-1.28-.07,5.4,5.4,0,0,0-2,.66,8.27,8.27,0,0,0-3.29,2.51l-1.93,2.33q-20,21.22-37.37,31.49-23.32,13.77-44.24,9.76a122,122,0,0,0,14,39.46q13.17,23.88,33.42,38.32,1.55,1.13,5.83,4.89a37.3,37.3,0,0,0,6.54,4.68q12.45,7,24,7,7.65,0,17.59-4.21,5.46-2.32,16.27-8.33,21.83-12.06,37.53-34.29A121.17,121.17,0,0,0,371.61,452.82Z" transform="translate(-0.26)"/></g><g id="Duplicate_Items_Folder_Symbol_28_copy_0_Layer1_0_STROKES_1_FILL" data-name="Duplicate Items Folder Symbol 28 copy 0 Layer1 0 STROKES 1 FILL"><path class="cls-12" d="M314.67,524.7l-.2.11-.94.72-1.73,1.06a32.65,32.65,0,0,1-3.45,1.86l-.53.29-.59.22-.53.3-3.09,1.3c-1.58.68-3.47,1.41-5.65,2.18a53.9,53.9,0,0,1-6.47,1.88,44.26,44.26,0,0,1-7.07,1.21l-2.25.13-.45,0-.45,0-2.76-.09-.25-.08-4.6-.52-.25-.07-2.67-.54-.12-.07h-.13l-.19-.07-.45-.09-.44-.16-1.33-.33-2.14-.7L260.73,531l-.37-.22-.38-.15-3.92-2.21-4.51-3.15-9.07-7.7-.21.18,5.16,5.43,5,4.39,2.53,1.82.3.27,4.35,2.63.38.15,2.37,1.22.44.16.37.21,2.14.83.25.14.19.07,3.15,1,.45.09a42.73,42.73,0,0,0,7.56,1.45l4.29.25,1-.07.45,0,1.94-.14a32.06,32.06,0,0,0,3.69-.57l3.58-.82a59.72,59.72,0,0,0,6.55-2.14l3.48-1.47.2-.12,10-5.47,2.7-2.22Z" transform="translate(-0.26)"/></g><g id="Duplicate_Items_Folder_Symbol_34_copy_2_Layer0_0_MEMBER_0_MEMBER_0_MEMBER_0_MEMBER_0_FILL" data-name="Duplicate Items Folder Symbol 34 copy 2 Layer0 0 MEMBER 0 MEMBER 0 MEMBER 0 MEMBER 0 FILL"><path class="cls-18" d="M328.45,488q-14.43,4.29-30.72-.67a65.31,65.31,0,0,1-9.76-3.85l-3.6-1.94q-4.59,2.55-15.75,4.39-16,2.55-26.75-2.26l2.17,3.83A54.93,54.93,0,0,0,251,496a45.2,45.2,0,0,0,30,13.65,54.28,54.28,0,0,0,35.38-10.19A49.77,49.77,0,0,0,328.45,488Z" transform="translate(-0.26)"/></g><g id="Duplicate_Items_Folder_Symbol_34_copy_2_Layer0_0_MEMBER_0_MEMBER_1_MEMBER_0_MEMBER_0_FILL" data-name="Duplicate Items Folder Symbol 34 copy 2 Layer0 0 MEMBER 0 MEMBER 1 MEMBER 0 MEMBER 0 FILL"><path class="cls-25" d="M309,504.35q-11.94-9.09-24.51-9.8-13.57-.69-24.83,8.81,8.94,6.69,24.6,6.84Q299.25,510.23,309,504.35Z" transform="translate(-0.26)"/></g><g id="Duplicate_Items_Folder_Symbol_34_copy_2_Layer0_0_MEMBER_0_MEMBER_2_MEMBER_0_MEMBER_0_FILL" data-name="Duplicate Items Folder Symbol 34 copy 2 Layer0 0 MEMBER 0 MEMBER 2 MEMBER 0 MEMBER 0 FILL"><path class="cls-26" d="M323.77,492.07,317,497.46a46,46,0,0,1-6.32,3.77,50.5,50.5,0,0,1-7.85,3.26,59.51,59.51,0,0,1-19.05,3,44.61,44.61,0,0,1-9.74-1.21,59.74,59.74,0,0,1-8.74-3.05l-3.93-1.95c-1.59-1-2.73-1.7-3.42-2.18a34.87,34.87,0,0,1-3.17-2.24l-5.19-4.41a13.32,13.32,0,0,1-2-2.1,28.06,28.06,0,0,1-3.1-3.55q-1.45-1.81-1.92-2.34c-.36-.57-.59-.83-.7-.78s.06.33.35,1c.2.39.64,1.3,1.33,2.71a29.69,29.69,0,0,0,2.49,4.18l1.84,2.42c.41.57,1.13,1.43,2.16,2.59l2.65,2.71a37.75,37.75,0,0,0,3.15,2.73q1.09.88,3.65,2.52a32.31,32.31,0,0,0,4.07,2.29,48.69,48.69,0,0,0,9.44,3.67A44.51,44.51,0,0,0,283.72,512a70.12,70.12,0,0,0,10.77-1,59.61,59.61,0,0,0,9.72-2.67,48.83,48.83,0,0,0,8.21-3.82,52.12,52.12,0,0,0,6.52-4.49l4.71-4.52,3-3.87a17.42,17.42,0,0,0,1.47-2.64q.63-1,.3-1c-.1-.12-.41.06-.93.52-.82.84-1.55,1.54-2.18,2.1Z" transform="translate(-0.26)"/></g><g id="Duplicate_Items_Folder_Symbol_34_copy_2_Layer0_0_MEMBER_1_MEMBER_0_MEMBER_0_MEMBER_0_MEMBER_0_FILL" data-name="Duplicate Items Folder Symbol 34 copy 2 Layer0 0 MEMBER 1 MEMBER 0 MEMBER 0 MEMBER 0 MEMBER 0 FILL"><path class="cls-1" d="M321.74,489.31c.18-.38-.58-.47-2.29-.3a41.56,41.56,0,0,1-9.49.21c-.11,0-.1.29,0,.91l2,6.7a3.12,3.12,0,0,0,.74,1.45,1.83,1.83,0,0,0,2.3.13,13.69,13.69,0,0,0,3.7-4.24Q319.91,492.42,321.74,489.31Z" transform="translate(-0.26)"/></g><g id="Duplicate_Items_Folder_Symbol_34_copy_2_Layer0_0_MEMBER_1_MEMBER_0_MEMBER_1_MEMBER_0_MEMBER_0_FILL" data-name="Duplicate Items Folder Symbol 34 copy 2 Layer0 0 MEMBER 1 MEMBER 0 MEMBER 1 MEMBER 0 MEMBER 0 FILL"><path class="cls-26" d="M349.7,467.15a11.71,11.71,0,0,0,1.55-2.63c-.1-.12-.83.61-2.18,2.18l-9.35,10.77q-2.66,3.22-4.32,4.95a15.11,15.11,0,0,1-5.72,3.55,30.47,30.47,0,0,1-7.34,1.48,69.43,69.43,0,0,1-15-.19,79.51,79.51,0,0,1-12.07-2.34c-2.54-.75-4-1.22-4.54-1.41l-5.57-2c-.54-.14-.82-.16-.82-.05s.12.26.54.61c.32.18,1,.6,2,1.27,1.87,1,3,1.54,3.28,1.67a29.68,29.68,0,0,0,4.51,1.9A60.91,60.91,0,0,0,306.94,490a68.3,68.3,0,0,0,15.64.39,33.61,33.61,0,0,0,8.18-1.68,17.56,17.56,0,0,0,6.59-4.41,43.58,43.58,0,0,0,4.26-5.36Z" transform="translate(-0.26)"/></g><g id="Duplicate_Items_Folder_Symbol_34_copy_2_Layer0_0_MEMBER_1_MEMBER_0_MEMBER_2_FILL" data-name="Duplicate Items Folder Symbol 34 copy 2 Layer0 0 MEMBER 1 MEMBER 0 MEMBER 2 FILL"><path class="cls-1" d="M263.32,486.85c-.18.32-1.9.53-5.15.62s-5.33-.17-5.91-.59q.75,1.29,2.24,4.17a29.61,29.61,0,0,0,2.5,4,2.79,2.79,0,0,0,1.1.89c1,.28,1.81-.36,2.5-1.92q1.31-2.73,2.57-6A6.78,6.78,0,0,0,263.32,486.85Z" transform="translate(-0.26)"/></g><g id="Duplicate_Items_Folder_Symbol_34_copy_2_Layer0_0_MEMBER_1_MEMBER_0_MEMBER_3_MEMBER_0_MEMBER_0_FILL" data-name="Duplicate Items Folder Symbol 34 copy 2 Layer0 0 MEMBER 1 MEMBER 0 MEMBER 3 MEMBER 0 MEMBER 0 FILL"><path class="cls-26" d="M283.52,481.45q-1.25.35-2.25.54l-8.17,1.68a79.3,79.3,0,0,1-12.26.95,68.84,68.84,0,0,1-14.91-1.5,32,32,0,0,1-7.21-2.31,15,15,0,0,1-5.2-4.17c-1-1.26-2.22-3.06-3.74-5.4l-8.07-11.75c-1.16-1.72-1.81-2.52-1.92-2.42a11.52,11.52,0,0,0,1.24,2.79l6.7,12.66a43.9,43.9,0,0,0,3.63,5.81,17.24,17.24,0,0,0,6.06,5.13,33.25,33.25,0,0,0,7.93,2.59,67.09,67.09,0,0,0,15.5,1.37,60.59,60.59,0,0,0,12.62-1.67,29.63,29.63,0,0,0,4.7-1.38c.33-.1,1.48-.52,3.45-1.29a16.92,16.92,0,0,0,2.12-1c.46-.3.66-.48.61-.54S284.08,481.38,283.52,481.45Z" transform="translate(-0.26)"/></g><g id="Duplicate_Items_Folder_Symbol_34_copy_2_Layer0_0_MEMBER_1_MEMBER_0_MEMBER_4_MEMBER_0_MEMBER_0_FILL" data-name="Duplicate Items Folder Symbol 34 copy 2 Layer0 0 MEMBER 1 MEMBER 0 MEMBER 4 MEMBER 0 MEMBER 0 FILL"><path class="cls-26" d="M351.9,461.84a3.41,3.41,0,0,0-2.11-.53,2.81,2.81,0,0,0-1.34.33c-.35.26-.47.47-.37.64a1,1,0,0,0,.47.52l.79.54a4.39,4.39,0,0,1,1.71,1.75,3.73,3.73,0,0,1,.28,2.4c-.16.93-.17,1.48,0,1.65s.31.29.65.2a2.88,2.88,0,0,0,1.2-.84,3.23,3.23,0,0,0,.93-1.92,4.36,4.36,0,0,0-.34-2.74A4.32,4.32,0,0,0,351.9,461.84Z" transform="translate(-0.26)"/></g><g id="Duplicate_Items_Folder_Symbol_34_copy_2_Layer0_0_MEMBER_1_MEMBER_0_MEMBER_5_MEMBER_0_MEMBER_0_FILL" data-name="Duplicate Items Folder Symbol 34 copy 2 Layer0 0 MEMBER 1 MEMBER 0 MEMBER 5 MEMBER 0 MEMBER 0 FILL"><path class="cls-26" d="M222.45,456.73c.33-.09.53-.19.59-.3s.05-.41-.21-.75a2.38,2.38,0,0,0-1.19-.81,4.33,4.33,0,0,0-2.21-.21A4.26,4.26,0,0,0,216.8,456a5.56,5.56,0,0,0-1.3,2.57,5,5,0,0,0,.2,2.24,2.67,2.67,0,0,0,.92,1.2c.27.24.51.31.73.21a5,5,0,0,0,.43-1.71,4.64,4.64,0,0,1,1.21-2.4,3.76,3.76,0,0,1,2.37-1.19Z" transform="translate(-0.26)"/></g><g id="Duplicate_Items_Folder_Symbol_34_copy_2_Layer0_0_MEMBER_1_MEMBER_0_MEMBER_6_MEMBER_0_MEMBER_0_FILL" data-name="Duplicate Items Folder Symbol 34 copy 2 Layer0 0 MEMBER 1 MEMBER 0 MEMBER 6 MEMBER 0 MEMBER 0 FILL"><path class="cls-26" d="M284.61,471a10.68,10.68,0,0,0-.13-2c-.32-.13-.82.39-1.49,1.56a8.29,8.29,0,0,0-1.09,4.72,18,18,0,0,0,.26,2.66l.71,1.93c.54,1.19,1,1.74,1.48,1.65s.67-2.24.36-6.33Z" transform="translate(-0.26)"/></g><g id="Duplicate_Items_Folder_Symbol_32_0_Layer0_0_FILL" data-name="Duplicate Items Folder Symbol 32 0 Layer0 0 FILL"><path class="cls-1" d="M250.76,352.18a35.38,35.38,0,1,0,8.95,25.63A34.15,34.15,0,0,0,250.76,352.18Z" transform="translate(-0.26)"/></g><g id="Duplicate_Items_Folder_Symbol_33_0_Layer0_0_FILL" data-name="Duplicate Items Folder Symbol 33 0 Layer0 0 FILL"><path class="cls-1" d="M327.48,356.53a35.44,35.44,0,1,0,25.62-9A34.18,34.18,0,0,0,327.48,356.53Z" transform="translate(-0.26)"/></g><g class="cls-27"><g id="Duplicate_Items_Folder_Symbol_30_0_Layer0_0_MEMBER_0_FILL" data-name="Duplicate Items Folder Symbol 30 0 Layer0 0 MEMBER 0 FILL"><path class="cls-28" d="M228.62,350.54A25.4,25.4,0,1,0,246.07,359,24.47,24.47,0,0,0,228.62,350.54Z" transform="translate(-0.26)"/></g><g id="Duplicate_Items_Folder_Symbol_30_0_Layer0_0_MEMBER_1_FILL" data-name="Duplicate Items Folder Symbol 30 0 Layer0 0 MEMBER 1 FILL"><path d="M214.74,362a18.65,18.65,0,1,0,13.5-4.7A18,18,0,0,0,214.74,362Z" transform="translate(-0.26)"/></g><g id="Duplicate_Items_Folder_Symbol_30_0_Layer0_0_MEMBER_2_FILL" data-name="Duplicate Items Folder Symbol 30 0 Layer0 0 MEMBER 2 FILL"><path class="cls-1" d="M215.93,375.07a5.08,5.08,0,0,0,1.74-3.63,5.24,5.24,0,0,0-4.95-5.48,4.84,4.84,0,0,0-3.74,1.33,5,5,0,0,0-1.74,3.56,5.05,5.05,0,0,0,1.32,3.8,4.86,4.86,0,0,0,3.57,1.74A5,5,0,0,0,215.93,375.07Z" transform="translate(-0.26)"/></g></g><g class="cls-29"><g id="Duplicate_Items_Folder_Symbol_31_0_Layer0_0_MEMBER_0_FILL" data-name="Duplicate Items Folder Symbol 31 0 Layer0 0 MEMBER 0 FILL"><path class="cls-28" d="M337.07,364.14a25.31,25.31,0,1,0,18.35-6.41A24.46,24.46,0,0,0,337.07,364.14Z" transform="translate(-0.26)"/></g><g id="Duplicate_Items_Folder_Symbol_31_0_Layer0_0_MEMBER_1_FILL" data-name="Duplicate Items Folder Symbol 31 0 Layer0 0 MEMBER 1 FILL"><path d="M341.54,369.15a18.64,18.64,0,1,0,13.5-4.7A17.94,17.94,0,0,0,341.54,369.15Z" transform="translate(-0.26)"/></g><g id="Duplicate_Items_Folder_Symbol_31_0_Layer0_0_MEMBER_2_FILL" data-name="Duplicate Items Folder Symbol 31 0 Layer0 0 MEMBER 2 FILL"><path class="cls-1" d="M342.66,382.25a5.08,5.08,0,0,0,1.74-3.63,5,5,0,0,0-1.33-3.73,5.1,5.1,0,0,0-7.3-.42A5,5,0,0,0,334,378a5.08,5.08,0,0,0,1.33,3.8,5.11,5.11,0,0,0,7.3.41Z" transform="translate(-0.26)"/></g></g><path id="Duplicate_Items_Folder_Symbol_25_copy_0_Layer6_0_1_STROKES" data-name="Duplicate Items Folder Symbol 25 copy 0 Layer6 0 1 STROKES" class="cls-30" d="M259.71,377.81a35.47,35.47,0,0,0-59-28.47,35.44,35.44,0,0,0,47.24,52.85A33.93,33.93,0,0,0,259.71,377.81Z" transform="translate(-0.26)"/><path id="Duplicate_Items_Folder_Symbol_25_copy_0_Layer6_1_1_STROKES" data-name="Duplicate Items Folder Symbol 25 copy 0 Layer6 1 1 STROKES" class="cls-30" d="M386.51,385a35.47,35.47,0,1,0-11.79,24.39A34.15,34.15,0,0,0,386.51,385Z" transform="translate(-0.26)"/><g id="Duplicate_Items_Folder_Symbol_25_copy_0_Layer3_0_STROKES_1_FILL" data-name="Duplicate Items Folder Symbol 25 copy 0 Layer3 0 STROKES 1 FILL"><path d="M248.72,346.15l-3.14-2.36-4.67-2.64-5.15-2-.32-.08-.19-.07h-.19l-3-.75-.19-.08h-.19l-1.65-.29-.32-.08-6.34-.42-2.76.1-5.58,1a15.25,15.25,0,0,0-2.68.81l-5,2.22-3.4,2.18-.13.06-.14.12-.27.18-.2.18-.13.06-.14.12v.06a5.56,5.56,0,0,0-1,.78l-1.21,1-.21.25-1.36,1.34c-.87,1-1.4,1.59-1.58,1.83l-.41.43-2.88,4.27L192,358.94l-2.22,7.39-.1.7-.08.31,0,.39-.42,2.93,0,.51-.09.45-.09,2.75a.12.12,0,0,0,.12.14l.07-.06L192.8,365c.68-1.46,1.16-2.44,1.45-2.94l3.51-5.39,3-3.43.4-.3.35-.37,2.63-2.29.2-.11,1.81-1.31h.06l.14-.12.26-.12.27-.17v-.07l.07-.06.13,0,.93-.53a42.52,42.52,0,0,1,4.09-1.95l4.38-1.3a33.29,33.29,0,0,1,9.29-.63l2.43.21.57.09.32,0,.25.08,1.28.2.32,0,.25.08,2.28.51h.13l.13.07,1.13.32h.2l.12.07,2.21.77.56.16,2.07.95.25.15.25.08,3,1.64.43.35.5.28,1.79,1.32.25.15.06.07.12.07.43.34a1.34,1.34,0,0,0,.43.35l.18.2.19.14.85.75.19.21.18.14.79.81h.06l.06.13.25.2.24.27.12.08.3.4.12.07,2.47,3,2.18,3.52.17.4.23.4.51,1.18a21.82,21.82,0,0,1,1.12,3l.32,1.11.05.32.11.33,0,.39.6,3.05.26,4.38.05.33c0,.08,0,.13.12.13l.07-.06.85-3.67,0-.58.1-.51.14-3.72-.21-2a33.42,33.42,0,0,0-.57-3.5,36.88,36.88,0,0,0-1.2-3.8l-1.37-2.9-.3-.47-.11-.26-1.42-2.14-.29-.53-.31-.34-.05-.13-.48-.6-.06-.13-.36-.41-.06-.13h-.06v-.06l-.06-.07-.43-.41-.53-.73-.13-.08-1-1-.17-.27-2.57-2.4m116.94.79-1.25-.46-6.65-1.73-7.61-.56-1.36.12-.32,0-3.49.38-.33.11-.71.09-2,.46-.33.11-.32.05-2.95,1-4.49,2.12-.13.12-.2.06-2.73,1.77-.2.18-1.07.71-.07.12-.13.06-1.22,1-.21.25-.26.18-3.34,3.4-2.08,2.71-3,5.49-2,5.79L316,377.14l-.14,2.37.05.33a.11.11,0,0,0,.12.13l.07-.06.14-.31.25-.89,3-7.41,4.32-7.2,1.66-2,.2-.18,1-1.1,4.45-3.86.67-.41a1.24,1.24,0,0,1,.47-.3l.27-.24h.06l.13-.05,2.8-1.71L336,354l.2-.11,4.15-1.7.26-.05,2.22-.64,1.1-.19a35,35,0,0,1,4.6-.64h.25l.33-.05,1.41,0,.32-.05,4.17.24,1.14.19.58,0,4,.87h.32l2.71.86.25.15.57.16,1.57.66.25.08,5.11,2.86,2.58,2,.61.55.06.06.13.08.86.75.24.27.12.07,1.1,1.09,3.12,3.84.65,1,.12.14,2.26,4.3a19.31,19.31,0,0,1,1.12,3,30.17,30.17,0,0,1,1.25,5.14l.52,3.37,0,.32.13,1,.13.07.07-.12.16-.63,0-.26.08-.32.1-.63.4-4.73-.09-1.81,0-.32-.17-1.61c-.09-.69-.3-1.82-.64-3.38l-.21-.91-1.78-4.79-1.87-3.39-4-5,0-.13-.12-.14-.25-.2-.42-.48-.49-.41-.42-.48L373.33,351l-4.22-2.55L366,347Z" transform="translate(-0.26)"/></g><g id="Duplicate_Items_Folder_Symbol_25_copy_0_Layer2_0_FILL" data-name="Duplicate Items Folder Symbol 25 copy 0 Layer2 0 FILL"><path d="M357.35,327q19.93-.42,30,9.54a65.91,65.91,0,0,0-5.22-13.34,39.32,39.32,0,0,0-5.74-8.61,25.64,25.64,0,0,0-8.52-6.07,26.32,26.32,0,0,0-10.28-2.32q-9.83-.17-20.23,5.6a31.32,31.32,0,0,0-8.49,7,40.44,40.44,0,0,0-6.11,9.16q-2.55-7.14-2.27-12A35.42,35.42,0,0,0,316,332.24h-.12a10.06,10.06,0,0,0,.48,6.26A84.72,84.72,0,0,1,357.35,327Z" transform="translate(-0.26)"/></g><g id="Duplicate_Items_Folder_Symbol_25_copy_0_Layer1_0_FILL" data-name="Duplicate Items Folder Symbol 25 copy 0 Layer1 0 FILL"><path d="M265.54,329.38a35.83,35.83,0,0,0-2.81-17.19h-.07a29.86,29.86,0,0,1-3.09,11.52,33.81,33.81,0,0,0-5.18-9.48,34.76,34.76,0,0,0-7.8-7.58q-9.69-6.9-19.47-7.85a28,28,0,0,0-10.53,1A22.28,22.28,0,0,0,207.5,305a33.19,33.19,0,0,0-5.34,6.89,75.58,75.58,0,0,0-6.1,12.37q11-7.21,29.05-4.77a84.8,84.8,0,0,1,39.38,16,10.37,10.37,0,0,0,1.24-6.16Z" transform="translate(-0.26)"/></g><g id="Duplicate_Items_Folder_Symbol_26_0_Layer0_0_MEMBER_0_MEMBER_0_FILL" data-name="Duplicate Items Folder Symbol 26 0 Layer0 0 MEMBER 0 MEMBER 0 FILL"><path d="M265.73,249A32.64,32.64,0,0,0,251,250.05q-3.35,1,6.69,9.95,9.72,8.7,12.58,9.32a17.31,17.31,0,0,0-8.82,2.58,17.7,17.7,0,0,0-6.41,6.51,18.2,18.2,0,0,0,.28,17.75,52.86,52.86,0,0,1,18.3-19.07,24.74,24.74,0,0,0-1.09,11.31,24.38,24.38,0,0,0,4,10.63,51.47,51.47,0,0,1,8.26-18.8q10.1-14.85,26.06-16.71,3.12-.4,6.73-8.74t2.27-11.63c-.12-.26-.7.2-1.75,1.38q-2.68,3.12-4.11,4.46-7.2,6.91-14.44,6.5a36.93,36.93,0,0,0-22.19-35.69,2.36,2.36,0,0,0-1.66-.22c-.53.27-.82.92-.88,1.94a71.3,71.3,0,0,0,4.82,32.85A32.34,32.34,0,0,0,265.73,249Z" transform="translate(-0.26)"/></g><g id="Duplicate_Items_Folder_Symbol_27_copy_10_0_Layer0_0_MEMBER_0_MEMBER_0_MEMBER_0_FILL" data-name="Duplicate Items Folder Symbol 27 copy 10 0 Layer0 0 MEMBER 0 MEMBER 0 MEMBER 0 FILL"><path class="cls-31" d="M301.23,420.63c-3.8-1.75-5.86-2.71-6.2-2.85A22.26,22.26,0,0,0,288,416.6a28.45,28.45,0,0,0-8.45.62q-6.25,1.5-17.9,7.53-12.31,6.44-17.74,11.39c-1.36,1.29-1.58,3-.68,5.17S246,445.88,249,449a104.23,104.23,0,0,0,24.33,18.53,53.82,53.82,0,0,0,9.34,4q36.33-13.11,44.57-26.9a29.44,29.44,0,0,0-3.21-4.68,97,97,0,0,0-12.39-12.52A52.25,52.25,0,0,0,301.23,420.63Z" transform="translate(-0.26)"/></g><g id="Duplicate_Items_Folder_Symbol_27_copy_10_0_Layer0_0_MEMBER_0_MEMBER_0_MEMBER_1_FILL" data-name="Duplicate Items Folder Symbol 27 copy 10 0 Layer0 0 MEMBER 0 MEMBER 0 MEMBER 1 FILL"><path class="cls-32" d="M253,443q-10.27-4.69-10.35-4.51-.39,3.64,6.35,10.45a104.23,104.23,0,0,0,24.33,18.53,53.82,53.82,0,0,0,9.34,4q36.33-13.11,44.57-26.9a78.49,78.49,0,0,1-12.1,2.66,163.63,163.63,0,0,1-33.43,1.57A97.27,97.27,0,0,1,253,443Z" transform="translate(-0.26)"/></g><g id="Duplicate_Items_Folder_Symbol_27_copy_10_0_Layer0_0_MEMBER_0_MEMBER_0_MEMBER_2_MEMBER_0_MEMBER_0_FILL" data-name="Duplicate Items Folder Symbol 27 copy 10 0 Layer0 0 MEMBER 0 MEMBER 0 MEMBER 2 MEMBER 0 MEMBER 0 FILL"><path class="cls-26" d="M275.93,446.5q-6.06-.72-8-1.16c-.63-.08-3-.53-7.11-1.36l-6.08-1.57c-2.36-.65-4-1.15-5-1.5-2.43-.91-3.67-1.37-3.71-1.37-2.14-.81-3.24-1.12-3.29-1s.76,1,2.7,2.21c0,0,1.23.63,3.56,1.87q.38.22,5,2.08c2.27.82,4.33,1.49,6.18,2q4.95,1.31,7.23,1.69c1.23.28,3.92.74,8.08,1.36q5.68.71,8.76.81l8.85.31c4.37-.13,7.1-.26,8.18-.37l7.37-.87c1.34-.13,3.45-.51,6.36-1.11a46.76,46.76,0,0,0,5.15-1.32A29.41,29.41,0,0,0,324,446c2.15-.82,3.18-1.28,3.1-1.37s-1.11,0-3.36.39l-4,.68c-2.16.39-3.89.63-5.18.73q-6.08.69-6.27.67l-7.22.43c-.22,0-2.89.07-8,.12l-8.59-.29Q282.83,447.22,275.93,446.5Z" transform="translate(-0.26)"/></g><g id="Duplicate_Items_Folder_Symbol_27_copy_10_0_Layer0_0_MEMBER_0_MEMBER_0_MEMBER_3_MEMBER_0_FILL" data-name="Duplicate Items Folder Symbol 27 copy 10 0 Layer0 0 MEMBER 0 MEMBER 0 MEMBER 3 MEMBER 0 FILL"><path class="cls-33" d="M296.08,448c-1.46.09-2.22.35-2.29.77s.57,1,1.91,1.53a12.6,12.6,0,0,0,5.34.94,12.44,12.44,0,0,0,5.34-1.3q1.92-1,1.71-1.77c-.15-.39-.94-.57-2.35-.52-2,.15-3.57.23-4.77.25C297.84,447.89,296.21,447.93,296.08,448Z" transform="translate(-0.26)"/></g><rect class="cls-34" x="37.04" y="613.3" width="474.91" height="242.72"/><rect class="cls-35" x="45.96" y="623.74" width="456" height="228.31"/><path class="cls-36" d="M502.22,623.74c0-.66-179.35.36-191.42,1.6l-13,1.33c61.14-.11,112.28,1.57,173.31,5,7.66.44,16.29,1.38,21,7.41,8.32,10.56,7.91,32.49,9,45.58,1.52,17.46,1.66,146.1.4,163.59C504.71,810.81,502.22,661.34,502.22,623.74Z" transform="translate(-0.26)"/><path class="cls-36" d="M46.22,851.52H348.35c29.2,0,107.86.4,136.86.4-59.19,0-167.59-6.6-226.77-8.19-52.86-1.43-164.87,3.67-184-21.07-12-15.5-11.48-39.61-13-64.61-1.39-23.65.34-48.77,2.78-72,4.28-40.57,24-50.81,41.52-54.91,15.62-3.65,61.71-6.59,84-7.25-7.36-.82-143.57-1.17-143.57.07Z" transform="translate(-0.26)"/><g class="cls-37"><path class="cls-38" d="M46.22,851.68V624a188,188,0,0,1,19.72-.27c-7.65.09-5.48.25-12.67,5.37-5,3.55-6.64,14.1-.56,17.4a7.7,7.7,0,0,0,4.77.47l3.44-.41a39.92,39.92,0,0,0-6.4,1.9,6,6,0,0,0-2.7,1.78,7.32,7.32,0,0,0-1.45,4.52c0,3.4.14,6.78.07,10.25q-.25,11.36-.42,22.72-.21,14-.31,28.07c0,5.24-.82,16.64,1.74,20.19A4,4,0,0,0,54,737.56a16.1,16.1,0,0,0,7.37,0A24.87,24.87,0,0,0,53.81,741a6.6,6.6,0,0,0-2.65,2.87c-1,2.17-1.12,5.35-1.18,8.27-.33,16.13-.95,32-1.64,48.06-.4,9.2-.74,18.51-.58,27.74.11,7,2.41,8.55,5.57,9a71.7,71.7,0,0,0,14.92.63l-5.27.57A44.75,44.75,0,0,0,52.89,840,3.08,3.08,0,0,0,51,841.43c-2.5,4.34-.17,8.84,2.2,9.51l2.55.73C52.8,850.82,49.25,851.68,46.22,851.68Z" transform="translate(-0.26)"/></g><path class="cls-39" d="M22.39,599.7V876.21h506.3V599.7ZM505.28,855.18H43.13V620.73H505.28Z" transform="translate(-0.26)"/><g id="Layer0_4_MEMBER_3_MEMBER_0_MEMBER_0_FILL" data-name="Layer0 4 MEMBER 3 MEMBER 0 MEMBER 0 FILL"><path class="cls-40" d="M35.86,626.43l-.12,8.47q-.08,8.45-.08,22,0,12.33.06,22l.2,9.11.06-.63.14-8.48q.09-9.66.06-22l-.26-31.08Z" transform="translate(-0.26)"/></g><g id="Layer0_4_MEMBER_4_MEMBER_0_MEMBER_0_FILL" data-name="Layer0 4 MEMBER 4 MEMBER 0 MEMBER 0 FILL"><path class="cls-40" d="M26.83,685.06,26.62,703c0,2.36,0,73.21,0,78.53,0,7.81,0,58.84.06,65l.15,8.06c0,.41,0,.61.06.61l.17-8.67c.06-5.36.09-56.39.09-65l-.26-96.6Z" transform="translate(-0.26)"/></g><g id="Layer0_3_MEMBER_2_MEMBER_0_MEMBER_0_FILL" data-name="Layer0 3 MEMBER 2 MEMBER 0 MEMBER 0 FILL"><path class="cls-40" d="M513.65,613.74a11.94,11.94,0,0,0-.09-1.37,11.94,11.94,0,0,0-.09,1.37l-.09,7.7q-.07,9.31-.08,12.16l.14,15.87a5.77,5.77,0,0,0,.12,1.34,5.53,5.53,0,0,0,.11-1.34l.09-3.68q.06-3.13.06-12.19,0-2.85-.09-12.16Z" transform="translate(-0.26)"/></g><g id="Layer0_3_MEMBER_3_MEMBER_0_MEMBER_0_FILL" data-name="Layer0 3 MEMBER 3 MEMBER 0 MEMBER 0 FILL"><path class="cls-40" d="M514.31,662.3l-.17-9.12-.06.64-.14,8.48q-.09,16.88-.09,22c0,9,0,83.37.09,89l.2,9.11.06-.64.2-97.47Q514.4,670.75,514.31,662.3Z" transform="translate(-0.26)"/></g><g id="Layer0_3_MEMBER_4_MEMBER_0_MEMBER_0_FILL" data-name="Layer0 3 MEMBER 4 MEMBER 0 MEMBER 0 FILL"><path class="cls-40" d="M524.57,681.79l0-.14-.26,96.6c0,8.61,0,59.63.09,65q0,4.1.09,6.36l.08,2.32s.06-.21.06-.61l.15-8.07c0-3.58,0-54.6,0-65Z" transform="translate(-0.26)"/></g><g id="Layer0_2_MEMBER_5_FILL" data-name="Layer0 2 MEMBER 5 FILL"><path class="cls-41" d="M528.45,866.17V864l-61.77,1.07Z" transform="translate(-0.26)"/></g><g id="Layer0_2_MEMBER_2_FILL" data-name="Layer0 2 MEMBER 2 FILL"><path class="cls-41" d="M22.51,865.93v1.42l218.31-.93Z" transform="translate(-0.26)"/></g><g id="Layer0_2_MEMBER_3_MEMBER_0_MEMBER_0_FILL" data-name="Layer0 2 MEMBER 3 MEMBER 0 MEMBER 0 FILL"><path class="cls-42" d="M263.87,876.21l-1-10.8-1.21,10.8" transform="translate(-0.26)"/></g><g id="Layer0_2_MEMBER_4_MEMBER_0_MEMBER_0_FILL" data-name="Layer0 2 MEMBER 4 MEMBER 0 MEMBER 0 FILL"><path class="cls-40" d="M431.78,871.39l-5.89-.12q-6-.1-17.17-.17-17.5-.12-56.67.2l-74.25.41,17.58.26q9.63.09,25.48,0l31.19-.2q40-.33,56.67-.35H432.1q.09,0,.09,0h-.09Z" transform="translate(-0.26)"/></g><g class="cls-43"><g id="Layer0_1_MEMBER_5_FILL" data-name="Layer0 1 MEMBER 5 FILL"><path class="cls-42" d="M22.42,601.91v1.39l188.71-.92Z" transform="translate(-0.26)"/></g></g><g class="cls-43"><g id="Layer0_1_MEMBER_5_FILL-2" data-name="Layer0 1 MEMBER 5 FILL"><path class="cls-42" d="M22.42,652.42v2.18l11.83-.86Z" transform="translate(-0.26)"/></g></g><g id="Layer0_4_MEMBER_1_FILL" data-name="Layer0 4 MEMBER 1 FILL"><path class="cls-42" d="M43.19,836.13l2.23-1.45-2.23-.93-8.94.93Z" transform="translate(-0.26)"/></g><g id="Layer0_4_MEMBER_1_FILL-2" data-name="Layer0 4 MEMBER 1 FILL"><polygon class="cls-44" points="42.93 833.76 42.93 836.13 45.16 834.68 42.93 833.76"/></g><g id="Layer0_1_MEMBER_6_MEMBER_0_MEMBER_0_FILL" data-name="Layer0 1 MEMBER 6 MEMBER 0 MEMBER 0 FILL"><path class="cls-40" d="M323.73,617.13s0,0-.11,0l-7.08-.21c-5.88-.15-12.17-.24-19.65-.34q-21.27-.24-29.1-.21c-3.73,0-6.54.09-8.41.15s-4.87.1-8.8.14q-12,.06-18.45,0l-35.69-.38q-8.79-.13-29.13.15l-26.84.12,7.19.2q9,.12,19.65,0l13.58-.12q8.58,0,15.55.12l17.21.32q7.92.12,18.48.11,6.44,0,18.45,0,5.89,0,8.8-.14l8.41-.17q9.51-.06,29.1.08Z" transform="translate(-0.26)"/></g><g id="Layer0_1_MEMBER_7_MEMBER_0_MEMBER_0_FILL" data-name="Layer0 1 MEMBER 7 MEMBER 0 MEMBER 0 FILL"><path class="cls-40" d="M443.24,603.59l-.11,0-23.19,0q-16.68,0-56.17-.26l-31-.12c-11.8,0-20,0-25.24,0l-19,.29,1.94,0c5.79,0,11.46,0,17,0l56.17.29q38.36.25,56.2.14l23.19-.37Z" transform="translate(-0.26)"/></g><g id="Layer0_1_MEMBER_8_FILL" data-name="Layer0 1 MEMBER 8 FILL"><path class="cls-41" d="M528.71,607.56v-2.18l-61.24,1.22Z" transform="translate(-0.26)"/></g><g id="Layer0_1_MEMBER_3_MEMBER_0_FILL" data-name="Layer0 1 MEMBER 3 MEMBER 0 FILL"><path class="cls-42" d="M443.68,620.74l1.1,2,1.1-2-.92-8.11Z" transform="translate(-0.26)"/></g><g id="Layer0_1_MEMBER_4_FILL" data-name="Layer0 1 MEMBER 4 FILL"><path class="cls-42" d="M227.43,599.72H224.9l1.27,6.91Z" transform="translate(-0.26)"/></g><g class="cls-43"><g id="Layer0_1_MEMBER_5_FILL-3" data-name="Layer0 1 MEMBER 5 FILL"><path class="cls-42" d="M293.63,876.21h2.19" transform="translate(-0.26)"/></g></g><text class="cls-45" transform="translate(88.93 678.27) scale(0.99 1)">Hello! I am Jackie<tspan x="50.29" y="45.6">I am cheerful</tspan><tspan x="18.05" y="91.2">I am courageous</tspan><tspan x="57.66" y="136.8">I am hopeful</tspan></text><path class="cls-1" d="M30.62,716.26a12.65,12.65,0,0,1-9.51,3.36c-3.51-.26-6.84-1.68-10.07-3.22-6.49-3.09-12-3.85-9.43-13.6,1.93-7.27,7.09-12.34,13-13.87a59.43,59.43,0,0,1,8-1.49S22.29,698,22.29,698l-3-1.69A22,22,0,0,1,26.67,702c2,2.23,4.58,4.62,5.5,7.65A5.88,5.88,0,0,1,30.62,716.26Z" transform="translate(-0.26)"/><path class="cls-1" d="M13.9,738.84c4.28.1,8.22-1.73,11.93-4,2.72-1.67,7.37-4.55,6-8.72-1.24-3.81-6.25-4.09-9.3-5.49L6.93,713.42c-2.8,1.78-4.56,5.51-5.23,9.27C-.17,733.25,3.77,738.59,13.9,738.84Z" transform="translate(-0.26)"/><path class="cls-46" d="M22.68,687.44h-.95c-.63,0-1.55.07-2.73.23A25.05,25.05,0,0,0,9.5,691a19.2,19.2,0,0,0-5.29,4.66,18.7,18.7,0,0,0-2.12,3.37,15.73,15.73,0,0,0-1.28,4.07,11.81,11.81,0,0,0,.12,4.54A11.07,11.07,0,0,0,3,712a6.37,6.37,0,0,0,.79.93,11.77,11.77,0,0,0,.85.88,18.7,18.7,0,0,0,1.9,1.53,25.79,25.79,0,0,0,4.29,2.43,30.91,30.91,0,0,0,9.29,2.56,14.25,14.25,0,0,0,8.9-1.89,9.21,9.21,0,0,0,3.16-3,6.75,6.75,0,0,0,1-4,8,8,0,0,0-1.32-3.58,21.11,21.11,0,0,0-2.06-2.69c-1.41-1.57-2.6-3.09-3.83-4.27a24,24,0,0,0-3.34-2.77,16.87,16.87,0,0,0-2.38-1.35c-.57-.26-.88-.37-.88-.37s.3.13.84.43a17.14,17.14,0,0,1,2.27,1.5,25,25,0,0,1,3.11,2.92c1.14,1.22,2.24,2.79,3.57,4.44A21,21,0,0,1,31,708.29a6.94,6.94,0,0,1,1,3.15,5.53,5.53,0,0,1-.93,3.3,8.1,8.1,0,0,1-2.79,2.48,13.15,13.15,0,0,1-8,1.53,31,31,0,0,1-8.79-2.5,25.82,25.82,0,0,1-4-2.26,18.55,18.55,0,0,1-1.76-1.39c-.29-.23-.51-.52-.77-.77a5.43,5.43,0,0,1-.7-.81,10,10,0,0,1-2-7.69,14.6,14.6,0,0,1,1.05-3.74,17.84,17.84,0,0,1,1.87-3.22A18.44,18.44,0,0,1,10,691.72,25.43,25.43,0,0,1,19,687.94c1.16-.25,2.07-.34,2.69-.42Z" transform="translate(-0.26)"/><path class="cls-1" d="M9.2,739.1c-3.3,6.46-1.66,10.4,4.08,13.18,3.23,1.57,7,.93,10.34-.85a19.21,19.21,0,0,0,6-4.56,11,11,0,0,0,2.57-5.08c.76-4.08-4.28-6.12-7.08-6.81Z" transform="translate(-0.26)"/><path class="cls-46" d="M9.2,739.1l-.25.45a12.51,12.51,0,0,0-.68,1.32,7.35,7.35,0,0,0-.42,1,8.91,8.91,0,0,0-.39,1.23,8.23,8.23,0,0,0-.23,3.21,7.06,7.06,0,0,0,1.69,3.59,12.82,12.82,0,0,0,3.57,2.75,9.63,9.63,0,0,0,4.9,1.3,13.19,13.19,0,0,0,5.27-1.14,23.16,23.16,0,0,0,4.55-2.7,16.84,16.84,0,0,0,3.51-3.49,9.83,9.83,0,0,0,1.85-4.18,5.19,5.19,0,0,0-.9-3.91,7.33,7.33,0,0,0-2.43-2.11,10.93,10.93,0,0,0-2.18-.95,12.2,12.2,0,0,0-1.44-.39l-.5-.1.48.17a12.09,12.09,0,0,1,1.37.56,11,11,0,0,1,2,1.15A7.06,7.06,0,0,1,31,739a4.29,4.29,0,0,1,.48,3.27,9,9,0,0,1-1.84,3.53A21.59,21.59,0,0,1,22,751.3c-3,1.33-6.36,1.49-8.88.12a12.44,12.44,0,0,1-3.38-2.28,6.21,6.21,0,0,1-1.71-3A10,10,0,0,1,8.51,741c.18-.61.38-1.07.5-1.38Z" transform="translate(-0.26)"/><path class="cls-46" d="M6.9,713.27s-.2.16-.59.44a13.3,13.3,0,0,0-1.57,1.41A17.31,17.31,0,0,0,1,721.92a18.15,18.15,0,0,0-.72,5.4,14,14,0,0,0,1.49,6.15,8.36,8.36,0,0,0,.9,1.48,7.58,7.58,0,0,0,1.17,1.37,10.32,10.32,0,0,0,3.09,2,19.11,19.11,0,0,0,7.4,1.32A23.18,23.18,0,0,0,27.79,735a19.47,19.47,0,0,0,4.47-4.45,5.11,5.11,0,0,0,.9-2.89,4.26,4.26,0,0,0-1-2.61,10.45,10.45,0,0,0-3.76-2.5,33.28,33.28,0,0,0-3.14-1.13l-2-.59-.69-.22.67.28,1.95.78c.84.34,1.87.76,3,1.35a10.2,10.2,0,0,1,3.34,2.54,3.41,3.41,0,0,1,.67,2.09,4,4,0,0,1-.86,2.27A19.4,19.4,0,0,1,27,733.89,22.9,22.9,0,0,1,14.33,738a18.48,18.48,0,0,1-6.79-1.12,9,9,0,0,1-2.69-1.66,6.56,6.56,0,0,1-1-1.14A7.63,7.63,0,0,1,3,732.81a13.24,13.24,0,0,1-1.59-5.54,18.19,18.19,0,0,1,.39-5.15,17.55,17.55,0,0,1,3.16-6.83,12.51,12.51,0,0,1,1.42-1.52Z" transform="translate(-0.26)"/><path class="cls-1" d="M520.72,717.2a12.14,12.14,0,0,0,9.24,3.38c3.4-.25,6.63-1.65,9.77-3.16,6.28-3,11.65-3.78,9.09-13.48-1.9-7.23-6.93-12.29-12.64-13.83a57,57,0,0,0-7.76-1.51s.31,10.52.31,10.52l2.88-1.67a21.37,21.37,0,0,0-7.12,5.6c-2,2.21-4.42,4.58-5.31,7.59A6,6,0,0,0,520.72,717.2Z" transform="translate(-0.26)"/><path class="cls-1" d="M537,739.7c-4.15.09-8-1.74-11.6-4-2.64-1.67-7.17-4.54-5.87-8.68,1.19-3.78,6.06-4,9-5.43l15.12-7.1c2.72,1.78,4.45,5.5,5.11,9.24C550.67,734.21,546.86,739.49,537,739.7Z" transform="translate(-0.26)"/><path class="cls-46" d="M528.31,688.59l.93.09c.61.08,1.5.18,2.63.43a24.36,24.36,0,0,1,8.87,3.82,18.65,18.65,0,0,1,4.68,4.63,17.83,17.83,0,0,1,1.8,3.18,15,15,0,0,1,1,3.67,10.13,10.13,0,0,1-1.85,7.6,4.25,4.25,0,0,1-.66.81c-.25.26-.47.52-.73.77A17.86,17.86,0,0,1,543.3,715a23.86,23.86,0,0,1-3.91,2.26,29,29,0,0,1-8.6,2.48,12.46,12.46,0,0,1-7.82-1.57,7.91,7.91,0,0,1-2.7-2.49,5.68,5.68,0,0,1-.9-3.25,7.12,7.12,0,0,1,1-3.11,20.92,20.92,0,0,1,1.79-2.63c1.29-1.64,2.35-3.19,3.45-4.39a22.74,22.74,0,0,1,3-2.91,16.41,16.41,0,0,1,2.2-1.49c.53-.3.82-.43.82-.43s-.3.11-.85.37a15.33,15.33,0,0,0-2.32,1.35,22,22,0,0,0-3.25,2.76c-1.19,1.17-2.34,2.67-3.7,4.23a22.19,22.19,0,0,0-2,2.66,8.17,8.17,0,0,0-1.24,3.53,6.87,6.87,0,0,0,1,4,9,9,0,0,0,3,3,13.59,13.59,0,0,0,8.7,2,29.47,29.47,0,0,0,9.11-2.55,24.83,24.83,0,0,0,4.18-2.44,22.27,22.27,0,0,0,1.84-1.53c.28-.28.54-.59.82-.88a5.68,5.68,0,0,0,.74-.94,11.4,11.4,0,0,0,2-8.71,15.42,15.42,0,0,0-1.25-4,18.62,18.62,0,0,0-2-3.33,18.94,18.94,0,0,0-5.13-4.64,23.92,23.92,0,0,0-9.27-3.4,23.46,23.46,0,0,0-2.67-.25Z" transform="translate(-0.26)"/><path class="cls-1" d="M541.6,740c3.23,6.44,1.65,10.34-3.92,13.09-3.12,1.54-6.82.89-10-.89a18.83,18.83,0,0,1-5.85-4.56,11.32,11.32,0,0,1-2.52-5c-.75-4.06,4.14-6.07,6.86-6.74Z" transform="translate(-0.26)"/><path class="cls-46" d="M541.6,740l.18.47c.12.31.31.76.49,1.37a8.79,8.79,0,0,1,.28,1,9,9,0,0,1,.25,1.2,8.12,8.12,0,0,1,0,2.9,6.06,6.06,0,0,1-1.61,3,11.48,11.48,0,0,1-3.27,2.29c-2.45,1.39-5.71,1.22-8.68-.14a21.16,21.16,0,0,1-7.4-5.52A9.23,9.23,0,0,1,520,743a4.42,4.42,0,0,1,.41-3.23,7,7,0,0,1,2-2.12,11.62,11.62,0,0,1,1.94-1.14,14.49,14.49,0,0,1,1.34-.56l.48-.17-.5.11a13.18,13.18,0,0,0-1.41.38,11.38,11.38,0,0,0-2.13,1,7.2,7.2,0,0,0-2.36,2.12,5.28,5.28,0,0,0-.81,3.85,9.83,9.83,0,0,0,1.79,4.1,16.69,16.69,0,0,0,3.4,3.48,22.69,22.69,0,0,0,4.43,2.71,12.74,12.74,0,0,0,5.18,1.17,9.19,9.19,0,0,0,4.81-1.31,12,12,0,0,0,3.45-2.76,6.77,6.77,0,0,0,1.57-3.57,9.55,9.55,0,0,0-.64-4.35,7.06,7.06,0,0,0-.41-1,14,14,0,0,0-.66-1.31Z" transform="translate(-0.26)"/><path class="cls-46" d="M543.73,714.33l.52.49a13.12,13.12,0,0,1,1.38,1.5,17.87,17.87,0,0,1,3.08,6.73,19.47,19.47,0,0,1,.42,5.06,13.35,13.35,0,0,1-1.44,5.49l-.35.66c-.14.21-.3.41-.44.61a6.78,6.78,0,0,1-1,1.16,8.86,8.86,0,0,1-2.58,1.71,17.22,17.22,0,0,1-6.63,1.15,22.1,22.1,0,0,1-12.38-4.13,19.51,19.51,0,0,1-4.22-3.92,3.58,3.58,0,0,1-.27-4.32,9.25,9.25,0,0,1,3.22-2.55,30.28,30.28,0,0,1,2.94-1.35l1.91-.76.65-.29-.68.22-2,.6a29.09,29.09,0,0,0-3.08,1.12A9.72,9.72,0,0,0,519.2,726a4.15,4.15,0,0,0-.91,2.59,5.16,5.16,0,0,0,.91,2.82,19.63,19.63,0,0,0,4.33,4.41,22.32,22.32,0,0,0,13.19,4.65,18,18,0,0,0,7.27-1.36,9.93,9.93,0,0,0,3-2.08,8.26,8.26,0,0,0,1.09-1.38c.16-.25.33-.48.47-.72l.38-.76a14.15,14.15,0,0,0,1.32-6.07,19.2,19.2,0,0,0-.74-5.29,17.52,17.52,0,0,0-3.66-6.69,12.29,12.29,0,0,0-1.53-1.39Z" transform="translate(-0.26)"/></g></g></svg>