<svg xmlns="http://www.w3.org/2000/svg" xmlns:xlink="http://www.w3.org/1999/xlink" viewBox="0 0 557.68 966.83"><defs><style>.cls-1{fill:#fff;}.cls-2{fill:#e3ebf3;}.cls-3,.cls-41,.cls-5,.cls-9{fill:none;}.cls-3,.cls-5{stroke:#adc3d8;}.cls-3{stroke-miterlimit:10.35;stroke-width:1.14px;}.cls-4{fill:#adc3d8;}.cls-5{stroke-miterlimit:10.35;stroke-width:1.14px;}.cls-6{fill:#e1a97a;}.cls-7{fill:#b0b0b0;}.cls-8{fill:url(#linear-gradient);}.cls-9{stroke:#c2c0bf;stroke-linecap:round;stroke-linejoin:round;stroke-width:2.33px;}.cls-10{fill:#626264;}.cls-11{fill:url(#linear-gradient-2);}.cls-12{fill:url(#linear-gradient-3);}.cls-13{fill:#192f38;}.cls-14{fill:#325a6b;}.cls-15{fill:url(#linear-gradient-4);}.cls-16{fill:#010101;}.cls-17{fill:#102327;}.cls-18{fill:#bebebe;}.cls-19{fill:#eaeaea;}.cls-20{fill:#2f5461;}.cls-21{fill:#5793a5;}.cls-22{fill:#989898;}.cls-23{fill:url(#linear-gradient-5);}.cls-24{fill:#393939;}.cls-25{fill:url(#radial-gradient);}.cls-26{fill:url(#linear-gradient-6);}.cls-27{fill:url(#radial-gradient-2);}.cls-28{fill:url(#radial-gradient-3);}.cls-29{fill:url(#radial-gradient-4);}.cls-30{fill:#a18c72;}.cls-31{fill:#a18c71;}.cls-32{fill:url(#radial-gradient-5);}.cls-33{fill:#b58069;}.cls-34{fill:#a26d59;}.cls-35{fill:#df9b87;}.cls-36{mask:url(#mask);}.cls-37{fill:url(#radial-gradient-6);}.cls-38{fill:#090806;}.cls-39{mask:url(#mask-2);}.cls-40{fill:url(#radial-gradient-7);}.cls-41{stroke:#221f20;stroke-miterlimit:10.35;stroke-width:1.66px;}.cls-42{fill:#221f20;}.cls-43{fill:#232021;}.cls-44{fill:#774b2c;}.cls-45{fill:#fcf4dd;}.cls-46{fill:#f1e8d1;}.cls-47{opacity:0.5;}.cls-48{fill:#9d947f;}.cls-49{fill:#c78e62;}.cls-50{fill:#795741;}.cls-51{fill:#663f26;}.cls-52{fill:#442917;}.cls-53{isolation:isolate;}.cls-54{fill:#30190c;}.cls-55{font-size:38px;fill:#005d52;font-family:Adventuring;}.cls-56{fill:url(#linear-gradient-7);}.cls-57{fill:url(#linear-gradient-8);}.cls-58{fill:#636365;}.cls-59{fill:url(#linear-gradient-9);}.cls-60{fill:url(#linear-gradient-10);}.cls-61{fill:url(#linear-gradient-11);}.cls-62{fill:url(#linear-gradient-12);}</style><linearGradient id="linear-gradient" x1="-708.09" y1="6440.18" x2="-696.51" y2="6519.56" gradientTransform="matrix(1.04, 0, 0, -1.04, 1089.37, 7645.86)" gradientUnits="userSpaceOnUse"><stop offset="0.02" stop-color="#fff"/><stop offset="1" stop-color="#c8c8c8"/></linearGradient><linearGradient id="linear-gradient-2" x1="-844.59" y1="6519.2" x2="-856.16" y2="6439.82" xlink:href="#linear-gradient"/><linearGradient id="linear-gradient-3" x1="-855.19" y1="6537.07" x2="-787.04" y2="6537.07" gradientTransform="matrix(1.04, 0, 0, -1.04, 1089.37, 7645.86)" gradientUnits="userSpaceOnUse"><stop offset="0.01" stop-color="#325a6b"/><stop offset="0.97" stop-color="#294b57"/></linearGradient><linearGradient id="linear-gradient-4" x1="-763.74" y1="6534.07" x2="-698.84" y2="6534.07" xlink:href="#linear-gradient-3"/><linearGradient id="linear-gradient-5" x1="-1025.65" y1="7182.05" x2="-807.1" y2="7264.55" gradientTransform="matrix(1.04, 0, 0, -1.04, 1089.37, 7645.86)" gradientUnits="userSpaceOnUse"><stop offset="0.13" stop-color="#d0d0d0"/><stop offset="0.36" stop-color="#a7a7a7"/><stop offset="0.68" stop-color="#727272"/><stop offset="0.84" stop-color="#5e5e5e"/></linearGradient><radialGradient id="radial-gradient" cx="-694.57" cy="1152.56" r="123.81" gradientTransform="matrix(-1.03, -0.1, -0.1, 1.03, -428.19, -1094.09)" gradientUnits="userSpaceOnUse"><stop offset="0.38" stop-color="#b0b0b0"/><stop offset="0.64" stop-color="#aaabab"/><stop offset="0.99" stop-color="#989e9d"/><stop offset="1" stop-color="#989e9d"/></radialGradient><linearGradient id="linear-gradient-6" x1="-475.94" y1="7305.09" x2="-675.34" y2="7183.42" xlink:href="#linear-gradient-5"/><radialGradient id="radial-gradient-2" cx="-681.72" cy="1153.77" r="123.82" gradientTransform="translate(1040.47 -1094.09) rotate(-5.35) scale(1.04)" xlink:href="#radial-gradient"/><radialGradient id="radial-gradient-3" cx="-972.69" cy="1139.56" r="147.9" gradientTransform="translate(1289.84 -776.1) scale(1.04)" gradientUnits="userSpaceOnUse"><stop offset="0.38" stop-color="#d0d0d0"/><stop offset="0.53" stop-color="#cacaca"/><stop offset="0.73" stop-color="#b8bbba"/><stop offset="0.97" stop-color="#9ca1a1"/><stop offset="1" stop-color="#989e9d"/></radialGradient><radialGradient id="radial-gradient-4" cx="-794.22" cy="-2279.16" r="172.08" gradientTransform="matrix(1.03, -0.06, 0.03, 0.49, 1177.91, 1545.39)" gradientUnits="userSpaceOnUse"><stop offset="0.02" stop-color="#fff"/><stop offset="0.46" stop-color="#fdfdfd"/><stop offset="0.64" stop-color="#f6f6f6"/><stop offset="0.78" stop-color="#e9e9e9"/><stop offset="0.89" stop-color="#d8d8d8"/><stop offset="0.97" stop-color="#c8c8c8"/></radialGradient><radialGradient id="radial-gradient-5" cx="-2089.98" cy="5930.16" r="26.03" gradientTransform="matrix(-0.97, 0.37, -0.64, -1.69, 2068.84, 11196.9)" gradientUnits="userSpaceOnUse"><stop offset="0" stop-color="#e0e0e0"/><stop offset="0.88" stop-color="#cecece"/></radialGradient><mask id="mask" x="337.83" y="335.53" width="68.77" height="78.45" maskUnits="userSpaceOnUse"><g transform="translate(-0.31)"><g id="Mask_Mask_3" data-name="Mask Mask 3"><g id="Mask_Duplicate_Items_Folder_Symbol_16_copy_3_0_13_MASK_0_FILL" data-name="Mask Duplicate Items Folder Symbol 16 copy 3 0 13 MASK 0 FILL"><path class="cls-1" d="M371.8,335.53q-14.24.27-24.07,11.91t-9.58,27.91q.25,16.25,10.56,27.54T373.2,414q14.24-.21,24.13-11.91t9.58-27.9q-.32-16.26-10.57-27.55T371.8,335.53Z"/></g></g></g></mask><radialGradient id="radial-gradient-6" cx="-747.53" cy="1148.15" r="26.71" gradientTransform="translate(1059.32 -863.3) rotate(-4.14) scale(1.04)" gradientUnits="userSpaceOnUse"><stop offset="0" stop-color="#fff"/><stop offset="0.16" stop-color="#f7fbfc"/><stop offset="0.41" stop-color="#dfeef6"/><stop offset="0.72" stop-color="#badbea"/><stop offset="0.98" stop-color="#94c7df"/></radialGradient><mask id="mask-2" x="196.39" y="335.53" width="68.77" height="78.45" maskUnits="userSpaceOnUse"><g transform="translate(-0.31)"><g id="Mask_Mask_4" data-name="Mask Mask 4"><g id="Mask_Duplicate_Items_Folder_Symbol_16_copy_3_0_10_MASK_0_FILL" data-name="Mask Duplicate Items Folder Symbol 16 copy 3 0 10 MASK 0 FILL"><path class="cls-1" d="M196.71,374.16q-.27,16.24,9.58,27.9T230.41,414q14.24.25,24.54-11.08t10.51-27.54q.32-16.22-9.58-27.91t-24.12-11.91q-14.19-.21-24.49,11.08T196.71,374.16Z"/></g></g></g></mask><radialGradient id="radial-gradient-7" cx="-681.72" cy="1153.73" r="26.7" gradientTransform="matrix(1.03, -0.1, 0.1, 1.03, 820.63, -876.95)" xlink:href="#radial-gradient-6"/><linearGradient id="linear-gradient-7" x1="44.81" y1="679.67" x2="-7.89" y2="682.94" gradientUnits="userSpaceOnUse"><stop offset="0.02" stop-color="#fff"/><stop offset="0.85" stop-color="#c7c7c7"/></linearGradient><linearGradient id="linear-gradient-8" x1="46.26" y1="703.65" x2="-6.46" y2="706.92" xlink:href="#linear-gradient-7"/><linearGradient id="linear-gradient-9" x1="47.51" y1="724.38" x2="-5.24" y2="727.65" xlink:href="#linear-gradient-7"/><linearGradient id="linear-gradient-10" x1="-4638.59" y1="679.67" x2="-4691.28" y2="682.94" gradientTransform="matrix(-1, 0, 0, 1, -4125.09, 0)" xlink:href="#linear-gradient-7"/><linearGradient id="linear-gradient-11" x1="-4637.14" y1="703.65" x2="-4689.86" y2="706.92" gradientTransform="matrix(-1, 0, 0, 1, -4125.09, 0)" xlink:href="#linear-gradient-7"/><linearGradient id="linear-gradient-12" x1="-4635.89" y1="724.38" x2="-4688.63" y2="727.65" gradientTransform="matrix(-1, 0, 0, 1, -4125.09, 0)" xlink:href="#linear-gradient-7"/></defs><title>Asset 67</title><g id="Layer_2" data-name="Layer 2"><g id="Layer_2-2" data-name="Layer 2"><g id="Duplicate_Items_Folder_Symbol_8_copy_4_0_Layer0_0_MEMBER_0_MEMBER_0_FILL" data-name="Duplicate Items Folder Symbol 8 copy 4 0 Layer0 0 MEMBER 0 MEMBER 0 FILL"><path class="cls-2" d="M223.8,581.93a74.37,74.37,0,0,0-8.66-13.37q-4.6-5.59-9.73-3.65a29.32,29.32,0,0,0-5.75,5.36,201.91,201.91,0,0,0-15.47,17.54q-10.75,13.61-21.39,34.74-9.63,19.22-20.92,48.23a56.91,56.91,0,0,0,13.73,10.66,65.44,65.44,0,0,0,37.76,9.21q12.51-26.61,23-49.77a116.62,116.62,0,0,0,10.11-33.47Q228.63,591.21,223.8,581.93Z" transform="translate(-0.31)"/></g><g id="Duplicate_Items_Folder_Symbol_8_copy_4_0_Layer0_0_MEMBER_0_MEMBER_1_FILL" data-name="Duplicate Items Folder Symbol 8 copy 4 0 Layer0 0 MEMBER 0 MEMBER 1 FILL"><path class="cls-2" d="M192.78,665.5a27.69,27.69,0,0,1-32.24,39.75,27.7,27.7,0,1,1,32.24-39.75Z" transform="translate(-0.31)"/></g><path id="Duplicate_Items_Folder_Symbol_8_copy_4_0_Layer0_0_MEMBER_1_MEMBER_0_MEMBER_0_1_STROKES" data-name="Duplicate Items Folder Symbol 8 copy 4 0 Layer0 0 MEMBER 1 MEMBER 0 MEMBER 0 1 STROKES" class="cls-3" d="M192.5,692.61q13.47-28.71,24-51.83" transform="translate(-0.31)"/><g id="Duplicate_Items_Folder_Symbol_8_copy_4_0_Layer0_0_MEMBER_1_MEMBER_0_MEMBER_1_MEMBER_0_MEMBER_0_MEMBER_0_FILL" data-name="Duplicate Items Folder Symbol 8 copy 4 0 Layer0 0 MEMBER 1 MEMBER 0 MEMBER 1 MEMBER 0 MEMBER 0 MEMBER 0 FILL"><path class="cls-4" d="M215.62,578.74a59.46,59.46,0,0,1,3.55,12.89,123.68,123.68,0,0,1,1.7,19.68q0,7.66-.36,11.69A98.65,98.65,0,0,1,219,635.53c0,.34-.3,1.4-.74,3.17,0,.17-.21.7-.5,1.59L200.91,675.6q-4.92,10.08-8.06,16.28,2.72-6.4,7.25-16.64l15.72-35,.22-.69c.26-.76.41-1.22.45-1.39.42-1.67.66-2.69.72-3.07a112.74,112.74,0,0,0,1.57-12.25q.25-3.61.55-11.6a130.23,130.23,0,0,0-1.08-19.57,67.49,67.49,0,0,0-2.87-12.88l-1.87-4.47,1.26,2.45A12.57,12.57,0,0,1,215.62,578.74Z" transform="translate(-0.31)"/></g><g id="Duplicate_Items_Folder_Symbol_3_copy_6_0_Layer0_0_MEMBER_0_MEMBER_0_FILL" data-name="Duplicate Items Folder Symbol 3 copy 6 0 Layer0 0 MEMBER 0 MEMBER 0 FILL"><path class="cls-2" d="M368.25,590.81q-5.16,9.09-3.61,25.38A116.8,116.8,0,0,0,373.5,650q9.75,23.49,21.27,50.58a65.42,65.42,0,0,0,38.07-7.87,56.65,56.65,0,0,0,14.1-10.13q-10.26-29.41-19.19-49-9.84-21.46-20.12-35.48A200.24,200.24,0,0,0,392.79,580l-5.57-5.54a33.79,33.79,0,0,0-6.91,3.58A37.09,37.09,0,0,0,368.25,590.81Z" transform="translate(-0.31)"/></g><g id="Duplicate_Items_Folder_Symbol_3_copy_6_0_Layer0_0_MEMBER_0_MEMBER_1_FILL" data-name="Duplicate Items Folder Symbol 3 copy 6 0 Layer0 0 MEMBER 0 MEMBER 1 FILL"><path class="cls-2" d="M396.26,675.42a27.72,27.72,0,1,0,16.93-12.74A26.7,26.7,0,0,0,396.26,675.42Z" transform="translate(-0.31)"/></g><path id="Duplicate_Items_Folder_Symbol_3_copy_6_0_Layer0_0_MEMBER_1_MEMBER_0_MEMBER_0_1_STROKES" data-name="Duplicate Items Folder Symbol 3 copy 6 0 Layer0 0 MEMBER 1 MEMBER 0 MEMBER 0 1 STROKES" class="cls-5" d="M395.68,702.64Q383.25,673.48,373.5,650" transform="translate(-0.31)"/><g id="Duplicate_Items_Folder_Symbol_3_copy_6_0_Layer0_0_MEMBER_1_MEMBER_0_MEMBER_1_MEMBER_0_MEMBER_0_MEMBER_0_FILL" data-name="Duplicate Items Folder Symbol 3 copy 6 0 Layer0 0 MEMBER 1 MEMBER 0 MEMBER 1 MEMBER 0 MEMBER 0 MEMBER 0 FILL"><path class="cls-4" d="M376.73,588.12a59.33,59.33,0,0,0-4,12.76,123.54,123.54,0,0,0-2.4,19.61q-.22,7.66-.05,11.71a96.42,96.42,0,0,0,1.08,12.58c0,.34.25,1.41.62,3.2,0,.17.19.7.45,1.6L388,685.49q4.56,10.26,7.48,16.57-2.49-6.51-6.65-16.9l-14.47-35.51-.2-.7c-.23-.76-.37-1.23-.4-1.4-.36-1.69-.56-2.72-.61-3.1a113.22,113.22,0,0,1-1.13-12.3q-.14-3.63-.13-11.62A128.14,128.14,0,0,1,373.64,601,67.73,67.73,0,0,1,377,588.22l2-4.4-1.34,2.41A11.26,11.26,0,0,0,376.73,588.12Z" transform="translate(-0.31)"/></g><g id="Duplicate_Items_Folder_Symbol_15_copy_4_0_Layer0_0_MEMBER_0_FILL" data-name="Duplicate Items Folder Symbol 15 copy 4 0 Layer0 0 MEMBER 0 FILL"><path class="cls-6" d="M352.13,913.22l-12.79-4.46a16.78,16.78,0,0,0-6.78-9.88q-4.6-3.27-8.8-2.44a14.74,14.74,0,0,0-7.3,4.09,20.15,20.15,0,0,0-5,7.51A57.63,57.63,0,0,0,308,925.43a81.08,81.08,0,0,0,1,17.81l8.29,3.84q10.35,4.54,20.5,8.23,32.57,11.81,51.31,10.46t23.4-7.56a5.92,5.92,0,0,0,1.29-4.09l-.41-1.81a53.09,53.09,0,0,0-5.13-17Q400,918.34,384,918A126.18,126.18,0,0,1,352.13,913.22Z" transform="translate(-0.31)"/></g><g id="Duplicate_Items_Folder_Symbol_15_copy_4_0_Layer0_0_MEMBER_1_FILL" data-name="Duplicate Items Folder Symbol 15 copy 4 0 Layer0 0 MEMBER 1 FILL"><path class="cls-7" d="M352.13,913.22l-12.79-4.46a16.78,16.78,0,0,0-6.78-9.88q-4.6-3.27-8.8-2.44a14.74,14.74,0,0,0-7.3,4.09,20.15,20.15,0,0,0-5,7.51A57.63,57.63,0,0,0,308,925.43a81.08,81.08,0,0,0,1,17.81l8.29,3.84q10.35,4.54,20.5,8.23,32.57,11.81,51.31,10.46t23.4-7.56a5.92,5.92,0,0,0,1.29-4.09l-.41-1.81a53.09,53.09,0,0,0-5.13-17Q400,918.34,384,918A126.18,126.18,0,0,1,352.13,913.22Z" transform="translate(-0.31)"/></g><g id="Duplicate_Items_Folder_Symbol_15_copy_4_0_Layer0_0_MEMBER_2_FILL" data-name="Duplicate Items Folder Symbol 15 copy 4 0 Layer0 0 MEMBER 2 FILL"><path class="cls-8" d="M326,939q-12.44-2.6-18-4.3a75.7,75.7,0,0,0,1,8.59l8.29,3.84q10.35,4.54,20.5,8.23,32.57,11.81,51.31,10.46t23.4-7.56a5.92,5.92,0,0,0,1.29-4.09l-.41-1.81A74.93,74.93,0,0,0,411.2,943q-3-10.1-7.14-14.55a10.36,10.36,0,0,0-6.58.15,7.35,7.35,0,0,0-4.24,4.72,13.07,13.07,0,0,0-18.74.77,14.83,14.83,0,0,0-9.22-1.5,15,15,0,0,0-8.49,4l-1.71,1.81a16.87,16.87,0,0,1-1.86,1.66q-3.42,2.49-10.46,1.76Q338.31,941.48,326,939Z" transform="translate(-0.31)"/></g><path id="Duplicate_Items_Folder_Symbol_15_copy_4_0_Layer0_0_MEMBER_3_1_STROKES" data-name="Duplicate Items Folder Symbol 15 copy 4 0 Layer0 0 MEMBER 3 1 STROKES" class="cls-9" d="M374.5,934.13q4.25,3.48,6.62,14.29,2.24,10.2.93,17.24" transform="translate(-0.31)"/><path id="Duplicate_Items_Folder_Symbol_15_copy_4_0_Layer0_0_MEMBER_4_1_STROKES" data-name="Duplicate Items Folder Symbol 15 copy 4 0 Layer0 0 MEMBER 4 1 STROKES" class="cls-9" d="M391.68,932q6.94,3.78,9.79,12.94a37.75,37.75,0,0,1,1,18.18" transform="translate(-0.31)"/><g id="Duplicate_Items_Folder_Symbol_15_copy_4_0_Layer0_0_MEMBER_5_MEMBER_0_MEMBER_0_FILL" data-name="Duplicate Items Folder Symbol 15 copy 4 0 Layer0 0 MEMBER 5 MEMBER 0 MEMBER 0 FILL"><path class="cls-10" d="M381.49,919l3.57.16,3.1.36a15.14,15.14,0,0,1,2.59.52l1,.21,2.48.77L392,919.69l-1-.42c-1.31-.55-2.14-.88-2.49-1l-3.21-.83a27.46,27.46,0,0,0-3.72-.57,35.94,35.94,0,0,0-8.65.52,39.6,39.6,0,0,0-14.34,6,35.9,35.9,0,0,0-3.73,2.84l-1.29,1.14,5.59-2.9a60.25,60.25,0,0,1,14.24-4.66A49.58,49.58,0,0,1,381.49,919Z" transform="translate(-0.31)"/></g><g id="Duplicate_Items_Folder_Symbol_14_copy_3_0_Layer0_0_MEMBER_0_FILL" data-name="Duplicate Items Folder Symbol 14 copy 3 0 Layer0 0 MEMBER 0 FILL"><path class="cls-6" d="M257,908a20.15,20.15,0,0,0-5-7.51,14.74,14.74,0,0,0-7.3-4.09q-4.2-.83-8.8,2.44a16.78,16.78,0,0,0-6.78,9.88,84.63,84.63,0,0,1-12.79,4.46A126.18,126.18,0,0,1,184.44,918q-15.9.32-24.23,17.29a53.09,53.09,0,0,0-5.13,17l-.41,1.81a5.92,5.92,0,0,0,1.29,4.09q4.6,6.21,23.4,7.56t51.31-10.46a290.56,290.56,0,0,0,28.79-12.07,79.71,79.71,0,0,0,1-17.81A56.76,56.76,0,0,0,257,908Z" transform="translate(-0.31)"/></g><g id="Duplicate_Items_Folder_Symbol_14_copy_3_0_Layer0_0_MEMBER_1_FILL" data-name="Duplicate Items Folder Symbol 14 copy 3 0 Layer0 0 MEMBER 1 FILL"><path class="cls-7" d="M257,908a20.15,20.15,0,0,0-5-7.51,14.74,14.74,0,0,0-7.3-4.09q-4.2-.83-8.8,2.44a16.78,16.78,0,0,0-6.78,9.88,84.63,84.63,0,0,1-12.79,4.46A126.18,126.18,0,0,1,184.44,918q-15.9.32-24.23,17.29a53.09,53.09,0,0,0-5.13,17l-.41,1.81a5.92,5.92,0,0,0,1.29,4.09q4.6,6.21,23.4,7.56t51.31-10.46a290.56,290.56,0,0,0,28.79-12.07,79.71,79.71,0,0,0,1-17.81A56.76,56.76,0,0,0,257,908Z" transform="translate(-0.31)"/></g><g id="Duplicate_Items_Folder_Symbol_14_copy_3_0_Layer0_0_MEMBER_2_FILL" data-name="Duplicate Items Folder Symbol 14 copy 3 0 Layer0 0 MEMBER 2 FILL"><path class="cls-11" d="M259.46,943.24a75.7,75.7,0,0,0,1-8.59q-5.6,1.71-18,4.3-12.27,2.53-16.72,2.95-7,.72-10.46-1.76a16,16,0,0,1-1.86-1.66c-1-1.14-1.61-1.74-1.71-1.81A15.69,15.69,0,0,0,194,934.13a12,12,0,0,0-9.21-4.35,11.84,11.84,0,0,0-9.53,3.58,7.35,7.35,0,0,0-4.24-4.72,10.52,10.52,0,0,0-6.63-.15q-4.09,4.46-7.09,14.55a73.17,73.17,0,0,0-2.18,9.27l-.41,1.81a5.92,5.92,0,0,0,1.29,4.09q4.6,6.21,23.4,7.56t51.31-10.46A290.56,290.56,0,0,0,259.46,943.24Z" transform="translate(-0.31)"/></g><path id="Duplicate_Items_Folder_Symbol_14_copy_3_0_Layer0_0_MEMBER_3_1_STROKES" data-name="Duplicate Items Folder Symbol 14 copy 3 0 Layer0 0 MEMBER 3 1 STROKES" class="cls-9" d="M194,934.13q-4.25,3.48-6.62,14.29-2.24,10.2-.94,17.24" transform="translate(-0.31)"/><path id="Duplicate_Items_Folder_Symbol_14_copy_3_0_Layer0_0_MEMBER_4_1_STROKES" data-name="Duplicate Items Folder Symbol 14 copy 3 0 Layer0 0 MEMBER 4 1 STROKES" class="cls-9" d="M176.77,932Q169.84,935.79,167,945a38.5,38.5,0,0,0-1,18.18" transform="translate(-0.31)"/><g id="Duplicate_Items_Folder_Symbol_14_copy_3_0_Layer0_0_MEMBER_5_MEMBER_0_MEMBER_0_FILL" data-name="Duplicate Items Folder Symbol 14 copy 3 0 Layer0 0 MEMBER 5 MEMBER 0 MEMBER 0 FILL"><path class="cls-10" d="M213.64,926.26a35.9,35.9,0,0,0-3.73-2.84,39.6,39.6,0,0,0-14.34-6,35.94,35.94,0,0,0-8.65-.52,30.22,30.22,0,0,0-3.78.57l-3.16.83c-.34.1-1.17.43-2.48,1l-1,.42L174.19,921l2.48-.77,1-.21a15.24,15.24,0,0,1,2.58-.52l3.11-.36L187,919a49.82,49.82,0,0,1,8.13.88,61.55,61.55,0,0,1,14.19,4.66l5.64,2.9Z" transform="translate(-0.31)"/></g><g id="Duplicate_Items_Folder_Symbol_12_copy_2_0_Layer0_0_MEMBER_0_MEMBER_0_FILL" data-name="Duplicate Items Folder Symbol 12 copy 2 0 Layer0 0 MEMBER 0 MEMBER 0 FILL"><path class="cls-12" d="M274.42,860.3c-.38-2.34-1-5-1.76-8a41.63,41.63,0,0,0-9.48-17.6q-8.69-9.79-20.5-10.62a36.1,36.1,0,0,0-24.8,7.2q-9.93,7.35-11.18,16.46l-.52,4.3q0,11.85,1.87,33.39.87,10.83,1.81,19.21-.57,3.38-6,11.6A129.79,129.79,0,0,1,221.71,914a43.29,43.29,0,0,1,17.66,3,106.08,106.08,0,0,1,12,6.52q9.1,5.43,8.95,6.47,2.13-11.81,4.92-26.4Q270.84,874.39,274.42,860.3Z" transform="translate(-0.31)"/></g><g id="Duplicate_Items_Folder_Symbol_12_copy_2_0_Layer0_0_MEMBER_1_MEMBER_0_MEMBER_0_FILL" data-name="Duplicate Items Folder Symbol 12 copy 2 0 Layer0 0 MEMBER 1 MEMBER 0 MEMBER 0 FILL"><path class="cls-13" d="M203.9,916.12l-.36.36.42-.31a3.47,3.47,0,0,0,1.08-.93,17.42,17.42,0,0,0,3.11-4.25c.27-.48.83-1.59,1.66-3.31l.77-1.82a2.14,2.14,0,0,1,.93-.15,87.64,87.64,0,0,1,9.22.62,132.09,132.09,0,0,1,16.72,2.95l6.84,1.92-1.71-.88q-1.14-.57-4.77-2.18A62.87,62.87,0,0,0,221,903.9a47.88,47.88,0,0,0-9.63-.26,8.1,8.1,0,0,0-1.35.26l-.77.46-.42.83-1.76,5.23a25,25,0,0,1-2.28,4.61Z" transform="translate(-0.31)"/></g><g id="Duplicate_Items_Folder_Symbol_10_copy_5_0_Layer0_0_MEMBER_0_FILL" data-name="Duplicate Items Folder Symbol 10 copy 5 0 Layer0 0 MEMBER 0 FILL"><path class="cls-14" d="M293.89,807.7a75.37,75.37,0,0,0-6.89-18q-10.35-20.1-27.49-30.65a70.72,70.72,0,0,0-37.59-10.62,72.1,72.1,0,0,0-12.37,1l-4.66,1a341.45,341.45,0,0,0-2.18,49.5q.47,16.88,3.21,46.23l.26,5.8q2.07,12.69,15.48,19.21a46.93,46.93,0,0,0,25.47,4.4q12.64-1.14,21.08-7.82a29.85,29.85,0,0,0,4.55-4.5l1.4-2q.36-1,8.59-27Q288.35,816.72,293.89,807.7Z" transform="translate(-0.31)"/></g><g id="Duplicate_Items_Folder_Symbol_13_copy_4_0_Layer0_0_MEMBER_0_MEMBER_0_FILL" data-name="Duplicate Items Folder Symbol 13 copy 4 0 Layer0 0 MEMBER 0 MEMBER 0 FILL"><path class="cls-15" d="M364.5,851.76A38.82,38.82,0,0,0,354,841.92a41.47,41.47,0,0,0-30.9-6.41q-13.83,2.32-20.56,15a33.66,33.66,0,0,0-4,12.16q4.09,22.93,8.7,62.7l36.09-10a33.4,33.4,0,0,1,10.82-1.24l11.6,2q-4.92-12.48-5.34-15.9Q363.43,870.66,364.5,851.76Z" transform="translate(-0.31)"/></g><g id="Duplicate_Items_Folder_Symbol_13_copy_4_0_Layer0_0_MEMBER_1_MEMBER_0_MEMBER_0_FILL" data-name="Duplicate Items Folder Symbol 13 copy 4 0 Layer0 0 MEMBER 1 MEMBER 0 MEMBER 0 FILL"><path class="cls-13" d="M335.51,906q4.56-1.24,17.66-4.76l6.05-1.71h.16l.1.1.16.57.41,1.09q1.24,3.78,2.74,7.76l2.75,7c-.35-1.9-.86-4.37-1.55-7.41l-2.44-9.78-.2-.47L361,898a2.31,2.31,0,0,0-1-.63,4.21,4.21,0,0,0-1.09-.1l-.82.16-.26.1-.31.05-5.08,1.35a166.11,166.11,0,0,0-17.34,5.9L328.21,908Z" transform="translate(-0.31)"/></g><g id="Duplicate_Items_Folder_Symbol_11_copy_0_Layer0_0_MEMBER_0_FILL" data-name="Duplicate Items Folder Symbol 11 copy 0 Layer0 0 MEMBER 0 FILL"><path class="cls-14" d="M289.74,789.69a77,77,0,0,0-6.93,18q5.58,9,9.57,27.18,1.1,4.92,3,14.6,1.71,8.4,3.15,13.15l2,1.76a45.91,45.91,0,0,0,6,4,55.31,55.31,0,0,0,23,7.2q12.88,1.18,22.05-4.61,9.94-6.25,12.89-19.26l.57-5.75q3-19.31,5.18-59.33l1.55-36.19a59.08,59.08,0,0,0-17-2.07A70.72,70.72,0,0,0,317.23,759Q300.1,769.6,289.74,789.69Z" transform="translate(-0.31)"/></g><g id="Duplicate_Items_Folder_Symbol_9_copy_4_0_Layer0_0_MEMBER_0_FILL" data-name="Duplicate Items Folder Symbol 9 copy 4 0 Layer0 0 MEMBER 0 FILL"><path class="cls-14" d="M357.46,751.74l-79.52-17.87-60.52,29.72,40.85,58.92a91.83,91.83,0,0,1,26.09-3.21,89.76,89.76,0,0,1,25.89,4.4Z" transform="translate(-0.31)"/></g><g id="Duplicate_Items_Folder_Symbol_9_copy_4_0_Layer0_0_MEMBER_1_MEMBER_0_MEMBER_0_FILL" data-name="Duplicate Items Folder Symbol 9 copy 4 0 Layer0 0 MEMBER 1 MEMBER 0 MEMBER 0 FILL"><path class="cls-16" d="M284.36,818.11a69.22,69.22,0,0,0-10.36.52,72.21,72.21,0,0,0-8.33,1.6l-3.11.83c-.93.28-1.71.54-2.33.78l-2,.67,7.61-1.09q2.69-.36,8.28-.72c3.17-.14,6.56-.19,10.15-.16s7,.31,10.14.62,6.06.71,8.24,1.09l7.56,1.45-4.2-1.66c-1.48-.48-2.52-.81-3.1-1a76.88,76.88,0,0,0-8.24-2A78.2,78.2,0,0,0,284.36,818.11Z" transform="translate(-0.31)"/></g><g id="Duplicate_Items_Folder_Symbol_2_copy_5_0_Layer6_0_FILL" data-name="Duplicate Items Folder Symbol 2 copy 5 0 Layer6 0 FILL"><path class="cls-2" d="M383.71,596.83q7.26-17.33,2.64-24.28T360,546.15L340,529.63q-19.15-15-47.16-14.19a93.21,93.21,0,0,0-47.63,14.19q-6.89,4.29-24.18,20.29Q201.89,567.68,199.3,574q-.27.68,4.24,18.84,5.34,21.49,6.52,27.7l.83,4.46q.93,14.81.57,27.18-.51,17.7-3.21,49.75-1.71,20.09-3.36,36.19.87,1.82,14.65,8.13,16.67,7.66,30.18,9.16,34.64,3.78,79-2.59a273.83,273.83,0,0,0,30-5.74q12.17-3.17,13.77-5.49-.3-4.67-1-27.29-.68-23.5-.93-27.9a271.35,271.35,0,0,1,4.71-65.86Q376.47,614.17,383.71,596.83Z" transform="translate(-0.31)"/></g><g id="Duplicate_Items_Folder_Symbol_2_copy_5_0_Layer5_0_FILL" data-name="Duplicate Items Folder Symbol 2 copy 5 0 Layer5 0 FILL"><path class="cls-17" d="M289,769.18a275,275,0,0,0,44.94-3.88,231.35,231.35,0,0,0,41-10.77,36.74,36.74,0,0,0,.21-6.31,95.6,95.6,0,0,0-1.3-18.38q-38.78,15.74-85.27,16.93-46.28.26-85.73-14.29a95,95,0,0,0-.78,18.43,38,38,0,0,0,.42,6.26,226.15,226.15,0,0,0,41.36,9.53A279.92,279.92,0,0,0,289,769.18Z" transform="translate(-0.31)"/></g><g id="Duplicate_Items_Folder_Symbol_64_copy_3_0_Layer0_0_MEMBER_0_MEMBER_0_FILL" data-name="Duplicate Items Folder Symbol 64 copy 3 0 Layer0 0 MEMBER 0 MEMBER 0 FILL"><path class="cls-18" d="M299.22,765.61a57.81,57.81,0,0,0,.2-6.94c0-1.72-.19-4.35-.46-7.87-.14-2-.61-3.34-1.4-4a3.29,3.29,0,0,0-1.86-.83l-2.07-.16-20.14-.15c-1.14,0-2,.08-2.54.15a7.35,7.35,0,0,0-1.55.16h-.26l-.52,0q-2.75.42-3.11,4.81a121.54,121.54,0,0,0-.36,13,33.3,33.3,0,0,0,.36,4.5c.38,2.14,1.11,3.32,2.18,3.52,3.41.63,8.68.88,15.79.78a94.46,94.46,0,0,0,13.3-.78c.94-.13,1.61-1,2-2.64A24.58,24.58,0,0,0,299.22,765.61Z" transform="translate(-0.31)"/></g><g id="Duplicate_Items_Folder_Symbol_64_copy_3_0_Layer0_0_MEMBER_0_MEMBER_1_MEMBER_0_FILL" data-name="Duplicate Items Folder Symbol 64 copy 3 0 Layer0 0 MEMBER 0 MEMBER 1 MEMBER 0 FILL"><path class="cls-19" d="M296.11,746a27.22,27.22,0,0,0-3.67-.36A209.78,209.78,0,0,1,265.2,766a18.9,18.9,0,0,0,.37,2.64A220.65,220.65,0,0,0,296.11,746Z" transform="translate(-0.31)"/></g><g id="Duplicate_Items_Folder_Symbol_64_copy_3_0_Layer0_0_MEMBER_1_FILL" data-name="Duplicate Items Folder Symbol 64 copy 3 0 Layer0 0 MEMBER 1 FILL"><path class="cls-20" d="M217.31,735.38a18,18,0,0,0-4.14-1.09,16.58,16.58,0,0,0-4.66-.36q-1.19,1-1.66,12.94-.51,11.75.32,13.72c.37.41,2,.85,4.76,1.29s4.11.61,4.24.47q0-4.82.06-10.56A116.72,116.72,0,0,1,217.31,735.38Z" transform="translate(-0.31)"/></g><g id="Duplicate_Items_Folder_Symbol_64_copy_3_0_Layer0_0_MEMBER_2_FILL" data-name="Duplicate Items Folder Symbol 64 copy 3 0 Layer0 0 MEMBER 2 FILL"><path class="cls-20" d="M320.5,742.88a18.67,18.67,0,0,0-4.2,1.09,115.56,115.56,0,0,1,1.09,16.41q.11,5.7.1,10.51c.11.17,1.5,0,4.2-.41s4.38-.9,4.76-1.35q.82-2,.36-13.67-.51-12-1.71-12.94A16.14,16.14,0,0,0,320.5,742.88Z" transform="translate(-0.31)"/></g><g id="Duplicate_Items_Folder_Symbol_64_copy_3_0_Layer0_0_MEMBER_3_FILL" data-name="Duplicate Items Folder Symbol 64 copy 3 0 Layer0 0 MEMBER 3 FILL"><path class="cls-20" d="M357.93,733.67a17.53,17.53,0,0,0-3.94,1.6q1.56,4.71,2.39,16.05.47,5.64.67,10.41c.14.14,1.5-.21,4.09-1s4.21-1.48,4.55-2q.57-2.18-.67-13.57-1.29-11.7-2.54-12.53A20.3,20.3,0,0,0,357.93,733.67Z" transform="translate(-0.31)"/></g><g id="Duplicate_Items_Folder_Symbol_64_copy_3_0_Layer0_0_MEMBER_4_FILL" data-name="Duplicate Items Folder Symbol 64 copy 3 0 Layer0 0 MEMBER 4 FILL"><path class="cls-20" d="M247.34,741.54a17.09,17.09,0,0,0-4.66-.37q-1.19,1-1.66,13-.51,11.75.32,13.72.87.93,9,1.76,0-4.82.06-10.56a117,117,0,0,1,1.08-16.42A18.68,18.68,0,0,0,247.34,741.54Z" transform="translate(-0.31)"/></g><g id="Duplicate_Items_Folder_Symbol_2_copy_5_0_Layer3_0_STROKES_1_FILL" data-name="Duplicate Items Folder Symbol 2 copy 5 0 Layer3 0 STROKES 1 FILL"><path class="cls-4" d="M287.36,563.49l.62-5.33c.07-.07,0-.11-.05-.11s-.1,0-.1.05l-1.3,8.55-2.79,46.23-.47,17.66-.36,64.82q.1,8.89.31,17l2.23,46.59c0,.11,0,.12.1.05s.12,0,.05-.1L285.29,626Z" transform="translate(-0.31)"/></g><g id="Duplicate_Items_Folder_Symbol_2_copy_5_0_Layer2_0_STROKES_1_FILL" data-name="Duplicate Items Folder Symbol 2 copy 5 0 Layer2 0 STROKES 1 FILL"><path class="cls-4" d="M377.71,610.5l-.37.72-4.19,14.09-3,19.15-.37,5.13q-.25,3.78-.46,11.44-.1,3.88-.11,11.75l1.4,43.39c.14,2.48.33,5.16.57,8,.14,1.49.36,3.56.68,6.22l.77,5.38c0,.1,0,.12.11.05s.12,0,.05-.1L371.34,661q.11-5.85.31-11.34L372,643l.05-.31v-.31l.93-8.08c0-.41.25-1.93.63-4.55l3.1-15.69,1.14-3.47c.07-.07.05-.1-.05-.1s-.1-.05-.1,0m-168.53-2.18c-.1,0-.12,0-.05.11l.88,10.15.47,31-.31,12.68,0,.21v.31l-4.25,55.34q-.31,6.27-.36,8.34-.21,5-.21,6.42l-.05,5.59c0,.07,0,.1.1.1l.05,0,6.74-76,.05-.21v-1q.15-6,.15-11.75c0-2.69-.07-6.39-.2-11.08l-.32-7.51-2.53-22.62C209.29,608.27,209.25,608.26,209.18,608.32Z" transform="translate(-0.31)"/></g><g id="Duplicate_Items_Folder_Symbol_63_copy_3_0_Layer0_0_MEMBER_0_MEMBER_0_FILL" data-name="Duplicate Items Folder Symbol 63 copy 3 0 Layer0 0 MEMBER 0 MEMBER 0 FILL"><path class="cls-14" d="M267.33,566.75q5,3.78,7.55,4.4l5.7-6.06q-14.13-8.85-25.94-15.94l-9-5.33Q257.39,559.3,267.33,566.75Z" transform="translate(-0.31)"/></g><g id="Duplicate_Items_Folder_Symbol_63_copy_3_0_Layer0_0_MEMBER_0_MEMBER_1_FILL" data-name="Duplicate Items Folder Symbol 63 copy 3 0 Layer0 0 MEMBER 0 MEMBER 1 FILL"><path class="cls-14" d="M302.12,679.51q-4.61-57.25-9.22-88.37L281.25,591l-5.38,41.47q-5.6,50.74-6.84,96.92,5.34,14.4,16.78,32.51a2.29,2.29,0,0,0,2.12,1.35,2.14,2.14,0,0,0,2.12-1.24,115.88,115.88,0,0,0,15.69-31.43Q304.39,708.15,302.12,679.51Z" transform="translate(-0.31)"/></g><g id="Duplicate_Items_Folder_Symbol_63_copy_3_0_Layer0_0_MEMBER_0_MEMBER_2_FILL" data-name="Duplicate Items Folder Symbol 63 copy 3 0 Layer0 0 MEMBER 0 MEMBER 2 FILL"><path class="cls-14" d="M273.12,568l8.13,23,11.65.16,12-22.16a33.93,33.93,0,0,0-16.25-5.39Q279.39,563.08,273.12,568Z" transform="translate(-0.31)"/></g><g id="Duplicate_Items_Folder_Symbol_63_copy_3_0_Layer0_0_MEMBER_0_MEMBER_3_MEMBER_0_MEMBER_0_FILL" data-name="Duplicate Items Folder Symbol 63 copy 3 0 Layer0 0 MEMBER 0 MEMBER 3 MEMBER 0 MEMBER 0 FILL"><path class="cls-13" d="M283,591.29a34.71,34.71,0,0,0,4.19.36,26.25,26.25,0,0,0,5.91-.51,23.87,23.87,0,0,0-5.91-.68,25.27,25.27,0,0,0-4.19.26l-1.71.26Z" transform="translate(-0.31)"/></g><g id="Duplicate_Items_Folder_Symbol_63_copy_3_0_Layer0_0_MEMBER_0_MEMBER_4_FILL" data-name="Duplicate Items Folder Symbol 63 copy 3 0 Layer0 0 MEMBER 0 MEMBER 4 FILL"><path class="cls-14" d="M302.07,574.41q8.54-4.08,18.48-9.78,3.78-2.18,12.48-8.13,8.39-5.81,8.8-6.42,1.44-2.18-3.11-7.56-3.83,1-19.83,11.13-11.81,7.62-20.55,12.32Z" transform="translate(-0.31)"/></g><g id="Duplicate_Items_Folder_Symbol_63_copy_3_0_Layer0_0_MEMBER_0_MEMBER_5_MEMBER_0_MEMBER_0_FILL" data-name="Duplicate Items Folder Symbol 63 copy 3 0 Layer0 0 MEMBER 0 MEMBER 5 MEMBER 0 MEMBER 0 FILL"><path class="cls-13" d="M299.06,567.17l-.77-1.14.2,1.39a14.18,14.18,0,0,0,1.19,3.16,11.21,11.21,0,0,0,2,2.69,7.83,7.83,0,0,0,1.09.94l-2-4.2C300.32,569.18,299.75,568.24,299.06,567.17Z" transform="translate(-0.31)"/></g><g id="Duplicate_Items_Folder_Symbol_63_copy_3_0_Layer0_0_MEMBER_0_MEMBER_6_MEMBER_0_MEMBER_0_FILL" data-name="Duplicate Items Folder Symbol 63 copy 3 0 Layer0 0 MEMBER 0 MEMBER 6 MEMBER 0 MEMBER 0 FILL"><path class="cls-13" d="M278.87,565.51l.88-.93a8.33,8.33,0,0,0-1.24.41,6.45,6.45,0,0,0-2.54,1.92,10.1,10.1,0,0,0-1.55,2.69l-.42,1.24.94-.93c.51-.52,1.17-1.26,2-2.23A17.63,17.63,0,0,1,278.87,565.51Z" transform="translate(-0.31)"/></g><g id="Duplicate_Items_Folder_Symbol_63_copy_3_0_Layer0_0_MEMBER_1_MEMBER_0_FILL" data-name="Duplicate Items Folder Symbol 63 copy 3 0 Layer0 0 MEMBER 1 MEMBER 0 FILL"><path class="cls-21" d="M256.5,556.91l-.1.16a.48.48,0,0,0,0,.36v.16l.21.31.51.41.21.11.26.05.21-.05.2-.16.11-.1.05-.37-.05-.15-.16-.31-.46-.47-.21-.1-.26,0-.26,0Z" transform="translate(-0.31)"/></g><g id="Duplicate_Items_Folder_Symbol_63_copy_3_0_Layer0_0_MEMBER_2_MEMBER_0_FILL" data-name="Duplicate Items Folder Symbol 63 copy 3 0 Layer0 0 MEMBER 2 MEMBER 0 FILL"><path class="cls-21" d="M252.21,548c-.11-.1-.19-.16-.26-.16a.38.38,0,0,0-.31-.05l-.31.05-.26.21-.1.16-.06.41.06.21a3.55,3.55,0,0,0,.2.31l.73.57.31,0,.26,0a.65.65,0,0,0,.26-.21l.1-.15a.46.46,0,0,0,0-.37v-.2Z" transform="translate(-0.31)"/></g><g id="Duplicate_Items_Folder_Symbol_63_copy_3_0_Layer0_0_MEMBER_3_MEMBER_0_FILL" data-name="Duplicate Items Folder Symbol 63 copy 3 0 Layer0 0 MEMBER 3 MEMBER 0 FILL"><path class="cls-21" d="M270.59,563.33a1.79,1.79,0,0,0-.52-1.81,2.4,2.4,0,0,0-1.4-.83,1.4,1.4,0,0,0-1.55.78c-.66,1.07-.33,2,1,2.74S270.21,564.65,270.59,563.33Z" transform="translate(-0.31)"/></g><g id="Duplicate_Items_Folder_Symbol_63_copy_3_0_Layer0_0_MEMBER_4_MEMBER_0_FILL" data-name="Duplicate Items Folder Symbol 63 copy 3 0 Layer0 0 MEMBER 4 MEMBER 0 FILL"><path class="cls-21" d="M260.13,557c.1,1.58.9,2.34,2.38,2.27s2.18-.89,2.07-2.48a2.12,2.12,0,0,0-2.38-2.28Q260,554.58,260.13,557Z" transform="translate(-0.31)"/></g><g id="Duplicate_Items_Folder_Symbol_63_copy_3_0_Layer0_0_MEMBER_5_MEMBER_0_FILL" data-name="Duplicate Items Folder Symbol 63 copy 3 0 Layer0 0 MEMBER 5 MEMBER 0 FILL"><path class="cls-21" d="M286.64,611.69l.05.16a.63.63,0,0,0,.21.31l.15.1.36.1.68-.1.2-.16.11-.25.05-.26-.05-.16-.21-.31-.1-.1-.37,0h-.41l-.26,0-.26.15-.1.21Z" transform="translate(-0.31)"/></g><g id="Duplicate_Items_Folder_Symbol_63_copy_3_0_Layer0_0_MEMBER_6_MEMBER_0_FILL" data-name="Duplicate Items Folder Symbol 63 copy 3 0 Layer0 0 MEMBER 6 MEMBER 0 FILL"><path class="cls-21" d="M283.06,628.46q.06,1.2,1.14,1.14c.73,0,1.07-.43,1-1.19s-.47-1.17-1.19-1.14S283,627.71,283.06,628.46Z" transform="translate(-0.31)"/></g><g id="Duplicate_Items_Folder_Symbol_63_copy_3_0_Layer0_0_MEMBER_7_MEMBER_0_FILL" data-name="Duplicate Items Folder Symbol 63 copy 3 0 Layer0 0 MEMBER 7 MEMBER 0 FILL"><path class="cls-21" d="M292.49,647.93c.1,1.59.89,2.35,2.38,2.28s2.17-.85,2.07-2.43a2.11,2.11,0,0,0-2.38-2.28Q292.33,645.61,292.49,647.93Z" transform="translate(-0.31)"/></g><g id="Duplicate_Items_Folder_Symbol_63_copy_3_0_Layer0_0_MEMBER_8_MEMBER_0_FILL" data-name="Duplicate Items Folder Symbol 63 copy 3 0 Layer0 0 MEMBER 8 MEMBER 0 FILL"><path class="cls-21" d="M279.6,658.75c.1,1.59.89,2.35,2.38,2.28s2.17-.85,2.07-2.43-.9-2.32-2.38-2.28S279.49,657.2,279.6,658.75Z" transform="translate(-0.31)"/></g><g id="Duplicate_Items_Folder_Symbol_63_copy_3_0_Layer0_0_MEMBER_9_MEMBER_0_FILL" data-name="Duplicate Items Folder Symbol 63 copy 3 0 Layer0 0 MEMBER 9 MEMBER 0 FILL"><path class="cls-21" d="M291.35,679.93l.26.51.41.52a2.22,2.22,0,0,0,.73.42l.77.15.57-.1a2,2,0,0,0,.88-.57l.36-.52a1.46,1.46,0,0,0,.16-.57,1.88,1.88,0,0,0-.05-1.14l-.26-.52v-.05h-.05l-.11-.2a3,3,0,0,0-.77-.73,2.35,2.35,0,0,0-1-.26,2.77,2.77,0,0,0-1,.36,1.51,1.51,0,0,0-.67.78l-.11.16v.05a2.91,2.91,0,0,0-.15.57A1.81,1.81,0,0,0,291.35,679.93Z" transform="translate(-0.31)"/></g><g id="Duplicate_Items_Folder_Symbol_63_copy_3_0_Layer0_0_MEMBER_10_MEMBER_0_FILL" data-name="Duplicate Items Folder Symbol 63 copy 3 0 Layer0 0 MEMBER 10 MEMBER 0 FILL"><path class="cls-21" d="M280.58,647.47c.1,1.58.9,2.34,2.38,2.27s2.18-.84,2.07-2.43a2.12,2.12,0,0,0-2.38-2.28C281.17,645.1,280.48,645.91,280.58,647.47Z" transform="translate(-0.31)"/></g><g id="Duplicate_Items_Folder_Symbol_63_copy_3_0_Layer0_0_MEMBER_11_MEMBER_0_FILL" data-name="Duplicate Items Folder Symbol 63 copy 3 0 Layer0 0 MEMBER 11 MEMBER 0 FILL"><path class="cls-21" d="M288.5,635.45q.21,2.38,2.43,2.28T293,635.3a2.17,2.17,0,0,0-2.43-2.28Q288.35,633.13,288.5,635.45Z" transform="translate(-0.31)"/></g><g id="Duplicate_Items_Folder_Symbol_63_copy_3_0_Layer0_0_MEMBER_12_MEMBER_0_FILL" data-name="Duplicate Items Folder Symbol 63 copy 3 0 Layer0 0 MEMBER 12 MEMBER 0 FILL"><path class="cls-21" d="M281.82,617.39a.55.55,0,0,0-.36.2l-.41.42-.16.31-.05.31a.5.5,0,0,0,.1.36.4.4,0,0,0,.16.26l.2.1a.6.6,0,0,0,.42.11h.21a1.12,1.12,0,0,0,.36-.26l.41-.47.11-.31a.42.42,0,0,0,.05-.31l-.05-.31-.21-.26-.16-.1a.71.71,0,0,0-.41-.11Z" transform="translate(-0.31)"/></g><g id="Duplicate_Items_Folder_Symbol_63_copy_3_0_Layer0_0_MEMBER_13_MEMBER_0_FILL" data-name="Duplicate Items Folder Symbol 63 copy 3 0 Layer0 0 MEMBER 13 MEMBER 0 FILL"><path class="cls-21" d="M284.36,601c.1,1.59.9,2.35,2.38,2.28s2.17-.84,2.07-2.43-.9-2.37-2.38-2.33S284.26,599.39,284.36,601Z" transform="translate(-0.31)"/></g><g id="Duplicate_Items_Folder_Symbol_63_copy_3_0_Layer0_0_MEMBER_14_MEMBER_0_FILL" data-name="Duplicate Items Folder Symbol 63 copy 3 0 Layer0 0 MEMBER 14 MEMBER 0 FILL"><path class="cls-21" d="M292.12,623.29c1.49,0,2.18-.85,2.08-2.44a2.17,2.17,0,0,0-2.44-2.27c-1.48.06-2.17.88-2.07,2.43S290.64,623.36,292.12,623.29Z" transform="translate(-0.31)"/></g><g id="Duplicate_Items_Folder_Symbol_63_copy_3_0_Layer0_0_MEMBER_15_MEMBER_0_FILL" data-name="Duplicate Items Folder Symbol 63 copy 3 0 Layer0 0 MEMBER 15 MEMBER 0 FILL"><path class="cls-21" d="M290.73,664.65a.32.32,0,0,0,.36.37c.24,0,.34-.12.31-.37s-.12-.39-.36-.36S290.69,664.41,290.73,664.65Z" transform="translate(-0.31)"/></g><g id="Duplicate_Items_Folder_Symbol_63_copy_3_0_Layer0_0_MEMBER_16_MEMBER_0_FILL" data-name="Duplicate Items Folder Symbol 63 copy 3 0 Layer0 0 MEMBER 16 MEMBER 0 FILL"><path class="cls-21" d="M277.52,679.1c0,.34.16.5.47.46a.41.41,0,0,0,.47-.46c0-.35-.21-.52-.52-.52A.42.42,0,0,0,277.52,679.1Z" transform="translate(-0.31)"/></g><g id="Duplicate_Items_Folder_Symbol_63_copy_3_0_Layer0_0_MEMBER_17_MEMBER_0_FILL" data-name="Duplicate Items Folder Symbol 63 copy 3 0 Layer0 0 MEMBER 17 MEMBER 0 FILL"><path class="cls-21" d="M284.41,693.7a2.32,2.32,0,0,0-.36-.93,1.57,1.57,0,0,0-.73-.68,1.71,1.71,0,0,0-.93-.26,3.78,3.78,0,0,0-.93.32,2.84,2.84,0,0,0-.62.72,2.15,2.15,0,0,0-.21,1,3,3,0,0,0,.31.94l.05.1.31.36a1.37,1.37,0,0,0,.63.36,1.58,1.58,0,0,0,.72.16l.47-.1a1,1,0,0,0,.62-.31l.31-.37.1-.26.05-.05A2.12,2.12,0,0,0,284.41,693.7Z" transform="translate(-0.31)"/></g><g id="Duplicate_Items_Folder_Symbol_63_copy_3_0_Layer0_0_MEMBER_18_MEMBER_0_FILL" data-name="Duplicate Items Folder Symbol 63 copy 3 0 Layer0 0 MEMBER 18 MEMBER 0 FILL"><path class="cls-21" d="M282.44,675.79c0,.41.24.6.62.56s.56-.2.52-.62-.24-.62-.62-.62S282.41,675.37,282.44,675.79Z" transform="translate(-0.31)"/></g><g id="Duplicate_Items_Folder_Symbol_63_copy_3_0_Layer0_0_MEMBER_19_MEMBER_0_FILL" data-name="Duplicate Items Folder Symbol 63 copy 3 0 Layer0 0 MEMBER 19 MEMBER 0 FILL"><path class="cls-21" d="M296.42,698.25a.72.72,0,0,0-.36-.25l-.47-.11a.6.6,0,0,0-.46.16l-.36.26-.21.26a1.37,1.37,0,0,0-.11.62l.06.31.36.57.41.46.42.26a.89.89,0,0,0,.51.05.84.84,0,0,0,.47-.1.92.92,0,0,0,.41-.31l.16-.26a1.43,1.43,0,0,0,.16-.62l-.11-.36a1.08,1.08,0,0,0-.36-.57Z" transform="translate(-0.31)"/></g><g id="Duplicate_Items_Folder_Symbol_63_copy_3_0_Layer0_0_MEMBER_20_MEMBER_0_FILL" data-name="Duplicate Items Folder Symbol 63 copy 3 0 Layer0 0 MEMBER 20 MEMBER 0 FILL"><path class="cls-21" d="M277.16,709.08a1.82,1.82,0,0,0-.62.46,2.06,2.06,0,0,0-.41.73,2,2,0,0,0-.11.88l.11.57a3.08,3.08,0,0,0,.62.93l.46.31a2.07,2.07,0,0,0,1.09.26,1.63,1.63,0,0,0,.83-.21,1.2,1.2,0,0,0,.62-.47,1.13,1.13,0,0,0,.42-.72,1.94,1.94,0,0,0,.1-.83l-.1-.62a2,2,0,0,0-.63-.93l-.46-.31a1.83,1.83,0,0,0-1.09-.26A1.63,1.63,0,0,0,277.16,709.08Z" transform="translate(-0.31)"/></g><g id="Duplicate_Items_Folder_Symbol_63_copy_3_0_Layer0_0_MEMBER_21_MEMBER_0_FILL" data-name="Duplicate Items Folder Symbol 63 copy 3 0 Layer0 0 MEMBER 21 MEMBER 0 FILL"><path class="cls-21" d="M289.17,723.05a3.43,3.43,0,0,0-.36-1.08,2.1,2.1,0,0,0-.83-.73l-.15-.1-.52-.21a1.67,1.67,0,0,0-.83,0,1,1,0,0,0-.52.16,1.73,1.73,0,0,0-.62.46L285,722l-.21.52a1.27,1.27,0,0,0,.06.82,1.21,1.21,0,0,0,.31.83l.1.11a2,2,0,0,0,.83.77,2,2,0,0,0,1.09.26l.57-.1a2.33,2.33,0,0,0,.88-.57,2.43,2.43,0,0,0,.41-.73A1.85,1.85,0,0,0,289.17,723.05Z" transform="translate(-0.31)"/></g><g id="Duplicate_Items_Folder_Symbol_63_copy_3_0_Layer0_0_MEMBER_22_MEMBER_0_FILL" data-name="Duplicate Items Folder Symbol 63 copy 3 0 Layer0 0 MEMBER 22 MEMBER 0 FILL"><path class="cls-21" d="M297.09,713.84q-2.22.1-2.07,2.43c.14,1.59,1,2.35,2.44,2.28s2.17-.85,2.07-2.43A2.17,2.17,0,0,0,297.09,713.84Z" transform="translate(-0.31)"/></g><g id="Duplicate_Items_Folder_Symbol_63_copy_3_0_Layer0_0_MEMBER_23_MEMBER_0_FILL" data-name="Duplicate Items Folder Symbol 63 copy 3 0 Layer0 0 MEMBER 23 MEMBER 0 FILL"><path class="cls-21" d="M293,736.26a1.38,1.38,0,0,0-.15-.42.74.74,0,0,0-.36-.46l-.16-.16a1.71,1.71,0,0,0-.67-.36,1.62,1.62,0,0,0-.62,0l-.21,0a.9.9,0,0,0-.62.41,1.73,1.73,0,0,0-.36.68,2.26,2.26,0,0,0,0,.83,2.23,2.23,0,0,0,.46.67l.16.15.31.21a1.06,1.06,0,0,0,.57.21l.41-.05a.53.53,0,0,0,.26-.06h.05a1.08,1.08,0,0,0,.57-.36l.21-.52.1-.1v-.1A.94.94,0,0,0,293,736.26Z" transform="translate(-0.31)"/></g><g id="Duplicate_Items_Folder_Symbol_63_copy_3_0_Layer0_0_MEMBER_24_MEMBER_0_FILL" data-name="Duplicate Items Folder Symbol 63 copy 3 0 Layer0 0 MEMBER 24 MEMBER 0 FILL"><path class="cls-21" d="M277,681.38c.06.83.48,1.22,1.24,1.19s1.15-.47,1.09-1.3-.45-1.22-1.25-1.19S276.92,680.55,277,681.38Z" transform="translate(-0.31)"/></g><g id="Duplicate_Items_Folder_Symbol_63_copy_3_0_Layer0_0_MEMBER_25_MEMBER_0_FILL" data-name="Duplicate Items Folder Symbol 63 copy 3 0 Layer0 0 MEMBER 25 MEMBER 0 FILL"><path class="cls-21" d="M281.67,675.79c.1,1.58.89,2.34,2.38,2.27s2.17-.84,2.07-2.43a2.12,2.12,0,0,0-2.38-2.28C282.25,673.42,281.56,674.23,281.67,675.79Z" transform="translate(-0.31)"/></g><g id="Duplicate_Items_Folder_Symbol_63_copy_3_0_Layer0_0_MEMBER_26_MEMBER_0_FILL" data-name="Duplicate Items Folder Symbol 63 copy 3 0 Layer0 0 MEMBER 26 MEMBER 0 FILL"><path class="cls-21" d="M289.59,662.79q-2.23.11-2.07,2.43c.1,1.59.89,2.35,2.38,2.28s2.22-.84,2.12-2.43A2.14,2.14,0,0,0,289.59,662.79Z" transform="translate(-0.31)"/></g><g id="Duplicate_Items_Folder_Symbol_63_copy_3_0_Layer0_0_MEMBER_27_MEMBER_0_FILL" data-name="Duplicate Items Folder Symbol 63 copy 3 0 Layer0 0 MEMBER 27 MEMBER 0 FILL"><path class="cls-21" d="M291.71,654.92a.89.89,0,0,0-.26-.47l-.21-.15-.46-.1h-.47a.5.5,0,0,0-.36.1c-.17.07-.28.14-.31.21l-.21.36-.05.36.05.31a1.1,1.1,0,0,0,.31.42l.21.15a.7.7,0,0,0,.52.1l.41-.05a.48.48,0,0,0,.36-.1c.07,0,.18-.07.32-.21s.15-.14.15-.31l.1-.36Z" transform="translate(-0.31)"/></g><g id="Duplicate_Items_Folder_Symbol_63_copy_3_0_Layer0_0_MEMBER_28_MEMBER_0_FILL" data-name="Duplicate Items Folder Symbol 63 copy 3 0 Layer0 0 MEMBER 28 MEMBER 0 FILL"><path class="cls-21" d="M296.37,669.42c0,.51.29.76.78.72a.64.64,0,0,0,.67-.77q0-.78-.78-.78C296.56,668.62,296.34,668.9,296.37,669.42Z" transform="translate(-0.31)"/></g><g id="Duplicate_Items_Folder_Symbol_63_copy_3_0_Layer0_0_MEMBER_29_MEMBER_0_FILL" data-name="Duplicate Items Folder Symbol 63 copy 3 0 Layer0 0 MEMBER 29 MEMBER 0 FILL"><path class="cls-21" d="M279.6,667.45a1.14,1.14,0,0,0-.68-.16l-.46,0a.93.93,0,0,0-.52.16,1,1,0,0,0-.47.31,1.24,1.24,0,0,0-.26.46,1.46,1.46,0,0,0-.1.57l.1.42a1,1,0,0,0,.42.62l.31.21a1.16,1.16,0,0,0,.72.2l1-.2.41-.31.26-.47a1.08,1.08,0,0,0,.05-.57l-.05-.36a1.07,1.07,0,0,0-.41-.62Z" transform="translate(-0.31)"/></g><g id="Duplicate_Items_Folder_Symbol_63_copy_3_0_Layer0_0_MEMBER_30_MEMBER_0_FILL" data-name="Duplicate Items Folder Symbol 63 copy 3 0 Layer0 0 MEMBER 30 MEMBER 0 FILL"><path class="cls-21" d="M281.36,634.42a1.29,1.29,0,0,0-.73,0l-.21.1h-.1l-.1.05a1.27,1.27,0,0,0-.68.42,1.5,1.5,0,0,0-.36.77,1.53,1.53,0,0,0,.05.88,2.08,2.08,0,0,0,.47.73,1.71,1.71,0,0,0,.72.36,1.83,1.83,0,0,0,.88,0,1.87,1.87,0,0,0,.68-.46,1.52,1.52,0,0,0,.36-.73v-.15l.05-.11.05-.2a1.71,1.71,0,0,0-.05-.73,1.07,1.07,0,0,0-.41-.62A1.34,1.34,0,0,0,281.36,634.42Z" transform="translate(-0.31)"/></g><g id="Duplicate_Items_Folder_Symbol_63_copy_3_0_Layer0_0_MEMBER_31_MEMBER_0_FILL" data-name="Duplicate Items Folder Symbol 63 copy 3 0 Layer0 0 MEMBER 31 MEMBER 0 FILL"><path class="cls-21" d="M286.74,595.74l.1-.25L287,595l-.21-.62a.59.59,0,0,0-.36-.31.61.61,0,0,0-.42-.21l-.41-.1a1.09,1.09,0,0,0-.67,0l-.57.36-.21.31a1.59,1.59,0,0,0-.1.67.86.86,0,0,0,.15.52.92.92,0,0,0,.31.41,1.31,1.31,0,0,0,.57.32,3,3,0,0,0,.73,0l.67-.32Z" transform="translate(-0.31)"/></g><g id="Duplicate_Items_Folder_Symbol_63_copy_3_0_Layer0_0_MEMBER_32_MEMBER_0_FILL" data-name="Duplicate Items Folder Symbol 63 copy 3 0 Layer0 0 MEMBER 32 MEMBER 0 FILL"><path class="cls-21" d="M274.88,730.1c.11,1.58.9,2.34,2.39,2.27s2.22-.84,2.12-2.43a2.16,2.16,0,0,0-2.43-2.33C275.47,727.68,274.78,728.51,274.88,730.1Z" transform="translate(-0.31)"/></g><g id="Duplicate_Items_Folder_Symbol_63_copy_3_0_Layer0_0_MEMBER_33_MEMBER_0_FILL" data-name="Duplicate Items Folder Symbol 63 copy 3 0 Layer0 0 MEMBER 33 MEMBER 0 FILL"><path class="cls-21" d="M284.82,748.27c.32,4.76.83,7.12,1.56,7.09s.93-2.42.62-7.14-.88-7.13-1.61-7.1S284.48,743.54,284.82,748.27Z" transform="translate(-0.31)"/></g><g id="Duplicate_Items_Folder_Symbol_63_copy_3_0_Layer0_0_MEMBER_34_MEMBER_0_FILL" data-name="Duplicate Items Folder Symbol 63 copy 3 0 Layer0 0 MEMBER 34 MEMBER 0 FILL"><path class="cls-21" d="M288.55,704.67a2.15,2.15,0,0,0-.62,0,1.58,1.58,0,0,0-.62.21l-.31.26a1.5,1.5,0,0,0-.36.78,1.88,1.88,0,0,0,0,.67.56.56,0,0,0,.15.41l.36.52.06.05.05.11.21.1.2.16.11,0,.05,0h.05a.37.37,0,0,0,.15.05l.11.11.46.1a.25.25,0,0,0,.31,0,.72.72,0,0,0,.47-.16l.41-.46.11-.47v-.1l.05-.42v-.31l-.1-.41v-.1l-.06-.06-.2-.41-.26-.31-.57-.36Z" transform="translate(-0.31)"/></g><g id="Duplicate_Items_Folder_Symbol_63_copy_3_0_Layer0_0_MEMBER_35_MEMBER_0_FILL" data-name="Duplicate Items Folder Symbol 63 copy 3 0 Layer0 0 MEMBER 35 MEMBER 0 FILL"><path class="cls-21" d="M300.2,726l-.26-.2a1.17,1.17,0,0,0-.67-.11l-.88.16a.92.92,0,0,0-.41.31l-.21.41a.72.72,0,0,0,0,.47l0,.31a1.16,1.16,0,0,0,.36.57l.26.15a1.3,1.3,0,0,0,.62.16l.41.05a.86.86,0,0,0,.52-.15l.36-.26a.76.76,0,0,0,.26-.42,1,1,0,0,0,.06-.51l-.06-.37Z" transform="translate(-0.31)"/></g><g id="Duplicate_Items_Folder_Symbol_63_copy_3_0_Layer0_0_MEMBER_36_MEMBER_0_FILL" data-name="Duplicate Items Folder Symbol 63 copy 3 0 Layer0 0 MEMBER 36 MEMBER 0 FILL"><path class="cls-21" d="M274.47,699q.21,2.38,2.43,2.28t2.07-2.43q-.2-2.39-2.43-2.28T274.47,699Z" transform="translate(-0.31)"/></g><g id="Duplicate_Items_Folder_Symbol_63_copy_3_0_Layer0_0_MEMBER_37_MEMBER_0_FILL" data-name="Duplicate Items Folder Symbol 63 copy 3 0 Layer0 0 MEMBER 37 MEMBER 0 FILL"><path class="cls-21" d="M291.81,688.62a1.32,1.32,0,0,0-1.08-.25h-.16l-.52.1a1.5,1.5,0,0,0-.82.57,2.15,2.15,0,0,0-.47.88,1.37,1.37,0,0,0,0,.57v.1a1.93,1.93,0,0,0,.36,1.14l.16.21a2.15,2.15,0,0,0,.88.77,1.8,1.8,0,0,0,1.08.26l.57-.1a2.15,2.15,0,0,0,.94-.57,1.3,1.3,0,0,0,.41-.78,2.1,2.1,0,0,0,.16-.82,2.76,2.76,0,0,0-.42-1.14,2.59,2.59,0,0,0-.83-.78l-.2-.16Z" transform="translate(-0.31)"/></g><g id="Duplicate_Items_Folder_Symbol_63_copy_3_0_Layer0_0_MEMBER_38_MEMBER_0_FILL" data-name="Duplicate Items Folder Symbol 63 copy 3 0 Layer0 0 MEMBER 38 MEMBER 0 FILL"><path class="cls-21" d="M310.5,565.2l-.25-.11-.42-.1a1.18,1.18,0,0,0-.46,0,.85.85,0,0,0-.32.26l-.15.15,0,.42.1.31a.4.4,0,0,0,.16.26.81.81,0,0,0,.82.21l.57-.21.26-.36.05-.26-.05-.21Z" transform="translate(-0.31)"/></g><g id="Duplicate_Items_Folder_Symbol_63_copy_3_0_Layer0_0_MEMBER_39_MEMBER_0_FILL" data-name="Duplicate Items Folder Symbol 63 copy 3 0 Layer0 0 MEMBER 39 MEMBER 0 FILL"><path class="cls-21" d="M317.55,560.12c0,.38.22.56.56.52s.56-.19.52-.57a.55.55,0,0,0-.62-.57C317.67,559.54,317.51,559.74,317.55,560.12Z" transform="translate(-0.31)"/></g><g id="Duplicate_Items_Folder_Symbol_63_copy_3_0_Layer0_0_MEMBER_40_MEMBER_0_FILL" data-name="Duplicate Items Folder Symbol 63 copy 3 0 Layer0 0 MEMBER 40 MEMBER 0 FILL"><path class="cls-21" d="M329.3,556.66a1.29,1.29,0,0,0-.42-.73.71.71,0,0,0-.41-.36,1.42,1.42,0,0,0-.78-.36l-.15-.11a3.39,3.39,0,0,0-.78,0,1.92,1.92,0,0,0-.72.26l-.37.31a2.43,2.43,0,0,0-.41.88l-.05.26,0,.57a1.57,1.57,0,0,0,.25.83.89.89,0,0,0,.32.46,1.82,1.82,0,0,0,.62.57l.2.11-.1-.11-.16-.1-.1-.1.83.41-.47-.1.26.2a2.39,2.39,0,0,0,.73.21l.46,0a1.61,1.61,0,0,0,.68-.21l.36-.31.26-.41a1.54,1.54,0,0,0,.15-.68,1.51,1.51,0,0,0-.05-.62,1.13,1.13,0,0,0,0-.26Z" transform="translate(-0.31)"/></g><g id="Duplicate_Items_Folder_Symbol_63_copy_3_0_Layer0_0_MEMBER_41_MEMBER_0_FILL" data-name="Duplicate Items Folder Symbol 63 copy 3 0 Layer0 0 MEMBER 41 MEMBER 0 FILL"><path class="cls-21" d="M329.45,550a1.25,1.25,0,0,0-.1.67l.1.52.31.41a1.3,1.3,0,0,0,.57.31,1.05,1.05,0,0,0,.73,0l.41-.1.42-.21.15-.1c.21-.18.31-.3.31-.37a.92.92,0,0,0,.11-.51,1,1,0,0,0-.16-.52l-.36-.31-.21-.11-.05-.05-.41-.15-.42,0a1.09,1.09,0,0,0-.67,0,1.25,1.25,0,0,0-.52.36Z" transform="translate(-0.31)"/></g><g id="Duplicate_Items_Folder_Symbol_63_copy_3_0_Layer0_0_MEMBER_42_MEMBER_0_FILL" data-name="Duplicate Items Folder Symbol 63 copy 3 0 Layer0 0 MEMBER 42 MEMBER 0 FILL"><path class="cls-21" d="M337.94,548.53c0,.31.19.46.47.46a.41.41,0,0,0,.41-.46c0-.31-.19-.47-.46-.47A.43.43,0,0,0,337.94,548.53Z" transform="translate(-0.31)"/></g><g id="Duplicate_Items_Folder_Symbol_63_copy_3_0_Layer0_0_MEMBER_43_MEMBER_0_FILL" data-name="Duplicate Items Folder Symbol 63 copy 3 0 Layer0 0 MEMBER 43 MEMBER 0 FILL"><path class="cls-21" d="M311.23,562.2a3.61,3.61,0,0,0,.83,1.24l.57.41a3,3,0,0,0,1.45.36,1.78,1.78,0,0,0,1-.31,1.47,1.47,0,0,0,.83-.62,2.92,2.92,0,0,0,.67-2l-.15-.77a2.75,2.75,0,0,0-.78-1.19l-.57-.42a3,3,0,0,0-1.45-.36,1.78,1.78,0,0,0-1,.31,2,2,0,0,0-.88.62,2.06,2.06,0,0,0-.47.93,2.43,2.43,0,0,0-.21,1.09Z" transform="translate(-0.31)"/></g><g id="Duplicate_Items_Folder_Symbol_63_copy_3_0_Layer0_0_MEMBER_44_MEMBER_0_FILL" data-name="Duplicate Items Folder Symbol 63 copy 3 0 Layer0 0 MEMBER 44 MEMBER 0 FILL"><path class="cls-21" d="M320.5,556.4c.13,1.58.95,2.34,2.43,2.27s2.17-.84,2.07-2.43-.95-2.35-2.43-2.28S320.39,554.84,320.5,556.4Z" transform="translate(-0.31)"/></g><g id="Duplicate_Items_Folder_Symbol_63_copy_3_0_Layer0_0_MEMBER_45_MEMBER_0_FILL" data-name="Duplicate Items Folder Symbol 63 copy 3 0 Layer0 0 MEMBER 45 MEMBER 0 FILL"><path class="cls-21" d="M285.7,580.63a.76.76,0,0,0,.83.82c.52,0,.76-.32.73-.88s-.31-.81-.83-.77A.69.69,0,0,0,285.7,580.63Z" transform="translate(-0.31)"/></g><g id="Duplicate_Items_Folder_Symbol_63_copy_3_0_Layer0_0_MEMBER_46_MEMBER_0_FILL" data-name="Duplicate Items Folder Symbol 63 copy 3 0 Layer0 0 MEMBER 46 MEMBER 0 FILL"><path class="cls-21" d="M293.73,575.5l-.26.41a2.08,2.08,0,0,0-.21,1l.11.52a2,2,0,0,0,.57.88l.41.31a1.43,1.43,0,0,0,.73.21,3.5,3.5,0,0,0,.41,0,2.23,2.23,0,0,0,.36,0l.42-.16a1.47,1.47,0,0,0,.51-.41l.26-.37.16-.41a1.14,1.14,0,0,0-.05-.52l.05-.21a1.47,1.47,0,0,0-.26-.77,1.33,1.33,0,0,0-.41-.62,2,2,0,0,0-.68-.37,1.22,1.22,0,0,0-.77-.15,1.13,1.13,0,0,0-.73.21A.9.9,0,0,0,293.73,575.5Z" transform="translate(-0.31)"/></g><g id="Duplicate_Items_Folder_Symbol_63_copy_3_0_Layer0_0_MEMBER_47_MEMBER_0_FILL" data-name="Duplicate Items Folder Symbol 63 copy 3 0 Layer0 0 MEMBER 47 MEMBER 0 FILL"><path class="cls-21" d="M279.7,571.41l-.47,0a1,1,0,0,0-.51.15,1.24,1.24,0,0,0-.68.78,1,1,0,0,0-.05.52l.05.36a1.08,1.08,0,0,0,.42.62l.26.21.72.15.41,0a.86.86,0,0,0,.52-.15l.42-.26a1,1,0,0,0,.2-.47.93.93,0,0,0,.11-.52l-.05-.36a1.75,1.75,0,0,0-.42-.57l-.26-.2A1.38,1.38,0,0,0,279.7,571.41Z" transform="translate(-0.31)"/></g><g id="Duplicate_Items_Folder_Symbol_63_copy_3_0_Layer0_0_MEMBER_48_MEMBER_0_FILL" data-name="Duplicate Items Folder Symbol 63 copy 3 0 Layer0 0 MEMBER 48 MEMBER 0 FILL"><path class="cls-21" d="M288.66,567.94c.1,1.59.89,2.35,2.38,2.28s2.17-.85,2.07-2.43-.9-2.37-2.38-2.33S288.55,566.35,288.66,567.94Z" transform="translate(-0.31)"/></g><g id="Duplicate_Items_Folder_Symbol_63_copy_3_0_Layer0_0_MEMBER_49_MEMBER_0_FILL" data-name="Duplicate Items Folder Symbol 63 copy 3 0 Layer0 0 MEMBER 49 MEMBER 0 FILL"><path class="cls-21" d="M287.1,574.72c.07,1.14.64,1.7,1.71,1.66s1.57-.62,1.5-1.76-.64-1.69-1.71-1.66A1.45,1.45,0,0,0,287.1,574.72Z" transform="translate(-0.31)"/></g><g id="Duplicate_Items_Folder_Symbol_63_copy_3_0_Layer0_0_MEMBER_50_MEMBER_0_FILL" data-name="Duplicate Items Folder Symbol 63 copy 3 0 Layer0 0 MEMBER 50 MEMBER 0 FILL"><path class="cls-21" d="M282.65,569.49a.42.42,0,0,0,.47.42q.4,0,.36-.42c0-.31-.14-.46-.42-.46A.42.42,0,0,0,282.65,569.49Z" transform="translate(-0.31)"/></g><g id="Duplicate_Items_Folder_Symbol_63_copy_3_0_Layer0_0_MEMBER_51_MEMBER_0_FILL" data-name="Duplicate Items Folder Symbol 63 copy 3 0 Layer0 0 MEMBER 51 MEMBER 0 FILL"><path class="cls-21" d="M293,585l-.2,0-.31.2-.11.16-.1.41v.47l.1.31.21.26.26.15.31.06.21-.06.36-.2.1-.16.05-.41-.05-.47-.1-.31c-.07-.1-.12-.19-.16-.26l-.26-.15Z" transform="translate(-0.31)"/></g><g id="Duplicate_Items_Folder_Symbol_63_copy_3_0_Layer0_0_MEMBER_52_MEMBER_0_FILL" data-name="Duplicate Items Folder Symbol 63 copy 3 0 Layer0 0 MEMBER 52 MEMBER 0 FILL"><path class="cls-21" d="M284.67,585.18a.86.86,0,0,0-.52-.15,1.06,1.06,0,0,0-.52.15,1,1,0,0,0-.31.42l-.05.1,0,0-.1.31a.91.91,0,0,0,.05.68.92.92,0,0,0,.31.46l.1.1a.57.57,0,0,0,.36.21.6.6,0,0,0,.42.11l.26-.06a.92.92,0,0,0,.41-.31l.11-.1a1.14,1.14,0,0,0,.25-.52.73.73,0,0,0-.05-.62l-.15-.36h-.05l-.06-.11A.79.79,0,0,0,284.67,585.18Z" transform="translate(-0.31)"/></g><g id="Duplicate_Items_Folder_Symbol_62_copy_3_0_Layer0_0_FILL" data-name="Duplicate Items Folder Symbol 62 copy 3 0 Layer0 0 FILL"><path class="cls-22" d="M333.75,528.39q-9.84-5.08-11.55-5.75a99.42,99.42,0,0,0-30.64-6.47,72.61,72.61,0,0,0-35.88,7.14,67.91,67.91,0,0,0-8.65,5,7.28,7.28,0,0,0-3.57,6.48q.1,2.79,2.38,7.86a54,54,0,0,0,7.77,12.53,48.41,48.41,0,0,0,10.92,9.69A45,45,0,0,0,278,570.69a41.31,41.31,0,0,0,14.6,1,68.77,68.77,0,0,0,15.43-4,174.85,174.85,0,0,0,29.87-14.13,5.25,5.25,0,0,0,1.82-1.55,6.41,6.41,0,0,0,.25-3.21,24,24,0,0,1,.57-7.82,23.46,23.46,0,0,1,3.06-7.2Q343.79,533.52,333.75,528.39Z" transform="translate(-0.31)"/></g><g id="Duplicate_Items_Folder_Symbol_62_copy_3_0_Layer0_1_MEMBER_0_FILL" data-name="Duplicate Items Folder Symbol 62 copy 3 0 Layer0 1 MEMBER 0 FILL"><path class="cls-2" d="M292.12,572.19a89.84,89.84,0,0,1,12,5.23,86.58,86.58,0,0,1,30.08,25.11q.68-3.27,8.91-31.79,6.36-22.07,6.32-31.22c0-1.55-1.2-2.88-3.58-4l-3.62-1.24a101.59,101.59,0,0,1-21.28,21.9,100.36,100.36,0,0,1-26.77,14.55l-3.1,1.08,1.08.37m-7.3-1.19-2.12-1.19a71.54,71.54,0,0,1-21.28-19.11,86.22,86.22,0,0,1-13.15-24.38l-2.53,1q-2.64,1.35-2.9,3.16a237.74,237.74,0,0,0-2.28,32.87,172.82,172.82,0,0,0,3,33.35q7.31-13.15,25.58-20.82A78,78,0,0,1,284.82,571m3.32,1.86,2.9-1a18,18,0,0,0-4.25-1.13c-.64.09-1.3.2-2,.31Z" transform="translate(-0.31)"/></g><g id="Duplicate_Items_Folder_Symbol_62_copy_3_0_Layer0_2_MEMBER_0_MEMBER_0_MEMBER_0_FILL" data-name="Duplicate Items Folder Symbol 62 copy 3 0 Layer0 2 MEMBER 0 MEMBER 0 MEMBER 0 FILL"><path class="cls-4" d="M349.39,538.79a3.94,3.94,0,0,0-1.56-2.12,10.2,10.2,0,0,0-1.86-1.14,11.8,11.8,0,0,0-2.8-1,20.92,20.92,0,0,1,2.75,1.09,9.33,9.33,0,0,1,1.81,1.13,4,4,0,0,1,1.45,2.08,35.86,35.86,0,0,1-.42,6.42,137.25,137.25,0,0,1-3.88,17.44q-1.81,6.38-6.83,22.73-3,10.2-3.78,13.31l-.52,2.07-.05-.11-.16-.1-3.52-4.3c-1.14-1.27-2-2.22-2.64-2.84a94.44,94.44,0,0,0-27.13-19.06c-2.34-1.07-4.59-2-6.73-2.79l2.13-.83q3.11-1.14,6.78-2.9a91.7,91.7,0,0,0,11.7-6.52A97.29,97.29,0,0,0,330.7,548a110.72,110.72,0,0,0,8.8-10c1-1.45,1.71-2.38,2-2.8-.35.42-1.06,1.31-2.13,2.69a105.56,105.56,0,0,1-9,9.79,98,98,0,0,1-16.73,12.94,104.57,104.57,0,0,1-11.7,6.27q-4,1.71-6.73,2.74l-3.57,1.29a31,31,0,0,0-4.09-1.24l-.83-.1-2.28.36-4-2.43-2.7-1.81a74.17,74.17,0,0,1-10.09-9,87.65,87.65,0,0,1-16.26-25.22,36.9,36.9,0,0,1-1.45-3.72L248.89,525l-.1.05a14.37,14.37,0,0,0-1.81.52l-.26,0-.88.42a9.56,9.56,0,0,0-2,1.14,6.56,6.56,0,0,0-1.71,1.91l-.26.68-.57,3.83q-1.08,8.39-1.55,17.18a202.45,202.45,0,0,0,1.09,36.35c.07.62.31,2.29.72,5l1.4,7.66v.11s0,0,.1-.05l3.63-5.85,3.83-4.61a54.85,54.85,0,0,1,15.32-10.82,83.83,83.83,0,0,1,17.3-6.11l2.12-.47,2.85,1.61,2.33-.83c.27.07.57.15.88.26q4.18,1.44,8.07,3.21a92.94,92.94,0,0,1,26.87,18.38l8.18,9.42c.11.1.16.12.16,0l1.09-5q1.29-5.24,3.57-13.31,4.56-15.84,6.37-22.88a136.76,136.76,0,0,0,3.52-17.6,36.77,36.77,0,0,0,.26-6.53M246.72,528l.78-.31.1-.05.05.11.31.77c.17.52.68,1.78,1.5,3.78a90.07,90.07,0,0,0,16.93,25.58A70.64,70.64,0,0,0,276.9,567l5.39,3.42a82.77,82.77,0,0,0-17.5,6.11,56.51,56.51,0,0,0-16.05,11.23l-4,4.87c-.14.2-.29.43-.47.67h0l-.26-1.55c-.34-2.18-.57-3.82-.67-4.92A206.46,206.46,0,0,1,242.06,551q.52-9.48,1.5-17.08l.36-3.11.21-.67A4.63,4.63,0,0,1,246.72,528Z" transform="translate(-0.31)"/></g><g id="Duplicate_Items_Folder_Symbol_21_copy_9_0_Layer0_0_MEMBER_0_FILL" data-name="Duplicate Items Folder Symbol 21 copy 9 0 Layer0 0 MEMBER 0 FILL"><path class="cls-23" d="M153.68,43q-8.33-8.43-20.14-18.63a151.87,151.87,0,0,0-18-13.72A57.45,57.45,0,0,0,95.08,2.37q-5,3.21-7.72,11.5-1.55,4.65-3.52,13.56Q82,34.06,82.18,58.55q.21,24.65,2.39,53.63,5.58,73.62,16.72,94.8,5.38,10.35,21.59,25.32,9.1,8.38,33.34,28.21,23.4,19,34.43,29.51,17.5,16.51,24.85,29.26-4.71-13.78-2.74-34.38,3.36-23.56,4.29-35.21a192,192,0,0,0,.11-26.82q-.67-10.45-2.64-26.71-5.18-41.88-13.15-69.53Q190.6,89.46,171.6,63.72A195.79,195.79,0,0,0,153.68,43Z" transform="translate(-0.31)"/></g><g id="Duplicate_Items_Folder_Symbol_21_copy_9_0_Layer0_0_MEMBER_1_MEMBER_0_MEMBER_0_MEMBER_0_FILL" data-name="Duplicate Items Folder Symbol 21 copy 9 0 Layer0 0 MEMBER 1 MEMBER 0 MEMBER 0 MEMBER 0 FILL"><path class="cls-24" d="M208.46,252.33l.67-9.32-1.19,5.34c-.31,1.31-.55,2.59-.72,3.83-.49,3-.88,6.35-1.19,10.15a123.4,123.4,0,0,0-.21,12.47q.31,6.48,1.19,12.43a91.49,91.49,0,0,0,2,10c.21.86.53,2.11,1,3.73l1.71,5.23-.93-5.39c-.24-1.41-.43-2.69-.57-3.83s-.6-4.5-1.19-10q-.53-6.17-.73-12.27-.2-5.81-.2-12.32Q208.31,254.25,208.46,252.33Z" transform="translate(-0.31)"/></g><g id="Duplicate_Items_Folder_Symbol_21_copy_9_0_Layer0_0_MEMBER_1_MEMBER_1_MEMBER_0_MEMBER_0_FILL" data-name="Duplicate Items Folder Symbol 21 copy 9 0 Layer0 0 MEMBER 1 MEMBER 1 MEMBER 0 MEMBER 0 FILL"><path class="cls-24" d="M194.17,244.46l2.38,9.48q4.14,16.1,6,22.73,3.36,12,6.78,22.52c1.24,3.79,2.29,6.87,3.16,9.21q-.67-3.67-2-9.52-2.74-12.58-5.59-22.89-3.52-12.53-7.15-22.41Z" transform="translate(-0.31)"/></g><g id="Duplicate_Items_Folder_Symbol_21_copy_9_0_Layer0_0_MEMBER_1_MEMBER_2_MEMBER_0_MEMBER_0_FILL" data-name="Duplicate Items Folder Symbol 21 copy 9 0 Layer0 0 MEMBER 1 MEMBER 2 MEMBER 0 MEMBER 0 FILL"><path class="cls-24" d="M199.4,283q3.42,5.75,6.16,10.93,2.49,4.86,4.45,9.26l1.5,3.68a23.55,23.55,0,0,1,1.09,2.8l.93,2.38-.57-2.54a20.81,20.81,0,0,0-.72-2.9c-.55-2.07-.92-3.35-1.09-3.83a77.55,77.55,0,0,0-3.73-9.73,103.44,103.44,0,0,0-5.95-11.29,134,134,0,0,0-13.88-18.53L181,256.27l5.59,7.71Q193.86,273.93,199.4,283Z" transform="translate(-0.31)"/></g><g id="Duplicate_Items_Folder_Symbol_21_copy_9_0_Layer0_0_MEMBER_2_FILL" data-name="Duplicate Items Folder Symbol 21 copy 9 0 Layer0 0 MEMBER 2 FILL"><path class="cls-25" d="M133.54,24.38Q145.35,34.58,153.68,43A195.79,195.79,0,0,1,171.6,63.72q19,25.74,29.77,62.91,8,27.65,13.15,69.53,2,16.26,2.64,26.71a192,192,0,0,1-.11,26.82q-.93,11.65-4.29,35.21-2,20.61,2.74,34.38,25.37-18.33,38.93-35.47a78.4,78.4,0,0,0,6.73-9.94l1.71-3.52q-9-6.42-12.58-19.62a70.48,70.48,0,0,1-2-11.7q-.36-4.14-.62-11.86a199.17,199.17,0,0,0-.62-20,313.69,313.69,0,0,0-7.51-49.08Q221.15,80.6,170.15,38.25q-31.59-26.19-50.9-34.43Q103.26-3,95.08,2.37a57.45,57.45,0,0,1,20.45,8.29A151.87,151.87,0,0,1,133.54,24.38Z" transform="translate(-0.31)"/></g><g id="Duplicate_Items_Folder_Symbol_22_copy_11_0_Layer0_0_MEMBER_0_FILL" data-name="Duplicate Items Folder Symbol 22 copy 11 0 Layer0 0 MEMBER 0 FILL"><path class="cls-26" d="M541.77,27.43q-2-8.91-3.52-13.56-2.75-8.29-7.66-11.5a57.38,57.38,0,0,0-20.5,8.29,151.85,151.85,0,0,0-18,13.72Q480.27,34.58,471.93,43a192.6,192.6,0,0,0-17.86,20.71Q435,89.46,424.3,126.63q-8,27.65-13.2,69.53-2,16.26-2.64,26.71a192.14,192.14,0,0,0,.1,26.82q.93,11.65,4.35,35.21,2,20.61-2.74,34.38Q417.52,306.53,435,290q11-10.45,34.43-29.51,24.23-19.83,33.34-28.21,16.2-15,21.59-25.32,11.08-21.18,16.67-94.8,2.18-29,2.38-53.63T541.77,27.43Z" transform="translate(-0.31)"/></g><g id="Duplicate_Items_Folder_Symbol_22_copy_11_0_Layer0_0_MEMBER_1_MEMBER_0_MEMBER_0_MEMBER_0_FILL" data-name="Duplicate Items Folder Symbol 22 copy 11 0 Layer0 0 MEMBER 1 MEMBER 0 MEMBER 0 MEMBER 0 FILL"><path class="cls-24" d="M419.8,274.8a123.4,123.4,0,0,0-.21-12.47c-.35-4.32-.74-7.7-1.19-10.15L416.48,243l.73,9.32q.21,4.24.31,10t-.16,12.32q-.3,6.74-.77,12.27c-.42,4.24-.8,7.58-1.14,10l-1.55,9.22,2.74-9q1.08-4.2,2-10Q419.59,280.24,419.8,274.8Z" transform="translate(-0.31)"/></g><g id="Duplicate_Items_Folder_Symbol_22_copy_11_0_Layer0_0_MEMBER_1_MEMBER_1_MEMBER_0_MEMBER_0_FILL" data-name="Duplicate Items Folder Symbol 22 copy 11 0 Layer0 0 MEMBER 1 MEMBER 1 MEMBER 0 MEMBER 0 FILL"><path class="cls-24" d="M431.45,244.46l-3.52,9.12Q424,264.25,420.78,276q-2.85,10.2-5.64,22.89l-2,9.52c.86-2.34,1.92-5.42,3.16-9.21q3.89-12,6.78-22.52,2.75-9.8,5.95-22.73Z" transform="translate(-0.31)"/></g><g id="Duplicate_Items_Folder_Symbol_22_copy_11_0_Layer0_0_MEMBER_1_MEMBER_2_MEMBER_0_MEMBER_0_FILL" data-name="Duplicate Items Folder Symbol 22 copy 11 0 Layer0 0 MEMBER 1 MEMBER 2 MEMBER 0 MEMBER 0 FILL"><path class="cls-24" d="M424.2,281.74a98.89,98.89,0,0,0-6,11.29,90.17,90.17,0,0,0-3.67,9.73c-.25.66-.62,1.93-1.14,3.83L412.13,312l.88-2.38c.42-1.18.78-2.11,1.09-2.8l1.56-3.68q1.69-4,4.4-9.26,2.94-5.55,6.21-10.93,5.22-8.49,12.73-19l5.6-7.71-1.76,1.81c-.87.9-2.45,2.61-4.77,5.13A129.1,129.1,0,0,0,424.2,281.74Z" transform="translate(-0.31)"/></g><g id="Duplicate_Items_Folder_Symbol_22_copy_11_0_Layer0_0_MEMBER_2_FILL" data-name="Duplicate Items Folder Symbol 22 copy 11 0 Layer0 0 MEMBER 2 FILL"><path class="cls-27" d="M492.07,24.38a151.85,151.85,0,0,1,18-13.72,57.38,57.38,0,0,1,20.5-8.29Q522.42-3,506.41,3.82q-19.31,8.24-50.94,34.43-51,42.36-69.33,119.86a309.12,309.12,0,0,0-7.55,49.08,199.67,199.67,0,0,0-.63,20q-.25,7.71-.62,11.86a68.47,68.47,0,0,1-2,11.7q-1.69,6.21-7.09,15.32-5.79,9.79-10.35,13.05l10.92,9.06q15.94,12.79,41.37,31.12,4.71-13.78,2.74-34.38-3.42-23.56-4.35-35.21a192.14,192.14,0,0,1-.1-26.82q.68-10.45,2.64-26.71,5.17-41.88,13.2-69.53Q435,89.46,454.07,63.72A192.6,192.6,0,0,1,471.93,43Q480.27,34.58,492.07,24.38Z" transform="translate(-0.31)"/></g><g id="Duplicate_Items_Folder_Symbol_20_copy_8_0_Layer0_0_FILL" data-name="Duplicate Items Folder Symbol 20 copy 8 0 Layer0 0 FILL"><path class="cls-28" d="M451.43,365.92a217.82,217.82,0,0,0-33.65-54.31q-21.33-25-47.48-39.65a137.19,137.19,0,0,0-58.55-17.66c-3.32-.21-6.41-.29-9.27-.26s-6,.05-9.27.26A137.15,137.15,0,0,0,234.66,272q-26.15,14.6-47.48,39.65a220.14,220.14,0,0,0-33.7,54.31,225.86,225.86,0,0,0-17.3,61.46l-1.24,10a71.64,71.64,0,0,0,1.24,20.86l8.39,7.56a268.38,268.38,0,0,0,23.87,17.81q31.17,26,87.39,38.57a216.51,216.51,0,0,0,93.25,0q56.12-12.46,87.44-38.57a273.41,273.41,0,0,0,23.82-17.81l8.38-7.56q1.56-7.82.93-20.14l-.93-10.71A225.48,225.48,0,0,0,451.43,365.92Z" transform="translate(-0.31)"/></g><g id="Duplicate_Items_Folder_Symbol_1_copy_12_0_Layer4_0_FILL" data-name="Duplicate Items Folder Symbol 1 copy 12 0 Layer4 0 FILL"><path class="cls-29" d="M190.55,408.74q-20.46-4-34.38-2.33-20.25,2.43-28.48,16.31-9.63,16.2-.15,40.48a101.69,101.69,0,0,0,24.33,36.3,22,22,0,0,1-3.05-8,22.92,22.92,0,0,1,.05-8.54,45.24,45.24,0,0,0,6.42,13.15,45.92,45.92,0,0,0,10.3,10.56,28.39,28.39,0,0,1-3.57-9.83,84,84,0,0,0,13.82,15.63,38.56,38.56,0,0,1-3.73-11q13.11,20,40.7,33.08a174.17,174.17,0,0,0,51,14.91,217.33,217.33,0,0,0,35.06,2,203.72,203.72,0,0,0,72.22-11.29q12.53-4.3,19.15-6.89a150,150,0,0,0,18.44-8.49,213.63,213.63,0,0,0,24-15.63q11.28-8.49,12.78-11.86l.47.16a42,42,0,0,1-5.64,11.08q5.6-2.28,14.65-12.22,11.44-12.59,14-25.11c.38-.8.16,1.07-.67,5.59a66.22,66.22,0,0,1-3,11.18,47.26,47.26,0,0,0,5.8-9.94q5.55-12.27,4.45-24,4.67-18.63-3.05-31.63-8-13.31-25.94-15.69-11.49-1.5-31.58,1.76-14.3,1.75-49.6,7.56-31.53,5.18-49.65,7-6.21.62-15,1.19Q291,423.7,284.41,423,241.23,418.73,190.55,408.74Z" transform="translate(-0.31)"/></g><g id="Duplicate_Items_Folder_Symbol_1_copy_12_0_Layer3_0_MEMBER_0_FILL" data-name="Duplicate Items Folder Symbol 1 copy 12 0 Layer3 0 MEMBER 0 FILL"><path class="cls-10" d="M293.16,552.46a233.08,233.08,0,0,0,38.47-2.64q5.75-.89,11.49-2.07l4.14-.93-4.19.67q-8.6,1.14-11.55,1.45a337.26,337.26,0,0,1-38.31,1.71A251,251,0,0,1,255,547.54q-6-1-11.39-2.27l-4.14-1,4,1.29q6.27,1.82,11.34,2.9A182,182,0,0,0,293.16,552.46Z" transform="translate(-0.31)"/></g><g id="Duplicate_Items_Folder_Symbol_17_copy_5_0_Layer1_0_MEMBER_0_MEMBER_0_MEMBER_0_MEMBER_0_MEMBER_0_FILL" data-name="Duplicate Items Folder Symbol 17 copy 5 0 Layer1 0 MEMBER 0 MEMBER 0 MEMBER 0 MEMBER 0 MEMBER 0 FILL"><path class="cls-30" d="M361.66,442.34a11.2,11.2,0,0,0-3.63-1.71,10.28,10.28,0,0,0-3.21-.26,7.91,7.91,0,0,0-2.12.52l-.73.31,2.49,1.19,7.2,5.08a25.46,25.46,0,0,1,1.91,1.81l1.35,1.45.46.62.11-.78a7.78,7.78,0,0,0-.11-2.17,9.53,9.53,0,0,0-3.72-6.06Z" transform="translate(-0.31)"/></g><g id="Duplicate_Items_Folder_Symbol_17_copy_5_0_Layer1_0_MEMBER_1_MEMBER_0_FILL" data-name="Duplicate Items Folder Symbol 17 copy 5 0 Layer1 0 MEMBER 1 MEMBER 0 FILL"><path class="cls-31" d="M298,424.12l.15-2.8-.62,2.74c-.17,1-.32,1.93-.47,2.8,0-.18,0-.35,0-.52,0,.48-.06.94-.1,1.4-.24,1.57-.43,2.89-.57,3.94a117.74,117.74,0,0,0-.26,25.42l.26,2.12v.31h0l.05.15,2.9-.2q-.45-13.71-1.5-25.11c0-.87,0-1.73.05-2.59Q297.87,429.55,298,424.12Z" transform="translate(-0.31)"/></g><g id="Duplicate_Items_Folder_Symbol_17_copy_5_0_Layer1_0_MEMBER_2_MEMBER_0_MEMBER_0_FILL" data-name="Duplicate Items Folder Symbol 17 copy 5 0 Layer1 0 MEMBER 2 MEMBER 0 MEMBER 0 FILL"><path class="cls-30" d="M358.29,443.58a10.79,10.79,0,0,1-.26,4.3,17.08,17.08,0,0,1-2.64,6.21,21.5,21.5,0,0,1-6.37,6.22,36.79,36.79,0,0,1-9.83,4.5A40.53,40.53,0,0,1,327,466.67a43.43,43.43,0,0,1-6.63-.51,49.94,49.94,0,0,1-6.83-1.61,87.6,87.6,0,0,1-13.72-5.64l-1.71-.83-.67,1.29-.21.11s0,0-.05,0l-.94-1.14-.1.05-.21.16-5.85,2.84q-3.41,1.56-6.62,2.7a46.87,46.87,0,0,1-13.1,2.58,43.33,43.33,0,0,1-12-1.08,34.67,34.67,0,0,1-9.79-3.83,24.1,24.1,0,0,1-6.52-5.7,19,19,0,0,1-3.11-5.75,17.33,17.33,0,0,1-1-4.09l0-1.45-.11,1.45a17.64,17.64,0,0,0,.73,4.2,20.71,20.71,0,0,0,2.79,6.21,25.2,25.2,0,0,0,6.48,6.32,32.83,32.83,0,0,0,10,4.5,42.29,42.29,0,0,0,12.63,1.61,46.27,46.27,0,0,0,13.88-2.33q2.69-.89,6.93-2.7l6-2.95.21-.05,1,.52a92.83,92.83,0,0,0,14.24,5.69,61.42,61.42,0,0,0,7.2,1.56,52.39,52.39,0,0,0,7.09.36,41.8,41.8,0,0,0,12.79-2.49,37,37,0,0,0,10.09-5.17,22.91,22.91,0,0,0,6.27-6.89A18.37,18.37,0,0,0,358.5,448a11.25,11.25,0,0,0-.05-4.4l-.42-1.5Z" transform="translate(-0.31)"/></g><g id="Duplicate_Items_Folder_Symbol_17_copy_5_0_Layer1_0_MEMBER_3_MEMBER_0_MEMBER_0_FILL" data-name="Duplicate Items Folder Symbol 17 copy 5 0 Layer1 0 MEMBER 3 MEMBER 0 MEMBER 0 FILL"><path class="cls-30" d="M325,477.49a44.64,44.64,0,0,1-5.44,5,36.45,36.45,0,0,1-9.26,5.23,32.34,32.34,0,0,1-12.58,2.13c-.42,0-1.54-.09-3.37-.26q-2.18-.31-3.21-.57l-3.05-.83a26.87,26.87,0,0,1-2.8-1.14,33.38,33.38,0,0,1-8.9-5.8,45.65,45.65,0,0,1-5.08-5.28l-1.71-2.12L271,476.2a38.74,38.74,0,0,0,4.4,6.06,30.8,30.8,0,0,0,8.85,7c.28.17,1.26.64,2.95,1.39,2,.69,3.15,1.06,3.32,1.09.76.21,1.93.45,3.52.73,2,.17,3.23.26,3.67.26A29.25,29.25,0,0,0,311.28,490a33.74,33.74,0,0,0,9.27-6.42,34.51,34.51,0,0,0,4.76-5.75l1.45-2.32Z" transform="translate(-0.31)"/></g><g id="Duplicate_Items_Folder_Symbol_17_copy_5_0_Layer1_0_MEMBER_4_MEMBER_0_MEMBER_0_FILL" data-name="Duplicate Items Folder Symbol 17 copy 5 0 Layer1 0 MEMBER 4 MEMBER 0 MEMBER 0 FILL"><path class="cls-30" d="M243.67,441.51l.72-.31-.72-.31a5.58,5.58,0,0,0-2.13-.47,10.5,10.5,0,0,0-3.21.21,11.05,11.05,0,0,0-3.62,1.71,10.51,10.51,0,0,0-2.64,3A9.06,9.06,0,0,0,231,448.4a10.23,10.23,0,0,0-.15,2.17l.1.78.52-.62,3.26-3.26,4.92-3.73a23.1,23.1,0,0,1,2.27-1.35A10.62,10.62,0,0,1,243.67,441.51Z" transform="translate(-0.31)"/></g><g id="Duplicate_Items_Folder_Symbol_18_copy_3_0_Layer1_0_MEMBER_0_MEMBER_0_FILL" data-name="Duplicate Items Folder Symbol 18 copy 3 0 Layer1 0 MEMBER 0 MEMBER 0 FILL"><path class="cls-32" d="M288,353.45a197.48,197.48,0,0,0-1.19,20.45,80.55,80.55,0,0,1-11.7,43.85c-1.21,2-1.72,3-1.55,3.1a75,75,0,0,0,23.66,4.3,60.21,60.21,0,0,0,24.49-4.61q.87-.36.2-5c-.06-.52-.81-4.78-2.22-12.79a317.42,317.42,0,0,1-4.82-44.62,27.41,27.41,0,0,0-4-12.59q-4.46-7.71-9.94-7.35a12.27,12.27,0,0,0-9.22,4.71Q288.65,346.77,288,353.45Z" transform="translate(-0.31)"/></g><g id="Duplicate_Items_Folder_Symbol_18_copy_3_0_Layer1_0_MEMBER_0_MEMBER_1_FILL" data-name="Duplicate Items Folder Symbol 18 copy 3 0 Layer1 0 MEMBER 0 MEMBER 1 FILL"><path class="cls-33" d="M297.72,439.86q5.43-3.12,8.38-4.82a79.5,79.5,0,0,0,9.43-6.37,28.2,28.2,0,0,0,7-8,28.69,28.69,0,0,0-6.11-5A37.84,37.84,0,0,0,301,410.5a37.75,37.75,0,0,0-28.84,10.15q3.11,5.53,11.13,10.87,4.56,3,13.82,8.34l.26.2Z" transform="translate(-0.31)"/></g><g id="Duplicate_Items_Folder_Symbol_18_copy_3_0_Layer1_0_MEMBER_0_MEMBER_2_FILL" data-name="Duplicate Items Folder Symbol 18 copy 3 0 Layer1 0 MEMBER 0 MEMBER 2 FILL"><path class="cls-34" d="M297.09,428.31a54.66,54.66,0,0,1-17.7-4.4c-.42-.17-2.64-1.33-6.68-3.47l-.47.41q2.85,5.29,11.24,10.77,4.71,3.11,13.87,8.44,4.77-2.58,8.13-4.66a83.58,83.58,0,0,0,10-6.73,28.66,28.66,0,0,0,7.1-8c-.69-.73-2.06-.47-4.09.77a46.79,46.79,0,0,0-3.94,2.8Q307.45,428.93,297.09,428.31Z" transform="translate(-0.31)"/></g><g id="Duplicate_Items_Folder_Symbol_18_copy_3_0_Layer1_0_MEMBER_1_MEMBER_0_MEMBER_0_FILL" data-name="Duplicate Items Folder Symbol 18 copy 3 0 Layer1 0 MEMBER 1 MEMBER 0 MEMBER 0 FILL"><path class="cls-10" d="M287.36,362.56l-.46-2.49.05,2.54q-.06,1.61-.21,6.83A156,156,0,0,1,284,391.71a107,107,0,0,1-3.06,11.85c-1,2.83-1.62,4.51-1.86,5l-1.92,4.2a22.62,22.62,0,0,1-1.91,3.36l-3.11,4.51,3.88-3.94a30.08,30.08,0,0,0,2.38-3.16l2.49-4.14a41.63,41.63,0,0,0,2.38-5,71.35,71.35,0,0,0,3.63-12.11,83.66,83.66,0,0,0,1.29-22.84A68.77,68.77,0,0,0,287.36,362.56Z" transform="translate(-0.31)"/></g><g id="Duplicate_Items_Folder_Symbol_18_copy_3_0_Layer0_0_STROKES_1_FILL" data-name="Duplicate Items Folder Symbol 18 copy 3 0 Layer0 0 STROKES 1 FILL"><path class="cls-35" d="M284.1,425.31l-.1.05-.31.1c-.14,0-.16.05-.06.16l.11.31.05.05,0,.1.62.88.57.52.16.11.31.25.05.06.67.31.16.1.21.1,1.65.47h.42l.41.05h.41l.37-.05h.2l.57-.16h.16l.15-.05.83-.36h.11l.05-.05.15-.11.11-.1a0,0,0,0,0,.05-.05s0-.07,0-.1l-.11-.16-.1-.1,0-.11-.62-.67-.16-.1-.36-.37-.62-.41-.21-.1-.15-.06-.52-.31-2-.51h-.21l-.36-.06h-.93l-.21.06-.36.05h-.15l-.16.05-.31,0-.47.16Z" transform="translate(-0.31)"/></g><g id="Duplicate_Items_Folder_Symbol_16_copy_3_0_Layer14_0_FILL" data-name="Duplicate Items Folder Symbol 16 copy 3 0 Layer14 0 FILL"><path class="cls-1" d="M371.8,335.53q-14.24.27-24.07,11.91t-9.58,27.91q.25,16.25,10.56,27.54T373.2,414q14.24-.21,24.13-11.91t9.58-27.9q-.32-16.26-10.57-27.55T371.8,335.53Z" transform="translate(-0.31)"/></g><g class="cls-36"><g id="Duplicate_Items_Folder_Symbol_27_copy_7_0_Layer0_0_MEMBER_0_FILL" data-name="Duplicate Items Folder Symbol 27 copy 7 0 Layer0 0 MEMBER 0 FILL"><path class="cls-37" d="M398.78,378.4a30.45,30.45,0,0,0-7.46-20.81q-7.56-8.65-18.22-8.7t-18.23,8.54a32.45,32.45,0,0,0-.15,41.58q7.5,8.64,18.17,8.69t18.28-8.54A30.58,30.58,0,0,0,398.78,378.4Z" transform="translate(-0.31)"/></g><g id="Duplicate_Items_Folder_Symbol_27_copy_7_0_Layer0_0_MEMBER_1_FILL" data-name="Duplicate Items Folder Symbol 27 copy 7 0 Layer0 0 MEMBER 1 FILL"><path class="cls-38" d="M360.47,366.6a20.33,20.33,0,0,0-.11,26,14.76,14.76,0,0,0,22.83.05,20.33,20.33,0,0,0,.11-26,14.74,14.74,0,0,0-22.83,0Z" transform="translate(-0.31)"/></g><g id="Duplicate_Items_Folder_Symbol_27_copy_7_0_Layer0_0_MEMBER_2_FILL" data-name="Duplicate Items Folder Symbol 27 copy 7 0 Layer0 0 MEMBER 2 FILL"><path class="cls-1" d="M383.4,362.45a5.45,5.45,0,0,0-1.35,3.68,5.21,5.21,0,0,0,1.35,3.62,4.08,4.08,0,0,0,6.37.06,5.58,5.58,0,0,0,1.29-3.68,5,5,0,0,0-1.29-3.62,4.25,4.25,0,0,0-3.21-1.56A4,4,0,0,0,383.4,362.45Z" transform="translate(-0.31)"/></g></g><g id="Duplicate_Items_Folder_Symbol_16_copy_3_0_Layer11_0_FILL" data-name="Duplicate Items Folder Symbol 16 copy 3 0 Layer11 0 FILL"><path class="cls-1" d="M196.71,374.16q-.27,16.24,9.58,27.9T230.41,414q14.24.25,24.54-11.08t10.51-27.54q.32-16.22-9.58-27.91t-24.12-11.91q-14.19-.21-24.49,11.08T196.71,374.16Z" transform="translate(-0.31)"/></g><g class="cls-39"><g id="Duplicate_Items_Folder_Symbol_26_copy_7_0_Layer0_0_MEMBER_0_FILL" data-name="Duplicate Items Folder Symbol 26 copy 7 0 Layer0 0 MEMBER 0 FILL"><path class="cls-40" d="M228.65,348.89q-10.67.15-18.07,8.9a32.47,32.47,0,0,0,.68,41.58q7.71,8.49,18.37,8.28t18.07-8.9a32.37,32.37,0,0,0-.72-41.58Q239.32,348.68,228.65,348.89Z" transform="translate(-0.31)"/></g><g id="Duplicate_Items_Folder_Symbol_26_copy_7_0_Layer0_0_MEMBER_1_FILL" data-name="Duplicate Items Folder Symbol 26 copy 7 0 Layer0 0 MEMBER 1 FILL"><path class="cls-38" d="M218.4,366.8a20.36,20.36,0,0,0,.47,26.1,14.69,14.69,0,0,0,11.49,5.17,14.53,14.53,0,0,0,11.34-5.59,19.36,19.36,0,0,0,4.5-13.15,18.88,18.88,0,0,0-5-12.94,14.79,14.79,0,0,0-22.83.41Z" transform="translate(-0.31)"/></g><g id="Duplicate_Items_Folder_Symbol_26_copy_7_0_Layer0_0_MEMBER_2_FILL" data-name="Duplicate Items Folder Symbol 26 copy 7 0 Layer0 0 MEMBER 2 FILL"><path class="cls-1" d="M241.23,362.25a5.32,5.32,0,0,0-1.24,3.67,5.42,5.42,0,0,0,1.4,3.63,4.12,4.12,0,0,0,6.37-.11,5.36,5.36,0,0,0,1.24-3.67,5.63,5.63,0,0,0-1.35-3.63,4.08,4.08,0,0,0-3.26-1.45A4,4,0,0,0,241.23,362.25Z" transform="translate(-0.31)"/></g></g><path id="Duplicate_Items_Folder_Symbol_16_copy_3_0_Layer8_0_1_STROKES" data-name="Duplicate Items Folder Symbol 16 copy 3 0 Layer8 0 1 STROKES" class="cls-41" d="M338.15,375.35q.25,16.25,10.56,27.54T373.2,414q14.24-.21,24.13-11.91t9.58-27.9q-.32-16.26-10.57-27.55T371.8,335.53q-14.24.27-24.07,11.91T338.15,375.35Z" transform="translate(-0.31)"/><path id="Duplicate_Items_Folder_Symbol_16_copy_3_0_Layer7_0_1_STROKES" data-name="Duplicate Items Folder Symbol 16 copy 3 0 Layer7 0 1 STROKES" class="cls-41" d="M265.46,375.35q-.25,16.25-10.51,27.54T230.41,414q-14.24-.21-24.12-11.91t-9.58-27.9q.3-16.21,10.56-27.55t24.49-11.08q14.24.27,24.12,11.91T265.46,375.35Z" transform="translate(-0.31)"/><g id="Duplicate_Items_Folder_Symbol_16_copy_3_0_Layer4_0_STROKES_1_FILL" data-name="Duplicate Items Folder Symbol 16 copy 3 0 Layer4 0 STROKES 1 FILL"><path d="M243.41,336.36,238,334.81l-1.76-.31-.15-.05h-.21l-.67-.11H235l-.16,0h-.36l-2.12-.21q-1.4,0-2.85,0h-.36l-2.49.26a24.65,24.65,0,0,0-5.54,1.24,26.3,26.3,0,0,0-2.64,1L216,337.81a23.91,23.91,0,0,0-2.33,1.45L212,340.45l-.1.1-.16.11-1,.83-.11.1-.15.1-3.63,3.63-4.14,5.95-2.9,6.37-1.71,5.75-1.24,7.76-.15,2.85c-.07.07-.05.1,0,.1l.1-.05.11-.36.31-1.61,2.27-8.28,3.47-8.08,1.3-2.22a35.86,35.86,0,0,1,2.53-3.57l.32-.47.2-.21.52-.67,1.4-1.45.15-.21,2.38-2.22.11-.06.15-.1.57-.52.16,0,.21-.21.25-.15.21-.21.26-.15.1-.11,1.66-1.08a13.78,13.78,0,0,1,2.12-1.25,23.63,23.63,0,0,1,4.61-1.86l4.92-1.09,1.86-.15h.62c.87,0,1.73,0,2.59,0l1.61.1.62.1h.31l2.54.42a35.88,35.88,0,0,1,4.92,1.34l4.55,2.08c.48.24,1.19.65,2.12,1.24l2,1.4a31.27,31.27,0,0,1,3.57,3.15l1.45,1.45.06.11.62.67.05.1.21.21.15.21.21.2.31.47a42.09,42.09,0,0,1,2.48,3.57c.56.94,1.19,2.14,1.92,3.63l.41.88.06.2,1.86,5.7.52,2.64.1.36.57,6.16v1l0,.31c0,.07,0,.1.11.1l.05-.05.2-1.29.16-7.1-.26-2.38a28.73,28.73,0,0,0-.67-3.52l-.62-2.38-.11-.26-.05-.21-1.14-3-.26-.47-.2-.51-3.63-6-.21-.26-.1-.1-.46-.62-.06-.11,0-.05h-.05l-.05-.1-3.21-3.47-4.09-3.37c-1.21-.82-2-1.32-2.33-1.5a40.1,40.1,0,0,0-5-2.38m129-2.48-.36-.06-2,.06-.15.05h-.36c-.93.07-1.87.17-2.8.31l-.72.15h-.16l-.88.21-.36,0-.31.11-.36.05a22,22,0,0,0-2.7.88l-2.59,1-3.57,2-2.22,1.61-1.76,1.5-.11.1-.15.11-.68.67-.25.21-.21.25L347,346.25l-.51.78a.55.55,0,0,0-.21.25l-2.54,4-1,2-.42,1-.26.46-1.7,4.82-1.2,5.17-.82,6.94-.06,2.85c-.06.07-.05.1.06.1l.1-.05.1-.36.83-4.51q.74-3.11,1.45-5.43l3.37-8.54.51-.88.21-.47,3.16-4.76.1-.11.05-.1.37-.47.2-.2.52-.68,3.73-3.67.16-.11.1-.1,4.19-3,.11,0,.15-.11.26-.1a23.35,23.35,0,0,1,4.5-2,24.09,24.09,0,0,1,4.82-1.19,23.47,23.47,0,0,1,2.54-.26l.31-.05,1.91-.05.31.05,2.7.1.15.06h.31l.67.1h.31l.16.05h.16l.62.1q2.18.38,4.92,1.14a33.73,33.73,0,0,1,8.8,4.35c1,.76,1.65,1.24,1.86,1.45l.93.73,2.64,2.48v.05h0v.06l1.35,1.44,2.64,3.47.52.88.31.42,2,3.93.67,1.71a27.41,27.41,0,0,1,1,3.21l.31,1.14.72,4.35a28.67,28.67,0,0,1,.31,3.62l.06.26v.68l0,.31a.09.09,0,0,0,.1.1l.05-.05.16-1,.15-3.36.05-.31v-.26l-.46-5.75-1-4.4-.83-2.38-.2-.47a36,36,0,0,0-1.87-3.88l-3.36-4.87-.1-.1-.06-.1-.46-.52v-.05h0l-.11-.16c-.34-.41-.91-1-1.71-1.81L393,340.76a31.4,31.4,0,0,0-9.58-5l-.67-.26-1.66-.47-.36-.05c-.86-.24-1.78-.45-2.74-.62l-.68-.1h-.2l-.16-.05-.36-.06h-.36l-.68-.1h-.15l-.21,0Z" transform="translate(-0.31)"/></g><g id="Duplicate_Items_Folder_Symbol_16_copy_3_0_Layer3_0_FILL" data-name="Duplicate Items Folder Symbol 16 copy 3 0 Layer3 0 FILL"><path class="cls-42" d="M392,299.55a32.23,32.23,0,0,0-10.57-2.9,26.57,26.57,0,0,0-10.87,1.19,23.7,23.7,0,0,0-9.32,5.7,20.29,20.29,0,0,0-5.54,9.32l-1.81,2.07a75.36,75.36,0,0,1,54.47-1A41.48,41.48,0,0,0,392,299.55Z" transform="translate(-0.31)"/></g><g id="Duplicate_Items_Folder_Symbol_16_copy_3_0_Layer2_0_FILL" data-name="Duplicate Items Folder Symbol 16 copy 3 0 Layer2 0 FILL"><path class="cls-42" d="M249.72,314.93l-1.81-2.07a20.29,20.29,0,0,0-5.54-9.32,23.63,23.63,0,0,0-9.32-5.7,26.57,26.57,0,0,0-10.87-1.19,32.18,32.18,0,0,0-10.56,2.9,41.9,41.9,0,0,0-16.41,14.39,75.46,75.46,0,0,1,54.51,1Z" transform="translate(-0.31)"/></g><g id="Duplicate_Items_Folder_Symbol_25_copy_8_0_Layer0_0_MEMBER_0_MEMBER_0_FILL" data-name="Duplicate Items Folder Symbol 25 copy 8 0 Layer0 0 MEMBER 0 MEMBER 0 FILL"><path class="cls-43" d="M355.49,296.86l1.14-3.57-2.17,3a29.25,29.25,0,0,0-4,8.28,17.63,17.63,0,0,0-.31,9.22,16.65,16.65,0,0,0,.93,2.69l.47.88-.1-1a17.23,17.23,0,0,1-.16-2.69,34.16,34.16,0,0,1,1.4-8.49C353.22,303.38,354.15,300.59,355.49,296.86Z" transform="translate(-0.31)"/></g><g id="Duplicate_Items_Folder_Symbol_25_copy_8_0_Layer0_1_MEMBER_0_MEMBER_0_FILL" data-name="Duplicate Items Folder Symbol 25 copy 8 0 Layer0 1 MEMBER 0 MEMBER 0 FILL"><path class="cls-43" d="M357.1,304.93l3.11-9.47-.57.57a13.51,13.51,0,0,0-1.45,1.71,20.83,20.83,0,0,0-3.32,6.52,21.68,21.68,0,0,0-.82,7.35,13,13,0,0,0,.25,2.18l.16.83.78-2.9Q355.81,309.33,357.1,304.93Z" transform="translate(-0.31)"/></g><g id="Duplicate_Items_Folder_Symbol_24_copy_4_0_Layer0_0_MEMBER_0_MEMBER_0_FILL" data-name="Duplicate Items Folder Symbol 24 copy 4 0 Layer0 0 MEMBER 0 MEMBER 0 FILL"><path class="cls-43" d="M249.15,296.34l-2.17-3,1.14,3.57c1.34,3.73,2.28,6.52,2.79,8.39a32.71,32.71,0,0,1,1.35,8.49,17.19,17.19,0,0,1-.1,2.69l-.11,1,.47-.88a18.41,18.41,0,0,0,.93-2.69,17.53,17.53,0,0,0-.31-9.22A29.25,29.25,0,0,0,249.15,296.34Z" transform="translate(-0.31)"/></g><g id="Duplicate_Items_Folder_Symbol_24_copy_4_0_Layer0_1_MEMBER_0_MEMBER_0_FILL" data-name="Duplicate Items Folder Symbol 24 copy 4 0 Layer0 1 MEMBER 0 MEMBER 0 FILL"><path class="cls-43" d="M244,296l-.57-.62,3.1,9.52q1.31,4.41,1.87,6.79l.77,2.9.16-.83a12.9,12.9,0,0,0,.26-2.18,21.68,21.68,0,0,0-.83-7.35,21,21,0,0,0-3.31-6.52A15.39,15.39,0,0,0,244,296Z" transform="translate(-0.31)"/></g><rect class="cls-44" x="40.43" y="581.83" width="474.91" height="232.72"/><rect class="cls-45" x="49.34" y="592.26" width="456" height="218.31"/><path class="cls-46" d="M505.66,592.26c0-.66-179.36.37-191.42,1.6l-13,1.34c61.14-.12,112.28,1.56,173.31,5,7.67.44,16.29,1.38,21,7.41,8.32,10.57,7.91,32.49,9,45.58,1.52,17.47,1.66,136.1.4,153.59C508.15,769.34,505.66,629.87,505.66,592.26Z" transform="translate(-0.31)"/><path class="cls-46" d="M49.65,810H351.78c29.2,0,107.87.4,136.86.4-59.19,0-167.59-6.6-226.77-8.19C209,800.83,97,805.92,77.88,781.18c-12-15.5-11.48-29.6-12.95-54.61-1.39-23.64.34-48.76,2.79-72,4.27-40.57,24-50.8,41.51-54.91,15.62-3.65,61.71-6.59,84-7.25-7.35-.81-143.57-1.16-143.57.07Z" transform="translate(-0.31)"/><g class="cls-47"><path class="cls-48" d="M49.65,810.2V592.54a188,188,0,0,1,19.72-.27c-7.65.1-5.48.25-12.66,5.37-5,3.55-6.65,14.1-.56,17.4a7.6,7.6,0,0,0,4.76.47l3.45-.4A39,39,0,0,0,58,617a5.9,5.9,0,0,0-2.7,1.77,7.4,7.4,0,0,0-1.45,4.52c0,3.4.14,6.78.07,10.25q-.25,11.37-.42,22.73-.21,14-.31,28.06c0,5.24-.82,16.64,1.74,20.19a4,4,0,0,0,2.59,1.56,16.05,16.05,0,0,0,7.36,0,24.6,24.6,0,0,0-7.59,3.4,6.72,6.72,0,0,0-2.65,2.87c-1,2.17-1.12,5.35-1.18,8.27-.33,16.14-.95,22-1.64,38.07-.4,9.2-.73,18.5-.58,27.74.11,7,2.42,8.55,5.57,9a70.36,70.36,0,0,0,14.92.63l-5.27.57a44.87,44.87,0,0,0-10.09,1.9,3.06,3.06,0,0,0-1.87,1.4c-2.5,4.34-.16,8.84,2.2,9.52l2.55.72C56.23,809.35,52.68,810.2,49.65,810.2Z" transform="translate(-0.31)"/></g><path class="cls-49" d="M25.83,568.22V834.74H532.12V568.22ZM508.71,813.71H46.56V589.25H508.71Z" transform="translate(-0.31)"/><g id="Layer0_4_MEMBER_3_MEMBER_0_MEMBER_0_FILL" data-name="Layer0 4 MEMBER 3 MEMBER 0 MEMBER 0 FILL"><path class="cls-50" d="M39.29,595l-.11,8.47q-.09,8.45-.09,22,0,12.33.06,22l.2,9.11.06-.64.14-8.47q.09-9.66.06-22l-.26-31.07Z" transform="translate(-0.31)"/></g><g id="Layer0_4_MEMBER_4_MEMBER_0_MEMBER_0_FILL" data-name="Layer0 4 MEMBER 4 MEMBER 0 MEMBER 0 FILL"><path class="cls-50" d="M30.26,653.58l-.21,17.94c0,2.36,0,63.2,0,68.52,0,7.81,0,58.84,0,65l.15,8.07c0,.4,0,.61.06.61l.17-8.68c.06-5.36.09-56.38.09-65l-.26-86.6Z" transform="translate(-0.31)"/></g><g id="Layer0_3_MEMBER_2_MEMBER_0_MEMBER_0_FILL" data-name="Layer0 3 MEMBER 2 MEMBER 0 MEMBER 0 FILL"><path class="cls-50" d="M517.08,582.26a11.58,11.58,0,0,0-.09-1.36,11.58,11.58,0,0,0-.09,1.36l-.08,7.71c-.06,6.2-.09,10.26-.09,12.15l.14,15.87a5.77,5.77,0,0,0,.12,1.34,5.77,5.77,0,0,0,.12-1.34l.08-3.68q.06-3.13.06-12.19c0-1.89,0-6-.09-12.15Z" transform="translate(-0.31)"/></g><g id="Layer0_3_MEMBER_3_MEMBER_0_MEMBER_0_FILL" data-name="Layer0 3 MEMBER 3 MEMBER 0 MEMBER 0 FILL"><path class="cls-50" d="M517.74,630.82l-.17-9.11-.06.64-.14,8.47q-.09,16.89-.09,22c0,9,0,73.37.09,79l.2,9.11.06-.63.2-87.48Q517.83,639.27,517.74,630.82Z" transform="translate(-0.31)"/></g><g id="Layer0_3_MEMBER_4_MEMBER_0_MEMBER_0_FILL" data-name="Layer0 3 MEMBER 4 MEMBER 0 MEMBER 0 FILL"><path class="cls-50" d="M528,650.32l0-.15-.26,86.6c0,8.61,0,59.64.09,65q0,4.08.09,6.35l.08,2.32s.06-.2.06-.61l.15-8.06c0-3.58.06-54.61.06-65Z" transform="translate(-0.31)"/></g><g id="Layer0_2_MEMBER_5_FILL" data-name="Layer0 2 MEMBER 5 FILL"><path class="cls-51" d="M531.88,824.69v-2.18l-61.77,1.08Z" transform="translate(-0.31)"/></g><g id="Layer0_2_MEMBER_2_FILL" data-name="Layer0 2 MEMBER 2 FILL"><path class="cls-51" d="M25.94,824.45v1.43L244.25,825Z" transform="translate(-0.31)"/></g><g id="Layer0_2_MEMBER_3_MEMBER_0_MEMBER_0_FILL" data-name="Layer0 2 MEMBER 3 MEMBER 0 MEMBER 0 FILL"><path class="cls-52" d="M267.31,834.74l-1-10.81-1.21,10.81" transform="translate(-0.31)"/></g><g id="Layer0_2_MEMBER_4_MEMBER_0_MEMBER_0_FILL" data-name="Layer0 2 MEMBER 4 MEMBER 0 MEMBER 0 FILL"><path class="cls-50" d="M435.22,829.91l-5.89-.11q-6-.12-17.18-.18-17.5-.11-56.67.21l-74.25.4,17.58.26q9.63.09,25.48,0l31.19-.2q40-.32,56.67-.35h23.38q.09,0,.09,0h-.09Z" transform="translate(-0.31)"/></g><g class="cls-53"><g id="Layer0_1_MEMBER_5_FILL" data-name="Layer0 1 MEMBER 5 FILL"><path class="cls-52" d="M25.85,570.43v1.4l188.71-.93Z" transform="translate(-0.31)"/></g></g><g class="cls-53"><g id="Layer0_1_MEMBER_5_FILL-2" data-name="Layer0 1 MEMBER 5 FILL"><path class="cls-52" d="M25.85,620.94v2.19l11.83-.86Z" transform="translate(-0.31)"/></g></g><g id="Layer0_4_MEMBER_1_FILL" data-name="Layer0 4 MEMBER 1 FILL"><path class="cls-52" d="M46.62,794.66l2.23-1.45-2.23-.93-8.94.93Z" transform="translate(-0.31)"/></g><g id="Layer0_4_MEMBER_1_FILL-2" data-name="Layer0 4 MEMBER 1 FILL"><polygon class="cls-54" points="46.31 792.28 46.31 794.65 48.54 793.21 46.31 792.28"/></g><g id="Layer0_1_MEMBER_6_MEMBER_0_MEMBER_0_FILL" data-name="Layer0 1 MEMBER 6 MEMBER 0 MEMBER 0 FILL"><path class="cls-50" d="M327.16,585.65s0,0-.11,0l-7.08-.2c-5.87-.16-12.17-.25-19.65-.35q-21.26-.24-29.1-.2c-3.73,0-6.54.08-8.41.14s-4.87.11-8.79.15q-12,.06-18.46,0l-35.69-.38q-8.79-.15-29.13.14l-26.84.12,7.2.2q9,.12,19.64,0l13.58-.11q8.58,0,15.55.11l17.21.32q7.92.12,18.48.12,6.45,0,18.46,0,5.88-.06,8.79-.15l8.41-.17q9.52-.06,29.1.09Z" transform="translate(-0.31)"/></g><g id="Layer0_1_MEMBER_7_MEMBER_0_MEMBER_0_FILL" data-name="Layer0 1 MEMBER 7 MEMBER 0 MEMBER 0 FILL"><path class="cls-50" d="M446.68,572.11l-.12,0-23.18,0q-16.69,0-56.18-.26l-31-.12c-11.8,0-20,0-25.24,0l-19,.29,2,0q8.67-.06,17,0l56.17.29q38.35.27,56.21.15l23.18-.38Z" transform="translate(-0.31)"/></g><g id="Layer0_1_MEMBER_8_FILL" data-name="Layer0 1 MEMBER 8 FILL"><path class="cls-51" d="M532.14,576.08V573.9l-61.24,1.22Z" transform="translate(-0.31)"/></g><g id="Layer0_1_MEMBER_3_MEMBER_0_FILL" data-name="Layer0 1 MEMBER 3 MEMBER 0 FILL"><path class="cls-52" d="M447.11,589.26l1.1,2,1.1-2-.92-8.11Z" transform="translate(-0.31)"/></g><g id="Layer0_1_MEMBER_4_FILL" data-name="Layer0 1 MEMBER 4 FILL"><path class="cls-52" d="M230.86,568.24h-2.53l1.27,6.91Z" transform="translate(-0.31)"/></g><g class="cls-53"><g id="Layer0_1_MEMBER_5_FILL-3" data-name="Layer0 1 MEMBER 5 FILL"><path class="cls-52" d="M297.06,834.74h2.19" transform="translate(-0.31)"/></g></g><text class="cls-55" transform="translate(76.81 641.94) scale(0.99 1)">Hello! I am Rabbitu<tspan x="80.54" y="45.6">I am honest</tspan><tspan x="66.59" y="91.2">I am friendly</tspan><tspan x="114.89" y="136.8">I am fair</tspan></text><path class="cls-56" d="M35.9,695a15.19,15.19,0,0,1-11.15,3.61c-4.14-.33-8.08-1.94-11.9-3.69-7.68-3.5-14.2-4.41-11.26-15.19A21,21,0,0,1,16.7,664.52,72.65,72.65,0,0,1,26.09,663s-.2,11.74-.2,11.74l-3.53-1.91a26.84,26.84,0,0,1,8.73,6.37c2.42,2.5,5.44,5.18,6.57,8.56C38.66,690.71,38.16,692.87,35.9,695Z" transform="translate(-0.31)"/><path class="cls-57" d="M16.48,719.86c5,.16,9.66-1.82,14-4.3,3.19-1.82,8.63-4.95,7-9.59-1.51-4.25-7.41-4.61-11-6.21L8,691.59c-3.27,1.94-5.31,6.06-6.05,10.22C-.15,713.5,4.56,719.46,16.48,719.86Z" transform="translate(-0.31)"/><path class="cls-58" d="M26.22,663H25.13c-.72,0-1.78,0-3.14.21a30,30,0,0,0-11,3.49,21.73,21.73,0,0,0-6.29,5.12,20.76,20.76,0,0,0-2.53,3.82,16.94,16.94,0,0,0-1.49,4.69,13.49,13.49,0,0,0,.3,5.23,13.87,13.87,0,0,0,2.63,4.82,26,26,0,0,0,9.25,6.24,38.51,38.51,0,0,0,10.68,2.83,17.36,17.36,0,0,0,10.26-1.9,10.66,10.66,0,0,0,3.79-3.29,7,7,0,0,0,1.2-4.65,8.76,8.76,0,0,0-1.65-4.06,25.54,25.54,0,0,0-2.48-3c-.84-.89-1.6-1.73-2.35-2.55s-1.49-1.55-2.2-2.21a27.47,27.47,0,0,0-3.94-3.06,18.64,18.64,0,0,0-2.77-1.49c-.66-.28-1-.41-1-.41s.34.15,1,.48A21.44,21.44,0,0,1,26,674.93a29,29,0,0,1,3.68,3.25c1.36,1.35,2.68,3.1,4.27,5a25.38,25.38,0,0,1,2.25,3,7.69,7.69,0,0,1,1.3,3.56,5.64,5.64,0,0,1-1.12,3.72A9,9,0,0,1,33,696.1a16,16,0,0,1-9.31,1.52,38.84,38.84,0,0,1-10.16-2.77,25.32,25.32,0,0,1-8.63-5.69A12.3,12.3,0,0,1,2.59,685a11.85,11.85,0,0,1-.36-4.54,15.49,15.49,0,0,1,1.22-4.28,19.67,19.67,0,0,1,2.22-3.63,21.19,21.19,0,0,1,5.77-5.12,30.65,30.65,0,0,1,10.6-4c1.33-.25,2.38-.34,3.09-.42Z" transform="translate(-0.31)"/><path class="cls-59" d="M11,720.09c-3.81,7.13-1.84,11.52,5,14.67,3.81,1.77,8.28,1.11,12.16-.82a22.08,22.08,0,0,0,7-5,11.73,11.73,0,0,0,3-5.6c.85-4.51-5.11-6.83-8.42-7.63Z" transform="translate(-0.31)"/><path class="cls-58" d="M11,720.09l-.3.51a16.17,16.17,0,0,0-.8,1.5,9.55,9.55,0,0,0-.48,1.14,10.82,10.82,0,0,0-.45,1.42,8.42,8.42,0,0,0-.12,3.68,8.06,8.06,0,0,0,2.2,4,16,16,0,0,0,4.19,3,11.94,11.94,0,0,0,5.6,1.4,16.2,16.2,0,0,0,6.05-1.18,27.19,27.19,0,0,0,5.3-2.9,19.72,19.72,0,0,0,4.16-3.86A10.44,10.44,0,0,0,38.49,724a5.83,5.83,0,0,0-.15-2.47,6,6,0,0,0-1.06-2,9.16,9.16,0,0,0-2.89-2.28,14.58,14.58,0,0,0-2.52-1c-.71-.22-1.27-.34-1.65-.42l-.58-.11.56.19c.36.13.9.32,1.57.62a14.83,14.83,0,0,1,2.31,1.26,8.73,8.73,0,0,1,2.44,2.32,5.08,5.08,0,0,1,.74,1.7,4.85,4.85,0,0,1,0,2,9.4,9.4,0,0,1-2.16,4,24.5,24.5,0,0,1-8.92,6c-3.54,1.41-7.34,1.55-10.27.1a15.52,15.52,0,0,1-4-2.47,7.23,7.23,0,0,1-2.18-3.27,10.08,10.08,0,0,1,.41-5.91c.23-.69.45-1.22.6-1.57Z" transform="translate(-0.31)"/><path class="cls-58" d="M7.94,691.43l-.68.48a13.47,13.47,0,0,0-1.85,1.56A18.2,18.2,0,0,0,1,701.21a18.07,18.07,0,0,0-.69,6.21,15,15,0,0,0,2.13,7c.35.54.77,1.07,1.17,1.61a11.22,11.22,0,0,0,1.49,1.43,13.47,13.47,0,0,0,3.67,2.05,24.82,24.82,0,0,0,8.48,1.33,27.81,27.81,0,0,0,15.51-5,25.66,25.66,0,0,0,2.89-2.31,15.67,15.67,0,0,0,2.36-2.66,6.81,6.81,0,0,0,.77-1.61,6.11,6.11,0,0,0,.2-1.75,4.87,4.87,0,0,0-1.44-2.88,13,13,0,0,0-4.41-2.67,36.77,36.77,0,0,0-3.62-1.22L27.24,700l-.8-.25.77.32,2.25.87c1,.38,2.15.84,3.47,1.48a12.8,12.8,0,0,1,4,2.77,3.8,3.8,0,0,1,1,2.3,4.63,4.63,0,0,1-.23,1.31,5.39,5.39,0,0,1-.68,1.27,15.74,15.74,0,0,1-2.26,2.3,27.82,27.82,0,0,1-17.45,6.54,24.41,24.41,0,0,1-7.85-1.15,10.66,10.66,0,0,1-5.62-4.25,14,14,0,0,1-2.18-6.21A17.65,17.65,0,0,1,2,701.44a18.47,18.47,0,0,1,3.68-7.78A15.6,15.6,0,0,1,7.31,692Z" transform="translate(-0.31)"/><path class="cls-60" d="M522.4,695a15.2,15.2,0,0,0,11.15,3.61c4.14-.33,8.08-1.94,11.9-3.69,7.68-3.5,14.2-4.41,11.26-15.19a21,21,0,0,0-15.11-15.23,72.65,72.65,0,0,0-9.39-1.56s.2,11.74.2,11.74l3.53-1.91a26.7,26.7,0,0,0-8.72,6.37c-2.43,2.5-5.45,5.18-6.57,8.56C519.64,690.71,520.14,692.87,522.4,695Z" transform="translate(-0.31)"/><path class="cls-61" d="M541.82,719.86c-5,.16-9.66-1.82-14-4.3-3.18-1.82-8.63-4.95-7-9.59,1.51-4.25,7.42-4.61,11-6.21l18.46-8.17c3.27,1.94,5.31,6.06,6,10.22C558.45,713.5,553.75,719.46,541.82,719.86Z" transform="translate(-0.31)"/><path class="cls-58" d="M532.08,663l1.09.08c.71.08,1.77.17,3.1.42a30.79,30.79,0,0,1,10.6,4,21.15,21.15,0,0,1,5.76,5.12,18.64,18.64,0,0,1,2.22,3.63,15.15,15.15,0,0,1,1.22,4.28,11.85,11.85,0,0,1-.36,4.54,12.3,12.3,0,0,1-2.34,4.12,25.32,25.32,0,0,1-8.63,5.69,38.84,38.84,0,0,1-10.16,2.77,16,16,0,0,1-9.31-1.52,9,9,0,0,1-3.33-2.7,5.64,5.64,0,0,1-1.12-3.72,7.88,7.88,0,0,1,1.3-3.57,27.34,27.34,0,0,1,2.25-3c1.59-1.85,2.91-3.6,4.27-5a29,29,0,0,1,3.68-3.25,21.44,21.44,0,0,1,2.64-1.66c.64-.33,1-.48,1-.48s-.35.12-1,.41a19.92,19.92,0,0,0-2.77,1.48,29,29,0,0,0-3.94,3.07c-.71.66-1.45,1.4-2.2,2.21s-1.51,1.66-2.35,2.55a26.25,26.25,0,0,0-2.48,3,8.84,8.84,0,0,0-1.65,4.07,7,7,0,0,0,1.21,4.65,10.55,10.55,0,0,0,3.78,3.29,17.36,17.36,0,0,0,10.26,1.9,38.67,38.67,0,0,0,10.69-2.83,26.18,26.18,0,0,0,9.25-6.24,13.84,13.84,0,0,0,2.62-4.82,13.49,13.49,0,0,0,.3-5.23,16.94,16.94,0,0,0-1.49-4.69,20.26,20.26,0,0,0-2.53-3.82,21.6,21.6,0,0,0-6.29-5.12,30,30,0,0,0-11-3.49c-1.36-.16-2.42-.19-3.13-.21Z" transform="translate(-0.31)"/><path class="cls-62" d="M547.35,720.09c3.81,7.13,1.84,11.52-5,14.67-3.81,1.77-8.28,1.11-12.16-.82a22.19,22.19,0,0,1-7-5,11.73,11.73,0,0,1-3-5.6c-.85-4.51,5.11-6.83,8.42-7.63Z" transform="translate(-0.31)"/><path class="cls-58" d="M547.35,720.09l.23.55a16.44,16.44,0,0,1,.6,1.57,10,10,0,0,1,.41,5.91,7.31,7.31,0,0,1-2.18,3.28,15.78,15.78,0,0,1-4,2.46c-2.93,1.45-6.73,1.31-10.27-.1a24.58,24.58,0,0,1-8.92-6,9.37,9.37,0,0,1-2.15-4,4.86,4.86,0,0,1,0-2,5.29,5.29,0,0,1,.74-1.7,8.73,8.73,0,0,1,2.44-2.32,17.54,17.54,0,0,1,3.88-1.88l.56-.19-.58.11c-.38.08-.94.2-1.65.42a14.21,14.21,0,0,0-2.51,1,8.91,8.91,0,0,0-2.89,2.28,5.83,5.83,0,0,0-1.07,2,6,6,0,0,0-.15,2.47,10.44,10.44,0,0,0,2.19,4.76,19.47,19.47,0,0,0,4.16,3.86,27.48,27.48,0,0,0,5.3,2.9,16.24,16.24,0,0,0,6,1.18,12,12,0,0,0,5.61-1.4,16.14,16.14,0,0,0,4.19-3,8.12,8.12,0,0,0,2.19-4,8.42,8.42,0,0,0-.12-3.68,10.86,10.86,0,0,0-.44-1.42,11.46,11.46,0,0,0-.49-1.14,16.17,16.17,0,0,0-.8-1.5Z" transform="translate(-0.31)"/><path class="cls-58" d="M550.36,691.43l.64.54a16.56,16.56,0,0,1,1.68,1.69,18.6,18.6,0,0,1,3.67,7.78,17.64,17.64,0,0,1,.33,5.87,14,14,0,0,1-2.19,6.21,10.67,10.67,0,0,1-5.61,4.25,24.51,24.51,0,0,1-7.86,1.15,27.82,27.82,0,0,1-14.64-4.46,28.79,28.79,0,0,1-2.81-2.08,15.16,15.16,0,0,1-2.25-2.3,5.09,5.09,0,0,1-.69-1.27,4.63,4.63,0,0,1-.23-1.31,3.8,3.8,0,0,1,1-2.3,12.91,12.91,0,0,1,4-2.77c1.32-.64,2.51-1.11,3.48-1.49l2.24-.86.77-.32-.8.24-2.31.67a36.77,36.77,0,0,0-3.62,1.22,13,13,0,0,0-4.41,2.67,4.87,4.87,0,0,0-1.44,2.88,5.79,5.79,0,0,0,.21,1.75,6.41,6.41,0,0,0,.76,1.61,15.67,15.67,0,0,0,2.36,2.66,25.66,25.66,0,0,0,2.89,2.31,27.84,27.84,0,0,0,15.52,5,24.76,24.76,0,0,0,8.47-1.33,13.47,13.47,0,0,0,3.67-2.05,11.22,11.22,0,0,0,1.49-1.43c.4-.54.82-1.06,1.17-1.61a15,15,0,0,0,2.14-7,18.9,18.9,0,0,0-5.07-14,14.74,14.74,0,0,0-1.84-1.55Z" transform="translate(-0.31)"/></g></g></svg>