<svg xmlns="http://www.w3.org/2000/svg" xmlns:xlink="http://www.w3.org/1999/xlink" viewBox="0 0 435.19 613.33"><defs><style>.cls-1{fill:#fff;}.cls-2{fill:#657855;}.cls-3{fill:#798b68;}.cls-4{fill:#879a75;}.cls-5{fill:#364527;}.cls-6{fill:#354426;}.cls-7{fill:#7c969d;}.cls-8{fill:#c7ca75;}.cls-9{fill:url(#linear-gradient);}.cls-10{fill:#546f87;}.cls-11{fill:#d9e8ee;}.cls-12{fill:url(#linear-gradient-2);}.cls-13{fill:#8d9c5b;}.cls-14{fill:#90c0dc;}.cls-15{fill:url(#linear-gradient-3);}.cls-16{fill:#4198b9;}.cls-17{fill:#95d4f1;}.cls-18{fill:#bfedfd;}.cls-19{fill:url(#linear-gradient-4);}.cls-20,.cls-51,.cls-52{fill:none;stroke-miterlimit:10.46;}.cls-20{stroke:#4198b9;stroke-width:1.46px;}.cls-21{fill:url(#linear-gradient-5);}.cls-22{fill:url(#linear-gradient-6);}.cls-23{fill:#375973;}.cls-24{fill:url(#linear-gradient-7);}.cls-25{fill:#91a74a;}.cls-26{fill:url(#linear-gradient-8);}.cls-27{fill:#fbf8dd;}.cls-28{fill:#c0b990;}.cls-29{fill:url(#linear-gradient-9);}.cls-30{fill:url(#linear-gradient-10);}.cls-31{fill:url(#linear-gradient-11);}.cls-32{fill:url(#linear-gradient-12);}.cls-33{fill:url(#linear-gradient-13);}.cls-34{fill:url(#linear-gradient-14);}.cls-35{fill:#a1b060;}.cls-36{fill:url(#linear-gradient-15);}.cls-37{fill:#9e9e44;}.cls-38{mask:url(#mask);}.cls-39{fill:#f9fafa;}.cls-40{mask:url(#mask-2);}.cls-41{fill:#c4c275;}.cls-42{fill:#010101;}.cls-43{fill:#020100;}.cls-44{fill:#fffdfa;}.cls-45{fill:#adad48;}.cls-46{fill:url(#radial-gradient);}.cls-47{fill:url(#linear-gradient-16);}.cls-48{fill:#300e0d;}.cls-49{fill:#fffee5;}.cls-50{opacity:0.3;}.cls-51,.cls-52{stroke:#000;}.cls-51{stroke-width:6.68px;}.cls-52{stroke-width:13.47px;}.cls-53{fill:#455635;}.cls-54{fill:#774b2c;}.cls-55{fill:#fcf4dd;}.cls-56{fill:#f1e8d1;}.cls-57{opacity:0.5;}.cls-58{fill:#9d947f;}.cls-59{fill:#c78e62;}.cls-60{fill:#795741;}.cls-61{fill:#663f26;}.cls-62{fill:#442917;}.cls-63{isolation:isolate;}.cls-64{fill:#30190c;}.cls-65{fill:#e3e4a4;}.cls-66{fill:#415832;}.cls-67{font-size:33.04px;fill:#005d52;font-family:Adventuring;}</style><linearGradient id="linear-gradient" x1="215.87" y1="1299.52" x2="159.26" y2="1299.52" gradientTransform="matrix(0.9, 0.53, 0.53, -0.9, -720.63, 1407.22)" gradientUnits="userSpaceOnUse"><stop offset="0.02" stop-color="#91a749"/><stop offset="0.33" stop-color="#9cae52"/><stop offset="1" stop-color="#b3bd66"/><stop offset="1" stop-color="#bdc56f"/><stop offset="1" stop-color="#c5ca76"/></linearGradient><linearGradient id="linear-gradient-2" x1="2971.44" y1="1229.16" x2="2914.82" y2="1229.16" gradientTransform="translate(3637.97 -43.55) rotate(150.93) scale(1.05)" xlink:href="#linear-gradient"/><linearGradient id="linear-gradient-3" x1="232.65" y1="1173.04" x2="353.4" y2="1078.07" gradientTransform="matrix(1.05, 0, 0, -1.05, -54.35, 1712.25)" gradientUnits="userSpaceOnUse"><stop offset="0.02" stop-color="#90c0dc"/><stop offset="0.09" stop-color="#85bbd8"/><stop offset="0.39" stop-color="#5fa8c8"/><stop offset="0.65" stop-color="#499abd"/><stop offset="0.87" stop-color="#3f92b6"/><stop offset="1" stop-color="#3d8fb4"/></linearGradient><linearGradient id="linear-gradient-4" x1="297.47" y1="1172.94" x2="430.69" y2="1068.18" xlink:href="#linear-gradient-3"/><linearGradient id="linear-gradient-5" x1="284.49" y1="1482.34" x2="137.17" y2="1482.34" gradientTransform="matrix(1.05, 0, 0, -1.05, 4.99, 2012.96)" xlink:href="#linear-gradient-3"/><linearGradient id="linear-gradient-6" x1="-6.6" y1="1405.71" x2="216.26" y2="1463.18" gradientTransform="matrix(1.05, 0, 0, -1.05, 55.6, 1910.08)" gradientUnits="userSpaceOnUse"><stop offset="0.04" stop-color="#546f87"/><stop offset="1" stop-color="#446075" stop-opacity="0"/></linearGradient><linearGradient id="linear-gradient-7" x1="220.83" y1="1046.16" x2="224.99" y2="1072.15" gradientTransform="matrix(1.05, 0, 0, -1.05, -54.35, 1712.25)" xlink:href="#linear-gradient"/><linearGradient id="linear-gradient-8" x1="219.31" y1="1045.54" x2="232.01" y2="1075.87" gradientTransform="matrix(1.05, 0, 0, -1.05, -54.35, 1712.25)" gradientUnits="userSpaceOnUse"><stop offset="0.02" stop-color="#b7cb79"/><stop offset="0.33" stop-color="#c3d282"/><stop offset="1" stop-color="#dae195"/><stop offset="1" stop-color="#e4e99e"/><stop offset="1" stop-color="#eceea5"/></linearGradient><linearGradient id="linear-gradient-9" x1="198.2" y1="1049.71" x2="222.72" y2="1076.76" xlink:href="#linear-gradient-8"/><linearGradient id="linear-gradient-10" x1="186.29" y1="1056.39" x2="201.68" y2="1073.87" xlink:href="#linear-gradient-8"/><linearGradient id="linear-gradient-11" x1="316.96" y1="1073.02" x2="313.54" y2="1046.92" gradientTransform="matrix(1.05, 0, 0, -1.05, -54.35, 1712.25)" xlink:href="#linear-gradient"/><linearGradient id="linear-gradient-12" x1="322.72" y1="1075.78" x2="310.9" y2="1045.08" xlink:href="#linear-gradient-8"/><linearGradient id="linear-gradient-13" x1="346.94" y1="1073.82" x2="323.23" y2="1046.1" xlink:href="#linear-gradient-8"/><linearGradient id="linear-gradient-14" x1="356.72" y1="1073.29" x2="341.85" y2="1055.4" xlink:href="#linear-gradient-8"/><linearGradient id="linear-gradient-15" x1="672.93" y1="1493.69" x2="206.3" y2="1497.96" gradientTransform="matrix(1.05, 0, 0, -1.05, -54.35, 1712.25)" gradientUnits="userSpaceOnUse"><stop offset="0.02" stop-color="#91a749"/><stop offset="0.55" stop-color="#afbb63"/><stop offset="1" stop-color="#c5ca76"/></linearGradient><mask id="mask" x="273.29" y="64.46" width="92.84" height="112.75" maskUnits="userSpaceOnUse"><g id="Mask_Mask_8" data-name="Mask Mask 8"><g id="Mask_Mask_Duplicate_Items_Folder_Tween_1_copy_2_0_Layer0_0_FILL" data-name="Mask Mask Duplicate Items Folder Tween 1 copy 2 0 Layer0 0 FILL"><path class="cls-1" d="M358.89,94.55a58.91,58.91,0,0,0-11.77-17.71A39.16,39.16,0,0,0,330.18,66.3q-16.55-4.78-29.48,2.84Q289.23,75.92,282,91.47a95.9,95.9,0,0,0-8.24,32.25,102.82,102.82,0,0,0,2.08,32.8q14.09,12.78,38.72,12.24,25.63-.69,40.42-16a62.6,62.6,0,0,0,11.16-16.17Q366.28,111.56,358.89,94.55Z"/></g></g></mask><mask id="mask-2" x="97.53" y="64.46" width="92.84" height="112.6" maskUnits="userSpaceOnUse"><g id="Mask_Mask_9" data-name="Mask Mask 9"><g id="Mask_Duplicate_Items_Folder_Symbol_73_copy_7_0_3_MASK_0_FILL" data-name="Mask Duplicate Items Folder Symbol 73 copy 7 0 3 MASK 0 FILL"><path class="cls-1" d="M163,69.14Q150,61.52,133.49,66.3a38.58,38.58,0,0,0-16.86,10.54,58.22,58.22,0,0,0-11.86,17.71q-7.38,17-7.23,42a62.6,62.6,0,0,0,11.16,16.17q14.77,15.31,40.42,16,24.63.54,38.72-12.24a102.82,102.82,0,0,0,2.08-32.8,95.9,95.9,0,0,0-8.24-32.25Q174.45,75.91,163,69.14Z"/></g></g></mask><radialGradient id="radial-gradient" cx="163.2" cy="775.39" r="28.35" gradientTransform="translate(62.65 -632.76) scale(1.05)" gradientUnits="userSpaceOnUse"><stop offset="0.04" stop-color="#d9d886"/><stop offset="0.36" stop-color="#d2d17e" stop-opacity="0.77"/><stop offset="0.86" stop-color="#bebe69" stop-opacity="0.15"/><stop offset="0.96" stop-color="#bab964" stop-opacity="0"/></radialGradient><linearGradient id="linear-gradient-16" x1="274.95" y1="1457.89" x2="274.95" y2="1406.98" gradientTransform="matrix(1.05, 0, 0, -1.05, -54.35, 1712.25)" gradientUnits="userSpaceOnUse"><stop offset="0.02" stop-color="#bab964"/><stop offset="0.43" stop-color="#c1c36d"/><stop offset="0.96" stop-color="#c7ca75"/></linearGradient></defs><title>Asset 69</title><g id="Layer_2" data-name="Layer 2"><g id="Layer_2-2" data-name="Layer 2"><g id="Duplicate_Items_Folder_Symbol_67_copy_6_0_Layer0_0_MEMBER_0_FILL" data-name="Duplicate Items Folder Symbol 67 copy 6 0 Layer0 0 MEMBER 0 FILL"><path class="cls-2" d="M181.53,270.61q-5.85,7.92-9.24,11.62-4.47,4.86-16.17,15.78a212.41,212.41,0,0,0-15.93,16.17Q120,337.9,113.63,371.3t3.46,64q17,53.28,67.44,92.92,8.55,6.63,13.47,9.78a64,64,0,0,0,14.7,7.24q28.41,9.15,61.74-17,50.51-39.72,67.52-92.92,9.85-30.63,3.46-64t-26.63-57.12A200.16,200.16,0,0,0,302.93,298q-11.7-10.92-16.17-15.78-2.85-3-11.93-15.16-7.08-9.39-12.93-13.94a62.92,62.92,0,0,0-22-11.39q-12.78-3.39-26.41,1.69A59.74,59.74,0,0,0,190.76,259Q187.54,262.52,181.53,270.61Z"/></g><g id="Duplicate_Items_Folder_Symbol_67_copy_6_0_Layer0_0_MEMBER_1_FILL" data-name="Duplicate Items Folder Symbol 67 copy 6 0 Layer0 0 MEMBER 1 FILL"><path class="cls-3" d="M137,451.75a2,2,0,0,0-2.23,1q-3.61,6.47,3.62,19.86,3.76,6.86,6.31,10.62a39,39,0,0,0,8.16,8.93c2.52,1.9,4.77,1.6,6.78-.92a7.1,7.1,0,0,0,1.15-7.85,62,62,0,0,0-5.54-9.62q-5.62-8.16-6.31-9.32a65.6,65.6,0,0,0-5-7.7Q140.42,452.29,137,451.75Z"/></g><g id="Duplicate_Items_Folder_Symbol_67_copy_6_0_Layer0_0_MEMBER_2_FILL" data-name="Duplicate Items Folder Symbol 67 copy 6 0 Layer0 0 MEMBER 2 FILL"><path class="cls-3" d="M176.6,295.63q4.47-5.85,6.62-9.16,3.76-5.85,4.31-10.32a1,1,0,0,0-.23-1,.83.83,0,0,0-.92-.31c-2.78.72-5.85,2.72-9.24,6q-2.92,2.85-7.93,8.54-2.39,2.55-8,8.32a36.63,36.63,0,0,0-6.46,9.7,5.76,5.76,0,0,0,1.46,6.92q3.15,2.93,6.23-.38Q167.66,308.4,176.6,295.63Z"/></g><g id="Duplicate_Items_Folder_Symbol_67_copy_6_0_Layer0_0_MEMBER_3_FILL" data-name="Duplicate Items Folder Symbol 67 copy 6 0 Layer0 0 MEMBER 3 FILL"><path class="cls-3" d="M169.29,505.64a1.09,1.09,0,0,0-.23,1.15,22.15,22.15,0,0,0,3.31,6.08,36.65,36.65,0,0,0,4.77,4.85c3.74,3.24,5.64,4.9,5.7,5a19.86,19.86,0,0,0,6.38,3.61c2.11.67,3.67-.05,4.7-2.15a4.74,4.74,0,0,0-.62-5.62,24.88,24.88,0,0,0-5.46-4.77q-4.23-2.55-6.24-3.85a26.93,26.93,0,0,0-11.31-4.85A1.06,1.06,0,0,0,169.29,505.64Z"/></g><g id="Duplicate_Items_Folder_Symbol_67_copy_6_0_Layer0_0_MEMBER_4_FILL" data-name="Duplicate Items Folder Symbol 67 copy 6 0 Layer0 0 MEMBER 4 FILL"><path class="cls-3" d="M148.65,320.42a4.76,4.76,0,0,0-6.54.77,90.1,90.1,0,0,0-14.55,20.93,119.18,119.18,0,0,0-9.39,24.25,98.45,98.45,0,0,0-2.93,28.26,229.22,229.22,0,0,0,3,28.33c.46,2.82,1.66,4.8,3.61,5.92a7.5,7.5,0,0,0,6.09.54,10.1,10.1,0,0,0,5.31-4A10.32,10.32,0,0,0,134.8,418a176.48,176.48,0,0,1-2.23-24.48,86.67,86.67,0,0,1,2.92-24.32q1.92-7.25,7.85-21.1a169.35,169.35,0,0,0,7.86-21C152,324.11,151.12,321.9,148.65,320.42Z"/></g><g id="Duplicate_Items_Folder_Symbol_67_copy_6_0_Layer0_0_MEMBER_5_FILL" data-name="Duplicate Items Folder Symbol 67 copy 6 0 Layer0 0 MEMBER 5 FILL"><path class="cls-4" d="M141.11,338H141v.39l.08-.39m-5.7-1.23V337a3.91,3.91,0,0,0-.07,1.31l.07.61.31.77a2.22,2.22,0,0,0,.77.85,1.45,1.45,0,0,0,.62.46,2.42,2.42,0,0,0,1.08.23l.76-.08.7-.38a2.71,2.71,0,0,0,.77-.77,3.52,3.52,0,0,0,.46-1.08l.08-.23a4.52,4.52,0,0,1,.07-.46v-.08h0l-.07.08L141,338v0l.08-.07V338l.15-.23a1.31,1.31,0,0,0,.47-.38.56.56,0,0,0,.15-.16,2.36,2.36,0,0,0,.54-1.07,3.26,3.26,0,0,0,0-1.39,4.56,4.56,0,0,0-.62-1.15,3,3,0,0,0-1.07-.7l-.16-.07a1.44,1.44,0,0,0-.77-.08l-1.23.23-1,.54-.85.77-.69.92-.62,1.54m5.78,1.08a.15.15,0,0,1-.08.08l.08-.08.23-.31Z"/></g><g id="Duplicate_Items_Folder_Symbol_67_copy_6_0_Layer0_0_MEMBER_6_FILL" data-name="Duplicate Items Folder Symbol 67 copy 6 0 Layer0 0 MEMBER 6 FILL"><path class="cls-4" d="M141.26,461.45l-.07-.08v.08l.15.15-.08-.15m-.61-1-.54-.46a2.1,2.1,0,0,0-1.08-.39,2,2,0,0,0-.77,0,1.44,1.44,0,0,0-.69.23,1.15,1.15,0,0,0-.62.39,1.72,1.72,0,0,0-.69.84,6.26,6.26,0,0,0-.69,2.54v.23l.15,1.16.39,1.08.77,1.15.84.69.23.16a4.74,4.74,0,0,0,1.85.54H140l.93-.16a2.55,2.55,0,0,0,1.38-.92,2.38,2.38,0,0,0,.62-.85,2.67,2.67,0,0,0,.38-1.54,2.93,2.93,0,0,0-.38-1.54l.07.31a3.64,3.64,0,0,0-.69-1.31l-.31-.31a5.15,5.15,0,0,0-.46-.53l.08.15-.23-.23h-.08v-.08h-.08v-.08l-.07-.07v-.08h0l-.08-.31Z"/></g><g id="Duplicate_Items_Folder_Symbol_67_copy_6_0_Layer0_0_MEMBER_7_MEMBER_0_MEMBER_0_FILL" data-name="Duplicate Items Folder Symbol 67 copy 6 0 Layer0 0 MEMBER 7 MEMBER 0 MEMBER 0 FILL"><path class="cls-5" d="M153.43,302.56l-.77.92-1.7,2.77a22.33,22.33,0,0,0-1.54,4.7,20.14,20.14,0,0,0-.3,6.08,21.48,21.48,0,0,0,1.54,5.93,23,23,0,0,0,2.54,4.31l1.23,1.38,2,1.7-.54-1.08a4.77,4.77,0,0,1-.61-1.16,10.52,10.52,0,0,1-.77-1.69,26.79,26.79,0,0,1-1.47-4.31,53.85,53.85,0,0,1-.92-5.39,35.76,35.76,0,0,1,.31-10Z"/></g><g id="Duplicate_Items_Folder_Symbol_67_copy_6_0_Layer0_0_MEMBER_8_MEMBER_0_MEMBER_0_FILL" data-name="Duplicate Items Folder Symbol 67 copy 6 0 Layer0 0 MEMBER 8 MEMBER 0 MEMBER 0 FILL"><path class="cls-5" d="M117.17,433.27l-.93-.84.54,1.15a19.79,19.79,0,0,0,2.24,3.08,16.12,16.12,0,0,0,4.46,3.39,13.63,13.63,0,0,0,6.78,1.84,15.82,15.82,0,0,0,6.92-1.54,14.56,14.56,0,0,0,4.55-3.31,12.7,12.7,0,0,0,2.31-3l.61-1.15-1,.92a16.42,16.42,0,0,1-2.85,2.08,19,19,0,0,1-10.47,2.93A18.55,18.55,0,0,1,120,435.5,20.7,20.7,0,0,1,117.17,433.27Z"/></g><g id="Duplicate_Items_Folder_Symbol_67_copy_6_0_Layer0_0_MEMBER_9_MEMBER_0_MEMBER_0_FILL" data-name="Duplicate Items Folder Symbol 67 copy 6 0 Layer0 0 MEMBER 9 MEMBER 0 MEMBER 0 FILL"><path class="cls-5" d="M172.29,494l.46-1-.85.69a16.23,16.23,0,0,1-2.31,1.7,19,19,0,0,1-8.39,2.46,17.53,17.53,0,0,1-4.77-.31,19.24,19.24,0,0,1-3.85-1.23,17.42,17.42,0,0,1-2.46-1.38l-.85-.62.54.92a9.83,9.83,0,0,0,1.92,2.31,12.7,12.7,0,0,0,3.93,2.47,16,16,0,0,0,5.7.92,14.89,14.89,0,0,0,5.54-1.54,12,12,0,0,0,5.39-5.39Z"/></g><g id="Duplicate_Items_Folder_Symbol_67_copy_6_0_Layer0_0_MEMBER_10_MEMBER_0_MEMBER_0_FILL" data-name="Duplicate Items Folder Symbol 67 copy 6 0 Layer0 0 MEMBER 10 MEMBER 0 MEMBER 0 FILL"><path class="cls-5" d="M208.32,249.9l-.16-.62-.31.54a5.83,5.83,0,0,0-.77,1.54,7.19,7.19,0,0,0,.16,5.62,7,7,0,0,0,3.85,4.16,4.61,4.61,0,0,0,1.61.46l.62.08-.38-.46-.85-1.24a21.06,21.06,0,0,1-2.08-4.15,34.47,34.47,0,0,1-1.46-4.39Z"/></g><g id="Duplicate_Items_Folder_Symbol_67_copy_6_0_Layer0_0_MEMBER_11_FILL" data-name="Duplicate Items Folder Symbol 67 copy 6 0 Layer0 0 MEMBER 11 FILL"><path class="cls-3" d="M310.09,464.45q-1,1.62-6.24,9.32a58.72,58.72,0,0,0-5.62,9.62,7.19,7.19,0,0,0,1.23,7.85c2,2.52,4.26,2.82,6.78.92a39,39,0,0,0,8.16-8.93q2.53-3.76,6.31-10.62,7.25-13.47,3.54-19.86a1.75,1.75,0,0,0-2.15-1q-3.47.54-7,5A91.57,91.57,0,0,0,310.09,464.45Z"/></g><g id="Duplicate_Items_Folder_Symbol_67_copy_6_0_Layer0_0_MEMBER_12_FILL" data-name="Duplicate Items Folder Symbol 67 copy 6 0 Layer0 0 MEMBER 12 FILL"><path class="cls-3" d="M272.6,274.84a.84.84,0,0,0-.93.31,1.31,1.31,0,0,0-.23,1c.41,2.93,1.88,6.36,4.39,10.32q2.16,3.3,6.54,9.16,9,12.78,14.25,18.32,3.08,3.32,6.23.38a5.68,5.68,0,0,0,1.39-6.92,35.18,35.18,0,0,0-6.47-9.7q-.69-.78-8-8.32l-7.85-8.54Q276.75,275.91,272.6,274.84Z"/></g><g id="Duplicate_Items_Folder_Symbol_67_copy_6_0_Layer0_0_MEMBER_13_FILL" data-name="Duplicate Items Folder Symbol 67 copy 6 0 Layer0 0 MEMBER 13 FILL"><path class="cls-3" d="M269.83,526.34a21.1,21.1,0,0,0,6.39-3.61q.38-.32,5.69-5a37.5,37.5,0,0,0,4.77-4.85,25.54,25.54,0,0,0,3.32-6.08,1.34,1.34,0,0,0-.24-1.15,1.06,1.06,0,0,0-1-.54A27.48,27.48,0,0,0,277.37,510c-1.28.87-3.34,2.15-6.16,3.85a26.82,26.82,0,0,0-5.54,4.77,4.81,4.81,0,0,0-.54,5.62C266.21,526.29,267.77,527,269.83,526.34Z"/></g><g id="Duplicate_Items_Folder_Symbol_67_copy_6_0_Layer0_0_MEMBER_14_FILL" data-name="Duplicate Items Folder Symbol 67 copy 6 0 Layer0 0 MEMBER 14 FILL"><path class="cls-3" d="M310.32,320.42q-3.61,2.22-2.46,6.62,1.92,7.38,7.77,21,6,14,7.93,21.1a89,89,0,0,1,2.85,24.32A178,178,0,0,1,324.18,418a10.06,10.06,0,0,0,1.61,7.47,9.74,9.74,0,0,0,5.31,4,7.33,7.33,0,0,0,6-.54c2-1.12,3.21-3.1,3.62-5.92a225.53,225.53,0,0,0,3.08-28.33,98.45,98.45,0,0,0-2.93-28.26,122.42,122.42,0,0,0-9.47-24.25,90.1,90.1,0,0,0-14.55-20.93A4.76,4.76,0,0,0,310.32,320.42Z"/></g><g id="Duplicate_Items_Folder_Symbol_67_copy_6_0_Layer0_0_MEMBER_15_FILL" data-name="Duplicate Items Folder Symbol 67 copy 6 0 Layer0 0 MEMBER 15 FILL"><path class="cls-4" d="M317.79,338v-.08h-.08l.08.08m.46-5c-.16.07-.31.15-.46.23l.53-.23h-.07m.07,0h.08l-1.08.7a1.88,1.88,0,0,1,.16-.23l-.23.23a2.3,2.3,0,0,0-.62,1.15,2.2,2.2,0,0,0,0,1.39,2.1,2.1,0,0,0,.31.84,3,3,0,0,0,.77.85l-.08-.15.16.15h0V338h.07l.08.07-.08-.07h.08v.15h0l.15.39-.15-.23.08.38.07.23a2.29,2.29,0,0,0,.54,1.08,1.42,1.42,0,0,0,.77.77l.7.38.77.08,1.07-.23a1.45,1.45,0,0,0,.62-.46,1.74,1.74,0,0,0,.69-.85l.31-.77.08-.61a5.6,5.6,0,0,0,0-1.31l-.08-.16-.39-1.15-.23-.39a2.55,2.55,0,0,0-.69-.92,2.34,2.34,0,0,0-.85-.77,5,5,0,0,0-.92-.54l-1.23-.23a1.41,1.41,0,0,0-.77.08Z"/></g><g id="Duplicate_Items_Folder_Symbol_67_copy_6_0_Layer0_0_MEMBER_16_FILL" data-name="Duplicate Items Folder Symbol 67 copy 6 0 Layer0 0 MEMBER 16 FILL"><path class="cls-4" d="M317.4,461.83v.08l.31-.39.08-.07-.39.38m4.7-1.61a1.33,1.33,0,0,0-.7-.39.94.94,0,0,0-.69-.23,2,2,0,0,0-.77,0,1.74,1.74,0,0,0-1,.39l-.62.46-.38.61-.15.39.15-.16-.15.23-.08.08.08-.08h-.08l-.08.16-.08.08h0l-.15.15-.23.23v-.08a1.24,1.24,0,0,1-.23.23l-.15.16-.08.15a3.7,3.7,0,0,0-.85,1.39l.16-.39a3.41,3.41,0,0,0-.39,1.54,3.35,3.35,0,0,0,.39,1.54l.61.85a2.58,2.58,0,0,0,1.46.92l.93.16h.23a6.21,6.21,0,0,0,1.85-.54l.15-.16.85-.69.69-.92.08-.23.46-1.08.08-1.39a4.8,4.8,0,0,0-.62-2.54A1.72,1.72,0,0,0,322.1,460.22Z"/></g><g id="Duplicate_Items_Folder_Symbol_67_copy_6_0_Layer0_0_MEMBER_17_FILL" data-name="Duplicate Items Folder Symbol 67 copy 6 0 Layer0 0 MEMBER 17 FILL"><path class="cls-6" d="M234.49,254.13q-12.63-2.07-25.25,6a52.84,52.84,0,0,0-18.4,20.4q-5.39,10.4-18.32,27.56-13.71,18.16-18.86,27.33a127.24,127.24,0,0,0-14.55,42.41,143.57,143.57,0,0,0,0,45.42,151.48,151.48,0,0,0,13.78,42.81,154.81,154.81,0,0,0,24.86,36.33,86.37,86.37,0,0,0,24.41,19,58.07,58.07,0,0,0,29.1,6.46,64.76,64.76,0,0,0,27.1-7.69,85.54,85.54,0,0,0,22.86-17.79,149.14,149.14,0,0,0,24.86-36.33,151.48,151.48,0,0,0,13.78-42.81,141.83,141.83,0,0,0,.08-45.42,127.24,127.24,0,0,0-14.55-42.41q-5.16-9.17-18.86-27.33-13-17.18-18.4-27.56l-.31-.62A53.62,53.62,0,0,0,253.66,263,41.48,41.48,0,0,0,234.49,254.13Z"/></g><g id="Duplicate_Items_Folder_Symbol_67_copy_6_0_Layer0_0_MEMBER_18_MEMBER_0_MEMBER_0_FILL" data-name="Duplicate Items Folder Symbol 67 copy 6 0 Layer0 0 MEMBER 18 MEMBER 0 MEMBER 0 FILL"><path class="cls-5" d="M307.09,304.63l-1.54-2.07.38,1.07.69,3.08a37.36,37.36,0,0,1,.23,10,31.17,31.17,0,0,1-.92,5.39,27,27,0,0,1-1.46,4.31,11.18,11.18,0,0,1-.7,1.69l-1.23,2.24,1-.77,2.24-2.31a25.09,25.09,0,0,0,2.61-4.31,25.38,25.38,0,0,0,1.54-5.93,24.69,24.69,0,0,0-.3-6.08,16.86,16.86,0,0,0-1.62-4.7A12.18,12.18,0,0,0,307.09,304.63Z"/></g><g id="Duplicate_Items_Folder_Symbol_67_copy_6_0_Layer0_0_MEMBER_19_MEMBER_0_MEMBER_0_FILL" data-name="Duplicate Items Folder Symbol 67 copy 6 0 Layer0 0 MEMBER 19 MEMBER 0 MEMBER 0 FILL"><path class="cls-5" d="M314.94,434.12a22.17,22.17,0,0,0,2.31,2.92,14.19,14.19,0,0,0,4.62,3.31,15.67,15.67,0,0,0,6.85,1.54,14.08,14.08,0,0,0,6.85-1.84,16.12,16.12,0,0,0,4.46-3.39,12.8,12.8,0,0,0,2.16-3.08l.62-1.15-1,.84A18.72,18.72,0,0,1,339,435.5a19.18,19.18,0,0,1-10.39,3.32,19.55,19.55,0,0,1-10.47-2.93,27.29,27.29,0,0,1-2.85-2.08l-1-.92Z"/></g><g id="Duplicate_Items_Folder_Symbol_67_copy_6_0_Layer0_0_MEMBER_20_MEMBER_0_MEMBER_0_FILL" data-name="Duplicate Items Folder Symbol 67 copy 6 0 Layer0 0 MEMBER 20 MEMBER 0 MEMBER 0 FILL"><path class="cls-5" d="M309.24,495.24l.54-.92-.92.62a12,12,0,0,1-2.47,1.38,17.14,17.14,0,0,1-3.77,1.23,18.25,18.25,0,0,1-4.85.31,16.22,16.22,0,0,1-4.7-.85,16,16,0,0,1-3.61-1.61,13,13,0,0,1-2.31-1.7l-.85-.69.46,1a9.54,9.54,0,0,0,1.7,2.54,13.6,13.6,0,0,0,3.61,2.85,16.68,16.68,0,0,0,5.55,1.54,15.21,15.21,0,0,0,5.69-.92,11.23,11.23,0,0,0,3.93-2.47A10.33,10.33,0,0,0,309.24,495.24Z"/></g><g id="Duplicate_Items_Folder_Symbol_67_copy_6_0_Layer0_0_MEMBER_21_MEMBER_0_MEMBER_0_FILL" data-name="Duplicate Items Folder Symbol 67 copy 6 0 Layer0 0 MEMBER 21 MEMBER 0 MEMBER 0 FILL"><path class="cls-5" d="M246.27,261.6a4.14,4.14,0,0,0,1.69-.46,8,8,0,0,0,4-9.78,5.83,5.83,0,0,0-.77-1.54l-.39-.54-.38,2.16a35.87,35.87,0,0,1-1.47,4.39,25.28,25.28,0,0,1-2,4.15l-1.31,1.7Z"/></g><g id="Duplicate_Items_Folder_Symbol_58_copy_3_0_Layer0_0_MEMBER_0_MEMBER_0_FILL" data-name="Duplicate Items Folder Symbol 58 copy 3 0 Layer0 0 MEMBER 0 MEMBER 0 FILL"><path class="cls-7" d="M123.89,335.93l-13.11-18.66Q110.32,327,122.2,347q12,20.35,26.12,32.73A326.53,326.53,0,0,0,123.89,335.93Z"/></g><g id="Duplicate_Items_Folder_Symbol_58_copy_3_0_Layer0_0_MEMBER_0_MEMBER_1_FILL" data-name="Duplicate Items Folder Symbol 58 copy 3 0 Layer0 0 MEMBER 0 MEMBER 1 FILL"><path class="cls-8" d="M153.62,358l22.72-19.65-33.63-32.81a159,159,0,0,1-21.81,20.36q-7.82,6.22-23.68,18.37l-2.89,2.51a41.62,41.62,0,0,0-5.5,6.87q-7,11.41-.36,21.6a24.62,24.62,0,0,0,17.35,11.51A23.91,23.91,0,0,0,125.17,382Q129.88,378.32,153.62,358Z"/></g><g id="Duplicate_Items_Folder_Symbol_58_copy_3_0_Layer0_0_MEMBER_0_MEMBER_2_FILL" data-name="Duplicate Items Folder Symbol 58 copy 3 0 Layer0 0 MEMBER 0 MEMBER 2 FILL"><path class="cls-9" d="M127.23,320.68q-5.36,4.63-17,13.45a171.52,171.52,0,0,1,31.16,34.32l34.94-30.09-33.63-32.81A140,140,0,0,1,127.23,320.68Z"/></g><g id="Duplicate_Items_Folder_Symbol_58_copy_3_0_Layer0_0_MEMBER_1_FILL" data-name="Duplicate Items Folder Symbol 58 copy 3 0 Layer0 0 MEMBER 1 FILL"><path class="cls-10" d="M191.18,290a40.47,40.47,0,0,0-22.47-1.93,60,60,0,0,0-14.49,5.47q-4.59,2.4-13.58,7.6l-29.86,16.13,13.11,18.66a326.53,326.53,0,0,1,24.43,43.76,376.78,376.78,0,0,1,43.39-37.12q7.83-5.67,10.66-8.23a34.1,34.1,0,0,0,8.26-10.24,18.82,18.82,0,0,0,2.23-10.1,24.65,24.65,0,0,0-3.69-9.89Q203.29,294.45,191.18,290Z"/></g><g id="Duplicate_Items_Folder_Symbol_58_copy_3_0_Layer0_0_MEMBER_2_FILL" data-name="Duplicate Items Folder Symbol 58 copy 3 0 Layer0 0 MEMBER 2 FILL"><path class="cls-11" d="M148.32,379.69q4.31-4.37,10.06-9.65a502.48,502.48,0,0,0-31.81-52.51,61.54,61.54,0,0,0-4.86-6.2l-11,5.9,13.1,18.66A324.54,324.54,0,0,1,148.32,379.69Z"/></g><g id="Duplicate_Items_Folder_Symbol_58_copy_3_0_Layer0_0_MEMBER_0_MEMBER_0_FILL-2" data-name="Duplicate Items Folder Symbol 58 copy 3 0 Layer0 0 MEMBER 0 MEMBER 0 FILL"><path class="cls-7" d="M331.63,333.3l13.47-18.41q.28,9.71-12,29.47-12.42,20.11-26.75,32.22A328,328,0,0,1,331.63,333.3Z"/></g><g id="Duplicate_Items_Folder_Symbol_58_copy_3_0_Layer0_0_MEMBER_0_MEMBER_1_FILL-2" data-name="Duplicate Items Folder Symbol 58 copy 3 0 Layer0 0 MEMBER 0 MEMBER 1 FILL"><path class="cls-8" d="M301.49,354.81l-22.34-20.08,34.25-32.17a158.38,158.38,0,0,0,21.42,20.78q7.68,6.38,23.32,18.82l2.84,2.57a41.59,41.59,0,0,1,5.37,7q6.76,11.55-.06,21.61a24.62,24.62,0,0,1-17.57,11.17,23.91,23.91,0,0,1-19.24-5.15Q324.83,375.57,301.49,354.81Z"/></g><g id="Duplicate_Items_Folder_Symbol_58_copy_3_0_Layer0_0_MEMBER_0_MEMBER_2_FILL-2" data-name="Duplicate Items Folder Symbol 58 copy 3 0 Layer0 0 MEMBER 0 MEMBER 2 FILL"><path class="cls-12" d="M328.59,318q5.27,4.74,16.73,13.78a171.67,171.67,0,0,0-31.82,33.71l-34.35-30.75,34.25-32.17A140,140,0,0,0,328.59,318Z"/></g><g id="Duplicate_Items_Folder_Symbol_58_copy_3_0_Layer0_0_MEMBER_1_FILL-2" data-name="Duplicate Items Folder Symbol 58 copy 3 0 Layer0 0 MEMBER 1 FILL"><path class="cls-10" d="M265.23,286.09a40.52,40.52,0,0,1,22.51-1.5,59.7,59.7,0,0,1,14.38,5.75q4.56,2.49,13.44,7.85l29.54,16.7L331.63,333.3a328,328,0,0,0-25.26,43.28,378.76,378.76,0,0,0-42.66-37.94q-7.74-5.82-10.5-8.43a34.2,34.2,0,0,1-8.07-10.4,18.76,18.76,0,0,1-2-10.14,24.44,24.44,0,0,1,3.88-9.82Q253.05,290.31,265.23,286.09Z"/></g><g id="Duplicate_Items_Folder_Symbol_58_copy_3_0_Layer0_0_MEMBER_2_FILL-2" data-name="Duplicate Items Folder Symbol 58 copy 3 0 Layer0 0 MEMBER 2 FILL"><path class="cls-11" d="M306.37,376.58q-4.23-4.44-9.87-9.84a501.59,501.59,0,0,1,32.81-51.88,60.82,60.82,0,0,1,5-6.11l10.88,6.1L331.7,333.26A325.61,325.61,0,0,0,306.37,376.58Z"/></g><g id="Duplicate_Items_Folder_Symbol_63_copy_6_0_Layer0_0_MEMBER_0_MEMBER_0_MEMBER_0_FILL" data-name="Duplicate Items Folder Symbol 63 copy 6 0 Layer0 0 MEMBER 0 MEMBER 0 MEMBER 0 FILL"><path class="cls-8" d="M167.75,535.35a27.66,27.66,0,0,0-6.55,6.78q-.22,24.09.62,49.88,7.08,8.16,25.86,7.62,19.33-.54,29.8-10.16.69-5.85,0-22.56l-.85-15.47A51.19,51.19,0,0,0,208.86,540q-9.95-11.55-21.18-11.47A32.16,32.16,0,0,0,167.75,535.35Z"/></g><g id="Duplicate_Items_Folder_Symbol_63_copy_6_0_Layer0_0_MEMBER_0_MEMBER_1_FILL" data-name="Duplicate Items Folder Symbol 63 copy 6 0 Layer0 0 MEMBER 0 MEMBER 1 FILL"><path class="cls-13" d="M182.53,572.3c1.07-.51,1.69-1.1,1.84-1.77a2.9,2.9,0,0,0-.77-2.69,7.52,7.52,0,0,0-5.38-3.16,7.79,7.79,0,0,0-6.09,1.77,4.6,4.6,0,0,0-2.07,4.24c.15,2.61,1.89,3.82,5.23,3.61A16.27,16.27,0,0,0,182.53,572.3Z"/></g><g id="Duplicate_Items_Folder_Symbol_63_copy_6_0_Layer0_0_MEMBER_0_MEMBER_2_FILL" data-name="Duplicate Items Folder Symbol 63 copy 6 0 Layer0 0 MEMBER 0 MEMBER 2 FILL"><path class="cls-13" d="M202,577.46q-2.53-3.39-8.62-1.69-5.92,1.69-7.08,5.69-1.92,6.48,4.62,7a12,12,0,0,0,9.93-3.39,6.71,6.71,0,0,0,1.92-3.69A5.06,5.06,0,0,0,202,577.46Z"/></g><g id="Duplicate_Items_Folder_Symbol_63_copy_6_0_Layer0_0_MEMBER_0_MEMBER_3_FILL" data-name="Duplicate Items Folder Symbol 63 copy 6 0 Layer0 0 MEMBER 0 MEMBER 3 FILL"><path class="cls-13" d="M169.36,586.7a2.87,2.87,0,0,0-.46,2.54l.16.46q1.06,2.46,4.61.93t3.24-3.85a2.46,2.46,0,0,0-1.93-2.24,4.38,4.38,0,0,0-3.08.23A4.94,4.94,0,0,0,169.36,586.7Z"/></g><g id="Duplicate_Items_Folder_Symbol_64_copy_6_0_Layer0_0_MEMBER_0_MEMBER_0_MEMBER_0_FILL" data-name="Duplicate Items Folder Symbol 64 copy 6 0 Layer0 0 MEMBER 0 MEMBER 0 MEMBER 0 FILL"><path class="cls-8" d="M238.42,567.68q-.24,16.64.69,22.48,10.69,9.32,30,9.32,18.87.07,25.64-8.32.15-25.93-.85-50a27.16,27.16,0,0,0-6.7-6.54,32.37,32.37,0,0,0-20.17-6.24q-11.16.24-20.78,12a51.63,51.63,0,0,0-7.47,11.7Z"/></g><g id="Duplicate_Items_Folder_Symbol_64_copy_6_0_Layer0_0_MEMBER_0_MEMBER_1_FILL" data-name="Duplicate Items Folder Symbol 64 copy 6 0 Layer0 0 MEMBER 0 MEMBER 1 FILL"><path class="cls-13" d="M271.67,570.3a3.27,3.27,0,0,0,1.85,1.77,17.58,17.58,0,0,0,7.31,1.77c3.39,0,5.11-1.2,5.16-3.77a5,5,0,0,0-2.23-4.23,7.15,7.15,0,0,0-6.08-1.54,7.71,7.71,0,0,0-5.39,3.31A3.08,3.08,0,0,0,271.67,570.3Z"/></g><g id="Duplicate_Items_Folder_Symbol_64_copy_6_0_Layer0_0_MEMBER_0_MEMBER_2_FILL" data-name="Duplicate Items Folder Symbol 64 copy 6 0 Layer0 0 MEMBER 0 MEMBER 2 FILL"><path class="cls-13" d="M262.74,575.77q-6.08-1.54-8.46,1.92a4.92,4.92,0,0,0-.7,3.93,6.3,6.3,0,0,0,2,3.69,11.79,11.79,0,0,0,10,3.08q6.54-.69,4.47-7.16C269.24,578.62,266.8,576.79,262.74,575.77Z"/></g><g id="Duplicate_Items_Folder_Symbol_64_copy_6_0_Layer0_0_MEMBER_0_MEMBER_3_FILL" data-name="Duplicate Items Folder Symbol 64 copy 6 0 Layer0 0 MEMBER 0 MEMBER 3 FILL"><path class="cls-13" d="M287.69,588.55a3.65,3.65,0,0,0-.54-2.54,5.75,5.75,0,0,0-2.62-1.85,5.42,5.42,0,0,0-3.08-.16,2.7,2.7,0,0,0-1.92,2.31q-.16,2.31,3.38,3.78t4.62-1Z"/></g><g id="Duplicate_Items_Folder_Symbol_61_copy_6_0_Layer0_0_MEMBER_0_FILL" data-name="Duplicate Items Folder Symbol 61 copy 6 0 Layer0 0 MEMBER 0 FILL"><path class="cls-14" d="M218.79,427.5a52.35,52.35,0,0,0-19.71-7.93,45.07,45.07,0,0,0-21.17,1,42.29,42.29,0,0,0-18.48,11.16q-8.31,8.47-9.08,18.71-2.92,40.41,2.62,75.83,2.76,17.7,6.08,27.33,5.31,4.23,14.62,6.15a106.66,106.66,0,0,0,19.17,2q11.47.07,18.71-2.93a17.57,17.57,0,0,0,9.39-9.08q1.92-4.08,5.7-34.34,4.62-37.41,5.23-40.87,1.62-17.94-.15-27.18a33.93,33.93,0,0,0-4.47-12A28.67,28.67,0,0,0,218.79,427.5Z"/></g><g id="Duplicate_Items_Folder_Symbol_61_copy_6_0_Layer0_0_MEMBER_1_MEMBER_0_MEMBER_0_MEMBER_0_FILL" data-name="Duplicate Items Folder Symbol 61 copy 6 0 Layer0 0 MEMBER 1 MEMBER 0 MEMBER 0 MEMBER 0 FILL"><path class="cls-15" d="M231.72,447.36a33.93,33.93,0,0,0-4.47-12,28.67,28.67,0,0,0-8.46-7.85,52.35,52.35,0,0,0-19.71-7.93,45.07,45.07,0,0,0-21.17,1l6.46,7.78a148.13,148.13,0,0,1,13.4,20.78q18.48,34.72,11.62,65.59-.22.84-3.54,2.16a36,36,0,0,1-8.77,2.31A46.65,46.65,0,0,1,170,515a94,94,0,0,1,12.24,10.16,16.41,16.41,0,0,1,3.54,4.7,5.13,5.13,0,0,1,0,5.15Q184.61,537,181,538.2a66.87,66.87,0,0,1-12.32,2.93,84.37,84.37,0,0,1-12.86.46,137.1,137.1,0,0,0,30.34,11.08q17.85,3.93,31.4.39l-.15-.62a4,4,0,0,1,2.93-.85v-.07c.56,0,.95-.52,1.15-1.54q2.7-14.62,5.62-37.26,3.15-25.79,4.77-38.18Q233.49,456.6,231.72,447.36Z"/></g><g id="Duplicate_Items_Folder_Symbol_61_copy_6_0_Layer0_0_MEMBER_2_MEMBER_0_MEMBER_0_MEMBER_0_FILL" data-name="Duplicate Items Folder Symbol 61 copy 6 0 Layer0 0 MEMBER 2 MEMBER 0 MEMBER 0 MEMBER 0 FILL"><path class="cls-16" d="M216.63,425.27a50,50,0,0,0-12.93-5.47,45,45,0,0,0-26.72.39,39.43,39.43,0,0,0-18.09,12.16,37.92,37.92,0,0,0-7.31,12.78,36.7,36.7,0,0,0-.92,3.92l-.31,1.39.38-1.39a34.15,34.15,0,0,1,1.08-3.85,39.25,39.25,0,0,1,7.62-12.31,39.93,39.93,0,0,1,17.94-11.4,44.69,44.69,0,0,1,25.94-.15,55.37,55.37,0,0,1,12.55,5.23,38.82,38.82,0,0,1,9.85,7.78,27.43,27.43,0,0,1,4.78,10.24,51.46,51.46,0,0,1,1.61,9.93q.32,4.77.08,14.63l-.31,5.39.54-5.32q.61-9.08.46-14.78a51.13,51.13,0,0,0-1.3-10.08,26.36,26.36,0,0,0-4.85-10.86A37.61,37.61,0,0,0,216.63,425.27Z"/></g><g id="Duplicate_Items_Folder_Symbol_61_copy_6_0_Layer0_0_MEMBER_3_FILL" data-name="Duplicate Items Folder Symbol 61 copy 6 0 Layer0 0 MEMBER 3 FILL"><path class="cls-17" d="M156.05,541.59c-.36-.16-.83.66-1.39,2.46a34.51,34.51,0,0,0-1,4.7,21.81,21.81,0,0,0,.54,7.93c.05.3.82,2.9,2.31,7.77A91.57,91.57,0,0,0,189.22,573q19.1,1.46,34.8-4.47-1.08-5.46.54-15.4a9,9,0,0,0-.31-4.46,1.72,1.72,0,0,0-1.38-1.16h-1l-.16,1q-14.4,4.38-33.1,2A127.07,127.07,0,0,1,156.05,541.59Z"/></g><g id="Duplicate_Items_Folder_Symbol_61_copy_6_0_Layer0_0_MEMBER_4_FILL" data-name="Duplicate Items Folder Symbol 61 copy 6 0 Layer0 0 MEMBER 4 FILL"><path class="cls-18" d="M182.37,549.44Q177,548.21,172,546.9a120.79,120.79,0,0,1-15.93-5.31c-.42-.21-.88.61-1.39,2.46a29.13,29.13,0,0,0-1,4.7,21.81,21.81,0,0,0,.54,7.93c.05.3.82,2.9,2.31,7.77a69.06,69.06,0,0,0,11.24,4.47,57.69,57.69,0,0,0,13.62,1.77q-10.94-5.55-16.55-13.32a13.27,13.27,0,0,0-3.54-3.47,48.85,48.85,0,0,0-4.54-2.54A64.76,64.76,0,0,0,182.37,549.44Z"/></g><g id="Duplicate_Items_Folder_Symbol_61_copy_6_0_Layer0_0_MEMBER_5_MEMBER_0_MEMBER_0_FILL" data-name="Duplicate Items Folder Symbol 61 copy 6 0 Layer0 0 MEMBER 5 MEMBER 0 MEMBER 0 FILL"><path class="cls-16" d="M165.59,544.67l-9.54-3.08,2.46,1.07c2.72,1.19,5,2.11,6.85,2.78a108,108,0,0,0,23.56,6.08,71.85,71.85,0,0,0,24.4-.62A54.35,54.35,0,0,0,220.4,549l2.54-.85-2.61.62q-1.54.45-7.16,1.31a86,86,0,0,1-24-.16A156.84,156.84,0,0,1,165.59,544.67Z"/></g><g id="Duplicate_Items_Folder_Symbol_62_copy_6_0_Layer0_0_MEMBER_0_FILL" data-name="Duplicate Items Folder Symbol 62 copy 6 0 Layer0 0 MEMBER 0 FILL"><path class="cls-14" d="M233.1,428.35a29.85,29.85,0,0,0-8.23,8,36.15,36.15,0,0,0-4.08,12.24q-1.54,9.39.61,27.1.71,3.54,6.39,40.72,4.62,30.11,6.7,34.18a18.82,18.82,0,0,0,9.62,8.86q7.54,2.85,18.71,2.77a81.19,81.19,0,0,0,19-2.31q9.09-2.31,14.32-6.93,3.17-9.71,5.47-27.48,4.62-35.49.62-75.6l-.08-.69a26.2,26.2,0,0,0-2.7-9.24,33.78,33.78,0,0,0-7.31-9.62,42.68,42.68,0,0,0-10.32-7.09l-.15-.07a48.14,48.14,0,0,0-7.93-2.93,45.68,45.68,0,0,0-21.09-.46A52.2,52.2,0,0,0,233.1,428.35Z"/></g><g id="Duplicate_Items_Folder_Symbol_62_copy_6_0_Layer0_0_MEMBER_1_MEMBER_0_MEMBER_0_MEMBER_0_FILL" data-name="Duplicate Items Folder Symbol 62 copy 6 0 Layer0 0 MEMBER 1 MEMBER 0 MEMBER 0 MEMBER 0 FILL"><path class="cls-19" d="M244.65,422.42A39.5,39.5,0,0,0,229.72,433q16.62,16.95,31.71,43.65t15.4,39.73q0,3.92-1.54,5.31c-1,.92-2.67,1.28-5.08,1.08A77.23,77.23,0,0,1,246,517.18,100.81,100.81,0,0,1,259.28,526q5.7,4.62,4.08,9.77-1.38,4.62-7.93,7.93a69.13,69.13,0,0,1-20.94,6.85,18.82,18.82,0,0,0,9.62,8.86q7.54,2.85,18.71,2.77a81.19,81.19,0,0,0,19-2.31q9.09-2.31,14.32-6.93,3.17-9.71,5.47-27.48,4.62-35.49.62-75.6a47.33,47.33,0,0,0-1.54-6.16L299.46,440a29.55,29.55,0,0,0-4.31-7.78,31.57,31.57,0,0,0-9.16-7l-4.31-2a53.5,53.5,0,0,0-18.55-4A44.26,44.26,0,0,0,244.65,422.42Z"/></g><g id="Duplicate_Items_Folder_Symbol_62_copy_6_0_Layer0_0_MEMBER_2_MEMBER_0_MEMBER_0_MEMBER_0_FILL" data-name="Duplicate Items Folder Symbol 62 copy 6 0 Layer0 0 MEMBER 2 MEMBER 0 MEMBER 0 MEMBER 0 FILL"><path class="cls-16" d="M226.41,435.35a34.74,34.74,0,0,1,9.62-8,54.67,54.67,0,0,1,12.39-5.62q13.71-4.16,26-.61A39.36,39.36,0,0,1,292.61,432a37.16,37.16,0,0,1,7.93,12.09l1.31,3.77a33,33,0,0,0-1.08-3.85,37,37,0,0,0-7.62-12.63,40,40,0,0,0-18.4-11.62,45.4,45.4,0,0,0-26.79.39,54.65,54.65,0,0,0-12.7,5.85,36.56,36.56,0,0,0-9.93,8.54,26.77,26.77,0,0,0-4.47,10.93,49.24,49.24,0,0,0-1,10.16,134.35,134.35,0,0,0,.85,14.71l.69,5.39-.46-5.39q-.47-10.47-.31-14.71a50.82,50.82,0,0,1,1.31-9.93A26.49,26.49,0,0,1,226.41,435.35Z"/></g><g id="Duplicate_Items_Folder_Symbol_62_copy_6_0_Layer0_0_MEMBER_3_MEMBER_0_FILL" data-name="Duplicate Items Folder Symbol 62 copy 6 0 Layer0 0 MEMBER 3 MEMBER 0 FILL"><path class="cls-17" d="M232.57,548.13a1.94,1.94,0,0,0-1.77,1.08,7.35,7.35,0,0,0-.08,4.46,48.74,48.74,0,0,1,.61,11.47,6.12,6.12,0,0,0,1.31,4.08,6.38,6.38,0,0,0,3.62,2.31,108.85,108.85,0,0,0,34.49,2.39q17.7-1.62,30.72-8.16A60.33,60.33,0,0,0,303,548.28q-.54-9.15-3.85-7.69a131.27,131.27,0,0,1-32.18,9.7q-18.48,3-33-.93l-.39-1.08A3.41,3.41,0,0,0,232.57,548.13Z"/></g><g id="Duplicate_Items_Folder_Symbol_62_copy_6_0_Layer0_0_MEMBER_3_MEMBER_1_FILL" data-name="Duplicate Items Folder Symbol 62 copy 6 0 Layer0 0 MEMBER 3 MEMBER 1 FILL"><path class="cls-18" d="M294.61,554.44c-.71,1-1.77,2.62-3.15,4.78q-5.38,7.69-16.32,13.7a65.83,65.83,0,0,0,14.39-2.23,70.94,70.94,0,0,0,11.94-4.93,46.5,46.5,0,0,0,1.69-17.09q-.69-9.54-4-8.08-6.63,2.92-8.7,3.77a80.32,80.32,0,0,1-9.16,2.85c-.93.3-2.24.64-3.93,1s-3.11.66-3.93.92q13.71,3.54,25.25,1.46A13.92,13.92,0,0,0,294.61,554.44Z"/></g><g id="Duplicate_Items_Folder_Symbol_62_copy_6_0_Layer0_0_MEMBER_3_MEMBER_2_MEMBER_0_MEMBER_0_FILL" data-name="Duplicate Items Folder Symbol 62 copy 6 0 Layer0 0 MEMBER 3 MEMBER 2 MEMBER 0 MEMBER 0 FILL"><path class="cls-16" d="M235.34,549.75a39.73,39.73,0,0,0,7.16,1.69,71,71,0,0,0,24.25,0A106.83,106.83,0,0,0,290,544.67c1.95-.77,4.2-1.75,6.77-2.93l2.39-1.15-2.54.92c-2.62,1-4.91,1.77-6.86,2.39a154.15,154.15,0,0,1-23.32,5.92,90.88,90.88,0,0,1-23.87.85c-3.18-.41-5.56-.79-7.16-1.15L232.8,549Z"/></g><g id="Duplicate_Items_Folder_Symbol_60_copy_3_0_Layer0_0_MEMBER_0_FILL" data-name="Duplicate Items Folder Symbol 60 copy 3 0 Layer0 0 MEMBER 0 FILL"><path class="cls-14" d="M283.53,448.67l5.93-7.55-112.32-4q2.78,17.25,17.78,49.12,7.54,16,14.47,28.48L243.27,524q5.61-23.94,26.48-55.74Q276.29,458.22,283.53,448.67Z"/></g><g id="Duplicate_Items_Folder_Symbol_60_copy_3_0_Layer0_0_MEMBER_1_MEMBER_0_MEMBER_0_FILL" data-name="Duplicate Items Folder Symbol 60 copy 3 0 Layer0 0 MEMBER 1 MEMBER 0 MEMBER 0 FILL"><path class="cls-16" d="M214.47,515.49l-5.08-.77,4.78,1.92q6,2.24,11.85,3.85A120.17,120.17,0,0,0,243.27,524a114.17,114.17,0,0,0-16.63-5.78Q220.79,516.58,214.47,515.49Z"/></g><path id="Duplicate_Items_Folder_Symbol_60_copy_3_0_Layer0_0_MEMBER_2_1_STROKES" data-name="Duplicate Items Folder Symbol 60 copy 3 0 Layer0 0 MEMBER 2 1 STROKES" class="cls-20" d="M219.48,469.76q-.76,17.55.77,47.89"/><path id="Duplicate_Items_Folder_Symbol_60_copy_3_0_Layer0_0_MEMBER_3_1_STROKES" data-name="Duplicate Items Folder Symbol 60 copy 3 0 Layer0 0 MEMBER 3 1 STROKES" class="cls-20" d="M233.26,470.53l-.08,17.86q.15,20.4,1.46,33.18"/><g id="Duplicate_Items_Folder_Path_3_copy_12_0_Layer0_0_FILL" data-name="Duplicate Items Folder  Path  3 copy 12 0 Layer0 0 FILL"><path class="cls-21" d="M302.22,461.83A78,78,0,0,0,300.14,447q-1.54-5.33-75.6-3.85-37.09.76-73.82,2.54a96.82,96.82,0,0,0-2.31,11.24q6.22,6.93,19.4,13.7,26.33,13.54,61.12,12.55t57.66-6.93q11.4-3,15.86-5.85C302.45,467.91,302.37,465.07,302.22,461.83Z"/></g><g id="Duplicate_Items_Folder_Symbol_57_copy_3_0_Layer4_0_FILL" data-name="Duplicate Items Folder Symbol 57 copy 3 0 Layer4 0 FILL"><path class="cls-10" d="M247.12,279.46q-36-7.84-59.82,12.09-9.93,8.31-14.47,14.62A37.71,37.71,0,0,0,166.67,320a174,174,0,0,0-2.39,18.48q-1.46,17-3.15,28.56l-11.86,88.84q9.31,9.76,28.33,15.55,17.7,5.46,40.11,6.39a197.71,197.71,0,0,0,42.57-2.7q21.41-3.76,35.57-11.62a52.71,52.71,0,0,0,8.54-5.78l.23-.23-11.39-123.4q1.08-8.24-1.93-19.86-3.54-13.78-10.93-21.17l-2-1.77Q265.13,283.39,247.12,279.46Z"/></g><g id="Duplicate_Items_Folder_Symbol_57_copy_3_0_Layer3_0_FILL" data-name="Duplicate Items Folder Symbol 57 copy 3 0 Layer3 0 FILL"><path class="cls-11" d="M296.85,373.3q-11.33,1.69-25.56,3.39-28.49,3.39-43,3.62a183.89,183.89,0,0,1-34.26-2.77q-19.55-3.54-32.94-10.47l-4.85,31.41q17,15.16,72.13,15.78a292.66,292.66,0,0,0,42.42-2.47q20-2.69,28.56-7.31-.08-3.62-1.31-17.71Q296.85,373.38,296.85,373.3Z"/></g><g id="Duplicate_Items_Folder_Symbol_57_copy_3_0_Layer2_0_FILL" data-name="Duplicate Items Folder Symbol 57 copy 3 0 Layer2 0 FILL"><path class="cls-22" d="M293.23,334.12q1.08-8.24-1.93-19.86-3.54-13.78-10.93-21.17a10.11,10.11,0,0,1-2-1.77q8.78,19.94,7.7,45.11-.24,5.31-1.69,20.78a198.55,198.55,0,0,0-1.16,20.33q0,1.23.62,18.16.38,11.25-.08,18.56-1.31,21.32-11.09,34.25a61.58,61.58,0,0,1-16.16,15q-16.63,10.47-43,14.08,37.11,2.24,67.44-7.92a101.64,101.64,0,0,0,17.55-7.55q6-3.39,5.85-4.39-5.77-41.17-6.39-54.81-.76-15.24-.54-23Z"/></g><g id="Duplicate_Items_Folder_Symbol_9_copy_15_0_Layer0_0_MEMBER_0_MEMBER_0_FILL" data-name="Duplicate Items Folder Symbol 9 copy 15 0 Layer0 0 MEMBER 0 MEMBER 0 FILL"><path class="cls-23" d="M163.51,338.89l-1.92,13q-4.4,29.79-6,43-4.23,33.64-6.31,61.05,5.23-27,9.47-60.67,2.92-22.47,4.46-43.11.47-5.61.85-13.16l.08-4.85-.16,1.23C163.82,336.84,163.67,338,163.51,338.89Z"/></g><g id="Duplicate_Items_Folder_Symbol_10_copy_12_0_Layer0_0_MEMBER_0_MEMBER_0_FILL" data-name="Duplicate Items Folder Symbol 10 copy 12 0 Layer0 0 MEMBER 0 MEMBER 0 FILL"><path class="cls-23" d="M293.31,339.05q0,2,.46,13.24Q295,375.23,297,396q3.24,34.11,7.62,61.51-1.15-27.7-4.46-61.82-2.09-21.85-4.78-43.57l-2.15-18Z"/></g><g id="Duplicate_Items_Folder_Symbol_66_copy_3_0_Layer0_0_MEMBER_0_MEMBER_0_FILL" data-name="Duplicate Items Folder Symbol 66 copy 3 0 Layer0 0 MEMBER 0 MEMBER 0 FILL"><path class="cls-8" d="M152.58,581.7Q144.35,586,141.73,594a7.94,7.94,0,0,0,.92,7.62,7.42,7.42,0,0,0,4,3,26.06,26.06,0,0,0,5.08.3,17.67,17.67,0,0,1,5.93,1.54,17.41,17.41,0,0,0,5.93,1.62,15,15,0,0,0,4.46-.77,20.3,20.3,0,0,1,4.47-.77,28.69,28.69,0,0,1,5.08.92,47.41,47.41,0,0,0,18.25.93A42.35,42.35,0,0,0,213,602.33q5.63-3.63,6.24-7.7a15.7,15.7,0,0,0-.31-4q-.39-3.24-1.15-14.94-8.47-2-14.09,9.93-18.48-8.93-34.72-8.08A39.91,39.91,0,0,0,152.58,581.7Z"/></g><g id="Duplicate_Items_Folder_Symbol_66_copy_3_0_Layer0_0_MEMBER_0_MEMBER_1_FILL" data-name="Duplicate Items Folder Symbol 66 copy 3 0 Layer0 0 MEMBER 0 MEMBER 1 FILL"><path class="cls-24" d="M154.2,596.32q-5.7-1-8.24-4.62a19.44,19.44,0,0,0-.85-1.77c-.25-.61-.61-.82-1.07-.61-.67.25-1.44,1.82-2.31,4.69a7.94,7.94,0,0,0,.92,7.62,7.42,7.42,0,0,0,4,3,26.06,26.06,0,0,0,5.08.3,17.67,17.67,0,0,1,5.93,1.54,17.41,17.41,0,0,0,5.93,1.62,15,15,0,0,0,4.46-.77,20.3,20.3,0,0,1,4.47-.77,28.69,28.69,0,0,1,5.08.92,47.41,47.41,0,0,0,18.25.93A42.35,42.35,0,0,0,213,602.33q5.55-3.54,6.24-7.7a15.9,15.9,0,0,0-.16-3.08,26,26,0,0,1-8.46,5.31,66.07,66.07,0,0,1-9.7,2.77,51.94,51.94,0,0,1-7.63,1.23q-4.7.24-13-1.92-9-2.38-13-2.54c-1.12,0-3.31,0-6.54.08A32,32,0,0,1,154.2,596.32Z"/></g><g id="Duplicate_Items_Folder_Symbol_66_copy_3_0_Layer0_0_MEMBER_0_MEMBER_2_MEMBER_0_MEMBER_0_FILL" data-name="Duplicate Items Folder Symbol 66 copy 3 0 Layer0 0 MEMBER 0 MEMBER 2 MEMBER 0 MEMBER 0 FILL"><path class="cls-25" d="M158.43,579.85a52,52,0,0,1,19-1.23,94.15,94.15,0,0,1,18.7,4.23l7.55,2.77-1.93-1.08a57.09,57.09,0,0,0-5.31-2.61,61.63,61.63,0,0,0-18.86-5.32,40.69,40.69,0,0,0-19.48,2.31,37.13,37.13,0,0,0-5.39,2.47l-1.84,1.15,2-.84A48.63,48.63,0,0,1,158.43,579.85Z"/></g><g id="Duplicate_Items_Folder_Symbol_66_copy_3_0_Layer0_0_MEMBER_1_FILL" data-name="Duplicate Items Folder Symbol 66 copy 3 0 Layer0 0 MEMBER 1 FILL"><path class="cls-26" d="M177,599.71a5,5,0,0,0-1.69,2.92,14.15,14.15,0,0,0-.15,7.47,4.31,4.31,0,0,0,.69,1.62,2.82,2.82,0,0,0,2.39.77c1.48,0,3.13-.87,4.92-2.47a25,25,0,0,0,4.7-5.92Z"/></g><g id="Duplicate_Items_Folder_Symbol_66_copy_3_0_Layer0_0_MEMBER_2_FILL" data-name="Duplicate Items Folder Symbol 66 copy 3 0 Layer0 0 MEMBER 2 FILL"><path class="cls-27" d="M184.14,609a6.71,6.71,0,0,0-4.54-4.62,7.66,7.66,0,0,0-4.69-.08,14.73,14.73,0,0,0,.23,5.85,4.31,4.31,0,0,0,.69,1.62,2.82,2.82,0,0,0,2.39.77c1.48,0,3.13-.87,4.92-2.47Z"/></g><g id="Duplicate_Items_Folder_Symbol_66_copy_3_0_Layer0_0_MEMBER_3_MEMBER_0_MEMBER_0_FILL" data-name="Duplicate Items Folder Symbol 66 copy 3 0 Layer0 0 MEMBER 3 MEMBER 0 MEMBER 0 FILL"><path class="cls-28" d="M176.29,600.56l.69-.85-.92.69a10,10,0,0,0-1.39,2.85,15.11,15.11,0,0,0-.53,4.7,12.84,12.84,0,0,0,.38,2.77,4.31,4.31,0,0,0,.77,1.61,3.44,3.44,0,0,0,1.69.93,6.82,6.82,0,0,0,5.7-2,22.38,22.38,0,0,0,3.08-3.47,18.19,18.19,0,0,0,1.62-2.69l.46-1-.69.84a22.18,22.18,0,0,1-2,2.31,19.32,19.32,0,0,1-3.31,2.93,5.31,5.31,0,0,1-4.54,1.46,1.72,1.72,0,0,1-1.31-1.31,18.46,18.46,0,0,1-.54-2.54,16.1,16.1,0,0,1,0-4.39A8.57,8.57,0,0,1,176.29,600.56Z"/></g><g id="Duplicate_Items_Folder_Symbol_66_copy_3_0_Layer0_0_MEMBER_4_FILL" data-name="Duplicate Items Folder Symbol 66 copy 3 0 Layer0 0 MEMBER 4 FILL"><path class="cls-29" d="M170.44,604.64l-10-7.63a18.84,18.84,0,0,0-4.15,7.63,9.1,9.1,0,0,0-.39,4.46,3.53,3.53,0,0,0,1.16,2,2.76,2.76,0,0,0,2.77.39,7.15,7.15,0,0,0,2.54-1.31Z"/></g><g id="Duplicate_Items_Folder_Symbol_66_copy_3_0_Layer0_0_MEMBER_5_FILL" data-name="Duplicate Items Folder Symbol 66 copy 3 0 Layer0 0 MEMBER 5 FILL"><path class="cls-27" d="M166.28,607.48a9.07,9.07,0,0,0-9.23-5.08l-.77,2.24a9.1,9.1,0,0,0-.39,4.46,3.53,3.53,0,0,0,1.16,2,2.76,2.76,0,0,0,2.77.39,7.15,7.15,0,0,0,2.54-1.31Z"/></g><g id="Duplicate_Items_Folder_Symbol_66_copy_3_0_Layer0_0_MEMBER_6_MEMBER_0_MEMBER_0_FILL" data-name="Duplicate Items Folder Symbol 66 copy 3 0 Layer0 0 MEMBER 6 MEMBER 0 MEMBER 0 FILL"><path class="cls-28" d="M159.74,598l.69-1-.84.85a25,25,0,0,0-2.08,2.7,17.84,17.84,0,0,0-2.08,4.69,8.76,8.76,0,0,0-.39,3.08,4.4,4.4,0,0,0,1.47,3.39,3.74,3.74,0,0,0,3.77.46,17.56,17.56,0,0,0,2.69-1.62l7.47-5.92-8.24,4.85a15.36,15.36,0,0,1-2.46,1.23,2,2,0,0,1-2.23-.23,3.38,3.38,0,0,1-.93-2.24,8.6,8.6,0,0,1,.16-2.69,16.82,16.82,0,0,1,1.46-4.62A30.09,30.09,0,0,1,159.74,598Z"/></g><g id="Duplicate_Items_Folder_Symbol_66_copy_3_0_Layer0_0_MEMBER_7_FILL" data-name="Duplicate Items Folder Symbol 66 copy 3 0 Layer0 0 MEMBER 7 FILL"><path class="cls-30" d="M154,601.56l-9.31-8.09q-3.07,3.63-2.08,10.78a3.51,3.51,0,0,0,.92,1.93,2.59,2.59,0,0,0,2.47-.24A54.17,54.17,0,0,0,154,601.56Z"/></g><g id="Duplicate_Items_Folder_Symbol_66_copy_3_0_Layer0_0_MEMBER_8_FILL" data-name="Duplicate Items Folder Symbol 66 copy 3 0 Layer0 0 MEMBER 8 FILL"><path class="cls-27" d="M150.35,603.79a7.37,7.37,0,0,0-3.16-4.08,6.88,6.88,0,0,0-4.62-1.31,20.66,20.66,0,0,0,.08,5.85,3,3,0,0,0,.92,1.93,2.59,2.59,0,0,0,2.47-.24C147.22,605.43,148.65,604.71,150.35,603.79Z"/></g><g id="Duplicate_Items_Folder_Symbol_66_copy_3_0_Layer0_0_MEMBER_9_MEMBER_0_MEMBER_0_FILL" data-name="Duplicate Items Folder Symbol 66 copy 3 0 Layer0 0 MEMBER 9 MEMBER 0 MEMBER 0 FILL"><path class="cls-28" d="M144.27,594.32l.46-.85-.69.7a8.69,8.69,0,0,0-1.39,2.38,13,13,0,0,0-.92,4.08l.07,2.47a14.35,14.35,0,0,0,.47,2.77,2.05,2.05,0,0,0,1.46,1.23,2.72,2.72,0,0,0,1.69-.08,11.19,11.19,0,0,0,2.23-1.08,34.66,34.66,0,0,0,3.47-2.15l2.92-2.23-7,3.15a14.2,14.2,0,0,1-2.08.85c-.62.15-1,0-1.23-.39,0,0-.16-.79-.46-2.23l-.16-2.31a18,18,0,0,1,.23-3.85A9,9,0,0,1,144.27,594.32Z"/></g><g id="Duplicate_Items_Folder_Symbol_65_copy_6_0_Layer0_0_MEMBER_0_MEMBER_0_FILL" data-name="Duplicate Items Folder Symbol 65 copy 6 0 Layer0 0 MEMBER 0 MEMBER 0 FILL"><path class="cls-8" d="M238.42,576.38q-.46,11.4-.77,15a19.55,19.55,0,0,0-.16,4q.78,4.23,6.39,7.47a42.57,42.57,0,0,0,17.32,5.69A47.19,47.19,0,0,0,279.45,607a34.34,34.34,0,0,1,5.08-1.08,22.36,22.36,0,0,1,4.46.7,17.68,17.68,0,0,0,4.55.61,18,18,0,0,0,5.85-1.77,17.19,17.19,0,0,1,5.85-1.77,28,28,0,0,0,5.08-.38,8,8,0,0,0,3.92-3.16,7.62,7.62,0,0,0,1.24-3.69,9.42,9.42,0,0,0-.54-3.93q-2.85-7.93-11.24-12a38.88,38.88,0,0,0-16.48-3.69q-16-.39-34.48,9.08Q246.88,574.3,238.42,576.38Z"/></g><g id="Duplicate_Items_Folder_Symbol_65_copy_6_0_Layer0_0_MEMBER_0_MEMBER_1_FILL" data-name="Duplicate Items Folder Symbol 65 copy 6 0 Layer0 0 MEMBER 0 MEMBER 1 FILL"><path class="cls-31" d="M237.49,592.32a15.38,15.38,0,0,0,0,3.08q.78,4.23,6.39,7.47a42.57,42.57,0,0,0,17.32,5.69A47.19,47.19,0,0,0,279.45,607a34.34,34.34,0,0,1,5.08-1.08,22.36,22.36,0,0,1,4.46.7,17.68,17.68,0,0,0,4.55.61,17.31,17.31,0,0,0,5.85-1.77,17.83,17.83,0,0,1,5.85-1.77,27,27,0,0,0,5.08-.38,7.45,7.45,0,0,0,3.92-3.16,6.82,6.82,0,0,0,1.31-3.69,10.37,10.37,0,0,0-.61-3.93c-.88-2.82-1.67-4.39-2.39-4.7-.46-.15-.85.08-1.15.7l-.77,1.77q-2.55,3.84-8.09,4.85a37.72,37.72,0,0,1-6.54.46q-5.16-.07-6.54,0-3.85.3-12.94,2.92-8.24,2.4-12.93,2.31a55.3,55.3,0,0,1-7.7-1,66,66,0,0,1-9.78-2.46A25.69,25.69,0,0,1,237.49,592.32Z"/></g><g id="Duplicate_Items_Folder_Symbol_65_copy_6_0_Layer0_0_MEMBER_0_MEMBER_2_MEMBER_0_MEMBER_0_FILL" data-name="Duplicate Items Folder Symbol 65 copy 6 0 Layer0 0 MEMBER 0 MEMBER 2 MEMBER 0 MEMBER 0 FILL"><path class="cls-25" d="M259.82,582l-7.08,3.93,7.54-3a91.6,91.6,0,0,1,18.55-4.7,51,51,0,0,1,19,.62,56.53,56.53,0,0,1,5.54,1.69l2,.85-1.85-1.16a41.55,41.55,0,0,0-25-4.08A65.77,65.77,0,0,0,259.82,582Z"/></g><g id="Duplicate_Items_Folder_Symbol_65_copy_6_0_Layer0_0_MEMBER_1_FILL" data-name="Duplicate Items Folder Symbol 65 copy 6 0 Layer0 0 MEMBER 1 FILL"><path class="cls-32" d="M279.91,599.25l-10.78,4.69a24.39,24.39,0,0,0,4.93,5.78A7.86,7.86,0,0,0,279,612.1a3.23,3.23,0,0,0,2.38-.84,3.11,3.11,0,0,0,.62-1.62,15.77,15.77,0,0,0-.31-7.54A5.71,5.71,0,0,0,279.91,599.25Z"/></g><g id="Duplicate_Items_Folder_Symbol_65_copy_6_0_Layer0_0_MEMBER_2_FILL" data-name="Duplicate Items Folder Symbol 65 copy 6 0 Layer0 0 MEMBER 2 FILL"><path class="cls-27" d="M277.37,603.94a7.16,7.16,0,0,0-4.47,4.7v.08l1.16,1A7.86,7.86,0,0,0,279,612.1a3.23,3.23,0,0,0,2.38-.84,4.8,4.8,0,0,0,.62-1.62,17.37,17.37,0,0,0,.08-5.85A6.76,6.76,0,0,0,277.37,603.94Z"/></g><g id="Duplicate_Items_Folder_Symbol_65_copy_6_0_Layer0_0_MEMBER_3_MEMBER_0_MEMBER_0_FILL" data-name="Duplicate Items Folder Symbol 65 copy 6 0 Layer0 0 MEMBER 3 MEMBER 0 MEMBER 0 FILL"><path class="cls-28" d="M271.9,607a24.26,24.26,0,0,1-2.07-2.23l-.7-.85.46,1,1.7,2.62a19.8,19.8,0,0,0,3.23,3.39q2.93,2.38,5.7,1.85a2.88,2.88,0,0,0,1.69-1,4.22,4.22,0,0,0,.77-1.62,21.12,21.12,0,0,0,.31-2.77,14,14,0,0,0-.77-4.7,6.94,6.94,0,0,0-1.46-2.77l-.85-.69.69.84a7.19,7.19,0,0,1,.85,2.85,15.07,15.07,0,0,1,.15,4.39,14.21,14.21,0,0,1-.46,2.46,1.6,1.6,0,0,1-1.31,1.39c-1.33.31-2.85-.13-4.54-1.31A26.08,26.08,0,0,1,271.9,607Z"/></g><g id="Duplicate_Items_Folder_Symbol_65_copy_6_0_Layer0_0_MEMBER_4_FILL" data-name="Duplicate Items Folder Symbol 65 copy 6 0 Layer0 0 MEMBER 4 FILL"><path class="cls-33" d="M296.31,596.09,286.53,604l8.24,5.23a11.61,11.61,0,0,0,2.62,1.31,3.13,3.13,0,0,0,2.77-.46,3.78,3.78,0,0,0,1.07-2.08,9.59,9.59,0,0,0-.53-4.46A18.88,18.88,0,0,0,296.31,596.09Z"/></g><g id="Duplicate_Items_Folder_Symbol_65_copy_6_0_Layer0_0_MEMBER_5_FILL" data-name="Duplicate Items Folder Symbol 65 copy 6 0 Layer0 0 MEMBER 5 FILL"><path class="cls-27" d="M294.46,602.56a9.06,9.06,0,0,0-3.7,4.15l4,2.54a11.61,11.61,0,0,0,2.62,1.31,3.13,3.13,0,0,0,2.77-.46,3.78,3.78,0,0,0,1.07-2.08,9.59,9.59,0,0,0-.53-4.46l-.85-2.16A9.25,9.25,0,0,0,294.46,602.56Z"/></g><g id="Duplicate_Items_Folder_Symbol_65_copy_6_0_Layer0_0_MEMBER_6_MEMBER_0_MEMBER_0_FILL" data-name="Duplicate Items Folder Symbol 65 copy 6 0 Layer0 0 MEMBER 6 MEMBER 0 MEMBER 0 FILL"><path class="cls-28" d="M296.31,596.09l.69,1a15.52,15.52,0,0,1,1.69,2.85,21.83,21.83,0,0,1,1.62,4.54,11,11,0,0,1,.23,2.7,3.23,3.23,0,0,1-.92,2.31,2.25,2.25,0,0,1-2.23.3,15.7,15.7,0,0,1-2.47-1.23L286.53,604l7.7,5.7a15,15,0,0,0,2.69,1.54,4.11,4.11,0,0,0,3.78-.54,5,5,0,0,0,1.38-3.47,13.1,13.1,0,0,0-.46-3.08,17.39,17.39,0,0,0-2.23-4.61,18.27,18.27,0,0,0-2.16-2.62Z"/></g><g id="Duplicate_Items_Folder_Symbol_65_copy_6_0_Layer0_0_MEMBER_7_FILL" data-name="Duplicate Items Folder Symbol 65 copy 6 0 Layer0 0 MEMBER 7 FILL"><path class="cls-34" d="M310.93,604.64c1.18.41,2,.46,2.47.15a2.48,2.48,0,0,0,.92-2q.76-7.32-2.38-10.7l-9.09,8.31A55.9,55.9,0,0,0,310.93,604.64Z"/></g><g id="Duplicate_Items_Folder_Symbol_65_copy_6_0_Layer0_0_MEMBER_8_FILL" data-name="Duplicate Items Folder Symbol 65 copy 6 0 Layer0 0 MEMBER 8 FILL"><path class="cls-27" d="M309.63,598.4a7.06,7.06,0,0,0-3,4.16,39.41,39.41,0,0,0,4.39,2.08c1.08.46,1.87.51,2.39.15a3,3,0,0,0,.92-2,20.83,20.83,0,0,0-.15-5.85A7.75,7.75,0,0,0,309.63,598.4Z"/></g><g id="Duplicate_Items_Folder_Symbol_65_copy_6_0_Layer0_0_MEMBER_9_MEMBER_0_MEMBER_0_FILL" data-name="Duplicate Items Folder Symbol 65 copy 6 0 Layer0 0 MEMBER 9 MEMBER 0 MEMBER 0 FILL"><path class="cls-28" d="M305.85,602.63c1.34.83,2.52,1.49,3.54,2a14.76,14.76,0,0,0,2.24,1,2.72,2.72,0,0,0,1.69.07,2.07,2.07,0,0,0,1.39-1.31,15.35,15.35,0,0,0,.46-2.77l-.08-2.46a12.19,12.19,0,0,0-1-4.08,7.22,7.22,0,0,0-1.46-2.31l-.69-.69.46.84a10.89,10.89,0,0,1,1,2.47,18.54,18.54,0,0,1,.38,3.85l-.15,2.23a7.58,7.58,0,0,1-.39,2.23c-.2.46-.61.62-1.23.46l-9.16-3.77Z"/></g><g id="Duplicate_Items_Folder_Symbol_8_copy_20_0_Layer0_0_MEMBER_0_FILL" data-name="Duplicate Items Folder Symbol 8 copy 20 0 Layer0 0 MEMBER 0 FILL"><path class="cls-35" d="M230.72,233.19q-18.09-.62-30.8,7.47-6.31,4-9.08,8.16a54.17,54.17,0,0,1,2.08,25.25,56.41,56.41,0,0,1-5.62,17.55l.46,1.62a16.29,16.29,0,0,0,2.54,4.15q5.38,6.63,17.24,10.7,15.33,5.24,42-3.85a145.55,145.55,0,0,0,23.71-10.08q-3.93-8.55-5.16-22-1.47-15.61,3.08-23.32-2.85-3.62-9.39-7.47Q248.88,233.81,230.72,233.19Z"/></g><g id="Duplicate_Items_Folder_Symbol_8_copy_20_0_Layer0_0_MEMBER_1_FILL" data-name="Duplicate Items Folder Symbol 8 copy 20 0 Layer0 0 MEMBER 1 FILL"><path class="cls-11" d="M207.93,301.09a35.94,35.94,0,0,1-17.09-18.17,21.05,21.05,0,0,0-3.54,8.7q2.07,12.47,14.32,19.78,11.31,6.78,27.17,6.93A63,63,0,0,0,258,311.87q14.47-7.32,20.4-20.48c-.62-1.44-2.13-3-4.54-4.7l-3.47-2.15q-4.23,9.15-15.24,15.09a53.6,53.6,0,0,1-23.33,6.23A46.81,46.81,0,0,1,207.93,301.09Z"/></g><g id="Duplicate_Items_Folder_Symbol_53_copy_5_0_Layer8_0_MEMBER_0_MEMBER_0_MEMBER_0_FILL" data-name="Duplicate Items Folder Symbol 53 copy 5 0 Layer8 0 MEMBER 0 MEMBER 0 MEMBER 0 FILL"><path class="cls-8" d="M365.05,51.44q-12.78-22.09-28.79-30.33a38.35,38.35,0,0,0-15.55-4.39,25.13,25.13,0,0,0-15.78,4.16Q269.9-.53,230.26,0q-37.18.47-70.9,19.79A30.67,30.67,0,0,0,144,16.87a36.92,36.92,0,0,0-14.71,4.24q-16.08,8.24-28.87,30.33A169.15,169.15,0,0,0,82.37,99.09a236,236,0,0,0-5.62,50.81,39.66,39.66,0,0,1-.23,5.16,9.85,9.85,0,0,1-1.85,4.54q-14.78,18.78-13.54,38,1.23,19.63,19.16,39.11,23.56,25.71,58.43,40.18,32.34,13.32,71.06,15.7a272.28,272.28,0,0,0,73.83-5.54,253.28,253.28,0,0,0,66.82-23.79A162.18,162.18,0,0,0,368,252.52a108.3,108.3,0,0,0,17.24-15.78q17.94-19.49,19.17-39.11,1.23-19.24-13.55-38a10,10,0,0,1-1.85-4.54,41.57,41.57,0,0,1-.23-5.16,234.71,234.71,0,0,0-5.62-50.81A168.55,168.55,0,0,0,365.05,51.44Z"/></g><g id="Duplicate_Items_Folder_Symbol_53_copy_5_0_Layer7_0_FILL" data-name="Duplicate Items Folder Symbol 53 copy 5 0 Layer7 0 FILL"><path class="cls-36" d="M365,51.44q-12.63-22-28.72-30.33a38.35,38.35,0,0,0-15.55-4.39,24.77,24.77,0,0,0-15.78,4.08Q269.9-.53,230.26,0q-37.18.47-70.9,19.79a30.4,30.4,0,0,0-3.24-1.31q10.17,4.92,20.33,17.94,3.23,4.08,16.78,24.63,10,15,17.32,21.56,10.39,9.22,21.94,8.93A36.17,36.17,0,0,0,255,83.08q6.15-5.08,15.78-17.86,9.86-13.09,15.55-17.86a34.2,34.2,0,0,1,21.63-8.47,40.19,40.19,0,0,1,26.95,9.55q10.38,8.54,17.39,23.4a148,148,0,0,1,11.63,34.33,135.44,135.44,0,0,1,2.46,36.18q-.23,4.08-1.46,12.17a31.94,31.94,0,0,0,.77,12.08q1.84,6.24,6.08,18.79,3.08,11,2.31,19.32Q372,227,351.5,245.43q-15.86,14.4-40.8,25a256.4,256.4,0,0,1-58.66,17,272.79,272.79,0,0,1-61,3.31,266.88,266.88,0,0,0,83.37-1.93q41.73-7.38,76-25.63a162.46,162.46,0,0,0,17.63-10.7,113.94,113.94,0,0,0,17.16-15.78q17.86-19.56,19.17-39.11,1.23-19.24-13.55-38a9.48,9.48,0,0,1-1.85-4.54,47.57,47.57,0,0,1-.3-5.16,231.68,231.68,0,0,0-5.55-50.81Q377.14,72.38,365,51.44Z"/></g><g id="Duplicate_Items_Folder_Symbol_53_copy_5_0_Layer6_0_FILL" data-name="Duplicate Items Folder Symbol 53 copy 5 0 Layer6 0 FILL"><path class="cls-37" d="M159.89,18.57c-2.36-.88-3.77-1.36-4.23-1.47l-3.77-.69a20.77,20.77,0,0,0-3.16-.15c-.31,0-1.08.07-2.31.23l-2,.31,2,.23a8.39,8.39,0,0,1,2.23.46,20.44,20.44,0,0,1,2.85.69l3.31,1.31a26.48,26.48,0,0,1,3.62,1.85A52.28,52.28,0,0,1,165.67,27a65.88,65.88,0,0,1,10.62,13.4l3.54,6.39-.38-1.93a17.7,17.7,0,0,0-.54-2.31L178,39.66a40.1,40.1,0,0,0-3.47-7.39,42.66,42.66,0,0,0-6.23-7.93A34.52,34.52,0,0,0,159.89,18.57Z"/></g><g id="Duplicate_Items_Folder_Symbol_53_copy_5_0_Layer5_0_FILL" data-name="Duplicate Items Folder Symbol 53 copy 5 0 Layer5 0 FILL"><path class="cls-37" d="M319.25,17.1l2-.3-2-.31c-1.23-.16-2-.23-2.31-.23a14.49,14.49,0,0,0-3.16.15l-1.84.23-2,.46c-.36.11-1.74.59-4.15,1.47a34.27,34.27,0,0,0-8.39,5.77,42.27,42.27,0,0,0-6.24,7.93,39.38,39.38,0,0,0-3.46,7.39c-.21.56-.52,1.54-.93,2.92a21.64,21.64,0,0,0-.54,2.31l-.38,1.93,3.54-6.39A63.6,63.6,0,0,1,299.93,27a52,52,0,0,1,7.31-5.69c.82-.41,2-1,3.54-1.85l3.39-1.31a14.46,14.46,0,0,1,2.85-.69A6.46,6.46,0,0,1,319.25,17.1Z"/></g><g id="Duplicate_Items_Folder_Symbol_73_copy_7_0_Layer6_0_FILL" data-name="Duplicate Items Folder Symbol 73 copy 7 0 Layer6 0 FILL"><path class="cls-1" d="M358.89,94.55a58.91,58.91,0,0,0-11.77-17.71A39.16,39.16,0,0,0,330.18,66.3q-16.55-4.78-29.48,2.84Q289.23,75.92,282,91.47a95.9,95.9,0,0,0-8.24,32.25,102.82,102.82,0,0,0,2.08,32.8q14.09,12.78,38.72,12.24,25.63-.69,40.42-16a62.6,62.6,0,0,0,11.16-16.17Q366.28,111.56,358.89,94.55Z"/></g><g id="Duplicate_Items_Folder_Symbol_73_copy_7_0_Layer6_1_FILL" data-name="Duplicate Items Folder Symbol 73 copy 7 0 Layer6 1 FILL"><path class="cls-1" d="M163,69.14Q150,61.52,133.49,66.3a38.58,38.58,0,0,0-16.86,10.54,58.22,58.22,0,0,0-11.86,17.71q-7.38,17-7.23,42a62.6,62.6,0,0,0,11.16,16.17q14.77,15.31,40.42,16,24.63.54,38.72-12.24a102.82,102.82,0,0,0,2.08-32.8,95.9,95.9,0,0,0-8.24-32.25Q174.45,75.91,163,69.14Z"/></g><g class="cls-38"><g id="Duplicate_Items_Folder_Symbol_75_copy_4_0_Layer0_0_MEMBER_0_FILL" data-name="Duplicate Items Folder Symbol 75 copy 4 0 Layer0 0 MEMBER 0 FILL"><path class="cls-2" d="M347,104.25A32.94,32.94,0,0,0,326.64,90a30.6,30.6,0,0,0-24.4,4.54q-10.32,6.77-15.09,20.55a58,58,0,0,0-2.7,27.1q1.94,14.55,9.7,23.94a28.77,28.77,0,0,0,21.71,11q15.17.76,25.56-8.93,10.08-9.39,12.47-25.63a64.56,64.56,0,0,0,.08-20.1A45.09,45.09,0,0,0,347,104.25Z"/></g><g id="Duplicate_Items_Folder_Symbol_75_copy_4_0_Layer0_0_MEMBER_1_FILL" data-name="Duplicate Items Folder Symbol 75 copy 4 0 Layer0 0 MEMBER 1 FILL"><path d="M336.18,116.18a19,19,0,0,0-12-8.39,18,18,0,0,0-14.4,2.62,22.64,22.64,0,0,0-8.85,12.08,34.24,34.24,0,0,0-1.62,16,27.64,27.64,0,0,0,5.7,14.16,17.23,17.23,0,0,0,12.85,6.47,19.8,19.8,0,0,0,15-5.32q6-5.53,7.39-15.08Q342.27,125.11,336.18,116.18Z"/></g><g id="Duplicate_Items_Folder_Symbol_75_copy_4_0_Layer0_0_MEMBER_2_FILL" data-name="Duplicate Items Folder Symbol 75 copy 4 0 Layer0 0 MEMBER 2 FILL"><path class="cls-39" d="M344,116.18a5.75,5.75,0,0,0-3.62-2.54,5.36,5.36,0,0,0-4.31.77Q332,117,332.8,123t5.62,6.24a5.69,5.69,0,0,0,4.54-1.62,7.3,7.3,0,0,0,2.23-4.62A8.83,8.83,0,0,0,344,116.18Z"/></g></g><g class="cls-40"><g id="Duplicate_Items_Folder_Symbol_74_copy_4_0_Layer0_0_MEMBER_0_FILL" data-name="Duplicate Items Folder Symbol 74 copy 4 0 Layer0 0 MEMBER 0 FILL"><path class="cls-2" d="M176.75,122.34a62.65,62.65,0,0,1,0,20.09q-2.38,16.24-12.47,25.64-10.4,9.69-25.56,8.93A28.77,28.77,0,0,1,117,166q-7.77-9.39-9.7-23.94A58,58,0,0,1,110,115q4.77-13.78,15.09-20.56a30.49,30.49,0,0,1,24.32-4.54,33,33,0,0,1,20.48,14.24A44.26,44.26,0,0,1,176.75,122.34Z"/></g><g id="Duplicate_Items_Folder_Symbol_74_copy_4_0_Layer0_0_MEMBER_1_FILL" data-name="Duplicate Items Folder Symbol 74 copy 4 0 Layer0 0 MEMBER 1 FILL"><path d="M147,107.64a19,19,0,0,1,12,8.39q6.07,8.93,4.08,22.55-1.4,9.55-7.39,15.09a19.78,19.78,0,0,1-15,5.31,17.21,17.21,0,0,1-12.86-6.46,27.64,27.64,0,0,1-5.7-14.17,35,35,0,0,1,1.54-16q2.85-8.09,8.93-12.09A18,18,0,0,1,147,107.64Z"/></g><g id="Duplicate_Items_Folder_Symbol_74_copy_4_0_Layer0_0_MEMBER_2_FILL" data-name="Duplicate Items Folder Symbol 74 copy 4 0 Layer0 0 MEMBER 2 FILL"><path class="cls-39" d="M163.2,113.49a5.71,5.71,0,0,1,3.62,2.54,8.72,8.72,0,0,1,1.23,6.77,7.3,7.3,0,0,1-2.23,4.62,5.8,5.8,0,0,1-4.54,1.62c-3.23-.16-5.11-2.24-5.62-6.24s.56-6.8,3.23-8.54A5.32,5.32,0,0,1,163.2,113.49Z"/></g></g><g id="Duplicate_Items_Folder_Symbol_73_copy_7_0_Layer1_0_MEMBER_0_MEMBER_0_MEMBER_0_FILL" data-name="Duplicate Items Folder Symbol 73 copy 7 0 Layer1 0 MEMBER 0 MEMBER 0 MEMBER 0 FILL"><path class="cls-41" d="M357.12,149.05a25.14,25.14,0,0,1-2.54,2.62c-1.33,1.13-2.33,2-3,2.62l-3.46,2.54a30.2,30.2,0,0,1-3.78,2.38,60.72,60.72,0,0,1-18.78,6.62,74.15,74.15,0,0,1-20,1,64,64,0,0,1-16.17-3.23c-.31-.1-1.36-.49-3.16-1.15-1.28-.52-2.2-.93-2.77-1.23l-7.62-4.7,3.08,2.85q1.08.84,4.08,2.85a23.47,23.47,0,0,0,2.62,1.46,23.21,23.21,0,0,0,3.15,1.54,59.34,59.34,0,0,0,16.48,4.54,66.76,66.76,0,0,0,20.94-.54,55.47,55.47,0,0,0,19.63-7.54,35.84,35.84,0,0,0,3.92-2.7l1.77-1.38c.21-.16.75-.67,1.62-1.54l2.93-2.93a24.36,24.36,0,0,0,2.38-3,68.17,68.17,0,0,0,6-9.7l1.69-3.85L364,140.12A75.83,75.83,0,0,1,357.12,149.05Z"/></g><g id="Duplicate_Items_Folder_Symbol_73_copy_7_0_Layer1_0_MEMBER_1_MEMBER_0_MEMBER_0_FILL" data-name="Duplicate Items Folder Symbol 73 copy 7 0 Layer1 0 MEMBER 1 MEMBER 0 MEMBER 0 FILL"><path class="cls-41" d="M99.23,140.43a68.17,68.17,0,0,0,6,9.7c.46.67,1.25,1.67,2.38,3l2.93,2.93c.87.87,1.41,1.38,1.61,1.54l1.78,1.38q2.84,2.09,3.92,2.7a55.47,55.47,0,0,0,19.63,7.54,66.84,66.84,0,0,0,20.94.54,59.34,59.34,0,0,0,16.48-4.54,23.21,23.21,0,0,0,3.15-1.54l2.7-1.46,4-2.85,3.08-2.85-7.62,4.7c-.57.3-1.49.71-2.77,1.23-1.9.72-2.95,1.1-3.16,1.15a64,64,0,0,1-16.09,3.23,74.64,74.64,0,0,1-20.09-1,60.87,60.87,0,0,1-18.79-6.62l-3.77-2.38-3.39-2.54a36.45,36.45,0,0,1-3.07-2.62,25.14,25.14,0,0,1-2.54-2.62,74.78,74.78,0,0,1-6.86-8.93l-2.15-3.54Z"/></g><g id="Duplicate_Items_Folder_Symbol_73_copy_7_0_Layer0_0_MEMBER_0_MEMBER_0_MEMBER_0_FILL" data-name="Duplicate Items Folder Symbol 73 copy 7 0 Layer0 0 MEMBER 0 MEMBER 0 MEMBER 0 FILL"><path class="cls-42" d="M324.64,69.53l4.62,1a36.39,36.39,0,0,1,15.08,9,53.87,53.87,0,0,1,10.24,13.24,65.53,65.53,0,0,1,6,13.78,116.19,116.19,0,0,1,4.69,21.78l.85,8.24.15-2.15a61.68,61.68,0,0,0,.39-6.16A100.12,100.12,0,0,0,365,105.4,72,72,0,0,0,360.13,90a57.67,57.67,0,0,0-10.4-15.86,42.16,42.16,0,0,0-18-11.86q-2.93-.84-5.47-1.38a54.94,54.94,0,0,0-5.77-.77,37.49,37.49,0,0,0-23.25,5.69c-.56.36-2.13,1.57-4.69,3.62a51.41,51.41,0,0,0-4,4.08A60.21,60.21,0,0,0,278,91.78a83.54,83.54,0,0,0-4.62,17.93,98.75,98.75,0,0,0-1.31,15.94A116.52,116.52,0,0,0,274,148.44c.72,3.43,1.16,5.44,1.31,6l.54,2.08-.15-2.16q-.17-1.53-.31-6.08A141.51,141.51,0,0,1,276.52,126a138.71,138.71,0,0,1,2.85-15,100.37,100.37,0,0,1,5.7-16.25,57.58,57.58,0,0,1,9.85-15.39q.54-.54,3.39-3.24,3.07-2.31,3.77-2.69a26.54,26.54,0,0,1,8.47-3.54,32.28,32.28,0,0,1,9.39-.85A30.89,30.89,0,0,1,324.64,69.53Z"/></g><g id="Duplicate_Items_Folder_Symbol_73_copy_7_0_Layer0_0_MEMBER_1_MEMBER_0_MEMBER_0_FILL" data-name="Duplicate Items Folder Symbol 73 copy 7 0 Layer0 0 MEMBER 1 MEMBER 0 MEMBER 0 FILL"><path class="cls-42" d="M191.61,125.65a99.9,99.9,0,0,0-1.31-15.94,83.54,83.54,0,0,0-4.62-17.93,60.21,60.21,0,0,0-10.54-18.25,51.41,51.41,0,0,0-4-4.08c-2.56-2-4.13-3.26-4.69-3.62a37.49,37.49,0,0,0-23.25-5.69c-.62,0-2.54.25-5.77.77q-2.47.54-5.47,1.38a42.16,42.16,0,0,0-18,11.86A57.45,57.45,0,0,0,103.54,90a72,72,0,0,0-4.85,15.39A100.12,100.12,0,0,0,97,128.27q.07,3.61.38,6.16l.16,2.15.84-8.24a116.94,116.94,0,0,1,4.7-21.78,65.53,65.53,0,0,1,6-13.78,54.08,54.08,0,0,1,10.23-13.24,36.48,36.48,0,0,1,15.09-9l4.62-1c.31,0,1.11-.16,2.39-.31a14.9,14.9,0,0,1,2.31-.23,32.28,32.28,0,0,1,9.39.85,26.54,26.54,0,0,1,8.47,3.54q.69.38,3.77,2.69,2.85,2.7,3.39,3.24a58.42,58.42,0,0,1,9.93,15.39A100.14,100.14,0,0,1,184.3,111a138.71,138.71,0,0,1,2.85,15,141.51,141.51,0,0,1,1.15,22.32q-.15,4.54-.31,6.08l-.15,2.16.54-2.08c.15-.56.59-2.57,1.31-6A116.52,116.52,0,0,0,191.61,125.65Z"/></g><g id="Duplicate_Items_Folder_Symbol_70_copy_4_3_Layer0_0_MEMBER_0_MEMBER_0_MEMBER_0_FILL" data-name="Duplicate Items Folder Symbol 70 copy 4 3 Layer0 0 MEMBER 0 MEMBER 0 MEMBER 0 FILL"><path class="cls-43" d="M269.83,254.44a265.61,265.61,0,0,0-30.64-.92,251.43,251.43,0,0,0-32.8,2.85q-16.08,2.46-25.25,6.54,23.48,19.09,55.74,18a89.37,89.37,0,0,0,56.81-22Q284.77,255.82,269.83,254.44Z"/></g><g id="Duplicate_Items_Folder_Symbol_70_copy_4_3_Layer0_0_MEMBER_0_MEMBER_0_MEMBER_1_FILL" data-name="Duplicate Items Folder Symbol 70 copy 4 3 Layer0 0 MEMBER 0 MEMBER 0 MEMBER 1 FILL"><path class="cls-43" d="M316.4,229.81q-12.47,9.15-33.8,14.55a199.67,199.67,0,0,1-43.49,5.69q-26.64.7-48.27-4.46Q167.52,240,157.12,229a78.24,78.24,0,0,0,24,33.87q9.17-4.08,25.25-6.54a251.43,251.43,0,0,1,32.8-2.85,265.61,265.61,0,0,1,30.64.92q14.93,1.4,23.86,4.47A92.69,92.69,0,0,0,316.4,229.81Z"/></g><g id="Duplicate_Items_Folder_Symbol_70_copy_4_3_Layer0_0_MEMBER_1_FILL" data-name="Duplicate Items Folder Symbol 70 copy 4 3 Layer0 0 MEMBER 1 FILL"><path class="cls-44" d="M237,259.75A138.33,138.33,0,0,0,277.68,253q19.47-6.47,28.33-17-79.14,20.24-141-.54,10,12.69,30.41,19.09Q214.09,260.37,237,259.75Z"/></g><g id="Duplicate_Items_Folder_Symbol_70_copy_4_3_Layer0_0_MEMBER_2_FILL" data-name="Duplicate Items Folder Symbol 70 copy 4 3 Layer0 0 MEMBER 2 FILL"><path class="cls-45" d="M280.06,245q23.1-5.39,36.34-15.16-29.72,9.31-77.83,9.93-52.2.62-81.45-10.7Q167,239.35,188.45,245q20,5.24,45,5.24A206,206,0,0,0,280.06,245Z"/></g><g id="Duplicate_Items_Folder_Symbol_70_copy_4_3_Layer0_0_MEMBER_3_MEMBER_0_MEMBER_0_MEMBER_0_FILL" data-name="Duplicate Items Folder Symbol 70 copy 4 3 Layer0 0 MEMBER 3 MEMBER 0 MEMBER 0 MEMBER 0 FILL"><path class="cls-42" d="M310.7,233.12a90.18,90.18,0,0,1-16.47,6.93,187.06,187.06,0,0,1-25.71,5.85,226.13,226.13,0,0,1-32.34,2.61,215.3,215.3,0,0,1-32.25-1.77,128.7,128.7,0,0,1-25.71-5.85,64.42,64.42,0,0,1-16-7.77l-2.31-1.62L157.12,229l2.62,2.69,2.16,1.77a60.89,60.89,0,0,0,15.7,8.86,118.58,118.58,0,0,0,25.94,7,182.17,182.17,0,0,0,32.72,2.31,189.62,189.62,0,0,0,32.64-3.08,156.15,156.15,0,0,0,25.87-7.08,81.93,81.93,0,0,0,16.16-7.93,36.64,36.64,0,0,0,4.08-2.77l1.39-1-1.46.84A35,35,0,0,1,310.7,233.12Z"/></g><g id="Duplicate_Items_Folder_Symbol_70_copy_4_3_Layer0_0_MEMBER_3_MEMBER_1_MEMBER_0_MEMBER_0_FILL" data-name="Duplicate Items Folder Symbol 70 copy 4 3 Layer0 0 MEMBER 3 MEMBER 1 MEMBER 0 MEMBER 0 FILL"><path class="cls-42" d="M318,231.81a6.57,6.57,0,0,0-2.39-3.23,8.11,8.11,0,0,0-6.54-1.47,9.18,9.18,0,0,0-1.93.7l-.61.38.69.08,1.77.46a19.12,19.12,0,0,1,4.7,2.39,6.32,6.32,0,0,1,2.84,3.84,2.51,2.51,0,0,1-.07,1.62l-.16.69.62-.38a3.65,3.65,0,0,0,1.15-1.77A4.91,4.91,0,0,0,318,231.81Z"/></g><g id="Duplicate_Items_Folder_Symbol_70_copy_4_3_Layer0_0_MEMBER_3_MEMBER_2_MEMBER_0_MEMBER_0_FILL" data-name="Duplicate Items Folder Symbol 70 copy 4 3 Layer0 0 MEMBER 3 MEMBER 2 MEMBER 0 MEMBER 0 FILL"><path class="cls-42" d="M164,228.73a15.08,15.08,0,0,1,2.47-.62l-.7-.38a9.14,9.14,0,0,0-1.84-.62,8.42,8.42,0,0,0-6.55,1.54,6.15,6.15,0,0,0-2.46,3.31,5.24,5.24,0,0,0,.15,3.31,3.16,3.16,0,0,0,1.77,2.16l-.15-.69a3.53,3.53,0,0,1-.08-1.7,9.57,9.57,0,0,1,.77-2.08,7.56,7.56,0,0,1,1.85-1.69A17.93,17.93,0,0,1,164,228.73Z"/></g><g id="Duplicate_Items_Folder_Symbol_72_copy_4_0_Layer0_0_MEMBER_0_FILL" data-name="Duplicate Items Folder Symbol 72 copy 4 0 Layer0 0 MEMBER 0 FILL"><path class="cls-8" d="M269.75,179.31c0-1.29-1.05-3.31-3.16-6.09A40,40,0,0,0,254,162.68a43.87,43.87,0,0,0-21.79-5.39q-14.85-.07-25.63,7-9.48,6.24-9.7,13.09l.3.62q3.63,8.16,17,14.93,11.39,5.85,17.55,5.78,6.78,0,17.47-4.55,13.1-5.61,19.94-14.08Z"/></g><g id="Duplicate_Items_Folder_Symbol_72_copy_4_0_Layer0_0_MEMBER_1_FILL" data-name="Duplicate Items Folder Symbol 72 copy 4 0 Layer0 0 MEMBER 1 FILL"><path class="cls-46" d="M269.75,179.31c0-1.29-1.05-3.31-3.16-6.09A40,40,0,0,0,254,162.68a43.87,43.87,0,0,0-21.79-5.39q-14.85-.07-25.63,7-9.48,6.24-9.7,13.09l.3.62q3.63,8.16,17,14.93,11.39,5.85,17.55,5.78,6.78,0,17.47-4.55,13.1-5.61,19.94-14.08Z"/></g><g id="Duplicate_Items_Folder_Symbol_72_copy_4_0_Layer0_0_MEMBER_2_MEMBER_0_FILL" data-name="Duplicate Items Folder Symbol 72 copy 4 0 Layer0 0 MEMBER 2 MEMBER 0 FILL"><path class="cls-47" d="M269.13,180.08a70.91,70.91,0,0,1-7.39,1.38q-5.31,1-12.39,1.77a188.72,188.72,0,0,1-25.1.93q-17.4-.54-27.1-6.16,3.63,8.16,17,14.93,11.39,5.85,17.55,5.78,6.78,0,17.47-4.55Q262.29,188.55,269.13,180.08Z"/></g><g id="Duplicate_Items_Folder_Symbol_72_copy_4_0_Layer0_0_MEMBER_2_MEMBER_1_MEMBER_0_MEMBER_0_MEMBER_0_FILL" data-name="Duplicate Items Folder Symbol 72 copy 4 0 Layer0 0 MEMBER 2 MEMBER 1 MEMBER 0 MEMBER 0 MEMBER 0 FILL"><path class="cls-41" d="M207.16,147.74l-1.38,1.85,1.77-1.46a13.72,13.72,0,0,1,2.15-1.46l1.39-.93,1.69-.77a38.3,38.3,0,0,1,8.47-2.69A60.85,60.85,0,0,1,232,141.2a68.5,68.5,0,0,1,10.85.92l4.62,1.08,5.7,2,3.77,2.08,1.85,1.31L256.43,146,254,143.89l-5.55-3.08s-1.66-.59-4.85-1.77A49.29,49.29,0,0,0,232,137.5a42.76,42.76,0,0,0-11.55,1.78,27.71,27.71,0,0,0-8.62,4.08l-1.62,1.15L209,145.74A9.47,9.47,0,0,0,207.16,147.74Z"/></g><g id="Duplicate_Items_Folder_Symbol_72_copy_4_0_Layer0_0_MEMBER_2_MEMBER_2_FILL" data-name="Duplicate Items Folder Symbol 72 copy 4 0 Layer0 0 MEMBER 2 MEMBER 2 FILL"><path class="cls-48" d="M268.36,181a9.3,9.3,0,0,0-6.69-3.31,11.64,11.64,0,0,0-7.63,1.69,16.1,16.1,0,0,0-5.46,5.62,21.89,21.89,0,0,0-2.77,7.39h.77l-1,3.16Q260.28,190.09,268.36,181Z"/></g><g id="Duplicate_Items_Folder_Symbol_72_copy_4_0_Layer0_0_MEMBER_2_MEMBER_3_FILL" data-name="Duplicate Items Folder Symbol 72 copy 4 0 Layer0 0 MEMBER 2 MEMBER 3 FILL"><path class="cls-48" d="M219.63,192.62h.7a21.38,21.38,0,0,0-2.39-7.54,15.31,15.31,0,0,0-5.24-5.85,11.87,11.87,0,0,0-7.54-2.08,9.17,9.17,0,0,0-6.85,3q3.08,4.86,10.08,9.47a53.66,53.66,0,0,0,12,6.16Z"/></g><g id="Duplicate_Items_Folder_Symbol_72_copy_4_0_Layer0_0_MEMBER_2_MEMBER_4_FILL" data-name="Duplicate Items Folder Symbol 72 copy 4 0 Layer0 0 MEMBER 2 MEMBER 4 FILL"><path class="cls-49" d="M251.27,172.38c0-.82-.54-1.49-1.77-2a10,10,0,0,0-4.39-.85,10.56,10.56,0,0,0-4.46.85c-1.23.51-1.85,1.18-1.85,2s.54,1.49,1.77,2a10.22,10.22,0,0,0,4.39.85,10.77,10.77,0,0,0,4.47-.85C250.66,173.87,251.27,173.2,251.27,172.38Z"/></g><g class="cls-50"><g id="Duplicate_Items_Folder_Ellipse_1_copy_8_0_Layer0_0_FILL" data-name="Duplicate Items Folder  Ellipse  1 copy 8 0 Layer0 0 FILL"><path class="cls-1" d="M386.07,130.35q-3-27-23.17-44.12T317.32,72q-25.47,2.85-41.41,23.94t-12.86,48.12q3,27,23.17,44.11T331.8,202.4q25.47-2.85,41.41-23.94T386.07,130.35Z"/></g></g><path id="Duplicate_Items_Folder_Symbol_69_copy_6_0_Layer0_0_MEMBER_0_MEMBER_1_1_STROKES" data-name="Duplicate Items Folder Symbol 69 copy 6 0 Layer0 0 MEMBER 0 MEMBER 1 1 STROKES" class="cls-51" d="M263.05,144.05q3,27,23.17,44.11T331.8,202.4q25.47-2.85,41.41-23.94t12.86-48.11q-3-27-23.17-44.12T317.32,72q-25.47,2.85-41.41,23.94T263.05,144.05Z"/><g class="cls-50"><g id="Duplicate_Items_Folder_Ellipse_1_0_copy_8_0_Layer0_0_FILL" data-name="Duplicate Items Folder  Ellipse  1 0 copy 8 0 Layer0 0 FILL"><path class="cls-1" d="M202.62,144.05q3-27-12.86-48.12T148.35,72q-25.48-2.85-45.58,14.24T79.6,130.35q-3.07,27,12.86,48.11T133.8,202.4q25.56,2.85,45.65-14.24T202.62,144.05Z"/></g></g><path id="Duplicate_Items_Folder_Symbol_69_copy_6_0_Layer0_0_MEMBER_1_MEMBER_1_1_STROKES" data-name="Duplicate Items Folder Symbol 69 copy 6 0 Layer0 0 MEMBER 1 MEMBER 1 1 STROKES" class="cls-51" d="M202.62,144.05q-3,27-23.17,44.11T133.8,202.4q-25.49-2.85-41.34-23.94T79.6,130.35q3-27,23.17-44.12T148.35,72q25.47,2.85,41.41,23.94T202.62,144.05Z"/><path id="Duplicate_Items_Folder_Symbol_69_copy_6_0_Layer0_0_MEMBER_2_1_STROKES" data-name="Duplicate Items Folder Symbol 69 copy 6 0 Layer0 0 MEMBER 2 1 STROKES" class="cls-52" d="M263.51,124q-7.38-5.39-18.78-8.16-22.71-5.39-42.8,8"/><g id="Duplicate_Items_Folder_Symbol_53_copy_5_0_Layer0_0_MEMBER_0_MEMBER_0_FILL" data-name="Duplicate Items Folder Symbol 53 copy 5 0 Layer0 0 MEMBER 0 MEMBER 0 FILL"><path class="cls-53" d="M317.63,277.69l7-2.85-7.16,2.39c-3.24,1.08-6.08,1.92-8.55,2.54l-11.31,3.08a302.08,302.08,0,0,1-67.21,8.54,288.8,288.8,0,0,1-37.26-1.77,232.2,232.2,0,0,1-30-5.23l-15.94-4.54c-1.74-.67-3-1.13-3.77-1.39l-7.16-2.62,6.93,3.08c.77.31,2,.85,3.77,1.62l15.78,5.39a197,197,0,0,0,30.1,6.39,237.52,237.52,0,0,0,37.65,2.23A252.41,252.41,0,0,0,298,284.39l11.24-3.62C311.45,280.05,314.24,279,317.63,277.69Z"/></g><path class="cls-8" d="M3.23,426.48a18.18,18.18,0,0,1-.06-16.65c2.32-4.75,6.78-9.7,11.73-11.66a38.29,38.29,0,0,1,26.42-.52,13.53,13.53,0,0,1,3.22,1.51,10.85,10.85,0,0,1,4.3,8.42,23.5,23.5,0,0,1-1.92,9.53,35.93,35.93,0,0,1-7.21,12.05,25.94,25.94,0,0,1-4.77,4,24.27,24.27,0,0,1-17.4,3.61A20.74,20.74,0,0,1,3.23,426.48Z"/><path class="cls-8" d="M432,430.41a18.21,18.21,0,0,0,.06-16.66c-2.32-4.75-6.78-9.69-11.73-11.65a38.24,38.24,0,0,0-26.42-.53,13.77,13.77,0,0,0-3.22,1.52,10.84,10.84,0,0,0-4.3,8.42,23.45,23.45,0,0,0,1.92,9.52,36.22,36.22,0,0,0,7.2,12.06,26.7,26.7,0,0,0,4.78,4,24.22,24.22,0,0,0,17.4,3.61A20.73,20.73,0,0,0,432,430.41Z"/><rect class="cls-54" x="126.42" y="236.32" width="183.25" height="373.64" transform="translate(-207.19 637.07) rotate(-89.44)"/><rect class="cls-55" x="131.44" y="245.89" width="172.36" height="359.36" transform="translate(-210.04 639.05) rotate(-89.44)"/><path class="cls-56" d="M398.13,341.14c0-.5-142.95-1.11-152.07-.27l-9.82.91q69.22.54,138.35,5.15c5.78.38,12.28,1.16,15.82,5.74,6.2,8,5.73,24.59,6.49,34.48,1,13.2.18,110.31-.9,123.5C398.64,482.38,397.85,369.52,398.13,341.14Z"/><path class="cls-56" d="M37.11,509.6l7.78.08,95.57.93,56.88.55,75.41.73c22,.22,89,1.17,110.86,1.38-44.68-.43-134-6.28-178.68-7.92C165,503.89,80.44,506.92,66.18,488.1c-8.93-11.79-8.38-30-9.3-48.87-.88-17.86.62-36.82,2.63-54.31C63,354.33,78,346.75,91.25,343.78c11.82-2.65,46.64-4.53,63.46-4.86-5.54-.67-115.92-2-115.93-1.08Z"/><g class="cls-57"><path class="cls-58" d="M37.11,509.72l1.67-171.86c7.49-.3,14.94-.2,22.43,0-5.77,0-11.68.08-17.14,3.89-3.79,2.65-5.12,10.59-.55,13.13a5.71,5.71,0,0,0,3.59.39l2.6-.28a30.19,30.19,0,0,0-4.85,1.39,4.53,4.53,0,0,0-2,1.32,5.67,5.67,0,0,0-1.13,3.4c0,2.57.06,5.12,0,7.74q-.27,8.58-.48,17.15-.26,10.59-.44,21.19c-.07,3.95-.74,12.55,1.16,15.25a3,3,0,0,0,2,1.19,12.14,12.14,0,0,0,5.56.06,18.78,18.78,0,0,0-5.76,2.51,5,5,0,0,0-2,2.15c-.78,1.63-.89,4-1,6.23-.37,12.18-1,24.14-1.6,36.28-.36,6.94-.68,14-.64,20.94,0,5.28,1.77,6.47,4.15,6.84a53.79,53.79,0,0,0,11.26.59l-4,.39A33.16,33.16,0,0,0,42.23,501a2.26,2.26,0,0,0-1.42,1c-1.92,3.26-.19,6.67,1.59,7.2l1.92.57C42.08,509.13,39.39,509.75,37.11,509.72Z"/></g><path class="cls-59" d="M21,319.32l-2,208.75,397.32,3.86,2-208.75ZM398.74,515.88l-364-3.53,1.72-177,364,3.54Z"/><g id="Layer0_4_MEMBER_3_MEMBER_0_MEMBER_0_FILL" data-name="Layer0 4 MEMBER 3 MEMBER 0 MEMBER 0 FILL"><path class="cls-60" d="M30.94,339.6l-.15,6.4q-.12,6.38-.23,16.58-.11,9.32-.11,16.61l.08,6.88,0-.49.17-6.39q.13-7.29.21-16.6l0-23.47Z"/></g><g id="Layer0_4_MEMBER_4_MEMBER_0_MEMBER_0_FILL" data-name="Layer0 4 MEMBER 4 MEMBER 0 MEMBER 0 FILL"><path class="cls-60" d="M23.69,383.8l-.28,13.53c0,1.79-.55,55.27-.6,59.28-.07,5.9-.43,44.42-.43,49.07l.05,6.09c0,.31,0,.46,0,.46l.19-6.55c.08-4,.48-42.56.54-49.06l.51-72.93Z"/></g><g id="Layer0_3_MEMBER_2_MEMBER_0_MEMBER_0_FILL" data-name="Layer0 3 MEMBER 2 MEMBER 0 MEMBER 0 FILL"><path class="cls-60" d="M406.82,333.67c0-.69,0-1-.05-1a8,8,0,0,0-.08,1l-.12,5.81q-.13,7-.15,9.18v12a4,4,0,0,0,.08,1,4.22,4.22,0,0,0,.09-1l.1-2.78c0-1.58.09-4.65.13-9.2q0-2.16,0-9.18Z"/></g><g id="Layer0_3_MEMBER_3_MEMBER_0_MEMBER_0_FILL" data-name="Layer0 3 MEMBER 3 MEMBER 0 MEMBER 0 FILL"><path class="cls-60" d="M407,370.33l-.06-6.88-.05.49-.17,6.39q-.19,12.75-.23,16.58c-.07,6.82-.59,62.94-.59,67.19L406,461l.05-.48.87-73.58Q407,376.71,407,370.33Z"/></g><g id="Layer0_3_MEMBER_4_MEMBER_0_MEMBER_0_FILL" data-name="Layer0 3 MEMBER 4 MEMBER 0 MEMBER 0 FILL"><path class="cls-60" d="M414.57,385.13l0-.11-.9,72.92c-.07,6.5-.42,45-.41,49.07,0,2.06,0,3.66,0,4.79l0,1.76s.05-.15.05-.46l.17-6.09c.06-2.7.45-41.22.52-49.06Z"/></g><g id="Layer0_2_MEMBER_5_FILL" data-name="Layer0 2 MEMBER 5 FILL"><path class="cls-61" d="M416.15,524.34l0-1.64L362,523Z"/></g><g id="Layer0_2_MEMBER_2_FILL" data-name="Layer0 2 MEMBER 2 FILL"><path class="cls-61" d="M19.11,520.31v1.07l172.36,1Z"/></g><g id="Layer0_2_MEMBER_3_MEMBER_0_MEMBER_0_FILL" data-name="Layer0 2 MEMBER 3 MEMBER 0 MEMBER 0 FILL"><path class="cls-62" d="M208.79,529.92l-.65-8.17-1,8.15"/></g><g id="Layer0_2_MEMBER_4_MEMBER_0_MEMBER_0_FILL" data-name="Layer0 2 MEMBER 4 MEMBER 0 MEMBER 0 FILL"><path class="cls-60" d="M335.59,527.51l-4.45-.14q-4.56-.12-13-.25-13.2-.23-42.78-.27l-56-.23,13.27.32q7.27.13,19.23.21l23.55.08q30.23,0,42.78.15l17.66.17s.06,0,.06,0h-.06Z"/></g><g class="cls-63"><g id="Layer0_1_MEMBER_5_FILL" data-name="Layer0 1 MEMBER 5 FILL"><path class="cls-62" d="M21,321V322l150,.77Z"/></g></g><g class="cls-63"><g id="Layer0_1_MEMBER_5_FILL-2" data-name="Layer0 1 MEMBER 5 FILL"><path class="cls-62" d="M20.6,359.13l0,1.64,8.94-.56Z"/></g></g><g id="Layer0_4_MEMBER_1_FILL" data-name="Layer0 4 MEMBER 1 FILL"><path class="cls-62" d="M34.93,498l1.7-1.08L35,496.17l-6.75.64Z"/></g><g id="Layer0_4_MEMBER_1_FILL-2" data-name="Layer0 4 MEMBER 1 FILL"><polygon class="cls-64" points="34.96 496.17 34.94 497.96 36.63 496.89 34.96 496.17"/></g><g id="Layer0_1_MEMBER_6_MEMBER_0_MEMBER_0_FILL" data-name="Layer0 1 MEMBER 6 MEMBER 0 MEMBER 0 FILL"><path class="cls-60" d="M255.88,334.76s0,0-.09,0l-5.34-.2c-4.43-.16-9.19-.28-14.83-.41q-16.05-.33-22-.37c-2.82,0-4.93,0-6.35.05s-3.67,0-6.64,0q-9.09,0-13.93-.11l-26.94-.55q-6.63-.17-22-.1L117.53,333l5.43.21q6.78.15,14.83.14h10.26q6.48,0,11.74.21l13,.36q6,.15,14,.23,4.86.06,13.93.11,4.44,0,6.64-.05l6.35-.07q7.18,0,22,.28Z"/></g><g id="Layer0_1_MEMBER_7_MEMBER_0_MEMBER_0_FILL" data-name="Layer0 1 MEMBER 7 MEMBER 0 MEMBER 0 FILL"><path class="cls-60" d="M346.2,325.42l-.09,0-17.5-.15q-12.6-.12-42.4-.61l-23.38-.32c-8.9-.12-15.07-.16-19-.16l-14.33.08,1.47,0q6.54,0,12.85.1l42.41.63q28.95.48,42.43.52l17.5-.11Z"/></g><g id="Layer0_1_MEMBER_8_FILL" data-name="Layer0 1 MEMBER 8 FILL"><path class="cls-61" d="M418.24,329.11l0-1.64-53.79.4Z"/></g><g id="Layer0_1_MEMBER_3_MEMBER_0_FILL" data-name="Layer0 1 MEMBER 3 MEMBER 0 FILL"><path class="cls-62" d="M346.4,338.37l.82,1.55.84-1.49-.63-6.13Z"/></g><g id="Layer0_1_MEMBER_4_FILL" data-name="Layer0 1 MEMBER 4 FILL"><path class="cls-62" d="M183.31,320.92l-1.91,0,.9,5.22Z"/></g><g class="cls-63"><g id="Layer0_1_MEMBER_5_FILL-3" data-name="Layer0 1 MEMBER 5 FILL"><path class="cls-62" d="M231.26,530.14h1.65"/></g></g><path class="cls-8" d="M37.45,428.68c-.52.29-1.09.46-1.59.78a12.64,12.64,0,0,1,2,.65c.49.22,1,.55,1.47.82a9.51,9.51,0,0,1,2.19,1.46,4,4,0,0,1,1.12,1.6,1.85,1.85,0,0,1-.7,1.47,27,27,0,0,1-4.13,3.23,21.45,21.45,0,0,1-5.39,2.95,14.63,14.63,0,0,1,7,2.05c.11.07.23.14.27.26a.47.47,0,0,1,0,.33,5.37,5.37,0,0,1-.72,1.46c-1.51,2.42-2.69,4.87-5.22,6.4a24.73,24.73,0,0,1-6.3,2.44,13.78,13.78,0,0,1-3.3.65c-2.7.11-5.24-1.28-7.35-3a45.26,45.26,0,0,1-6.41-6.71c-3.72-4.55-7.33-9.37-9.14-15a27.35,27.35,0,0,1,2.13-21.1l10.2,2.79a27.91,27.91,0,0,0,10.64,3.47c1.9.3,3.8.53,5.7.8a23.78,23.78,0,0,1,5.33,1,24.33,24.33,0,0,1,6.87,3.89c.32.28.48.65.77.94s.55.26.6.57a.77.77,0,0,1-.17.58A13.73,13.73,0,0,1,41.14,426,19.91,19.91,0,0,1,37.45,428.68Z"/><path class="cls-65" d="M41.14,426a13.73,13.73,0,0,0,2.15-2.48.77.77,0,0,0,.17-.58c-.05-.31-.41-.37-.6-.57s-.45-.66-.77-.94a24.33,24.33,0,0,0-6.87-3.89,23.78,23.78,0,0,0-5.33-1l-.91-.13a11.55,11.55,0,0,1,1.38,5.12A18.21,18.21,0,0,1,28,430.27c2.66-.49,5.16,2.07,5.4,4.76s-1.21,5.27-3,7.28a9.94,9.94,0,0,1,3.35,9.79c2.48-1.54,3.66-4,5.16-6.36a5.37,5.37,0,0,0,.72-1.46.47.47,0,0,0,0-.33.62.62,0,0,0-.27-.26,14.63,14.63,0,0,0-7-2.05,21.45,21.45,0,0,0,5.39-2.95,27,27,0,0,0,4.13-3.23,1.88,1.88,0,0,0,.7-1.47,4,4,0,0,0-1.12-1.6,9.51,9.51,0,0,0-2.19-1.46c-.48-.27-1-.6-1.47-.82a12.64,12.64,0,0,0-2-.65c.5-.32,1.07-.49,1.59-.78A19.58,19.58,0,0,0,41.14,426Z"/><path class="cls-66" d="M35.66,429.32a13.48,13.48,0,0,1,1.31.58A16.13,16.13,0,0,1,40.22,432a12.22,12.22,0,0,1,.94.86,4.16,4.16,0,0,1,.83,1,.76.76,0,0,1,.11.47c0,.12-.09.21-.3.4l-1.17,1.07c-.4.35-.79.75-1.23,1.11l-1.41,1a21.47,21.47,0,0,1-3,1.95c-4.39,2.28-9,2.83-12.27,3.21-1.65.18-3,.28-3.92.35l-1.44.1,1.45.07c.93,0,2.27.07,3.94,0a40.93,40.93,0,0,0,5.86-.53,23,23,0,0,0,6.9-2.25,20,20,0,0,0,3.15-2.09l1.42-1.08c.44-.39.83-.81,1.22-1.2l1.14-1.15a1.36,1.36,0,0,0,.25-1.84,4.9,4.9,0,0,0-1-1.11c-.35-.3-.71-.57-1-.81A14.3,14.3,0,0,0,37,429.74,10.63,10.63,0,0,0,35.66,429.32Z"/><path class="cls-66" d="M13.56,412.25l.58.37a16.49,16.49,0,0,0,1.74.95,28.5,28.5,0,0,0,6.95,2.2c1.51.31,3.18.57,5,.84a46.46,46.46,0,0,1,5.6,1.06,20.79,20.79,0,0,1,2.86,1L37,419c.2.1.43.25.66.39l1.38.86c.91.6,1.84,1.22,2.72,1.9.22.17.44.34.64.52l.29.26.12.14,0,0-.14.21c-.17.23-.34.45-.52.67a17,17,0,0,1-5,4.25,15,15,0,0,1-5.95,1.35,93.81,93.81,0,0,1-10.72.56,61,61,0,0,1-7.23-.49c-1.7-.22-2.63-.4-2.63-.4s.91.24,2.6.57a56.74,56.74,0,0,0,7.24.88,81.78,81.78,0,0,0,10.8-.18,15.47,15.47,0,0,0,6.39-1.35A17.43,17.43,0,0,0,43,424.69l.55-.72.13-.19a2,2,0,0,0,.21-.32.81.81,0,0,0-.06-.78,1.47,1.47,0,0,0-.23-.32l-.17-.19-.34-.32-.7-.56c-.93-.7-1.88-1.32-2.82-1.91l-1.42-.87c-.24-.13-.46-.27-.74-.41l-.75-.33a20.31,20.31,0,0,0-3-1,46.5,46.5,0,0,0-5.74-.91c-1.79-.2-3.46-.39-5-.63a29.56,29.56,0,0,1-7-1.81,17.31,17.31,0,0,1-1.79-.83Z"/><path class="cls-66" d="M32.37,441.69s.43.05,1.19.18a17.87,17.87,0,0,1,3.12.86,16,16,0,0,1,2,.92l.53.29c0,.05.11.05.09.11l0,.08,0,0-.08.15-.33.58a34.46,34.46,0,0,1-3.3,4.81,12.65,12.65,0,0,1-2.05,2.08A11.12,11.12,0,0,1,31.06,453c-1.66.62-3.28,1.06-4.58,1.51a9.79,9.79,0,0,1-3.16.58,7.2,7.2,0,0,1-1.19-.08,6.43,6.43,0,0,0,1.18.26,9.55,9.55,0,0,0,3.31-.22c1.36-.33,3-.61,4.75-1.17a10.69,10.69,0,0,0,2.72-1.26,7.26,7.26,0,0,0,1.23-1.05c.37-.38.72-.77,1.07-1.19a26.36,26.36,0,0,0,3.27-5.08l.73-1.52,0-.13s-.07-.05-.1-.07l-.25-.14-.48-.25L39,443a15.85,15.85,0,0,0-2.18-.76,15,15,0,0,0-3.27-.5C32.8,441.67,32.37,441.69,32.37,441.69Z"/><path class="cls-8" d="M397.74,432.61c.52.28,1.09.45,1.59.78a11.58,11.58,0,0,0-2,.64c-.5.22-1,.56-1.47.82a9.84,9.84,0,0,0-2.19,1.46,4.06,4.06,0,0,0-1.12,1.6,1.89,1.89,0,0,0,.7,1.48,26.32,26.32,0,0,0,4.13,3.22,21.14,21.14,0,0,0,5.39,2.95,14.65,14.65,0,0,0-7,2.06.51.51,0,0,0-.27.25.5.5,0,0,0,0,.34,5.46,5.46,0,0,0,.72,1.45c1.51,2.43,2.69,4.87,5.22,6.41a24.63,24.63,0,0,0,6.29,2.43,14.5,14.5,0,0,0,3.31.66c2.7.1,5.24-1.29,7.35-3a44.77,44.77,0,0,0,6.41-6.71c3.72-4.55,7.33-9.37,9.14-15a27.33,27.33,0,0,0-2.13-21.09l-10.2,2.79A28.25,28.25,0,0,1,411,419.65c-1.9.29-3.8.52-5.7.79a23.78,23.78,0,0,0-5.33,1,24.83,24.83,0,0,0-6.87,3.89c-.32.28-.48.66-.77.95s-.56.25-.61.57a.81.81,0,0,0,.18.57,13.46,13.46,0,0,0,2.15,2.49A20,20,0,0,0,397.74,432.61Z"/><path class="cls-65" d="M394.05,429.9a13.46,13.46,0,0,1-2.15-2.49.81.81,0,0,1-.18-.57c0-.32.42-.38.61-.57s.45-.67.77-.95a24.83,24.83,0,0,1,6.87-3.89,23.78,23.78,0,0,1,5.33-1l.91-.12a11.38,11.38,0,0,0-1.38,5.11,18.22,18.22,0,0,0,2.32,8.77c-2.66-.5-5.16,2.06-5.4,4.76s1.21,5.26,3,7.28a9.91,9.91,0,0,0-3.35,9.78c-2.49-1.53-3.66-3.95-5.16-6.36a5.46,5.46,0,0,1-.72-1.45.5.5,0,0,1,0-.34.51.51,0,0,1,.27-.25,14.65,14.65,0,0,1,7-2.06,21.14,21.14,0,0,1-5.39-2.95,25.87,25.87,0,0,1-4.13-3.22,1.89,1.89,0,0,1-.7-1.48,4.06,4.06,0,0,1,1.12-1.6,9.84,9.84,0,0,1,2.19-1.46c.48-.26,1-.6,1.47-.82a11.58,11.58,0,0,1,2-.64c-.5-.33-1.07-.5-1.59-.78A20,20,0,0,1,394.05,429.9Z"/><path class="cls-66" d="M399.53,433.24a13.17,13.17,0,0,0-1.38.42,14.66,14.66,0,0,0-3.52,1.84c-.34.25-.7.51-1.05.82a4.84,4.84,0,0,0-1.05,1.1,1.56,1.56,0,0,0-.24.95,1.58,1.58,0,0,0,.48.89l1.15,1.16c.39.39.78.81,1.22,1.19s.94.72,1.42,1.08a19.35,19.35,0,0,0,3.15,2.09,23,23,0,0,0,6.9,2.25,39.53,39.53,0,0,0,5.86.53c1.67,0,3,0,3.94,0l1.45-.06-1.44-.11c-.93-.07-2.27-.17-3.92-.34-3.25-.38-7.88-.93-12.27-3.21a21.53,21.53,0,0,1-3-2l-1.41-1c-.44-.36-.83-.75-1.23-1.11l-1.17-1.07c-.21-.19-.27-.27-.3-.39a.79.79,0,0,1,.11-.48,4.16,4.16,0,0,1,.83-1c.31-.31.63-.59.94-.86a16.13,16.13,0,0,1,3.25-2.12C399.05,433.42,399.53,433.24,399.53,433.24Z"/><path class="cls-66" d="M421.63,416.18l-.6.32a19.28,19.28,0,0,1-1.79.84,30.58,30.58,0,0,1-7,1.81c-1.5.23-3.17.42-5,.63a43,43,0,0,0-5.74.91,20.25,20.25,0,0,0-3,1l-.75.34c-.28.13-.5.27-.74.41l-1.42.86c-.94.59-1.89,1.21-2.82,1.92-.23.18-.47.36-.7.56s-.23.2-.34.32l-.17.18a1.47,1.47,0,0,0-.23.32.81.81,0,0,0-.06.78,2.75,2.75,0,0,0,.21.33l.13.18c.18.25.36.49.55.72a17.6,17.6,0,0,0,5.38,4.5,15.42,15.42,0,0,0,6.39,1.34,81.78,81.78,0,0,0,10.8.18,53.3,53.3,0,0,0,7.24-.88c1.69-.32,2.6-.57,2.6-.57s-.93.18-2.63.4a62.85,62.85,0,0,1-7.23.5,96.4,96.4,0,0,1-10.72-.57,14.8,14.8,0,0,1-5.95-1.34,17.13,17.13,0,0,1-5-4.25c-.18-.22-.35-.45-.52-.68l-.14-.2s0,0,0,0l.12-.13.29-.27c.2-.18.42-.35.64-.52.88-.67,1.81-1.3,2.72-1.89l1.38-.87c.22-.13.46-.28.66-.38s.47-.23.71-.33a18.45,18.45,0,0,1,2.86-1,46.55,46.55,0,0,1,5.6-1.07c1.78-.27,3.45-.53,5-.83a29,29,0,0,0,6.95-2.2,16.19,16.19,0,0,0,1.74-1Z"/><path class="cls-66" d="M402.82,445.62s-.43,0-1.21,0a15.16,15.16,0,0,0-3.27.51,15.85,15.85,0,0,0-2.18.76l-.58.26-.48.26-.25.13s-.12,0-.1.08l.05.12c.24.49.48,1,.73,1.53a26.61,26.61,0,0,0,3.27,5.07,15.32,15.32,0,0,0,1.07,1.19,7.32,7.32,0,0,0,1.23,1.06,11,11,0,0,0,2.72,1.26c1.79.56,3.39.84,4.75,1.16a9.3,9.3,0,0,0,3.31.22,6.43,6.43,0,0,0,1.18-.26,7.76,7.76,0,0,1-1.19.09,10.14,10.14,0,0,1-3.16-.59c-1.3-.45-2.92-.88-4.58-1.51a10.69,10.69,0,0,1-2.42-1.25,12.31,12.31,0,0,1-2.06-2.08,34,34,0,0,1-3.29-4.81l-.33-.58-.08-.14,0-.05-.05-.08c0-.05.05-.06.09-.1l.53-.3a17.42,17.42,0,0,1,2-.91,17.19,17.19,0,0,1,3.12-.87C402.39,445.66,402.82,445.62,402.82,445.62Z"/><text class="cls-67" transform="translate(51.96 373.38) scale(0.99 1)">Hello! I am Turtloo<tspan x="65.74" y="39.65">I am gentle</tspan><tspan x="86.23" y="79.31">I am kind</tspan><tspan x="50.59" y="118.96">I am friendly</tspan></text></g></g></svg>