<svg xmlns="http://www.w3.org/2000/svg" xmlns:xlink="http://www.w3.org/1999/xlink" viewBox="0 0 594.94 913.91"><defs><style>.cls-1{fill:#fff;}.cls-2{fill:url(#radial-gradient);}.cls-3{fill:#999;}.cls-4{fill:#df915e;}.cls-16,.cls-37,.cls-5,.cls-9{fill:none;}.cls-5{stroke:#a16134;stroke-width:1.77px;}.cls-16,.cls-5,.cls-9{stroke-miterlimit:22.37;}.cls-6{fill:#7a372a;}.cls-7{fill:#a4574a;}.cls-8{fill:#010101;}.cls-37,.cls-9{stroke:#000;}.cls-9{stroke-width:0.83px;}.cls-10{fill:#173e39;}.cls-11{fill:#357d72;}.cls-12{fill:#df935e;}.cls-13{fill:#f9e3b2;}.cls-14{fill:url(#linear-gradient);}.cls-15{fill:#b1b1b1;}.cls-16{stroke:#d1cfcf;stroke-width:1.56px;}.cls-17{fill:#71a39c;}.cls-18{fill:#93c1bc;}.cls-19{fill:#de925e;}.cls-20{fill:#9b4e38;}.cls-21{fill:url(#linear-gradient-2);}.cls-22{fill:url(#linear-gradient-3);}.cls-23{fill:#a95d2a;}.cls-24{fill:url(#linear-gradient-4);}.cls-25{fill:url(#linear-gradient-5);}.cls-26{fill:#453626;}.cls-27{fill:#ffb380;}.cls-28{fill:url(#radial-gradient-2);}.cls-29{fill:#896b3d;}.cls-30{fill:#6c533f;}.cls-31{fill:#5b4332;}.cls-32{fill:#ac8d76;}.cls-33{fill:#020303;}.cls-34{fill:#856c44;}.cls-35{mask:url(#mask);}.cls-36{fill:#b8633e;}.cls-37{stroke-miterlimit:8.73;stroke-width:1.99px;}.cls-38{mask:url(#mask-2);}.cls-39{fill:#874334;}.cls-40{fill:#774b2c;}.cls-41{fill:#fcf4dd;}.cls-42{fill:#f1e8d1;}.cls-43{opacity:0.5;}.cls-44{fill:#9d947f;}.cls-45{fill:#c78e62;}.cls-46{fill:#795741;}.cls-47{fill:#663f26;}.cls-48{fill:#442917;}.cls-49{isolation:isolate;}.cls-50{fill:#30190c;}.cls-51{font-size:38px;fill:#005d52;font-family:Adventuring;}</style><radialGradient id="radial-gradient" cx="-1360.81" cy="1032.64" r="26.99" gradientTransform="matrix(0, 0.8, -4.19, -0.02, 4626.16, 1988.06)" gradientUnits="userSpaceOnUse"><stop offset="0" stop-color="#070707" stop-opacity="0.4"/><stop offset="1" stop-opacity="0"/></radialGradient><linearGradient id="linear-gradient" x1="-885.24" y1="1210.68" x2="-907.11" y2="1171.62" gradientTransform="matrix(2.24, 0, 0, -2.24, 2294.09, 3166.55)" gradientUnits="userSpaceOnUse"><stop offset="0.02"/><stop offset="0.86" stop-opacity="0.5"/><stop offset="1" stop-opacity="0.18"/></linearGradient><linearGradient id="linear-gradient-2" x1="-1399.21" y1="1323.54" x2="-1588.95" y2="1036.1" gradientTransform="translate(-1050.79 938.86) rotate(-167.97) scale(0.92)" gradientUnits="userSpaceOnUse"><stop offset="0.04" stop-color="#de925e"/><stop offset="0.38" stop-color="#db905d"/><stop offset="0.58" stop-color="#d38858"/><stop offset="0.74" stop-color="#c67a50"/><stop offset="0.87" stop-color="#b26645"/><stop offset="0.99" stop-color="#9b4e38"/></linearGradient><linearGradient id="linear-gradient-3" x1="-1436.97" y1="1227.91" x2="-1539.85" y2="1072.07" gradientTransform="translate(-1050.79 938.86) rotate(-167.97) scale(0.92)" gradientUnits="userSpaceOnUse"><stop offset="0.04" stop-color="#f4d29b"/><stop offset="0.21" stop-color="#f1c891"/><stop offset="0.5" stop-color="#ebad77"/><stop offset="0.86" stop-color="#e2844e"/></linearGradient><linearGradient id="linear-gradient-4" x1="-407.97" y1="1112.4" x2="-597.71" y2="824.95" gradientTransform="matrix(0.9, -0.19, -0.19, -0.9, 716.31, 940.09)" xlink:href="#linear-gradient-2"/><linearGradient id="linear-gradient-5" x1="-445.73" y1="1016.77" x2="-548.61" y2="860.93" gradientTransform="matrix(0.9, -0.19, -0.19, -0.9, 716.31, 940.09)" xlink:href="#linear-gradient-3"/><radialGradient id="radial-gradient-2" cx="-918.35" cy="1069.74" r="95.8" gradientTransform="translate(2317.84 -1727.46) scale(2.24 1.97)" gradientUnits="userSpaceOnUse"><stop offset="0.03" stop-color="#f7daa5"/><stop offset="0.37" stop-color="#f6d8a3"/><stop offset="0.57" stop-color="#efd3a3"/><stop offset="0.73" stop-color="#e9c696"/><stop offset="0.86" stop-color="#e1b383"/><stop offset="0.98" stop-color="#d69b6b"/><stop offset="1" stop-color="#d59767"/></radialGradient><mask id="mask" x="160.75" y="302.1" width="91.8" height="101.85" maskUnits="userSpaceOnUse"><g id="Mask_Mask_1" data-name="Mask Mask 1"><g id="Mask_Duplicate_Items_Folder_gbhbtgb_copy_3_0_4_MASK_0_FILL" data-name="Mask Duplicate Items Folder gbhbtgb copy 3 0 4 MASK 0 FILL"><path class="cls-1" d="M252.54,355.76q.24-24-12.65-38.68-12.12-13.75-31.67-14.89-18.78-1.17-32.81,13.14t-14.63,35.4q-.61,20.36,11.63,35.73a44.48,44.48,0,0,0,33.86,17.43q18.85.93,32.44-13.05T252.54,355.76Z"/></g></g></mask><mask id="mask-2" x="340.14" y="303.97" width="91.8" height="101.85" maskUnits="userSpaceOnUse"><g id="Mask_Mask_2" data-name="Mask Mask 2"><g id="Mask_Duplicate_Items_Folder_gbhbtgb_copy_3_0_4_MASK_0_FILL-2" data-name="Mask Duplicate Items Folder gbhbtgb copy 3 0 4 MASK 0 FILL"><path class="cls-1" d="M431.93,357.63q.24-24-12.65-38.68-12.13-13.76-31.67-14.89-18.78-1.17-32.81,13.14t-14.64,35.4q-.6,20.36,11.64,35.73a44.48,44.48,0,0,0,33.86,17.43q18.85.93,32.44-13.05T431.93,357.63Z"/></g></g></mask></defs><title>Asset 56</title><g id="Layer_2" data-name="Layer 2"><g id="Layer_2-2" data-name="Layer 2"><g id="Duplicate_Items_Folder_Symbol_35_copy_18_0_Layer0_0_FILL" data-name="Duplicate Items Folder Symbol 35 copy 18 0 Layer0 0 FILL"><path class="cls-2" d="M408.53,881.63q-9.76-4.17-27.54-7.39-37.62-6.79-90.86-6.79t-90.86,6.79q-17.79,3.22-27.54,7.39-10.11,4.32-10.1,9t10.1,9.05q9.75,4.17,27.54,7.38,37.64,6.81,90.86,6.8t90.86-6.8q17.77-3.21,27.54-7.38,10.1-4.32,10.1-9.05T408.53,881.63Z"/></g><g id="Duplicate_Items_Folder_wvwv_0_Layer2_0_FILL" data-name="Duplicate Items Folder wvwv 0 Layer2 0 FILL"><path class="cls-3" d="M156.26,573.11l8.58-6.39,39.74,34.06-2,13.67a115.3,115.3,0,0,1-18.45-11.05Q164.11,589.06,156.26,573.11Z"/></g><g id="Duplicate_Items_Folder_wvwv_0_Layer1_0_FILL" data-name="Duplicate Items Folder wvwv 0 Layer1 0 FILL"><path class="cls-4" d="M202.4,535.62a53.11,53.11,0,0,1,9.88-4.47q9.9-3.61,13.17-5,4.1,10.76,3.45,17.42-.65,6.06-6.29,16.11A329.09,329.09,0,0,1,200.39,594c-.51.62-1,1.26-1.44,1.93a3.43,3.43,0,0,0-.5.67q-2.37,3.12-4.86,6.33c-.9,1.19-1.76,2.29-2.57,3.32q-2.79,3.54-4.63,5.5-4.81,5.4-6.71,7.08a18.23,18.23,0,0,1-2.71,2.29,14,14,0,0,1-11.44,1.92,22.47,22.47,0,0,1-10.24-5.73,14.62,14.62,0,0,1-4.86-9.39,17.67,17.67,0,0,1,1.94-10.47,55.76,55.76,0,0,1,3.73-6c3.1-4.13,5.41-7.25,6.9-9.35q9.42-14.25,14.62-21Q193.25,541.1,202.4,535.62Z"/></g><path id="Duplicate_Items_Folder_wvwv_0_Layer1_0_1_STROKES" data-name="Duplicate Items Folder wvwv 0 Layer1 0 1 STROKES" class="cls-5" d="M191,606.28c.81-1,1.67-2.13,2.57-3.32q2.49-3.21,4.81-6.35c.17-.22.33-.44.5-.68l1.44-1.93"/><g id="Duplicate_Items_Folder_wvwv_0_Layer0_0_FILL" data-name="Duplicate Items Folder wvwv 0 Layer0 0 FILL"><path class="cls-1" d="M242.53,529.88q3.06,9.82-.63,18.11-5.15,11.52-39.27,66.46a98.86,98.86,0,0,1-27.95-17.68,81,81,0,0,1-18.42-23.66q14.3-15.09,34.84-33.47Q207,525.47,216,522.26a82.23,82.23,0,0,1,9-2.6,28.55,28.55,0,0,1,5.9-1Q239.31,519.27,242.53,529.88Z"/></g><g id="Duplicate_Items_Folder_Symbol_42_copy_14_0_Layer0_0_MEMBER_0_MEMBER_0_FILL" data-name="Duplicate Items Folder Symbol 42 copy 14 0 Layer0 0 MEMBER 0 MEMBER 0 FILL"><path class="cls-6" d="M342,897.33a21.47,21.47,0,0,0,13-5.4l3.42-4.57a87.93,87.93,0,0,0-14.12-27.11H327.91q-3.86,11.84-6.44,31.47l5.61,3.33A28.9,28.9,0,0,0,342,897.33Z"/></g><g id="Duplicate_Items_Folder_Symbol_42_copy_14_0_Layer0_0_MEMBER_0_MEMBER_1_MEMBER_0_MEMBER_0_FILL" data-name="Duplicate Items Folder Symbol 42 copy 14 0 Layer0 0 MEMBER 0 MEMBER 1 MEMBER 0 MEMBER 0 FILL"><path class="cls-7" d="M328.53,875.42l.1-2.71-1.14,2.5a26,26,0,0,0-1.66,6.23,23.91,23.91,0,0,0,.31,9.24,71.32,71.32,0,0,0,1.87-8.93A59.6,59.6,0,0,0,328.53,875.42Z"/></g><g id="Duplicate_Items_Folder_Symbol_42_copy_14_0_Layer0_0_MEMBER_0_MEMBER_2_MEMBER_0_MEMBER_0_FILL" data-name="Duplicate Items Folder Symbol 42 copy 14 0 Layer0 0 MEMBER 0 MEMBER 2 MEMBER 0 MEMBER 0 FILL"><path class="cls-8" d="M344.32,860.25l2.7,3.84a92.8,92.8,0,0,1,6.44,11.33q1.88,3.95,3.43,8.2l1.14,3.53c.07.14.07.25,0,.31l-.31.52a17,17,0,0,1-3.43,3.95,19.74,19.74,0,0,1-10,4.68,30.43,30.43,0,0,1-11.95-.32,38.5,38.5,0,0,1-5.71-2l-4-2.18-.83-.62,1.77-11.12a188.73,188.73,0,0,1,4.05-18.8l.31-1c0-.07.17-.1.52-.1l15.79-.21L328.53,860c-.62,0-.94.14-.94.42l-.31,1a141.49,141.49,0,0,0-4.36,18.69q-1.14,5.82-1.87,11.33l-.1.41.31.21.31.31.62.42,4.05,2.28a26.61,26.61,0,0,0,5.92,2,29.68,29.68,0,0,0,12.37.32,29.09,29.09,0,0,0,5.61-1.77,17.18,17.18,0,0,0,4.67-3.12,16.59,16.59,0,0,0,3.53-4.15l.31-.62.21-.32-.1-.51-1.25-3.54a87.61,87.61,0,0,0-3.64-8.2,79.7,79.7,0,0,0-6.64-11.12Z"/></g><g id="Duplicate_Items_Folder_Symbol_42_copy_14_0_Layer0_0_MEMBER_1_STROKES_1_FILL" data-name="Duplicate Items Folder Symbol 42 copy 14 0 Layer0 0 MEMBER 1 STROKES 1 FILL"><path d="M339.64,876.45l-.41-.83-.31.11v.2l2.91,10.39.1.52.1.11v.41l1.15,6.44.1.31v.42l.1.62v.62l.11.42.1,1H344V893.7l-.11-.83V892l-.83-4.88v-.31H343v-.21l-.11-.52Z"/></g><g id="Duplicate_Items_Folder_Symbol_43_copy_13_0_Layer0_0_MEMBER_0_FILL" data-name="Duplicate Items Folder Symbol 43 copy 13 0 Layer0 0 MEMBER 0 FILL"><path class="cls-6" d="M275,865.34a17.2,17.2,0,0,0-13.91-4.05l-6.76,2.08a74.22,74.22,0,0,0-15.47,17.24,46.23,46.23,0,0,0-4.26,8.1,61.46,61.46,0,0,0,29.39,2,44.6,44.6,0,0,0,11.64-3.53q1.14-4.77.31-13.81Z"/></g><path id="Duplicate_Items_Folder_Symbol_43_copy_13_0_Layer0_0_MEMBER_1_1_STROKES" data-name="Duplicate Items Folder Symbol 43 copy 13 0 Layer0 0 MEMBER 1 1 STROKES" class="cls-9" d="M275,865.34l.94,8q.82,9-.31,13.81A44.6,44.6,0,0,1,264,890.68a61.46,61.46,0,0,1-29.39-2,46.23,46.23,0,0,1,4.26-8.1,74.22,74.22,0,0,1,15.47-17.24l6.76-2.08A17.2,17.2,0,0,1,275,865.34Z"/><g id="Duplicate_Items_Folder_Symbol_43_copy_13_0_Layer0_0_MEMBER_2_FILL" data-name="Duplicate Items Folder Symbol 43 copy 13 0 Layer0 0 MEMBER 2 FILL"><path class="cls-6" d="M275.76,887,252,873.65a52.36,52.36,0,0,0-12.57,18.59,39.3,39.3,0,0,0,18.49.21Q264.23,891.31,275.76,887Z"/></g><g id="Duplicate_Items_Folder_Symbol_43_copy_13_0_Layer0_0_MEMBER_3_MEMBER_0_MEMBER_0_FILL" data-name="Duplicate Items Folder Symbol 43 copy 13 0 Layer0 0 MEMBER 3 MEMBER 0 MEMBER 0 FILL"><path class="cls-7" d="M258.31,872.2l-3,1.66a28.42,28.42,0,0,0-6.13,5.5,34.91,34.91,0,0,0-4.36,7.07,19.62,19.62,0,0,0-1.14,3.32Z"/></g><g id="Duplicate_Items_Folder_Symbol_43_copy_13_0_Layer0_0_MEMBER_4_STROKES_1_FILL" data-name="Duplicate Items Folder Symbol 43 copy 13 0 Layer0 0 MEMBER 4 STROKES 1 FILL"><path d="M276.49,880.82l-.31.1v1.14l-.11.42v.73l-.1.41V884l-.21.72-.1.83-.42,1.36-10.18,3.63-.52.1-.52.21-1.76.31-.52.21-4.05.73h-.52l-.11.1-8.51.42-4.57-.52h-.63l-.52-.21-2.8-.62h-.1l2.59-5.72.42-.62.62-1.25,4.05-6.33.52-.52.42-.62.52-.52.41-.63L252.7,872l-.31-.31-.52.52-.62.41L248,875.83l-.42.62-.52.52L244,881.34l-.31.62-1.56,2.6-3.43,7.27,1.66.62,5.19,1,6.55.21,4.67-.42.21-.1h.31l4.68-.83.52-.21,1.14-.21.62-.21.52-.1.62-.21.52-.1,2.29-.73,7.58-3.12h.11l.1-.2.52-3.12v-.42l.1-.41v-2.08Z"/></g><g id="Duplicate_Items_Folder_Symbol_3_copy_28_0_Layer2_0_FILL" data-name="Duplicate Items Folder Symbol 3 copy 28 0 Layer2 0 FILL"><path class="cls-3" d="M435.48,568.29l-9-5.85L389,598.88l2.78,13.53a115.64,115.64,0,0,0,17.74-12.17Q428.62,584.68,435.48,568.29Z"/></g><g id="Duplicate_Items_Folder_Symbol_3_copy_28_0_Layer1_0_FILL" data-name="Duplicate Items Folder Symbol 3 copy 28 0 Layer1 0 FILL"><path class="cls-4" d="M387.12,533.71A52.56,52.56,0,0,0,377,529.86q-10.1-3-13.45-4.19-3.42,11-2.37,17.6,1,6,7.27,15.7a328.32,328.32,0,0,0,24.3,32.91c.54.59,1.06,1.2,1.55,1.84a4,4,0,0,1,.54.64c1.71,2,3.45,4,5.24,6,1,1.13,1.9,2.18,2.77,3.15,2,2.25,3.65,4,5,5.21q5.15,5.1,7.13,6.65a18.71,18.71,0,0,0,2.85,2.12,14,14,0,0,0,11.53,1.22,22.56,22.56,0,0,0,9.87-6.36,14.53,14.53,0,0,0,4.27-9.67,17.69,17.69,0,0,0-2.57-10.33,59.67,59.67,0,0,0-4.09-5.77q-5-5.9-7.47-8.9-10.28-13.65-15.88-20Q396.59,538.61,387.12,533.71Z"/></g><path id="Duplicate_Items_Folder_Symbol_3_copy_28_0_Layer1_0_1_STROKES" data-name="Duplicate Items Folder Symbol 3 copy 28 0 Layer1 0 1 STROKES" class="cls-5" d="M402.83,603.53c-.87-1-1.8-2-2.77-3.15q-2.69-3-5.2-6l-.53-.64-1.56-1.84"/><g id="Duplicate_Items_Folder_Symbol_3_copy_28_0_Layer0_0_FILL" data-name="Duplicate Items Folder Symbol 3 copy 28 0 Layer0 0 FILL"><path class="cls-1" d="M346.72,530.45q-2.46,10,1.74,18,5.84,11.19,43.28,63.92A98.86,98.86,0,0,0,418.55,593a80.8,80.8,0,0,0,16.93-24.74Q420.29,554.1,398.65,537q-16.75-13.17-25.88-15.82a83.92,83.92,0,0,0-9.11-2,28.62,28.62,0,0,0-6-.62Q349.28,519.66,346.72,530.45Z"/></g><g id="Duplicate_Items_Folder_rv_0_Layer14_0_STROKES_1_FILL" data-name="Duplicate Items Folder rv 0 Layer14 0 STROKES 1 FILL"><path class="cls-10" d="M249.9,607.84l.21-.11.1-.1-.31.21m-1.66.52a6.55,6.55,0,0,1-.84.41,39.08,39.08,0,0,0-18.9,16.73q-3.74,6.12-5.82,16.82a142.6,142.6,0,0,0-1.87,24.93q-.1,13.31,2.08,38,1.14,12.57,2.81,26.9l3.94,32q4.26,32.61,9.56,67.51l5.4,34V866h.31q3.65,2.49,16.73,1.15a98.36,98.36,0,0,0,10.69-2.19l5.82-1.55.52-.52,7.89-88.92q2.08-24,4.06-42.38l6.54-62.84q0-11.54-.31-17.25-1.46-18.8-7.17-27.63l-.93-1.45-3.12-3.84-5.3-4.68-4.57-2.8-5.61-2.29-5.71-1.35a52.28,52.28,0,0,0-5.71-.72,18.63,18.63,0,0,0-5.61.41,26.53,26.53,0,0,0-2.91.73l-1.35.31,1-.31-.52.1-.94.42h-.2m6.54-.52,4.15-.21a33.55,33.55,0,0,1,5.51.52q1.46.32,5.4,1.35l8.21,4,2.39,1.76a31.67,31.67,0,0,1,4.46,4.26,39.32,39.32,0,0,1,4,4.88h0l.42.73q5,8.13,6.75,26.38v17.25L277.53,862.53a70.24,70.24,0,0,1-14,3.33c-.72.15-1.45.29-2.18.41q-10.8,1.26-15.89-.93l-6.65-42.69q-4.56-30.75-8.31-58.79-2.17-17-3.74-32-1.65-13.82-2.8-26.69-2.09-23.48-2.29-37.92a141.16,141.16,0,0,1,1.87-24.72,66.13,66.13,0,0,1,2.5-9.24l1.55-3.85,3.54-6.12,1.87-2.5,4.26-4.57a35.32,35.32,0,0,1,10.49-6.54,34.56,34.56,0,0,1,5.61-1.56l.72-.21Z"/><path class="cls-11" d="M258.93,607.63l-4.15.21-.73.1-.72.21a34.56,34.56,0,0,0-5.61,1.56,35.32,35.32,0,0,0-10.49,6.54L233,620.82l-1.87,2.5-3.54,6.12L226,633.29a66.13,66.13,0,0,0-2.5,9.24,141.16,141.16,0,0,0-1.87,24.72q.21,14.44,2.29,37.92,1.14,12.87,2.8,26.69,1.56,15,3.74,32,3.75,28,8.31,58.79l6.65,42.69q5.08,2.17,15.89.93c.73-.12,1.46-.26,2.18-.41q3.54-.63,8.83-1.87l5.2-1.46L296,668.71V651.46q-1.78-18.24-6.75-26.38l-.42-.73h0a39.32,39.32,0,0,0-4-4.88,31.67,31.67,0,0,0-4.46-4.26l-2.39-1.76-8.21-4q-3.94-1-5.4-1.35A33.55,33.55,0,0,0,258.93,607.63Z"/></g><g id="Duplicate_Items_Folder_rv_0_Layer13_0_STROKES_1_FILL" data-name="Duplicate Items Folder rv 0 Layer13 0 STROKES 1 FILL"><path class="cls-11" d="M305.47,612c-.55.3-1.11.61-1.66.94-1.73,1.18-3.4,2.42-5,3.74a38.3,38.3,0,0,0-4.15,4.36,40.84,40.84,0,0,0-6.13,10.8,49.68,49.68,0,0,0-2.29,7.48,78,78,0,0,0-.93,9.45,138.42,138.42,0,0,0,1.56,24.41q2,14.24,7,37l5.6,25.87q3.22,15.06,6.13,30.64l16,100q5,2.38,15.79,1.66,11.33-1.25,16.41-3l3.22-31c.28-2.93.55-5.88.83-8.83s.43-5.73.62-8.63q.69-7.65,1.15-15.26.54-7,.93-14,.21-3.66.42-7.37l.31-7.27c.12-2.5.22-5,.31-7.48l.31-9.25q.27-8.1.31-16.1V728.43a1.6,1.6,0,0,0,0-.31l-3-74.47-.93-6.65q-4.58-18.78-11.12-26.18l-.1-.21-.11-.1q-2.07-2.18-4.67-4.47a31.7,31.7,0,0,0-5.19-3.53,30.52,30.52,0,0,0-5.61-2.59,33.05,33.05,0,0,0-9.35-1.77Z"/><path class="cls-10" d="M303.5,612h0l-.11.11a41.91,41.91,0,0,0-9.35,8.2,34.62,34.62,0,0,0-3.53,5.2,42.42,42.42,0,0,0-2.91,5.92,36.94,36.94,0,0,0-2.18,7.68l-.93,7-.11,2.5a150.67,150.67,0,0,0,1.56,24.72q1.67,13.4,6.86,37.18l5.61,25.87q2.91,12.88,6.33,30.75,2.6,13.39,6.13,34l9.87,66v.31h.31q3.43,2.6,16.62,1.87a107,107,0,0,0,16.62-3l.62-.52,2.91-40.09c-.28,3-.55,5.9-.83,8.83l-3.22,31q-5.08,1.77-16.41,3-10.8.74-15.79-1.66l-16-100q-2.91-15.58-6.13-30.64l-5.6-25.87q-5-22.74-7-37a138.42,138.42,0,0,1-1.56-24.41,78,78,0,0,1,.93-9.45,49.68,49.68,0,0,1,2.29-7.48,40.84,40.84,0,0,1,6.13-10.8,38.3,38.3,0,0,1,4.15-4.36c1.59-1.32,3.26-2.56,5-3.74.55-.33,1.11-.64,1.66-.94l16.62-3.84c.81,0,1.61,0,2.39.1l.93.21a31.5,31.5,0,0,1,6,1.46,30.52,30.52,0,0,1,5.61,2.59,31.7,31.7,0,0,1,5.19,3.53q2.6,2.3,4.67,4.47l.11.1.1.21q6.56,7.41,11.12,26.18l.93,6.65,3,74.47a1.6,1.6,0,0,1,0,.31v11.74q0,8-.31,16.1l-.31,9.25c-.09,2.48-.19,5-.31,7.48l-.31,7.27,1.87-29.5-.94-86.22-2.8-17.66q-4.15-19-11.43-27.11a36.07,36.07,0,0,0-22-12.25,33.88,33.88,0,0,0-21.92,4.36A.41.41,0,0,1,303.5,612Z"/></g><g id="Duplicate_Items_Folder_Symbol_46_copy_9_140_Layer2_0_FILL" data-name="Duplicate Items Folder Symbol 46 copy 9 140 Layer2 0 FILL"><path class="cls-11" d="M337.77,693.64l9.46-25.24a109.79,109.79,0,0,0-16.52-5.61,149.32,149.32,0,0,0-41.55-5.3,311.94,311.94,0,0,0-40.2,3.32l-15.06,2.91q3.22,22.44,22.13,51.21a204.24,204.24,0,0,0,18.28,24.31q15.48,4.05,27.21,2.08c4-.7,6.82-1.63,8.62-2.81Q325.31,722.21,337.77,693.64Z"/></g><g id="Duplicate_Items_Folder_Symbol_46_copy_9_140_Layer1_0_STROKES_1_FILL" data-name="Duplicate Items Folder Symbol 46 copy 9 140 Layer1 0 STROKES 1 FILL"><path class="cls-10" d="M274.1,738.72l-.1.31,3.22,1.25,8.2,1.76,7.48.42h.1l4.58-.21,6.23-1,2.49-.83.52-.1,2.29-1,.62-.21.73-.52-.11-.31-.83.41-.62.21-.42.21-.41.1-1.35.63-.63.1-1.14.42-8.31,1.35h-1.77l-.83.1-12.36-.93-.72-.21h-.32l-.93-.31-1.25-.21Z"/></g><g id="Duplicate_Items_Folder_Symbol_46_copy_9_140_Layer0_0_STROKES_1_FILL" data-name="Duplicate Items Folder Symbol 46 copy 9 140 Layer0 0 STROKES 1 FILL"><path class="cls-10" d="M287.5,701.53l-.31.11.83,37.7.1,1v.52l.11.1v.21l.52.52.62.21.52.1,3.11.31h.42l.1.11h1.56a14.07,14.07,0,0,0,2.08-.11l1.14-.2h.21l.31-.11.62-.41.11-.21.1-.1v-.21l.11-.31-1.46-36.26-.1-.72v-.11h-.31v-.1l.31-.1v-.11h-.31v.11h-.11l.94,37.18-.11.21v.1h-.2l-.42.21-.93.11a15.08,15.08,0,0,1-2,.1h-1.56l-.1-.1h-.31l-3.53-.42-.42-.1v-.52l-.31-3-1.25-35.42Z"/></g><g id="Duplicate_Items_Folder_Symbol_17_copy_17_0_Layer0_0_FILL" data-name="Duplicate Items Folder Symbol 17 copy 17 0 Layer0 0 FILL"><path class="cls-12" d="M326.35,472.39a56.06,56.06,0,0,0-11.74-7.9q-14.44-7.68-27.73-6t-21.51,8.93a21.75,21.75,0,0,0-5.6,7.07q-.74,9.75-1.67,14.95-1.56,9.36-4.77,14-2.61,3.84-10.18,8.41L231.41,519q-1.77,1.35-8.1,34.17l-.83,6.23q22.94,0,57.23.11a49.8,49.8,0,0,0,11.74-5.92A104.88,104.88,0,0,0,305,542.4a228,228,0,0,0,32.62-37.6l-1.15-1.35A41.31,41.31,0,0,1,326.35,472.39Z"/></g><g id="Duplicate_Items_Folder_Symbol_17_copy_17_0_Layer0_1_MEMBER_0_FILL" data-name="Duplicate Items Folder Symbol 17 copy 17 0 Layer0 1 MEMBER 0 FILL"><path class="cls-13" d="M322.19,527.13l3.12.73q-16.31-21.93-7.79-61.81-15.79-9.45-30.64-7.58-13.51,1.66-22,9.35a139.46,139.46,0,0,0,1.66,14.75,42.53,42.53,0,0,1-.11,15.37,51.42,51.42,0,0,1-4.77,14.54q-2.81,5.5-9.87,11.22-8.84,7.06-11.22,10a14,14,0,0,1,8.2-3.11,41.25,41.25,0,0,0-10.69,10.38,10.7,10.7,0,0,1,5.61-2.7,18.6,18.6,0,0,0-7.48,9.25l3.74-3q-5,5.79-6.86,15.47,50.46.09,100.76.11a29.3,29.3,0,0,0-1.46-3.85,15.63,15.63,0,0,1,2.6,3.85,2.12,2.12,0,0,0,.62,0,25.13,25.13,0,0,0-6.13-15.58,21.1,21.1,0,0,1,4.16,4.88,21.31,21.31,0,0,0-6.86-13.19,7.15,7.15,0,0,1,3.74,2.59A28.48,28.48,0,0,0,322.19,527.13Z"/></g><g id="Duplicate_Items_Folder_Path_copy_13_0_Layer0_0_FILL" data-name="Duplicate Items Folder  Path  copy 13 0 Layer0 0 FILL"><path class="cls-14" d="M336,500.37q-10.81-13.39-9.56-27.94a55.67,55.67,0,0,0-11.74-7.89q-14.43-7.69-27.73-6t-21.61,8.93a21.75,21.75,0,0,0-5.6,7.07q-.63,9.45-1.56,14.95-1.56,9.36-4.78,14-2.81,4-11.74,9.34a126.44,126.44,0,0,0,18.8,1.25A234,234,0,0,0,336,500.37Z"/></g><g id="Duplicate_Items_Folder_Symbol_41_copy_17_0_Layer5_0_FILL" data-name="Duplicate Items Folder Symbol 41 copy 17 0 Layer5 0 FILL"><path class="cls-1" d="M369.35,553.1q5.4-14.55,1.25-27.22Q369,521,361.15,516a73.51,73.51,0,0,0-17.35-7.68c-.14-.07-1-.87-2.49-2.39s-2.74-2.87-3.43-3.64A72.48,72.48,0,0,1,295,517.16q-21.92.51-45.81-10.7-6.64,5.93-7,6.13-19.43,8.42-23.79,19.32-3.84,9.35.73,30.74.84,1.35-2.08,44.15-1.65,24.51-5.61,79.15,9.87,8.52,31.48,13.92a211.67,211.67,0,0,0,45.7,5.82q58.38,1.24,83.62-20.47-1.14-9-1.56-13.4Q363.23,575.43,363,570q-.11-2.19,2.07-7.06Q368.93,554.24,369.35,553.1Z"/></g><g id="Duplicate_Items_Folder_Symbol_41_copy_17_0_Layer4_0_STROKES_1_FILL" data-name="Duplicate Items Folder Symbol 41 copy 17 0 Layer4 0 STROKES 1 FILL"><path class="cls-15" d="M219.67,560.78l-.31-.1L210.53,686v.42l.31.2a68.48,68.48,0,0,0,9,5.72,80.74,80.74,0,0,0,9.66,4.36q4.88,1.88,10,3.32,4.58,1.35,10.28,2.6l20.88,3.12c3.53.34,7.07.55,10.6.62l17.76.1.41-.1h.32l13.19-.83q10-.93,20.88-3,5.19-1.05,10.28-2.5l12.57-4.15,2.39-1.14.62-.21,6.44-3.53,1-.83.62-.32.52-.41a34.15,34.15,0,0,0,3.95-3.74l.21-.21v-.31l-9.66-122.47-.31.11,8.41,122.15.21-.21-.21.52v-.31a24.59,24.59,0,0,1-3.53,3.22l-.52.42-.52.31-.52.41-12.15,6-10,3.12a102.94,102.94,0,0,1-10.17,2.38,101.08,101.08,0,0,1-10.39,1.77c-3.46.55-6.93,1-10.39,1.25q-6.75.61-10.49.72l-2.91.11-.31.1-17.66-.1q-5.4-.1-10.49-.63c-3.46-.27-6.92-.69-10.39-1.24l-9.66-1.66-.72-.21q-4.79-.93-10.08-2.39-6.33-2-10-3.32a89.53,89.53,0,0,1-9.45-4.26,78.53,78.53,0,0,1-8.52-5.3v.41l-.31-.62.31.21Z"/></g><path id="Duplicate_Items_Folder_Symbol_41_copy_17_0_Layer3_0_1_STROKES" data-name="Duplicate Items Folder Symbol 41 copy 17 0 Layer3 0 1 STROKES" class="cls-16" d="M370.7,672.34q-2.7,2.6-11.42,7.07a132,132,0,0,1-28,10.38q-46.64,12-98-4.77a92.26,92.26,0,0,1-14-6.13,46.26,46.26,0,0,1-6.86-4.26l-1,11.32q7.59,6.54,21.29,11.12a149.89,149.89,0,0,0,28.78,6.33q48.4,6,82.89-4.57,20.15-6.12,26.69-13.09l1-1Z"/><g id="Duplicate_Items_Folder_Symbol_18_copy_21_0_Layer0_0_MEMBER_0_MEMBER_0_FILL" data-name="Duplicate Items Folder Symbol 18 copy 21 0 Layer0 0 MEMBER 0 MEMBER 0 FILL"><path class="cls-17" d="M289.47,599a17.57,17.57,0,0,0-7.89-12.47q-7-4.45-14.34.11a21.63,21.63,0,0,0-9.14,11.63,30.43,30.43,0,0,0-1.45,15.38,21.74,21.74,0,0,0,4.88,11.53,15.29,15.29,0,0,0,5.09,3.84,11.11,11.11,0,0,0,6.23,1,14,14,0,0,0,6.76-2.81,23.62,23.62,0,0,0,8.72-12.57A32.3,32.3,0,0,0,289.47,599m-11.63-3.32a10.43,10.43,0,0,1,4.78,7.47,20.25,20.25,0,0,1-.73,9.35A14.13,14.13,0,0,1,276.7,620a9.16,9.16,0,0,1-4.05,1.77,7.92,7.92,0,0,1-6.76-2.91,12.9,12.9,0,0,1-2.9-7,16.94,16.94,0,0,1,.83-9.14,13.83,13.83,0,0,1,5.5-7.06A7.36,7.36,0,0,1,277.84,595.69Z"/></g><g id="Duplicate_Items_Folder_Symbol_18_copy_21_0_Layer0_0_MEMBER_1_FILL" data-name="Duplicate Items Folder Symbol 18 copy 21 0 Layer0 0 MEMBER 1 FILL"><path class="cls-18" d="M267.87,606.28q-2.3-.21-12.67.1-8.41.32-9.77-.52t-.31-19.73l1.45-18.8q-6.75-3.12-14,.62L231.2,616q0,4.58,11.11,5.3a169.14,169.14,0,0,0,21.4-.73q9.26-.72,9.56-7.27T267.87,606.28Z"/></g><g id="Duplicate_Items_Folder_Symbol_18_copy_21_0_Layer0_0_MEMBER_2_FILL" data-name="Duplicate Items Folder Symbol 18 copy 21 0 Layer0 0 MEMBER 2 FILL"><path class="cls-18" d="M319.28,597.87q9.47-20.48,11-23.69c-.14-1.94-1.53-3.49-4.16-4.67s-4.92-1.21-6.86-.1q-2.17,4.46-15.78,37.08-9.87-33.66-12.26-39.68-2.81-1.87-6.86-.31t-4.46,4.36q1.24,3,7.89,24.51,6.54,21.09,7.9,24.21A7,7,0,0,0,299,622.9a9.21,9.21,0,0,0,4.05.73,4.46,4.46,0,0,0,3.95-2v.11Q309.94,617.71,319.28,597.87Z"/></g><g id="Duplicate_Items_Folder_Symbol_18_copy_21_0_Layer0_0_MEMBER_3_MEMBER_0_FILL" data-name="Duplicate Items Folder Symbol 18 copy 21 0 Layer0 0 MEMBER 3 MEMBER 0 FILL"><path class="cls-17" d="M327.08,608.36l-.32-1a63.24,63.24,0,0,0,10.49-5.3q4.78-3.12,6.55-6.13a6,6,0,0,0,.83-5.29,4.51,4.51,0,0,0-2.18-2.39,7.1,7.1,0,0,0-3.43-.83q-5-.11-11.22,3.53a24.34,24.34,0,0,0-7.16,7,16.09,16.09,0,0,0-3.12,9.86q.21,6,5.71,10.29a13,13,0,0,0,8.1,2.59,15.72,15.72,0,0,0,9.25-3.42q3.53-2.7,8.62-10.18l-.73-2.08c-1.94,1.8-3.63,3.29-5.09,4.47a21.6,21.6,0,0,1-4.46,2.7,14.65,14.65,0,0,1-4.89,1.14,7.47,7.47,0,0,1-4.25-1.25,6.9,6.9,0,0,1-2.7-3.63m2.8-12a14.64,14.64,0,0,1,3.32-2.59,5.5,5.5,0,0,1,2.7-1,1.14,1.14,0,0,1,1.35.83,4.36,4.36,0,0,1-.62,2.91,12.94,12.94,0,0,1-3.53,4.25,21.73,21.73,0,0,1-6.65,3.85,7.82,7.82,0,0,1,.73-4.57A14.06,14.06,0,0,1,329.88,596.41Z"/></g><g id="Duplicate_Items_Folder_Symbol_41_copy_17_0_Layer1_0_STROKES_1_FILL" data-name="Duplicate Items Folder Symbol 41 copy 17 0 Layer1 0 STROKES 1 FILL"><path class="cls-15" d="M342.66,508.43l-.21.31L340.16,511a42.32,42.32,0,0,1-4.15,3.43l-5.92,3.94a67.35,67.35,0,0,1-7.59,3.74,83.83,83.83,0,0,1-8.72,3.43L309.11,527a34,34,0,0,1-5,1.24l-5.09.83a41.37,41.37,0,0,1-5.19.31h-2.91l-.11-.1H290l-9-.83-13.09-2.81-11.12-4.15a53.37,53.37,0,0,1-6.23-3.22L242,512.48l-.31.31,8.42,6a60.74,60.74,0,0,0,6.33,3.43l6.75,2.91,9,2.7,1.14.2c3.47.77,6.82,1.35,10.08,1.77l6.44.52h.93l.11.1h3c1.18,0,2.91-.1,5.19-.31l6.44-1.14.63-.21h.31l2.18-.62.62-.11,4.78-1.55a89,89,0,0,0,8.83-3.54A61.4,61.4,0,0,0,330.4,519a54.51,54.51,0,0,0,6-4,38.68,38.68,0,0,0,4.16-3.64l2.18-2.28.21-.32.83-.93-.31-.31Z"/></g><g id="Duplicate_Items_Folder_Symbol_41_copy_17_0_Layer0_0_STROKES_1_FILL" data-name="Duplicate Items Folder Symbol 41 copy 17 0 Layer0 0 STROKES 1 FILL"><path class="cls-15" d="M337.67,502.72l-.31-.31-4.88,3.53-12.05,6.13-5.3,1.87-1.45.31-.42.21-10.18,1.76-2.18.21h-.52l-.52.1-7.27.11-.31-.11-8.52-.52-.52-.1h-.52l-6.13-.83-.93-.21-1-.1-12.88-3.33-.42-.2-8.62-3.54-2.8-1.45-.11.31,3.43,2,7.48,3.32.42.1,6.85,2.18L283.14,517h.52l8.93.62.21.11,11.42-.52,9.77-2,1.35-.41a28.06,28.06,0,0,0,3.74-1.25l6.44-2.8a49.2,49.2,0,0,0,5.19-2.91l.52-.42,1.56-.93,3.63-2.7.42-.42Z"/></g><g id="Duplicate_Items_Folder_Symbol_1_copy_9_0_Layer0_0_MEMBER_0_FILL" data-name="Duplicate Items Folder Symbol 1 copy 9 0 Layer0 0 MEMBER 0 FILL"><path class="cls-19" d="M425.94,114.45a137.51,137.51,0,0,1,23.65-27.06q12.21-10.9,33.67-24.22,28.67-17.73,34.54-21.94a162.14,162.14,0,0,0,18.53-15.12A115.15,115.15,0,0,0,552.28,7.3a28.53,28.53,0,0,1,4.05-5A7.41,7.41,0,0,1,561.79,0a7.52,7.52,0,0,1,4.7,2.36,21.54,21.54,0,0,1,3.32,4.55q16.08,27.57,22,63.38,6.21,37-.47,70.74-.68,3.36-1.66,7.39a136.68,136.68,0,0,1-14,35.51,107.54,107.54,0,0,1-23.83,28.94q-10.2,8.63-25.94,16.21-2.71,1.29-28.22,12.22-17.1,7.33-27.23,13.87a85.32,85.32,0,0,0-22.85,21l-3.16-.76a87.37,87.37,0,0,1-8.34-2.7,93.06,93.06,0,0,1-24.92-14q-11.14-8.81-11.73-23.93a42.31,42.31,0,0,1,.68-9.56l.95-3.82q6.51-13.12,7.4-36.6.33-12.65.67-18.92a112.4,112.4,0,0,1,2.39-18.64A101,101,0,0,1,425.94,114.45Z"/></g><g id="Duplicate_Items_Folder_Symbol_1_copy_9_0_Layer0_0_MEMBER_1_MEMBER_0_MEMBER_0_MEMBER_0_FILL" data-name="Duplicate Items Folder Symbol 1 copy 9 0 Layer0 0 MEMBER 1 MEMBER 0 MEMBER 0 MEMBER 0 FILL"><path class="cls-19" d="M426.77,114a136.92,136.92,0,0,1,23.54-26.94Q462.48,76.19,483.84,63q28.55-17.65,34.4-21.84l-4.88,4.27q-20.37,18-31.57,33.76-14.35,20.11-17.39,40.93-1.57,10.63-.35,29.62,1.31,21.09.68,29.71-1,13.64-10.25,34-5.61,12.47-7.09,16.12a96.19,96.19,0,0,0-5.19,17.18,8.09,8.09,0,0,0-.05,3.13,2.46,2.46,0,0,0,1.59,2.12q7.75-9.22,21.81-15.51,4.49-2,12.84-5.1,9.6-3.53,13.47-5.14,4.92-2.05,27.53-9.68A149.14,149.14,0,0,0,546,205q13.75-8,26.65-24.93,13.07-17.19,16.6-32.34l.58.13A136,136,0,0,1,576,183.2,106.8,106.8,0,0,1,552.22,212q-10.14,8.59-25.82,16.14-2.71,1.29-28.11,12.17-17,7.29-27.11,13.81a85,85,0,0,0-22.74,20.93l-3.15-.76q-4-1.08-8.31-2.68a93.1,93.1,0,0,1-24.81-13.95q-11.1-8.77-11.68-23.83a41.91,41.91,0,0,1,.67-9.52l.95-3.81q6.48-13.07,7.37-36.44.33-12.6.66-18.84a112.54,112.54,0,0,1,2.39-18.56A100.42,100.42,0,0,1,426.77,114Z"/></g><g id="Duplicate_Items_Folder_Symbol_1_copy_9_0_Layer0_0_MEMBER_1_MEMBER_0_MEMBER_0_MEMBER_1_FILL" data-name="Duplicate Items Folder Symbol 1 copy 9 0 Layer0 0 MEMBER 1 MEMBER 0 MEMBER 0 MEMBER 1 FILL"><path class="cls-20" d="M513.36,45.38l4.88-4.27a162.35,162.35,0,0,0,18.44-15.06A114.17,114.17,0,0,0,552.56,7.32a29.16,29.16,0,0,1,4-5A7.41,7.41,0,0,1,562,.06a7.53,7.53,0,0,1,4.69,2.35A22,22,0,0,1,570,6.94q16,27.45,22,63.11,6.18,36.81-.47,70.44l-.51-.06A219.63,219.63,0,0,0,576.7,55.05q-1.51-3.9-2.61-6.13a29,29,0,0,0-3.56-5.55,25,25,0,0,0-12.75-8,36.18,36.18,0,0,0-15.47-1,60.78,60.78,0,0,0-14.71,4.44q-4.7,2-13.88,6.93Z"/></g><g id="Duplicate_Items_Folder_Symbol_1_copy_9_0_Layer0_0_MEMBER_1_MEMBER_0_MEMBER_0_MEMBER_2_FILL" data-name="Duplicate Items Folder Symbol 1 copy 9 0 Layer0 0 MEMBER 1 MEMBER 0 MEMBER 0 MEMBER 2 FILL"><path class="cls-21" d="M513.72,45.76q9.19-4.92,13.88-6.93a60.78,60.78,0,0,1,14.71-4.44,36.18,36.18,0,0,1,15.47,1,25,25,0,0,1,12.75,8,29,29,0,0,1,3.56,5.55q1.1,2.23,2.61,6.13A219.63,219.63,0,0,1,591,140.43l.51.06q-.68,3.34-1.66,7.36l-.58-.13q-3.53,15.15-16.6,32.34Q559.78,197,546,205a149.14,149.14,0,0,1-26.62,11.53q-22.62,7.64-27.53,9.68-3.87,1.61-13.47,5.14-8.36,3.09-12.84,5.1Q451.5,242.73,443.74,252a2.46,2.46,0,0,1-1.59-2.12,8.09,8.09,0,0,1,.05-3.13,96.19,96.19,0,0,1,5.19-17.18q1.47-3.65,7.09-16.12,9.25-20.37,10.25-34,.61-8.62-.68-29.71-1.21-19,.35-29.62,3-20.82,17.39-40.93Q493,63.37,513.36,45.38Z"/></g><g id="Duplicate_Items_Folder_Symbol_1_copy_9_0_Layer0_0_MEMBER_1_MEMBER_0_MEMBER_0_MEMBER_3_FILL" data-name="Duplicate Items Folder Symbol 1 copy 9 0 Layer0 0 MEMBER 1 MEMBER 0 MEMBER 0 MEMBER 3 FILL"><path class="cls-22" d="M560.44,119.94q-5.12,25.42-11.09,40.39-8.55,21.48-22.47,33.92a52.23,52.23,0,0,0,10.9-9.26,54.39,54.39,0,0,0,8.09-11.81,101,101,0,0,1-11,22,53.36,53.36,0,0,0,14-11.21,55.77,55.77,0,0,0,7.73-11.11,75.47,75.47,0,0,1-7.94,12.72A127.53,127.53,0,0,1,535.42,200a71.31,71.31,0,0,0,31-12.26Q556.16,199.06,546,205a149.14,149.14,0,0,1-26.62,11.53q-22.62,7.64-27.53,9.68-3.87,1.61-13.47,5.14-8.36,3.09-12.84,5.1Q451.5,242.73,443.74,252a2.46,2.46,0,0,1-1.59-2.12,8.09,8.09,0,0,1,.05-3.13,96.19,96.19,0,0,1,5.19-17.18q1.47-3.65,7.09-16.12,9.25-20.37,10.25-34A113,113,0,0,0,465,168a97.33,97.33,0,0,1,.09,39.21,73.86,73.86,0,0,0,7.6-21.37L472.26,208a91.67,91.67,0,0,0,21.84-79.81,133,133,0,0,1,6.76,34.44,130.7,130.7,0,0,1-2.48,35,59,59,0,0,0,8.67-11.69,57.71,57.71,0,0,0,5.52-13.42q-2.22,11-5.69,22.83a200.77,200.77,0,0,0,53.56-75.41Z"/></g><g id="Duplicate_Items_Folder_Symbol_1_copy_9_0_Layer0_0_MEMBER_1_MEMBER_0_MEMBER_0_MEMBER_4_MEMBER_0_MEMBER_0_FILL" data-name="Duplicate Items Folder Symbol 1 copy 9 0 Layer0 0 MEMBER 1 MEMBER 0 MEMBER 0 MEMBER 4 MEMBER 0 MEMBER 0 FILL"><path class="cls-23" d="M513.66,45.29l-6.24,6.05q-9.09,9-16,17.38c-1.08,1.27-2.69,3.32-4.83,6.13l-2.41,3.4c-.65.84-1.45,2-2.4,3.52a106.12,106.12,0,0,0-8.9,16.3A84.33,84.33,0,0,0,467,117.49a106.11,106.11,0,0,0-1.23,21.88c.09,2.69.28,6.43.56,11.24q.5,7.66.61,11a120.48,120.48,0,0,1-.65,21,81.62,81.62,0,0,1-5,18.43q-1.89,4.84-6.8,15t-5.68,12.21q-.68,1.5-2.13,5.1l-4,12.7.43-2.21c.16-1,.33-1.89.52-2.66l.87-3.64,3.2-9.74q1.68-4.41,5.15-12.54,4.56-10.78,6.08-15.11a79.51,79.51,0,0,0,4.3-17.93,120.26,120.26,0,0,0,.23-20.44q-1.05-14.6-1.32-22.3a104.25,104.25,0,0,1,1.42-22.58,84.9,84.9,0,0,1,6.5-20.1,98.83,98.83,0,0,1,9.62-16.41c.92-1.34,1.78-2.51,2.57-3.53l2.58-3.32c3-3.54,4.77-5.54,5.18-6a201.69,201.69,0,0,1,17-16.65q1.23-1.12,4.88-4.17Z"/></g><g id="Duplicate_Items_Folder_Symbol_1_copy_9_0_Layer0_0_MEMBER_0_FILL-2" data-name="Duplicate Items Folder Symbol 1 copy 9 0 Layer0 0 MEMBER 0 FILL"><path class="cls-19" d="M169,115.59a137.51,137.51,0,0,0-23.65-27.06q-12.21-10.9-33.67-24.22Q83,46.58,77.14,42.37A164.08,164.08,0,0,1,58.61,27.26a115.22,115.22,0,0,1-16-18.82,28.11,28.11,0,0,0-4-5,7.47,7.47,0,0,0-5.47-2.25,7.54,7.54,0,0,0-4.7,2.36,21.54,21.54,0,0,0-3.31,4.55Q9.06,35.63,3.09,71.45q-6.19,37,.47,70.74c.45,2.23,1,4.7,1.66,7.38a137.25,137.25,0,0,0,14,35.51A107.23,107.23,0,0,0,43,214q10.18,8.64,25.93,16.21,2.73,1.31,28.23,12.22,17.08,7.34,27.22,13.87a85.49,85.49,0,0,1,22.85,21l3.16-.76c2.7-.72,5.49-1.62,8.35-2.69a92.91,92.91,0,0,0,24.91-14q11.16-8.81,11.74-23.92a42.36,42.36,0,0,0-.69-9.57l-.94-3.82q-6.53-13.12-7.41-36.59Q186,173.31,185.7,167a113.52,113.52,0,0,0-2.4-18.64A100.75,100.75,0,0,0,169,115.59Z"/></g><g id="Duplicate_Items_Folder_Symbol_1_copy_9_0_Layer0_0_MEMBER_1_MEMBER_0_MEMBER_0_MEMBER_0_FILL-2" data-name="Duplicate Items Folder Symbol 1 copy 9 0 Layer0 0 MEMBER 1 MEMBER 0 MEMBER 0 MEMBER 0 FILL"><path class="cls-19" d="M168.18,115.15a136.65,136.65,0,0,0-23.55-26.94Q132.47,77.35,111.1,64.09,82.57,46.45,76.71,42.25l4.87,4.27q20.39,18,31.58,33.77,14.34,20.1,17.38,40.92,1.58,10.64.35,29.62-1.29,21.09-.68,29.71,1,13.64,10.25,34,5.63,12.48,7.09,16.12a96.28,96.28,0,0,1,5.19,17.19,8.26,8.26,0,0,1,.06,3.12,2.44,2.44,0,0,1-1.6,2.12q-7.75-9.22-21.81-15.51-4.47-2-12.84-5.1-9.6-3.53-13.46-5.14-4.92-2-27.54-9.68a149.5,149.5,0,0,1-26.62-11.52q-13.76-8-26.65-24.93Q9.22,164,5.68,148.86L5.1,149A136.38,136.38,0,0,0,19,184.35a106.76,106.76,0,0,0,23.73,28.81q10.16,8.59,25.82,16.14,2.71,1.29,28.11,12.17,17,7.31,27.11,13.81a85.21,85.21,0,0,1,22.75,20.93l3.14-.75q4-1.08,8.31-2.69a92.79,92.79,0,0,0,24.81-13.95Q193.89,250,194.46,235a41.92,41.92,0,0,0-.68-9.52l-.94-3.8q-6.5-13.08-7.38-36.44-.33-12.6-.66-18.85a111.62,111.62,0,0,0-2.39-18.56A100.61,100.61,0,0,0,168.18,115.15Z"/></g><g id="Duplicate_Items_Folder_Symbol_1_copy_9_0_Layer0_0_MEMBER_1_MEMBER_0_MEMBER_0_MEMBER_1_FILL-2" data-name="Duplicate Items Folder Symbol 1 copy 9 0 Layer0 0 MEMBER 1 MEMBER 0 MEMBER 0 MEMBER 1 FILL"><path class="cls-20" d="M81.58,46.52l-4.87-4.27a162.67,162.67,0,0,1-18.45-15A114.23,114.23,0,0,1,42.38,8.46a28.69,28.69,0,0,0-4-5A7.43,7.43,0,0,0,32.91,1.2a7.51,7.51,0,0,0-4.68,2.35,21.1,21.1,0,0,0-3.3,4.54Q8.91,35.53,3,71.2q-6.18,36.8.46,70.43l.51-.06A219.63,219.63,0,0,1,18.24,56.19q1.52-3.9,2.61-6.13a28.57,28.57,0,0,1,3.57-5.55,25,25,0,0,1,12.74-8,36.18,36.18,0,0,1,15.47-.94A60.2,60.2,0,0,1,67.34,40Q72,42,81.22,46.9Z"/></g><g id="Duplicate_Items_Folder_Symbol_1_copy_9_0_Layer0_0_MEMBER_1_MEMBER_0_MEMBER_0_MEMBER_2_FILL-2" data-name="Duplicate Items Folder Symbol 1 copy 9 0 Layer0 0 MEMBER 1 MEMBER 0 MEMBER 0 MEMBER 2 FILL"><path class="cls-24" d="M81.22,46.9Q72,42,67.34,40a60.2,60.2,0,0,0-14.71-4.44,36.18,36.18,0,0,0-15.47.94,25,25,0,0,0-12.74,8,28.57,28.57,0,0,0-3.57,5.55q-1.09,2.23-2.61,6.13A219.63,219.63,0,0,0,4,141.57l-.51.06Q4.12,145,5.1,149l.58-.13Q9.22,164,22.28,181.21q12.9,17,26.65,24.93a149.5,149.5,0,0,0,26.62,11.52q22.62,7.64,27.54,9.68,3.87,1.6,13.46,5.14,8.37,3.09,12.84,5.1,14.06,6.28,21.81,15.51a2.44,2.44,0,0,0,1.6-2.12,8.26,8.26,0,0,0-.06-3.12,96.28,96.28,0,0,0-5.19-17.19q-1.47-3.65-7.09-16.12-9.26-20.37-10.25-34-.61-8.62.68-29.71,1.23-19-.35-29.62-3-20.82-17.38-40.92Q102,64.51,81.58,46.52Z"/></g><g id="Duplicate_Items_Folder_Symbol_1_copy_9_0_Layer0_0_MEMBER_1_MEMBER_0_MEMBER_0_MEMBER_3_FILL-2" data-name="Duplicate Items Folder Symbol 1 copy 9 0 Layer0 0 MEMBER 1 MEMBER 0 MEMBER 0 MEMBER 3 FILL"><path class="cls-25" d="M34.51,121.08q5.12,25.42,11.09,40.4,8.53,21.47,22.46,33.92a52.52,52.52,0,0,1-10.89-9.26,54.38,54.38,0,0,1-8.1-11.82,101.71,101.71,0,0,0,11,22,53.56,53.56,0,0,1-14-11.21A55.59,55.59,0,0,1,38.34,174a74.76,74.76,0,0,0,7.93,12.72,127.67,127.67,0,0,0,13.26,14.37,71.4,71.4,0,0,1-31-12.25q10.22,11.35,20.36,17.3a149.5,149.5,0,0,0,26.62,11.52q22.62,7.64,27.54,9.68,3.87,1.6,13.46,5.14,8.37,3.09,12.84,5.1,14.06,6.28,21.81,15.51a2.44,2.44,0,0,0,1.6-2.12,8.26,8.26,0,0,0-.06-3.12,96.28,96.28,0,0,0-5.19-17.19q-1.47-3.65-7.09-16.12-9.26-20.37-10.25-34a113,113,0,0,1-.22-11.45,97.33,97.33,0,0,0-.09,39.21,73.75,73.75,0,0,1-7.6-21.37l.39,22.25a91.63,91.63,0,0,1-21.85-79.81,133.52,133.52,0,0,0-6.76,34.45,131.48,131.48,0,0,0,2.48,35,59,59,0,0,1-8.67-11.69,57.63,57.63,0,0,1-5.52-13.41q2.22,11,5.7,22.82a200.77,200.77,0,0,1-53.56-75.41Z"/></g><g id="Duplicate_Items_Folder_Symbol_1_copy_9_0_Layer0_0_MEMBER_1_MEMBER_0_MEMBER_0_MEMBER_4_MEMBER_0_MEMBER_0_FILL-2" data-name="Duplicate Items Folder Symbol 1 copy 9 0 Layer0 0 MEMBER 1 MEMBER 0 MEMBER 0 MEMBER 4 MEMBER 0 MEMBER 0 FILL"><path class="cls-23" d="M81.28,46.43l6.24,6q9.09,9,16,17.38c1.09,1.28,2.7,3.32,4.83,6.14l2.42,3.39c.64.85,1.44,2,2.4,3.53a106.43,106.43,0,0,1,8.9,16.29,84.23,84.23,0,0,1,5.83,19.43,106.06,106.06,0,0,1,1.23,21.88c-.09,2.68-.28,6.43-.56,11.23q-.49,7.67-.61,11a120.21,120.21,0,0,0,.66,21,81.43,81.43,0,0,0,5,18.43q1.91,4.85,6.8,15t5.68,12.2q.68,1.51,2.13,5.1l4,12.71-.43-2.21c-.15-1-.33-1.9-.52-2.67l-.86-3.64-3.21-9.74q-1.68-4.41-5.14-12.53-4.56-10.8-6.09-15.12a79.92,79.92,0,0,1-4.3-17.93,121.31,121.31,0,0,1-.23-20.44q1-14.59,1.33-22.3A104.09,104.09,0,0,0,131.36,118a84.83,84.83,0,0,0-6.5-20.11,99.55,99.55,0,0,0-9.61-16.41q-1.4-2-2.58-3.53l-2.57-3.31c-3-3.55-4.77-5.54-5.19-6a203,203,0,0,0-17-16.65Q86.67,50.93,83,47.88Z"/></g><g id="Duplicate_Items_Folder_Symbol_4_copy_35_0_Layer0_0_FILL" data-name="Duplicate Items Folder Symbol 4 copy 35 0 Layer0 0 FILL"><path class="cls-26" d="M228.08,198.89q-6.12-45.7-30.53-90.16Q177.5,72.06,163.16,63.44q-9-5.5-11.21,1.14a16.52,16.52,0,0,0-.32,7.69,375,375,0,0,1,30.23,66q13.71,39.36,15.37,70.42,11.11,4.26,22.13-2.28A31.3,31.3,0,0,0,228.08,198.89Z"/></g><g id="Duplicate_Items_Folder_Symbol_4_copy_35_0_Layer0_1_MEMBER_0_FILL" data-name="Duplicate Items Folder Symbol 4 copy 35 0 Layer0 1 MEMBER 0 FILL"><path class="cls-26" d="M136.36,126.28l.63.63q14.64,16.31,29.08,25.13,16.2,10.19,40.82,16.73l-3.74-20.88q-7.26-.93-18.28-5.09A138.29,138.29,0,0,1,144,118.7c-2.57-2.15-5-2-7.38.31S134.15,123.79,136.36,126.28Z"/></g><g id="Duplicate_Items_Folder_Symbol_4_copy_35_0_Layer0_1_MEMBER_1_FILL" data-name="Duplicate Items Folder Symbol 4 copy 35 0 Layer0 1 MEMBER 1 FILL"><path class="cls-26" d="M205.65,72.48a94.54,94.54,0,0,0-.63-21.4q-1.86-6.64-5.29-9.14c-1.94-1.53-3.64-1.66-5.09-.42A9.86,9.86,0,0,0,191.73,50a63,63,0,0,1-7.38,37.29,46.3,46.3,0,0,1-9.66,12.88l17.56,19.63A113.32,113.32,0,0,0,205.65,72.48Z"/></g><g id="Duplicate_Items_Folder_Symbol_6_copy_23_0_Layer0_0_FILL" data-name="Duplicate Items Folder Symbol 6 copy 23 0 Layer0 0 FILL"><path class="cls-26" d="M421.29,72.27a16.66,16.66,0,0,0-.31-7.69q-2.19-6.64-11.22-1.14-14.34,8.63-34.49,45.29-24.3,44.46-30.43,90.16l8.72,7.48q11,6.54,22.13,2.28,1.67-31.05,15.37-70.42A375.75,375.75,0,0,1,421.29,72.27Z"/></g><g id="Duplicate_Items_Folder_Symbol_6_copy_23_0_Layer0_1_FILL" data-name="Duplicate Items Folder Symbol 6 copy 23 0 Layer0 1 FILL"><path class="cls-26" d="M366,168.77q24.51-6.56,40.82-16.73,14.44-8.92,29.08-25.13l.52-.63q3.33-3.73-.1-7.27T429,118.7a138.29,138.29,0,0,1-40.92,24.1l-18.28,5.09Z"/></g><g id="Duplicate_Items_Folder_Symbol_6_copy_23_0_Layer0_2_FILL" data-name="Duplicate Items Folder Symbol 6 copy 23 0 Layer0 2 FILL"><path class="cls-26" d="M367.27,57a117.53,117.53,0,0,0,0,15.48,113.32,113.32,0,0,0,13.4,47.36l17.56-19.63a49.18,49.18,0,0,1-9.66-12.88A63.11,63.11,0,0,1,381.19,50a9.58,9.58,0,0,0-3-8.52c-1.38-1.24-3.08-1.11-5.09.42-2.28,1.73-4,4.78-5.19,9.14Z"/></g><g id="Duplicate_Items_Folder_Symbol_14_copy_22_0_Layer0_0_FILL" data-name="Duplicate Items Folder Symbol 14 copy 22 0 Layer0 0 FILL"><path class="cls-12" d="M399.68,195.57a115.22,115.22,0,0,0-21.08-11.22A137.06,137.06,0,0,0,351,176.87q-10.29-1-10.39-1.25a93.82,93.82,0,0,1,1-22.23,37.64,37.64,0,0,1,4.05-12q-13.5,3.54-26.18,16.62l-10,12.37A80.46,80.46,0,0,1,305.57,153q-1.24-10.8,1-16.93-11,1.45-24.82,14.44a96.32,96.32,0,0,0-23.58,34.59,53.5,53.5,0,0,1,1.24-25.25q2-7,8.94-20.15-13.92,9.36-20.26,18.91-4.77,7.28-9.66,22.85l-4.36,1.77Q193.49,196.5,165.34,230q-29.49,35.1-30.43,76.14-.32,13.29,5.82,36.46,6.54,25.23,7.16,36.14l-3,2.29a27.67,27.67,0,0,0-6,6q-7.91,10.61-2,25.45a13.73,13.73,0,0,1,6-9.86q5.09-3.64,5.61-2.08Q155,417.64,177.19,426q12.36,4.56,34.69,8.83,33.76,9.13,78,9.66a391.15,391.15,0,0,0,82.89-7.27q34.91-7,45.81-10.7,26.18-9,34.28-25.35.61-1.25,4.57,2.18a22.71,22.71,0,0,1,6.33,10q6.35-16-.62-27.11a24,24,0,0,0-5.51-6,27.87,27.87,0,0,1-2.8-2.08q-.1-2.7,2.7-12.46,3.84-13.61,5.5-21,7-32.19,1-59.83a132.82,132.82,0,0,0-16.72-41.34A140.45,140.45,0,0,0,418.9,209.8,169.6,169.6,0,0,0,399.68,195.57Z"/></g><g id="Duplicate_Items_Folder_Symbol_14_copy_22_0_Layer0_1_MEMBER_0_MEMBER_0_FILL" data-name="Duplicate Items Folder Symbol 14 copy 22 0 Layer0 1 MEMBER 0 MEMBER 0 FILL"><path class="cls-27" d="M355.12,178.12l-1.87-.21,7.27,1.45a107.21,107.21,0,0,1,18.8,6.65,153.21,153.21,0,0,1,52.36,39,136.6,136.6,0,0,1,20,29.81,134.82,134.82,0,0,1,10.18,27.74q.74,2.91,2.29,11.22L466,309.62l-.52-16q-.93-7.89-1.66-11.42a124,124,0,0,0-9-28.78,131.6,131.6,0,0,0-20.16-31,138.58,138.58,0,0,0-54.43-38.13,112,112,0,0,0-19.52-5.5C357.44,178.32,355.61,178.12,355.12,178.12Z"/></g><g id="Duplicate_Items_Folder_Symbol_14_copy_22_0_Layer0_2_MEMBER_0_MEMBER_0_FILL" data-name="Duplicate Items Folder Symbol 14 copy 22 0 Layer0 2 MEMBER 0 MEMBER 0 FILL"><path class="cls-27" d="M339.44,142.38l-2.39.94a62.44,62.44,0,0,0-14.75,9.55,70.78,70.78,0,0,0-9.56,10.6,75.55,75.55,0,0,0-4.88,8.21l-1.46,3.11,2-2.8a61.8,61.8,0,0,1,5.92-7.27,73,73,0,0,1,24.31-17.87l3.32-1.35.41-.21v.21l-1,3.53a50,50,0,0,0-1.15,6.86,79.84,79.84,0,0,0-.2,11.42l.41,7.27c.14,1.11.35,1.7.62,1.77l.42.21a1.14,1.14,0,0,1-.31-.31,1.42,1.42,0,0,1-.21-1.67l.52-7.27q.72-7.47,1.45-11a58.37,58.37,0,0,1,1.56-6.44l.94-2.49.1-.42.31-.52c.49-1,1.66-3.28,3.53-7Z"/></g><g id="Duplicate_Items_Folder_Symbol_14_copy_22_0_Layer0_3_MEMBER_0_MEMBER_0_FILL" data-name="Duplicate Items Folder Symbol 14 copy 22 0 Layer0 3 MEMBER 0 MEMBER 0 FILL"><path class="cls-27" d="M304.85,138.54l-.21,1.14-.42,7a47.44,47.44,0,0,0,.73,8.1,55.4,55.4,0,0,0,2.8,11.33l1.56,4.05-.93-4.16a72.84,72.84,0,0,1-1.56-11.42,71.13,71.13,0,0,1,0-7.79l.52-4.26,2.18-9.87-10.28,4a47,47,0,0,0-4.78,2.6,37,37,0,0,0-4.78,3.11,86.24,86.24,0,0,0-25.45,28.88,66.35,66.35,0,0,0-4.78,10.6l-1,4.15.31-1,1.35-2.8a59.16,59.16,0,0,1,5.81-9.87A110.39,110.39,0,0,1,292,145.5c2.35-1.66,3.84-2.67,4.46-3a42.41,42.41,0,0,1,4.47-2.6l2.28-1.14,1.15-.42.2-.1v-.11l.32-.1Z"/></g><g id="Duplicate_Items_Folder_Symbol_14_copy_22_0_Layer0_4_MEMBER_0_MEMBER_0_FILL" data-name="Duplicate Items Folder Symbol 14 copy 22 0 Layer0 4 MEMBER 0 MEMBER 0 FILL"><path class="cls-27" d="M241.69,165.65a65.7,65.7,0,0,0-4.05,10.08l-1.45,5.19h-.11c0,.07,0,.1-.1.1l-3.43,1-21.5,9.46a153.89,153.89,0,0,0-40.41,30.22,131.7,131.7,0,0,0-23.78,33.66q-5.1,10.07-9.56,26.07l-1.87,10,2.49-9.87a144,144,0,0,1,10.6-25.24A141.92,141.92,0,0,1,172.93,224a160.52,160.52,0,0,1,39.88-29.19l13.09-6.23,12.36-4.47a1.08,1.08,0,0,0,1-.62c.14-.63.24-1.08.31-1.35l1.46-5.4a75,75,0,0,1,3.63-9.66,55.91,55.91,0,0,1,10.91-15.59q1.56-1.54,6.44-5.71l2-1.56.42-.2.1-.11-2.49,5.92a88.44,88.44,0,0,0-3,8.94,50.24,50.24,0,0,0-1.87,7.89,33.39,33.39,0,0,0-.31,6.86,92.11,92.11,0,0,0,.93,9.34l.63,3.12-.42-3.22a73.84,73.84,0,0,1-.42-9.24,39.17,39.17,0,0,1,.63-6.65,57.71,57.71,0,0,1,2.18-7.69,83.7,83.7,0,0,1,3.32-8.72l7-13.4c-.07-.07-.38.1-.93.52l-9.14,6.12a64.13,64.13,0,0,0-7,5.82A53.91,53.91,0,0,0,241.69,165.65Z"/></g><g id="Duplicate_Items_Folder_Symbol_16_copy_9_0_Layer0_0_MEMBER_0_FILL" data-name="Duplicate Items Folder Symbol 16 copy 9 0 Layer0 0 MEMBER 0 FILL"><path class="cls-13" d="M251.14,215.72q3-5.5.84-8.73-2-2.81-6.65-2.8a12.38,12.38,0,0,0-8,2.49,8.3,8.3,0,0,0-3.74,7.38q.42,5,3.22,7.06a6.78,6.78,0,0,0,6.34,1.25,7.24,7.24,0,0,0,2-.63A14,14,0,0,0,251.14,215.72Z"/></g><g id="Duplicate_Items_Folder_Symbol_16_copy_9_0_Layer0_0_MEMBER_1_FILL" data-name="Duplicate Items Folder Symbol 16 copy 9 0 Layer0 0 MEMBER 1 FILL"><path class="cls-13" d="M314.09,199.83a14.09,14.09,0,0,0-13,.31q-7,3.42-7,10.38a22.81,22.81,0,0,0,1.24,6.24c1.11,3.11,2.7,5,4.78,5.71a8.65,8.65,0,0,0,3.85.21l.62-.11q7.78-1.35,12.67-9.76Q322.6,203.77,314.09,199.83Z"/></g><g id="Duplicate_Items_Folder_Symbol_16_copy_9_0_Layer0_0_MEMBER_2_FILL" data-name="Duplicate Items Folder Symbol 16 copy 9 0 Layer0 0 MEMBER 2 FILL"><path class="cls-13" d="M266.62,228c-2.84,1.67-4.4,3.88-4.67,6.65a4.09,4.09,0,0,0,.93,3.33,3.23,3.23,0,0,0,1.66.83c2.5.76,5,0,7.59-2.29s3.25-4.81,1.66-7.16Q271.09,225.37,266.62,228Z"/></g><g id="Duplicate_Items_Folder_Symbol_16_copy_9_0_Layer0_0_MEMBER_3_FILL" data-name="Duplicate Items Folder Symbol 16 copy 9 0 Layer0 0 MEMBER 3 FILL"><path class="cls-13" d="M226.84,246.36a19.45,19.45,0,0,0-1.35,4.78,8.78,8.78,0,0,0,.31,7.58,6.1,6.1,0,0,0,6.75,3.12,10.58,10.58,0,0,0,6.54-4.16,12.4,12.4,0,0,0,3-6.44,8.45,8.45,0,0,0-1.46-6.23,8,8,0,0,0-5.19-3.64,6.14,6.14,0,0,0-2.7,0c-.14.21-.14.32,0,.32l.93.2-1.14.21a4.29,4.29,0,0,0-3.84,1.35A11.69,11.69,0,0,0,226.84,246.36Z"/></g><g id="Duplicate_Items_Folder_Symbol_16_copy_9_0_Layer0_0_MEMBER_4_FILL" data-name="Duplicate Items Folder Symbol 16 copy 9 0 Layer0 0 MEMBER 4 FILL"><path class="cls-13" d="M354.29,210a1.38,1.38,0,0,0-.1-1.35l-.52-.62a2,2,0,0,0-.73-.52l-.73-.31-.83-.1a2.71,2.71,0,0,0-1.24.1l-.52.1-.32.21a1,1,0,0,0-.62.63l-.31.93v.31l.21.73a2.67,2.67,0,0,0,.62,1.25l.62.41a3.76,3.76,0,0,0,1,.31,2.61,2.61,0,0,0,1.46-.62l.1-.21h.42l.41-.1.62-.31Z"/></g><g id="Duplicate_Items_Folder_Symbol_16_copy_9_0_Layer0_0_MEMBER_5_FILL" data-name="Duplicate Items Folder Symbol 16 copy 9 0 Layer0 0 MEMBER 5 FILL"><path class="cls-13" d="M325.93,235.45l-.31-.72-.1-.42-.42-.73a2.59,2.59,0,0,0-1.45-.62l-1.46.1-.52.11-.72.31-.31.42a.68.68,0,0,0-.32.62,2.08,2.08,0,0,0-.1,1.45,2.6,2.6,0,0,0,0,1h.1l.21.52v.11l.31.41.63.52.62.21h.1a3,3,0,0,0,1.56,0l.31-.21.63-.21a2.22,2.22,0,0,0,.93-.83A3,3,0,0,0,325.93,235.45Z"/></g><g id="Duplicate_Items_Folder_Symbol_16_copy_9_0_Layer0_0_MEMBER_6_FILL" data-name="Duplicate Items Folder Symbol 16 copy 9 0 Layer0 0 MEMBER 6 FILL"><path class="cls-13" d="M269.11,263.4a4.84,4.84,0,0,0-2.8-2.19,3.33,3.33,0,0,0-3.84.94,7.62,7.62,0,0,0-1.67,3l-.1.31-.83,1.25a3.63,3.63,0,0,0-.62,2.08,2.78,2.78,0,0,0-.52,2.8,3.07,3.07,0,0,0,.83,1.46,3.55,3.55,0,0,0,1.14.72,2.48,2.48,0,0,0,1.45.83,2.87,2.87,0,0,0,1.77-.31q.74-.62,1.14-.93l.73-.42h.1a4.07,4.07,0,0,0,2.5-2.18,7.55,7.55,0,0,0,.93-2.91l.21-.52A5.48,5.48,0,0,0,269.11,263.4Z"/></g><g id="Duplicate_Items_Folder_Symbol_16_copy_9_0_Layer0_0_MEMBER_7_FILL" data-name="Duplicate Items Folder Symbol 16 copy 9 0 Layer0 0 MEMBER 7 FILL"><path class="cls-13" d="M213.23,215.41l.1-.32a2,2,0,0,0-.31-1,2.78,2.78,0,0,0-1.56-1.56l-1.55-.42-1.15.11a4,4,0,0,0-1.87.93,3.07,3.07,0,0,0-1,1.77v.72l.2.63.31.41.52.31a2.82,2.82,0,0,0,1.35,1l1.25.21a2.19,2.19,0,0,0,1.14.1h.63a1.7,1.7,0,0,0,1.24-.51,1.57,1.57,0,0,0,.83-1,1.62,1.62,0,0,0,0-1.15Z"/></g><g id="Duplicate_Items_Folder_Symbol_9_copy_9_0_Layer5_0_FILL" data-name="Duplicate Items Folder Symbol 9 copy 9 0 Layer5 0 FILL"><path class="cls-28" d="M373,269q-18.28,7-29.09,25.25-11,18.58-17.34,59.62-2,13.29-4.06,28.77-1.35,8.94-2.59,9.56a23.83,23.83,0,0,1-5.92,3.11,45.25,45.25,0,0,1-17.45,3,58,58,0,0,1-17.45-2.08,68.6,68.6,0,0,1-7.9-3.43q-2.07-.93-8.83-38.85-6.75-37.19-19.63-59.52-10.38-18.27-28.25-25.34a44.57,44.57,0,0,0-36.88,1.45l-5,2.81q-11.33,7.17-18.18,20.56a84.33,84.33,0,0,0-7.9,26.6,133.06,133.06,0,0,0-.52,29.39q.53,5.93,2,14.13a50.76,50.76,0,0,1,.1,8.1c-.14,4.29-.31,6.48-.52,6.54a20.31,20.31,0,0,0-13,14.24,30.61,30.61,0,0,0,2.28,20.15q2.3-6.24,5.2-8.31a17.12,17.12,0,0,1,4.67-1.67q-5.19,3.86-4.26,16.11a15.42,15.42,0,0,1,7.9-7.59q-4.26,9.56-.73,18a5,5,0,0,1,1.87-3.84q1.14,5.61,7.06,14.13,3.12,4.46,7.48,9.76,6.65,8.52,18.91,17.14a224.82,224.82,0,0,0,21.91,13.4,184.5,184.5,0,0,0,58.9,20.05,203.68,203.68,0,0,0,62.22.41,242,242,0,0,0,38.43-8.72,172.51,172.51,0,0,0,39.47-18.18q20.26-12.89,32.41-30.23,7.17-10.18,9.77-17.66a16.19,16.19,0,0,1,.72,4.68c.7-2,1.15-3.29,1.35-3.85q2.8-10.06-1.87-16.93a16.12,16.12,0,0,1,7.8,6.23q.93-6.64-.73-10.59a18,18,0,0,0-3.22-4.36q1.25-.52,5.19,2.39a17.67,17.67,0,0,1,6.34,10,43.18,43.18,0,0,1,1.66-5.61,37.25,37.25,0,0,0,1.56-5.61,19.61,19.61,0,0,0,.31-4.88,24.44,24.44,0,0,0-1.35-5.51l-1.35-3.22a19.55,19.55,0,0,0-2.81-4.88,20.62,20.62,0,0,0-6.33-5.19A47.64,47.64,0,0,0,448,375a164.28,164.28,0,0,0,1.25-26.18q-.72-31-14-54.33-9.87-17.13-24.41-23.89Q392,261.85,373,269Z"/></g><g id="Duplicate_Items_Folder_Symbol_12_copy_13_0_Layer0_0_MEMBER_0_MEMBER_0_FILL" data-name="Duplicate Items Folder Symbol 12 copy 13 0 Layer0 0 MEMBER 0 MEMBER 0 FILL"><path class="cls-29" d="M294,423.05q.1-3.74.63-11.84l.52-5L293.32,411a40.42,40.42,0,0,0-2.08,11.94,43.28,43.28,0,0,0,1.45,12.16,20.88,20.88,0,0,0,1.67,4.78l-.32-5A115.61,115.61,0,0,1,294,423.05Z"/></g><g id="Duplicate_Items_Folder_Symbol_8_copy_15_0_Layer0_0_FILL" data-name="Duplicate Items Folder Symbol 8 copy 15 0 Layer0 0 FILL"><path class="cls-30" d="M285.94,388.25q-7.28-1.14-8.41-1.25c-2.5-.41-4.43,0-5.82,1.25a5.27,5.27,0,0,0-1.76,3.43q-1.36,6.33,6.33,12.78a68.75,68.75,0,0,0,9.14,5.92q6.34,3.42,8.1,3.32a28.82,28.82,0,0,0,4.16-1,34,34,0,0,0,5.09-1.87q8.52-3.84,12.67-7.58a17.84,17.84,0,0,0,4.36-5.92,8.91,8.91,0,0,0,.11-7.17,5.67,5.67,0,0,0-2-2.28,8.71,8.71,0,0,0-4.67-1,82.63,82.63,0,0,0-9.45,1.24,58.49,58.49,0,0,1-9.45,1A54.6,54.6,0,0,1,285.94,388.25Z"/></g><g id="Duplicate_Items_Folder_Symbol_8_copy_15_0_Layer0_1_FILL" data-name="Duplicate Items Folder Symbol 8 copy 15 0 Layer0 1 FILL"><path class="cls-31" d="M319.91,397a13.23,13.23,0,0,0-8.52-1.25,77.1,77.1,0,0,1-9,2.18q-8.93,1.56-11.84,1.77a33,33,0,0,1-11.63-.73q-6.64-1.87-9.14-6.65a10.12,10.12,0,0,0,1.14,5.82,20.47,20.47,0,0,0,5.4,6.34,69,69,0,0,0,8.1,5.4,40.79,40.79,0,0,0,8.21,3.74l.83.1q4.79-.31,13.09-4.78Q316.79,403.52,319.91,397Z"/></g><g id="Duplicate_Items_Folder_Symbol_8_copy_15_0_Layer0_2_MEMBER_0_MEMBER_0_FILL" data-name="Duplicate Items Folder Symbol 8 copy 15 0 Layer0 2 MEMBER 0 MEMBER 0 FILL"><path class="cls-32" d="M275.45,391.06l-1.14.31v1.14a2.5,2.5,0,0,0,.83,1.77,3.11,3.11,0,0,0,3-.11,2.82,2.82,0,0,0-.83-2.91A2.65,2.65,0,0,0,275.45,391.06Z"/></g><g id="Duplicate_Items_Folder_Symbol_13_copy_12_0_Layer0_0_MEMBER_0_MEMBER_0_FILL" data-name="Duplicate Items Folder Symbol 13 copy 12 0 Layer0 0 MEMBER 0 MEMBER 0 FILL"><path class="cls-33" d="M347.85,432.5q-4.58.93-8.73,5.61A71.22,71.22,0,0,0,347.85,432.5Z"/></g><g id="Duplicate_Items_Folder_Symbol_13_copy_12_0_Layer0_0_MEMBER_1_MEMBER_0_MEMBER_0_FILL" data-name="Duplicate Items Folder Symbol 13 copy 12 0 Layer0 0 MEMBER 1 MEMBER 0 MEMBER 0 FILL"><path class="cls-33" d="M341.83,435.41q-10.6,6-19.84,7.48a37.61,37.61,0,0,1-12.16.1,29,29,0,0,1-6.23-1.56l-9.24-4.15-13.3,4.26a43.18,43.18,0,0,1-11.84,1q-8.94-.52-19.22-5.92A70.08,70.08,0,0,1,238.37,429l-4-3.22,3.64,3.63a68,68,0,0,0,11,8.83,58.26,58.26,0,0,0,8.72,4.57A44.28,44.28,0,0,0,269,445.59a42.15,42.15,0,0,0,12.78-.73,66.16,66.16,0,0,0,6.54-1.56l5.82-2,.31.1,7.89,3.33a30.91,30.91,0,0,0,7,1.76,39.7,39.7,0,0,0,13.3-.62q9.56-2,20.15-8.83,4.26-2.91,11.74-8.93l4.05-3.53-4.36,3Q347.23,432.29,341.83,435.41Z"/></g><g id="Duplicate_Items_Folder_Symbol_13_copy_12_0_Layer0_0_MEMBER_2_MEMBER_0_MEMBER_0_FILL" data-name="Duplicate Items Folder Symbol 13 copy 12 0 Layer0 0 MEMBER 2 MEMBER 0 MEMBER 0 FILL"><path class="cls-33" d="M239.3,425.13l2.08-.84a5,5,0,0,0-2.18-.93,7.12,7.12,0,0,0-5.61.73,7,7,0,0,0-3.53,4.26,4.37,4.37,0,0,0-.31,2.38l1.76-1.24c.49-.35,1.77-1.07,3.85-2.18Z"/></g><g id="Duplicate_Items_Folder_Symbol_13_copy_12_0_Layer0_0_MEMBER_3_MEMBER_0_MEMBER_0_FILL" data-name="Duplicate Items Folder Symbol 13 copy 12 0 Layer0 0 MEMBER 3 MEMBER 0 MEMBER 0 FILL"><path class="cls-33" d="M351.8,424l-.52.31,2,.84,7.9,4.36,1.76,1.24a6.32,6.32,0,0,0-.31-2.38,6.88,6.88,0,0,0-3.64-4.26,7,7,0,0,0-5.6-.73A6.27,6.27,0,0,0,351.8,424Z"/></g><g id="Duplicate_Items_Folder_Symbol_13_copy_12_0_Layer0_0_MEMBER_4_MEMBER_0_MEMBER_0_FILL" data-name="Duplicate Items Folder Symbol 13 copy 12 0 Layer0 0 MEMBER 4 MEMBER 0 MEMBER 0 FILL"><path class="cls-34" d="M315.55,459.51,314,460c-2.36.69-3.81,1.11-4.37,1.24a49.73,49.73,0,0,1-14.33,2A47.13,47.13,0,0,1,281.06,461l-5.82-2.08,1.35.94a46.11,46.11,0,0,0,4,2.39,32.12,32.12,0,0,0,14.75,3.84,34.37,34.37,0,0,0,14.85-3.43Z"/></g><g id="Duplicate_Items_Folder_Symbol_26_copy_14_0_Layer0_0_MEMBER_0_MEMBER_0_FILL" data-name="Duplicate Items Folder Symbol 26 copy 14 0 Layer0 0 MEMBER 0 MEMBER 0 FILL"><path class="cls-8" d="M173.07,318.75l.43-.26-.56.11c-.61.22-1.08.41-1.39.56a12.65,12.65,0,0,0-4,3.37,33,33,0,0,0-7.32,15.36,37.85,37.85,0,0,0-.79,5.12l-.09,2.36v0c.09.18,0,.24-.44.18a9,9,0,0,1-3.57-1.44,27.39,27.39,0,0,1-3-1.79,39.54,39.54,0,0,1-4.68-4,22.46,22.46,0,0,0,3.94,5.4,25.3,25.3,0,0,0,2.55,2.22l2.76,1.61a42.36,42.36,0,0,0,5.82,2.66l-.06-.45.25-3.09v-.17l.1-.33.24-1.71q.28-2.25.84-4.8a65.69,65.69,0,0,1,5.27-15.86,13.7,13.7,0,0,1,2.67-4.2Z"/></g><g id="Duplicate_Items_Folder_Symbol_26_copy_14_0_Layer0_1_MEMBER_0_MEMBER_0_FILL" data-name="Duplicate Items Folder Symbol 26 copy 14 0 Layer0 1 MEMBER 0 MEMBER 0 FILL"><path class="cls-8" d="M163.12,344.89l.29-1.08-.81.81a12,12,0,0,0-1.69,2.68,18.54,18.54,0,0,0-.74,2.12l-.24,1.21a1.88,1.88,0,0,1-.13.6h-.17l-.21.09a3.12,3.12,0,0,1-1,.43,8.18,8.18,0,0,1-2.22.59,22.4,22.4,0,0,1-8.77-1.08l-3.93-1.2.77.81c1,.94,1.82,1.61,2.35,2a15.56,15.56,0,0,0,4.08,2.29,11.23,11.23,0,0,0,6,.75,9.68,9.68,0,0,0,3.13-1,5.73,5.73,0,0,0,1.36-.84l.77-.67a6.69,6.69,0,0,0,.81-.81l-.19-2.88a12.6,12.6,0,0,1,0-2A16.61,16.61,0,0,1,163.12,344.89Z"/></g><g id="Duplicate_Items_Folder_Symbol_26_copy_14_0_Layer0_2_MEMBER_0_MEMBER_0_FILL" data-name="Duplicate Items Folder Symbol 26 copy 14 0 Layer0 2 MEMBER 0 MEMBER 0 FILL"><path class="cls-8" d="M161.56,349.22l-.35.62a15.79,15.79,0,0,0-.8,1.74,16.55,16.55,0,0,0-.83,2.89l-.45,2.78-.08.09,0,0h0l-.16.09-1.15.78c-.85.61-1.41,1-1.68,1.19a11.82,11.82,0,0,1-1.7.86,13.49,13.49,0,0,1-3.18,1,14.18,14.18,0,0,1-2.41.29h-.93l.79.51a8.37,8.37,0,0,0,2.47,1,9.79,9.79,0,0,0,4.09.13,7.7,7.7,0,0,0,2.39-.72,9.76,9.76,0,0,0,2.27-1.31l2.74-2Z"/></g><g id="Duplicate_Items_Folder_Symbol_26_copy_14_0_Layer0_0_MEMBER_0_MEMBER_0_FILL-2" data-name="Duplicate Items Folder Symbol 26 copy 14 0 Layer0 0 MEMBER 0 MEMBER 0 FILL"><path class="cls-8" d="M419.17,321.87l-.43-.27.56.11c.62.23,1.08.41,1.4.56a12.68,12.68,0,0,1,4,3.38A32.94,32.94,0,0,1,432,341a41.44,41.44,0,0,1,.79,5.11l.08,2.36v0c-.1.19.05.25.43.19a9,9,0,0,0,3.57-1.44,27.39,27.39,0,0,0,3-1.79,39.88,39.88,0,0,0,4.68-4,22.73,22.73,0,0,1-3.93,5.4,27.74,27.74,0,0,1-2.56,2.22l-2.76,1.6a41.19,41.19,0,0,1-5.82,2.66l.06-.44-.24-3.1v-.16l-.11-.33-.24-1.72c-.19-1.5-.47-3.09-.84-4.79a65.91,65.91,0,0,0-5.27-15.87,13.83,13.83,0,0,0-2.67-4.2Z"/></g><g id="Duplicate_Items_Folder_Symbol_26_copy_14_0_Layer0_1_MEMBER_0_MEMBER_0_FILL-2" data-name="Duplicate Items Folder Symbol 26 copy 14 0 Layer0 1 MEMBER 0 MEMBER 0 FILL"><path class="cls-8" d="M429.12,348l-.28-1.08.8.81a12,12,0,0,1,1.69,2.68,16.26,16.26,0,0,1,.74,2.12l.24,1.2a1.56,1.56,0,0,0,.14.6h.17l.2.1a3.51,3.51,0,0,0,1,.43,7.86,7.86,0,0,0,2.22.58,22.16,22.16,0,0,0,8.77-1.07l3.93-1.2-.76.81c-1.05.94-1.83,1.6-2.36,2a15.72,15.72,0,0,1-4.07,2.3,11.45,11.45,0,0,1-6,.75,9.91,9.91,0,0,1-3.14-1,6.46,6.46,0,0,1-1.36-.84l-.77-.68a8.08,8.08,0,0,1-.81-.8l.19-2.88a14,14,0,0,0,0-2A17.48,17.48,0,0,0,429.12,348Z"/></g><g id="Duplicate_Items_Folder_Symbol_26_copy_14_0_Layer0_2_MEMBER_0_MEMBER_0_FILL-2" data-name="Duplicate Items Folder Symbol 26 copy 14 0 Layer0 2 MEMBER 0 MEMBER 0 FILL"><path class="cls-8" d="M430.68,352.34l.35.61a15.65,15.65,0,0,1,.8,1.74,16,16,0,0,1,.83,2.89l.45,2.79.08.09.05,0h0l.16.1,1.15.78c.85.61,1.41,1,1.68,1.19a12.18,12.18,0,0,0,1.7.85,13.51,13.51,0,0,0,3.18,1,15.43,15.43,0,0,0,2.41.29h.93l-.79.51a8.26,8.26,0,0,1-2.47,1,9.64,9.64,0,0,1-4.09.12,7.9,7.9,0,0,1-2.38-.71,9.37,9.37,0,0,1-2.27-1.31l-2.75-2Z"/></g><g id="Duplicate_Items_Folder_gbhbtgb_copy_3_0_Layer5_0_FILL" data-name="Duplicate Items Folder gbhbtgb copy 3 0 Layer5 0 FILL"><path class="cls-1" d="M252.54,355.76q.24-24-12.65-38.68-12.12-13.75-31.67-14.89-18.78-1.17-32.81,13.14t-14.63,35.4q-.61,20.36,11.63,35.73a44.48,44.48,0,0,0,33.86,17.43q18.85.93,32.44-13.05T252.54,355.76Z"/></g><g class="cls-35"><g id="Duplicate_Items_Folder_Symbol_25_copy_12_0_Layer0_0_MEMBER_0_FILL" data-name="Duplicate Items Folder Symbol 25 copy 12 0 Layer0 0 MEMBER 0 FILL"><path class="cls-36" d="M229,329a31.51,31.51,0,0,0-46.52,1.15,36.68,36.68,0,0,0,1.26,49.58,31.4,31.4,0,0,0,46.47-1.19A36.72,36.72,0,0,0,229,329Z"/></g><g id="Duplicate_Items_Folder_Symbol_25_copy_12_0_Layer0_0_MEMBER_1_FILL" data-name="Duplicate Items Folder Symbol 25 copy 12 0 Layer0 0 MEMBER 1 FILL"><path d="M222.16,336.63a21.93,21.93,0,0,0-32.39.81,25.6,25.6,0,0,0,.82,34.57,22,22,0,0,0,32.43-.82,25.64,25.64,0,0,0-.86-34.56Z"/></g><g id="Duplicate_Items_Folder_Symbol_25_copy_12_0_Layer0_0_MEMBER_2_FILL" data-name="Duplicate Items Folder Symbol 25 copy 12 0 Layer0 0 MEMBER 2 FILL"><path class="cls-1" d="M183.73,343.63a5.93,5.93,0,0,0-4.53,2.1,7,7,0,0,0-1.75,4.91,6.81,6.81,0,0,0,2,4.79,6,6,0,0,0,4.58,1.9,5.92,5.92,0,0,0,4.48-2.14,7.15,7.15,0,0,0-.24-9.66A6,6,0,0,0,183.73,343.63Z"/></g></g><path id="Duplicate_Items_Folder_gbhbtgb_copy_3_0_Layer2_0_1_STROKES" data-name="Duplicate Items Folder gbhbtgb copy 3 0 Layer2 0 1 STROKES" class="cls-37" d="M253.88,354.17Q255,332.65,242,316.66t-32.35-17q-19.41-1.1-33.89,13.38t-15.63,36q-1.09,21.53,11.89,37.51t32.35,17.08q19.41,1.05,33.89-13.42T253.88,354.17Z"/><g id="Duplicate_Items_Folder_gbhbtgb_copy_3_0_Layer0_0_STROKES_1_FILL" data-name="Duplicate Items Folder gbhbtgb copy 3 0 Layer0 0 STROKES 1 FILL"><path d="M248.61,321.45l-3.37-5.92-5-6.16-.12-.12-.08,0-3-2.92-.16-.12-.16-.16-.33-.25c-.89-.75-1.82-1.48-2.8-2.19l-6.24-3.69c-1.08-.51-2.22-1-3.41-1.46l-6.24-1.9-4.63-.81c-.86-.11-2.1-.22-3.73-.33l-4.13,0-.25,0-5.79.53-4.55.93c-1.21.33-2.39.69-3.52,1.1s-2.3.85-3.41,1.33a42.44,42.44,0,0,0-6.24,3.41l-5.4,4.14a6.82,6.82,0,0,0-.61.56l-.32.25-.73.73-.08,0-.61.65-.28.24-4.3,5.15-1.26,1.82-.36.65-.12.12-2.52,4.79-1.42,3.57-.16.61c-.19.51-.42,1.25-.69,2.23l-1.14,6.08-.28,3.32.08,5,.08.85.08.41.13,0,2.71-7.14,3-6.08.29-.41a18.67,18.67,0,0,1,1.09-1.78l.12-.24.17-.21.28-.48a.5.5,0,0,0,.16-.2l.16-.25,3-3.85.21-.2,1-1.14.12-.08.08-.12.65-.65.21-.24L177,318.7l3.6-2.84.05,0h-.05l.09,0,2.06-1.42.17-.08.4-.29,5.39-2.88,3.21-1.25c1-.35,1.85-.64,2.63-.85l4.51-1,1.05-.12.32-.08,3.94-.32h1.09l.33,0h1.5a5.91,5.91,0,0,0,.73,0l.73,0a40.88,40.88,0,0,1,11.19,2,39.89,39.89,0,0,1,9.89,4.83l2.48,1.74.12.12h0l0,0,0,.09.61.44.08.08,2.92,2.52.2.24.24.2,3.9,4.26.16.24.12.13.08.12.41.48,3.2,4.67,3.2,6,2.36,5.43,2.67,7.63.12-.05.09-.4.12-1.22.12-7-.53-5.36-1.78-7.5-.21-.65Z"/></g><g id="Duplicate_Items_Folder_Symbol_7_copy_23_0_Layer2_0_FILL" data-name="Duplicate Items Folder Symbol 7 copy 23 0 Layer2 0 FILL"><path d="M433,292a40.6,40.6,0,0,0-20.78-27.11q-14-7.68-28-7.38-17.35.31-21.61,14.86a2.65,2.65,0,0,0-.1,1.25c.13.34.45,1.1.93,2.28.62.9,1.66,1.21,3.12.94a65.53,65.53,0,0,1,38.33,3.42q19.62,7.8,28.35,24.31A37.68,37.68,0,0,0,433,292Z"/></g><g id="Duplicate_Items_Folder_Symbol_7_copy_23_0_Layer1_0_FILL" data-name="Duplicate Items Folder Symbol 7 copy 23 0 Layer1 0 FILL"><path d="M227.25,273.58a2.65,2.65,0,0,0-.1-1.25q-2.91-10.08-13.19-13.5-8.84-3-19.74-.52a57,57,0,0,0-15.48,6A43.35,43.35,0,0,0,166.18,275a42.58,42.58,0,0,0-8.21,18.9,76.63,76.63,0,0,0-1.45,10.6,51.31,51.31,0,0,1,26.17-24.62q18.6-8.1,40.51-3.11c1.46.34,2.5,0,3.12-.94Z"/></g><g id="Duplicate_Items_Folder_gbhbtgb_copy_3_0_Layer5_0_FILL-2" data-name="Duplicate Items Folder gbhbtgb copy 3 0 Layer5 0 FILL"><path class="cls-1" d="M431.93,357.63q.24-24-12.65-38.68-12.13-13.76-31.67-14.89-18.78-1.17-32.81,13.14t-14.64,35.4q-.6,20.36,11.64,35.73a44.48,44.48,0,0,0,33.86,17.43q18.85.93,32.44-13.05T431.93,357.63Z"/></g><g class="cls-38"><g id="Duplicate_Items_Folder_Symbol_25_copy_12_0_Layer0_0_MEMBER_0_FILL-2" data-name="Duplicate Items Folder Symbol 25 copy 12 0 Layer0 0 MEMBER 0 FILL"><path class="cls-36" d="M408.41,330.84a30.77,30.77,0,0,0-23.52-9.68q-13.58.33-23,10.83a36.69,36.69,0,0,0,1.27,49.58,31.4,31.4,0,0,0,46.47-1.19,36.71,36.71,0,0,0-1.22-49.54Z"/></g><g id="Duplicate_Items_Folder_Symbol_25_copy_12_0_Layer0_0_MEMBER_1_FILL-2" data-name="Duplicate Items Folder Symbol 25 copy 12 0 Layer0 0 MEMBER 1 FILL"><path d="M401.55,338.5a21.91,21.91,0,0,0-32.39.81,25.57,25.57,0,0,0,.82,34.57,22,22,0,0,0,32.43-.82,25.64,25.64,0,0,0-.86-34.56Z"/></g><g id="Duplicate_Items_Folder_Symbol_25_copy_12_0_Layer0_0_MEMBER_2_FILL-2" data-name="Duplicate Items Folder Symbol 25 copy 12 0 Layer0 0 MEMBER 2 FILL"><path class="cls-1" d="M363.12,345.5a5.93,5.93,0,0,0-4.53,2.1,7,7,0,0,0-1.75,4.91,6.81,6.81,0,0,0,2,4.79,6,6,0,0,0,4.58,1.9,6,6,0,0,0,4.48-2.14,6.58,6.58,0,0,0,1.75-4.87,6.68,6.68,0,0,0-2-4.79A6,6,0,0,0,363.12,345.5Z"/></g></g><path id="Duplicate_Items_Folder_gbhbtgb_copy_3_0_Layer2_0_1_STROKES-2" data-name="Duplicate Items Folder gbhbtgb copy 3 0 Layer2 0 1 STROKES" class="cls-37" d="M433.27,356q1.11-21.53-11.84-37.51t-32.35-17q-19.41-1.1-33.89,13.38t-15.63,36q-1.1,21.53,11.89,37.51t32.35,17.08q19.41,1.05,33.89-13.42T433.27,356Z"/><g id="Duplicate_Items_Folder_gbhbtgb_copy_3_0_Layer0_0_STROKES_1_FILL-2" data-name="Duplicate Items Folder gbhbtgb copy 3 0 Layer0 0 STROKES 1 FILL"><path d="M428,323.32l-3.37-5.92-4.95-6.16-.12-.12-.08,0-3-2.92-.16-.12-.17-.16-.32-.25c-.89-.76-1.82-1.49-2.8-2.19l-6.24-3.69c-1.08-.51-2.22-1-3.41-1.46l-6.24-1.9-4.63-.81c-.86-.11-2.11-.22-3.73-.33l-4.13,0-.25,0-5.8.53-4.54.93c-1.21.33-2.39.69-3.52,1.1s-2.3.85-3.41,1.33a43,43,0,0,0-6.25,3.41l-5.39,4.14a6.82,6.82,0,0,0-.61.56l-.32.25-.73.73-.08,0-.61.65-.28.24-4.3,5.15-1.26,1.82-.36.65-.13.12-2.51,4.79-1.42,3.57-.16.61c-.19.51-.42,1.25-.69,2.23l-1.14,6.08-.28,3.32.08,5,.08.85.08.41.12,0,2.72-7.14,3-6.08.29-.41a18.67,18.67,0,0,1,1.09-1.78l.12-.24.17-.21.28-.48a.47.47,0,0,0,.16-.21L349,329l3-3.85.21-.2,1-1.14.12-.08.08-.12L354,323l.2-.24,2.27-2.15,3.61-2.84,0,0h0l.08,0,2.07-1.42.16-.08.41-.29,5.39-2.88,3.21-1.25c1-.35,1.85-.64,2.63-.85l4.5-1,1.06-.12.32-.08,3.94-.32h1.09l.33-.05h1.5a4.18,4.18,0,0,0,.73.05l.73,0a40.88,40.88,0,0,1,11.19,2,39.89,39.89,0,0,1,9.89,4.83l2.47,1.74.13.12h0l0,0,0,.09.61.44.08.08,2.92,2.52.2.24.24.2,3.9,4.26.16.24.12.13.08.12.41.48,3.2,4.67,3.2,6,2.36,5.43,2.67,7.62.12,0,.08-.4.13-1.22.12-7-.53-5.36-1.78-7.5-.21-.65Z"/></g><path class="cls-39" d="M56.8,645.82c-5.53-3.69-9.44-13-10.06-18-1.26-10.3,3.57-20.27,8.52-29.39,4.5-8.27,10.13-11.85,18.65-6.47,5.65,3.56,10.41,8.8,12.52,15.13,2.56,7.7.93,16.42-3.27,23.36s-10.76,12.23-17.94,16A7.8,7.8,0,0,1,56.8,645.82Z"/><path class="cls-8" d="M56.8,645.82l-.32-.24c-.2-.17-.53-.37-.9-.72a19.42,19.42,0,0,1-3-3.31,32.07,32.07,0,0,1-3.43-6.12,32.74,32.74,0,0,1-1.49-4.11,20.22,20.22,0,0,1-.85-4.81c-.1-.85-.05-1.73-.07-2.63s.08-1.81.21-2.74a34.51,34.51,0,0,1,1.15-5.72A66.34,66.34,0,0,1,53,603.47c1-2,2.14-4.12,3.33-6.16a19.82,19.82,0,0,1,4.56-5.48,9.35,9.35,0,0,1,3.18-1.68,8.58,8.58,0,0,1,3.61-.25,17,17,0,0,1,6.92,3A30.26,30.26,0,0,1,84.72,604a24.58,24.58,0,0,1,2.4,13.73,30.93,30.93,0,0,1-4,12.11,38.29,38.29,0,0,1-7,8.72,50,50,0,0,1-7.38,5.66c-1.15.74-2.26,1.37-3.29,1.94a8.54,8.54,0,0,1-3,1.07,7.75,7.75,0,0,1-4.32-.69,10.4,10.4,0,0,1-1-.54l-.33-.21.33.22a9.34,9.34,0,0,0,1,.56,7.62,7.62,0,0,0,4.34.79,8.4,8.4,0,0,0,3.06-1c1-.54,2.17-1.16,3.35-1.88a49.73,49.73,0,0,0,7.52-5.57,38.71,38.71,0,0,0,7.24-8.74,31.51,31.51,0,0,0,4.2-12.34,25.13,25.13,0,0,0-2.4-14.17,30.71,30.71,0,0,0-10.36-11.47,17.56,17.56,0,0,0-7.29-3.13,9.28,9.28,0,0,0-4,.29,10.09,10.09,0,0,0-3.44,1.83,20.42,20.42,0,0,0-4.73,5.73c-1.21,2.1-2.27,4.18-3.3,6.23a65.58,65.58,0,0,0-4.8,12.12,35.74,35.74,0,0,0-1.09,5.82c-.12.95-.13,1.88-.17,2.79s0,1.81.11,2.67a20,20,0,0,0,.95,4.88,34.6,34.6,0,0,0,1.57,4.13,32.22,32.22,0,0,0,3.57,6.08,19.73,19.73,0,0,0,3,3.26,10.6,10.6,0,0,0,.93.7Z"/><path class="cls-39" d="M509.6,646c5.79-3.16,10.48-12,11.54-16.92,2.16-10.06-1.73-20.35-5.81-29.79-3.7-8.58-9-12.62-17.85-8.06-5.89,3-11.06,7.76-13.71,13.84-3.22,7.38-2.39,16.14,1.15,23.37s9.55,13,16.31,17.41A7.7,7.7,0,0,0,509.6,646Z"/><path class="cls-8" d="M509.6,646l.34-.2c.21-.14.56-.31,1-.61a19,19,0,0,0,3.29-2.94,31.48,31.48,0,0,0,4.07-5.7,32.12,32.12,0,0,0,1.93-3.94,20,20,0,0,0,1.37-4.73,27,27,0,0,0,.42-5.41,34.1,34.1,0,0,0-.56-5.84,65.26,65.26,0,0,0-3.65-12.41c-.84-2.12-1.7-4.26-2.71-6.45a20.54,20.54,0,0,0-4.17-6.09,10.21,10.21,0,0,0-3.23-2.11,9.37,9.37,0,0,0-3.89-.64,17.59,17.59,0,0,0-7.49,2.45A30.42,30.42,0,0,0,485,601.76a24.82,24.82,0,0,0-3.62,13.79,31,31,0,0,0,3,12.56,38,38,0,0,0,6.38,9.28,48.88,48.88,0,0,0,6.93,6.17c1.1.82,2.15,1.53,3.14,2.16a8.52,8.52,0,0,0,2.93,1.29,7.62,7.62,0,0,0,4.36-.39,9.07,9.07,0,0,0,1.05-.47l.35-.19-.35.18a10.57,10.57,0,0,1-1.06.44,7.58,7.58,0,0,1-4.32.3,8.31,8.31,0,0,1-2.85-1.33c-1-.65-2-1.37-3.09-2.2a50,50,0,0,1-6.78-6.25,38.44,38.44,0,0,1-6.16-9.24,30.9,30.9,0,0,1-2.86-12.33,24.27,24.27,0,0,1,3.6-13.34,30,30,0,0,1,11-10.1,17,17,0,0,1,7.11-2.35,8.53,8.53,0,0,1,3.55.57,9.35,9.35,0,0,1,3,1.94,19.69,19.69,0,0,1,4,5.82c1,2.12,1.9,4.29,2.74,6.38a65.51,65.51,0,0,1,3.75,12.24,33.36,33.36,0,0,1,.63,5.75,27.18,27.18,0,0,1-.33,5.33,19.9,19.9,0,0,1-1.28,4.67,32.81,32.81,0,0,1-1.83,3.94,32.24,32.24,0,0,1-3.94,5.74,19.22,19.22,0,0,1-3.21,3,11.29,11.29,0,0,1-1,.63Z"/><rect class="cls-40" x="77.31" y="520.16" width="413.44" height="211.53"/><rect class="cls-41" x="85.45" y="529.68" width="396.18" height="198.37"/><path class="cls-42" d="M481.63,529.68c0-.6-143.69.34-154.71,1.47l-11.86,1.21c55.8-.1,82.47,1.43,138.18,4.6,7,.4,14.86,1.26,19.19,6.76,7.59,9.64,7.22,29.65,8.26,41.6,1.38,15.94,1.51,123.34.36,139.31C483.9,690.42,481.63,564,481.63,529.68Z"/><path class="cls-42" d="M85.45,727.57H361.19c26.65,0,78.45.37,104.91.37-54,0-133-6-187-7.48-48.24-1.3-150.47,3.35-167.92-19.23-10.94-14.14-10.48-26.14-11.82-49-1.27-21.58.31-44.5,2.54-65.67,3.9-37,21.89-46.37,37.89-50.11,14.25-3.34,56.32-6,76.66-6.62-6.72-.75-131-1.07-131,.06Z"/><g class="cls-43"><path class="cls-44" d="M85.45,727.72V529.94a171.37,171.37,0,0,1,18-.25c-7,.09-5,.23-11.56,4.91-4.54,3.24-6.06,12.86-.51,15.88a7,7,0,0,0,4.35.42l3.15-.37A34.9,34.9,0,0,0,93,552.27a5.29,5.29,0,0,0-2.46,1.62A6.72,6.72,0,0,0,89.23,558c0,3.11.13,6.19.06,9.36q-.23,10.36-.37,20.74-.19,12.81-.29,25.61c0,4.78-.75,15.19,1.59,18.43a3.67,3.67,0,0,0,2.36,1.42,14.67,14.67,0,0,0,6.72,0,22.69,22.69,0,0,0-6.93,3.11A6.1,6.1,0,0,0,90,639.3c-.92,2-1,4.88-1.07,7.54-.3,14.73-.87,29.19-1.5,43.87-.37,8.4-.67,6.89-.53,15.32.1,6.39,2.2,7.8,5.09,8.23a64.61,64.61,0,0,0,13.61.57l-4.81.52a41.07,41.07,0,0,0-9.21,1.73,2.79,2.79,0,0,0-1.71,1.28c-2.28,4-.14,8.07,2,8.69l2.33.66C91.45,726.94,88.21,727.72,85.45,727.72Z"/></g><path class="cls-45" d="M63.7,507.74V750.11H505.78V507.74ZM484.41,730.92H82.62v-204H484.41Z"/><g id="Layer0_4_MEMBER_3_MEMBER_0_MEMBER_0_FILL" data-name="Layer0 4 MEMBER 3 MEMBER 0 MEMBER 0 FILL"><path class="cls-46" d="M76,532.14l-.1,7.73q-.09,7.71-.08,20,0,11.25,0,20.07l.18,8.32.06-.58.13-7.74q.08-8.81,0-20.07L76,531.56Z"/></g><g id="Layer0_4_MEMBER_4_MEMBER_0_MEMBER_0_FILL" data-name="Layer0 4 MEMBER 4 MEMBER 0 MEMBER 0 FILL"><path class="cls-46" d="M67.75,585.65,67.56,602c0,2.15,0,66.81,0,71.66,0,7.13,0,43.7.06,49.32l.13,7.36c0,.37,0,.56,0,.56l.16-7.92c0-4.89.08-41.46.08-49.32l-.24-88.16Z"/></g><g id="Layer0_3_MEMBER_2_MEMBER_0_MEMBER_0_FILL" data-name="Layer0 3 MEMBER 2 MEMBER 0 MEMBER 0 FILL"><path class="cls-46" d="M492.05,520.56a9.17,9.17,0,0,0-.08-1.25,11.93,11.93,0,0,0-.08,1.25l-.08,7q-.07,8.49-.08,11.09l.14,14.49a5.72,5.72,0,0,0,.1,1.22,5.22,5.22,0,0,0,.11-1.22l.08-3.36q0-2.87,0-11.13,0-2.59-.08-11.09Z"/></g><g id="Layer0_3_MEMBER_3_MEMBER_0_MEMBER_0_FILL" data-name="Layer0 3 MEMBER 3 MEMBER 0 MEMBER 0 FILL"><path class="cls-46" d="M492.66,564.87l-.16-8.31-.05.58-.13,7.73q-.09,15.42-.08,20c0,8.25,0,76.09.08,81.23l.18,8.31.05-.58.19-89Q492.74,572.58,492.66,564.87Z"/></g><g id="Layer0_3_MEMBER_4_MEMBER_0_MEMBER_0_FILL" data-name="Layer0 3 MEMBER 4 MEMBER 0 MEMBER 0 FILL"><path class="cls-46" d="M502,582.67l0-.13-.24,88.16c0,7.86,0,44.43.08,49.32,0,2.49,0,4.42.08,5.8l.08,2.12s.05-.19.05-.56l.13-7.36c0-3.27.05-39.84.05-49.32Z"/></g><g id="Layer0_2_MEMBER_5_FILL" data-name="Layer0 2 MEMBER 5 FILL"><path class="cls-47" d="M505.56,740.94v-2l-56.37,1Z"/></g><g id="Layer0_2_MEMBER_2_FILL" data-name="Layer0 2 MEMBER 2 FILL"><path class="cls-47" d="M63.81,740.72V742l199.24-.85Z"/></g><g id="Layer0_2_MEMBER_3_MEMBER_0_MEMBER_0_FILL" data-name="Layer0 2 MEMBER 3 MEMBER 0 MEMBER 0 FILL"><path class="cls-48" d="M284.09,750.11l-.88-9.86-1.11,9.86"/></g><g id="Layer0_2_MEMBER_4_MEMBER_0_MEMBER_0_FILL" data-name="Layer0 2 MEMBER 4 MEMBER 0 MEMBER 0 FILL"><path class="cls-46" d="M437.34,745.71,432,745.6q-5.5-.11-15.67-.16-16-.11-51.72.19L296.8,746l16.05.24q8.79.07,23.25,0l28.47-.18q36.54-.3,51.72-.32h21.34c.05,0,.08,0,.08,0h-.08Z"/></g><g class="cls-49"><g id="Layer0_1_MEMBER_5_FILL" data-name="Layer0 1 MEMBER 5 FILL"><path class="cls-48" d="M63.72,509.76V511L236,510.19Z"/></g></g><g class="cls-49"><g id="Layer0_1_MEMBER_5_FILL-2" data-name="Layer0 1 MEMBER 5 FILL"><path class="cls-48" d="M63.72,555.86v2l10.8-.78Z"/></g></g><g id="Layer0_4_MEMBER_1_FILL" data-name="Layer0 4 MEMBER 1 FILL"><path class="cls-48" d="M82.68,713.53l2-1.32-2-.85-8.16.85Z"/></g><g id="Layer0_4_MEMBER_1_FILL-2" data-name="Layer0 4 MEMBER 1 FILL"><polygon class="cls-50" points="82.68 711.36 82.68 713.52 84.72 712.21 82.68 711.36"/></g><g id="Layer0_1_MEMBER_6_MEMBER_0_MEMBER_0_FILL" data-name="Layer0 1 MEMBER 6 MEMBER 0 MEMBER 0 FILL"><path class="cls-46" d="M338.72,523.65s0,0-.1,0l-6.46-.18c-5.36-.14-11.11-.23-17.93-.32q-19.41-.21-26.56-.19c-3.41,0-6,.08-7.68.14s-4.44.09-8,.13q-11,0-16.84,0l-32.57-.35q-8-.14-26.59.13l-24.5.11,6.57.18q8.19.12,17.93,0,3.78,0,12.39-.1,7.85,0,14.2.1l15.7.3q7.23.1,16.87.1,5.88,0,16.84,0c3.59,0,6.26-.08,8-.14l7.68-.16q8.68,0,26.56.08Z"/></g><g id="Layer0_1_MEMBER_7_MEMBER_0_MEMBER_0_FILL" data-name="Layer0 1 MEMBER 7 MEMBER 0 MEMBER 0 FILL"><path class="cls-46" d="M447.8,511.29l-.11,0-21.16,0q-15.22,0-51.27-.24L347,511c-10.77,0-18.23,0-23,0l-17.32.26,1.77,0q7.92-.06,15.55,0l51.27.26q35,.24,51.29.14l21.16-.35Z"/></g><g id="Layer0_1_MEMBER_8_FILL" data-name="Layer0 1 MEMBER 8 FILL"><path class="cls-47" d="M505.8,514.92v-2L449.91,514Z"/></g><g id="Layer0_1_MEMBER_3_MEMBER_0_FILL" data-name="Layer0 1 MEMBER 3 MEMBER 0 FILL"><path class="cls-48" d="M448.2,526.94l1,1.87,1-1.81-.84-7.41Z"/></g><g id="Layer0_1_MEMBER_4_FILL" data-name="Layer0 1 MEMBER 4 FILL"><path class="cls-48" d="M250.83,507.76h-2.31l1.16,6.31Z"/></g><g class="cls-49"><g id="Layer0_1_MEMBER_5_FILL-3" data-name="Layer0 1 MEMBER 5 FILL"><path class="cls-48" d="M311.25,750.11h2"/></g></g><text class="cls-51" transform="translate(104.61 572.55) scale(0.99 1)">Hello! I am Loopy<tspan x="22.59" y="45.6">I am respectful</tspan><tspan x="68.47" y="91.2">I am polite</tspan><tspan x="69.1" y="136.8">I am brave</tspan></text><path class="cls-39" d="M77.34,637.81c-.93,1-1.9,1.89-2.92,2.76-.27.23-.57.45-.83.69a3.33,3.33,0,0,0-.43.56,16.14,16.14,0,0,1-1.61,1.48A21.16,21.16,0,0,1,68,645.81a11.73,11.73,0,0,1-6.52,1.62,4.33,4.33,0,0,1-1.55-.36,5,5,0,0,1-1-.74A26.49,26.49,0,0,1,56.67,644a17.67,17.67,0,0,1-1.78-2.37,11.15,11.15,0,0,1-1.13-8.05,17.55,17.55,0,0,1,3.78-7.33c1.24-1.49,2.79-2.9,4.7-3.18,2.58-.39,6.16,3,8.05,4.45a57.4,57.4,0,0,1,7.17,6.5,2.93,2.93,0,0,1,1,1.82A3,3,0,0,1,77.34,637.81Z"/><path class="cls-8" d="M63.29,622.93l1.43.9c.92.59,2.22,1.46,3.77,2.62a61,61,0,0,1,5.21,4.37q1.41,1.3,2.85,2.82a9.41,9.41,0,0,1,1.29,1.54,1.39,1.39,0,0,1-.18,1.61c-3.9,4.26-7.9,8-11.44,9.55a11,11,0,0,1-4.4,1,8,8,0,0,1-1.24-.06l-.44,0,.43.08a8.51,8.51,0,0,0,1.25.15,10.65,10.65,0,0,0,4.56-.77,21.56,21.56,0,0,0,5.89-3.57c1-.82,2-1.73,3-2.71.52-.48,1-1,1.53-1.5a19.33,19.33,0,0,0,1.54-1.66,2.68,2.68,0,0,0,.5-1.21,2.18,2.18,0,0,0-.28-1.3,8.63,8.63,0,0,0-1.45-1.71c-1-1-2-1.94-3-2.79a50.34,50.34,0,0,0-5.45-4.18c-1.62-1.08-3-1.87-3.95-2.39S63.29,622.93,63.29,622.93Z"/><path class="cls-39" d="M60.93,605.35l13.31,8.3c2.81,1.75,10.32,4.48,10.42,8.29a6.87,6.87,0,0,1-1.44,4,18.22,18.22,0,0,1-6.44,5.4A29.38,29.38,0,0,1,55,633.71"/><path class="cls-8" d="M60.93,605.35l7.93,5.2,4,2.6c.72.46,1.47,1,2.3,1.41l2.5,1.33a23.91,23.91,0,0,1,5,3.26,4.57,4.57,0,0,1,1.53,2.45,4.88,4.88,0,0,1-.6,2.93,14.31,14.31,0,0,1-4.16,4.68,25.59,25.59,0,0,1-5.19,3,29.86,29.86,0,0,1-9.85,2.38,29.4,29.4,0,0,1-6.88-.32c-.81-.14-1.43-.26-1.85-.37l-.64-.15.63.19c.42.13,1,.28,1.83.46a28,28,0,0,0,6.93.62,29,29,0,0,0,10.12-2.14,25.83,25.83,0,0,0,5.39-3,14.84,14.84,0,0,0,4.44-5,5.71,5.71,0,0,0,.67-3.45,5.32,5.32,0,0,0-1.8-2.91A23.7,23.7,0,0,0,78,615.24L75.49,614c-.81-.41-1.55-.88-2.29-1.33l-4.11-2.47Z"/><path class="cls-39" d="M490,636.22c.83,1,1.71,2,2.64,3,.25.26.52.5.76.76a4.56,4.56,0,0,1,.38.59,14.74,14.74,0,0,0,1.45,1.61,21.64,21.64,0,0,0,3.25,2.8,11.71,11.71,0,0,0,6.3,2.17,4.1,4.1,0,0,0,1.56-.22,4.85,4.85,0,0,0,1.08-.63,25,25,0,0,0,2.46-2.13,17.62,17.62,0,0,0,2-2.17,11.11,11.11,0,0,0,1.83-7.86,17.26,17.26,0,0,0-3.09-7.58,8,8,0,0,0-4.35-3.56c-2.52-.62-6.36,2.42-8.35,3.68a56.73,56.73,0,0,0-7.66,5.78,2.89,2.89,0,0,0-1.15,1.72A3,3,0,0,0,490,636.22Z"/><path class="cls-8" d="M505.22,622.77s-.56.21-1.55.64-2.42,1.08-4.12,2a51.91,51.91,0,0,0-5.76,3.63c-1,.76-2.1,1.59-3.16,2.5a9.3,9.3,0,0,0-1.59,1.56,2.24,2.24,0,0,0-.39,1.26,2.63,2.63,0,0,0,.39,1.24,19.68,19.68,0,0,0,1.37,1.78c.46.55.91,1.1,1.38,1.62.91,1.06,1.83,2,2.75,2.94A21.52,21.52,0,0,0,500,646a10.62,10.62,0,0,0,4.45,1.17,6.25,6.25,0,0,0,1.24,0l.43,0h-.43a7.3,7.3,0,0,1-1.23-.06,10.71,10.71,0,0,1-4.26-1.41c-3.36-1.8-7-5.89-10.45-10.45a1.37,1.37,0,0,1,0-1.6,9,9,0,0,1,1.42-1.41c1-.91,2.06-1.76,3.06-2.54a64.72,64.72,0,0,1,5.53-3.84c1.64-1,3-1.76,4-2.26Z"/><path class="cls-39" d="M509.11,605.6l-13.89,7c-2.93,1.49-10.59,3.51-11,7.27a6.92,6.92,0,0,0,1.06,4.1,18.27,18.27,0,0,0,5.89,5.91,29.2,29.2,0,0,0,21.3,4.26"/><path class="cls-8" d="M509.11,605.6l-8.49,4-4.28,2.08c-.77.37-1.54.77-2.38,1.1l-2.61,1a23.78,23.78,0,0,0-5.43,2.8,5.25,5.25,0,0,0-2,2.72,5.57,5.57,0,0,0,.35,3.47,14.5,14.5,0,0,0,3.95,5.3,25.47,25.47,0,0,0,5.06,3.42,29,29,0,0,0,9.81,3,28.39,28.39,0,0,0,6.9,0c.81-.1,1.43-.21,1.85-.3l.64-.12-.65.09c-.42.06-1.05.13-1.86.2a29.12,29.12,0,0,1-6.82-.3,29.72,29.72,0,0,1-9.53-3.22,26.07,26.07,0,0,1-4.85-3.39,14.16,14.16,0,0,1-3.7-5,4.85,4.85,0,0,1-.33-2.95,4.54,4.54,0,0,1,1.72-2.28,24,24,0,0,1,5.21-2.78l2.59-1.09c.85-.36,1.64-.8,2.39-1.19l4.21-2.21Z"/></g></g></svg>