<svg xmlns="http://www.w3.org/2000/svg" xmlns:xlink="http://www.w3.org/1999/xlink" viewBox="0 0 549.83 854.04"><defs><style>.cls-1{fill:#fff;}.cls-2{fill:#d3ae7d;}.cls-3{fill:#b48546;}.cls-4{fill:#ebf0f7;}.cls-5{fill:#8aa1b2;}.cls-6{fill:#f7dfbc;}.cls-7{fill:#e4cbaa;}.cls-8{fill:#d7a256;}.cls-9{fill:#f3f8ff;}.cls-10{fill:#c9a371;}.cls-11{fill:#c3c3c3;}.cls-12,.cls-33{fill:none;}.cls-12{stroke:#c3c3c3;stroke-miterlimit:21.99;stroke-width:0.85px;}.cls-13{fill:#020f11;}.cls-14{fill:#ced3d8;}.cls-15{fill:#bcbcbc;}.cls-16{fill:url(#linear-gradient);}.cls-17{fill:#ddb985;}.cls-18{fill:#d8a36f;}.cls-19{fill:#c9905d;}.cls-20{fill:url(#linear-gradient-2);}.cls-21{fill:url(#radial-gradient);}.cls-22{fill:#c19968;}.cls-23{fill:url(#radial-gradient-2);}.cls-24{fill:url(#radial-gradient-3);}.cls-25{fill:#252021;}.cls-26{fill:#241f20;}.cls-27{fill:#d1545c;}.cls-28{fill:#282e35;}.cls-29{fill:#170e12;}.cls-30{fill:#c5c5c5;}.cls-31{mask:url(#mask);}.cls-32{fill:#bf9764;}.cls-33{stroke:#12100c;stroke-miterlimit:9.97;stroke-width:0.9px;}.cls-34{fill:#353330;}.cls-35{mask:url(#mask-2);}.cls-36{fill:#12100c;}.cls-37{fill:#211f1b;}.cls-38{fill:#774b2c;}.cls-39{fill:#fcf4dd;}.cls-40{fill:#f1e8d1;}.cls-41{opacity:0.5;}.cls-42{fill:#9d947f;}.cls-43{fill:#c78e62;}.cls-44{fill:#795741;}.cls-45{fill:#663f26;}.cls-46{fill:#442917;}.cls-47{isolation:isolate;}.cls-48{fill:#30190c;}.cls-49{font-size:38px;fill:#005d52;font-family:Adventuring;}.cls-50{fill:#d7a257;}</style><linearGradient id="linear-gradient" x1="-2317.83" y1="6350.59" x2="-2373.31" y2="6265.96" gradientTransform="translate(-3553.88 8949.89) rotate(-177.74) scale(1.43)" gradientUnits="userSpaceOnUse"><stop offset="0" stop-color="#f9e0bd"/><stop offset="0.99" stop-color="#e5c493"/></linearGradient><linearGradient id="linear-gradient-2" x1="-203.64" y1="6297.22" x2="-259.13" y2="6212.59" gradientTransform="matrix(1.43, -0.02, -0.02, -1.43, 848.24, 9011.04)" xlink:href="#linear-gradient"/><radialGradient id="radial-gradient" cx="-754.88" cy="6033.94" r="133.02" gradientTransform="matrix(1.68, 0.02, 0.02, -1.68, 1418.63, 10429.79)" gradientUnits="userSpaceOnUse"><stop offset="0" stop-color="#f5dbb7"/><stop offset="0.99" stop-color="#d3ae7d"/></radialGradient><radialGradient id="radial-gradient-2" cx="-804.37" cy="6062.24" r="57.79" gradientTransform="matrix(1.68, 0.07, 0.07, -1.68, 1220.31, 10561.11)" gradientUnits="userSpaceOnUse"><stop offset="0" stop-color="#d3ae7d"/><stop offset="1" stop-color="#f5dbb7"/></radialGradient><radialGradient id="radial-gradient-3" cx="-630.11" cy="8086.24" r="186.35" gradientTransform="matrix(1.68, -0.09, -0.04, -0.78, 1664.39, 6558.38)" gradientUnits="userSpaceOnUse"><stop offset="0.04" stop-color="#fbead3"/><stop offset="1" stop-color="#d3ae7d"/></radialGradient><mask id="mask" x="175.2" y="159.72" width="83.45" height="91.89" maskUnits="userSpaceOnUse"><g transform="translate(-0.13)"><g id="Mask_Mask_4" data-name="Mask Mask 4"><g id="Mask_Duplicate_Items_Folder_ededee_copy_0_8_MASK_0_FILL" data-name="Mask Duplicate Items Folder ededee copy 0 8 MASK 0 FILL"><path class="cls-1" d="M218.44,159.74q-17.3-.51-29.88,12.55t-13.21,32.13q-.57,19,11.26,32.85t29.08,14.32Q233,252.1,245.58,239t13.16-32.13q.57-19-11.21-32.85T218.44,159.74Z"/></g></g></g></mask><mask id="mask-2" x="312.17" y="160.64" width="83.45" height="91.89" maskUnits="userSpaceOnUse"><g transform="translate(-0.13)"><g id="Mask_Mask_5" data-name="Mask Mask 5"><g id="Mask_Duplicate_Items_Folder_ededee_copy_0_3_MASK_0_FILL" data-name="Mask Duplicate Items Folder ededee copy 0 3 MASK 0 FILL"><path class="cls-1" d="M355.41,160.66q-17.3-.51-29.89,12.55t-13.2,32.13q-.57,19,11.26,32.85t29.08,14.32q17.26.53,29.89-12.55t13.16-32.13q.57-19-11.21-32.85T355.41,160.66Z"/></g></g></g></mask></defs><title>Asset 64</title><g id="Layer_2" data-name="Layer 2"><g id="Layer_2-2" data-name="Layer 2"><g id="Duplicate_Items_Folder_Symbol_1_copy_0_Layer0_0_STROKES_1_FILL" data-name="Duplicate Items Folder Symbol 1 copy 0 Layer0 0 STROKES 1 FILL"><path class="cls-2" d="M196.75,478.24l.13-.05h0l-.09.05m38.7-16.51h0l6.81-1.93q2.16-.6,5.15-1.55l9.31-3.21L257,455l.8-.32.22-.05,0-.05h.05l.69-.36.07,0,.21-.05h.05l4.52-2.11.17,0,.16-.1a55.16,55.16,0,0,0,10.1-6.64l5.41-5.25.12-.17.08-.05.65-.93s0-.05.18-.2l.14-.13.4-.58a3.74,3.74,0,0,0,.41-.52l1.25-1.78.07-.18.18-.25,3.51-6.81a47.51,47.51,0,0,0,2.21-6.87l1.79-9.09,0-.13.21-1.51v-.12l0,0,0-.17,0,0,.75-8.62v-.12l0-.1-.17-11.85,0-.2-.93-9.85,0-.15-.1-.3-.12-.46,0-.3-2.75-4.7-.34-.41-1.07-1a11.68,11.68,0,0,0-1.64-1.11,17.85,17.85,0,0,0-3.69-1.45,24.65,24.65,0,0,0-7.43.46l-2.51,1.41-.43.42-2,3.08-4.08,9.55q-1.35,2.63-2.77,4.85l-1.59,2.28-.12.1-.66.88-.06,0,0,.07-1.5,1.64-.09.12-.06,0,0,0,.05-.19-.92,1.25,0,0,0,0-.06,0-.61.35h0l0,.05-2.33,1.48-.17.05-.46.21,0,.05-.11,0-.57.3-.3.11-.29.15-.65.24-1.72.35-.07,0h-.13l-.22,0-.33,0h-.31l-.33,0-.07,0h-.1l-.33-.09H247l.27-.26-.67.31-.23.08,0,.05h-.05l-.07-.34h-.05l-.14-.05-1.92-.39H244l-.07,0-.52-.09-.1,0-.33-.05h0l-.07,0-.21,0-2.22-.41-.07,0-1.25-.2-.29-.09a1.77,1.77,0,0,1-.48-.09h-.13l0,0,.25,0,0,0-1,0,0,0,0,0,0,0-.3-.15-6.57-.89-10.18-.17-.07,0h-27l-.1,0-1.91.11-.16,0H191l-.08,0-9.35,1-14,2.51-4,1-4.29,2,0,0-.38.15-4.19,2.23-.26.11v0L143,412.43l-.13.13-8.34,6.68-.06.08.07,0,12.09-2.84-4.13,3.29-4.32,4.51c-.72.87-1.26,1.53-1.61,2l-4.34,6a3.11,3.11,0,0,1-.28.47,2.46,2.46,0,0,0-.29.48l-.59.9q-.36.64-.54.9l-2.92,5.4-1.55,3.93-.07.3-1.54,10.27-1,15.31.39.34.06.37v1l2.91,12.1,1.22,3,35.73-11a1.6,1.6,0,0,0,.63-.14l2.84-.54.3-.11,3.36-.65a.31.31,0,0,1,.2,0l.22-.05,7.88-.91a6.48,6.48,0,0,1,1,0l.25,0,1.87-.06.12,0,6.62.25-.55,1.05-.09.13-.06.15-1.53,3.14-2.15,5.71,7.62-3.48.32-.21.19-.07L193,480l1.84-1L195,479v0h0l1.68-.75-.1,0v0l3.8-1.53,0,0,.14-.07,5.55-3.72q2.55-1.47,4.47-2.43l.66-.31.08-.05,0,0h.05l1-.56h0l1.66-.64h-.13l1.2-.57.11,0,.08-.06.37-.15,19.63-6.32m-17.32-38.18,3.78,2.08,1.22.94-1.47-.91-3.4-1.6-4.88-1.39c-.95-.26-2-.51-3.23-.76l-4.78-.58-2.86.25a3.68,3.68,0,0,0,.41.88,5.46,5.46,0,0,0,1.39,1.53s0,0,.06.05a1,1,0,0,0,.19.17,2.48,2.48,0,0,0,.31.19c.26.17.62.38,1.09.63l4,2.05,5.17,1.69-1.53-.17-3.83-1.24c-1.38-.59-2.51-1.12-3.4-1.6l-1.82-1-.42-.29-.63-.38a2.64,2.64,0,0,1-.73-.76,1.69,1.69,0,0,1-.56-.65,5,5,0,0,1-.45-1l.05-.77,1.35-.15,2.28-.19a17,17,0,0,1,3.87.43l2.07.48.31.07a26.34,26.34,0,0,1,6.47,2m-18.49,37.52,0-.05,6.9-6.41,0-.05.07,0,.05-.07.33-.28,1.52-1.74-1.25,2-.59.85-2.15,2.44,0,0-.12.1-.4.45,0,0-.2.22a12.84,12.84,0,0,1-1.88,1.6l-3.86,2.07,1.56-1.14m-7.12-5.81.11-.1,5.58-3.37-2,1.79-1.84,1-.8.75-3.39,1.85-3.33,1.37,0,0h0l-.06,0-1.64.75h0v0l-.46.21-.88.24h0l-.19.08-2.41.51-1.17.27-.31.05-.88.17-.12.05h0a.25.25,0,0,0-.2,0l-.06,0L178,461l-1.34.24-.12.06-.57.11-2.43-.11-2,.31-3,0,1.34-.25h1.47l6.73-1h.32l4.74-1.35.07,0h0l1-.21.28-.16.17-.05,0,0h0l1.44-.64.16-.11.11,0,.06,0,0,0,5.73-2.31.24-.15m-38.34-9.33,0,.05,0,0c-.35.29-.33.72.09,1.29l1.51.84,5.87,2.09-3-.56-3.13-1a3.59,3.59,0,0,1-1.13-.43,1.74,1.74,0,0,1-.74-.48,3,3,0,0,1-.44-.78l-.18-.45.47-1,.24-.28,1.4-1.24,1.57-.77.79-.16h.13l2.5-.44,2,0-1.42.25-.66.11-1.16.25-.36.13a2.19,2.19,0,0,0-.34.1l-1,.47-1.43.64-.14.08-.71.55A3,3,0,0,0,154.18,445.93Z" transform="translate(-0.13)"/><path class="cls-3" d="M154.14,446l0-.05a3,3,0,0,1,.7-.76l.71-.55.14-.08a1.12,1.12,0,0,1,.36-.2,3.42,3.42,0,0,1,1.07-.44,2.51,2.51,0,0,1,.78-.41l.6-.16.36-.13,1.16-.25.32-.08.34,0,1.42-.25-2,0-2.5.44h-.13l-.79.16-1.57.77-1.4,1.24-.24.28-.47,1,.18.45a3,3,0,0,0,.44.78,1.74,1.74,0,0,0,.74.48l.32.12.81.31,3.13,1,3,.56-5.87-2.09-1.51-.84c-.33-.26-.5-.49-.51-.68s.13-.4.42-.61l0,0m38.49,9.18-.11.1-.24.15-5.73,2.31,0,0-.06,0-.11,0-.16.11-1.44.64h0l0,0-.17.05-.28.16-1,.21h0l-.07,0-4.74,1.35h-.32l-6.73,1H169.9l-1.34.25,3,0,2-.31,2.43.11.57-.11,0,0,.1,0L178,461l.32-.08a.25.25,0,0,1,.2,0l.17-.05.88-.17.21-.05h.1l1.17-.27,3.53-.83.46-.21v0h0l1.64-.75.06,0h0l0,0,3.33-1.37,3.39-1.85.8-.75,1.84-1,2-1.79-5.58,3.37m7,5.86,0,.05-1.56,1.14,3.86-2.07a12.84,12.84,0,0,0,1.88-1.6l.2-.22,0,0,.4-.45.13-.18,2.75-3.24,1.25-2-1.52,1.74-.33.28-.05.07-.07,0,0,.05-6.9,6.41m22.24-35.39-3.78-2.08a26.34,26.34,0,0,0-6.47-2l-.31-.07-1.06-.21-4.88-.7-2.28.19-1.35.15-.05.77a5,5,0,0,0,.45,1,1.69,1.69,0,0,0,.56.65,2.64,2.64,0,0,0,.73.76l.63.38,5.64,2.87,3.83,1.24,1.53.17-5.17-1.69a45.76,45.76,0,0,1-5.06-2.68,2.48,2.48,0,0,1-.31-.19,1,1,0,0,1-.19-.17s-.05,0-.06-.05a5.46,5.46,0,0,1-1.39-1.53,3.68,3.68,0,0,1-.41-.88l2.86-.25,3.76.38,1,.2c1.21.25,2.28.5,3.23.76l4.88,1.39,3.4,1.6,1.47.91Z" transform="translate(-0.13)"/></g><g id="Duplicate_Items_Folder_Symbol_2_copy_3_0_Layer0_0_FILL" data-name="Duplicate Items Folder Symbol 2 copy 3 0 Layer0 0 FILL"><path class="cls-4" d="M394.29,417.24a90,90,0,0,0-9.91-10,33.72,33.72,0,0,0-7-4.69c-3.85-1.75-9.43,8.91-10.56,11.29-2.63,5.56-3.76,12.4-4.44,18.46-1.38,12.4.05,26.2,7.72,36.47,8.06,10.78,17.94,21.14,24.48,32.95l3.6,3.91a35.43,35.43,0,0,0,9.31,6.74q15.45,7.75,28-7,10-11.79,6-24.36a28.81,28.81,0,0,0-3.75-7.53l-2.25-2.73q-.47-.49-16.77-22.15Q401.67,425.82,394.29,417.24Z" transform="translate(-0.13)"/></g><g id="Duplicate_Items_Folder_Symbol_2_copy_3_0_Layer0_0_MEMBER_0_STROKES_1_FILL" data-name="Duplicate Items Folder Symbol 2 copy 3 0 Layer0 0 MEMBER 0 STROKES 1 FILL"><path class="cls-5" d="M358.18,428.32l.25-3.93q.12-.15-.15-.21a.23.23,0,0,0-.25.13,22.76,22.76,0,0,0-.27,5.32,40.88,40.88,0,0,0,.51,5.32l1,5.3.86,3.25.12.33,0,.38,5.89,16.61,4.64,10c.81,1.77,27.44,35.6,27.44,35.6l2.27,1.42c.1.15.17.15.21,0s.16-.15,0-.19l-2.61-2.14S372.73,472,369.3,465.57a49.46,49.46,0,0,1-2.24-5l-6.12-16.79,0-.38-.26-.67-.11-.63-.57-1.91c-.58-2.82-.93-4.57-1-5.25a41.43,41.43,0,0,1-.69-5.23Z" transform="translate(-0.13)"/></g><g id="Duplicate_Items_Folder_Symbol_2_copy_3_0_Layer0_0_FILL-2" data-name="Duplicate Items Folder Symbol 2 copy 3 0 Layer0 0 FILL"><path class="cls-4" d="M158.79,444.63Q142.48,466.28,142,466.77l-2.25,2.73A28.81,28.81,0,0,0,136,477q-4,12.57,6,24.36,12.54,14.79,28,7.05a35.85,35.85,0,0,0,9.3-6.74l3.6-3.92c6.54-11.8,16.43-22.17,24.48-32.94,7.68-10.28,9.1-24.08,7.72-36.48-.68-6.06-1.81-12.9-4.44-18.46-1.13-2.38-6.71-13-10.56-11.28a33.18,33.18,0,0,0-7,4.68,89.07,89.07,0,0,0-9.92,10Q175.86,421.91,158.79,444.63Z" transform="translate(-0.13)"/></g><g id="Duplicate_Items_Folder_Symbol_2_copy_3_0_Layer0_0_MEMBER_0_STROKES_1_FILL-2" data-name="Duplicate Items Folder Symbol 2 copy 3 0 Layer0 0 MEMBER 0 STROKES 1 FILL"><path class="cls-5" d="M219.29,425.75a43.21,43.21,0,0,1-.68,5.23q-.17,1-1,5.26l-.57,1.9-.11.64-.25.66,0,.38-6.12,16.79a48.5,48.5,0,0,1-2.24,5c-3.43,6.42-28.76,39.9-28.76,39.9l-2.61,2.14c-.18,0-.19.11,0,.19s.11.16.22,0l2.26-1.43s26.63-33.82,27.44-35.6l4.65-10,5.88-16.61,0-.38.13-.33.85-3.25.95-5.3a40.82,40.82,0,0,0,.52-5.32,23.29,23.29,0,0,0-.28-5.32.23.23,0,0,0-.25-.13c-.18,0-.23.11-.15.22l.25,3.92Z" transform="translate(-0.13)"/></g><g id="Duplicate_Items_Folder_Symbol_6_copy_0_Layer0_0_FILL" data-name="Duplicate Items Folder Symbol 6 copy 0 Layer0 0 FILL"><path class="cls-2" d="M303,804.65c-.57,2.14-1.23,5.27-2,9.37a37.12,37.12,0,0,0-.85,5.49,11.12,11.12,0,0,0,.94,5.21q2.65,5.49,14.39,11a77.48,77.48,0,0,0,17.42,6.06,40,40,0,0,0,15-.19q9.38-2.28,14.87-3.13,9.36-1.5,13-5.39a13.92,13.92,0,0,0,3.4-7.95,19.92,19.92,0,0,0-1.13-8.9,7.19,7.19,0,0,0-2.18-3.6,7.61,7.61,0,0,0-2.84-1.23,55.76,55.76,0,0,0-6.72-1q-4.74-.57-6.82-1-8.32-1.8-11.08-7.2l-1.7-4a15.61,15.61,0,0,0-5.4-6.15,19.77,19.77,0,0,0-7.66-3.12q-7-1.23-16.38,2-6.63,2.28-10,5.59A19.08,19.08,0,0,0,303,804.65Z" transform="translate(-0.13)"/></g><g id="Duplicate_Items_Folder_Symbol_6_copy_0_Layer0_1_MEMBER_0_FILL" data-name="Duplicate Items Folder Symbol 6 copy 0 Layer0 1 MEMBER 0 FILL"><path class="cls-6" d="M384.5,813.25a22.56,22.56,0,0,0-10.92-4.15q-4.54,0-6.81-.14-6-1.2-9.06-1.75c-3.53-.61-6.27-.37-8.25.72a16.83,16.83,0,0,0-2.68,2.06,10.52,10.52,0,0,1-2.67,1.67,17.35,17.35,0,0,1-4.37.52,9.88,9.88,0,0,0-4.17.73c-1.21.68-2.85,2.83-4.93,6.43a34.63,34.63,0,0,0-4.75,19.83q12.84,8.16,38.29,9.4,23.93,1.15,36.13-4.13-1.79-13.87-7.33-22.5A29.19,29.19,0,0,0,384.5,813.25Z" transform="translate(-0.13)"/></g><g id="Duplicate_Items_Folder_Symbol_6_copy_0_Layer0_1_MEMBER_1_FILL" data-name="Duplicate Items Folder Symbol 6 copy 0 Layer0 1 MEMBER 1 FILL"><path class="cls-7" d="M327.31,827.1a37.61,37.61,0,0,0-1.42,12.07q12.84,8.16,38.29,9.4,23.93,1.15,36.13-4.13a64.71,64.71,0,0,0-3.47-14.83,5.12,5.12,0,0,1-.9,3.12,4.88,4.88,0,0,1-3.53,1.76,10.92,10.92,0,0,1-4.44-.72,13.34,13.34,0,0,1-7.94-6.64,7.13,7.13,0,0,1-2.09,6.77q-2.88,2.51-8.18,2.53a17.24,17.24,0,0,1-9.81-2.3,11.09,11.09,0,0,1-3.36-3.16,8.81,8.81,0,0,1-1.64-4.08,7.08,7.08,0,0,1-4.07,6.15c-2.35,1.24-5.39,1.57-9.1,1A29.67,29.67,0,0,1,327.31,827.1Z" transform="translate(-0.13)"/></g><g id="Duplicate_Items_Folder_Symbol_6_copy_0_Layer0_1_MEMBER_2_MEMBER_0_MEMBER_0_FILL" data-name="Duplicate Items Folder Symbol 6 copy 0 Layer0 1 MEMBER 2 MEMBER 0 MEMBER 0 FILL"><path class="cls-8" d="M382.6,812.75a30.39,30.39,0,0,1,11.81,13.74,49.45,49.45,0,0,1,3.18,9.1c.12.39.47,2,1.06,4.77l.43,3-.38.14q-7,2.6-18.23,3.52a127,127,0,0,1-17.79.25q-18-.91-30.1-5.59L326.85,839l-.56-.35a.2.2,0,0,1-.09-.3l0-4.08a38.25,38.25,0,0,1,1.55-8.44,49.81,49.81,0,0,1,2-5.07l.88-1.7-1,1.69a33,33,0,0,0-2.16,5,36.72,36.72,0,0,0-1.93,8.49l-.16,4.63a.71.71,0,0,0,.27.41l6.67,3.36q12.42,5.26,30.47,6.38a141.54,141.54,0,0,0,18.07.07q11.85-1,18.79-3.54l1.71-.65v-.19l-1.75-9.4a46.34,46.34,0,0,0-3.36-9.51,31.27,31.27,0,0,0-12.84-14.42,23.34,23.34,0,0,0-8.37-3.08,20.85,20.85,0,0,0-4.16-.22c-2.21.06-3.47.06-3.79,0a67,67,0,0,1-7.27-1.25,23,23,0,0,0-7-.74,9.09,9.09,0,0,0-5.52,2.57q-2.79,2.42-4.3,2.71c-2.15.12-3.73.25-4.74.38a5.47,5.47,0,0,0-3.71,1.36,11.87,11.87,0,0,0-1.93,2.42q-.48.71-1.17,2l-.87,1.6,1-1.59a40.72,40.72,0,0,1,3.28-4.16,6,6,0,0,1,3.52-1.1,19.67,19.67,0,0,1,2.27,0,11.54,11.54,0,0,0,2.56-.26q1.69-.27,4.67-2.67a8.58,8.58,0,0,1,5.15-2.13,22.83,22.83,0,0,1,6.61.78,52.76,52.76,0,0,0,7.45,1.46c1.77.15,4.38.27,7.85.37A22.14,22.14,0,0,1,382.6,812.75Z" transform="translate(-0.13)"/></g><g id="Duplicate_Items_Folder_Symbol_6_copy_0_Layer0_1_MEMBER_3_MEMBER_0_MEMBER_0_FILL" data-name="Duplicate Items Folder Symbol 6 copy 0 Layer0 1 MEMBER 3 MEMBER 0 MEMBER 0 FILL"><path class="cls-8" d="M392.88,821.66l2.39,4.64a56.76,56.76,0,0,1,3.67,13.24l.6,4.15-4,1.32a74.5,74.5,0,0,1-10.15,1.92,135.5,135.5,0,0,1-24.32,0q-20.91-1-43.65-11.08a63,63,0,0,1-12.2-6.77l-1.68-1.43a7.8,7.8,0,0,1-1.21-1.19l-.84-1,1.86,2.21a9,9,0,0,0,1.68,1.53,61.27,61.27,0,0,0,12.09,7.6,143.52,143.52,0,0,0,19.38,7.72,100.41,100.41,0,0,0,24.72,4.46,122.1,122.1,0,0,0,24.52-.39,56.85,56.85,0,0,0,10.35-2.27l4.76-1.9-.87-5a54.84,54.84,0,0,0-4.44-13.33Z" transform="translate(-0.13)"/></g><g id="Duplicate_Items_Folder_Symbol_6_copy_0_Layer0_1_MEMBER_4_MEMBER_0_MEMBER_0_FILL" data-name="Duplicate Items Folder Symbol 6 copy 0 Layer0 1 MEMBER 4 MEMBER 0 MEMBER 0 FILL"><path class="cls-8" d="M377.08,821.58l1.43,4.91q1.35,5,2.67,11.69l1,6.48.17,1.72.09.3,2.26.27,2.46-.09a23.05,23.05,0,0,0,3.61-.52L392,846l-4.92-.12-2.36-.37-.66-.18-.18,0v-.66a54.29,54.29,0,0,0-.75-6.63,50.72,50.72,0,0,0-3.7-11.82Z" transform="translate(-0.13)"/></g><g id="Duplicate_Items_Folder_Symbol_6_copy_0_Layer0_1_MEMBER_5_MEMBER_0_MEMBER_0_FILL" data-name="Duplicate Items Folder Symbol 6 copy 0 Layer0 1 MEMBER 5 MEMBER 0 MEMBER 0 FILL"><path class="cls-8" d="M352.79,819.53l-1-1.16.74,1.32a13.75,13.75,0,0,1,1,3.53q.18,1,1.33,12.29l1,9.69a2.28,2.28,0,0,1-.1.84,1.78,1.78,0,0,1-.76.1,31.53,31.53,0,0,1-3.59-.62l-1.41-.35,1.31.63a23.45,23.45,0,0,0,3.67,1.38,2.5,2.5,0,0,0,1.61-.18,1.92,1.92,0,0,0,.69-1.63l0-3a65.08,65.08,0,0,0-.37-6.87,69,69,0,0,0-2.37-12.41A13.6,13.6,0,0,0,352.79,819.53Z" transform="translate(-0.13)"/></g><g id="Duplicate_Items_Folder_Symbol_7_copy_5_0_Layer0_0_FILL" data-name="Duplicate Items Folder Symbol 7 copy 5 0 Layer0 0 FILL"><path class="cls-9" d="M318.14,559.07q-22,3.21-29.53,29.44a77,77,0,0,0-3.32,25.56q3.13,25.75,6.63,87.29,1.71,24.81,2.65,63.15.76,32.18.76,49.6a24.72,24.72,0,0,0,14.48,1.8q5.2-.66,12.41-4.54,4.15-2.08,12.68-6.82a51.3,51.3,0,0,1,15.24-4.92q9.75-57.28,13.35-102.34a516.48,516.48,0,0,0,4.26-56.62q.19-9.36-.47-50.27Q353.27,554.15,318.14,559.07Z" transform="translate(-0.13)"/></g><g id="Duplicate_Items_Folder_Symbol_9_copy_7_0_Layer0_0_FILL" data-name="Duplicate Items Folder Symbol 9 copy 7 0 Layer0 0 FILL"><path class="cls-2" d="M209.84,797.26l-1.71,4a15.82,15.82,0,0,1-2.08,2.74,14.54,14.54,0,0,0-2.08,2.65,38.47,38.47,0,0,0-3,7,39.54,39.54,0,0,0-2.18,14.58,5.12,5.12,0,0,0,.38,2.08c.38.76,1.42,1.39,3.12,1.9q39.87,12.67,41.09,12,.57-.37,5.59-8.71,4.73-8.24,6.44-11.64a11.15,11.15,0,0,0,.94-5.21,31.31,31.31,0,0,0-.94-5.49c-.7-4.11-1.33-7.23-1.9-9.38a18.35,18.35,0,0,0-4.26-8.23q-3.32-3.31-10-5.59-9.28-3.21-16.29-2a19.15,19.15,0,0,0-7.66,3.13A14.71,14.71,0,0,0,209.84,797.26Z" transform="translate(-0.13)"/></g><g id="Duplicate_Items_Folder_Symbol_9_copy_7_0_Layer0_1_MEMBER_0_FILL" data-name="Duplicate Items Folder Symbol 9 copy 7 0 Layer0 1 MEMBER 0 FILL"><path class="cls-6" d="M239.57,827.65q-3-5.77-4.83-7a10.5,10.5,0,0,0-4.17-1.23,18.15,18.15,0,0,1-4.35-1,13.49,13.49,0,0,1-2.65-2.08,25.36,25.36,0,0,0-2.65-2.27q-2.94-2.09-8.24-1.7a65.32,65.32,0,0,1-9.09.66q-4.54-.57-6.91-.66a19.86,19.86,0,0,0-10.89,2.74,27.25,27.25,0,0,0-8.61,7.76q-5.6,8-7.67,21.49,12.12,6.83,36.07,8.43,25.47,1.8,38.44-4.83A36.27,36.27,0,0,0,239.57,827.65Z" transform="translate(-0.13)"/></g><g id="Duplicate_Items_Folder_Symbol_9_copy_7_0_Layer0_1_MEMBER_1_FILL" data-name="Duplicate Items Folder Symbol 9 copy 7 0 Layer0 1 MEMBER 1 FILL"><path class="cls-7" d="M210,838.92q-4,2-9.85,1.13-5.4-.84-8.14-3.5a7.54,7.54,0,0,1-1.89-3.31,6.73,6.73,0,0,1-.1-3.69q-2.37,4.35-8.05,5.68t-7.95-2a5.54,5.54,0,0,1-.85-3.22,58.61,58.61,0,0,0-3.69,14.29q12.12,6.83,36.07,8.43,25.47,1.8,38.44-4.83a38.76,38.76,0,0,0-1.24-12.21,26,26,0,0,1-14.67,5.21,14.14,14.14,0,0,1-9-2,9.19,9.19,0,0,1-2.75-2.84,8.06,8.06,0,0,1-1.23-3.79,8.48,8.48,0,0,1-1.7,3.88A11.24,11.24,0,0,1,210,838.92Z" transform="translate(-0.13)"/></g><g id="Duplicate_Items_Folder_Symbol_9_copy_7_0_Layer0_1_MEMBER_2_MEMBER_0_MEMBER_0_FILL" data-name="Duplicate Items Folder Symbol 9 copy 7 0 Layer0 1 MEMBER 2 MEMBER 0 MEMBER 0 FILL"><path class="cls-8" d="M222.71,814.21a11.33,11.33,0,0,0-4.35-2.46q-2.75-.66-9.09,0a31.11,31.11,0,0,1-8.24.19,29.67,29.67,0,0,0-4.07-.38,21.26,21.26,0,0,0-4.07.28,23.63,23.63,0,0,0-12.68,6.72,31.43,31.43,0,0,0-6.63,9.85,43.74,43.74,0,0,0-2.75,8.43,54.34,54.34,0,0,0-1,5.58l-.28,1.89.38-1.89a45.92,45.92,0,0,1,1.23-5.49,50.74,50.74,0,0,1,3-8.24,30.3,30.3,0,0,1,6.81-9.37,22.25,22.25,0,0,1,12.22-6.06,21.57,21.57,0,0,1,7.66.29,30.93,30.93,0,0,0,8.62-.1c3.85-.38,6.66-.31,8.43.19a7.76,7.76,0,0,1,3.5,2q1.14.95,3.6,3.22a13.24,13.24,0,0,0,4.92,1.51,9.67,9.67,0,0,1,4.16,1.14,10.58,10.58,0,0,1,2.85,3.31l2.27,4.36a41.85,41.85,0,0,1,3.12,9c.38,2.21.6,3.76.66,4.64l.1,4.45c0,.06,0,.09-.1.09l-1,.48L235.59,850,227,851.6a131.39,131.39,0,0,1-30.29-.28,109.13,109.13,0,0,1-20.17-4.17,45.75,45.75,0,0,1-5.2-2l-1.8-.86,1.7,1q.66.38,5.21,2.27a105.54,105.54,0,0,0,20.07,4.83,126.74,126.74,0,0,0,30.67.95l4.45-.57,8.9-2.27a14.88,14.88,0,0,0,2.18-.85l2.08-1c.19,0,.29,0,.29-.1V847l.09-.67-.19-3.59a32.94,32.94,0,0,0-.66-4.93,41.4,41.4,0,0,0-3.31-9.56l-2.28-4.45a14.89,14.89,0,0,0-3.5-4.07,7.23,7.23,0,0,0-2.56-1c-1.13-.19-2-.34-2.46-.47a10.83,10.83,0,0,1-4.07-1.14Q223.95,815.25,222.71,814.21Z" transform="translate(-0.13)"/></g><g id="Duplicate_Items_Folder_Symbol_9_copy_7_0_Layer0_1_MEMBER_3_MEMBER_0_MEMBER_0_FILL" data-name="Duplicate Items Folder Symbol 9 copy 7 0 Layer0 1 MEMBER 3 MEMBER 0 MEMBER 0 FILL"><path class="cls-8" d="M177.18,822.82,175,826a41.27,41.27,0,0,0-4.36,9.85q-1.32,5.11-1.7,7.19l-.19,1.42a.31.31,0,0,0,.1.38.82.82,0,0,0,.37.19l.76.29,1.89,1,4.08,1.7a99,99,0,0,0,18.93,4.55q19.32,2.83,35.31-.1a56.15,56.15,0,0,0,6-1.42l4.35-1.51,3.51-1.71L236,850.56a52.77,52.77,0,0,1-6,1q-15.13,2-34.84-1a102.59,102.59,0,0,1-18.65-4.16L170.64,844l-.28-.19v-.57c.38-2.4.82-4.76,1.33-7.1a39.8,39.8,0,0,1,3.59-10Z" transform="translate(-0.13)"/></g><g id="Duplicate_Items_Folder_Symbol_9_copy_7_0_Layer0_1_MEMBER_4_MEMBER_0_MEMBER_0_FILL" data-name="Duplicate Items Folder Symbol 9 copy 7 0 Layer0 1 MEMBER 4 MEMBER 0 MEMBER 0 FILL"><path class="cls-8" d="M193,824.62l-2.46,4.26a49.24,49.24,0,0,0-3.89,11.36,57.39,57.39,0,0,0-.85,6.63v.66h-.19l-.66.1h-2.37a17.76,17.76,0,0,1-3.59-.29l-1.33-.19,1.23.57a26.27,26.27,0,0,0,3.6.95l2.46.38h2c.19,0,.28,0,.28-.1l.1-.28,1.32-7.95q1.43-6.54,2.84-11.36Z" transform="translate(-0.13)"/></g><g id="Duplicate_Items_Folder_Symbol_9_copy_7_0_Layer0_1_MEMBER_5_MEMBER_0_MEMBER_0_FILL" data-name="Duplicate Items Folder Symbol 9 copy 7 0 Layer0 1 MEMBER 5 MEMBER 0 MEMBER 0 FILL"><path class="cls-8" d="M217.6,825.57l.76-1.14-1,1a14,14,0,0,0-1.8,3.41,69.06,69.06,0,0,0-3,18.93v3a2,2,0,0,0,.66,1.61,1.88,1.88,0,0,0,1.61.38,16.6,16.6,0,0,0,3.69-.85l1.33-.57-1.42.28a22.8,22.8,0,0,1-3.6.1,3.2,3.2,0,0,1-.76-.19,2.09,2.09,0,0,1-.09-.76l1.14-9.56q1.32-11.18,1.51-12.12A17.24,17.24,0,0,1,217.6,825.57Z" transform="translate(-0.13)"/></g><g id="Duplicate_Items_Folder_Symbol_8_copy_9_0_Layer0_0_FILL" data-name="Duplicate Items Folder Symbol 8 copy 9 0 Layer0 0 FILL"><path class="cls-9" d="M288.23,591.92q-5.4-26.7-27.08-31.72-34.56-8-51.69,27-4.17,40.62-4.83,50a481.14,481.14,0,0,0-.66,56.62v.09q-.37,45.26,4.35,103.19a53.79,53.79,0,0,1,14.77,6.16q8.34,5.49,12.12,8a38,38,0,0,0,12.12,5.49,25.22,25.22,0,0,0,14.48-.47Q263.33,799,267,767q4.26-38.25,8-62.77,8.91-61.07,14.3-86.44A83.79,83.79,0,0,0,288.23,591.92Z" transform="translate(-0.13)"/></g><g id="Duplicate_Items_Folder_Symbol_24_copy_5_0_Layer0_0_FILL" data-name="Duplicate Items Folder Symbol 24 copy 5 0 Layer0 0 FILL"><path class="cls-10" d="M231.14,351.73a14.52,14.52,0,0,1,5.68,4q7.77,8.81,5.4,29.25l91.17,5a55.34,55.34,0,0,1,1.13-23.19,53.21,53.21,0,0,1,10.32-20.45l-56.71-26.89-59.64,31.62Z" transform="translate(-0.13)"/></g><g id="Duplicate_Items_Folder_Symbol_10_copy_2_0_Layer1_0_FILL" data-name="Duplicate Items Folder Symbol 10 copy 2 0 Layer1 0 FILL"><path class="cls-9" d="M312.74,620.79c.4-1.89.35-3.28-.15-4.16a3.87,3.87,0,0,0-3-1.8q-5.11-1.23-12.19-2.37a125.68,125.68,0,0,0-33.56-.57,7.47,7.47,0,0,0-2.26.57,3.38,3.38,0,0,0-1.8,1.61,9.55,9.55,0,0,0-.45,4.26l.6,7.2a32.88,32.88,0,0,0,.52,4.35l1,3.31c.2.95.35,1.61.45,2a3.23,3.23,0,0,0,.83,1.61,2.93,2.93,0,0,0,2.11.66c.6,0,1.5-.06,2.71-.18l8.57-1.33a40.34,40.34,0,0,1,7.23-.47,97.61,97.61,0,0,1,19.48,1.61c1.66.37,2.81.28,3.47-.29q.83-.57,1.65-3.6c.2-.7.51-1.58.9-2.65a3.51,3.51,0,0,0,1.89-.66,3,3,0,0,0,1.05-1.51,2.73,2.73,0,0,0-.08-1.9,2.08,2.08,0,0,0-.75-.85,34.2,34.2,0,0,0,1.81-4.83m-10.46,3.79a2.65,2.65,0,0,0,.3-1.89,13.5,13.5,0,0,1,3.61-.38q-.3.8-.75,1.8l-.3.66a19.51,19.51,0,0,1-2.86-.19m-34.84-1.14a2.86,2.86,0,0,1-.3.19,2.64,2.64,0,0,0-1.35,2.09h-.23c0-.28,0-.56,0-.86l-.15-2.08a7,7,0,0,1,1.88.47Z" transform="translate(-0.13)"/></g><g id="Duplicate_Items_Folder_Symbol_10_copy_2_0_Layer0_0_MEMBER_0_MEMBER_0_FILL" data-name="Duplicate Items Folder Symbol 10 copy 2 0 Layer0 0 MEMBER 0 MEMBER 0 FILL"><path class="cls-11" d="M270.9,636.32l5.12-.38a111.6,111.6,0,0,1,12.19-.09A84,84,0,0,1,300.32,637c2.11.32,3.79.63,5,.95a37.85,37.85,0,0,0-5-1.52,63.92,63.92,0,0,0-12.19-1.61,85.39,85.39,0,0,0-12.27.57Z" transform="translate(-0.13)"/></g><g id="Duplicate_Items_Folder_cee_copy_0_Layer6_0_FILL" data-name="Duplicate Items Folder cee copy 0 Layer6 0 FILL"><path class="cls-4" d="M348.91,383.07q-5.12-3.22-13.35-7.39a183.67,183.67,0,0,0-31.33-12.78A37.82,37.82,0,0,0,287,362a37.71,37.71,0,0,0-17.23.94,186.17,186.17,0,0,0-31.43,12.78L225,383.07q-8.43,4.55-26.61,17.14-9.27,6.33,4.64,41a7,7,0,0,1,1,2.93l7.58,40.05a52.31,52.31,0,0,1,.66,9.56,37.59,37.59,0,0,0,1.23,6.25q1.23,4.74,1.52,6.15A114,114,0,0,1,216.66,519a95.63,95.63,0,0,1,0,12q-.19,4-.67,12c-.06,1.13-.12,2.8-.19,5a28.45,28.45,0,0,1-.56,5c-.07.32-.54,2.27-1.43,5.87-.5,2.34-.88,4.29-1.13,5.87a26.42,26.42,0,0,0-.19,9.94,32.13,32.13,0,0,0,3.79,7.76c.28.47.56.91.85,1.33h.09q128.67,9,136.14,4t9.28-14.49a18.91,18.91,0,0,0-.38-7.38q-1.23-4.83-1.61-7.29-1.8-13.17-2-14.39a70.5,70.5,0,0,1-.19-11.65q.67-7.75.95-11.74.19-2.92,0-10.88a83.55,83.55,0,0,1,.38-10.7q1.6-11.18,4.83-27.65,3.6-18.36,5.3-27.55a8.2,8.2,0,0,1,.95-2.93q14-34.65,4.73-41Q356.86,387.42,348.91,383.07Z" transform="translate(-0.13)"/></g><g id="Duplicate_Items_Folder_cee_copy_0_Layer5_0_FILL" data-name="Duplicate Items Folder cee copy 0 Layer5 0 FILL"><path class="cls-5" d="M367,461.65q.18-6.06-1.05-.19a453.94,453.94,0,0,0-7.38,46.29q-.94,9.29-1.23,13.35l-.47,6.35q0,1.13.18,6.15a173.64,173.64,0,0,0,2.18,21,126.11,126.11,0,0,0,3.32,13.82l.56,2.08a4.27,4.27,0,0,1-.19,1.61,2.74,2.74,0,0,0,.38-1.61,16.7,16.7,0,0,0-.47-2.18q-1.71-7.67-2.56-13.91a208.73,208.73,0,0,1-1.42-20.93v-6l1.8-19.5Q363.79,480.86,367,461.65Z" transform="translate(-0.13)"/></g><g id="Duplicate_Items_Folder_cee_copy_0_Layer4_0_FILL" data-name="Duplicate Items Folder cee copy 0 Layer4 0 FILL"><path class="cls-8" d="M213.91,561.81h-.66l-1.8,11.65Z" transform="translate(-0.13)"/><path class="cls-5" d="M203.59,442.62l3.41,19q3.31,20,6.25,46.29.28,2.85,1.7,13.35,1.05,7.77,1.23,12.21.28,7.2-1.7,20.74l-1.23,7.57h.66l1.61-7.38a114.55,114.55,0,0,0,2.46-21q-.09-4.74-.95-12.4-1.41-11.55-1.61-13.26-2.64-24.13-7.29-46.29Z" transform="translate(-0.13)"/></g><g id="Duplicate_Items_Folder_Symbol_8_copy_6_0_Layer0_0_MEMBER_0_MEMBER_0_MEMBER_0_FILL" data-name="Duplicate Items Folder Symbol 8 copy 6 0 Layer0 0 MEMBER 0 MEMBER 0 MEMBER 0 FILL"><path class="cls-5" d="M277,423.75l-1.43-4.84,1.61,4.78q3.63,10.8,5.21,17.72a32,32,0,0,1,.75,6.16l-.3,54.23q-.52,56.05-.52,60.33,0,7.92.15,18.28l.18,6.73-.36-6.73q-.48-10.54-.64-18.28-.47-22.7,0-60.39l.79-54.23a35.48,35.48,0,0,0-.62-6Q280.25,434.43,277,423.75Z" transform="translate(-0.13)"/></g><g id="Duplicate_Items_Folder_Symbol_8_copy_6_0_Layer0_0_MEMBER_1_FILL" data-name="Duplicate Items Folder Symbol 8 copy 6 0 Layer0 0 MEMBER 1 FILL"><path class="cls-10" d="M311.75,364.23a65,65,0,0,1,14.57,6.29q5.22,3.08,5.13,3.77-1.67,16.92-14.82,30.07a76.88,76.88,0,0,1-19.73,14q-1.83.94-6,10.94-3.84,9-8.44,22.59.51-6.11-1.85-15.67-1.71-7-5.73-18.55-6.66-4-17.73-14.66-11.9-11.39-14.89-17.42a25.17,25.17,0,0,1-2.76-7.55,6.71,6.71,0,0,1,2.87-6.29,52.88,52.88,0,0,1,7.65-5,63.47,63.47,0,0,1,32.89-7.93A92.78,92.78,0,0,1,311.75,364.23Z" transform="translate(-0.13)"/></g><g id="Duplicate_Items_Folder_Symbol_8_copy_6_0_Layer0_0_MEMBER_2_FILL" data-name="Duplicate Items Folder Symbol 8 copy 6 0 Layer0 0 MEMBER 2 FILL"><path class="cls-4" d="M334.56,376c2.26,1,3.45,2.26,3.56,3.77q.67,8.57-5.65,30.82-7.28,25.73-8,31.39-10.56-14-19.61-20.13-5.43-3.64-8-3.52,8.81-3.7,18.35-15a81.78,81.78,0,0,0,15.87-28.43A15.84,15.84,0,0,1,334.56,376Z" transform="translate(-0.13)"/></g><g id="Duplicate_Items_Folder_Symbol_8_copy_6_0_Layer0_0_MEMBER_3_FILL" data-name="Duplicate Items Folder Symbol 8 copy 6 0 Layer0 0 MEMBER 3 FILL"><path class="cls-4" d="M243.32,369.7q7.53,19.5,14.25,30.25,7.95,12.78,17.26,17.68-20.62-2-29.4,17-8.66-32.21-6.83-60.76c.07-1.13.87-2.16,2.4-3.08Z" transform="translate(-0.13)"/></g><g id="Duplicate_Items_Folder_Symbol_8_copy_6_0_Layer0_0_MEMBER_4_MEMBER_0_MEMBER_0_MEMBER_0_FILL" data-name="Duplicate Items Folder Symbol 8 copy 6 0 Layer0 0 MEMBER 4 MEMBER 0 MEMBER 0 MEMBER 0 FILL"><path class="cls-5" d="M337.75,380.82l-.08-1.95a3.79,3.79,0,0,0-2.18-2.57c-1.64-.67-2.81-1.2-3.51-1.57q-.08-.08-.06,0l-2.71,5.9A117.08,117.08,0,0,1,315.51,403a51.41,51.41,0,0,1-12.78,11.94l-2,1.07,1.88-1.26A54.09,54.09,0,0,0,315,402.63a123.36,123.36,0,0,0,13.21-22.5l3.14-7,.8.44.37.13.19.12,3.21,1.39a6.73,6.73,0,0,1,1.81,1.38,4.21,4.21,0,0,1,1.07,2.13,34.89,34.89,0,0,1-.28,8.61l-1.5,8.55q-1.57,6.78-4.35,16.34-1.53,5.28-4.35,15.08-1.11,3.76-1.81,7l-1.58,8v.19c-.07.08-.12,0-.12-.13l-.26-.25-4-5q-2.69-3.15-4-4.53-7.57-8.48-13.43-12.25a20.54,20.54,0,0,0-4.33-2.14,5.37,5.37,0,0,0-1.28-.31,5.75,5.75,0,0,1,1.28.25,17.35,17.35,0,0,1,4.45,2q5.66,3.39,13.78,12l7.14,8.11a2.11,2.11,0,0,1,.19.25s.06,0,.05-.13l1.17-6.34q1.23-5.16,1.8-7.1.74-2.71,4.23-15.15,2.71-9.8,4.23-16.34l1.5-8.42q.09-.69.42-4.14C337.72,382,337.73,381.28,337.75,380.82Z" transform="translate(-0.13)"/></g><g id="Duplicate_Items_Folder_Symbol_8_copy_6_0_Layer0_0_MEMBER_4_MEMBER_1_MEMBER_0_MEMBER_0_FILL" data-name="Duplicate Items Folder Symbol 8 copy 6 0 Layer0 0 MEMBER 4 MEMBER 1 MEMBER 0 MEMBER 0 FILL"><path class="cls-5" d="M267.12,411.42a40,40,0,0,1-2.91-2.95,79.78,79.78,0,0,1-6.11-8.11q-5.7-8.53-12-23.43l-2.78-6.79-.06-.06-.83.37-1.48.88a5.5,5.5,0,0,0-1.15,1.26,2.67,2.67,0,0,0-.35,1.57,153.47,153.47,0,0,0-.06,16.46,200.88,200.88,0,0,0,4,31.68l2.4,10.43c0,.16,0,.21.06.12l.28-.56a28.74,28.74,0,0,1,7.27-9.24,24.22,24.22,0,0,1,8.33-4.65,26.39,26.39,0,0,1,7.13-1.38,22.83,22.83,0,0,1,4.6.06l1.58.13-1.57-.07a33.21,33.21,0,0,0-4.6.07,25.6,25.6,0,0,0-15.08,6.34,29.55,29.55,0,0,0-6.91,9.18l-1.34,2.64c0,.08,0,.06-.06-.07v-.19l-3.17-12.69a194.33,194.33,0,0,1-4.2-31.8,148.43,148.43,0,0,1,.11-16.59,3.37,3.37,0,0,1,.51-2.13,6.15,6.15,0,0,1,1.44-1.57,13.87,13.87,0,0,1,1.72-.95,3.34,3.34,0,0,1,.89-.37,8.6,8.6,0,0,1,.83-.32q.42-.06.51.51l2.92,7.29a149.53,149.53,0,0,0,11.58,23.56,80.67,80.67,0,0,0,5.87,8.17l5.32,5.34,5.24,3.65-1.43-.82a11.25,11.25,0,0,1-1.68-1.07l-2.25-1.63C268.61,412.72,267.75,412,267.12,411.42Z" transform="translate(-0.13)"/></g><g id="Duplicate_Items_Folder_Symbol_8_copy_6_0_Layer0_0_MEMBER_5_MEMBER_0_MEMBER_0_FILL" data-name="Duplicate Items Folder Symbol 8 copy 6 0 Layer0 0 MEMBER 5 MEMBER 0 MEMBER 0 FILL"><path class="cls-5" d="M296.76,418.1l.36-.19-.29.25a4.19,4.19,0,0,0-.69.82,30.64,30.64,0,0,0-1.85,3.39q-1.44,2.89-5.21,11.94-3.39,8.35-4.66,12.19c-.5,1.51-.87,2.79-1.1,3.83a8.46,8.46,0,0,0-.24,1.45l.05-1.51a36.81,36.81,0,0,1,.67-4,87.14,87.14,0,0,1,4.1-12.57,82.4,82.4,0,0,1,5.83-11.69,19.35,19.35,0,0,1,2.28-3.2A4.43,4.43,0,0,1,296.76,418.1Z" transform="translate(-0.13)"/></g><g id="Duplicate_Items_Folder_Symbol_8_copy_6_0_Layer0_0_MEMBER_6_FILL" data-name="Duplicate Items Folder Symbol 8 copy 6 0 Layer0 0 MEMBER 6 FILL"><path class="cls-5" d="M274.91,464.24a2.63,2.63,0,0,1-1.24-1.89q-.48-2.7,2.34-3.33t3.31,2.26a3.51,3.51,0,0,1-.51,2.2,2.6,2.6,0,0,1-1.76,1.26A2.57,2.57,0,0,1,274.91,464.24Z" transform="translate(-0.13)"/></g><g id="Duplicate_Items_Folder_Symbol_8_copy_6_0_Layer0_0_MEMBER_7_FILL" data-name="Duplicate Items Folder Symbol 8 copy 6 0 Layer0 0 MEMBER 7 FILL"><path class="cls-5" d="M274.12,510.53a2.75,2.75,0,0,1-1.23-1.89q-.5-2.76,2.33-3.33c1.88-.38,3,.38,3.25,2.26a3.22,3.22,0,0,1-.44,2.21,2.87,2.87,0,0,1-1.77,1.25A2.58,2.58,0,0,1,274.12,510.53Z" transform="translate(-0.13)"/></g><g id="Duplicate_Items_Folder_Symbol_8_copy_6_0_Layer0_0_MEMBER_8_FILL" data-name="Duplicate Items Folder Symbol 8 copy 6 0 Layer0 0 MEMBER 8 FILL"><path class="cls-5" d="M273.43,558.9A2.75,2.75,0,0,1,272.2,557q-.49-2.76,2.33-3.33t3.25,2.26a3.27,3.27,0,0,1-.44,2.2,2.66,2.66,0,0,1-3.91.76Z" transform="translate(-0.13)"/></g><path id="Duplicate_Items_Folder_cee_copy_0_Layer2_0_1_STROKES" data-name="Duplicate Items Folder cee copy 0 Layer2 0 1 STROKES" class="cls-12" d="M210.31,584.15q8.43,5.88,28.69,9.76a268,268,0,0,0,43.55,4.16q56.61,1,80.85-14.86.86-11-.95-15.72-24.24,15.91-79.52,15a257.51,257.51,0,0,1-42.7-4q-19.89-3.8-28.31-9.66a28.68,28.68,0,0,0-1.61,6.91A30.48,30.48,0,0,0,210.31,584.15Z" transform="translate(-0.13)"/><g id="Duplicate_Items_Folder_cee_copy_0_Layer1_0_FILL" data-name="Duplicate Items Folder cee copy 0 Layer1 0 FILL"><path class="cls-13" d="M212.16,561.55q16.88,7.28,44.38,11a233.67,233.67,0,0,0,107.92-10.76q3.41,15.75,1.06,23.78a225.39,225.39,0,0,1-81,15.3q-44.76.3-76.12-15.68a40.38,40.38,0,0,1-.07-12.8A27.06,27.06,0,0,1,212.16,561.55Z" transform="translate(-0.13)"/></g><g id="Duplicate_Items_Folder_cee_copy_0_Layer1_1_FILL" data-name="Duplicate Items Folder cee copy 0 Layer1 1 FILL"><path class="cls-14" d="M226.36,564.24a27.45,27.45,0,0,1,5,1.52q-.9,5.75-.75,19.16.08,6.66.3,12.27c-.15.2-1.79.07-4.92-.38s-5.15-.91-5.61-1.36q-1.05-2.28-.83-16.29.22-14.16,1.59-15.37C221.94,563.43,223.68,563.59,226.36,564.24Z" transform="translate(-0.13)"/></g><g id="Duplicate_Items_Folder_cee_copy_0_Layer1_2_FILL" data-name="Duplicate Items Folder cee copy 0 Layer1 2 FILL"><path class="cls-14" d="M325.46,570.34a17.06,17.06,0,0,1,4.77-1.36,21.24,21.24,0,0,1,5.38-.61q1.36,1.14,2.34,14.24,1,12.95.16,15.3c-.46.45-2.3,1-5.53,1.66s-4.77.81-4.93.61q-.15-5.22-.45-11.51A135.21,135.21,0,0,0,325.46,570.34Z" transform="translate(-0.13)"/></g><g id="Duplicate_Items_Folder_Symbol_9_copy_6_0_Layer0_0_MEMBER_0_MEMBER_0_FILL" data-name="Duplicate Items Folder Symbol 9 copy 6 0 Layer0 0 MEMBER 0 MEMBER 0 FILL"><path class="cls-15" d="M297.49,571.85c2.22.26,3.46,2.17,3.71,5.76q2.26,23.31-1.82,24.22-6.13,1.21-19.68.68-12.4-.53-13.47-1.21a6.72,6.72,0,0,1-1.67-2,8.63,8.63,0,0,1-1.36-3.78q-1.89-15-.38-19.61,1.14-3.41,7.72-3.86,11.9.07,22.79-.15Z" transform="translate(-0.13)"/></g><g id="Duplicate_Items_Folder_Symbol_9_copy_6_0_Layer0_0_MEMBER_1_MEMBER_0_FILL" data-name="Duplicate Items Folder Symbol 9 copy 6 0 Layer0 0 MEMBER 1 MEMBER 0 FILL"><path class="cls-1" d="M293.33,571.93l4.16-.08Q278.64,589.12,264,598.42a11.49,11.49,0,0,1-.83-2.87Q276.44,587.15,293.33,571.93Z" transform="translate(-0.13)"/></g><g id="Duplicate_Items_Folder_2efdew32we_copy_0_Layer0_0_MEMBER_0_MEMBER_0_FILL" data-name="Duplicate Items Folder 2efdew32we copy 0 Layer0 0 MEMBER 0 MEMBER 0 FILL"><path class="cls-16" d="M133.73,14.54Q141.41,5.72,148.15,2c4.37-2.33,8-2.67,10.77-1a15.65,15.65,0,0,1,4.13,4.6,213.08,213.08,0,0,0,41.78,47,213,213,0,0,0,53.62,32.8L132.45,186A132.3,132.3,0,0,1,110.22,54.47,130.9,130.9,0,0,1,133.73,14.54Z" transform="translate(-0.13)"/></g><g id="Duplicate_Items_Folder_2efdew32we_copy_0_Layer0_0_MEMBER_0_MEMBER_1_FILL" data-name="Duplicate Items Folder 2efdew32we copy 0 Layer0 0 MEMBER 0 MEMBER 1 FILL"><path class="cls-17" d="M154.4,17.2Q152.15,6.7,154.27.06a7.64,7.64,0,0,1,4.65,1,15.65,15.65,0,0,1,4.13,4.6,213.08,213.08,0,0,0,41.78,47,213,213,0,0,0,53.62,32.8l-15.09,12a182.22,182.22,0,0,1-48.05-16l5.42,7.68q-6.47-3.09-23.95-28.56Q157.66,32.92,154.4,17.2Z" transform="translate(-0.13)"/></g><g id="Duplicate_Items_Folder_2efdew32we_copy_0_Layer0_0_MEMBER_0_MEMBER_2_FILL" data-name="Duplicate Items Folder 2efdew32we copy 0 Layer0 0 MEMBER 0 MEMBER 2 FILL"><path class="cls-18" d="M147.67,43.87a9.82,9.82,0,0,1,3.51,3.28,36.59,36.59,0,0,1,2.41,4.41,236.34,236.34,0,0,0,41.63,60.31A99.7,99.7,0,0,1,171.28,139a100.74,100.74,0,0,1-32,16.92Q135,147.46,132,140.56q-5.85-13.38-3.28-15.29a12.52,12.52,0,0,0-5.09,8.86,106.12,106.12,0,0,1,5.58-69.67Q140,40.06,147.67,43.87Z" transform="translate(-0.13)"/></g><g id="Duplicate_Items_Folder_2efdew32we_copy_0_Layer0_0_MEMBER_0_MEMBER_3_FILL" data-name="Duplicate Items Folder 2efdew32we copy 0 Layer0 0 MEMBER 0 MEMBER 3 FILL"><path class="cls-19" d="M142.48,44.34a5.11,5.11,0,0,1,5.19-.47,9.29,9.29,0,0,1,3.51,3.28,36.25,36.25,0,0,1,2.42,4.35,237.81,237.81,0,0,0,41.62,60.37,101.28,101.28,0,0,1-54.35,43.53,57.57,57.57,0,0,0,16.75-18.51,55.7,55.7,0,0,0,6.57-24.27,80.87,80.87,0,0,0-3-25.39A139.61,139.61,0,0,0,153,65.34Q150.1,59,142.48,44.34Z" transform="translate(-0.13)"/></g><g id="Duplicate_Items_Folder_2edew2wdd_copy_0_Layer0_0_MEMBER_0_MEMBER_0_FILL" data-name="Duplicate Items Folder 2edew2wdd copy 0 Layer0 0 MEMBER 0 MEMBER 0 FILL"><path class="cls-20" d="M439.26,18.23q-7.44-9-14.06-12.9Q418.75,1.64,414.47,4q-1.73.94-4.27,4.49a213.28,213.28,0,0,1-43.08,45.8,213.17,213.17,0,0,1-54.53,31.27L435.68,189.65A132.32,132.32,0,0,0,461.63,58.81,131,131,0,0,0,439.26,18.23Z" transform="translate(-0.13)"/></g><g id="Duplicate_Items_Folder_2edew2wdd_copy_0_Layer0_0_MEMBER_0_MEMBER_1_FILL" data-name="Duplicate Items Folder 2edew2wdd copy 0 Layer0 0 MEMBER 0 MEMBER 1 FILL"><path class="cls-17" d="M418.53,20.31q2.52-10.44.61-17.13a7.63,7.63,0,0,0-4.67.85q-1.73.94-4.27,4.49a213.28,213.28,0,0,1-43.08,45.8,213.17,213.17,0,0,1-54.53,31.27l14.74,12.46a182.61,182.61,0,0,0,48.48-14.58L370.17,91q6.56-2.91,24.75-27.87Q414.83,35.93,418.53,20.31Z" transform="translate(-0.13)"/></g><g id="Duplicate_Items_Folder_2edew2wdd_copy_0_Layer0_0_MEMBER_0_MEMBER_2_FILL" data-name="Duplicate Items Folder 2edew2wdd copy 0 Layer0 0 MEMBER 0 MEMBER 2 FILL"><path class="cls-18" d="M424.49,47.15a9.84,9.84,0,0,0-3.6,3.18,39.23,39.23,0,0,0-2.54,4.34A236.26,236.26,0,0,1,375,113.78a99.77,99.77,0,0,0,23.16,27.76,100.81,100.81,0,0,0,31.48,17.82q4.59-8.31,7.78-15.11,6.23-13.22,3.71-15.2a11.77,11.77,0,0,1,3.37,4,11.64,11.64,0,0,1,1.47,5,106.19,106.19,0,0,0-3.61-69.79Q432.28,43.55,424.49,47.15Z" transform="translate(-0.13)"/></g><g id="Duplicate_Items_Folder_2edew2wdd_copy_0_Layer0_0_MEMBER_0_MEMBER_3_FILL" data-name="Duplicate Items Folder 2edew2wdd copy 0 Layer0 0 MEMBER 0 MEMBER 3 FILL"><path class="cls-19" d="M429.67,47.77a5.15,5.15,0,0,0-5.18-.62,9.25,9.25,0,0,0-3.6,3.18,37.45,37.45,0,0,0-2.54,4.28A237.87,237.87,0,0,1,375,113.78a101.3,101.3,0,0,0,53.1,45,57.69,57.69,0,0,1-16.23-19A55.76,55.76,0,0,1,406,115.41a80.45,80.45,0,0,1,3.72-25.29,139.13,139.13,0,0,1,8.81-21.66Q421.65,62.21,429.67,47.77Z" transform="translate(-0.13)"/></g><g id="Duplicate_Items_Folder_Symbol_21_copy_0_Layer0_0_FILL" data-name="Duplicate Items Folder Symbol 21 copy 0 Layer0 0 FILL"><path class="cls-21" d="M284.48,64.19q-2.24,0-6.74.27-5.43.29-13.42,1.19-9.94,1.23-20.7,3.47Q197.09,79.19,169,107.85q-19.35,19.73-29.17,53.58-2.75,9.38-7.43,28.37a218.25,218.25,0,0,1-9,28.06,108.6,108.6,0,0,1-10.13,19.5l-.79-.59a35.55,35.55,0,0,1-17.09,14,41.4,41.4,0,0,0,13.31,2.07,61.91,61.91,0,0,1-18.26,10,67.92,67.92,0,0,1-21.07,4,126.91,126.91,0,0,0,20.39,13.33l-.67,1.52A48.67,48.67,0,0,1,97,289.81a21.69,21.69,0,0,1-6.52.35Q103.61,304.62,130.6,323l10.55,7a287,287,0,0,0,61.41,28.7A316.59,316.59,0,0,0,285,374.07v.08l1.81,0v-.07A318,318,0,0,0,369.64,361a283.48,283.48,0,0,0,62.12-26.95l10.75-6.66q27.5-17.58,41-31.67a21.54,21.54,0,0,1-6.52-.53,57.68,57.68,0,0,1,8.16-7.92l-.63-1.54A124.1,124.1,0,0,0,505.38,273a68.38,68.38,0,0,1-21-4.58,62.11,62.11,0,0,1-18-10.54,40.41,40.41,0,0,0,13.36-1.7,35.55,35.55,0,0,1-16.61-14.44l-.88.57a118.93,118.93,0,0,1-9.57-19.77,219.59,219.59,0,0,1-8.23-28.31q-4.14-19.12-6.55-28.57-8.87-34.11-27.64-54.38Q383,81.83,336.79,70.44q-11.06-2.61-20.67-4.06A182.85,182.85,0,0,0,284.48,64.19Z" transform="translate(-0.13)"/></g><g id="Duplicate_Items_Folder_Symbol_21_copy_0_Layer0_1_FILL" data-name="Duplicate Items Folder Symbol 21 copy 0 Layer0 1 FILL"><path class="cls-22" d="M187.24,104.56q4.41-4.5,15.74-16.3,9.95-9.6,16.92-12.37-30.26,10.9-50.89,32-19.35,19.65-29.17,53.58-2.75,9.38-7.43,28.37a223.08,223.08,0,0,1-9,28.14,112.76,112.76,0,0,1-10.13,19.42l-.79-.59a35,35,0,0,1-17.09,14,41.4,41.4,0,0,0,13.31,2.07,61.91,61.91,0,0,1-18.26,10,67.92,67.92,0,0,1-21.07,4,120.39,120.39,0,0,0,20.46,13.34l-.74,1.51A48.38,48.38,0,0,1,97,289.81a24.22,24.22,0,0,1-6.52.35Q103.61,304.62,130.6,323l10.19,6.67.36.29a239.23,239.23,0,0,0,31.5,17.26,256.86,256.86,0,0,0,40.09,14.12,267.51,267.51,0,0,1-50.27-22.45q-24.4-15.93-38.63-25a52.32,52.32,0,0,0,21.28-3.39,230.69,230.69,0,0,1-48.55-31A34.91,34.91,0,0,0,110,279a36.81,36.81,0,0,0,12.33-5.4l-16.15-.52a36.44,36.44,0,0,0,13.51-2.49,39.09,39.09,0,0,0,12.65-7.72,238,238,0,0,1,5.81-57.39,242.21,242.21,0,0,1,19-54.15Q172.47,119.71,187.24,104.56Z" transform="translate(-0.13)"/></g><g id="Duplicate_Items_Folder_Symbol_21_copy_0_Layer0_2_MEMBER_0_MEMBER_0_MEMBER_0_FILL" data-name="Duplicate Items Folder Symbol 21 copy 0 Layer0 2 MEMBER 0 MEMBER 0 MEMBER 0 FILL"><path class="cls-8" d="M165.17,112.22l3.84-4.37-4,4.22a25.78,25.78,0,0,0-2.13,2.29l-9,12.26-6.77,12.74c-.4.76-1.25,2.76-2.55,6A228.44,228.44,0,0,0,136,172.75q-1.23,4.91-3.61,14.37-2.07,8.08-3.59,13.28a181.41,181.41,0,0,1-7.7,22,120.67,120.67,0,0,1-7.3,13.95l-3.11,4.81L114,236.5a112.86,112.86,0,0,0,7.73-13.8,162.26,162.26,0,0,0,8.36-21.92q1.89-6.12,7.42-27.65a239.71,239.71,0,0,1,8.29-27.34c1-2.7,1.8-4.66,2.4-5.91l6.41-12.81,8.58-12.49C164.12,113.48,164.78,112.7,165.17,112.22Z" transform="translate(-0.13)"/></g><g id="Duplicate_Items_Folder_Symbol_21_copy_0_Layer0_3_FILL" data-name="Duplicate Items Folder Symbol 21 copy 0 Layer0 3 FILL"><path class="cls-22" d="M376.8,90.72q5.71,5.73,15.27,16.74a127.37,127.37,0,0,1,16.2,22.62q5.94,10.15,12.69,25a246.62,246.62,0,0,1,17.41,54.67,243.2,243.2,0,0,1,4.19,57.53,38.17,38.17,0,0,0,12.35,8.07,36.36,36.36,0,0,0,13.44,2.88l-16.16.06A36.41,36.41,0,0,0,464.43,284a34.94,34.94,0,0,0,13.39.91,233.41,233.41,0,0,1-49.41,29.6,52,52,0,0,0,21.18,4q-26,16.51-39.33,23.87a267.09,267.09,0,0,1-50.88,21,254.62,254.62,0,0,0,40.48-13,236.24,236.24,0,0,0,31.9-16.36l10.75-6.66q27.5-17.58,41-31.67a24.41,24.41,0,0,1-6.52-.53,57.64,57.64,0,0,1,8.16-7.92l-.63-1.54A124.1,124.1,0,0,0,505.38,273a69,69,0,0,1-21-4.58,62.41,62.41,0,0,1-17.9-10.54,40.13,40.13,0,0,0,13.29-1.7,35.55,35.55,0,0,1-16.61-14.44l-.88.57a122.65,122.65,0,0,1-9.57-19.7,216.61,216.61,0,0,1-8.23-28.38q-4.14-19.12-6.55-28.57-8.87-34.18-27.64-54.38Q390.1,89.55,360.16,77.88,367.14,80.83,376.8,90.72Z" transform="translate(-0.13)"/></g><g id="Duplicate_Items_Folder_Symbol_21_copy_0_Layer0_4_MEMBER_0_MEMBER_0_MEMBER_0_FILL" data-name="Duplicate Items Folder Symbol 21 copy 0 Layer0 4 MEMBER 0 MEMBER 0 MEMBER 0 FILL"><path class="cls-8" d="M261.59,370.63c-2.12-.23-3.71-.44-4.77-.65l-9.33-1.44q-3.11-.48-9.18-1.72l-26.07-6.39a293.12,293.12,0,0,1-56.71-22.83,259.91,259.91,0,0,1-34.83-22.16l-4.87-3.76,4.72,4a263.4,263.4,0,0,0,34.61,22.66,293.41,293.41,0,0,0,56.7,23.41L238,368.19q5.13,1.15,9.18,1.8l9.4,1.51c1.11.21,2.73.42,4.85.65L276,373.73c4.3.25,7.6.47,9.92.65l5.07.29c1.16,0,2.8-.06,4.93-.22l28.88-2.93c2.09-.36,5.16-.87,9.23-1.54,3.58-.62,6.59-1.21,9-1.75,2-.46,4.92-1.09,8.8-1.91l8.51-2.2q2.83-.67,8.22-2.34l8-2.5q11.65-4,14.94-5.44c1.6-.65,4-1.59,7.07-2.8l19-8.93a254.85,254.85,0,0,0,35.16-21.75l8.36-6.62-8.5,6.47a271.91,271.91,0,0,1-35.38,21.24l-19.11,8.64c-1,.43-3.3,1.33-7,2.73-1.94.8-4.4,1.7-7.36,2.72l-7.65,2.65c-3.49,1-6.13,1.8-7.93,2.35q-5.38,1.66-8.22,2.35L351.53,365c-.38.09-3.32.7-8.79,1.83q-4.87,1.08-18.16,3.22l-31.21,3-7.38-.25c-4.49-.25-7.78-.47-9.85-.64-.48,0-2.12-.15-4.92-.44Z" transform="translate(-0.13)"/></g><g id="Duplicate_Items_Folder_Symbol_21_copy_0_Layer0_5_MEMBER_0_MEMBER_0_MEMBER_0_FILL" data-name="Duplicate Items Folder Symbol 21 copy 0 Layer0 5 MEMBER 0 MEMBER 0 MEMBER 0 FILL"><path class="cls-8" d="M416.12,117.94c-.14-.19-.81-1-2-2.34l-3.86-4.33,3.64,4.47c.38.49,1,1.29,1.92,2.42l8.23,12.72,6.12,13,2.23,6q3.61,10.64,7.51,27.58,4.9,21.66,6.63,27.84a151.72,151.72,0,0,0,7.66,22.14,113.41,113.41,0,0,0,7.34,14L464,245a7.39,7.39,0,0,0,.86,1.17l-3.05-4.9a127,127,0,0,1-6.83-14.16,173.25,173.25,0,0,1-7.15-22.2q-1.31-5.08-3.14-13.38-3.13-14.17-3.2-14.47a220.21,220.21,0,0,0-7.87-27.64c-1.4-3.65-2.17-5.66-2.31-6.05l-6.48-12.92Z" transform="translate(-0.13)"/></g><g id="Duplicate_Items_Folder_Symbol_18_copy_0_Layer1_0_FILL" data-name="Duplicate Items Folder Symbol 18 copy 0 Layer1 0 FILL"><path class="cls-23" d="M190.75,319.45c-.87-1.13-1.72-2.23-2.56-3.3q7.17,10.62,7.27,9c-.85-1-1.65-1.88-2.43-2.79s-1.57-1.91-2.28-2.79v-.07M198,328l-.42-.51a10.66,10.66,0,0,0,2,2.35l.86.73c-.81-.93-1.59-1.78-2.35-2.57H198m183.55-24.29a4.05,4.05,0,0,0,.8-.13c.12-.17-.13-.15-.73.06,0,0,0,.08-.07.07m-198.73-3.75a.17.17,0,0,1,.14.07l.37.08c-.52-.17-1.12-.4-1.81-.68A10.47,10.47,0,0,0,182.84,299.92Z" transform="translate(-0.13)"/><path class="cls-24" d="M185.67,284a.48.48,0,0,1-.43.21,20.91,20.91,0,0,1-7.89-.77,19.57,19.57,0,0,0,2.47,9.53,24.69,24.69,0,0,0,2.35,3.3c.35.41.71.8,1.07,1.17l.35.37a19.35,19.35,0,0,0,3.88,2.81.69.69,0,0,1,.28.36.88.88,0,0,1,0,.51.46.46,0,0,1-.23.36.81.81,0,0,1-.43.14,16.44,16.44,0,0,1-4.34-.64h-.22a30.42,30.42,0,0,1-3.38-1.93c1.19.86,1.62,1.2,1.29,1,.13.28.25.55.35.81s.35.69.5,1q.69,1.35,1.41,2.7c.23.39.47.8.7,1.24q2.34,3.87,5.11,7.83l.43.58.57.74c.75,1,1.56,2.1,2.41,3.22q1.72,2.16,3.57,4.33l.71.8.57.66a2.47,2.47,0,0,1,.5.52c.57.58,1.12,1.17,1.64,1.76a1.31,1.31,0,0,1,.22.29c.53.55,1.08,1.14,1.64,1.76.26.26.53.53.78.81h-.07l.72.59.5.52q2.61,2.6,5.86,5.66,5.49,5.13,12.81,11.56,1.86,1.62,3.72,3.31a.47.47,0,0,1,.28.44,1,1,0,0,1-.22.58.51.51,0,0,1-.44.21,1.39,1.39,0,0,1-.58-.15l-3.43-3,.78.88q8.42,9.83,11.34,13a122.62,122.62,0,0,0,12.37,11.85Q266,392,280.52,392.25q16.53.3,34.63-14.08,8.63-6.84,24-23.72l-.07-.07a.69.69,0,0,1-.14-.51.85.85,0,0,1,.22-.5c1.35-1.06,2.64-2.1,3.89-3.14q12-9.9,19.15-16.68l.51-.5c.24-.21.46-.43.67-.65l-.08.08c.92-.91,1.78-1.74,2.57-2.5h-.07a1.55,1.55,0,0,0,.29-.28c.56-.57,1.1-1.14,1.62-1.72a3.94,3.94,0,0,0,.52-.57c1.83-1.88,3.52-3.77,5.08-5.65v.07c.87-1.08,1.71-2.13,2.51-3.15l1-1.73.07.44q2.89-3.84,5.25-7.68a11.23,11.23,0,0,0,.75-1.3q1.32-2.19,2.45-4.38a12.37,12.37,0,0,1-2.11.76h-.07a.21.21,0,0,1-.15.07,16.22,16.22,0,0,1-4.36.52.68.68,0,0,1-.43-.15.86.86,0,0,1-.28-.44.76.76,0,0,1,.08-.43.65.65,0,0,1,.29-.36,18.79,18.79,0,0,0,3.95-2.77,1.78,1.78,0,0,0,.37-.36,19.13,19.13,0,0,0,3.47-4.3A19.78,19.78,0,0,0,388.9,287a19.13,19.13,0,0,1-7.9.61.74.74,0,0,1-.44-.22.76.76,0,0,1-.21-.44,1.14,1.14,0,0,1,.08-.51,1.9,1.9,0,0,1,.37-.28,10.21,10.21,0,0,0,5.94-5.13,101.41,101.41,0,0,1-17.38-.83l-1.73-.24a86,86,0,0,1-18.27-5.19A79.53,79.53,0,0,1,327.3,262q-12.75-10.75-19.46-17.66-13.69-11.07-27.69-9.67-12.86,1.26-27.88,13.74a143.24,143.24,0,0,1-12.17,10.19,105.26,105.26,0,0,1-30.59,15.65,59.62,59.62,0,0,1-13.38,2.93,102.38,102.38,0,0,1-16.45.27,10.47,10.47,0,0,0,5.72,5.37.47.47,0,0,1,.36.3.81.81,0,0,1,.14.43A.64.64,0,0,1,185.67,284Z" transform="translate(-0.13)"/></g><g id="Duplicate_Items_Folder_Symbol_18_copy_0_Layer1_1_MEMBER_0_MEMBER_0_MEMBER_0_FILL" data-name="Duplicate Items Folder Symbol 18 copy 0 Layer1 1 MEMBER 0 MEMBER 0 MEMBER 0 FILL"><path class="cls-8" d="M235.32,365.52l-.79-.81,2.86,3.23a89.17,89.17,0,0,0,8.65,8.24,110.84,110.84,0,0,0,14.42,10.35q10.64,6.38,20.63,6.81,9.93-.15,20.88-6.22a107.91,107.91,0,0,0,14.64-9.94,90.67,90.67,0,0,0,8.88-8l2.21-2.36L325.35,369q-4.85,4.21-9.24,7.48A117.48,117.48,0,0,1,301.34,386a52.84,52.84,0,0,1-9.48,4,36.1,36.1,0,0,1-10.75,1.8,36.79,36.79,0,0,1-10.69-2.11,52.29,52.29,0,0,1-9.29-4.26,121.45,121.45,0,0,1-14.57-9.84,116.65,116.65,0,0,1-8.95-7.74C237.27,367.5,236.51,366.75,235.32,365.52Z" transform="translate(-0.13)"/></g><g id="Duplicate_Items_Folder_Symbol_18_copy_0_Layer0_0_MEMBER_0_MEMBER_0_FILL" data-name="Duplicate Items Folder Symbol 18 copy 0 Layer0 0 MEMBER 0 MEMBER 0 FILL"><path class="cls-25" d="M284.09,309l-.94,15.28,1.53,0v-.36q.07-6.63-.4-12.33l-.13-1.59A8.12,8.12,0,0,0,284.09,309Z" transform="translate(-0.13)"/></g><g id="Duplicate_Items_Folder_Symbol_18_copy_0_Layer0_1_MEMBER_0_MEMBER_0_MEMBER_0_MEMBER_0_MEMBER_0_FILL" data-name="Duplicate Items Folder Symbol 18 copy 0 Layer0 1 MEMBER 0 MEMBER 0 MEMBER 0 MEMBER 0 MEMBER 0 FILL"><path class="cls-26" d="M336.3,312.24q-14.64,15.15-27.41,16.35a30,30,0,0,1-9.77-.79c-3.66-1.12-6.3-1.88-7.94-2.29a37,37,0,0,0-6.29-1,36.92,36.92,0,0,0-6.32.85q-5,1.46-8,2.06a29.22,29.22,0,0,1-9.72.52q-12.72-1.56-26.93-17.12a92.87,92.87,0,0,0,11.86,22.12,58.15,58.15,0,0,0,19.11,17.23,46.62,46.62,0,0,0,20.65,5.51,37.18,37.18,0,0,0,14.81-2.33,47.66,47.66,0,0,0,18.22-12.49Q328.8,330,336.3,312.24Z" transform="translate(-0.13)"/></g><g id="Duplicate_Items_Folder_Symbol_18_copy_0_Layer0_1_MEMBER_0_MEMBER_1_MEMBER_0_FILL" data-name="Duplicate Items Folder Symbol 18 copy 0 Layer0 1 MEMBER 0 MEMBER 1 MEMBER 0 FILL"><path class="cls-27" d="M308.89,349q-3.81-6.85-18.88-7.58a7.47,7.47,0,0,0-3.7.6,3.19,3.19,0,0,0-1.4,1.35,2.54,2.54,0,0,0-.3,1.23,4.47,4.47,0,0,0-2.93-3,12.62,12.62,0,0,0-4.85-.58q-12.84.48-18.76,4.45c1,1.27,3.27,2.84,6.82,4.73a46.62,46.62,0,0,0,20.65,5.51,39,39,0,0,0,23.35-6.7Z" transform="translate(-0.13)"/></g><g id="Duplicate_Items_Folder_Symbol_18_copy_0_Layer0_1_MEMBER_0_MEMBER_2_MEMBER_0_MEMBER_0_MEMBER_0_FILL" data-name="Duplicate Items Folder Symbol 18 copy 0 Layer0 1 MEMBER 0 MEMBER 2 MEMBER 0 MEMBER 0 MEMBER 0 FILL"><path class="cls-1" d="M271.67,326.76l-3.2.39a45.47,45.47,0,0,1-7.9.46l-.51-.07q1,1.68,3.26,5.62a13.62,13.62,0,0,0,4,4.48,3.66,3.66,0,0,0,1.59.53,2.05,2.05,0,0,0,1.53-.56,3.65,3.65,0,0,0,1-1.8l3.09-8.87a1.87,1.87,0,0,0,.16-.94A13.69,13.69,0,0,1,271.67,326.76Z" transform="translate(-0.13)"/></g><g id="Duplicate_Items_Folder_Symbol_18_copy_0_Layer0_1_MEMBER_0_MEMBER_2_MEMBER_1_MEMBER_0_MEMBER_0_FILL" data-name="Duplicate Items Folder Symbol 18 copy 0 Layer0 1 MEMBER 0 MEMBER 2 MEMBER 1 MEMBER 0 MEMBER 0 FILL"><path class="cls-1" d="M299.41,327.59a14.18,14.18,0,0,1-3.1-.85l.13.95,2.84,8.95a4.21,4.21,0,0,0,1,1.83,2.53,2.53,0,0,0,3.19.11,13.51,13.51,0,0,0,4.12-4.36c.2-.28,1.31-2.13,3.34-5.53l-.51.07a43.68,43.68,0,0,1-7.82-.7Z" transform="translate(-0.13)"/></g><g id="Duplicate_Items_Folder_Symbol_18_copy_0_Layer0_1_MEMBER_0_MEMBER_2_MEMBER_2_MEMBER_0_MEMBER_0_FILL" data-name="Duplicate Items Folder Symbol 18 copy 0 Layer0 1 MEMBER 0 MEMBER 2 MEMBER 2 MEMBER 0 MEMBER 0 FILL"><path class="cls-25" d="M341.75,306.08l-3.46,3.72q-.74.85-4.26,4.29l-5.95,5.2-8,5.25a35,35,0,0,1-10.34,3.34,29.13,29.13,0,0,1-11.8-1.11l-6.2-1.9a34.87,34.87,0,0,0-6.8-1.11,33.16,33.16,0,0,0-6.75.92l-6.26,1.72a29.43,29.43,0,0,1-11.89.77,32.3,32.3,0,0,1-10.17-3.69c-1.44-.8-2.85-1.66-4.24-2.6l-3.66-2.8c-3.33-3-5.29-4.79-5.86-5.38q-3.28-3.37-4.07-4.4l-3.42-3.82,3.2,4c.47.64,1.81,2.13,4,4.48q.93,1.1,5.65,5.66l7.89,5.76a35.06,35.06,0,0,0,10.45,4,29.64,29.64,0,0,0,12.4-.62l6.33-1.65a36.06,36.06,0,0,1,6.39-.92,39.36,39.36,0,0,1,6.43,1.1l6.21,1.83a29.74,29.74,0,0,0,12.38,1,33.86,33.86,0,0,0,10.63-3.69c2.63-1.65,4.05-2.55,4.24-2.69l3.74-2.85c3.37-3,5.33-4.88,5.87-5.5q2.94-3,4.05-4.36Z" transform="translate(-0.13)"/></g><g id="Duplicate_Items_Folder_Symbol_18_copy_0_Layer0_1_MEMBER_0_MEMBER_2_MEMBER_3_MEMBER_0_MEMBER_0_FILL" data-name="Duplicate Items Folder Symbol 18 copy 0 Layer0 1 MEMBER 0 MEMBER 2 MEMBER 3 MEMBER 0 MEMBER 0 FILL"><path class="cls-25" d="M310.59,347a43.91,43.91,0,0,1-11.76,6.14,36.05,36.05,0,0,1-14,1.75,50,50,0,0,1-13.94-2.8,47.19,47.19,0,0,1-11.65-6.33,65.41,65.41,0,0,1-15.5-16.45,106.74,106.74,0,0,1-7.56-13.37c-1-2.19-1.78-3.91-2.25-5.18.42,1.27,1.09,3,2,5.32a86.57,86.57,0,0,0,7.12,13.73,64.47,64.47,0,0,0,15.34,17,52.74,52.74,0,0,0,11.94,6.69,50.74,50.74,0,0,0,14.38,3,37.58,37.58,0,0,0,14.59-1.9,44.42,44.42,0,0,0,12.05-6.49,67.06,67.06,0,0,0,15.46-17,109.79,109.79,0,0,0,7.29-13.6l2.18-5.26-2.39,5.12a107.69,107.69,0,0,1-7.73,13.29A66.62,66.62,0,0,1,310.59,347Z" transform="translate(-0.13)"/></g><g id="Duplicate_Items_Folder_Symbol_14_copy_0_Layer0_0_MEMBER_0_FILL" data-name="Duplicate Items Folder Symbol 14 copy 0 Layer0 0 MEMBER 0 FILL"><path class="cls-28" d="M333.48,275.65q-.86-5.67-21.91-18.21-19.92-11.88-26.35-12.62-6.53.56-26.76,11.87-21.4,11.94-22.35,17.58v.07q46.66,10.59,97.36,2.76A7,7,0,0,0,333.48,275.65Z" transform="translate(-0.13)"/></g><g id="Duplicate_Items_Folder_Symbol_14_copy_0_Layer0_0_MEMBER_1_FILL" data-name="Duplicate Items Folder Symbol 14 copy 0 Layer0 0 MEMBER 1 FILL"><path class="cls-29" d="M333.46,277.1a177.9,177.9,0,0,1-41.8,4.48,218.34,218.34,0,0,1-55.56-7.24q-.32,2,1.67,5.24l.14.15q12.27,19,43.78,29.9a6.54,6.54,0,0,0,2.53.47,7.69,7.69,0,0,0,2.69-.4,114.41,114.41,0,0,0,26.84-12.37,72.4,72.4,0,0,0,11.8-9.4q3.82-3.85,4.71-4.86C332.18,280.82,333.24,278.83,333.46,277.1Z" transform="translate(-0.13)"/></g><g id="Duplicate_Items_Folder_Symbol_14_copy_0_Layer0_0_MEMBER_2_MEMBER_0_MEMBER_0_FILL" data-name="Duplicate Items Folder Symbol 14 copy 0 Layer0 0 MEMBER 2 MEMBER 0 MEMBER 0 FILL"><path class="cls-25" d="M329.68,278l3.78-.89L319.1,278a333.52,333.52,0,0,1-34.36.53q-8.4-.33-18.82-1.35c-7.38-.74-12.54-1.24-15.49-1.53l-14.33-1.29L250,277.73q20,4.49,34.5,5.12a160.8,160.8,0,0,0,34.82-2.69Q326.11,278.95,329.68,278Z" transform="translate(-0.13)"/></g><g id="Duplicate_Items_Folder_Symbol_14_copy_0_Layer0_1_MEMBER_0_MEMBER_0_FILL" data-name="Duplicate Items Folder Symbol 14 copy 0 Layer0 1 MEMBER 0 MEMBER 0 FILL"><path class="cls-30" d="M308.78,280.23a46.16,46.16,0,0,1-7.26.47,40.43,40.43,0,0,1-10.34-1.37,38.42,38.42,0,0,1,10.38-1,48,48,0,0,1,7.31.69l3,.62Z" transform="translate(-0.13)"/></g><g id="Duplicate_Items_Folder_ededee_copy_0_Layer9_0_FILL" data-name="Duplicate Items Folder ededee copy 0 Layer9 0 FILL"><path class="cls-1" d="M218.44,159.74q-17.3-.51-29.88,12.55t-13.21,32.13q-.57,19,11.26,32.85t29.08,14.32Q233,252.1,245.58,239t13.16-32.13q.57-19-11.21-32.85T218.44,159.74Z" transform="translate(-0.13)"/></g><g class="cls-31"><g id="Duplicate_Items_Folder_Symbol_28_copy_2_0_Layer0_0_FILL" data-name="Duplicate Items Folder Symbol 28 copy 2 0 Layer0 0 FILL"><path class="cls-32" d="M241.22,188.53a29.23,29.23,0,0,1,8.25,21.9,30.64,30.64,0,0,1-61.24-2.08,30.61,30.61,0,0,1,53-19.82Z" transform="translate(-0.13)"/></g><g id="Duplicate_Items_Folder_Symbol_28_copy_2_0_Layer0_1_FILL" data-name="Duplicate Items Folder Symbol 28 copy 2 0 Layer0 1 FILL"><path d="M235.3,194.05a22.52,22.52,0,0,1-1.14,31.82,21.37,21.37,0,0,1-16.07,6,22.51,22.51,0,1,1,17.21-37.83Z" transform="translate(-0.13)"/></g><g id="Duplicate_Items_Folder_Symbol_28_copy_2_0_Layer0_2_FILL" data-name="Duplicate Items Folder Symbol 28 copy 2 0 Layer0 2 FILL"><path class="cls-1" d="M199.86,211.2a6.28,6.28,0,0,1-4.39-2,6.27,6.27,0,0,1,.26-8.9,6.1,6.1,0,0,1,4.51-1.72,5.88,5.88,0,0,1,4.39,2,6,6,0,0,1,1.72,4.5,6.26,6.26,0,0,1-2,4.4A6.1,6.1,0,0,1,199.86,211.2Z" transform="translate(-0.13)"/></g></g><path id="Duplicate_Items_Folder_ededee_copy_0_Layer6_0_MEMBER_0_1_STROKES" data-name="Duplicate Items Folder ededee copy 0 Layer6 0 MEMBER 0 1 STROKES" class="cls-33" d="M258.82,201.59c.12,1.69.15,3.4.1,5.11q-.57,19-13.16,32.13t-29.89,12.55q-17.3-.51-29.08-14.32t-11.26-32.85a50.57,50.57,0,0,1,.41-5.1" transform="translate(-0.13)"/><path id="Duplicate_Items_Folder_Symbol_16_copy_0_Layer0_0_1_STROKES" data-name="Duplicate Items Folder Symbol 16 copy 0 Layer0 0 1 STROKES" class="cls-33" d="M258.64,201.8a48.31,48.31,0,0,1,.1,5.11q-.56,19-13.16,32.13t-29.89,12.55q-17.3-.51-29.08-14.32t-11.26-32.85a50.57,50.57,0,0,1,.41-5.1" transform="translate(-0.13)"/><g id="Duplicate_Items_Folder_Symbol_16_copy_0_Layer0_1_MEMBER_0_MEMBER_0_FILL" data-name="Duplicate Items Folder Symbol 16 copy 0 Layer0 1 MEMBER 0 MEMBER 0 FILL"><path class="cls-34" d="M204,159.57a41.57,41.57,0,0,0-11.92,6.56,44.41,44.41,0,0,0-13.73,18.06,43,43,0,0,0-3.49,14.71,28.16,28.16,0,0,0,0,4.09c.12.94.26,1.42.43,1.43s.36-.45.56-1.36c.33-1.48.61-2.78.84-3.89a57.07,57.07,0,0,1,4.79-13.51,44.45,44.45,0,0,1,13.28-15.93,38.54,38.54,0,0,1,10.73-5.61,37.23,37.23,0,0,1,12.82-1.93,36.4,36.4,0,0,1,12.64,2.7,37.58,37.58,0,0,1,10.38,6.23,44.4,44.4,0,0,1,12.34,16.7,54.88,54.88,0,0,1,3.93,13.78c.19,1.12.4,2.43.61,3.92.17.93.35,1.39.52,1.39s.34-.46.51-1.4a28.25,28.25,0,0,0,.3-4.07,43.67,43.67,0,0,0-2.61-14.9,45.43,45.43,0,0,0-12.62-18.85,43,43,0,0,0-11.51-7.26,39.76,39.76,0,0,0-28.85-.86Z" transform="translate(-0.13)"/></g><g id="Duplicate_Items_Folder_ededee_copy_0_Layer4_0_FILL" data-name="Duplicate Items Folder ededee copy 0 Layer4 0 FILL"><path class="cls-1" d="M355.41,160.66q-17.3-.51-29.89,12.55t-13.2,32.13q-.57,19,11.26,32.85t29.08,14.32q17.26.53,29.89-12.55t13.16-32.13q.57-19-11.21-32.85T355.41,160.66Z" transform="translate(-0.13)"/></g><g class="cls-35"><g id="Duplicate_Items_Folder_Symbol_28_copy_2_0_Layer0_0_FILL-2" data-name="Duplicate Items Folder Symbol 28 copy 2 0 Layer0 0 FILL"><path class="cls-32" d="M377.2,189.47a29.22,29.22,0,0,1,8.25,21.89,30.65,30.65,0,1,1-29.55-31.63A29.4,29.4,0,0,1,377.2,189.47Z" transform="translate(-0.13)"/></g><g id="Duplicate_Items_Folder_Symbol_28_copy_2_0_Layer0_1_FILL-2" data-name="Duplicate Items Folder Symbol 28 copy 2 0 Layer0 1 FILL"><path d="M371.28,195a22.5,22.5,0,1,1-38.91,14.55,21.88,21.88,0,0,1,7.09-15.69A22.54,22.54,0,0,1,371.28,195Z" transform="translate(-0.13)"/></g><g id="Duplicate_Items_Folder_Symbol_28_copy_2_0_Layer0_2_FILL-2" data-name="Duplicate Items Folder Symbol 28 copy 2 0 Layer0 2 FILL"><path class="cls-1" d="M335.84,212.13a6.24,6.24,0,0,1-4.39-2,6.3,6.3,0,0,1,4.77-10.62,6,6,0,0,1,4.39,2,6,6,0,0,1,1.72,4.51,6.23,6.23,0,0,1-2,4.39A6.1,6.1,0,0,1,335.84,212.13Z" transform="translate(-0.13)"/></g></g><path id="Duplicate_Items_Folder_ededee_copy_0_Layer1_0_MEMBER_0_1_STROKES" data-name="Duplicate Items Folder ededee copy 0 Layer1 0 MEMBER 0 1 STROKES" class="cls-33" d="M395.79,202.51c.12,1.69.15,3.4.1,5.11q-.57,19-13.16,32.13T352.84,252.3q-17.29-.51-29.08-14.32T312.5,205.13a47.81,47.81,0,0,1,.41-5.1" transform="translate(-0.13)"/><path id="Duplicate_Items_Folder_Symbol_16_copy_0_Layer0_0_1_STROKES-2" data-name="Duplicate Items Folder Symbol 16 copy 0 Layer0 0 1 STROKES" class="cls-33" d="M395.61,202.72c.12,1.69.15,3.4.1,5.11q-.57,19-13.16,32.13t-29.89,12.55q-17.3-.51-29.08-14.32t-11.26-32.85a50.57,50.57,0,0,1,.41-5.1" transform="translate(-0.13)"/><g id="Duplicate_Items_Folder_Symbol_16_copy_0_Layer0_1_MEMBER_0_MEMBER_0_FILL-2" data-name="Duplicate Items Folder Symbol 16 copy 0 Layer0 1 MEMBER 0 MEMBER 0 FILL"><path class="cls-34" d="M341,160.49a41.44,41.44,0,0,0-11.92,6.56,44.54,44.54,0,0,0-13.73,18.06,42.77,42.77,0,0,0-3.49,14.71,28.13,28.13,0,0,0,.05,4.09c.11,1,.26,1.42.43,1.43s.36-.45.55-1.36c.34-1.48.62-2.77.85-3.88a57,57,0,0,1,4.79-13.52,44.45,44.45,0,0,1,13.28-15.93A38.67,38.67,0,0,1,342.52,165a37.23,37.23,0,0,1,12.82-1.93,36.3,36.3,0,0,1,12.63,2.7A37.29,37.29,0,0,1,378.35,172a44.4,44.4,0,0,1,12.35,16.7,55.31,55.31,0,0,1,3.93,13.78c.19,1.12.4,2.43.61,3.92.17.93.34,1.39.52,1.39s.34-.46.51-1.4a27.05,27.05,0,0,0,.29-4.07,43.46,43.46,0,0,0-2.6-14.9,45.43,45.43,0,0,0-12.62-18.85,43,43,0,0,0-11.51-7.26,39.76,39.76,0,0,0-28.85-.86Z" transform="translate(-0.13)"/></g><g id="Duplicate_Items_Folder_veve_copy_0_Layer3_0_FILL" data-name="Duplicate Items Folder veve copy 0 Layer3 0 FILL"><path class="cls-36" d="M344.44,128.89a38.24,38.24,0,0,0-.55,10.55l13.92.92q15.82,2,25.34,7.36a31.9,31.9,0,0,1,6.05,4.52,6.34,6.34,0,0,0,1-2.16,6.16,6.16,0,0,0-.74-4.77q-2.81-5.91-9.57-12.29a57.18,57.18,0,0,0-32.64-15A61.22,61.22,0,0,0,344.44,128.89Z" transform="translate(-0.13)"/></g><g id="Duplicate_Items_Folder_Symbol_26_copy_0_Layer0_0_FILL" data-name="Duplicate Items Folder Symbol 26 copy 0 Layer0 0 FILL"><path class="cls-37" d="M228.53,132.53a87.81,87.81,0,0,1,1.87-10.35c.15,1.32.28,3,.4,5.11a109.82,109.82,0,0,1-.07,12.19l-.21,3.44s0,0-.08,0l-.09,0-1.29-.17q-10.81-1.4-15.08-2.94l1.38-.26c1.57-.23,2.82-.37,3.73-.43a45.6,45.6,0,0,1,5.59.07l3.22.43,0-.05v-.25Q228.15,135.8,228.53,132.53Z" transform="translate(-0.13)"/></g><g id="Duplicate_Items_Folder_Symbol_25_copy_3_0_Layer0_0_FILL" data-name="Duplicate Items Folder Symbol 25 copy 3 0 Layer0 0 FILL"><path class="cls-37" d="M234.09,121.23c.12,1.32.21,3,.27,5.11a115.55,115.55,0,0,1-.24,11.81,2,2,0,0,0,0,.43l-.3,2.83a2.36,2.36,0,0,1-.6,1.42,1.92,1.92,0,0,1-1.11.73h-.13a4.13,4.13,0,0,1-1.5-.25l-11.69-3.08,1.38-.08c1-.09,2.29-.12,3.77-.1,1.64.06,3.48.23,5.54.51l1.59.3.09-.09v0h0l0-.22.12-2.19A98.61,98.61,0,0,1,234.09,121.23Z" transform="translate(-0.13)"/></g><g id="Duplicate_Items_Folder_Symbol_24_copy_4_0_Layer0_0_FILL" data-name="Duplicate Items Folder Symbol 24 copy 4 0 Layer0 0 FILL"><path class="cls-37" d="M238.1,127.71l2.18-4.64c-.17,1.31-.45,3-.85,5.06a114.16,114.16,0,0,1-3,12L235,144.29l-3-.73a1.92,1.92,0,0,0,1.11-.73,2.36,2.36,0,0,0,.6-1.42l.3-2.83a2,2,0,0,1,0-.43A105.49,105.49,0,0,1,238.1,127.71Z" transform="translate(-0.13)"/></g><g id="Duplicate_Items_Folder_Symbol_26_copy_0_Layer0_0_FILL-2" data-name="Duplicate Items Folder Symbol 26 copy 0 Layer0 0 FILL"><path class="cls-37" d="M345.52,131.69a86.49,86.49,0,0,0-1.58-10.4q-.27,2-.54,5.1a111.41,111.41,0,0,0-.28,12.19l.12,3.44s0,0,.08,0l.09,0,1.29-.13q10.86-1.09,15.15-2.51l-1.36-.3q-2.36-.41-3.72-.54a44.84,44.84,0,0,0-5.58-.08l-3.24.33,0,0v-.26C345.85,136.14,345.71,133.87,345.52,131.69Z" transform="translate(-0.13)"/></g><g id="Duplicate_Items_Folder_Symbol_25_copy_3_0_Layer0_0_FILL-2" data-name="Duplicate Items Folder Symbol 25 copy 3 0 Layer0 0 FILL"><path class="cls-37" d="M340.28,120.24c-.15,1.31-.29,3-.41,5.1a116.63,116.63,0,0,0-.1,11.81,1.56,1.56,0,0,1,0,.43l.22,2.84a2.38,2.38,0,0,0,.56,1.43,2,2,0,0,0,1.09.77h.13a4.2,4.2,0,0,0,1.51-.21l11.77-2.74-1.37-.13c-1-.12-2.29-.18-3.78-.2s-3.48.13-5.55.35l-1.6.25-.08-.08v-.05h0l0-.21-.07-2.19A97.11,97.11,0,0,0,340.28,120.24Z" transform="translate(-0.13)"/></g><g id="Duplicate_Items_Folder_Symbol_24_copy_4_0_Layer0_0_FILL-2" data-name="Duplicate Items Folder Symbol 24 copy 4 0 Layer0 0 FILL"><path class="cls-37" d="M336.09,126.6l-2-4.7c.14,1.32.37,3,.71,5.09a116.74,116.74,0,0,0,2.69,12.06l1.25,4.21,3-.64a2,2,0,0,1-1.09-.77,2.38,2.38,0,0,1-.56-1.43l-.22-2.84a1.56,1.56,0,0,0,0-.43A106,106,0,0,0,336.09,126.6Z" transform="translate(-0.13)"/></g><g id="Duplicate_Items_Folder_veve_copy_0_Layer0_0_FILL" data-name="Duplicate Items Folder veve copy 0 Layer0 0 FILL"><path class="cls-36" d="M184.23,144.58a5.89,5.89,0,0,0-.8,4.74,5.38,5.38,0,0,0,.86,2.19,34.23,34.23,0,0,1,6.26-4.34q8.43-4.39,21.91-6.29h.08q6-.72,12.33-.88H230a65.52,65.52,0,0,0-2.68-21.46q-1.36.13-2.82.36a63.27,63.27,0,0,0-11.72,2.82,54.48,54.48,0,0,0-18.51,10.85Q187.2,138.75,184.23,144.58Z" transform="translate(-0.13)"/></g><rect class="cls-38" x="36.69" y="459.65" width="474.91" height="242.72"/><rect class="cls-39" x="45.61" y="470.08" width="456" height="228.31"/><path class="cls-40" d="M501.73,470.08c0-.66-179.35.37-191.42,1.6l-13,1.34c61.13-.12,112.27,1.56,173.31,5,7.66.44,16.29,1.38,21,7.41C500,496,499.56,518,500.7,531c1.52,17.47,1.66,146.1.4,163.59C504.22,657.16,501.73,507.69,501.73,470.08Z" transform="translate(-0.13)"/><path class="cls-40" d="M45.73,697.86H347.86c29.2,0,107.86.4,136.86.4-59.19,0-167.59-6.6-226.77-8.19C205.09,688.65,93.08,693.74,74,669,62,653.5,62.48,629.4,61,604.39c-1.39-23.64.34-48.76,2.78-72,4.28-40.57,24-50.8,41.52-54.91,15.61-3.65,61.71-6.59,84-7.25-7.36-.81-143.57-1.16-143.57.07Z" transform="translate(-0.13)"/><g class="cls-41"><path class="cls-42" d="M45.73,698V470.36a188,188,0,0,1,19.72-.27c-7.65.1-5.49.25-12.67,5.37-5,3.55-6.64,14.1-.56,17.4a7.63,7.63,0,0,0,4.77.47l3.44-.4a38.63,38.63,0,0,0-6.4,1.9,5.9,5.9,0,0,0-2.7,1.77,7.34,7.34,0,0,0-1.45,4.52c0,3.4.14,6.78.06,10.25q-.24,11.37-.41,22.73-.21,14-.31,28.06c0,5.24-.82,16.64,1.74,20.19a4,4,0,0,0,2.58,1.56,16.1,16.1,0,0,0,7.37,0,24.6,24.6,0,0,0-7.59,3.4,6.66,6.66,0,0,0-2.65,2.87c-1,2.17-1.12,5.35-1.18,8.27-.33,16.14-1,32-1.64,48.07-.4,9.2-.74,18.5-.58,27.74.11,7,2.41,8.54,5.57,9a70.36,70.36,0,0,0,14.92.63l-5.27.57a44.77,44.77,0,0,0-10.09,1.9,3.06,3.06,0,0,0-1.87,1.4c-2.5,4.34-.17,8.84,2.2,9.52l2.55.72C52.3,697.17,48.76,698,45.73,698Z" transform="translate(-0.13)"/></g><path class="cls-43" d="M21.9,446V722.56H528.2V446ZM504.79,701.53H42.64V467.07H504.79Z" transform="translate(-0.13)"/><g id="Layer0_4_MEMBER_3_MEMBER_0_MEMBER_0_FILL" data-name="Layer0 4 MEMBER 3 MEMBER 0 MEMBER 0 FILL"><path class="cls-44" d="M35.37,472.78l-.12,8.47q-.07,8.44-.08,22,0,12.33,0,22l.21,9.11.06-.64.14-8.47q.09-9.66.06-22l-.26-31.07Z" transform="translate(-0.13)"/></g><g id="Layer0_4_MEMBER_4_MEMBER_0_MEMBER_0_FILL" data-name="Layer0 4 MEMBER 4 MEMBER 0 MEMBER 0 FILL"><path class="cls-44" d="M26.34,531.4l-.21,17.94c0,2.36,0,73.2,0,78.52,0,7.81,0,58.84.06,65l.15,8.07c0,.4,0,.61.05.61l.18-8.68c.06-5.36.09-56.38.09-65l-.27-96.6Z" transform="translate(-0.13)"/></g><g id="Layer0_3_MEMBER_2_MEMBER_0_MEMBER_0_FILL" data-name="Layer0 3 MEMBER 2 MEMBER 0 MEMBER 0 FILL"><path class="cls-44" d="M513.15,460.08a10.69,10.69,0,0,0-.08-1.36,11.58,11.58,0,0,0-.09,1.36l-.09,7.71c0,6.2-.08,10.26-.08,12.15l.14,15.87a5.77,5.77,0,0,0,.12,1.34,5.53,5.53,0,0,0,.11-1.34l.09-3.68q.06-3.13.06-12.19c0-1.89,0-5.95-.09-12.15Z" transform="translate(-0.13)"/></g><g id="Layer0_3_MEMBER_3_MEMBER_0_MEMBER_0_FILL" data-name="Layer0 3 MEMBER 3 MEMBER 0 MEMBER 0 FILL"><path class="cls-44" d="M513.82,508.64l-.17-9.11-.06.64-.15,8.47q-.08,16.89-.08,22c0,9,0,83.37.08,89l.21,9.11.06-.63.2-97.48Q513.91,517.09,513.82,508.64Z" transform="translate(-0.13)"/></g><g id="Layer0_3_MEMBER_4_MEMBER_0_MEMBER_0_FILL" data-name="Layer0 3 MEMBER 4 MEMBER 0 MEMBER 0 FILL"><path class="cls-44" d="M524.08,528.14l0-.15-.26,96.6c0,8.61,0,59.64.09,65q0,4.08.08,6.35l.09,2.32s.06-.2.06-.61l.14-8.06c0-3.58.06-54.61.06-65Z" transform="translate(-0.13)"/></g><g id="Layer0_2_MEMBER_5_FILL" data-name="Layer0 2 MEMBER 5 FILL"><path class="cls-45" d="M528,712.51v-2.18l-61.77,1.08Z" transform="translate(-0.13)"/></g><g id="Layer0_2_MEMBER_2_FILL" data-name="Layer0 2 MEMBER 2 FILL"><path class="cls-45" d="M22,712.27v1.43l218.31-.93Z" transform="translate(-0.13)"/></g><g id="Layer0_2_MEMBER_3_MEMBER_0_MEMBER_0_FILL" data-name="Layer0 2 MEMBER 3 MEMBER 0 MEMBER 0 FILL"><path class="cls-46" d="M263.38,722.56l-1-10.81-1.21,10.81" transform="translate(-0.13)"/></g><g id="Layer0_2_MEMBER_4_MEMBER_0_MEMBER_0_FILL" data-name="Layer0 2 MEMBER 4 MEMBER 0 MEMBER 0 FILL"><path class="cls-44" d="M431.29,717.73l-5.89-.11q-6-.12-17.17-.18-17.5-.11-56.67.21l-74.25.4,17.58.26q9.63.09,25.48,0l31.19-.2q40-.32,56.67-.35h23.38q.09,0,.09,0h-.09Z" transform="translate(-0.13)"/></g><g class="cls-47"><g id="Layer0_1_MEMBER_5_FILL" data-name="Layer0 1 MEMBER 5 FILL"><path class="cls-46" d="M21.92,448.25v1.4l188.71-.93Z" transform="translate(-0.13)"/></g></g><g class="cls-47"><g id="Layer0_1_MEMBER_5_FILL-2" data-name="Layer0 1 MEMBER 5 FILL"><path class="cls-46" d="M21.92,498.76V501l11.84-.86Z" transform="translate(-0.13)"/></g></g><g id="Layer0_4_MEMBER_1_FILL" data-name="Layer0 4 MEMBER 1 FILL"><path class="cls-46" d="M42.69,682.48,44.93,681l-2.24-.93-8.93.93Z" transform="translate(-0.13)"/></g><g id="Layer0_4_MEMBER_1_FILL-2" data-name="Layer0 4 MEMBER 1 FILL"><polygon class="cls-48" points="42.58 680.1 42.58 682.47 44.8 681.02 42.58 680.1"/></g><g id="Layer0_1_MEMBER_6_MEMBER_0_MEMBER_0_FILL" data-name="Layer0 1 MEMBER 6 MEMBER 0 MEMBER 0 FILL"><path class="cls-44" d="M323.24,463.47s0,0-.11,0l-7.08-.2c-5.88-.16-12.18-.25-19.65-.35q-21.27-.24-29.1-.2-5.6,0-8.42.14t-8.79.15q-12,.06-18.45,0L196,462.63q-8.79-.15-29.13.14l-26.84.12,7.19.2q9,.12,19.65,0L180.4,463q8.58,0,15.55.11l17.21.32q7.92.12,18.48.12,6.44,0,18.45,0,5.9-.06,8.79-.15l8.42-.17q9.51-.06,29.1.09Z" transform="translate(-0.13)"/></g><g id="Layer0_1_MEMBER_7_MEMBER_0_MEMBER_0_FILL" data-name="Layer0 1 MEMBER 7 MEMBER 0 MEMBER 0 FILL"><path class="cls-44" d="M442.75,449.93l-.11,0-23.19,0q-16.68,0-56.17-.26l-31-.12c-11.8,0-20,0-25.24,0l-19,.29,1.94,0c5.79,0,11.46,0,17,0l56.17.29q38.36.27,56.2.15l23.19-.38Z" transform="translate(-0.13)"/></g><g id="Layer0_1_MEMBER_8_FILL" data-name="Layer0 1 MEMBER 8 FILL"><path class="cls-45" d="M528.22,453.9v-2.18L467,452.94Z" transform="translate(-0.13)"/></g><g id="Layer0_1_MEMBER_3_MEMBER_0_FILL" data-name="Layer0 1 MEMBER 3 MEMBER 0 FILL"><path class="cls-46" d="M443.19,467.08l1.1,2.05,1.1-2-.92-8.11Z" transform="translate(-0.13)"/></g><g id="Layer0_1_MEMBER_4_FILL" data-name="Layer0 1 MEMBER 4 FILL"><path class="cls-46" d="M226.94,446.06h-2.53l1.27,6.91Z" transform="translate(-0.13)"/></g><g class="cls-47"><g id="Layer0_1_MEMBER_5_FILL-3" data-name="Layer0 1 MEMBER 5 FILL"><path class="cls-46" d="M293.14,722.56h2.19" transform="translate(-0.13)"/></g></g><text class="cls-49" transform="translate(101.43 522.76) scale(0.99 1)">Hello! I am Dogu<tspan x="55" y="45.6">I am loving</tspan><tspan x="53.41" y="91.2">I am gentle</tspan><tspan x="35.99" y="136.8">I am friendly</tspan></text><path class="cls-6" d="M515.45,577.37c2.73,2.81,7.09,4,10.42,4,4,0,7.82-1.27,11.57-2.62,7.53-2.71,13.8-3.13,11.64-13.14a19.62,19.62,0,0,0-13.5-14.82,38.91,38.91,0,0,0-7.46-1.92s-.14,9.75-.14,9.75l1.71-.65a25.72,25.72,0,0,0-8.7,5.26c-2.46,2.13-5.5,4.38-6.78,7.39A5.51,5.51,0,0,0,515.45,577.37Z" transform="translate(-0.13)"/><path class="cls-6" d="M532.48,601.22c-4.81-.16-9.1-2.26-13.09-4.79-2.93-1.86-7.93-5-6.08-9.18,1.69-3.77,7.35-3.73,10.88-5l18.09-6.3c3,2,4.7,5.86,5.16,9.7C548.73,596.47,543.88,601.61,532.48,601.22Z" transform="translate(-0.13)"/><path class="cls-50" d="M528,548.85l1,.21c.65.14,1.6.38,2.8.75a37,37,0,0,1,4.27,1.6,28.65,28.65,0,0,1,5.2,3,20.3,20.3,0,0,1,4.89,5.18,16.59,16.59,0,0,1,1.69,3.55,15.8,15.8,0,0,1,.51,2,11.64,11.64,0,0,1,.12,2.05,8.69,8.69,0,0,1-1,4.06,10.11,10.11,0,0,1-2.8,3.37,25.86,25.86,0,0,1-8.61,4.29,38,38,0,0,1-9.62,1.67,14.28,14.28,0,0,1-4.48-.48,15.3,15.3,0,0,1-4-1.61,8.51,8.51,0,0,1-2.92-2.68,5.21,5.21,0,0,1-.73-3.49,7.47,7.47,0,0,1,1.56-3.15,26.12,26.12,0,0,1,2.34-2.55c1.62-1.59,3-3.08,4.34-4.21a27.93,27.93,0,0,1,3.68-2.69,20.94,20.94,0,0,1,2.56-1.31l.94-.37s-.33.09-1,.3a20.38,20.38,0,0,0-2.68,1.14,28.43,28.43,0,0,0-3.89,2.49c-1.45,1.08-2.93,2.52-4.59,4a26.37,26.37,0,0,0-2.55,2.53,8.48,8.48,0,0,0-1.93,3.58,6.45,6.45,0,0,0,.75,4.4,9.68,9.68,0,0,0,3.31,3.27,17,17,0,0,0,4.38,1.89,16.5,16.5,0,0,0,4.94.62,38,38,0,0,0,10.09-1.68,26.63,26.63,0,0,0,9.17-4.67,11.07,11.07,0,0,0,4.22-8.71,13.73,13.73,0,0,0-.22-2.33,15.36,15.36,0,0,0-.63-2.16,16.73,16.73,0,0,0-2-3.76,20.8,20.8,0,0,0-5.39-5.24,29,29,0,0,0-5.49-2.75,37,37,0,0,0-4.41-1.35c-1.23-.29-2.2-.46-2.85-.55Z" transform="translate(-0.13)"/><path class="cls-6" d="M537.75,601.78c3.21,6.74,1.06,10.61-5.61,13.06-3.74,1.37-8,.49-11.55-1.51a21,21,0,0,1-6.39-5,10.57,10.57,0,0,1-2.5-5.29c-.54-4.17,5.28-5.91,8.48-6.43Z" transform="translate(-0.13)"/><path class="cls-50" d="M537.75,601.78l.18.52a13.24,13.24,0,0,1,.49,1.5,8.55,8.55,0,0,1,0,5.51,6.64,6.64,0,0,1-2.37,2.82,15.54,15.54,0,0,1-4,1.94,12.92,12.92,0,0,1-9.66-.8,23.89,23.89,0,0,1-8.11-6,8.55,8.55,0,0,1-1.86-3.79,4.1,4.1,0,0,1,.1-1.82,4.6,4.6,0,0,1,.84-1.52,8.31,8.31,0,0,1,2.48-1.94,14.52,14.52,0,0,1,2.27-1c.64-.23,1.16-.37,1.51-.47l.53-.13-.55.06a15.24,15.24,0,0,0-1.57.27,14.31,14.31,0,0,0-2.42.75,8.58,8.58,0,0,0-2.9,1.87,5.12,5.12,0,0,0-1.17,1.75,5.05,5.05,0,0,0-.31,2.3,9.42,9.42,0,0,0,1.86,4.55,18.05,18.05,0,0,0,3.75,3.76,26.56,26.56,0,0,0,4.83,2.94,16.09,16.09,0,0,0,5.57,1.43,11.79,11.79,0,0,0,5.33-.85,15.5,15.5,0,0,0,4.18-2.37,7,7,0,0,0,2.64-6.92,11.59,11.59,0,0,0-.74-2.45,14.94,14.94,0,0,0-.68-1.44Z" transform="translate(-0.13)"/><path class="cls-50" d="M542.33,575.85l.57.54a13.21,13.21,0,0,1,1.51,1.64,16.75,16.75,0,0,1,3.07,7.44,15.49,15.49,0,0,1-.1,5.5,11.7,11.7,0,0,1-2.65,5.53,10.22,10.22,0,0,1-5.73,3.33,25.43,25.43,0,0,1-7.45.45,27.53,27.53,0,0,1-13.5-5,26.33,26.33,0,0,1-2.55-2.06,13.38,13.38,0,0,1-2-2.25,4.47,4.47,0,0,1-.58-1.21,3.64,3.64,0,0,1-.11-1.22,3.36,3.36,0,0,1,1.17-2,12.62,12.62,0,0,1,3.95-2.23c1.29-.5,2.43-.84,3.36-1.12,1.88-.54,2.91-.89,2.91-.89s-1.05.24-3,.62c-1,.2-2.13.45-3.48.86a12.9,12.9,0,0,0-4.35,2.1,4.28,4.28,0,0,0-1.62,2.54,4.93,4.93,0,0,0,.05,1.67,6.18,6.18,0,0,0,.64,1.55,14.11,14.11,0,0,0,2.1,2.58,24.15,24.15,0,0,0,2.61,2.29A27.38,27.38,0,0,0,531.41,602a25.38,25.38,0,0,0,8-.58A13,13,0,0,0,543,600a11.27,11.27,0,0,0,2.83-2.52,12.87,12.87,0,0,0,2.7-6.27,16,16,0,0,0-.23-5.87,16.5,16.5,0,0,0-3.72-7.45,13.12,13.12,0,0,0-1.67-1.53Z" transform="translate(-0.13)"/><path class="cls-6" d="M34.62,577.37c-2.72,2.81-7.08,4-10.41,4-4,0-7.82-1.27-11.57-2.62C5.11,576-1.17,575.61,1,565.6a19.62,19.62,0,0,1,13.49-14.82A39.13,39.13,0,0,1,22,548.86s.14,9.75.14,9.75L20.38,558a25.66,25.66,0,0,1,8.71,5.26c2.46,2.13,5.5,4.38,6.77,7.39A5.48,5.48,0,0,1,34.62,577.37Z" transform="translate(-0.13)"/><path class="cls-6" d="M17.59,601.22c4.82-.16,9.1-2.26,13.1-4.79,2.92-1.86,7.93-5,6.08-9.18-1.69-3.77-7.35-3.73-10.88-5L7.79,576c-3,2-4.69,5.86-5.15,9.7C1.35,596.47,6.2,601.61,17.59,601.22Z" transform="translate(-0.13)"/><path class="cls-50" d="M22.08,548.86l-1,.13c-.66.09-1.62.26-2.85.55a37,37,0,0,0-4.41,1.35,28.68,28.68,0,0,0-5.49,2.75,20.65,20.65,0,0,0-5.39,5.24,16.94,16.94,0,0,0-2,3.76,15.39,15.39,0,0,0-.64,2.16,13.73,13.73,0,0,0-.21,2.33,11.07,11.07,0,0,0,4.22,8.71,26.63,26.63,0,0,0,9.17,4.67,38,38,0,0,0,10.08,1.68,17.2,17.2,0,0,0,9.33-2.52,9.65,9.65,0,0,0,3.31-3.26A6.39,6.39,0,0,0,37,572a8.46,8.46,0,0,0-1.92-3.58,28.85,28.85,0,0,0-2.55-2.53c-1.67-1.49-3.15-2.93-4.6-4A26.25,26.25,0,0,0,24,559.41a18.87,18.87,0,0,0-2.67-1.15c-.63-.21-1-.3-1-.3l.94.37a21.29,21.29,0,0,1,2.57,1.32,26.25,26.25,0,0,1,3.67,2.68c1.37,1.13,2.73,2.62,4.34,4.21a26.2,26.2,0,0,1,2.35,2.55,7.34,7.34,0,0,1,1.55,3.15,5.1,5.1,0,0,1-.73,3.49,8.47,8.47,0,0,1-2.91,2.68,15.3,15.3,0,0,1-4,1.61,14.31,14.31,0,0,1-4.49.48A38,38,0,0,1,14,578.83a25.86,25.86,0,0,1-8.61-4.29,10,10,0,0,1-2.8-3.37,8.82,8.82,0,0,1-1-4.06,12.69,12.69,0,0,1,.13-2.05,14.23,14.23,0,0,1,.51-2,15.89,15.89,0,0,1,1.69-3.55,20.3,20.3,0,0,1,4.89-5.18,28.92,28.92,0,0,1,5.2-3,36.3,36.3,0,0,1,4.27-1.6c1.2-.37,2.15-.61,2.79-.75Z" transform="translate(-0.13)"/><path class="cls-6" d="M12.33,601.78c-3.21,6.74-1.06,10.61,5.61,13.06,3.74,1.37,8,.49,11.55-1.51a21,21,0,0,0,6.39-5,10.57,10.57,0,0,0,2.5-5.29c.54-4.17-5.28-5.91-8.49-6.43Z" transform="translate(-0.13)"/><path class="cls-50" d="M12.33,601.78l-.25.49a11.28,11.28,0,0,0-.68,1.44,11.59,11.59,0,0,0-.74,2.45,7.26,7.26,0,0,0,.19,3.45,7.47,7.47,0,0,0,2.45,3.47,15.55,15.55,0,0,0,4.17,2.37,11.81,11.81,0,0,0,5.34.85,16.09,16.09,0,0,0,5.57-1.43,26.91,26.91,0,0,0,4.83-2.94A18.3,18.3,0,0,0,37,608.17a9.52,9.52,0,0,0,1.86-4.55,5.19,5.19,0,0,0-.31-2.3,5.53,5.53,0,0,0-1.17-1.75,8.58,8.58,0,0,0-2.9-1.87A15.37,15.37,0,0,0,32,597c-.67-.15-1.21-.22-1.57-.27l-.55-.06.54.14c.35.09.86.23,1.51.46a14.46,14.46,0,0,1,2.26,1,8.07,8.07,0,0,1,2.48,1.94,4.43,4.43,0,0,1,.84,1.52,4,4,0,0,1,.1,1.82,8.53,8.53,0,0,1-1.85,3.79,23.84,23.84,0,0,1-8.12,6,13,13,0,0,1-9.65.8,15.38,15.38,0,0,1-4-1.94,6.7,6.7,0,0,1-2.37-2.82,8.55,8.55,0,0,1,0-5.51c.17-.66.36-1.16.48-1.5S12.33,601.78,12.33,601.78Z" transform="translate(-0.13)"/><path class="cls-50" d="M7.75,575.85s-.22.16-.62.48a13.93,13.93,0,0,0-1.67,1.53,16.5,16.5,0,0,0-3.72,7.45,16,16,0,0,0-.23,5.87,12.78,12.78,0,0,0,2.7,6.27A11.1,11.1,0,0,0,7,600a13,13,0,0,0,3.62,1.49,25.47,25.47,0,0,0,8,.58,27.41,27.41,0,0,0,14.24-5.55,25.16,25.16,0,0,0,2.6-2.29,14,14,0,0,0,2.1-2.58,5.52,5.52,0,0,0,.64-1.55,4.69,4.69,0,0,0,.06-1.67,4.25,4.25,0,0,0-1.63-2.54,13,13,0,0,0-4.35-2.1c-1.34-.4-2.51-.65-3.47-.86-1.92-.38-3-.61-3-.61s1,.34,2.9.88c.94.28,2.08.62,3.36,1.12a12.66,12.66,0,0,1,4,2.23,3.39,3.39,0,0,1,1.17,2,3.64,3.64,0,0,1-.11,1.22,4.79,4.79,0,0,1-.58,1.21,13.46,13.46,0,0,1-2,2.25A26.19,26.19,0,0,1,32,595.3a27.53,27.53,0,0,1-13.5,5,25.48,25.48,0,0,1-7.46-.45,10.19,10.19,0,0,1-5.72-3.33A11.7,11.7,0,0,1,2.7,591a15.49,15.49,0,0,1-.1-5.5A16.8,16.8,0,0,1,5.67,578a13.21,13.21,0,0,1,1.51-1.64Z" transform="translate(-0.13)"/></g></g></svg>