<svg xmlns="http://www.w3.org/2000/svg" viewBox="0 0 235.26 159.72"><defs><style>.cls-1{fill:#8f5f00;}.cls-2{fill:#cfa457;}.cls-3{fill:#d7ab65;}.cls-4{fill:#84b200;}.cls-5{fill:#b3db3d;}.cls-6{fill:#9f702c;}.cls-7{fill:#aac92c;}.cls-8{fill:#89c12b;}.cls-9{fill:#9cc934;}</style></defs><title>Asset 1</title><g id="Layer_2" data-name="Layer 2"><g id="Layer_2-2" data-name="Layer 2"><path class="cls-1" d="M23.14,23c-3.49,2.44-7.92,1.35-10.2-2.38C7.24,11.3,19.25,6,26.31,4.86c6.06-.93,17.17-3.48,22.43,1.06a8.36,8.36,0,0,1,2.68,6.66A13.25,13.25,0,0,1,51,16a3.62,3.62,0,0,1-2.63,2.48,6.42,6.42,0,0,1-2.94,1c0,.13,2.43,13.24,2.7,17.87a54.12,54.12,0,0,1-2,18.26c-1.05,3.61-2.54,7.22-5.2,9.87A19.29,19.29,0,0,1,31,70.3c-15.6,3.14-27.42-5-27.42-20.89a22.17,22.17,0,0,1,.57-4.59,23.46,23.46,0,0,1,1.65-5,15.5,15.5,0,0,1,2.58-4,4.53,4.53,0,0,1,3.45-1.65,7.06,7.06,0,0,1,3.05.67,9.57,9.57,0,0,1,2.42,1.65,7.69,7.69,0,0,1,1.6,2.12,4.66,4.66,0,0,1,.57,2.07c0,3.55-1.76,10.15,4.3,10,3.47-.1,5.67-3.79,6.53-7.16,1.67-6.56.13-13.11-.87-19.65C29.15,22.24,29,21.31,29,21Z"/><path class="cls-2" d="M20.19,22c-3.49,2.44-7.92,1.35-10.2-2.38C4.29,10.31,16.3,5,23.36,3.88,29.42,2.94,40.53.39,45.78,4.94a8.3,8.3,0,0,1,2.69,6.65A13.32,13.32,0,0,1,48,15a3.61,3.61,0,0,1-2.63,2.47,6.27,6.27,0,0,1-2.94,1c0,.14,2.43,13.25,2.7,17.88a54.15,54.15,0,0,1-2,18.26c-1,3.61-2.54,7.21-5.2,9.87A19.24,19.24,0,0,1,28,69.31C12.41,72.45.59,64.37.59,48.43a22,22,0,0,1,.57-4.59,23.55,23.55,0,0,1,1.65-5,15.44,15.44,0,0,1,2.58-4,4.53,4.53,0,0,1,3.45-1.65,6.92,6.92,0,0,1,3.05.67,9.57,9.57,0,0,1,2.42,1.65,7.69,7.69,0,0,1,1.6,2.12,4.63,4.63,0,0,1,.57,2.07c0,3.54-1.76,10.15,4.29,10,3.47-.1,5.68-3.79,6.53-7.15,1.68-6.56.14-13.11-.86-19.65q-.36-2.37-.36-2.79Z"/><path class="cls-3" d="M31.29,11.61a3.8,3.8,0,0,0-1,2.2c0,.55,0,1.12,0,1.68,0,1.14.1,2.29.16,3.44a41.37,41.37,0,0,0,.4,4.44c.09.6.23,1.22.27,1.84,0-.15-.13-1.09,0-.2,0,.37.09.73.13,1.1.28,2.5.43,5,.56,7.53.06,1.15.08,2.31.06,3.47,0,.6-.05,1.2-.09,1.81,0,.24,0,.48-.05.72s-.31,1.64-.06.69,0,.17-.06.32l-.12.7c-.11.58-.23,1.16-.37,1.74a33.75,33.75,0,0,1-1.14,3.53c-.28.75.61-1.3.08-.21-.1.22-.2.43-.31.64-.26.54-.54,1.06-.85,1.58s-.64,1-1,1.52c-.6.9.2-.31.23-.28a11.37,11.37,0,0,1-.86,1c-.39.43-.82.8-1.25,1.2-1,.89,1.1-.65,0,0l-.65.41c-.27.16-.56.29-.84.45-.72.42,1.43-.47.21-.09l-.72.23-.73.17q1.41-.15.69-.09c-.51,0-1.08,0-1.58,0,1.33-.18,1.26.21.45,0L22.22,53c-.24-.07-.46-.18-.7-.24-.75-.19,1.55.78.59.24l-.63-.35c-1.21-.61,1.05,1,.27.25s-1.57-1.47-2.27-2.28c-.13-.15-.25-.32-.38-.47,1.43,1.6.58.76.26.27s-.6-1-.86-1.44-1-2.63-.23-.34c-.16-.49-.37-1-.52-1.45a22.3,22.3,0,0,1-.81-3.53l.25,1.82c-.13-.94-.17-1.89-.28-2.83a7.38,7.38,0,0,0-2-4.79,6.76,6.76,0,0,0-9.58,0,7.87,7.87,0,0,0-2,4.79,17.57,17.57,0,0,0,.43,5,21.33,21.33,0,0,0,.92,3.51,28,28,0,0,0,4.85,8.6,16.67,16.67,0,0,0,18.34,4.72c6.92-2.78,11.33-9.41,13.41-16.36a40.26,40.26,0,0,0,.73-19,47.43,47.43,0,0,0-2.89-10c-.63-1.38-1.36-2.73-2.07-4.07-.84-1.56-1.9-3.4-3.66-4a2.14,2.14,0,0,0-2.12.56Z"/><path class="cls-3" d="M44,8.39c-1.7-2-4.6-2.15-7-2.35-2.19-.17-4.4-.27-6.6-.32a99.23,99.23,0,0,0-13.46.55,7.39,7.39,0,0,0-4.57,1.9,6.17,6.17,0,0,0-1.78,5.43A6.14,6.14,0,0,0,13,17.83c1.47,1.13,3.8,1.92,5.64,1.15a65.75,65.75,0,0,1,12.32-3.8c1-.2,2-.4,3-.53-.7.09,1-.1,1.16-.11l1.41-.13c2-.15,4.08.08,6-.42,2.61-.67,3-3.75,1.48-5.6Z"/><path class="cls-4" d="M2.86,11.13S5.71,8.28,8.52,8.78,13,12.94,13,12.94s-2.86,2.84-5.66,2.34S2.86,11.13,2.86,11.13Z"/><path class="cls-5" d="M5.91,11.69s2-1.68,4-1.34S13,12.93,13,12.93s-2,1.68-4,1.34S5.91,11.69,5.91,11.69Z"/><path class="cls-4" d="M14.37,11.53a6.71,6.71,0,0,1-1.78-1.71,6.29,6.29,0,0,1-1.19-5,6.26,6.26,0,0,1,3.13-4A6.71,6.71,0,0,1,16.86,0s.33,1,.64,2.27a9.1,9.1,0,0,1,.35,4,9.21,9.21,0,0,1-2,3.47C15.09,10.73,14.37,11.53,14.37,11.53Z"/><path class="cls-5" d="M14.36,11.53a4.41,4.41,0,0,1-1.17-1.12,4.1,4.1,0,0,1-.78-3.26A4.14,4.14,0,0,1,14.47,4.5,4.57,4.57,0,0,1,16,4s.21.68.41,1.49a6.13,6.13,0,0,1,.24,2.62,6.16,6.16,0,0,1-1.29,2.28C14.83,11,14.36,11.53,14.36,11.53Z"/><path class="cls-4" d="M10.57,7.92A6.21,6.21,0,0,1,8.94,8,4.68,4.68,0,0,1,6,6.91,4.72,4.72,0,0,1,4.67,4a6.29,6.29,0,0,1,0-1.63,9.1,9.1,0,0,1,1.6.13A5.22,5.22,0,0,1,9,3.7a5.22,5.22,0,0,1,1.34,2.63A9.87,9.87,0,0,1,10.57,7.92Z"/><path class="cls-5" d="M10.57,7.92A4.53,4.53,0,0,1,9.46,8a3.21,3.21,0,0,1-2-.77,3.3,3.3,0,0,1-.91-2,4.57,4.57,0,0,1,0-1.12,6.72,6.72,0,0,1,1.1.09A3.62,3.62,0,0,1,9.49,5a3.57,3.57,0,0,1,.92,1.81A6.51,6.51,0,0,1,10.57,7.92Z"/><path class="cls-6" d="M38.67,35.56A13.18,13.18,0,0,1,39,40.68c-.14,1.56-.31,3.11-.59,4.65A32.36,32.36,0,0,1,35.69,54a21,21,0,0,1-5.29,6.93,17.43,17.43,0,0,1-7.25,3.6,14.4,14.4,0,0,1-3.94.35,14.25,14.25,0,0,1-3.9-.71,6.94,6.94,0,0,1-.9-.34c-.28-.13-.52.28-.24.41s.61.34.93.48.67.28,1,.4a9.83,9.83,0,0,0,2,.47,13.82,13.82,0,0,0,4.21-.09A17.55,17.55,0,0,0,30,62.13a20.78,20.78,0,0,0,5.64-6.85,32.69,32.69,0,0,0,3-8.76,44.34,44.34,0,0,0,.68-4.6,15.05,15.05,0,0,0-.24-5.14,9.67,9.67,0,0,0-.4-1.22s0,0,0,0Z"/><path class="cls-1" d="M67,41.47c0,.4,0,.78,0,1.16s0,.76,0,1.16c0,.8,0,1.62,0,2.45l.07,2.54A6.48,6.48,0,0,0,68,51.93a2.53,2.53,0,0,0,2.33,1.4A3.16,3.16,0,0,0,73,51.87a9.9,9.9,0,0,0,1.41-3.35A22.85,22.85,0,0,0,75,44.59c.08-1.32.1-2.36.08-3.1L75,38.74a25.28,25.28,0,0,1,.11-3.45,7,7,0,0,1,.79-2.64,4.35,4.35,0,0,1,1.75-1.73,6.79,6.79,0,0,1,3.12-.7,8.3,8.3,0,0,1,6.39,2.31,8.56,8.56,0,0,1,2.55,6c0,1.26,0,2.64,0,4.13s-.15,2.9-.22,4.22c0,.18,0,.38,0,.61a4.27,4.27,0,0,0,0,.6q-.12,1.73-.24,3.66c-.08,1.3-.1,2.51-.06,3.66,0,.63.06,1.3.14,2s.19,1.38.32,2a10.36,10.36,0,0,1,.27,1.76c0,.65.08,1.27.09,1.84A4.71,4.71,0,0,1,88,67.43a9.74,9.74,0,0,1-5.25,1.45c-2.35.07-4-.31-5.06-1.14a6.85,6.85,0,0,1-2.07-4.33,11.77,11.77,0,0,1-4.55,4.43,12.93,12.93,0,0,1-5.77,1.55,10,10,0,0,1-4.89-1.06,11.16,11.16,0,0,1-3.74-3.07,15.48,15.48,0,0,1-2.41-4.4,16,16,0,0,1-1-5q0-.69,0-1.29c0-.4,0-.83,0-1.29l-.07-2.49c0-.81,0-1.63,0-2.46l-.08-2.62c0-.4,0-.8-.08-1.2s-.09-.83-.16-1.28a4.31,4.31,0,0,0-.07-.65,6.06,6.06,0,0,1-.06-.64,15.25,15.25,0,0,1-.27-2c0-.72-.09-1.37-.1-1.94A6.89,6.89,0,0,1,54,33a6,6,0,0,1,4.46-2,8,8,0,0,1,6.13,2.1A8.85,8.85,0,0,1,67,39.4Z"/><path class="cls-2" d="M65.07,41.53c0,.4,0,.78,0,1.16a11.15,11.15,0,0,0,0,1.16c0,.8,0,1.62,0,2.45l.08,2.54A6.41,6.41,0,0,0,66,52a2.53,2.53,0,0,0,2.32,1.4A3.18,3.18,0,0,0,71,51.93a10,10,0,0,0,1.4-3.35A21.91,21.91,0,0,0,73,44.65c.08-1.33.11-2.36.09-3.1L73,38.8a25.13,25.13,0,0,1,.12-3.45,6.88,6.88,0,0,1,.78-2.65A4.46,4.46,0,0,1,75.64,31a6.86,6.86,0,0,1,3.12-.7,8.3,8.3,0,0,1,6.4,2.31,8.53,8.53,0,0,1,2.54,6c0,1.26,0,2.64,0,4.13s-.14,2.9-.22,4.22a3.39,3.39,0,0,1,0,.61,4.23,4.23,0,0,0,0,.6q-.12,1.73-.24,3.66t-.06,3.66c0,.63.07,1.3.15,2a19.29,19.29,0,0,0,.31,2,10.36,10.36,0,0,1,.27,1.76c0,.65.08,1.27.1,1.84A4.69,4.69,0,0,1,86,67.49a9.62,9.62,0,0,1-5.24,1.44q-3.52.1-5.07-1.14a6.82,6.82,0,0,1-2.06-4.32,11.86,11.86,0,0,1-4.56,4.43,13.06,13.06,0,0,1-5.76,1.55,9.92,9.92,0,0,1-4.89-1.06,11.1,11.1,0,0,1-3.75-3.07,15.73,15.73,0,0,1-2.41-4.4,16.32,16.32,0,0,1-1-5.05c0-.46,0-.89,0-1.29s0-.83,0-1.29l-.07-2.5c0-.8,0-1.62,0-2.45l-.07-2.62c0-.4,0-.8-.08-1.2s-.1-.83-.17-1.29a6.06,6.06,0,0,0-.06-.64,3.24,3.24,0,0,1-.06-.64,13.67,13.67,0,0,1-.28-2c-.05-.71-.08-1.36-.1-1.93a6.85,6.85,0,0,1,1.62-5,6,6,0,0,1,4.45-2,8.06,8.06,0,0,1,6.13,2.1A8.85,8.85,0,0,1,65,39.46Z"/><path class="cls-3" d="M82,63.63c1.88-1.42,2.2-4.08,2.55-6.3.31-2,.56-4,.77-6a95.58,95.58,0,0,0,.52-12.43,7.09,7.09,0,0,0-1.3-4.34,5.21,5.21,0,0,0-4.57-2,5.28,5.28,0,0,0-3.84,2,5.87,5.87,0,0,0-1.42,5.11,64.19,64.19,0,0,1,2.38,11.6c.09.91.19,1.84.24,2.76,0-.65,0,.93,0,1.08v1.31a33.46,33.46,0,0,0-.08,5.57A2.88,2.88,0,0,0,82,63.63Z"/><path class="cls-3" d="M67.6,57.18a6.18,6.18,0,0,0,3.62-1.09c.77-.55,1.47-1.65,2.28-.27a3.71,3.71,0,0,1,0,3.14c-2.09,5.63-9.35,8.86-14.42,4.43-3.84-3.35-5.14-9.46-5.69-14.26-.35-3.1-.58-6.44-.71-9.53-.08-1.87-.1-5.22,2.05-6a2.71,2.71,0,0,1,3,1.17,10,10,0,0,1,1.4,6,25.87,25.87,0,0,0,.69,7.11C60.69,51.62,62.67,57.13,67.6,57.18Z"/><path class="cls-6" d="M80.27,37.1a.29.29,0,0,1,0,.09l0,0h0v0s0,0,0,0,0,0,0,0v0l0,0v.07s0,0,0,0a1.54,1.54,0,0,1,0,.37v.1s0,0,0,0V38a1.33,1.33,0,0,1,0,.19l0,.09a0,0,0,0,0,0,0h0l0,.05a.8.8,0,0,1-.08.16l0,0,0,0s0,0,0,0l-.07.08-.07.08-.07.08a.09.09,0,0,0,0,.11.08.08,0,0,0,.1,0l.08-.06a.34.34,0,0,0,.09-.08,1.09,1.09,0,0,0,.13-.17,1.56,1.56,0,0,0,.17-.37,1.35,1.35,0,0,0,.08-.4,1.39,1.39,0,0,0,0-.41l0-.1,0,0,0-.07a.1.1,0,0,0,0,0h0v0l0,0-.07-.09s0,0,0,0Z"/><path class="cls-6" d="M79,38.7Z"/><path class="cls-6" d="M79.93,36.11l.09,0,0,0,0,0a1.67,1.67,0,0,0,.2.08,1.77,1.77,0,0,1,.32.21,1.69,1.69,0,0,1,.48.61,2.83,2.83,0,0,1,.24,1.65,2.65,2.65,0,0,1-.29.86,1.41,1.41,0,0,1-.75.69,1.07,1.07,0,0,1-1-.3,2.47,2.47,0,0,1-.62-.81,3.34,3.34,0,0,1-.17-.44,4.5,4.5,0,0,1-.1-.44,3.87,3.87,0,0,1,0-.48,1.7,1.7,0,0,1,0-.22v-.06h0l0-.14a1.55,1.55,0,0,1,0-.21l0-.1,0-.06v0l0,0s0-.13,0-.06,0-.07,0-.11a2,2,0,0,1,.11-.2l.06-.09,0,0c0,.06,0,0,0,0a1.14,1.14,0,0,1,.15-.17A.6.6,0,0,1,79,36.2l0,0c.06,0,0,0,0,0l.19-.14.1-.05,0,0h0l.21-.07.21-.06c.07,0,0,0,0,0h.56a2.42,2.42,0,0,1,.45.1l.21.06s.08,0,0,0l0,0,.12,0a2.82,2.82,0,0,1,.42.23l.18.12h0l0,0,.11.09a2.57,2.57,0,0,1,.33.33,3.74,3.74,0,0,1,.25.36,2.33,2.33,0,0,1,.21.49A3.74,3.74,0,0,1,83,38.9a6.24,6.24,0,0,1-.59,2.43c-.08.19-.17.38-.26.57s.1.18.15.08a6.69,6.69,0,0,0,.91-2.53,4.18,4.18,0,0,0,0-1.32A4,4,0,0,0,82.82,37a3.14,3.14,0,0,0-1.46-1.44,2.58,2.58,0,0,0-2-.12A2.19,2.19,0,0,0,78,37,3.32,3.32,0,0,0,78.25,39a3.54,3.54,0,0,0,.56.86,1.93,1.93,0,0,0,1,.69c.84.17,1.42-.63,1.66-1.33a3.05,3.05,0,0,0,0-1.89,1.86,1.86,0,0,0-1.16-1.29,1.3,1.3,0,0,0-.21,0h0s0,0,0,0,0,0,0,0l-.1,0s0,0,0,0Z"/><path class="cls-6" d="M76.92,38.24a4.07,4.07,0,0,0-.06.61,3.27,3.27,0,0,0,.07.62,4.86,4.86,0,0,0,1.9,3.06,4.23,4.23,0,0,0,1.26.62c.14,0,.23-.18.09-.23a3.74,3.74,0,0,1-.52-.28l-.24-.16-.06,0h0l0,0-.08-.06,0,0s0,0,0,0a5.37,5.37,0,0,1-.85-.8.52.52,0,0,1-.1-.11l0,0h0l0-.07L78,41.09a4.94,4.94,0,0,1-.3-.49c0-.09-.1-.18-.14-.27h0l0,0,0-.06-.06-.14a5.27,5.27,0,0,1-.19-.56,3.32,3.32,0,0,1-.13-.61c0-.22-.08-.44-.09-.67,0-.07-.12-.09-.13,0Z"/><path class="cls-4" d="M60.2,65a10.31,10.31,0,0,1-.75,1.52,5.86,5.86,0,0,1-2.23,2.28,5.91,5.91,0,0,1-3.16.43,10.57,10.57,0,0,1-1.67-.31,6.8,6.8,0,0,1,.54-1.63,5.23,5.23,0,0,1,2.27-2.51,5.15,5.15,0,0,1,3.37-.32A7,7,0,0,1,60.2,65Z"/><path class="cls-5" d="M60.2,65a6.53,6.53,0,0,1-.5,1,3.85,3.85,0,0,1-1.49,1.51,3.77,3.77,0,0,1-2.11.29A6,6,0,0,1,55,67.6a4.49,4.49,0,0,1,.36-1.08,3.46,3.46,0,0,1,1.51-1.68,3.51,3.51,0,0,1,2.25-.21A4.47,4.47,0,0,1,60.2,65Z"/><path class="cls-4" d="M61.25,67.1a8,8,0,0,1,.19,1.17,5,5,0,0,1-.23,2.26,4.9,4.9,0,0,1-1.37,1.81,8,8,0,0,1-.94.73,4.18,4.18,0,0,1-.51-1.1,3.61,3.61,0,0,1,1.73-4.41A4.06,4.06,0,0,1,61.25,67.1Z"/><path class="cls-5" d="M61.24,67.1a6.24,6.24,0,0,1,.12.79,3.28,3.28,0,0,1-.15,1.53,3.41,3.41,0,0,1-.93,1.22,6.2,6.2,0,0,1-.63.49,3.17,3.17,0,0,1-.35-.75,2.61,2.61,0,0,1,0-1.7,2.66,2.66,0,0,1,1.14-1.27A2.85,2.85,0,0,1,61.24,67.1Z"/><path class="cls-4" d="M63.55,67.63a3.48,3.48,0,0,1,2.67.68,3.46,3.46,0,0,1,.46,2.7A3.47,3.47,0,0,1,64,70.34,3.51,3.51,0,0,1,63.55,67.63Z"/><path class="cls-5" d="M63.53,67.63a1.91,1.91,0,0,1,2.38,2.56,1.92,1.92,0,0,1-2.38-2.56Z"/><path class="cls-1" d="M116.34,58.7c0-.4.07-.79.12-1.16a10.39,10.39,0,0,0,.12-1.15c.11-.8.2-1.61.25-2.44l.17-2.54a6.33,6.33,0,0,0-.6-3.22,2.51,2.51,0,0,0-2.18-1.61,3.14,3.14,0,0,0-2.79,1.19,9.87,9.87,0,0,0-1.72,3.2,22.66,22.66,0,0,0-.95,3.86c-.2,1.31-.33,2.34-.38,3.08l-.18,2.74a24.81,24.81,0,0,1-.44,3.42,7,7,0,0,1-1,2.56,4.36,4.36,0,0,1-1.91,1.55,7,7,0,0,1-3.17.4,8.33,8.33,0,0,1-6.14-2.91,8.56,8.56,0,0,1-2-6.25q.13-1.89.45-4.11c.21-1.48.42-2.87.62-4.18a4,4,0,0,1,.09-.6,5.12,5.12,0,0,0,.08-.59c.19-1.14.38-2.35.58-3.63s.34-2.49.42-3.63c0-.63.06-1.31,0-2a18.56,18.56,0,0,0-.13-2,9.78,9.78,0,0,1-.09-1.77c0-.66,0-1.28.08-1.85A4.68,4.68,0,0,1,98,30.85a9.63,9.63,0,0,1,5.36-.94q3.53.24,4.93,1.62a6.79,6.79,0,0,1,1.64,4.5,11.71,11.71,0,0,1,5-4,12.89,12.89,0,0,1,5.88-1,10,10,0,0,1,4.77,1.52A11.19,11.19,0,0,1,129,36a15.76,15.76,0,0,1,2,4.61,16.44,16.44,0,0,1,.48,5.12c0,.46-.08.89-.13,1.28s-.1.83-.13,1.29L131,50.8c-.11.79-.19,1.61-.24,2.43l-.18,2.62c0,.4,0,.8,0,1.21s0,.83.05,1.29a3.52,3.52,0,0,0,0,.65c0,.2,0,.42,0,.64a14.85,14.85,0,0,1,.08,2c0,.72,0,1.37-.09,1.94a6.83,6.83,0,0,1-2.08,4.81A6,6,0,0,1,123.87,70a8,8,0,0,1-5.9-2.68,8.85,8.85,0,0,1-1.76-6.53Z"/><path class="cls-2" d="M114.38,58.57c0-.4.07-.79.12-1.16s.09-.75.12-1.15c.11-.8.2-1.61.25-2.44l.17-2.54a6.43,6.43,0,0,0-.61-3.22,2.5,2.5,0,0,0-2.17-1.61,3.15,3.15,0,0,0-2.8,1.19,10.06,10.06,0,0,0-1.72,3.2,22.63,22.63,0,0,0-.94,3.86c-.21,1.31-.33,2.33-.38,3.08l-.18,2.74a26.36,26.36,0,0,1-.45,3.42,6.84,6.84,0,0,1-1,2.56,4.36,4.36,0,0,1-1.91,1.55,7,7,0,0,1-3.17.4,8.33,8.33,0,0,1-6.14-2.91,8.51,8.51,0,0,1-2-6.25c.09-1.26.23-2.63.45-4.11s.42-2.87.62-4.18a5.57,5.57,0,0,1,.08-.6,5.35,5.35,0,0,0,.09-.59c.19-1.14.38-2.35.58-3.63s.34-2.49.42-3.63c0-.63.05-1.31,0-2s0-1.39-.12-2a10.7,10.7,0,0,1-.1-1.77c0-.66,0-1.28.08-1.85A4.72,4.72,0,0,1,96,30.71a9.71,9.71,0,0,1,5.36-.93c2.34.15,4,.7,4.93,1.62A6.84,6.84,0,0,1,108,35.9a11.74,11.74,0,0,1,5-4,12.8,12.8,0,0,1,5.89-1,9.89,9.89,0,0,1,4.76,1.52A11.23,11.23,0,0,1,127,35.88a16.24,16.24,0,0,1,2.45,9.73c0,.46-.07.88-.12,1.28s-.1.83-.13,1.29L129,50.66c-.11.8-.19,1.62-.25,2.44l-.17,2.62c0,.4,0,.8,0,1.2s0,.84,0,1.3c0,.23,0,.45,0,.65a3.42,3.42,0,0,1,0,.64,13.41,13.41,0,0,1,.08,2c0,.72,0,1.37-.08,1.94a6.84,6.84,0,0,1-2.09,4.81,5.93,5.93,0,0,1-4.63,1.55A8,8,0,0,1,116,67.16a8.85,8.85,0,0,1-1.77-6.53Z"/><path class="cls-3" d="M116.28,45.29c1,2.3.74,5,.81,7.46l.26,9.49c.06,2.28.2,4.43,2.66,4.88,5.63,1,5.47-3.59,5.49-7.59a113.55,113.55,0,0,0-1.1-16.38,13.62,13.62,0,0,0-1.78-5.78c-4.57-6.78-12.09-1.37-14.44,4.15a2.75,2.75,0,0,1,2.9-1,6.16,6.16,0,0,1,2.8,1.64,10.39,10.39,0,0,1,2,2.35A5.7,5.7,0,0,1,116.28,45.29Z"/><path class="cls-3" d="M95.47,60.79c-.06,1.17,0,2.49.85,3.26,2.41,2.13,6.4.23,7.42-2.47a10.08,10.08,0,0,0,.49-3c.22-4,2-29.77-6.31-26.7-2.38.88-1.84,3.39-1.56,5.45C97.44,45.31,95.86,52.83,95.47,60.79Z"/><path class="cls-6" d="M115.27,52.49a1.08,1.08,0,0,1,.19,0,.42.42,0,0,1,.16,0l0,0a.24.24,0,0,0,.2.13l.23,0,.44.05.43,0,.45,0,.87.11.89.12,1,.17a.18.18,0,0,0,.07-.35,15.39,15.39,0,0,0-1.9-.44l-1-.12-.47,0h-.47a5.44,5.44,0,0,0-.57,0,.24.24,0,0,0-.16.07l0,0s0,0,0,0l-.12,0-.17,0s0,0,0,0Z"/><path class="cls-6" d="M115.36,54.27a2.3,2.3,0,0,0,.34.12l.36.08c.25.06.51.08.76.12.47.08,1,.13,1.43.19l2.89.35.8.1a2,2,0,0,0,.42,0,2.08,2.08,0,0,0,.43,0c.13,0,.12-.19,0-.24a5.08,5.08,0,0,0-1.45-.32l-1.42-.2c-1-.13-1.93-.28-2.89-.4l-.81-.08-.42,0a3.11,3.11,0,0,0-.43,0,.15.15,0,0,0,0,.29Z"/><path class="cls-4" d="M131.9,34.38s-2.33-1.74-4.29-1.09-2.79,3.43-2.79,3.43,2.33,1.74,4.29,1.09S131.9,34.38,131.9,34.38Z"/><path class="cls-5" d="M129.77,35.09a4.17,4.17,0,0,0-3-.54,3.78,3.78,0,0,0-2,2.17,4.17,4.17,0,0,0,3,.54A3.78,3.78,0,0,0,129.77,35.09Z"/><path class="cls-4" d="M123.71,35.85a4.74,4.74,0,0,0,1.1-1.4,4.26,4.26,0,0,0-2.31-6.23,4.73,4.73,0,0,0-1.76-.34s-.12.76-.21,1.68a6.51,6.51,0,0,0,.15,2.88,6.66,6.66,0,0,0,1.77,2.28C123.12,35.36,123.71,35.85,123.71,35.85Z"/><path class="cls-5" d="M123.72,35.86a3.15,3.15,0,0,0,.72-.93,3,3,0,0,0,.22-2.41,3,3,0,0,0-1.74-1.68,3.25,3.25,0,0,0-1.15-.22s-.08.5-.14,1.1a4.35,4.35,0,0,0,.1,1.9,4.33,4.33,0,0,0,1.16,1.49C123.33,35.53,123.72,35.86,123.72,35.86Z"/><path class="cls-4" d="M126.06,32.89a4.77,4.77,0,0,0,1.17-.09,3,3,0,0,0,2.64-3.3,4.56,4.56,0,0,0-.18-1.16,7.15,7.15,0,0,0-1.13.25,3.68,3.68,0,0,0-1.81,1.12,3.72,3.72,0,0,0-.69,2A7.45,7.45,0,0,0,126.06,32.89Z"/><path class="cls-5" d="M126.06,32.89a3.15,3.15,0,0,0,.8-.06,2.35,2.35,0,0,0,1.37-.76,2.27,2.27,0,0,0,.44-1.51,3.08,3.08,0,0,0-.12-.8,5.57,5.57,0,0,0-.77.18,2.61,2.61,0,0,0-1.25.76,2.57,2.57,0,0,0-.47,1.39A4.44,4.44,0,0,0,126.06,32.89Z"/><path class="cls-1" d="M149.93,66.4a2,2,0,0,1-.56.08h-.56a10.35,10.35,0,0,1-5.5-1.46,13.3,13.3,0,0,1-4.08-3.87,17.89,17.89,0,0,1-2.54-5.42,21.9,21.9,0,0,1-.86-6,26.83,26.83,0,0,1,1.2-7.82,25.16,25.16,0,0,1,3.4-7.09,18.41,18.41,0,0,1,5.33-5.12,12.86,12.86,0,0,1,7-2A13.69,13.69,0,0,1,161.89,31a9,9,0,0,1,2.36-1.51,6,6,0,0,1,2.36-.64,4.53,4.53,0,0,1,4,2.11,15.6,15.6,0,0,1,2.15,5.28,38.9,38.9,0,0,1,.91,6.8q.17,3.6.17,6.53c0,1.67,0,3.36-.09,5.08s-.14,3.44-.26,5.15q-.6,11.19-6.1,17.16t-15,6a17.77,17.77,0,0,1-4.69-.61,11.88,11.88,0,0,1-3.82-1.76,8.78,8.78,0,0,1-2.58-2.79,7.25,7.25,0,0,1-.95-3.7,7,7,0,0,1,1.46-4.39,4.5,4.5,0,0,1,3.7-1.89,7,7,0,0,1,1.76.21,10.38,10.38,0,0,1,1.77.61c.51.21,1,.39,1.46.53a5,5,0,0,0,1.37.2,7.38,7.38,0,0,0,4-1.15,5.93,5.93,0,0,0,2.54-3.12.17.17,0,0,1,0-.13.17.17,0,0,0,0-.13l.51-1.88a12.26,12.26,0,0,1,.69-1.88l-.26.35c-.63.52-1.32,1.06-2.06,1.64a22.86,22.86,0,0,1-2.37,1.6,15.8,15.8,0,0,1-2.49,1.21A8.73,8.73,0,0,1,149.93,66.4Zm5.85-14.53a9.77,9.77,0,0,0,3.7-7.69,5.55,5.55,0,0,0-.91-3,3.38,3.38,0,0,0-3.13-1.45,3.93,3.93,0,0,0-2.5.81,6.77,6.77,0,0,0-1.72,2.05,10.65,10.65,0,0,0-1,2.65,11,11,0,0,0-.34,2.61c0,3.36,1.08,5,3.26,5A5.13,5.13,0,0,0,155.78,51.87Z"/><path class="cls-2" d="M148,66.4a2,2,0,0,1-.56.08h-.56A10.36,10.36,0,0,1,141.34,65a13.41,13.41,0,0,1-4.08-3.87,17.89,17.89,0,0,1-2.54-5.42,21.9,21.9,0,0,1-.86-6,26.52,26.52,0,0,1,1.21-7.82,24.87,24.87,0,0,1,3.39-7.09,18.54,18.54,0,0,1,5.33-5.12,12.89,12.89,0,0,1,7-2A13.69,13.69,0,0,1,159.92,31a9.21,9.21,0,0,1,2.36-1.51,6,6,0,0,1,2.37-.64,4.55,4.55,0,0,1,4,2.11,15.8,15.8,0,0,1,2.15,5.28,39.89,39.89,0,0,1,.9,6.8q.17,3.6.17,6.53c0,1.67,0,3.36-.08,5.08s-.15,3.44-.26,5.15q-.6,11.19-6.11,17.16t-15,6a17.64,17.64,0,0,1-4.68-.61,11.83,11.83,0,0,1-3.83-1.76,8.78,8.78,0,0,1-2.58-2.79,7.25,7.25,0,0,1-.95-3.7,7,7,0,0,1,1.47-4.39,4.47,4.47,0,0,1,3.69-1.89,7.16,7.16,0,0,1,1.77.21,10.29,10.29,0,0,1,1.76.61c.52.21,1,.39,1.46.53a5.06,5.06,0,0,0,1.38.2,7.43,7.43,0,0,0,4-1.15,5.91,5.91,0,0,0,2.53-3.12.17.17,0,0,1,.05-.13.22.22,0,0,0,0-.13l.51-1.88a13.41,13.41,0,0,1,.69-1.88l-.26.35c-.63.52-1.31,1.06-2.06,1.64a22.72,22.72,0,0,1-2.36,1.6,16.33,16.33,0,0,1-2.5,1.21A8.66,8.66,0,0,1,148,66.4Zm5.84-14.53a9.77,9.77,0,0,0,3.7-7.69,5.62,5.62,0,0,0-.9-3,3.39,3.39,0,0,0-3.14-1.45,3.88,3.88,0,0,0-2.49.81,6.8,6.8,0,0,0-1.73,2.05,11.38,11.38,0,0,0-1.37,5.26q0,5,3.27,5A5.13,5.13,0,0,0,153.81,51.87Z"/><path class="cls-3" d="M146.91,40.69A11.9,11.9,0,0,0,144,52.13,4.73,4.73,0,0,0,145,54a3.91,3.91,0,0,0,4.48,1.26c1.6-.68,2.84-1.74,4.19-.41s1,3.75.18,5.12a8.94,8.94,0,0,1-11.1,3.28,12.84,12.84,0,0,1-6.11-7.65c-3.05-9.39,2.23-18.33,11.1-22a12.17,12.17,0,0,1,7.34-.93c.87.2,1.88.85,1.67,1.72a1.75,1.75,0,0,1-.63.85,15.14,15.14,0,0,1-4.68,2.43A12.33,12.33,0,0,0,146.91,40.69Z"/><path class="cls-3" d="M170.38,49c0-3.3-.29-6.57-.63-9.66-.26-2.26-1-6-3.42-7-3.09-1.23-6.14,1.5-6.89,4.34-1.43,5.48,1.6,11.63,2.32,17.07s.53,11.14-3.51,15.15c-3.28,3.26-8.45,3.88-13,3-1.28-.25-3-.4-3.53.79-1.13,2.46,4.78,4.82,6.39,5.37,6.81,2.33,12.66.72,16.59-4.85C169.2,66.84,170.49,56.56,170.38,49Z"/><path class="cls-6" d="M167.88,49.67a45.28,45.28,0,0,1,0,4.66c-.07,1.55-.16,3.1-.3,4.65A56,56,0,0,1,166,68.16c-.44,1.69-1,3.35-1.51,5,0,.12.14.16.19,0a49.19,49.19,0,0,0,2.49-9c.29-1.52.53-3.05.69-4.59a40.67,40.67,0,0,0,.27-4.68c0-1.75-.11-3.51-.25-5.26,0,0,0,0,0,0Z"/><path class="cls-6" d="M164.33,64.11c-.16.73-.23,1.48-.33,2.23a19.91,19.91,0,0,1-.4,2.18A15,15,0,0,1,162,72.65a11.45,11.45,0,0,1-2.74,3.22,9.92,9.92,0,0,1-3.62,1.83,10.35,10.35,0,0,1-4.5.15.17.17,0,0,0-.1.33,6,6,0,0,0,1,.31,7.61,7.61,0,0,0,1.07.11,8.4,8.4,0,0,0,2.12-.22,11.06,11.06,0,0,0,3.86-1.75A13,13,0,0,0,164,69.25a18.32,18.32,0,0,0,.47-2.56,8.27,8.27,0,0,0,0-2.58s-.08,0-.08,0Z"/><path class="cls-4" d="M161,76.82a11.77,11.77,0,0,0,1.13,1.89,7.63,7.63,0,0,0,3.17,2.7,7.51,7.51,0,0,0,4.15.21,13.5,13.5,0,0,0,2.13-.6,9.06,9.06,0,0,0-.88-2,6.76,6.76,0,0,0-3.24-3,6.83,6.83,0,0,0-4.42,0A8.86,8.86,0,0,0,161,76.82Z"/><path class="cls-5" d="M161,76.81a9.18,9.18,0,0,0,.76,1.26,5,5,0,0,0,2.11,1.8,5.08,5.08,0,0,0,2.77.14,8.73,8.73,0,0,0,1.42-.4,6.17,6.17,0,0,0-.58-1.37,4.58,4.58,0,0,0-2.17-2,4.49,4.49,0,0,0-2.94,0A5.87,5.87,0,0,0,161,76.81Z"/><path class="cls-4" d="M159.89,79.66a10.62,10.62,0,0,0-.11,1.55,5.47,5.47,0,0,0,2.54,5.11,12.17,12.17,0,0,0,1.31.84,5.55,5.55,0,0,0,.53-1.5,4.66,4.66,0,0,0-2.75-5.52A5.82,5.82,0,0,0,159.89,79.66Z"/><path class="cls-5" d="M159.91,79.66a7.58,7.58,0,0,0-.07,1,4.26,4.26,0,0,0,.37,2,4.39,4.39,0,0,0,1.34,1.48,7.27,7.27,0,0,0,.88.57,3.81,3.81,0,0,0,.36-1,3.35,3.35,0,0,0-.22-2.21A3.47,3.47,0,0,0,160.94,80,4,4,0,0,0,159.91,79.66Z"/><path class="cls-4" d="M157,80.62s-2.37-.13-3.38,1.18-.3,3.57-.3,3.57,2.37.13,3.39-1.18S157,80.62,157,80.62Z"/><path class="cls-5" d="M157,80.61a3.45,3.45,0,0,0-2.57.89,3.45,3.45,0,0,0-.23,2.71,3.41,3.41,0,0,0,2.57-.89A3.41,3.41,0,0,0,157,80.61Z"/><path class="cls-1" d="M221.83,68.94a25,25,0,0,1-6.54,0,12.81,12.81,0,0,1-5.58-2.31l-.08.1A15.72,15.72,0,0,1,203.46,60a26.87,26.87,0,0,1-2.5-8.71,23.94,23.94,0,0,1,.47-7.72,24.86,24.86,0,0,1,3-7.7,21.53,21.53,0,0,1,5.5-6.11,15.58,15.58,0,0,1,7.87-3.06A11.35,11.35,0,0,1,227,29.32q3.66,3.21,4.34,9.28a12.18,12.18,0,0,1-.61,5.61,14.06,14.06,0,0,1-2.81,4.65,15.65,15.65,0,0,1-4.38,3.35,16.64,16.64,0,0,1-5.34,1.73l-1.2.14c-.74.08-1.09.24-1.07.47a2.73,2.73,0,0,0,1.44,2,4.25,4.25,0,0,0,2.76.63,5.21,5.21,0,0,0,2-.79c.78-.46,1.55-1,2.29-1.51l.61-.38a7,7,0,0,0,.6-.37l.71-.68a13.56,13.56,0,0,1,1.35-1.07,3.73,3.73,0,0,1,1.74-.67,4,4,0,0,1,3.61,1.36,6.11,6.11,0,0,1,1.7,3.49,7.82,7.82,0,0,1-1.06,5.14,13.6,13.6,0,0,1-3.47,3.77,18.06,18.06,0,0,1-4.44,2.41A18.37,18.37,0,0,1,221.83,68.94Zm-6.77-25.28c.1.85.72,1.27,1.88,1.25l1.34-.75a10.21,10.21,0,0,0,1.44-1A5.78,5.78,0,0,0,220.84,42a2.24,2.24,0,0,0-.47-3,2.21,2.21,0,0,0-1.47-.35,4.19,4.19,0,0,0-2.83,1.75A4.45,4.45,0,0,0,215.06,43.66Z"/><path class="cls-2" d="M219.87,69.16a24.87,24.87,0,0,1-6.53,0,12.78,12.78,0,0,1-5.59-2.31l-.08.1a15.7,15.7,0,0,1-6.16-6.66A26.88,26.88,0,0,1,199,51.54a24.16,24.16,0,0,1,.47-7.71,24.79,24.79,0,0,1,3-7.7A21.4,21.4,0,0,1,208,30,15.61,15.61,0,0,1,215.86,27a11.35,11.35,0,0,1,9.21,2.59q3.65,3.21,4.34,9.28a12,12,0,0,1-.62,5.61,13.93,13.93,0,0,1-2.8,4.65,15.79,15.79,0,0,1-4.38,3.35,16.4,16.4,0,0,1-5.34,1.73l-1.2.14c-.74.08-1.1.24-1.07.47a2.71,2.71,0,0,0,1.44,2,4.16,4.16,0,0,0,2.75.64,5.36,5.36,0,0,0,2-.8c.79-.46,1.55-1,2.3-1.51a7,7,0,0,1,.6-.37l.61-.38.7-.68a14.53,14.53,0,0,1,1.35-1.06,3.68,3.68,0,0,1,1.74-.68,4.07,4.07,0,0,1,3.62,1.37,6.07,6.07,0,0,1,1.69,3.48,7.76,7.76,0,0,1-1.06,5.14,13.41,13.41,0,0,1-3.46,3.77,18,18,0,0,1-4.45,2.41A17.68,17.68,0,0,1,219.87,69.16Zm-6.76-25.28c.09.85.72,1.27,1.87,1.26l1.34-.76a9.76,9.76,0,0,0,1.45-1,5.78,5.78,0,0,0,1.12-1.21,2.05,2.05,0,0,0,.35-1.42,2,2,0,0,0-.82-1.55,2.25,2.25,0,0,0-1.47-.36,4.17,4.17,0,0,0-2.83,1.75A4.45,4.45,0,0,0,213.11,43.88Z"/><path class="cls-3" d="M211.72,30.46c2.25-1.1,4.64-1,7.09-1.08,4-.12,7.95,3.74,9,7.56a10.09,10.09,0,0,1-3.05,9.63,5.85,5.85,0,0,1-4.39,1.49,2.21,2.21,0,0,1-1-.31,2,2,0,0,1-.49-2.47c.95-2.06,3.49-3.09,2.57-5.9a5.34,5.34,0,0,0-3.67-3.11c-2.33-.33-4.61,2.76-5.88,4.32-3.07,3.77-5.09,10-3.58,14.83,1.31,4.14,5.51,5.25,9.43,4.79a17.73,17.73,0,0,0,5.83-1.67c.9-.46,2.16-2.48,3.27-1a1.77,1.77,0,0,1,.14,1.7,4.25,4.25,0,0,1-1,1.43c-5.31,5.4-14,7.24-19.72,1.36-4.54-4.69-6-12-4.54-18.26C202.93,38.45,206.69,32.92,211.72,30.46Z"/><path class="cls-6" d="M203.8,38.05c.13.18.26.36.41.53l.45.5c.31.34.62.66,1,1a16.76,16.76,0,0,0,2.1,1.65c.43.28.86.55,1.31.79.14.08.27-.15.13-.23A25.51,25.51,0,0,1,207,40.71,23.28,23.28,0,0,1,205.06,39c-.17-.18-.34-.35-.5-.53l-.53-.56a.15.15,0,0,0-.23.19Z"/><path class="cls-6" d="M202.65,39a2.86,2.86,0,0,0,.48.71c.18.23.38.45.58.66A16.8,16.8,0,0,0,205,41.57a19.26,19.26,0,0,0,2.83,2.08c.57.33,1.16.65,1.75.94.14.06.27-.16.14-.24a26.65,26.65,0,0,1-2.87-1.93c-.93-.7-1.81-1.46-2.66-2.24l-.69-.67-.35-.33L203,39a1.49,1.49,0,0,0-.2-.15c-.06,0-.14,0-.11.09Z"/><path class="cls-6" d="M207.57,39.11c-.08.18-.14.37-.23.55s-.17.34-.24.52c-.14.36-.28.72-.4,1.09s-.24.76-.33,1.14-.18.76-.26,1.14-.16.86-.22,1.29c0,.14.19.16.22,0,.16-.75.34-1.49.54-2.23s.39-1.5.59-2.25c0-.2.11-.41.15-.62s.13-.43.2-.65Z"/><path class="cls-6" d="M209,39.78c-.21.54-.4,1.08-.56,1.64a13.53,13.53,0,0,0-.35,1.68,15.23,15.23,0,0,0-.12,3.44,14,14,0,0,0,.28,1.93.12.12,0,1,0,.24,0,19.19,19.19,0,0,1,.07-6.76,15.16,15.16,0,0,1,.46-1.88s0,0,0,0Z"/><path class="cls-6" d="M230.41,60.33c-.08.13-.19.22-.28.34s-.19.26-.3.39-.39.47-.6.69a12.76,12.76,0,0,1-1.4,1.25,15.78,15.78,0,0,1-3.34,1.91,18.44,18.44,0,0,1-3.76,1.18,25.21,25.21,0,0,1-4,.41,18.44,18.44,0,0,1-4.44-.5c-.14,0-.19.2-.06.24a15.24,15.24,0,0,0,2,.5c.68.12,1.36.17,2,.24a13.16,13.16,0,0,0,2.08,0,17.12,17.12,0,0,0,2-.24,17.74,17.74,0,0,0,7.46-3.1,8.49,8.49,0,0,0,1.59-1.46,5.4,5.4,0,0,0,.61-.89,4.09,4.09,0,0,0,.23-.47,3.1,3.1,0,0,0,.15-.52s0,0,0,0Z"/><path class="cls-4" d="M201.74,44.91s.37-2.56-1-3.91-3.91-1-3.91-1-.37,2.56,1,3.91S201.74,44.91,201.74,44.91Z"/><path class="cls-5" d="M201.74,44.91a3.7,3.7,0,0,0-.69-2.76,3.7,3.7,0,0,0-2.76-.69,3.67,3.67,0,0,0,.7,2.76A3.68,3.68,0,0,0,201.74,44.91Z"/><path class="cls-4" d="M202.17,45.71s-2.43-1.11-4.29-.18-2.45,3.53-2.45,3.53,2.43,1.11,4.29.18S202.17,45.71,202.17,45.71Z"/><path class="cls-5" d="M202.17,45.71a2.87,2.87,0,0,0-4.34,2.16,3.71,3.71,0,0,0,2.77.11A3.65,3.65,0,0,0,202.17,45.71Z"/><path class="cls-1" d="M35.91,114.39c.59-1.44,1.14-2.83,1.63-4.17a104.69,104.69,0,0,1,7-15c1.9-3.34,4.93-6.42,8.75-6.81,3.28-.34,6.51,1.43,8.63,3.94,4.7,5.57,5.08,13.19,5.53,20.1.73,11.2,1.73,22.51,2.13,33.71.08,2.34-.36,4.85-2,6.53a7.38,7.38,0,0,1-5.45,2c-8.74-.18-11.32-8.1-11.49-15.63-.16-6.81-.75-23.26-.88-25.19-.2,0-3.57,9.49-3.57,9.49l-1,3.2c-1.09,3.53-1.88,7.52-3.73,10.74-4.13,7.21-12.06,6.35-14.89-1.32-1.61-4.36-3.88-14.78-4.74-15.4-3,21.14,2.06,27.17-1.2,31.83a6.66,6.66,0,0,1-3.45,2.37C-.13,160.5,2.54,133.64,4.1,124.91a140.92,140.92,0,0,1,5.14-19.26c1.44-4.33,2.46-11.4,6.77-13.91,3.64-2.11,9.44-2.29,12.51.94,1.79,1.89,5.25,23.26,5.7,23.26h1Z"/><path class="cls-2" d="M33,114.39c.59-1.44,1.13-2.83,1.63-4.17a104.69,104.69,0,0,1,7-15c1.9-3.34,4.93-6.42,8.75-6.81,3.28-.34,6.51,1.43,8.63,3.94,4.7,5.57,5.08,13.19,5.53,20.1.73,11.2,1.73,22.51,2.13,33.71.08,2.34-.36,4.85-2,6.53a7.38,7.38,0,0,1-5.45,2c-8.75-.18-11.32-8.1-11.49-15.63-.16-6.81-.75-23.26-.88-25.19-.2,0-3.57,9.49-3.57,9.49l-1,3.2c-1.09,3.53-1.89,7.52-3.73,10.74-4.13,7.21-12.06,6.35-14.89-1.32-1.61-4.36-3.88-14.78-4.74-15.4-3,21.14,2.06,27.17-1.2,31.83a6.66,6.66,0,0,1-3.45,2.37C-3.08,160.5-.42,133.64,1.15,124.91a140.92,140.92,0,0,1,5.14-19.26c1.44-4.33,2.46-11.4,6.77-13.91,3.64-2.11,9.44-2.29,12.51.94,1.79,1.89,5.25,23.26,5.7,23.26h1Z"/><path class="cls-3" d="M60.21,147.58c1.81-1.3,2.21-3.74,2.62-5.81a35.6,35.6,0,0,0,.44-7.07c0-4.18-.21-8.3-.51-12.47a93.15,93.15,0,0,0-1.63-13.33c-.42-1.91-.93-3.8-1.53-5.65-.93-2.85-1.78-6-4.48-7.59a5.81,5.81,0,0,0-8.45,3.43c-.76,2.77.56,5.22,1.32,7.83q.75,2.6,1.26,5.25a21,21,0,0,1,.47,2.8c-.06-1.57,0-.11,0,.27.12,1,.24,1.9.38,2.85,0,.19.25,1.79.12.85-.07-.5-.06-.45,0,.14l.12,1c.13,1,.25,1.94.37,2.91.55,4.42,1.17,8.79,2,13.16a29.55,29.55,0,0,0,1.4,5.65c.75,1.83,1.6,4.91,3.57,5.81a2.48,2.48,0,0,0,2.46,0Z"/><path class="cls-3" d="M15.78,99.19c-3.33,2.67-4.65,6.69-5.94,10.61a77.82,77.82,0,0,0-2.9,11.53,115,115,0,0,0-1.66,12.92c-.11,2-.07,4.08,0,6.1,0,.94,0,1.88.07,2.82a7.68,7.68,0,0,0,2.27,5.72c2,1.94,5.74,2.26,7.69,0a7.36,7.36,0,0,0,2.13-5.48c0-1,0-2-.05-3.06,0-1.88,0-3.75.07-5.63.07-4,0-8,.17-11.94s.4-7.75.65-11.61a42.71,42.71,0,0,0,.4-5.74,20,20,0,0,0-1-5.75,1.13,1.13,0,0,0-1.85-.49Z"/><path class="cls-3" d="M43.28,106.92a9.35,9.35,0,0,0-1.8,2c-.52.86-.93,1.79-1.4,2.68s-1.09,1.69-1.54,2.58a21.2,21.2,0,0,0-1.11,3,28.76,28.76,0,0,1-2.2,5.39,27.27,27.27,0,0,0-1.49,3.25c-.1.27-.21.55-.33.82-.18.46-.22.55-.12.29-.16.35-.39.7-.54,1.06s-.11.2.14-.15c-.52.49-.26.37.8-.36a2.64,2.64,0,0,1,2.37.7c-.28-.31-.31-.33-.08-.06.35.55-.29-.68-.35-.79-.2-.41-.42-.82-.61-1.23-.1-.21-.72-1.67-.28-.59-.19-.46-.37-.93-.55-1.4q-.52-1.42-1-2.88c-.58-1.94-1.11-3.91-1.75-5.84a14.32,14.32,0,0,0-.63-1.52c.27.64.28.67,0,.1a11.82,11.82,0,0,0-1-2.16,17.82,17.82,0,0,0-2.34-2.64,3.31,3.31,0,0,0-5.14.66,11,11,0,0,0-1.79,6.39,20.13,20.13,0,0,0,1.43,6.52,50.51,50.51,0,0,0,2.87,6,18.18,18.18,0,0,0,3.59,5c1.95,1.6,4.37,2.67,7,2s4-2.65,4.81-5A19.68,19.68,0,0,0,41.48,125c0-.92,0-1.86.05-2.78a24.75,24.75,0,0,1,.4-2.56c.2-1.1.43-2.19.6-3.28a27.88,27.88,0,0,0,.17-3.16,18.83,18.83,0,0,1,.47-3.07,16.5,16.5,0,0,0,.26-3.14.09.09,0,0,0-.15-.06Z"/><path class="cls-4" d="M52.6,89a5.23,5.23,0,0,1-1.43-.65,3,3,0,0,1-.63-5,5.17,5.17,0,0,1,1.22-1,11.84,11.84,0,0,1,1.17,1,2.89,2.89,0,0,1,.56,4.42A13.83,13.83,0,0,1,52.6,89Z"/><path class="cls-5" d="M52.58,89a3.37,3.37,0,0,1-.87-.4,1.83,1.83,0,0,1-.38-3,3,3,0,0,1,.74-.6,6.9,6.9,0,0,1,.71.6,1.75,1.75,0,0,1,.34,2.68A8.35,8.35,0,0,1,52.58,89Z"/><path class="cls-4" d="M54.69,89.37a9.11,9.11,0,0,1,.52-2.1,7.84,7.84,0,0,1,6.89-5.4,9,9,0,0,1,2.16,0,12.65,12.65,0,0,1-.81,2,8.94,8.94,0,0,1-6.65,5.21A13.5,13.5,0,0,1,54.69,89.37Z"/><path class="cls-5" d="M54.69,89.37a6.46,6.46,0,0,1,2.21-4.13,5.93,5.93,0,0,1,3-1.16,6.63,6.63,0,0,1,1.52,0,9.26,9.26,0,0,1-.57,1.4,6.29,6.29,0,0,1-4.69,3.68A8.35,8.35,0,0,1,54.69,89.37Z"/><path class="cls-4" d="M56.43,90.1s2.73-1.64,5.19-.84S65.32,93,65.32,93s-2.73,1.63-5.18.84S56.43,90.1,56.43,90.1Z"/><path class="cls-5" d="M56.43,90.1A5,5,0,0,1,60,89.53a5,5,0,0,1,2.54,2.55,5,5,0,0,1-3.56.57A5,5,0,0,1,56.43,90.1Z"/><path class="cls-4" d="M55.21,90.44s-.43,3-2.38,4-4.66-.2-4.66-.2.44-3,2.38-4S55.21,90.44,55.21,90.44Z"/><path class="cls-5" d="M55.23,90.44s-.31,2.25-1.8,3.06-3.6-.14-3.6-.14.31-2.25,1.8-3.06S55.23,90.44,55.23,90.44Z"/><path class="cls-6" d="M54,100.74a.88.88,0,0,1,.21,1.15,1.11,1.11,0,0,1-.43.5.71.71,0,0,1-.62,0,1.65,1.65,0,0,1-.53-2.6,1.57,1.57,0,0,1,.75-.4,2.22,2.22,0,0,1,1.74.35,2.41,2.41,0,0,1,.32.32,1.79,1.79,0,0,1,.27.44A2.63,2.63,0,0,1,54.27,104L54,104l-.25,0h-.49s0,0,0,0a2.76,2.76,0,0,1-1-.4,3.57,3.57,0,0,1-.85-.76s0,0,0,0l0,0-.07-.1c-.06-.08-.11-.17-.16-.25l-.13-.24a.54.54,0,0,0,0-.11l0-.06c0-.06,0,.06,0,0a4.72,4.72,0,0,1-.18-.53c0-.08,0-.17-.05-.25a.5.5,0,0,1,0-.12s0-.17,0-.09a5,5,0,0,1,0-1.09s0-.07,0,0,0,0,0,0,0-.09,0-.13l.06-.26a5.6,5.6,0,0,1,.17-.54l0-.06s0,.06,0,0a.61.61,0,0,0,.05-.12l.14-.26.14-.23.07-.1,0,0s0-.07,0,0,0,0,0,0l.06-.06.08-.09.18-.19.2-.18.09-.07.07,0a3.4,3.4,0,0,1,.45-.28l.22-.11.12-.06s0,0,0,0l.07,0a4.83,4.83,0,0,1,.5-.16l.26-.06.12,0h.06s.12,0,.06,0,.06,0,.08,0h.12l.29,0a4.53,4.53,0,0,1,.52,0H55s-.07,0,0,0l.14,0,.26,0a3.16,3.16,0,0,1,.52.17c.08,0,0,0,0,0l.11.06.26.13c.14.08.29.18.43.28s.09.07,0,0l.11.09.19.17c.12.12.24.24.35.37a.76.76,0,0,1,.08.11s0,0,0,0l0,0,.15.23a2.82,2.82,0,0,1,.26.44,2.56,2.56,0,0,1,.11.24c0,.06,0,0,0,0s0,.09,0,.13a4.16,4.16,0,0,1,.16.5c0,.17.09.35.13.53a2.64,2.64,0,0,1,.06.46,6.26,6.26,0,0,1,0,1.06,5.88,5.88,0,0,1-.18,1.06,8.41,8.41,0,0,1-1,2.25,22.55,22.55,0,0,1-1.47,2c-.24.32-.49.62-.75.93a.21.21,0,0,0,.3.3c.36-.3.7-.61,1-.93a8.89,8.89,0,0,0,.92-1.11,10.33,10.33,0,0,0,1.37-2.45,6.9,6.9,0,0,0,.09-4.9,5.6,5.6,0,0,0-1.26-2A4.32,4.32,0,0,0,55.46,96a4.65,4.65,0,0,0-5.47,6.2,4.28,4.28,0,0,0,1.62,2.1,3.22,3.22,0,0,0,2.64.49,3.4,3.4,0,0,0,2.18-4.21,2.64,2.64,0,0,0-3.86-1.46,2,2,0,0,0-1,1.8,2.2,2.2,0,0,0,.91,1.77,1.76,1.76,0,0,0,.91.3,1.2,1.2,0,0,0,.81-.31,1.68,1.68,0,0,0,.49-1.61,1.1,1.1,0,0,0-.51-.65.21.21,0,0,0-.21.36Z"/><path class="cls-6" d="M18.17,143l-1,.28a9.18,9.18,0,0,1-1,.2,17.86,17.86,0,0,1-2.08.16c-1.49,0-3,0-4.47,0a25.53,25.53,0,0,0-2.62.13.17.17,0,0,0,0,.33,43.14,43.14,0,0,0,4.69,0,30.67,30.67,0,0,0,4.39-.21,9.1,9.1,0,0,0,1.13-.24,4.83,4.83,0,0,0,1.1-.46c.14-.08,0-.32-.11-.27Z"/><path class="cls-6" d="M18.45,144.9a13.1,13.1,0,0,0-1.52.28c-.51.1-1,.2-1.53.28-1,.16-2,.24-3,.3a51.81,51.81,0,0,1-6.23-.08l-1.73-.11-.9-.06a8.69,8.69,0,0,0-.89,0,.37.37,0,0,0-.1.72,14.73,14.73,0,0,0,1.63.15l1.56.11q1.58.1,3.15.12a36,36,0,0,0,6.31-.4,17.23,17.23,0,0,0,1.71-.34c.27-.07.55-.14.82-.23a5.26,5.26,0,0,0,.86-.33c.16-.09.09-.38-.1-.36Z"/><path class="cls-6" d="M1.24,147a2.66,2.66,0,0,0,.69.31c.24.07.49.11.73.16l1.49.26c1,.16,2,.28,3.05.36a47.61,47.61,0,0,0,6.09.19l1.69-.1.83-.07.44,0a1.93,1.93,0,0,0,.47-.13.33.33,0,0,0,.24-.31.32.32,0,0,0-.24-.31c-.12,0-.25-.05-.38-.05a2.45,2.45,0,0,0-.38,0l-.77.06c-.5,0-1,.08-1.49.1-1,0-2,.07-3,.08a42.31,42.31,0,0,1-5.95-.43L3,146.86l-.85-.15a2.82,2.82,0,0,0-.87,0,.15.15,0,0,0-.08.28Z"/><path class="cls-6" d="M50,96a5.32,5.32,0,0,0-1.13,1.19,6.18,6.18,0,0,0-.75,1.47,6.78,6.78,0,0,0-.29,3.28,5.82,5.82,0,0,0,.6,1.76.15.15,0,0,0,.19,0,.14.14,0,0,0,.05-.19,6.73,6.73,0,0,1-.52-3.07,7.26,7.26,0,0,1,.85-3,6.89,6.89,0,0,1,1-1.47s0,0,0,0Z"/><path class="cls-1" d="M141.92,117.24a11.17,11.17,0,0,1,.63,1.43,8.77,8.77,0,0,1,.42,1.81,12.56,12.56,0,0,1-.82,6.14,7.3,7.3,0,0,1-1.58,2.43,4,4,0,0,1-2.35,1.19,3.27,3.27,0,0,1-1.72-.2,9.43,9.43,0,0,1-1.64-.91,11.32,11.32,0,0,0-1.5-.83,2.66,2.66,0,0,0-1.51-.23,1.67,1.67,0,0,0-1.23.86,6.2,6.2,0,0,0-.71,1.79,9.33,9.33,0,0,0-.27,2.12,11.75,11.75,0,0,0,.09,1.94c.1.79.23,1.63.38,2.51s.31,1.76.49,2.66.36,1.89.51,2.8.29,1.78.41,2.63a8.68,8.68,0,0,1-1,6,6.24,6.24,0,0,1-4.74,2.82,8.35,8.35,0,0,1-3.71-.19,5.49,5.49,0,0,1-2.48-1.62,7.87,7.87,0,0,1-1.51-2.83,21.87,21.87,0,0,1-.81-3.75l-.4-2.94c-.14-1-.24-2-.32-2.95s-.16-1.94-.26-2.91-.23-2-.37-3a22.31,22.31,0,0,0-.54-2.75c-.24-.86-.5-1.77-.81-2.71s-.6-2-.88-3A26.58,26.58,0,0,1,113,122a5.91,5.91,0,0,1,1-4.44,5.77,5.77,0,0,1,4-2.24A8.53,8.53,0,0,1,123,116a7.73,7.73,0,0,1,3.44,3.31,17.11,17.11,0,0,1,2.49-3.42,7.54,7.54,0,0,1,4.66-2.07,10.88,10.88,0,0,1,4.62.42A6.37,6.37,0,0,1,141.92,117.24Z"/><path class="cls-2" d="M140,117.5a11.33,11.33,0,0,1,.63,1.44,8.47,8.47,0,0,1,.42,1.81,11.79,11.79,0,0,1,0,3.08,12.06,12.06,0,0,1-.79,3.06,7.47,7.47,0,0,1-1.58,2.42,4,4,0,0,1-2.36,1.19,3.17,3.17,0,0,1-1.72-.2,9.33,9.33,0,0,1-1.64-.9,10.38,10.38,0,0,0-1.5-.84,2.75,2.75,0,0,0-1.51-.23,1.69,1.69,0,0,0-1.23.86A6.44,6.44,0,0,0,128,131a9.4,9.4,0,0,0-.27,2.12,11.64,11.64,0,0,0,.09,1.94c.1.8.23,1.64.38,2.51s.31,1.77.49,2.67.36,1.89.51,2.79.29,1.79.41,2.64a8.69,8.69,0,0,1-1,5.95,6.25,6.25,0,0,1-4.73,2.81,8.39,8.39,0,0,1-3.72-.19,5.36,5.36,0,0,1-2.47-1.61,7.73,7.73,0,0,1-1.52-2.83,22.08,22.08,0,0,1-.81-3.75l-.4-2.94c-.14-1-.24-2-.32-3s-.16-1.94-.26-2.91-.23-2-.37-3a22.15,22.15,0,0,0-.54-2.74c-.24-.87-.5-1.77-.8-2.71s-.61-2-.89-3a26.41,26.41,0,0,1-.69-3.46,5.85,5.85,0,0,1,1-4.44,5.72,5.72,0,0,1,4-2.24,8.45,8.45,0,0,1,4.91.68,7.76,7.76,0,0,1,3.44,3.3,17.69,17.69,0,0,1,2.49-3.42,7.48,7.48,0,0,1,4.66-2.06,10.87,10.87,0,0,1,4.62.41A6.44,6.44,0,0,1,140,117.5Z"/><path class="cls-3" d="M116.82,118.56a3.33,3.33,0,0,1,3.29-.32c2.11,1.12,2.5,4.22,2.93,6.31,1.64,8,3.52,17,2.57,25.18a1.86,1.86,0,0,1-.38,1.11c-.64.69-1.81.15-2.46-.53a14.66,14.66,0,0,1-3-5.81,161.47,161.47,0,0,1-4.3-15.9C114.75,125.16,113.11,120.93,116.82,118.56Z"/><path class="cls-3" d="M132.22,117.27c1.81-.64,4.12-.66,5.33.82a4.89,4.89,0,0,1,.92,2.69c.12,1.4-.07,2.6-1.5,3.25a7.09,7.09,0,0,1-2.9.44c-2.12,0-4.11-.33-5.92,1a9,9,0,0,0-2.88,4.74c-.49-3.83-.25-6.68,2.31-9.68A10.88,10.88,0,0,1,132.22,117.27Z"/><path class="cls-6" d="M120.36,149.15a.59.59,0,0,1,0,.13s0,.05,0,.1a2.11,2.11,0,0,0,0,.25c0,.17,0,.33.07.5l.06.5c0,.17,0,.34,0,.5s0,.35,0,.52l0,.24a.17.17,0,0,1,0,.07h0a1.1,1.1,0,0,0,0,.18v.12a.48.48,0,0,0,0,.12s0,0,0,0a.38.38,0,0,0,0,.1s0,.1,0,.15l0,.24c0,.09,0,.17,0,.26a3.31,3.31,0,0,0,0,.55c0,.16,0,.69.18.73l.54.07c.12,0,.14-.22.12-.35s0-.33-.08-.5a3.86,3.86,0,0,0-.1-.49,2.09,2.09,0,0,1-.08-.23,2.44,2.44,0,0,0-.06-.26l0-.22a.36.36,0,0,0,0-.11s0-.05,0,0a.74.74,0,0,1,0-.14A1.43,1.43,0,0,0,121,152a.25.25,0,0,1,0-.12l0-.13c0-.17,0-.33-.09-.49l-.12-.49c0-.16-.06-.33-.09-.5s-.06-.36-.1-.55l-.06-.27a.25.25,0,0,0,0-.11.27.27,0,0,1,0-.15S120.36,149.14,120.36,149.15Z"/><path class="cls-6" d="M114.46,121.88c.11.85.21,1.7.31,2.55s.22,1.6.34,2.41c.23,1.65.49,3.3.76,4.95s.55,3.27.81,4.91.52,3.3.8,4.94c.32,1.84.62,3.67,1,5.51,0,.07.13,0,.12,0-.45-3.3-1-6.59-1.48-9.89s-1-6.58-1.55-9.86c-.16-.91-.31-1.82-.48-2.72s-.37-1.84-.54-2.77c0,0,0,0,0,0Z"/><path class="cls-4" d="M131.44,132.66a4.52,4.52,0,0,1-.27-1.16,3.4,3.4,0,0,1,.47-2.27,3.46,3.46,0,0,1,1.93-1.28,5,5,0,0,1,1.18-.18,6.38,6.38,0,0,1,.09,1.17,3.17,3.17,0,0,1-2.28,3.37A6.69,6.69,0,0,1,131.44,132.66Z"/><path class="cls-5" d="M132.56,131a2.8,2.8,0,0,1-.17-.76,2,2,0,0,1,1.58-2.34,3.28,3.28,0,0,1,.78-.12,4.93,4.93,0,0,1,.06.77,2.53,2.53,0,0,1-.35,1.39,2.46,2.46,0,0,1-1.16.83A3.8,3.8,0,0,1,132.56,131Z"/><path class="cls-4" d="M138.18,132.43a3.39,3.39,0,0,1-.9-.13,2.65,2.65,0,0,1-1.49-1,2.6,2.6,0,0,1-.36-1.74,3.5,3.5,0,0,1,.2-.89,5.18,5.18,0,0,1,.86.27,2.43,2.43,0,0,1,1.76,2.58A5.65,5.65,0,0,1,138.18,132.43Z"/><path class="cls-5" d="M137.46,131.33a2.65,2.65,0,0,1-.64-.1,1.78,1.78,0,0,1-1-.69,1.87,1.87,0,0,1-.26-1.23,2.45,2.45,0,0,1,.15-.63,4.34,4.34,0,0,1,.61.19,2.1,2.1,0,0,1,.95.69,2.15,2.15,0,0,1,.29,1.14A4,4,0,0,1,137.46,131.33Z"/><path class="cls-1" d="M157.84,154.07a11.42,11.42,0,0,1-5.85-1.5,14.24,14.24,0,0,1-4.34-3.91A17.8,17.8,0,0,1,145,143.2a21.41,21.41,0,0,1-.9-6.07,28.34,28.34,0,0,1,1.16-7.69,27,27,0,0,1,3.4-7.48,21.28,21.28,0,0,1,5.42-5.68,12.21,12.21,0,0,1,7.31-2.28,9.39,9.39,0,0,1,7.73,4,8.48,8.48,0,0,1,1.81-2.1,3.63,3.63,0,0,1,2.24-.65,7.84,7.84,0,0,1,5.16,1.72,5.31,5.31,0,0,1,2.06,4.22,38.82,38.82,0,0,1-.39,5.71,39.91,39.91,0,0,0-.38,5.64c0,1.83.07,3.61.21,5.33a45.75,45.75,0,0,0,.73,5.16,16.25,16.25,0,0,1,.43,3.44,6.9,6.9,0,0,1-1.72,5,6,6,0,0,1-4.56,1.81,5.74,5.74,0,0,1-4.08-1.33c-1-.89-1.82-1.77-2.62-2.63a21.48,21.48,0,0,1-4.9,3.36A11.74,11.74,0,0,1,157.84,154.07Zm2.58-26.65a12.43,12.43,0,0,0-2.67,3.87,11.83,11.83,0,0,0-.94,4.81,5.39,5.39,0,0,0,.77,2.71,2.91,2.91,0,0,0,2.75,1.33,3.78,3.78,0,0,0,2.58-1.07,9.36,9.36,0,0,0,2-2.58,14.72,14.72,0,0,0,1.29-3.18,10.76,10.76,0,0,0,.48-2.88,4.84,4.84,0,0,0-.82-3.18,2.94,2.94,0,0,0-2.36-1,3.74,3.74,0,0,0-1.72.43,10,10,0,0,0-1.64,1Z"/><path class="cls-2" d="M155.87,154.07a11.39,11.39,0,0,1-5.84-1.5,14.28,14.28,0,0,1-4.35-3.91A17.78,17.78,0,0,1,143,143.2a21.43,21.43,0,0,1-.91-6.07,28,28,0,0,1,1.17-7.69,26.74,26.74,0,0,1,3.39-7.48,21.28,21.28,0,0,1,5.42-5.68A12.23,12.23,0,0,1,159.4,114a9.42,9.42,0,0,1,7.74,4,8.27,8.27,0,0,1,1.8-2.1,3.65,3.65,0,0,1,2.24-.65,7.84,7.84,0,0,1,5.16,1.72,5.31,5.31,0,0,1,2.06,4.22,40.31,40.31,0,0,1-.38,5.71,38.43,38.43,0,0,0-.39,5.64c0,1.83.07,3.61.21,5.33a48.16,48.16,0,0,0,.73,5.16,16.25,16.25,0,0,1,.43,3.44,6.9,6.9,0,0,1-1.72,5,6,6,0,0,1-4.55,1.81,5.75,5.75,0,0,1-4.09-1.33c-.94-.89-1.82-1.77-2.62-2.63a21.26,21.26,0,0,1-4.9,3.36A11.71,11.71,0,0,1,155.87,154.07Zm2.58-26.65a12.56,12.56,0,0,0-2.66,3.87,11.83,11.83,0,0,0-.95,4.81,5.31,5.31,0,0,0,.78,2.71,2.9,2.9,0,0,0,2.75,1.33,3.82,3.82,0,0,0,2.58-1.07,9.75,9.75,0,0,0,2-2.58,15.81,15.81,0,0,0,1.29-3.18,11.11,11.11,0,0,0,.47-2.88,4.84,4.84,0,0,0-.82-3.18,2.94,2.94,0,0,0-2.36-1,3.77,3.77,0,0,0-1.72.43,10.46,10.46,0,0,0-1.64,1Z"/><path class="cls-3" d="M155.7,143.05a21.92,21.92,0,0,0,4.72,0c.64,0,.76-.86,1.44-.07s0,1.61-.51,2.14c-2.67,3.05-7.23,4.91-11.11,3.12-5.16-2.37-6-9.39-5.74-14.37.3-6.39,4.48-11.89,9.56-15.47,2.6-1.84,6.3-3.46,9.34-1.72a3.32,3.32,0,0,1,1.25,1.13,5.33,5.33,0,0,1-.22,4.93c-.75.93-2.08,1.09-3.25,1.34a13.31,13.31,0,0,0-9.35,8.48C150.4,136.53,150.71,142.09,155.7,143.05Z"/><path class="cls-3" d="M172.77,151.21c-2.19-1.85-2.91-4.43-3.61-7a44.24,44.24,0,0,1-1.45-7.35,65.46,65.46,0,0,1-.52-8.15c0-1.27.16-2.55.28-3.81.06-.58.12-1.17.19-1.75a4.63,4.63,0,0,1,1.86-3.45c1.49-1.09,4.12-1.09,5.36.43a4.36,4.36,0,0,1,1.21,3.54c-.07.63-.13,1.27-.18,1.9-.11,1.17-.16,2.35-.23,3.52-.15,2.49-.43,5-.48,7.46s-.1,4.85-.11,7.27a25.44,25.44,0,0,1,0,3.6,11.68,11.68,0,0,1-1,3.53.84.84,0,0,1-1.32.21Z"/><path class="cls-6" d="M159.18,140.69a6.18,6.18,0,0,1-2.62.57,6.88,6.88,0,0,1-2.58-.41,6,6,0,0,1-2.11-1.31,4.57,4.57,0,0,1-.43-.45,4.37,4.37,0,0,1-.36-.44,7.76,7.76,0,0,1-.64-1.07,5.05,5.05,0,0,1-.26-.59c-.08-.21-.15-.44-.21-.66a6.33,6.33,0,0,1-.22-1.36.28.28,0,0,0-.55,0,6.72,6.72,0,0,0,2,4.84,6.64,6.64,0,0,0,5.07,1.88,6.73,6.73,0,0,0,2.95-1s0,0,0,0Z"/><path class="cls-6" d="M164.05,145.41a4.71,4.71,0,0,0,.09.52l.09.5a8.13,8.13,0,0,0,.31,1,7,7,0,0,0,1,1.83,7.57,7.57,0,0,0,.81.89.17.17,0,0,0,.24-.24,4.32,4.32,0,0,1-.34-.39l-.08-.09,0,0v0h0l-.16-.21,0,0h0l0-.06-.08-.1-.15-.21-.29-.42c-.18-.29-.34-.59-.5-.9a9.54,9.54,0,0,1-.44-.91c-.07-.17-.15-.35-.21-.53s-.11-.38-.16-.56c0,0-.05,0,0,0Z"/><path class="cls-4" d="M175.47,119.24a4.91,4.91,0,0,0,1.19.82,2.79,2.79,0,0,0,4.25-1.9,4.6,4.6,0,0,0,.19-1.43,12.37,12.37,0,0,0-1.33-.45,3.61,3.61,0,0,0-2.27,0A3.57,3.57,0,0,0,176,118,11,11,0,0,0,175.47,119.24Z"/><path class="cls-5" d="M175.48,119.26a2.85,2.85,0,0,0,.72.49,1.69,1.69,0,0,0,2.58-1.15,3.06,3.06,0,0,0,.11-.87,7.12,7.12,0,0,0-.81-.27,2.22,2.22,0,0,0-1.37,0,2.15,2.15,0,0,0-.89,1A7,7,0,0,0,175.48,119.26Z"/><path class="cls-4" d="M174.21,117.77a8.67,8.67,0,0,0,1.4-1.41,7.87,7.87,0,0,0,1.69-3.85,7.74,7.74,0,0,0-.73-4.14,8.77,8.77,0,0,0-1-1.7,11.8,11.8,0,0,0-1.17,1.58,9.18,9.18,0,0,0-1.44,3.74,9.36,9.36,0,0,0,.51,4A11.48,11.48,0,0,0,174.21,117.77Z"/><path class="cls-5" d="M174.21,117.77a5.84,5.84,0,0,0,1-1,5.39,5.39,0,0,0,1.2-2.71,5.45,5.45,0,0,0-.52-2.93,6.25,6.25,0,0,0-.72-1.19,8.29,8.29,0,0,0-.83,1.11,5.79,5.79,0,0,0-.65,5.44A8.07,8.07,0,0,0,174.21,117.77Z"/><path class="cls-4" d="M172.8,116.74s0-2.92-1.81-4.47-4.69-1.14-4.69-1.14,0,2.92,1.81,4.47S172.8,116.74,172.8,116.74Z"/><path class="cls-5" d="M172.8,116.74a3.62,3.62,0,0,0-4.46-3.84,3.62,3.62,0,0,0,4.46,3.84Z"/><path class="cls-1" d="M181.39,63.55A29,29,0,0,1,180.1,58q-.43-3.14-.64-6.51c-.15-2.26-.23-4.53-.26-6.82s0-4.51,0-6.66l.26-6.67c0-.72,0-1.43.09-2.15s.08-1.44.08-2.16c.06-1.44.1-2.91.13-4.41s.1-3,.22-4.51a15.29,15.29,0,0,1,.47-3,7.3,7.3,0,0,1,1.25-2.6A6.08,6.08,0,0,1,184,10.62a8.67,8.67,0,0,1,3.7-.69,6.42,6.42,0,0,1,2.36.5,7.8,7.8,0,0,1,2.32,1.42,6.91,6.91,0,0,1,1.77,2.45,8.55,8.55,0,0,1,.68,3.57c0,1.7-.07,3.37-.21,5s-.33,3.4-.56,5.3-.43,4.08-.6,6.17-.26,4.18-.26,6.27.09,4,.26,5.93.4,3.84.69,5.74a12.42,12.42,0,0,0,.51,1.86,16.47,16.47,0,0,0,.78,1.86c-.06-.13,0-.08.08.15s.2.41.26.54a.22.22,0,0,0,0,.15.2.2,0,0,1,.05.14c.22.53.5,1.25.81,2.16a7.21,7.21,0,0,1,.48,2.25A7.48,7.48,0,0,1,195,67.13,12.07,12.07,0,0,1,189,69.92a7.11,7.11,0,0,1-4.73-1.66A9.78,9.78,0,0,1,181.39,63.55Z"/><path class="cls-2" d="M179.42,63.55A29,29,0,0,1,178.13,58c-.28-2.09-.5-4.26-.64-6.51s-.23-4.53-.26-6.82,0-4.51,0-6.66l.26-6.67c0-.72,0-1.43.08-2.15s.09-1.44.09-2.16c0-1.44.1-2.91.13-4.41s.1-3,.21-4.51a16.05,16.05,0,0,1,.47-3,7.47,7.47,0,0,1,1.25-2.6A6.16,6.16,0,0,1,182,10.62a8.7,8.7,0,0,1,3.7-.69,6.47,6.47,0,0,1,2.37.5,7.93,7.93,0,0,1,2.32,1.42,7,7,0,0,1,1.76,2.45,8.55,8.55,0,0,1,.69,3.57c0,1.7-.07,3.37-.22,5s-.33,3.4-.56,5.3-.43,4.08-.6,6.17-.26,4.18-.26,6.27.09,4,.26,5.93.4,3.84.69,5.74a12.51,12.51,0,0,0,.52,1.86,14.79,14.79,0,0,0,.77,1.86q-.09-.2.09.15c.11.23.2.41.25.54a.23.23,0,0,0,.05.15.26.26,0,0,1,0,.14c.23.53.5,1.25.82,2.16a7.63,7.63,0,0,1-1.68,8,12,12,0,0,1-5.93,2.79,7.08,7.08,0,0,1-4.73-1.66A9.79,9.79,0,0,1,179.42,63.55Z"/><path class="cls-3" d="M185.42,61.45c-1.74-2-2.23-6-2.71-9.37-.43-3-.81-6-1.16-9.07-.7-6.17-1.2-12.47-1.45-18.7a16.94,16.94,0,0,1,.77-6.62c.82-2.29,2.3-3.36,3.78-3.29,1.33.06,2.47.95,3.47,2.73a13.84,13.84,0,0,1,1.63,7.62,161.8,161.8,0,0,0-1.11,17.62c0,1.39,0,2.79,0,4.19,0-1,.07,1.4.08,1.62,0,.66.06,1.32.1,2,.16,2.78.62,5.63.52,8.4-.13,3.71-2.35,4.77-3.94,2.89Z"/><path class="cls-6" d="M189.05,26a56.57,56.57,0,0,0-1,11.32c0,3.79.15,7.59.48,11.36.19,2.13.45,4.25.75,6.36,0,.23.43.18.41,0-.45-3.77-.77-7.57-1-11.36a74.43,74.43,0,0,1,.28-13.6l.72-5.73A7.38,7.38,0,0,0,189.05,26Z"/><path class="cls-4" d="M196.86,12.08s-2.65-1.53-4.61-.61-2.5,3.92-2.5,3.92,2.65,1.53,4.61.62S196.86,12.08,196.86,12.08Z"/><path class="cls-5" d="M194.73,13.09a4.38,4.38,0,0,0-3.18-.2,4,4,0,0,0-1.79,2.5,4.43,4.43,0,0,0,3.18.2A4,4,0,0,0,194.73,13.09Z"/><path class="cls-4" d="M188.49,14.62a5.09,5.09,0,0,0,1-1.6,4.79,4.79,0,0,0-.1-3.88,4.78,4.78,0,0,0-3.08-2.34,5.23,5.23,0,0,0-1.87-.15s0,.82,0,1.79a7.1,7.1,0,0,0,.52,3A6.94,6.94,0,0,0,187,13.59C187.81,14.17,188.49,14.62,188.49,14.62Z"/><path class="cls-5" d="M188.5,14.62a3.13,3.13,0,0,0,.64-1,3.13,3.13,0,0,0-.06-2.54,3.11,3.11,0,0,0-2-1.54,3.34,3.34,0,0,0-1.22-.1s0,.54,0,1.17a4.71,4.71,0,0,0,.34,2A4.59,4.59,0,0,0,187.54,14C188.05,14.33,188.5,14.62,188.5,14.62Z"/><path class="cls-4" d="M190.58,11.24a4.88,4.88,0,0,0,1.21-.24,3.51,3.51,0,0,0,2-1.4,3.53,3.53,0,0,0,.41-2.37A5.15,5.15,0,0,0,193.82,6a7.41,7.41,0,0,0-1.15.41,4,4,0,0,0-1.76,1.38,4,4,0,0,0-.47,2.2A7,7,0,0,0,190.58,11.24Z"/><path class="cls-5" d="M190.58,11.23a3.49,3.49,0,0,0,.83-.15,2.49,2.49,0,0,0,1.34-1A2.44,2.44,0,0,0,193,8.49a3.48,3.48,0,0,0-.22-.82A5.46,5.46,0,0,0,192,8a2.75,2.75,0,0,0-1.21,1,2.74,2.74,0,0,0-.32,1.5A5.28,5.28,0,0,0,190.58,11.23Z"/><path class="cls-1" d="M232.41,133.59a9,9,0,0,1,2.28,4.1,11.71,11.71,0,0,1-1.08,9.72,13.55,13.55,0,0,1-8.27,5.72,22.17,22.17,0,0,1-5.11.8,14.62,14.62,0,0,1-4.75-.55,10.06,10.06,0,0,1-3.83-2.06,7.53,7.53,0,0,1-2.3-3.83,7,7,0,0,1,.06-4.49,3.91,3.91,0,0,1,2.69-2.44,4.85,4.85,0,0,1,2.46-.11,12.19,12.19,0,0,1,2.18.74c.44.16,1,.35,1.61.55a17.43,17.43,0,0,0,1.85.48c.64-.4.88-.87.73-1.41a2.42,2.42,0,0,0-1.61-1.64,14.62,14.62,0,0,0-2.83-.78l-1.72-.3a14.68,14.68,0,0,1-5.63-2.35,9.68,9.68,0,0,1-3.31-5.51,11.42,11.42,0,0,1-.29-4.82,12.75,12.75,0,0,1,1.57-4.47,12.53,12.53,0,0,1,3.18-3.61,13.15,13.15,0,0,1,4.62-2.28,12.83,12.83,0,0,1,3.71-.42,11.3,11.3,0,0,1,3.91.78,9.8,9.8,0,0,1,3.34,2.16,7.9,7.9,0,0,1,2.09,3.68,5.8,5.8,0,0,1,.14,1.6,10,10,0,0,1-.26,1.9,6,6,0,0,1-.66,1.66,2,2,0,0,1-1.17.93,4.56,4.56,0,0,1-1.89,0,11.62,11.62,0,0,1-2.23-.6.12.12,0,0,1-.14,0,.13.13,0,0,0-.14,0c-.61-.12-1.18-.25-1.74-.39a2.51,2.51,0,0,0-1.23-.09,1,1,0,0,0-.69.62,1.38,1.38,0,0,0-.1.9,2,2,0,0,0,1,1.06,10,10,0,0,0,2.13.88c.84.26,1.77.5,2.77.71s2,.4,2.86.55l1.38.32A9.83,9.83,0,0,1,232.41,133.59Z"/><path class="cls-2" d="M230.8,134.05a9,9,0,0,1,2.21,4.09,11.52,11.52,0,0,1-1.24,9.61,13.55,13.55,0,0,1-8.37,5.55,22.65,22.65,0,0,1-5.12.72,14.82,14.82,0,0,1-4.74-.61,10.15,10.15,0,0,1-3.8-2.1,7.52,7.52,0,0,1-2.23-3.83,6.87,6.87,0,0,1,.13-4.45,3.91,3.91,0,0,1,2.73-2.37,4.94,4.94,0,0,1,2.46-.08,11.92,11.92,0,0,1,2.17.76c.44.18,1,.36,1.6.57a17.1,17.1,0,0,0,1.85.51c.64-.39.89-.86.75-1.39a2.42,2.42,0,0,0-1.58-1.65,14.52,14.52,0,0,0-2.82-.81l-1.71-.33a14.55,14.55,0,0,1-5.59-2.41,9.47,9.47,0,0,1-3.22-5.5,11.06,11.06,0,0,1-.21-4.78,12.43,12.43,0,0,1,1.64-4.41A12.63,12.63,0,0,1,209,117.6a13.09,13.09,0,0,1,4.66-2.18,13.24,13.24,0,0,1,3.71-.37,11.26,11.26,0,0,1,3.9.84,9.84,9.84,0,0,1,3.3,2.18,7.83,7.83,0,0,1,2,3.68,5.5,5.5,0,0,1,.11,1.59,9.82,9.82,0,0,1-.29,1.88,5.31,5.31,0,0,1-.69,1.63,1.93,1.93,0,0,1-1.18.9,4.45,4.45,0,0,1-1.89,0,11.08,11.08,0,0,1-2.21-.63.12.12,0,0,1-.14,0,.13.13,0,0,0-.15,0c-.6-.13-1.18-.27-1.73-.41a2.57,2.57,0,0,0-1.23-.11,1,1,0,0,0-.7.61,1.33,1.33,0,0,0-.11.88,2,2,0,0,0,1,1.07,10.61,10.61,0,0,0,2.12.91c.84.27,1.76.51,2.76.74s1.95.42,2.85.59l1.37.33A9.9,9.9,0,0,1,230.8,134.05Z"/><path class="cls-3" d="M213.87,129.93c2.14,1.25,6,2.58,7.25,3.7a2.12,2.12,0,0,1,.67,1,1.55,1.55,0,0,1-.54,1.41,3.43,3.43,0,0,1-1.41.68,13.47,13.47,0,0,1-12.05-3.31c-3.36-3.39-2.95-7.6-.2-11.62s9.42-6.74,13.93-4.05a5.66,5.66,0,0,1,3,5.84,2.29,2.29,0,0,1-1.18,1.68c-1.93.87-4.94-.8-7.16-.15C213.74,125.82,210.63,128,213.87,129.93Z"/><path class="cls-3" d="M225,140.47a8.82,8.82,0,0,0-.61-1.28,4.41,4.41,0,0,1-.75-1.84,2.06,2.06,0,0,1,1.53-2.08c2.48-.59,4.42,2.74,5,4.67a8.83,8.83,0,0,1-1.67,8.32c-3.53,4.19-12.07,6.76-16.21,2.05a5.64,5.64,0,0,1-1.06-6.48,2.22,2.22,0,0,1,1.63-1.23c2.11-.24,4.46,2.27,6.77,2.33a7.57,7.57,0,0,0,3.75-.75,3.26,3.26,0,0,0,1.66-1.65A3,3,0,0,0,225,140.47Z"/><path class="cls-6" d="M224.2,125.1a1.71,1.71,0,0,0,0-.39c0-.13,0-.26,0-.39a6.69,6.69,0,0,0,0-.77,5.19,5.19,0,0,0-.14-.77,5.28,5.28,0,0,0-.24-.7,4.22,4.22,0,0,0-.87-1.31l-.14-.13h0l-.06-.06h0l0,0c-.11-.1-.22-.18-.34-.27L222,120l-.17-.1,0,0s0,0,0,0l-.1,0a6.94,6.94,0,0,0-.9-.34,5.12,5.12,0,0,0-.9-.16.24.24,0,0,1-.22-.25.25.25,0,0,1,.25-.21,4.3,4.3,0,0,1,1.78.33,4.94,4.94,0,0,1,1.55,1,4.66,4.66,0,0,1,1.37,3,4.17,4.17,0,0,1,0,.5,3.59,3.59,0,0,1-.18.9c-.07.14-.13.28-.19.43s0,0,0,0Z"/><path class="cls-6" d="M231.3,139.18c0,.13,0,.25,0,.37s0,.28,0,.41,0,.52-.05.77a9.28,9.28,0,0,1-.31,1.5,11,11,0,0,1-1.26,2.79,12.17,12.17,0,0,1-1.92,2.42,17.39,17.39,0,0,1-2.43,1.92,12.6,12.6,0,0,1-3.22,1.43c-.11,0,0,.23.09.21a10.55,10.55,0,0,0,1.58-.44c.51-.19,1-.42,1.48-.65a9.42,9.42,0,0,0,1.41-.82,11.8,11.8,0,0,0,1.22-1,12.31,12.31,0,0,0,3.42-5.36,6.7,6.7,0,0,0,.33-1.74,5.55,5.55,0,0,0,0-.91,3.58,3.58,0,0,0-.09-.45c0-.15-.11-.29-.16-.45s0,0,0,0Z"/><path class="cls-4" d="M222.24,112.41s2,1.22,2.12,2.88-1.72,3.13-1.72,3.13-2-1.21-2.12-2.87S222.24,112.41,222.24,112.41Z"/><path class="cls-5" d="M222.3,114.43s1.35.82,1.43,1.94a3.07,3.07,0,0,1-1.17,2.11s-1.35-.82-1.43-1.94A3.07,3.07,0,0,1,222.3,114.43Z"/><path class="cls-4" d="M223.62,119a4,4,0,0,1,.72-1.25,3.44,3.44,0,0,1,5.37-.16,4,4,0,0,1,.78,1.21s-.53.32-1.19.67a5.31,5.31,0,0,1-2.2.76,5.38,5.38,0,0,1-2.25-.63C224.17,119.28,223.62,119,223.62,119Z"/><path class="cls-5" d="M223.6,119a2.71,2.71,0,0,1,.48-.84,2.49,2.49,0,0,1,1.78-.91,2.43,2.43,0,0,1,1.83.81,2.65,2.65,0,0,1,.53.81s-.36.22-.8.45a3.44,3.44,0,0,1-1.48.51,3.49,3.49,0,0,1-1.51-.42C224,119.16,223.6,119,223.6,119Z"/><path class="cls-4" d="M225.13,116.33a3.65,3.65,0,0,1-.29-.9,2.71,2.71,0,0,1,.22-1.83,2.75,2.75,0,0,1,1.45-1.15,3.7,3.7,0,0,1,.92-.22,5.42,5.42,0,0,1,.15.92A2.54,2.54,0,0,1,226,116,6.39,6.39,0,0,1,225.13,116.33Z"/><path class="cls-5" d="M225.11,116.32a2.47,2.47,0,0,1-.2-.62,1.86,1.86,0,0,1,.15-1.27,1.89,1.89,0,0,1,1-.79,2.64,2.64,0,0,1,.64-.15,3.48,3.48,0,0,1,.11.64,2.13,2.13,0,0,1-.2,1.17,2.09,2.09,0,0,1-.9.78A3.23,3.23,0,0,1,225.11,116.32Z"/><path class="cls-1" d="M187.58,148.49a29.15,29.15,0,0,1-1.29-5.59q-.43-3.14-.64-6.51c-.15-2.26-.23-4.53-.26-6.82s0-4.51,0-6.66l.25-6.67c0-.72,0-1.43.09-2.15s.09-1.44.09-2.16c.05-1.44.1-2.91.13-4.41s.09-3,.21-4.51a16.05,16.05,0,0,1,.47-3,7.47,7.47,0,0,1,1.25-2.6,6.16,6.16,0,0,1,2.32-1.81,8.7,8.7,0,0,1,3.7-.69,6.6,6.6,0,0,1,2.36.49,8,8,0,0,1,2.33,1.43,7,7,0,0,1,1.76,2.45,8.55,8.55,0,0,1,.69,3.57c0,1.7-.08,3.37-.22,5s-.33,3.4-.56,5.3-.43,4.08-.6,6.17-.26,4.18-.26,6.27.09,4,.26,5.93.4,3.84.69,5.74a12.42,12.42,0,0,0,.51,1.86,17.28,17.28,0,0,0,.78,1.86q-.09-.19.09.15l.25.54a.23.23,0,0,0,.05.15.26.26,0,0,1,0,.14c.23.53.5,1.24.82,2.16a7.39,7.39,0,0,1,.47,2.25,7.48,7.48,0,0,1-2.15,5.74,12,12,0,0,1-5.93,2.79,7.08,7.08,0,0,1-4.73-1.66A9.79,9.79,0,0,1,187.58,148.49Z"/><path class="cls-2" d="M185.61,148.49a29.15,29.15,0,0,1-1.29-5.59c-.28-2.09-.5-4.26-.64-6.51s-.23-4.53-.26-6.82,0-4.51,0-6.66l.26-6.67c0-.72,0-1.43.08-2.15s.09-1.44.09-2.16c.06-1.44.1-2.91.13-4.41s.1-3,.21-4.51a15.3,15.3,0,0,1,.48-3,7.28,7.28,0,0,1,1.24-2.6,6.24,6.24,0,0,1,2.32-1.81,8.7,8.7,0,0,1,3.7-.69,6.61,6.61,0,0,1,2.37.49,8,8,0,0,1,2.32,1.43,7,7,0,0,1,1.76,2.45,8.55,8.55,0,0,1,.69,3.57c0,1.7-.07,3.37-.22,5s-.33,3.4-.55,5.3-.43,4.08-.61,6.17-.25,4.18-.25,6.27.08,4,.25,5.93.4,3.84.69,5.74a13.85,13.85,0,0,0,.52,1.86,17.24,17.24,0,0,0,.77,1.86q-.09-.19.09.15l.26.54a.22.22,0,0,0,0,.15.2.2,0,0,1,0,.14c.23.53.5,1.24.82,2.16a7.39,7.39,0,0,1,.47,2.25,7.48,7.48,0,0,1-2.15,5.74,12,12,0,0,1-5.93,2.79,7.09,7.09,0,0,1-4.73-1.66A9.86,9.86,0,0,1,185.61,148.49Z"/><path class="cls-3" d="M191.61,146.39c-1.74-2-2.23-6-2.71-9.37-.43-3-.81-6-1.15-9.07-.71-6.17-1.21-12.47-1.46-18.7a17.13,17.13,0,0,1,.77-6.62c.82-2.29,2.3-3.36,3.78-3.29s2.47,1,3.47,2.72a13.89,13.89,0,0,1,1.64,7.63,159.32,159.32,0,0,0-1.12,17.62c0,1.39,0,2.79,0,4.19,0-1,.07,1.4.08,1.62,0,.66.07,1.32.1,2,.16,2.77.63,5.63.52,8.4-.13,3.71-2.35,4.77-3.94,2.89Z"/><path class="cls-6" d="M195.24,111a56.57,56.57,0,0,0-1,11.32c0,3.79.15,7.59.48,11.36.19,2.13.45,4.25.75,6.36,0,.23.44.18.41,0-.45-3.77-.77-7.57-1-11.36a74.43,74.43,0,0,1,.28-13.6l.72-5.73A7.49,7.49,0,0,0,195.24,111Z"/><path class="cls-4" d="M204.8,153.93s-.1-2.81-1.77-3.9-4.27,0-4.27,0,.09,2.81,1.76,3.89S204.8,153.93,204.8,153.93Z"/><path class="cls-5" d="M203,152.75a4,4,0,0,0-1.38-2.57,3.62,3.62,0,0,0-2.82-.17,4,4,0,0,0,1.39,2.57A3.6,3.6,0,0,0,203,152.75Z"/><path class="cls-4" d="M198.75,148.64a4.8,4.8,0,0,0,1.68.37,4.44,4.44,0,0,0,3.34-1.26,4.4,4.4,0,0,0,1.1-3.38,4.78,4.78,0,0,0-.44-1.67s-.72.21-1.55.52a6.43,6.43,0,0,0-2.44,1.35,6.28,6.28,0,0,0-1.24,2.49C198.93,147.92,198.75,148.64,198.75,148.64Z"/><path class="cls-5" d="M198.75,148.65a3.11,3.11,0,0,0,1.1.24,2.7,2.7,0,0,0,2.92-3,3.11,3.11,0,0,0-.29-1.09s-.47.14-1,.34a4.07,4.07,0,0,0-1.6.89,4.19,4.19,0,0,0-.82,1.63C198.87,148.17,198.75,148.65,198.75,148.65Z"/><path class="cls-5" d="M86.23,158.35l0,0C91.18,150,91.08,142,91.16,139c0-.18-.09-4-.66-3.57-.12.09-.88.86-.74,1a4.94,4.94,0,0,0-.75-.62,4.26,4.26,0,0,0,1.18-1.06c.09-.11.24-.28.22-.43a1,1,0,0,0-.33-.45,1.75,1.75,0,0,0-.46-.35c-.07,0-.41-.24-.49-.19a5.66,5.66,0,0,0,1-.76,2.34,2.34,0,0,0,.48.56.52.52,0,0,0,.32.16c.26,0,.44-.38.54-.56a1.73,1.73,0,0,0,.26-.83l.56.31a6.71,6.71,0,0,0,.78.32,3,3,0,0,0-.63.49c-.35.31-.49.6-.13,1a1,1,0,0,0,.25.21,5,5,0,0,0,1.87.77s.11,0,.11.08a.14.14,0,0,1,0,.07,4.78,4.78,0,0,1-.52.75,2.52,2.52,0,0,1-.39.35.06.06,0,0,1-.07,0,.79.79,0,0,1-.26-.31c-.2-.34-.55-.89-1-.89a.08.08,0,0,0-.07,0,.07.07,0,0,0,0,.08c.15,1,.35,2.19.44,2.88a43.18,43.18,0,0,1-1.12,17.17,37.74,37.74,0,0,1-1.45,4.4C89.89,160,87.07,159.6,86.23,158.35Z"/><path class="cls-7" d="M88,159.29a35.38,35.38,0,0,0,3.3-8.63,42.41,42.41,0,0,0,1-14.91h0c.13.83.27,1.7.34,2.25a43.18,43.18,0,0,1-1.12,17.17,37.74,37.74,0,0,1-1.45,4.4c-.1.23-1.15.19-2.16-.14Z"/><path class="cls-8" d="M90.52,133.85c-.23-4.15.55-14.19-3.31-16.69-4.65-3-9.13,1.48-8.41,6.61a14.59,14.59,0,0,0-4.91,1.31c-2.46,1.32-2.86,4.59-1.28,7,2.35,3.52,11.93,1.56,17.91,1.82"/><path class="cls-9" d="M90.51,133.85c-.16-2.94.39-10.07-2.34-11.84-3.3-2.14-6.48,1-6,4.68a10.44,10.44,0,0,0-3.48.93,3.39,3.39,0,0,0-.91,4.93c1.67,2.5,8.47,1.12,12.7,1.3"/><path class="cls-5" d="M90.52,133.85c-.09-1.72.21-5.87-1.39-6.91-1.94-1.24-3.79.62-3.49,2.74a6.17,6.17,0,0,0-2,.55,2,2,0,0,0-.53,2.88c1,1.46,5,.63,7.45.74"/><path class="cls-8" d="M90.11,135.21c-.26,4.08.43,13.9-3.37,16.47-4.57,3.1-8.91-1.2-8.17-6.26a14.07,14.07,0,0,1-4.8-1.15c-2.39-1.23-2.76-4.43-1.19-6.8,2.33-3.54,13.07-2.57,17.53-2.26"/><path class="cls-9" d="M90.11,135.21c-.19,3,.32,10.32-2.5,12.23-3.4,2.3-6.62-.89-6.07-4.65a10.26,10.26,0,0,1-3.56-.85c-1.77-.92-2-3.3-.89-5.05,1.73-2.63,9.71-1.91,13-1.68"/><path class="cls-5" d="M90.11,135.21c-.11,1.72.18,5.87-1.42,6.95-1.93,1.31-3.76-.5-3.45-2.64a5.76,5.76,0,0,1-2-.49,2,2,0,0,1-.51-2.87c1-1.49,5.52-1.08,7.4-.95"/><path class="cls-8" d="M91.41,133.19c3.85-.54,14.13.79,16.7-3,3.09-4.6-1.33-9.15-6.46-8.53a14.89,14.89,0,0,0-1.23-4.93c-1.28-2.48-4.54-2.94-6.93-1.4-3.56,2.29-1.54,13-2.08,17.88"/><path class="cls-9" d="M91.39,133.21c2.83-.39,10.4.59,12.28-2.21,2.28-3.39-1-6.74-4.75-6.27a10.76,10.76,0,0,0-.9-3.63,3.52,3.52,0,0,0-5.1-1c-2.62,1.69-1.13,9.56-1.53,13.15"/><path class="cls-5" d="M91.39,133.21c1.64-.28,6.17.32,7.28-1.34,1.35-2-.57-4-2.81-3.71a6.47,6.47,0,0,0-.53-2.14,2.09,2.09,0,0,0-3-.62c-1.56,1-.69,5.69-.93,7.81"/><path class="cls-8" d="M92.82,134.7c1.91,5.33.61,13.69,4.5,16.09,5,3.1,9.37-1,7.57-6.52a13.31,13.31,0,0,0,4.63-1.34c2.25-1.31,2.39-4.48.68-6.75-2.55-3.39-13-2-17.38-1.48"/><path class="cls-9" d="M92.82,134.71c1.41,3.93.43,10.14,3.32,11.89,3.49,2.11,6.41-1.15,5.6-4.82a9.72,9.72,0,0,0,3.42-1c1.67-1,1.77-3.32.51-5-1.89-2.51-9.63-1.46-12.85-1.09"/><path class="cls-5" d="M92.77,134.69c1,2.24.68,5.9,2.43,6.8,2.1,1.1,3.68-.91,3.07-3a5.49,5.49,0,0,0,2-.7,1.93,1.93,0,0,0,.11-2.92c-1.21-1.23-5.73-.28-7.56-.17"/></g></g></svg>