<svg xmlns="http://www.w3.org/2000/svg" xmlns:xlink="http://www.w3.org/1999/xlink" viewBox="0 0 1722.54 1437.62"><defs><style>.cls-1{opacity:0.4;}.cls-2{fill:url(#linear-gradient);}.cls-3{fill:url(#linear-gradient-2);}.cls-4{fill:url(#linear-gradient-3);}.cls-5{fill:url(#linear-gradient-4);}.cls-6{fill:url(#linear-gradient-5);}.cls-7{fill:url(#linear-gradient-6);}.cls-8{fill:url(#linear-gradient-7);}.cls-9{fill:url(#linear-gradient-8);}.cls-10{fill:url(#linear-gradient-9);}.cls-11{fill:url(#linear-gradient-10);}.cls-12{fill:url(#linear-gradient-11);}.cls-13{fill:url(#linear-gradient-12);}.cls-14{fill:url(#linear-gradient-13);}.cls-15{fill:url(#linear-gradient-14);}.cls-16{fill:url(#linear-gradient-15);}.cls-17{fill:url(#linear-gradient-16);}</style><linearGradient id="linear-gradient" x1="109.38" y1="3862.11" x2="828.19" y2="3862.11" gradientTransform="translate(4392.89 1937.44) rotate(109.96)" gradientUnits="userSpaceOnUse"><stop offset="0" stop-color="#feef00"/><stop offset="1" stop-color="#feef00" stop-opacity="0"/></linearGradient><linearGradient id="linear-gradient-2" x1="108.13" y1="3859.24" x2="826.94" y2="3859.24" gradientTransform="translate(4585.11 605.64) rotate(89.93)" xlink:href="#linear-gradient"/><linearGradient id="linear-gradient-3" x1="108" y1="3855.68" x2="826.81" y2="3855.68" gradientTransform="translate(4237.83 -885.83) rotate(67.07)" xlink:href="#linear-gradient"/><linearGradient id="linear-gradient-4" x1="109.17" y1="3852.49" x2="827.98" y2="3852.49" gradientTransform="translate(3388.55 -2074.35) rotate(45.3)" xlink:href="#linear-gradient"/><linearGradient id="linear-gradient-5" x1="111.6" y1="3849.86" x2="830.41" y2="3849.86" gradientTransform="matrix(0.92, 0.38, -0.38, 0.92, 2084.45, -2892.07)" xlink:href="#linear-gradient"/><linearGradient id="linear-gradient-6" x1="124.14" y1="3862.46" x2="842.95" y2="3862.46" gradientTransform="matrix(-0.76, -0.65, 0.65, -0.76, -1683.23, 3752.03)" xlink:href="#linear-gradient"/><linearGradient id="linear-gradient-7" x1="121.88" y1="3864.62" x2="840.69" y2="3864.62" gradientTransform="translate(-500.54 4393.81) rotate(-159.8)" xlink:href="#linear-gradient"/><linearGradient id="linear-gradient-8" x1="118.58" y1="3865.98" x2="837.39" y2="3865.98" gradientTransform="translate(1018.87 4584.86) rotate(177.34)" xlink:href="#linear-gradient"/><linearGradient id="linear-gradient-9" x1="124.52" y1="3852.4" x2="843.33" y2="3852.4" gradientTransform="matrix(0.31, -0.95, 0.95, 0.31, -2981.76, -371.03)" xlink:href="#linear-gradient"/><linearGradient id="linear-gradient-10" x1="125.68" y1="3855.31" x2="844.49" y2="3855.31" gradientTransform="translate(-3134.2 965.91) rotate(-91.78)" xlink:href="#linear-gradient"/><linearGradient id="linear-gradient-11" x1="125.7" y1="3858.87" x2="844.51" y2="3858.87" gradientTransform="translate(-2742.64 2446.37) rotate(-114.64)" xlink:href="#linear-gradient"/><linearGradient id="linear-gradient-12" x1="115.18" y1="3865.98" x2="833.99" y2="3865.98" gradientTransform="translate(2428.04 4200.02) rotate(155.57)" xlink:href="#linear-gradient"/><linearGradient id="linear-gradient-13" x1="111.87" y1="3864.62" x2="830.68" y2="3864.62" gradientTransform="translate(3646.98 3260.06) rotate(132.62)" xlink:href="#linear-gradient"/><linearGradient id="linear-gradient-14" x1="114.81" y1="3856.74" x2="1116.33" y2="3856.74" gradientTransform="matrix(1, -0.01, 0.01, 1, 586.17, -3137.28)" xlink:href="#linear-gradient"/><linearGradient id="linear-gradient-15" x1="118.46" y1="3848.29" x2="837.27" y2="3848.29" gradientTransform="translate(-939.02 -2764.52) rotate(-23.71)" xlink:href="#linear-gradient"/><linearGradient id="linear-gradient-16" x1="121.6" y1="3849.49" x2="840.41" y2="3849.49" gradientTransform="translate(-2103.63 -1911.09) rotate(-45.28)" xlink:href="#linear-gradient"/></defs><title>Asset 12</title><g id="Layer_2" data-name="Layer 2"><g id="Layer_2-2" data-name="Layer 2"><g class="cls-1"><polygon class="cls-2" points="726.57 722.22 540.65 1419.45 419.48 1375.44 717.6 718.96 726.57 722.22"/><polygon class="cls-3" points="727.2 718.72 791.38 1437.45 662.47 1437.62 717.65 718.74 727.2 718.72"/><polygon class="cls-4" points="730.09 715.57 1068.45 1352.92 949.73 1403.15 721.3 719.29 730.09 715.57"/><polygon class="cls-5" points="727.96 712.35 1278.56 1178.76 1186.93 1269.44 721.17 719.07 727.96 712.35"/><polygon class="cls-6" points="724.59 710.08 1413.48 924.82 1364.48 1044.06 720.96 718.91 724.59 710.08"/><polygon class="cls-7" points="716.07 724.13 126.46 308.14 209.72 209.72 722.23 716.84 716.07 724.13"/><polygon class="cls-8" points="719.13 725.93 22.69 537.1 67.2 416.12 722.43 716.97 719.13 725.93"/><polygon class="cls-9" points="721.08 729.74 5.98 826.29 0 697.52 720.64 720.2 721.08 729.74"/><polygon class="cls-10" points="714.66 716.99 879.73 14.53 1002.15 54.91 723.73 719.98 714.66 716.99"/><polygon class="cls-11" points="714.14 720.5 628.57 4.01 757.42 0 723.69 720.21 714.14 720.5"/><polygon class="cls-12" points="711.34 723.74 354.15 96.76 471.32 43.01 720.02 719.76 711.34 723.74"/><polygon class="cls-13" points="724.84 728.86 96.55 1083.73 43.23 966.36 720.89 720.16 724.84 728.86"/><polygon class="cls-14" points="728.14 726.48 288 1298.29 193.13 1211 721.12 720.02 728.14 726.48"/><polygon class="cls-15" points="720.65 709.28 1721.88 649.25 1722.54 778.16 720.7 718.83 720.65 709.28"/><polygon class="cls-16" points="716.59 710.13 1349.27 363.13 1401.11 481.15 720.43 718.87 716.59 710.13"/><polygon class="cls-17" points="716.46 710.23 1177.27 154.95 1268.87 245.65 723.24 716.95 716.46 710.23"/></g></g></g></svg>