<svg xmlns="http://www.w3.org/2000/svg" xmlns:xlink="http://www.w3.org/1999/xlink" viewBox="0 0 424.25 470.29"><defs><style>.cls-1{fill:none;}.cls-2{isolation:isolate;}.cls-3{clip-path:url(#clip-path);}.cls-4{fill:#c17e52;}.cls-5{fill:#ce936b;}.cls-6{fill:#b56e47;}.cls-14,.cls-7{fill:#562e12;}.cls-7{opacity:0.3;mix-blend-mode:multiply;}.cls-8{fill:#442917;}.cls-9{fill:#6b4226;}.cls-10{fill:#774b2c;}.cls-11{fill:#c78e62;}.cls-12,.cls-13{fill:#d89c73;}.cls-13{opacity:0.7;}</style><clipPath id="clip-path" transform="translate(-180.5 -101.79)"><path class="cls-1" d="M287.7,0,0,263.44l349.22,307L355.8,562l49.41-61.14h0c2.27-1.39,4-4.5,4.85-7.49h0l107.16,56.12,179-299.58L708,25.15Z"/></clipPath></defs><title>Asset 5</title><g class="cls-2"><g id="Layer_2" data-name="Layer 2"><g id="Layer_2-2" data-name="Layer 2"><g class="cls-3"><path class="cls-4" d="M401.79,302l21.33,263.72s-32.95,14.26-67.2,0l-1.72-273.9Z" transform="translate(-180.5 -101.79)"/><polygon class="cls-5" points="192.41 468.92 175.47 463.85 174.59 194.57 183.48 194.57 192.41 468.92"/><polygon class="cls-6" points="225.66 468.13 221.21 199.79 221.21 199.79 241.99 463.52 225.66 468.13"/><polygon class="cls-7" points="226.42 263.6 221.3 200.23 173.71 190.05 174.08 250.32 226.42 263.6"/><path class="cls-8" d="M392.81,572c.7,0-7.29-137.65-7.29-137.65L388.42,572Z" transform="translate(-180.5 -101.79)"/><polygon class="cls-9" points="383.24 136.16 402.91 0 418.17 9.76 424.25 217.71 410.35 245.92 402.91 237.79 383.24 136.16"/><polygon class="cls-10" points="1.98 212.98 18.18 222.65 410.35 245.92 402.91 237.79 1.98 212.98"/><polygon class="cls-11" points="402.91 0 1.98 34.08 0 81.48 2.66 88.41 7.04 116.26 2.52 165.35 3.39 168.79 1.92 169.7 1.98 212.98 402.91 237.79 401.92 223.05 400.63 220 401.61 218.46 397.13 151.48 404.15 117.01 401.43 112.36 402.91 109.19 402.91 0"/><polygon class="cls-12" points="1.32 43 0.58 60.74 402.91 42.31 402.91 28.71 1.32 43"/><polygon class="cls-13" points="404.15 117.01 400.95 132.74 6.11 129.94 6.52 123.92 404.15 117.01"/><polygon class="cls-12" points="398.78 197.32 399.76 211.93 1.93 197.23 1.95 186.5 398.78 197.32"/><polygon class="cls-14" points="402.91 109.19 371.6 111.58 401.43 112.36 402.91 109.19"/><polygon class="cls-14" points="400.63 220 281.53 216.53 401.91 223.05 400.63 220"/><polygon class="cls-14" points="2.52 165.35 3.39 168.79 25.41 169.5 2.52 165.35"/><polygon class="cls-14" points="34.11 83.08 0 81.48 2.66 88.41 34.11 83.08"/></g></g></g></g></svg>