<svg xmlns="http://www.w3.org/2000/svg" xmlns:xlink="http://www.w3.org/1999/xlink" viewBox="0 0 503.44 303.6"><defs><style>.cls-1{isolation:isolate;}.cls-2{opacity:0;fill:url(#linear-gradient);}.cls-10,.cls-11,.cls-12,.cls-13,.cls-2,.cls-3,.cls-4,.cls-5,.cls-6,.cls-7,.cls-8,.cls-9{mix-blend-mode:multiply;}.cls-3{opacity:0.05;fill:url(#linear-gradient-2);}.cls-4{opacity:0.1;fill:url(#linear-gradient-3);}.cls-5{opacity:0.15;fill:url(#linear-gradient-4);}.cls-6{opacity:0.2;fill:url(#linear-gradient-5);}.cls-7{opacity:0.25;fill:url(#linear-gradient-6);}.cls-8{opacity:0.3;fill:url(#linear-gradient-7);}.cls-9{opacity:0.35;fill:url(#linear-gradient-8);}.cls-10{opacity:0.4;fill:url(#linear-gradient-9);}.cls-11{opacity:0.45;fill:url(#linear-gradient-10);}.cls-12{opacity:0.5;fill:url(#linear-gradient-11);}.cls-13{opacity:0.55;fill:url(#linear-gradient-12);}.cls-14{fill:#1e633f;}.cls-15{fill:#003328;}.cls-16{fill:#035037;}.cls-17{fill:#678c50;}.cls-18{fill:#4c7d49;}.cls-19{fill:#7b9056;}.cls-20{fill:#53875a;}.cls-21{fill:#58814c;}.cls-22{fill:#157f0e;}.cls-23{fill:#0d9302;}.cls-24{fill:#17b80b;}.cls-25{fill:#045c00;}.cls-26{fill:#faffff;}.cls-27{fill:#8a0000;}</style><linearGradient id="linear-gradient" x1="279.6" y1="145.66" x2="187.96" y2="335.15" gradientTransform="translate(-4.71 -14.32) rotate(3.25)" gradientUnits="userSpaceOnUse"><stop offset="0" stop-color="#002c1c"/><stop offset="0.32" stop-color="#002c1c" stop-opacity="0.78"/><stop offset="0.84" stop-color="#002c1e" stop-opacity="0.2"/><stop offset="1" stop-color="#002c1e" stop-opacity="0"/></linearGradient><linearGradient id="linear-gradient-2" x1="280.41" y1="145.26" x2="188.14" y2="336.05" xlink:href="#linear-gradient"/><linearGradient id="linear-gradient-3" x1="281.19" y1="144.93" x2="188.43" y2="336.74" xlink:href="#linear-gradient"/><linearGradient id="linear-gradient-4" x1="281.93" y1="144.68" x2="188.82" y2="337.21" xlink:href="#linear-gradient"/><linearGradient id="linear-gradient-5" x1="282.63" y1="144.51" x2="189.32" y2="337.46" xlink:href="#linear-gradient"/><linearGradient id="linear-gradient-6" x1="283.29" y1="144.42" x2="189.92" y2="337.49" xlink:href="#linear-gradient"/><linearGradient id="linear-gradient-7" x1="283.91" y1="144.41" x2="190.63" y2="337.31" xlink:href="#linear-gradient"/><linearGradient id="linear-gradient-8" x1="284.5" y1="144.48" x2="191.44" y2="336.9" xlink:href="#linear-gradient"/><linearGradient id="linear-gradient-9" x1="285.04" y1="144.63" x2="192.36" y2="336.28" xlink:href="#linear-gradient"/><linearGradient id="linear-gradient-10" x1="285.55" y1="144.85" x2="193.38" y2="335.44" xlink:href="#linear-gradient"/><linearGradient id="linear-gradient-11" x1="286.02" y1="145.15" x2="194.51" y2="334.37" xlink:href="#linear-gradient"/><linearGradient id="linear-gradient-12" x1="286.46" y1="145.53" x2="195.75" y2="333.1" xlink:href="#linear-gradient"/></defs><title>Asset 18</title><g class="cls-1"><g id="Layer_2" data-name="Layer 2"><g id="Layer_2-2" data-name="Layer 2"><path class="cls-2" d="M10,193.05l139.6-37.16a12.32,12.32,0,0,1,6.06-.08l288.55,70.13c9.18,2.23,8.94,16.41-.34,19.56L274.4,303a10.63,10.63,0,0,1-6.8.06L8.09,215.85C-3.63,211.91-2.3,196.34,10,193.05Z"/><path class="cls-3" d="M16.05,193.09l136.12-36.36a12,12,0,0,1,5.89-.08l282,68.62c8.95,2.18,8.71,16-.33,19l-165.9,56.23a10.35,10.35,0,0,1-6.62.06l-253-85.38C2.8,211.39,4.1,196.28,16.05,193.09Z"/><path class="cls-4" d="M22.06,193.13,154.7,157.57a11.55,11.55,0,0,1,5.72-.07l275.44,67.1c8.71,2.13,8.48,15.54-.32,18.52L273.25,298.07a10,10,0,0,1-6.44.06L20.23,214.59C9.24,210.87,10.49,196.23,22.06,193.13Z"/><path class="cls-5" d="M28.06,193.17l129.16-34.75a11.14,11.14,0,0,1,5.56-.08l268.88,65.59c8.48,2.07,8.26,15.1-.31,18L272.68,295.6a9.66,9.66,0,0,1-6.26,0L26.29,214C15.68,210.35,16.89,196.17,28.06,193.17Z"/><path class="cls-6" d="M34.07,193.21l125.68-34a10.82,10.82,0,0,1,5.39-.08l262.33,64.08c8.24,2,8,14.67-.3,17.48l-155.06,52.4a9.48,9.48,0,0,1-6.09,0L32.36,213.32C22.11,209.83,23.28,196.12,34.07,193.21Z"/><path class="cls-7" d="M40.08,193.25l122.2-33.15a10.49,10.49,0,0,1,5.22-.08l255.78,62.57c8,2,7.79,14.23-.29,17L271.54,290.67a9.14,9.14,0,0,1-5.91,0l-227.2-78C28.55,209.3,29.68,196.07,40.08,193.25Z"/><path class="cls-8" d="M46.09,193.29l118.72-32.35a10.05,10.05,0,0,1,5.05-.07l249.22,61c7.77,1.91,7.57,13.79-.28,16.44L271,288.2a9,9,0,0,1-5.74,0L44.49,212.06C35,208.78,36.07,196,46.09,193.29Z"/><path class="cls-9" d="M52.1,193.32l115.23-31.53a9.77,9.77,0,0,1,4.89-.08l242.67,59.54c7.53,1.85,7.34,13.36-.27,15.92L270.4,285.73a8.61,8.61,0,0,1-5.56,0L50.56,211.43C41.42,208.26,42.47,196,52.1,193.32Z"/><path class="cls-10" d="M58.1,193.36l111.76-30.73a9.44,9.44,0,0,1,4.72-.08l236.11,58c7.3,1.8,7.12,12.92-.26,15.4l-140.6,47.29a8.33,8.33,0,0,1-5.38,0L56.63,210.8C47.86,207.74,48.86,195.9,58.1,193.36Z"/><path class="cls-11" d="M64.11,193.4l108.28-29.93a9,9,0,0,1,4.55-.07L406.5,219.91c7.07,1.74,6.89,12.48-.25,14.88l-137,46a8.08,8.08,0,0,1-5.21,0L62.69,210.16C54.29,207.22,55.25,195.85,64.11,193.4Z"/><path class="cls-12" d="M70.12,193.44l104.8-29.13a8.67,8.67,0,0,1,4.38-.07l223,55c6.84,1.69,6.66,12-.23,14.36L268.68,278.33a7.71,7.71,0,0,1-5,0l-194.9-68.8C60.73,206.7,61.65,195.79,70.12,193.44Z"/><path class="cls-13" d="M76.13,193.48l101.31-28.32a8.28,8.28,0,0,1,4.22-.08l216.45,53.49c6.6,1.63,6.43,11.61-.23,13.84L268.11,275.86a7.43,7.43,0,0,1-4.84,0l-188.44-67C67.16,206.18,68,195.74,76.13,193.48Z"/><path class="cls-14" d="M79.27,159.29,74.8,216.14s-20.33,8.07-33.37-2.94l10.65-57.57S75.14,156.21,79.27,159.29Z"/><polygon class="cls-15" points="60.07 218.77 64.16 186.66 63.71 218.07 60.07 218.77"/><path class="cls-14" d="M407.55,185.37,437.37,114l-3.94-6.19-44.68-4.4-28.09,63.12,2.19,10C364.5,175.83,407.55,185.37,407.55,185.37Z"/><polygon class="cls-15" points="407.55 185.37 437.38 113.98 433.43 107.79 403.09 173.55 407.55 185.37"/><polygon class="cls-15" points="407.55 185.37 403.09 173.55 360.66 166.51 362.85 176.49 407.55 185.37"/><polygon class="cls-15" points="425.06 107.72 408.68 140.91 422.31 106.69 425.06 107.72"/><path class="cls-14" d="M211.59,141.57,239.5,80.06l-3.73-5.42-41.94-4.36-26.15,54.24,2.06,8.66C171.28,132.64,211.59,141.57,211.59,141.57Z"/><polygon class="cls-15" points="211.59 141.57 239.5 80.06 235.77 74.64 207.39 131.26 211.59 141.57"/><polygon class="cls-15" points="211.59 141.57 207.39 131.26 167.68 124.52 169.74 133.18 211.59 141.57"/><polygon class="cls-15" points="227.9 74.48 212.58 103.05 225.31 73.55 227.9 74.48"/><path class="cls-16" d="M393.91,196.45l2.1,44s15,2.21,23.06-6.89l-6.83-44.14S396.56,193.38,393.91,196.45Z"/><polygon class="cls-15" points="405.48 240.26 402.68 212.4 403.92 240.5 405.48 240.26"/><polygon class="cls-14" points="503.44 36.8 482.56 94.88 476.31 83.99 494.45 25.19 503.44 36.8"/><polygon class="cls-17" points="494.45 25.19 476.31 83.99 152.59 44.41 168.62 20.3 169.68 18.24 172.85 18.71 287.36 28.13 171.76 15.56 182.11 0 494.45 25.19"/><polygon class="cls-14" points="473.09 90.83 453.1 141.75 457.88 151.45 478.67 99.84 473.09 90.83"/><polygon class="cls-15" points="476.31 83.99 152.59 44.41 157.15 51.51 157.39 51.87 472.04 93.49 473.09 90.83 474.97 93.88 482.56 94.88 476.31 83.99"/><polygon class="cls-18" points="473.09 90.83 453.1 141.75 135.14 92.82 152.42 50.91 473.09 90.83"/><polygon class="cls-15" points="453.1 141.75 457.88 151.45 138.44 99.07 135.14 92.82 453.1 141.75"/><polygon class="cls-15" points="287.36 28.13 172.85 18.71 171.76 15.56 287.36 28.13"/><path class="cls-14" d="M300,230.88l-4.29,58s-19.19,11.3-31.38.45l10.22-61.48S296.12,227.85,300,230.88Z"/><polygon class="cls-15" points="281.8 293.68 285.69 260.85 285.21 292.86 281.8 293.68"/><polygon class="cls-14" points="446.8 173.02 446.46 186.26 381.99 218.18 382.56 195.98 446.8 173.02"/><polygon class="cls-18" points="446.8 173.02 382.56 195.98 94.86 126.24 141.27 113.97 446.8 173.02"/><polygon class="cls-15" points="382.56 195.98 381.99 218.18 94.3 148.03 94.86 126.24 382.56 195.98"/><polygon class="cls-14" points="371.2 215.3 371.17 220.83 306.81 250.39 307.61 219.18 371.27 198.07 371.2 215.3"/><path class="cls-17" d="M307.61,219.18,34.42,147.5l52.81-13.62,7.43,0,276.61,64.21Z"/><polygon class="cls-16" points="307.61 219.18 306.81 250.39 33.28 167.07 34.42 147.5 307.61 219.18"/><path class="cls-15" d="M323,214.06l-2.65,18.34L320.32,215s-60.4-14.33-75.26-17.78C260,200.46,323,214.06,323,214.06Z"/><polygon class="cls-19" points="152.59 44.41 159.46 34.07 478.57 76.35 476.31 83.99 152.59 44.41"/><polygon class="cls-19" points="171.76 15.56 178.96 4.73 491.95 33.32 488.61 44.13 171.76 15.56"/><polygon class="cls-20" points="135.14 92.82 141.27 77.97 456.86 130.53 454.7 134.77 135.14 92.82"/><polygon class="cls-21" points="407.55 185.37 423.21 179.97 134.55 115.75 122.91 118.82 407.55 185.37"/><path class="cls-22" d="M290.82,274.62s-5.53-13.05-1.29-15.16,8.75,2.54,9.52,12.44c0,0,4.76-18.88,10.3-16.41s-5,25.57-5,25.57,10.68-8.59,13.15-7.27-16.95,15.49-16.95,15.49,16.79-2.37,19.07,2.46c0,0,.1,1.63-4.57,1.14s-17.21-.11-17.21-.11L288.05,291s-2.84-10.77-10.92-13.38,5.85-6.33,10.25-1C287.38,276.58,285.58,270.21,290.82,274.62Z"/><path class="cls-23" d="M270.59,285.82s-8-18.29-12.23-16,2.46,15.42,2.46,15.42-9.76-11-13-8.51,3.73,10.34,3.73,10.34-11.89-4.6-12.79-2.69,9.63,6.43,9.63,6.43-29.59.08,7.12,2.36,43,2.44,43,2.44,1-3.28,6.25-3.17,7.34,2,7.34,2,.65-8-11.47-5.16c0,0,8.31-4.78,2.45-5.23a34.34,34.34,0,0,0-19.47,4.66s7.22-6.25,4.33-7.2-11.42,3.27-13.08,7.09c0,0,.61-8.39-1.37-7.91S270.59,285.82,270.59,285.82Z"/><path class="cls-24" d="M289.67,291.67a3,3,0,0,0-1.62-.72,10.37,10.37,0,0,0-7.7,1.58,4.29,4.29,0,0,0,1-2.08,1.92,1.92,0,0,0-1-1.95,2.4,2.4,0,0,0-1.67,0,7,7,0,0,0-4.46,4.07,11.88,11.88,0,0,0-4.41-5.18c-1.39-.89-3.22-1.47-4.65-.65a2.93,2.93,0,0,0,.23,4.92c-2.24-.34-4.67-.65-6.64.48a1.71,1.71,0,0,0-.74.69,1,1,0,0,0-.1.5c15.54,1,25.31,1.52,31.34,1.85a2.82,2.82,0,0,0,.33-.36A2.44,2.44,0,0,0,289.67,291.67Z"/><path class="cls-25" d="M279.69,292.92s-.42-1.7-1.08-4.41S277,282.06,275.9,278s-1.77-7.95-2.38-10.65a29,29,0,0,0-.9-3.16c-.27-.74-.44-1.14-.44-1.14a10.63,10.63,0,0,1,.68,1,19.34,19.34,0,0,1,1.5,3c.55,1.32,1.07,2.92,1.62,4.68s1.12,3.73,1.63,5.81a73.06,73.06,0,0,1,1.87,10.84A45.33,45.33,0,0,1,279.69,292.92Z"/><path class="cls-25" d="M291.06,286.65l1.24-3.37c.78-2.07,1.83-4.91,3-8l3.05-8,1.3-3.35s-.08,1.38-.45,3.58a44,44,0,0,1-6.11,16.2A35.14,35.14,0,0,1,291.06,286.65Z"/><path class="cls-25" d="M301.91,292.53a31.8,31.8,0,0,1,5.47-6.49,32.31,32.31,0,0,1,7-4.82,55.81,55.81,0,0,1-12.45,11.31Z"/><path class="cls-25" d="M274,294.21a13.48,13.48,0,0,1-4.09-2.47A13.33,13.33,0,0,1,267,288a13.48,13.48,0,0,1,4.09,2.47A13.33,13.33,0,0,1,274,294.21Z"/><path class="cls-25" d="M282.32,297a6.85,6.85,0,0,1,.53-1.51,9,9,0,0,1,2.33-3.06,8.91,8.91,0,0,1,3.41-1.78,7.14,7.14,0,0,1,1.58-.27L289,291.39c-.71.62-1.64,1.46-2.69,2.34s-2,1.66-2.76,2.26Z"/><path class="cls-26" d="M272.73,263.91a3.13,3.13,0,0,1-.78-2.45,2.41,2.41,0,0,1,1.6-1.95,2,2,0,0,1,2.27.92,2.33,2.33,0,0,1-.09,2,6.1,6.1,0,0,1-1.3,1.61,4.46,4.46,0,0,1,2.94-1.05,2.87,2.87,0,0,1,1.79.61,1.68,1.68,0,0,1,.57,1.73,2.24,2.24,0,0,1-2.28,1.22,5.37,5.37,0,0,1-3.12-1.12,6.59,6.59,0,0,1,1.36,1.38,2.24,2.24,0,0,1,.33,1.85,1.88,1.88,0,0,1-2,1.18,2.38,2.38,0,0,1-1.82-1.59,3.27,3.27,0,0,1,.2-2.47A4.94,4.94,0,0,1,271,268.5c-.79.66-2.23.6-2.62-.35a1.85,1.85,0,0,1,.1-1.4,3.49,3.49,0,0,1,3.23-2.07,2.48,2.48,0,0,1-3.29-3.12,1,1,0,0,1,.33-.5,1,1,0,0,1,.45-.18A2.81,2.81,0,0,1,272,262c.11.17,0,.54-.13.41"/><circle class="cls-27" cx="273.54" cy="264.7" r="1.73"/><path class="cls-26" d="M291.94,289.7A2.59,2.59,0,0,0,293.2,288a2,2,0,0,0-.77-2,1.62,1.62,0,0,0-2,.14,1.91,1.91,0,0,0-.45,1.61,5,5,0,0,0,.6,1.61c-.71-1.19-2.43-2.27-3.63-1a1.49,1.49,0,0,0-.36,1.44c.4,1.42,2.65,1.11,3.7.72a5.36,5.36,0,0,0-1.42.75,1.82,1.82,0,0,0-.75,1.37,1.56,1.56,0,0,0,1.29,1.46,2,2,0,0,0,1.86-.79,2.77,2.77,0,0,0,.48-2,4.25,4.25,0,0,0,.36,2.5c.46.72,1.62,1.05,2.17.4a1.56,1.56,0,0,0,.29-1.13,2.93,2.93,0,0,0-2-2.48,3.18,3.18,0,0,0,3.08.19,1.43,1.43,0,0,0,.85-1,1.49,1.49,0,0,0-.74-1.48,2.44,2.44,0,0,0-2.69.11c-.14.11-.17.42,0,.37"/><circle class="cls-27" cx="291.1" cy="290.11" r="1.44"/><path class="cls-26" d="M299.77,262.52a2,2,0,0,1-.51-1.61,1.55,1.55,0,0,1,1.05-1.27,1.27,1.27,0,0,1,1.48.6,1.44,1.44,0,0,1-.06,1.31,3.78,3.78,0,0,1-.85,1.06,3,3,0,0,1,1.93-.69,1.89,1.89,0,0,1,1.18.4,1.12,1.12,0,0,1,.37,1.14,1.46,1.46,0,0,1-1.49.8,3.47,3.47,0,0,1-2.05-.74,4.26,4.26,0,0,1,.89.91,1.48,1.48,0,0,1,.22,1.22,1.25,1.25,0,0,1-1.33.77,1.55,1.55,0,0,1-1.19-1.05,2.13,2.13,0,0,1,.13-1.62,3.25,3.25,0,0,1-.89,1.78c-.52.43-1.47.39-1.72-.23a1.23,1.23,0,0,1,.06-.92,2.28,2.28,0,0,1,2.12-1.35,1.63,1.63,0,0,1-2.16-2,.74.74,0,0,1,.22-.33.73.73,0,0,1,.3-.12,1.82,1.82,0,0,1,1.8.75c.08.11,0,.35-.08.27"/><circle class="cls-27" cx="300.3" cy="263.04" r="1.14"/><path class="cls-26" d="M269,287.36a1.56,1.56,0,0,0,.75-1,1.18,1.18,0,0,0-.45-1.17,1,1,0,0,0-1.22.08,1.15,1.15,0,0,0-.27,1,2.87,2.87,0,0,0,.37,1c-.44-.71-1.47-1.36-2.19-.62a.9.9,0,0,0-.21.86c.24.85,1.59.67,2.22.43a3.29,3.29,0,0,0-.85.45,1.07,1.07,0,0,0-.45.82.94.94,0,0,0,.77.88,1.22,1.22,0,0,0,1.12-.47,1.69,1.69,0,0,0,.29-1.2,2.43,2.43,0,0,0,.21,1.49c.28.44,1,.64,1.3.25a.92.92,0,0,0,.18-.68,1.76,1.76,0,0,0-1.21-1.49,1.88,1.88,0,0,0,1.84.11.84.84,0,0,0,.51-.59.9.9,0,0,0-.44-.89,1.45,1.45,0,0,0-1.61.07c-.09.06-.11.25,0,.22"/><circle class="cls-27" cx="268.53" cy="287.61" r="0.87"/><path class="cls-26" d="M315.8,281.88a2.33,2.33,0,0,0,1.93.11,1.78,1.78,0,0,0,1.11-1.51,1.47,1.47,0,0,0-1.08-1.48,1.71,1.71,0,0,0-1.44.44,4.74,4.74,0,0,0-.93,1.24c.55-1.12.55-2.95-1-3.26a1.36,1.36,0,0,0-1.26.42c-.88,1,.44,2.54,1.24,3.16a4.73,4.73,0,0,0-1.25-.72,1.63,1.63,0,0,0-1.4.1,1.38,1.38,0,0,0-.48,1.68,1.76,1.76,0,0,0,1.48,1,2.43,2.43,0,0,0,1.76-.6,3.79,3.79,0,0,0-1.72,1.48c-.33.7,0,1.74.74,1.84a1.38,1.38,0,0,0,1-.33,2.61,2.61,0,0,0,.9-2.72,2.87,2.87,0,0,0,1.34,2.42,1.27,1.27,0,0,0,1.16.17,1.33,1.33,0,0,0,.77-1.27,2.18,2.18,0,0,0-1.38-2c-.15-.05-.4.07-.28.17"/><circle class="cls-27" cx="315.09" cy="281.44" r="1.3"/></g></g></g></svg>