<svg xmlns="http://www.w3.org/2000/svg" viewBox="0 0 58.17 68.47"><defs><style>.cls-1{fill:#66460e;}.cls-2{fill:#ffbc36;}</style></defs><title>Asset 2</title><g id="Layer_2" data-name="Layer 2"><g id="Layer_2-2" data-name="Layer 2"><path class="cls-1" d="M49.58,51.55c0,.21.06.41.07.63A19.61,19.61,0,0,1,47,62c-1.23,2.29-2.69,5.55-5.54,6-5.23.78-7-1.35-9.92-2.17-3.9-1.09-6.43,1.61-10.11,2.46A6.24,6.24,0,0,1,15.55,67a17.28,17.28,0,0,1-2.19-2.17A22,22,0,0,1,9,53.53c-.33-2.6,1.2-4.22,3-5.92s4.11-3.5,5.63-5.63,2.57-4.35,4.24-6.26a8.93,8.93,0,0,1,5.87-3.15c2.21-.19,5.15-.21,7.07,1,3.18,2,4.75,5.65,6.72,8.72a17.13,17.13,0,0,0,3.59,4.23C46.89,48,49.15,49.13,49.58,51.55Z"/><path class="cls-1" d="M58,37.68c-.61,5.35-3.72,9.09-6.85,9-3.42-.12-6-5-5.44-10.38.46-4.09,2.47-7.4,4.9-8.56A5.35,5.35,0,0,1,51,25.39a12.81,12.81,0,0,1,.66-1.79,3.53,3.53,0,0,0,.46-2.14A9,9,0,0,1,54,23.91a5.26,5.26,0,0,1,.55,3c0,.27,0,.79,0,.79A10.44,10.44,0,0,1,58,37.68Z"/><path class="cls-1" d="M2.17,37.68c.61,5.35,3.72,9.09,6.85,9,3.42-.12,6.05-5,5.44-10.38-.46-4.09-2.47-7.4-4.9-8.56a5.35,5.35,0,0,0-.39-2.33,12.81,12.81,0,0,0-.66-1.79,3.53,3.53,0,0,1-.46-2.14A9,9,0,0,0,6.2,23.91a5.26,5.26,0,0,0-.55,3c0,.27,0,.79,0,.79A10.44,10.44,0,0,0,2.17,37.68Z"/><path class="cls-1" d="M11.82,21c.21,6.51,3.6,11.32,7.38,11.5,4.13.2,7.79-5.47,7.59-12-.16-5-2.25-9.16-5.07-10.81a6.4,6.4,0,0,0-.24-2.84,16.56,16.56,0,0,0-.62-2.22A4.29,4.29,0,0,1,20.51,2,10.88,10.88,0,0,0,18,4.77a6.48,6.48,0,0,0-1,3.55,8.31,8.31,0,0,1,0,.95A12.65,12.65,0,0,0,11.82,21Z"/><path class="cls-1" d="M46.42,21c-.2,6.51-3.59,11.32-7.38,11.5-4.13.2-7.79-5.47-7.58-12,.16-5,2.25-9.16,5.06-10.81a6.55,6.55,0,0,1,.24-2.84,16.59,16.59,0,0,1,.63-2.22A4.36,4.36,0,0,0,37.73,2,10.69,10.69,0,0,1,40.2,4.77a6.4,6.4,0,0,1,1,3.55c0,.33,0,.95,0,.95A12.65,12.65,0,0,1,46.42,21Z"/><path class="cls-2" d="M47.58,49.55c0,.21.06.41.07.63A19.61,19.61,0,0,1,45,60c-1.23,2.29-2.69,5.55-5.54,6-5.23.78-7-1.35-9.92-2.17-3.9-1.09-6.43,1.61-10.11,2.46A6.24,6.24,0,0,1,13.55,65a17.28,17.28,0,0,1-2.19-2.17A22,22,0,0,1,7,51.53c-.33-2.6,1.2-4.22,3-5.92s4.11-3.5,5.63-5.63,2.57-4.35,4.24-6.26a8.93,8.93,0,0,1,5.87-3.15c2.21-.19,5.15-.21,7.07,1,3.18,2,4.75,5.65,6.72,8.72a17.13,17.13,0,0,0,3.59,4.23C44.89,46,47.15,47.13,47.58,49.55Z"/><path class="cls-2" d="M56,35.68c-.61,5.35-3.72,9.09-6.85,9-3.42-.12-6-5-5.44-10.38.46-4.09,2.47-7.4,4.9-8.56A5.35,5.35,0,0,1,49,23.39a12.81,12.81,0,0,1,.66-1.79,3.53,3.53,0,0,0,.46-2.14A9,9,0,0,1,52,21.91a5.26,5.26,0,0,1,.55,3c0,.27,0,.79,0,.79A10.44,10.44,0,0,1,56,35.68Z"/><path class="cls-2" d="M.17,35.68C.78,41,3.89,44.77,7,44.66c3.42-.12,6.05-5,5.44-10.38-.46-4.09-2.47-7.4-4.9-8.56a5.35,5.35,0,0,0-.39-2.33,12.81,12.81,0,0,0-.66-1.79,3.53,3.53,0,0,1-.46-2.14A9,9,0,0,0,4.2,21.91a5.26,5.26,0,0,0-.55,3c0,.27,0,.79,0,.79A10.44,10.44,0,0,0,.17,35.68Z"/><path class="cls-2" d="M9.82,19c.21,6.51,3.6,11.32,7.38,11.5,4.13.2,7.79-5.47,7.59-12-.16-5-2.25-9.16-5.07-10.81a6.4,6.4,0,0,0-.24-2.84,16.56,16.56,0,0,0-.62-2.22A4.29,4.29,0,0,1,18.51,0,10.88,10.88,0,0,0,16,2.77a6.48,6.48,0,0,0-1,3.55,8.31,8.31,0,0,1,0,.95A12.65,12.65,0,0,0,9.82,19Z"/><path class="cls-2" d="M44.42,19c-.2,6.51-3.59,11.32-7.38,11.5-4.13.2-7.79-5.47-7.58-12,.16-5,2.25-9.16,5.06-10.81a6.55,6.55,0,0,1,.24-2.84,16.59,16.59,0,0,1,.63-2.22A4.36,4.36,0,0,0,35.73,0,10.69,10.69,0,0,1,38.2,2.77a6.4,6.4,0,0,1,1,3.55c0,.33,0,.95,0,.95A12.65,12.65,0,0,1,44.42,19Z"/></g></g></svg>