<svg xmlns="http://www.w3.org/2000/svg" xmlns:xlink="http://www.w3.org/1999/xlink" viewBox="0 0 484.47 441.59"><defs><style>.cls-1{isolation:isolate;}.cls-2{fill:url(#linear-gradient);}.cls-3{fill:url(#linear-gradient-2);}.cls-4{fill:#fbf9db;}.cls-5{fill:#644b44;}.cls-6{opacity:0.25;}.cls-7{fill:#fffae5;}.cls-8{fill:#684c45;}.cls-9{fill:url(#linear-gradient-3);}.cls-10{fill:url(#linear-gradient-4);}.cls-11{fill:url(#linear-gradient-5);}.cls-12{fill:#b38c76;}.cls-13{fill:url(#linear-gradient-6);}.cls-14{fill:url(#linear-gradient-7);}.cls-15{fill:url(#linear-gradient-8);}.cls-16{fill:url(#linear-gradient-9);}.cls-17{fill:url(#linear-gradient-10);}.cls-18,.cls-21,.cls-34{mix-blend-mode:multiply;}.cls-19{fill:url(#linear-gradient-11);}.cls-20,.cls-21{fill:url(#linear-gradient-15);}.cls-21{opacity:0.51;}.cls-22{fill:url(#linear-gradient-17);}.cls-23{fill:url(#linear-gradient-18);}.cls-24{fill:url(#linear-gradient-21);}.cls-25,.cls-34{fill:#95684c;}.cls-26{fill:url(#linear-gradient-22);}.cls-27{fill:#5c3c32;}.cls-28{fill:url(#linear-gradient-23);}.cls-29{fill:#5c372c;}.cls-30{fill:#7c4a33;}.cls-31{fill:none;}.cls-32{fill:#a57258;}.cls-33{mix-blend-mode:screen;}.cls-35{fill:#190401;}.cls-36{fill:url(#linear-gradient-31);}.cls-37{fill:url(#linear-gradient-32);}.cls-38{fill:url(#linear-gradient-33);}.cls-39{fill:#6c4e47;}.cls-40{fill:#e2ddbc;}.cls-41{fill:#ac846f;}.cls-42{fill:#7a594f;}.cls-43{fill:#977465;}.cls-44{fill:#fff9e2;}.cls-45{fill:#c8a589;}.cls-46{fill:url(#linear-gradient-41);}.cls-47{fill:url(#linear-gradient-42);}.cls-48{fill:url(#linear-gradient-43);}.cls-49{fill:#795a4f;}.cls-50{fill:#f4e3b0;}.cls-51{fill:#d8c799;}.cls-52{fill:#b08978;}.cls-53{fill:url(#linear-gradient-44);}.cls-54{fill:url(#linear-gradient-45);}.cls-55{fill:#dcb493;}.cls-56{fill:#65493f;}.cls-57{opacity:0.36;}.cls-58{opacity:0.05;}.cls-59{fill:url(#linear-gradient-46);}.cls-60{fill:#f4dead;}.cls-61{fill:url(#linear-gradient-47);}.cls-62{fill:url(#linear-gradient-48);}.cls-63{fill:url(#linear-gradient-49);}.cls-64{fill:#f6edbb;}.cls-65{fill:url(#linear-gradient-50);}.cls-66{fill:url(#linear-gradient-51);}.cls-67{fill:#f6edcc;}.cls-68{fill:url(#linear-gradient-52);}</style><linearGradient id="linear-gradient" x1="848.84" y1="12.04" x2="867.73" y2="212.86" gradientTransform="matrix(1, 0, -0.13, 1, -753.86, 0)" gradientUnits="userSpaceOnUse"><stop offset="0.04" stop-color="#906c5c"/><stop offset="0.98" stop-color="#ae866e"/></linearGradient><linearGradient id="linear-gradient-2" x1="1071.37" y1="114.28" x2="955.2" y2="126.51" xlink:href="#linear-gradient"/><linearGradient id="linear-gradient-3" x1="954.74" y1="200.79" x2="843.47" y2="205.28" xlink:href="#linear-gradient"/><linearGradient id="linear-gradient-4" x1="-2157.44" y1="12.04" x2="-2138.55" y2="212.86" gradientTransform="matrix(-1, 0, 0.13, 1, -1741.31, 0)" xlink:href="#linear-gradient"/><linearGradient id="linear-gradient-5" x1="-1934.92" y1="114.28" x2="-2051.08" y2="126.51" gradientTransform="matrix(-1, 0, 0.13, 1, -1741.31, 0)" xlink:href="#linear-gradient"/><linearGradient id="linear-gradient-6" x1="-2051.55" y1="200.79" x2="-2162.82" y2="205.28" gradientTransform="matrix(-1, 0, 0.13, 1, -1741.31, 0)" xlink:href="#linear-gradient"/><linearGradient id="linear-gradient-7" x1="-2381.26" y1="-25.29" x2="-2362.79" y2="171.02" gradientTransform="matrix(-1, -0.02, -0.02, 1, -2151.8, -8.27)" xlink:href="#linear-gradient"/><linearGradient id="linear-gradient-8" x1="-2372.35" y1="-27.39" x2="-2369.91" y2="-1.42" gradientTransform="matrix(-1, -0.02, -0.02, 1, -2151.8, -8.27)" gradientUnits="userSpaceOnUse"><stop offset="0.04" stop-color="#8e6a5b"/><stop offset="0.97" stop-color="#a37460"/></linearGradient><linearGradient id="linear-gradient-9" x1="-2177.99" y1="71.24" x2="-2290.89" y2="83.12" gradientTransform="matrix(-1, -0.02, -0.02, 1, -2151.8, -8.27)" xlink:href="#linear-gradient"/><linearGradient id="linear-gradient-10" x1="-2256.14" y1="154.87" x2="-2395.82" y2="160.51" gradientTransform="matrix(-1, -0.02, -0.02, 1, -2151.8, -8.27)" xlink:href="#linear-gradient"/><linearGradient id="linear-gradient-11" x1="-2381.23" y1="-26.33" x2="-2362.77" y2="169.98" gradientTransform="matrix(-1, -0.02, -0.02, 1, -2151.8, -8.27)" xlink:href="#linear-gradient"/><linearGradient id="linear-gradient-15" x1="369.42" y1="38.81" x2="387.87" y2="234.96" gradientTransform="matrix(1, -0.02, 0.02, 1, -88.83, -8.27)" xlink:href="#linear-gradient"/><linearGradient id="linear-gradient-17" x1="382.69" y1="36.31" x2="385.13" y2="62.28" gradientTransform="matrix(1, -0.02, 0.02, 1, -88.83, -8.27)" xlink:href="#linear-gradient-8"/><linearGradient id="linear-gradient-18" x1="494.42" y1="218.75" x2="359.85" y2="224.18" gradientTransform="matrix(1, -0.02, 0.02, 1, -88.83, -8.27)" xlink:href="#linear-gradient"/><linearGradient id="linear-gradient-21" x1="219.82" y1="434.14" x2="295.14" y2="259.06" gradientUnits="userSpaceOnUse"><stop offset="0" stop-color="#b48b67"/><stop offset="0.98" stop-color="#e7cdad"/></linearGradient><linearGradient id="linear-gradient-22" x1="464.5" y1="399.23" x2="381.83" y2="386.46" gradientUnits="userSpaceOnUse"><stop offset="0.25" stop-color="#996e53"/><stop offset="0.97" stop-color="#7c4a33"/></linearGradient><linearGradient id="linear-gradient-23" x1="171.37" y1="485.84" x2="252.6" y2="297" gradientUnits="userSpaceOnUse"><stop offset="0" stop-color="#95684c"/><stop offset="0.98" stop-color="#7a4f3c"/></linearGradient><linearGradient id="linear-gradient-31" x1="219.82" y1="354.77" x2="295.14" y2="179.69" xlink:href="#linear-gradient-21"/><linearGradient id="linear-gradient-32" x1="464.5" y1="319.87" x2="381.83" y2="307.09" xlink:href="#linear-gradient-22"/><linearGradient id="linear-gradient-33" x1="171.37" y1="406.47" x2="252.6" y2="217.63" xlink:href="#linear-gradient-23"/><linearGradient id="linear-gradient-41" x1="36.85" y1="261.43" x2="46.89" y2="368.16" gradientTransform="matrix(1, 0, 0, 1, 0, 0)" xlink:href="#linear-gradient"/><linearGradient id="linear-gradient-42" x1="44.01" y1="261.19" x2="45.62" y2="278.27" gradientTransform="matrix(1, 0, 0, 1, 0, 0)" xlink:href="#linear-gradient-8"/><linearGradient id="linear-gradient-43" x1="191.84" y1="308.5" x2="103.53" y2="317.8" gradientTransform="matrix(1, 0, 0, 1, 0, 0)" xlink:href="#linear-gradient"/><linearGradient id="linear-gradient-44" x1="1.44" y1="418.81" x2="82.72" y2="418.81" gradientUnits="userSpaceOnUse"><stop offset="0.03" stop-color="#a9826f"/><stop offset="0.98" stop-color="#926f60"/></linearGradient><linearGradient id="linear-gradient-45" x1="50.48" y1="418.82" x2="82.73" y2="418.82" gradientTransform="matrix(1, 0, 0, 1, 0, 0)" xlink:href="#linear-gradient-8"/><linearGradient id="linear-gradient-46" x1="131.32" y1="360.27" x2="20.26" y2="364.75" gradientTransform="matrix(1, 0, 0, 1, 0, 0)" xlink:href="#linear-gradient"/><linearGradient id="linear-gradient-47" x1="-2540.41" y1="261.43" x2="-2530.37" y2="368.16" gradientTransform="matrix(1, 0, 0, -1, 2975.89, 651.84)" xlink:href="#linear-gradient"/><linearGradient id="linear-gradient-48" x1="-2535.36" y1="261.19" x2="-2533.75" y2="278.27" gradientTransform="matrix(-1, 0, 0, 1, -2092.8, 0)" xlink:href="#linear-gradient-8"/><linearGradient id="linear-gradient-49" x1="-2385.42" y1="308.5" x2="-2473.73" y2="317.8" gradientTransform="matrix(-1, 0, 0, 1, -2092.8, 0)" xlink:href="#linear-gradient"/><linearGradient id="linear-gradient-50" x1="-2575.82" y1="418.81" x2="-2494.54" y2="418.81" gradientTransform="matrix(-1, 0, 0, 1, -2092.8, 0)" xlink:href="#linear-gradient-44"/><linearGradient id="linear-gradient-51" x1="-2526.78" y1="418.82" x2="-2494.54" y2="418.82" gradientTransform="matrix(-1, 0, 0, 1, -2092.8, 0)" xlink:href="#linear-gradient-8"/><linearGradient id="linear-gradient-52" x1="-2445.95" y1="360.27" x2="-2557" y2="364.75" gradientTransform="matrix(-1, 0, 0, 1, -2092.8, 0)" xlink:href="#linear-gradient"/></defs><title>Asset 10</title><g class="cls-1"><g id="Layer_2" data-name="Layer 2"><g id="Layer_2-2" data-name="Layer 2"><polygon class="cls-2" points="116.53 259.72 40.98 259.72 76.85 14.95 136.4 0 116.53 259.72"/><path class="cls-3" d="M83.16,259.75c-14-.47-28.13,0-42.18,0L76.85,14.94h3a7.72,7.72,0,0,0,3.08,3.37,3,3,0,0,1,.95.65,3.88,3.88,0,0,1,.61,1.22,21.85,21.85,0,0,0,3,5.58l.45.16c1.95-.18,3.58,1.29,4.71,3s1.91,3.79,3.13,5.41c.65.85,1.41,1.57,2,2.47,2,3,3.3,6.94,4.75,10.44-1.92.32-3.06,3-3.78,5.17-2.68,8.17-16.53,37.69-19.21,45.86,1.18,3.14,4.34,5.56,3.36,9.13a9.6,9.6,0,0,1-1,2.18c-2,3.46-6.31,28.26-8.28,31.72,1.44.75,1.9,3.22.93,5l2.75-.67a10.1,10.1,0,0,1-1,3.31c2.06-.14,3.16,2.42,3.84,4.64l2.52,8.2c.26.84-1.84,23.06-2,24a7.17,7.17,0,0,1-1.25,2.79,97,97,0,0,1-9.08,11.85c5,6-.87,40.26,4.92,45.1l3-.47c-1.32,2.37-.05,5.19,1.4,7C81.57,254.45,82.06,256.81,83.16,259.75Z"/><path class="cls-4" d="M72,78.12c-.31,3.6-28.3,178-28.61,181.6H41L76.85,14.94h2.67C76.71,28.8,73.15,64.17,72,78.12Z"/><polygon class="cls-5" points="181.38 13.74 162.8 261.72 116.53 259.72 136.4 0 181.38 13.74"/><g class="cls-6"><path class="cls-7" d="M116.53,259.72a5.41,5.41,0,0,0,.21-1.07c.11-.7.25-1.73.42-3.07.35-2.66,17.46-238.51,19.47-253.45-1.86,0-.52,0-.93,0V2.3l0,.17,0,.34-.08.68-.15,1.35-.29,2.68q-.29,2.65-.57,5.22c-.37,3.43-2.14,19.54-2.48,22.69-.66,6.3-15,217.49-15.26,220.15-.12,1.34-.2,2.37-.25,3.07a3.79,3.79,0,0,0,0,1.07,5.41,5.41,0,0,0,.21-1.07c.11-.7.25-1.73.43-3.07.35-2.66,15-213.85,15.75-220.15.35-3.15,2.14-19.26,2.53-22.69.19-1.71.39-3.45.58-5.22l.3-2.68.15-1.35.08-.68,0-.34,0-.17V2.16c-.41,0,.93,0-.93,0C134.1,16.67,117,252.92,116.8,255.58c-.12,1.34-.2,2.37-.25,3.07A3.79,3.79,0,0,0,116.53,259.72Z"/></g><path class="cls-8" d="M79.42,14.45C81,20,82.84,25.55,84.94,30.83a16.35,16.35,0,0,0,2,3.94c.1.13.27-.06.19-.19A49.23,49.23,0,0,1,83.88,27c-1-2.64-1.91-5.32-2.77-8q-.72-2.34-1.4-4.71c-.06-.21-.35,0-.29.19Z"/><path class="cls-8" d="M87.66,36.87s0,0,0,0,0,0,0,0Z"/><path class="cls-8" d="M114.72,45.52s0-.07,0-.07,0,.07,0,.07Z"/><path class="cls-8" d="M110,59.37c-1.11-1.53-2.17-3.11-3.22-4.7-.5-.77-1-1.54-1.46-2.33s-1-1.62-1.48-2.48c-.92-1.69-1.77-3.45-2.56-5.24s-1.51-3.7-2.25-5.56a13.86,13.86,0,0,0-1.21-2.51c-.54-.79-1.19-1.45-1.78-2.18a36.6,36.6,0,0,1-2.84-4.88A7.9,7.9,0,0,0,89.84,26a4.05,4.05,0,0,0-1.08-.31,4.58,4.58,0,0,1-.92-.07c-.08,0-.21,0-.27-.1a3.27,3.27,0,0,1-.28-.41c-.3-.41-.59-.83-.86-1.27A19.75,19.75,0,0,1,85,21c-.39-.93-.62-2-1.41-2.55-.38-.25-.78-.43-1.15-.69a8.24,8.24,0,0,1-1.05-.92,8.65,8.65,0,0,1-1.62-2.48c-.08-.19-.35,0-.27.18a8.07,8.07,0,0,0,3.08,3.78,9.7,9.7,0,0,1,1,.58,2.91,2.91,0,0,1,.77,1.31,24.92,24.92,0,0,0,1.16,2.63,23.76,23.76,0,0,0,1.41,2.41c.16.25.33.61.58.74a1.43,1.43,0,0,0,.67.15c1.69-.06,3.06,1.13,4.07,2.51S94,31.94,95,33.52s2.5,2.84,3.35,4.69c.4.88.69,1.82,1,2.73s.74,1.85,1.14,2.76c.76,1.75,1.59,3.46,2.47,5.11,1,1.9,2,3.77,3.2,5.54A43.89,43.89,0,0,0,110,59.41s.06,0,0,0Z"/><path class="cls-9" d="M76.43,259.42l-5-5.48c4.84-9.2,9.74-41.21,9.52-51.38,5.05-5.88,10.32-11.93,16.69-15a3.28,3.28,0,0,0,1.52-1.17,3.82,3.82,0,0,0,.39-1.77c.09-1.78,2.55-24.91,2.64-26.69,3.74-.87,7-5.23,7.39-9.72.4,4.13.75,6.44,3.27,9.24a3.24,3.24,0,0,1,.91,1.5,4.92,4.92,0,0,1-.55,2.6c-1.57,3.83-5.27,29.13-6.36,33.13a7.6,7.6,0,0,0-.38,2.68c.25,2.36,2.58,3.1,4,4.63,2.61,2.83,1.88,8.17,1,12.67l-2.48,28c-.48,3.14-.45,5.45.14,6.17a1.91,1.91,0,0,1,0,1.86c-.17.34-.46.57-.65.89a3.14,3.14,0,0,0-.1,2.16l1,4.85"/><path class="cls-8" d="M109.54,114.34c-.1,2.63-.19,5.26-.3,7.89-.21,5.35-.18,10.73-.18,16.08,0,4.3,0,8.6.24,12.88a14.72,14.72,0,0,0,.12,1.49,8.53,8.53,0,0,0,1.83,3.56c.31.4.64.79,1,1.17a4.09,4.09,0,0,1,1.07,1.51,4.89,4.89,0,0,1-.58,2.68,19,19,0,0,0-.56,2.13c-.54,2.42-.92,4.86-1.38,7.3-.56,3.05-1.12,6.12-1.65,9.18q-.75,4.31-1.51,8.59c-.33,1.83-.63,3.68-1.08,5.48s-.87,3.47.28,5c1,1.38,2.72,2.06,3.71,3.47a9.24,9.24,0,0,1,1.22,5.65,61.44,61.44,0,0,1-.87,6.19c-.41,3.17-.61,6.38-.89,9.56l-1.36,15c-.1,1.13-.18,2.26-.3,3.38a22.89,22.89,0,0,0-.3,4.82,4.34,4.34,0,0,0,.51,1.73c.56,1.06-.6,1.71-.87,2.65A7,7,0,0,0,108,255c.26,1.26.58,2.5.88,3.75.19.75,1.28.42,1.15-.32-.24-1.31-.46-2.63-.74-3.93a15.14,15.14,0,0,1-.32-1.63,2.12,2.12,0,0,1,.61-1.56,2.69,2.69,0,0,0,.25-2.68,3.34,3.34,0,0,1-.46-1.61,39.57,39.57,0,0,1,.42-5.65l1.17-13.44q.56-6.3,1.07-12.61a6.56,6.56,0,0,1,.12-1,31.43,31.43,0,0,0,.72-6.34,10.19,10.19,0,0,0-1.24-5.4c-.92-1.51-2.51-2.22-3.7-3.46-1.37-1.42-.86-3.13-.46-4.85.18-.77.32-1.54.47-2.32.46-2.51.88-5,1.3-7.55,1-5.9,1.88-11.82,3.15-17.67a32.59,32.59,0,0,1,1.33-5.07,5,5,0,0,0,.58-2.89,6.22,6.22,0,0,0-1.71-2.51,11.18,11.18,0,0,1-1.86-3,5.3,5.3,0,0,1-.23-.67c0-.12,0-.12,0-.08a35.81,35.81,0,0,1-.17-3.73c0-2.22-.07-4.44-.1-6.65Q110,134,110,125.79c0-3.63-.2-7.26-.31-10.89,0-.18,0-.37,0-.56s-.09,0-.09,0Z"/><polygon class="cls-10" points="394.59 259.72 470.13 259.72 434.27 14.95 374.71 0 394.59 259.72"/><path class="cls-11" d="M428,259.75c14-.47,28.14,0,42.18,0L434.27,14.94h-3a7.76,7.76,0,0,1-3.07,3.37,2.93,2.93,0,0,0-1,.65,3.68,3.68,0,0,0-.61,1.22,21.88,21.88,0,0,1-3,5.58l-.44.16c-2-.18-3.59,1.29-4.71,3s-1.91,3.79-3.14,5.41c-.64.85-1.4,1.57-2,2.47-2,3-3.3,6.94-4.75,10.44,1.91.32,3,3,3.78,5.17,2.68,8.17,16.53,37.69,19.2,45.86-1.17,3.14-4.34,5.56-3.35,9.13a9.19,9.19,0,0,0,1,2.18c2,3.46,6.3,28.26,8.28,31.72-1.44.75-1.9,3.22-.93,5l-2.75-.67a10.1,10.1,0,0,0,1,3.31c-2.07-.14-3.16,2.42-3.84,4.64l-2.52,8.2c-.26.84,1.84,23.06,2,24a7,7,0,0,0,1.25,2.79,96,96,0,0,0,9.08,11.85c-5,6,.87,40.26-4.93,45.1l-3-.47c1.33,2.37,0,5.19-1.39,7C429.55,254.45,429.06,256.81,428,259.75Z"/><path class="cls-4" d="M439.16,78.12c.3,3.6,28.3,178,28.6,181.6h2.37L434.27,14.94H431.6C434.41,28.8,438,64.17,439.16,78.12Z"/><polygon class="cls-12" points="331.5 13.74 350.08 261.72 394.59 259.72 374.71 0 331.5 13.74"/><g class="cls-6"><path class="cls-7" d="M394.59,259.72a5.41,5.41,0,0,1-.21-1.07c-.11-.7-.25-1.73-.43-3.07-.35-2.66-17.46-238.51-19.47-253.45,1.86,0,.52,0,.94,0V2.3l0,.17,0,.34.07.68.15,1.35.3,2.68q.28,2.65.57,5.22c.37,3.43,2.14,19.54,2.48,22.69.66,6.3,15,217.49,15.25,220.15.12,1.34.21,2.37.26,3.07a5.11,5.11,0,0,1,0,1.07,5.41,5.41,0,0,1-.21-1.07c-.11-.7-.25-1.73-.43-3.07-.35-2.66-15-213.85-15.75-220.15-.36-3.15-2.15-19.26-2.53-22.69-.2-1.71-.39-3.45-.59-5.22l-.3-2.68-.14-1.35-.08-.68,0-.34,0-.17V2.16c.41,0-.93,0,.93,0,1.6,14.54,18.66,250.79,18.89,253.45.12,1.34.21,2.37.26,3.07A5.11,5.11,0,0,1,394.59,259.72Z"/></g><path class="cls-8" d="M431.69,14.45c-1.61,5.58-3.41,11.1-5.51,16.38a16.37,16.37,0,0,1-2,3.94c-.09.13-.26-.06-.18-.19A49.2,49.2,0,0,0,427.23,27c1-2.64,1.92-5.32,2.77-8q.74-2.34,1.41-4.71c.06-.21.34,0,.28.19Z"/><path class="cls-8" d="M423.45,36.87s0,0,0,0,0,0,0,0Z"/><path class="cls-8" d="M396.4,45.52s0-.07,0-.07,0,.07,0,.07Z"/><path class="cls-8" d="M401.09,59.37c1.1-1.53,2.16-3.11,3.21-4.7.51-.77,1-1.54,1.47-2.33s1-1.62,1.48-2.48c.91-1.69,1.77-3.45,2.56-5.24s1.51-3.7,2.25-5.56a13.22,13.22,0,0,1,1.21-2.51c.53-.79,1.19-1.45,1.78-2.18a37.72,37.72,0,0,0,2.84-4.88A7.85,7.85,0,0,1,421.28,26a4,4,0,0,1,1.08-.31,4.64,4.64,0,0,0,.92-.07c.08,0,.21,0,.27-.1a3.27,3.27,0,0,0,.28-.41c.3-.41.58-.83.86-1.27A20.76,20.76,0,0,0,426.15,21c.39-.93.62-2,1.42-2.55.37-.25.78-.43,1.14-.69a7.06,7.06,0,0,0,1.05-.92,8.45,8.45,0,0,0,1.62-2.48c.08-.19.35,0,.27.18a8,8,0,0,1-3.07,3.78,8.71,8.71,0,0,0-1,.58,2.74,2.74,0,0,0-.77,1.31,23.07,23.07,0,0,1-1.17,2.63,22,22,0,0,1-1.4,2.41,2.08,2.08,0,0,1-.59.74,1.36,1.36,0,0,1-.66.15c-1.69-.06-3.06,1.13-4.07,2.51s-1.81,3.29-2.78,4.87-2.5,2.84-3.35,4.69c-.41.88-.69,1.82-1.05,2.73s-.74,1.85-1.13,2.76c-.76,1.75-1.59,3.46-2.47,5.11-1,1.9-2.05,3.77-3.2,5.54a44,44,0,0,1-3.84,5.06s-.05,0,0,0Z"/><path class="cls-13" d="M434.69,259.42l5-5.48c-4.84-9.2-9.74-41.21-9.52-51.38-5.05-5.88-10.32-11.93-16.69-15a3.36,3.36,0,0,1-1.53-1.17,3.94,3.94,0,0,1-.38-1.77c-.1-1.78-2.55-24.91-2.65-26.69-3.73-.87-7.05-5.23-7.38-9.72-.4,4.13-.76,6.44-3.27,9.24a3.16,3.16,0,0,0-.91,1.5,4.83,4.83,0,0,0,.55,2.6c1.57,3.83,5.26,29.13,6.36,33.13a7.6,7.6,0,0,1,.38,2.68c-.26,2.36-2.58,3.1-4,4.63-2.61,2.83-1.87,8.17-1,12.67l2.49,28c.48,3.14.45,5.45-.14,6.17a1.91,1.91,0,0,0,0,1.86c.16.34.46.57.64.89a3,3,0,0,1,.1,2.16l-1,4.85"/><path class="cls-8" d="M401.49,114.34q-.11,3.94-.25,7.89c-.2,5.33-.18,10.68-.24,16-.06,4.3,0,8.62-.24,12.92a13.18,13.18,0,0,1-.1,1.4c0-.16,0,0,0,.06a5.54,5.54,0,0,1-.27.78,11.63,11.63,0,0,1-2,3,5.34,5.34,0,0,0-1.57,2.44,5.5,5.5,0,0,0,.61,2.83,15.87,15.87,0,0,1,.61,2c1.37,5.33,2.2,10.79,3.1,16.2.81,4.8,1.43,9.68,2.54,14.42a13.64,13.64,0,0,1,.46,2.18,3.33,3.33,0,0,1-1.06,2.74c-1.23,1.2-2.78,1.94-3.67,3.49-2,3.53-1,8-.38,11.8.15.92.17,1.87.25,2.79q.27,3.33.55,6.64l1.32,15.09c.1,1.17.18,2.34.3,3.5a25.4,25.4,0,0,1,.31,4.61,4.37,4.37,0,0,1-.52,1.6,2.7,2.7,0,0,0,.38,2.61,1.94,1.94,0,0,1,.54,1.47,13,13,0,0,1-.34,1.76c-.27,1.26-.48,2.53-.71,3.8-.13.74,1,1.07,1.14.32.32-1.29.65-2.58.92-3.89a6.26,6.26,0,0,0,.22-3.15c-.32-1-1.37-1.51-.78-2.61a4.65,4.65,0,0,0,.47-1.75,32,32,0,0,0-.41-5.86l-1.2-13.35q-.58-6.37-1.18-12.74c-.23-2.37-.88-4.67-.95-7.07a9.13,9.13,0,0,1,1.28-5.61c1-1.4,2.72-2.07,3.71-3.47,1.1-1.55.65-3.29.22-5-.18-.73-.32-1.47-.47-2.21-.48-2.45-.9-4.92-1.33-7.38-1-5.92-2.06-11.84-3.17-17.75a35,35,0,0,0-1.22-5.34c-.32-.9-.89-1.95-.46-2.91a14.47,14.47,0,0,1,2-2.51,8.35,8.35,0,0,0,1.77-3.48,32.62,32.62,0,0,0,.22-3.82c.07-2.21.11-4.43.12-6.64,0-5.45,0-10.9-.09-16.35-.05-3.65-.22-7.3-.35-11l0-.56a0,0,0,0,0-.08,0Z"/><polygon class="cls-14" points="161.76 262.85 253.44 264.2 259.99 17.24 177.75 14.97 161.76 262.85"/><path class="cls-15" d="M187.36,15.19c7.17,8.29,16.2,18.71,17.23,20A12.25,12.25,0,0,0,206.28,37c2.34,1.92,5.25,1.16,7.92.36V34.79c2.62.09,5.23.19,7.85.3,3.5.13,7.34.47,9.81,4.25,3.85-3,7-8.08,8.83-14.12,4.68.4,9.17-3.24,13.08-7.38l.72-.76Z"/><path class="cls-16" d="M203.93,264.44c17-.19,34.18-.88,51.28-.23l4.78-247-3.18-.09A11.37,11.37,0,0,1,253,21.66a4.14,4.14,0,0,0-1.12.87,6.29,6.29,0,0,0-.83,1.66A37.18,37.18,0,0,1,247,31.82l-.5.21c-2.09-.3-4.07,1.68-5.56,4s-2.67,5.25-4.27,7.48c-.83,1.18-1.78,2.16-2.57,3.42-2.68,4.26-4.76,9.76-6.95,14.72,2,.51,2.84,4.35,3.25,7.58q2.31,18,4.69,36.47c-1.86,4.7-5.84,8.26-5.36,13.73a16.39,16.39,0,0,0,.75,3.37l4.9,16.26c-1.77,1.12-2.73,5-1.94,7.77l-3-1.16a19.76,19.76,0,0,0,.52,5.25c-2.34-.29-4.07,3.71-5.26,7.21l-4.44,13a14.47,14.47,0,0,0-1,4.26,12.88,12.88,0,0,0,.93,4.57,150.38,150.38,0,0,0,8.39,19.87c-7,9.8-5.32,31.86-13.21,39.94l-3.46-.93c1.11,4.16-1,9-3.11,12.11C207,255.16,205.89,259.3,203.93,264.44Z"/><g class="cls-6"><path class="cls-7" d="M163.53,262.85a11.4,11.4,0,0,1,0-1.9c.05-1.24-1.63-3.06-1.51-5.41.23-4.68,13.36-181.38,13.77-188.29C176.58,53.57,177.72,35,179,15c2,.06.55,0,1,0v.21l0,.23,0,.46-.06.93-.12,1.85-.23,3.67q-.24,3.66-.48,7.22c-.31,4.76-.62,9.39-.91,13.81-.62,8.91-1.17,17-1.65,23.88s-13.68,183.61-14.05,188.29c-.18,2.34-.34,4.17-.45,5.4s1.56,1.89,1.52,1.89a14.24,14.24,0,0,1,0-1.89c.05-1.25-1.63-3.07-1.52-5.42.24-4.68,13.37-181.38,13.77-188.29s.91-15,1.44-23.89c.28-4.42.57-9,.87-13.81q.22-3.56.46-7.22l.24-3.67.11-1.85.06-.93,0-.46,0-.23V15c.44,0-1,0,1,0C178.72,35,177.48,53.6,176.5,67.27c-.49,6.91-13.68,183.61-14.05,188.29-.18,2.34-.34,4.17-.45,5.4S163.56,262.85,163.53,262.85Z"/></g><path class="cls-8" d="M257.31,16.48c-2.56,7.61-5.32,15.19-8.4,22.5a29,29,0,0,1-2.76,5.48c-.12.17-.28-.1-.17-.29a85.55,85.55,0,0,0,4.66-10.5c1.47-3.64,2.87-7.31,4.19-11,.75-2.13,1.49-4.26,2.2-6.41.09-.29.37,0,.28.26Z"/><path class="cls-8" d="M245,47.38s0,0,0,0,0,0,0,0Z"/><path class="cls-8" d="M216.7,79c1.5-2.19,3-4.47,4.39-6.74.69-1.09,1.37-2.2,2-3.33s1.4-2.31,2.06-3.53c1.3-2.41,2.53-4.9,3.71-7.45s2.28-5.22,3.39-7.84a23.78,23.78,0,0,1,1.74-3.5c.71-1.11,1.53-2,2.29-3a67.51,67.51,0,0,0,3.87-6.75,11.49,11.49,0,0,1,4.2-4.73,4.16,4.16,0,0,1,1.22-.4,3.35,3.35,0,0,0,1-.07c.08,0,.23-.05.3-.13s.26-.41.37-.56c.38-.56.75-1.14,1.11-1.73a35.05,35.05,0,0,0,2-3.91c.56-1.27,1-2.77,1.9-3.47.44-.33.9-.57,1.33-.92a9.61,9.61,0,0,0,1.26-1.22,13.94,13.94,0,0,0,2.1-3.35c.11-.26.38,0,.26.25a12.19,12.19,0,0,1-3.85,5.09c-.37.27-.78.46-1.14.77a4.84,4.84,0,0,0-1,1.79c-.5,1.24-1.05,2.44-1.65,3.59s-1.2,2.26-1.88,3.3c-.21.33-.46.84-.75,1a1.14,1.14,0,0,1-.73.18c-1.81-.13-3.48,1.49-4.79,3.38s-2.48,4.55-3.79,6.74-3.18,3.92-4.41,6.51c-.59,1.22-1.06,2.55-1.59,3.83s-1.12,2.62-1.71,3.9c-1.13,2.48-2.33,4.9-3.58,7.25-1.44,2.7-2.91,5.37-4.49,7.9a76,76,0,0,1-5.14,7.24s0,0,0-.06Z"/><path class="cls-17" d="M212.17,264.16l7.11-9.43a143.09,143.09,0,0,1-2.61-51.66c-4.77-10-9.71-20.11-16.48-25.43a3.7,3.7,0,0,1-1.52-1.95,8.13,8.13,0,0,1-.08-2.88l.77-8.59c-4.12-1.54-7-8.62-6.45-15.72-1.33,6.5-2.22,10.16-5.71,14.52a6.4,6.4,0,0,0-1.38,2.37,10.21,10.21,0,0,0,.06,4.19c1,6.26,1.68,12.72,2.08,19.32a17.11,17.11,0,0,1-.15,4.41c-.81,3.89-3.7,5-5.69,7.51-3.7,4.6-4.06,13.58-4,21.23l-1.4,11.4c-.16,5.44-.74,9.43-1.61,10.64a4.75,4.75,0,0,0-.46,3.24c.12.6.41,1,.56,1.59a7.71,7.71,0,0,1-.39,3.77c-.79,2.82-3.35,5.64-4.15,8.48"/><path class="cls-8" d="M191.9,146.51a13.37,13.37,0,0,1-.12,7.1,19.6,19.6,0,0,1-2.94,6.42c-.65.93-1.36,1.81-2.07,2.69a7,7,0,0,0-1.52,2.74,9.58,9.58,0,0,0,0,3.62c.19,1.3.42,2.6.61,3.91.78,5.39,1.36,10.82,1.75,16.25.17,2.38.1,4.79-1.34,6.8a37.57,37.57,0,0,1-3.79,3.78c-2.67,2.77-3.66,6.75-4.21,10.45a60.88,60.88,0,0,0-.61,6.75c-.05,1.15-.08,2.29-.09,3.44,0,.57,0,1.15,0,1.71-.41,4.21-1.32,8.38-1.52,12.59a44.61,44.61,0,0,1-.64,6.43,10.65,10.65,0,0,1-.54,2A11.28,11.28,0,0,0,174,245a5.45,5.45,0,0,0,.15,3.15,4.89,4.89,0,0,1,.45,1.6,6.8,6.8,0,0,1-.23,1.85c-.55,2.34-1.86,4.24-3,6.3a12.54,12.54,0,0,0-1.3,3.14.59.59,0,0,0,1.14.31c.76-2.24,2.28-4.17,3.34-6.27,1-1.91,1.93-4.6,1.13-6.71a4.88,4.88,0,0,1-.36-3.19c.16-.6.58-1.11.79-1.7a19.91,19.91,0,0,0,.91-5c.18-1.74.14-3.51.33-5.24.09-.87.2-1.73.3-2.59l.87-7.59a20.57,20.57,0,0,0,.1-2.61c0-2.3,0-4.6.2-6.9.29-4,.86-8.51,3.19-11.93a32,32,0,0,1,3.72-3.82,8.87,8.87,0,0,0,2.53-5.09,41.54,41.54,0,0,0-.14-8c-.17-2.68-.43-5.36-.74-8s-.66-5.23-1-7.84a7.27,7.27,0,0,1,.19-3.9,13.9,13.9,0,0,1,1.88-2.7c2.76-3.72,4.67-8,4.26-12.74a10.71,10.71,0,0,0-.69-3.06,0,0,0,0,0-.08,0Z"/><g class="cls-18"><polygon class="cls-19" points="161.76 261.81 253.44 263.16 259.99 16.19 177.75 13.92 161.76 261.81"/><path class="cls-15" d="M187.36,15.19c7.17,8.29,16.2,18.71,17.23,20A12.25,12.25,0,0,0,206.28,37c2.34,1.92,5.25,1.16,7.92.36V34.79c2.62.09,5.23.19,7.85.3,3.5.13,7.34.47,9.81,4.25,3.85-3,7-8.08,8.83-14.12,4.68.4,9.17-3.24,13.08-7.38l.72-.76Z"/><path class="cls-16" d="M203.93,264.44c17-.19,34.18-.88,51.28-.23l4.78-247-3.18-.09A11.37,11.37,0,0,1,253,21.66a4.14,4.14,0,0,0-1.12.87,6.29,6.29,0,0,0-.83,1.66A37.18,37.18,0,0,1,247,31.82l-.5.21c-2.09-.3-4.07,1.68-5.56,4s-2.67,5.25-4.27,7.48c-.83,1.18-1.78,2.16-2.57,3.42-2.68,4.26-4.76,9.76-6.95,14.72,2,.51,2.84,4.35,3.25,7.58q2.31,18,4.69,36.47c-1.86,4.7-5.84,8.26-5.36,13.73a16.39,16.39,0,0,0,.75,3.37l4.9,16.26c-1.77,1.12-2.73,5-1.94,7.77l-3-1.16a19.76,19.76,0,0,0,.52,5.25c-2.34-.29-4.07,3.71-5.26,7.21l-4.44,13a14.47,14.47,0,0,0-1,4.26,12.88,12.88,0,0,0,.93,4.57,150.38,150.38,0,0,0,8.39,19.87c-7,9.8-5.32,31.86-13.21,39.94l-3.46-.93c1.11,4.16-1,9-3.11,12.11C207,255.16,205.89,259.3,203.93,264.44Z"/><path class="cls-8" d="M257.31,16.48c-2.56,7.61-5.32,15.19-8.4,22.5a29,29,0,0,1-2.76,5.48c-.12.17-.28-.1-.17-.29a85.55,85.55,0,0,0,4.66-10.5c1.47-3.64,2.87-7.31,4.19-11,.75-2.13,1.49-4.26,2.2-6.41.09-.29.37,0,.28.26Z"/><path class="cls-8" d="M245,47.38s0,0,0,0,0,0,0,0Z"/><path class="cls-8" d="M216.7,79c1.5-2.19,3-4.47,4.39-6.74.69-1.09,1.37-2.2,2-3.33s1.4-2.31,2.06-3.53c1.3-2.41,2.53-4.9,3.71-7.45s2.28-5.22,3.39-7.84a23.78,23.78,0,0,1,1.74-3.5c.71-1.11,1.53-2,2.29-3a67.51,67.51,0,0,0,3.87-6.75,11.49,11.49,0,0,1,4.2-4.73,4.16,4.16,0,0,1,1.22-.4,3.35,3.35,0,0,0,1-.07c.08,0,.23-.05.3-.13s.26-.41.37-.56c.38-.56.75-1.14,1.11-1.73a35.05,35.05,0,0,0,2-3.91c.56-1.27,1-2.77,1.9-3.47.44-.33.9-.57,1.33-.92a9.61,9.61,0,0,0,1.26-1.22,13.94,13.94,0,0,0,2.1-3.35c.11-.26.38,0,.26.25a12.19,12.19,0,0,1-3.85,5.09c-.37.27-.78.46-1.14.77a4.84,4.84,0,0,0-1,1.79c-.5,1.24-1.05,2.44-1.65,3.59s-1.2,2.26-1.88,3.3c-.21.33-.46.84-.75,1a1.14,1.14,0,0,1-.73.18c-1.81-.13-3.48,1.49-4.79,3.38s-2.48,4.55-3.79,6.74-3.18,3.92-4.41,6.51c-.59,1.22-1.06,2.55-1.59,3.83s-1.12,2.62-1.71,3.9c-1.13,2.48-2.33,4.9-3.58,7.25-1.44,2.7-2.91,5.37-4.49,7.9a76,76,0,0,1-5.14,7.24s0,0,0-.06Z"/><path class="cls-17" d="M212.17,264.16l7.11-9.43a143.09,143.09,0,0,1-2.61-51.66c-4.77-10-9.71-20.11-16.48-25.43a3.7,3.7,0,0,1-1.52-1.95,8.13,8.13,0,0,1-.08-2.88l.77-8.59c-4.12-1.54-7-8.62-6.45-15.72-1.33,6.5-2.22,10.16-5.71,14.52a6.4,6.4,0,0,0-1.38,2.37,10.21,10.21,0,0,0,.06,4.19c1,6.26,1.68,12.72,2.08,19.32a17.11,17.11,0,0,1-.15,4.41c-.81,3.89-3.7,5-5.69,7.51-3.7,4.6-4.06,13.58-4,21.23l-1.4,11.4c-.16,5.44-.74,9.43-1.61,10.64a4.75,4.75,0,0,0-.46,3.24c.12.6.41,1,.56,1.59a7.71,7.71,0,0,1-.39,3.77c-.79,2.82-3.35,5.64-4.15,8.48"/><path class="cls-8" d="M191.9,146.51a13.37,13.37,0,0,1-.12,7.1,19.6,19.6,0,0,1-2.94,6.42c-.65.93-1.36,1.81-2.07,2.69a7,7,0,0,0-1.52,2.74,9.58,9.58,0,0,0,0,3.62c.19,1.3.42,2.6.61,3.91.78,5.39,1.36,10.82,1.75,16.25.17,2.38.1,4.79-1.34,6.8a37.57,37.57,0,0,1-3.79,3.78c-2.67,2.77-3.66,6.75-4.21,10.45a60.88,60.88,0,0,0-.61,6.75c-.05,1.15-.08,2.29-.09,3.44,0,.57,0,1.15,0,1.71-.41,4.21-1.32,8.38-1.52,12.59a44.61,44.61,0,0,1-.64,6.43,10.65,10.65,0,0,1-.54,2A11.28,11.28,0,0,0,174,245a5.45,5.45,0,0,0,.15,3.15,4.89,4.89,0,0,1,.45,1.6,6.8,6.8,0,0,1-.23,1.85c-.55,2.34-1.86,4.24-3,6.3a12.54,12.54,0,0,0-1.3,3.14.59.59,0,0,0,1.14.31c.76-2.24,2.28-4.17,3.34-6.27,1-1.91,1.93-4.6,1.13-6.71a4.88,4.88,0,0,1-.36-3.19c.16-.6.58-1.11.79-1.7a19.91,19.91,0,0,0,.91-5c.18-1.74.14-3.51.33-5.24.09-.87.2-1.73.3-2.59l.87-7.59a20.57,20.57,0,0,0,.1-2.61c0-2.3,0-4.6.2-6.9.29-4,.86-8.51,3.19-11.93a32,32,0,0,1,3.72-3.82,8.87,8.87,0,0,0,2.53-5.09,41.54,41.54,0,0,0-.14-8c-.17-2.68-.43-5.36-.74-8s-.66-5.23-1-7.84a7.27,7.27,0,0,1,.19-3.9,13.9,13.9,0,0,1,1.88-2.7c2.76-3.72,4.67-8,4.26-12.74a10.71,10.71,0,0,0-.69-3.06,0,0,0,0,0-.08,0Z"/></g><polygon class="cls-20" points="351.63 262.85 254.66 264.2 255.16 17.24 335.63 14.97 351.63 262.85"/><polygon class="cls-21" points="351.63 262.85 254.66 264.2 255.16 17.24 335.63 14.97 351.63 262.85"/><path class="cls-22" d="M327.79,15.19c-7.17,8.29-16.2,18.71-17.23,20A12.25,12.25,0,0,1,308.87,37c-2.34,1.92-5.24,1.16-7.92.36V34.79c-2.62.09-5.23.19-7.85.3-3.5.13-7.34.47-9.81,4.25-3.85-3-7-8.08-8.83-14.12-4.68.4-9.17-3.24-13.08-7.38-.24-.25-.48-.5-.71-.76Z"/><g class="cls-6"><path class="cls-7" d="M351.62,262.85a11.4,11.4,0,0,0,0-1.9c-.05-1.24-.13-3.06-.25-5.41-.23-4.68-11.6-181.38-12-188.29-.8-13.68-1.94-32.24-3.24-52.29-2,.06-.55,0-1,0v.21l0,.23,0,.46.06.93.12,1.85.23,3.67q.24,3.66.48,7.22c.31,4.76.62,9.39.91,13.81.62,8.91,1.17,17,1.65,23.88s11.92,183.61,12.29,188.29c.18,2.34.33,4.17.45,5.4a12,12,0,0,0,.24,1.89,14.24,14.24,0,0,0,0-1.89c-.05-1.25-.13-3.07-.25-5.42-.23-4.68-11.6-181.38-12-188.29s-.91-15-1.44-23.89c-.28-4.42-.57-9-.87-13.81q-.22-3.56-.46-7.22l-.23-3.67-.12-1.85-.06-.93,0-.46,0-.23V15c-.44,0,1,0-1,0,1.29,20.06,2.54,38.62,3.51,52.29.49,6.91,11.92,183.61,12.29,188.29.18,2.34.33,4.17.45,5.4A15.22,15.22,0,0,0,351.62,262.85Z"/></g><path class="cls-8" d="M257.85,16.48c2.55,7.61,5.31,15.19,8.39,22.5A29,29,0,0,0,269,44.46c.12.17.28-.1.17-.29a85.55,85.55,0,0,1-4.66-10.5c-1.47-3.64-2.87-7.31-4.19-11-.75-2.13-1.48-4.26-2.2-6.41-.09-.29-.37,0-.27.26Z"/><path class="cls-8" d="M270.13,47.38s0,0,0,0,0,0,0,0Z"/><path class="cls-8" d="M298.45,79c-1.5-2.19-2.95-4.47-4.39-6.74-.69-1.09-1.37-2.2-2-3.33s-1.4-2.31-2.06-3.53c-1.3-2.41-2.53-4.9-3.71-7.45s-2.28-5.22-3.39-7.84a23.78,23.78,0,0,0-1.74-3.5c-.71-1.11-1.53-2-2.29-3A67.51,67.51,0,0,1,275,36.84a11.49,11.49,0,0,0-4.2-4.73,4.2,4.2,0,0,0-1.21-.4,3.4,3.4,0,0,1-1-.07c-.08,0-.22-.05-.3-.13a4.92,4.92,0,0,1-.36-.56c-.39-.56-.76-1.14-1.12-1.73a35.05,35.05,0,0,1-2-3.91c-.56-1.27-1-2.77-1.9-3.47-.44-.33-.9-.57-1.33-.92a9.61,9.61,0,0,1-1.26-1.22,13.94,13.94,0,0,1-2.1-3.35c-.11-.26-.38,0-.26.25a12.19,12.19,0,0,0,3.85,5.09c.38.27.78.46,1.14.77a4.84,4.84,0,0,1,1,1.79c.51,1.24,1,2.44,1.65,3.59s1.21,2.26,1.88,3.3c.22.33.46.84.75,1a1.16,1.16,0,0,0,.73.18c1.82-.13,3.48,1.49,4.79,3.38s2.48,4.55,3.79,6.74,3.18,3.92,4.41,6.51c.59,1.22,1.06,2.55,1.59,3.83s1.12,2.62,1.71,3.9c1.13,2.48,2.33,4.9,3.58,7.25,1.44,2.7,2.91,5.37,4.49,7.9a76,76,0,0,0,5.14,7.24s.05,0,0-.06Z"/><path class="cls-23" d="M303,264.16l-7.11-9.43a142.86,142.86,0,0,0,2.61-51.66c4.77-10,9.71-20.11,16.48-25.43a3.76,3.76,0,0,0,1.53-1.95,8.37,8.37,0,0,0,.07-2.88l-.77-8.59c4.12-1.54,7-8.62,6.45-15.72,1.33,6.5,2.23,10.16,5.72,14.52a6.52,6.52,0,0,1,1.37,2.37,10.21,10.21,0,0,1-.06,4.19c-1,6.26-1.68,12.72-2.08,19.32a17.11,17.11,0,0,0,.15,4.41c.81,3.89,3.7,5,5.69,7.51,3.71,4.6,4.06,13.58,4,21.23l1.4,11.4c.16,5.44.74,9.43,1.61,10.64a4.75,4.75,0,0,1,.46,3.24c-.12.6-.41,1-.56,1.59a7.71,7.71,0,0,0,.39,3.77l2.39,8.48"/><path class="cls-8" d="M323.17,146.49c-1.65,4.19-.51,9.1,1.64,12.89a29.44,29.44,0,0,0,1.87,2.83,17.19,17.19,0,0,1,1.84,2.57,6.41,6.41,0,0,1,.33,3.78c-.17,1.3-.38,2.6-.55,3.91-.71,5.25-1.21,10.52-1.46,15.82-.11,2.34-.23,4.77.77,7a12.67,12.67,0,0,0,3.33,4,13.36,13.36,0,0,1,3.22,4.2,22.34,22.34,0,0,1,1.66,5.72,54,54,0,0,1,.64,6.84q.06,1.68.06,3.36c0,.89-.06,1.81,0,2.71.11,1.93.45,3.88.67,5.81s.5,3.71.65,5.57c.18,2.23.19,4.44.49,6.66a11.6,11.6,0,0,0,1.05,4.1,4.16,4.16,0,0,1,.59,2.51,5,5,0,0,1-.45,1.52,4.21,4.21,0,0,0-.31,1.68,13.8,13.8,0,0,0,.71,3.65c.37,1.29.72,2.59,1.08,3.89s.77,2.58,1.19,3.86a.59.59,0,0,0,1.14-.31c-.64-2.66-1.41-5.28-2.15-7.91a9.86,9.86,0,0,1-.64-3.59,6.81,6.81,0,0,1,.52-1.58,5.45,5.45,0,0,0-.46-4.22,5.41,5.41,0,0,1-.57-1.46,31,31,0,0,1-.77-5.59c-.09-1.26-.08-2.54-.24-3.8-.13-1-.26-2.07-.4-3.1l-.93-7.12c-.14-1.12-.08-2.26-.11-3.38,0-2.27-.15-4.55-.39-6.8-.41-3.82-1.1-8-3.34-11.23a24.93,24.93,0,0,0-3.55-3.64,8.41,8.41,0,0,1-2.76-5.19,21.27,21.27,0,0,1,.08-4c.11-1.34.23-2.67.36-4,.26-2.68.53-5.35.87-8s.79-5.11,1.12-7.67a6.6,6.6,0,0,0-1.76-6.21,27,27,0,0,1-3.75-5.72,18,18,0,0,1-1.63-6.92,10.86,10.86,0,0,1,.43-3.35,0,0,0,0,0-.08,0Z"/><g class="cls-18"><path class="cls-22" d="M327.79,15.19c-7.17,8.29-16.2,18.71-17.23,20A12.25,12.25,0,0,1,308.87,37c-2.34,1.92-5.24,1.16-7.92.36V34.79c-2.62.09-5.23.19-7.85.3-3.5.13-7.34.47-9.81,4.25-3.85-3-7-8.08-8.83-14.12-4.68.4-9.17-3.24-13.08-7.38-.24-.25-.48-.5-.71-.76Z"/><path class="cls-8" d="M257.85,16.48c2.55,7.61,5.31,15.19,8.39,22.5A29,29,0,0,0,269,44.46c.12.17.28-.1.17-.29a85.55,85.55,0,0,1-4.66-10.5c-1.47-3.64-2.87-7.31-4.19-11-.75-2.13-1.48-4.26-2.2-6.41-.09-.29-.37,0-.27.26Z"/><path class="cls-8" d="M270.13,47.38s0,0,0,0,0,0,0,0Z"/><path class="cls-8" d="M298.45,79c-1.5-2.19-2.95-4.47-4.39-6.74-.69-1.09-1.37-2.2-2-3.33s-1.4-2.31-2.06-3.53c-1.3-2.41-2.53-4.9-3.71-7.45s-2.28-5.22-3.39-7.84a23.78,23.78,0,0,0-1.74-3.5c-.71-1.11-1.53-2-2.29-3A67.51,67.51,0,0,1,275,36.84a11.49,11.49,0,0,0-4.2-4.73,4.2,4.2,0,0,0-1.21-.4,3.4,3.4,0,0,1-1-.07c-.08,0-.22-.05-.3-.13a4.92,4.92,0,0,1-.36-.56c-.39-.56-.76-1.14-1.12-1.73a35.05,35.05,0,0,1-2-3.91c-.56-1.27-1-2.77-1.9-3.47-.44-.33-.9-.57-1.33-.92a9.61,9.61,0,0,1-1.26-1.22,13.94,13.94,0,0,1-2.1-3.35c-.11-.26-.38,0-.26.25a12.19,12.19,0,0,0,3.85,5.09c.38.27.78.46,1.14.77a4.84,4.84,0,0,1,1,1.79c.51,1.24,1,2.44,1.65,3.59s1.21,2.26,1.88,3.3c.22.33.46.84.75,1a1.16,1.16,0,0,0,.73.18c1.82-.13,3.48,1.49,4.79,3.38s2.48,4.55,3.79,6.74,3.18,3.92,4.41,6.51c.59,1.22,1.06,2.55,1.59,3.83s1.12,2.62,1.71,3.9c1.13,2.48,2.33,4.9,3.58,7.25,1.44,2.7,2.91,5.37,4.49,7.9a76,76,0,0,0,5.14,7.24s.05,0,0-.06Z"/><path class="cls-23" d="M303,264.16l-7.11-9.43a142.86,142.86,0,0,0,2.61-51.66c4.77-10,9.71-20.11,16.48-25.43a3.76,3.76,0,0,0,1.53-1.95,8.37,8.37,0,0,0,.07-2.88l-.77-8.59c4.12-1.54,7-8.62,6.45-15.72,1.33,6.5,2.23,10.16,5.72,14.52a6.52,6.52,0,0,1,1.37,2.37,10.21,10.21,0,0,1-.06,4.19c-1,6.26-1.68,12.72-2.08,19.32a17.11,17.11,0,0,0,.15,4.41c.81,3.89,3.7,5,5.69,7.51,3.71,4.6,4.06,13.58,4,21.23l1.4,11.4c.16,5.44.74,9.43,1.61,10.64a4.75,4.75,0,0,1,.46,3.24c-.12.6-.41,1-.56,1.59a7.71,7.71,0,0,0,.39,3.77l2.39,8.48"/><path class="cls-8" d="M331.46,100a14.91,14.91,0,0,0-.56,2.16c-.33,1.46-.63,2.92-.93,4.37-.93,4.45-1.68,8.92-2.43,13.4-1.62,9.7-3.08,19.44-4.07,29.22-.15,1.48-.3,3-.36,4.44a8,8,0,0,0,.1,2.34A16.69,16.69,0,0,0,326,161c1.23,1.71,3,3.24,3.19,5.47a14.6,14.6,0,0,1-.29,3.29c-.21,1.3-.41,2.6-.59,3.9q-.46,3.4-.82,6.82c-.25,2.48-.47,5-.64,7.46-.15,2.21-.37,4.52.41,6.65,1.13,3.13,4.19,4.59,5.94,7.26,2.05,3.15,2.65,7.16,3,10.83.18,2,.25,4,.27,6a34.76,34.76,0,0,0,.05,3.68c.45,3.68,1,7.37,1.34,11.06.29,3.34,0,7,1.29,10.18a14.05,14.05,0,0,1,.73,1.58,4.44,4.44,0,0,1-.25,2.85c-.85,2.09,0,4.27.55,6.32.65,2.33,1.32,4.64,2.05,6.94a.59.59,0,0,0,1.14-.31c-.61-2.45-1.28-4.87-2-7.29a19.91,19.91,0,0,1-.79-3.22,3.78,3.78,0,0,1,.12-1.64,9.89,9.89,0,0,0,.53-1.56,5.79,5.79,0,0,0-.11-2.45,11.9,11.9,0,0,0-.75-1.62,15.19,15.19,0,0,1-.88-4.22c-.28-2.45-.29-4.92-.59-7.37l-.87-7c-.1-.78-.22-1.57-.29-2.35-.14-1.35,0-2.74-.07-4.1a50.32,50.32,0,0,0-1.41-11.73,17.91,17.91,0,0,0-1.86-4.58,15.11,15.11,0,0,0-3.13-3.54,10.39,10.39,0,0,1-3.13-4c-.81-2.14-.56-4.5-.42-6.73q.46-7.35,1.45-14.66c.3-2.19.93-4.56.68-6.77-.22-2-1.65-3.38-2.78-5a18.54,18.54,0,0,1-3-5.53A2.79,2.79,0,0,1,324,155c0-1.14.11-2.29.21-3.42.85-9.29,2.37-18.54,3.73-27.76.7-4.76,1.49-9.51,2.11-14.28.38-2.93.75-5.89,1.32-8.79a5.8,5.8,0,0,1,.17-.72c0-.05-.06-.07-.08,0Z"/></g><path class="cls-24" d="M63.54,353.79l27.37-16.05a24.43,24.43,0,0,1,12.23-3.23l280.19-.68a73.68,73.68,0,0,1,28.18,5.46l33.92,14Z"/><path class="cls-25" d="M438.75,349.57s5.31,2.49,5.24,4.89-2.68,75.3-3.74,77.31-5.18,6.55-5.18,6.55l-355.5,2.61L64.74,440l-1.2-86.19s8.61-5.72,14.41-5.65,347.93-1.62,347.93-1.62Z"/><path class="cls-26" d="M444,354.46c-.08,2.4-2.69,75.3-3.75,77.31s-5.18,6.55-5.18,6.55l-7.74.29a33.29,33.29,0,0,1,.7-5.06c-3.56-1.32-5.1-4.52-3.32-6.79-4.38-1.58-7.6-50.93-12-52.54-6-2.22-12.69-5-14.13-9.29a10.18,10.18,0,0,1-.37-3,4,4,0,0,1,.49-2.52,3.44,3.44,0,0,1,3.11-1.22,8.92,8.92,0,0,0,2.26.35c.71-.1.72-.95.15-.95,11.72-1.24,23.91-7.68,36-7.23C441.8,351.29,444,352.89,444,354.46Z"/><path class="cls-27" d="M430.79,434.76c-.3,1.25-.6,2.5-.92,3.75l-9.6.35,5.05-7.92,1.46,2Z"/><path class="cls-28" d="M376.24,361.74a3.07,3.07,0,0,1,1.5,3.16c-.77-1.39-2.84-2.34-5-2.76a32,32,0,0,0-6.65-.32l-8.53.18a14.61,14.61,0,0,0-4.55.58c-1.36.49-2.33,1.58-1.79,2.55-1.65.05-15-3.77-16.39-4.33a6.79,6.79,0,0,0-2.19-.34c-4.63-.22-177.92-.43-182.51-.64a10.75,10.75,0,0,0-4.93.52,5.07,5.07,0,0,0-2.16,2.28c-1.05,1.78-2.11,3.64-1.84,5.57a18,18,0,0,1,.32-7.83,15.71,15.71,0,0,0-5,8.59l1.11-7c-5.11.07-9.89-2.21-15-1.94-2.58.14-30.93.23-33.08-.74-.78-.35-1.32-.88-2-1.26a6.34,6.34,0,0,0-5.77.23c-1.58,1.06-1.68,2.71-1.69,4.21,0,7.06-.27,62.44-.31,69.49a2.34,2.34,0,0,0,.91,2.23,6.26,6.26,0,0,0,2.88.57c13,.46,51.37,1.43,64.53,1.91a228,228,0,0,1-25.72-7c16.59,3.65-42.79,11.25-42.79,11.25L64.75,440l-1.2-86.19s8.6-5.72,14.4-5.65c3.6.05,262.75,3.56,302.78,4a33.9,33.9,0,0,0,5.18,17.67C380.77,368.85,380.74,363.63,376.24,361.74Z"/><path class="cls-29" d="M443.57,353.19c-6.74-.47-13.5-.69-20.22-.66-3.47,0-7.32,6.19-10,7.56A13.46,13.46,0,0,0,404,360c-2.77,1.09-4.39,3.27-4,5.41.46,2.61,3.53,4.76,6.64,6.53,3.38,1.93,5.87,51.49,9.67,53-10.47-3.32-20.18-54.09-31.12-56.51a32.59,32.59,0,0,0-3.74-9.85c-18.54,0-218.28-2.37-236.52-2.4a10.65,10.65,0,0,0-4.89.75c-1.65.92-1.75,2.56-1.71,4,.11,4.12-1.73,6.5-2.84,10.56a40.6,40.6,0,0,0,1.24-13.27q-3.72-.52-7.4-1.17a6.52,6.52,0,0,1-2.31-.7c-.64-.38-.93-1.08-.42-1.53-8.88-.78-43.44-1.4-52.26-.55a13.8,13.8,0,0,0-.42,4l-2.35,75.14s.47,6.45,10.17,7.46l-2.15.08L64.75,440l-1.21-86.19s8.61-5.72,14.41-5.65,347.93-1.62,347.93-1.62l12.87,3.05S442.34,351.25,443.57,353.19Z"/><path class="cls-30" d="M416.28,424.93c-1.11-.35-2.22-.7-3.35-1-3-.92-4.89-49.62-7.93-50.47-1.12-.33-2.26-.64-3.39-.94l-3.07-.82-7.92-16.08,19.28,3.68A13,13,0,0,0,404,360c-2.77,1.09-4.39,3.27-4,5.41.46,2.61,3.53,4.76,6.64,6.53C410,373.84,412.48,423.4,416.28,424.93Z"/><path class="cls-31" d="M445.43,353.33c-7.37-.57-14.75-.83-22.09-.8-3.46,0-7.31,6.2-10,7.56A13.49,13.49,0,0,0,404,360c-2.77,1.09-4.39,3.27-4,5.41.46,2.61,3.53,4.76,6.63,6.53,3.38,1.93,5.88,51.49,9.68,53-10.47-3.33-20.18-54.1-31.12-56.53a32.9,32.9,0,0,0-3.74-9.84c-18.54,0-218.28-2.37-236.53-2.4a10.62,10.62,0,0,0-4.88.75c-1.66.92-1.75,2.56-1.71,4,.11,4.11-1.93,9.56-3,13.63a60.92,60.92,0,0,0,1.43-16.33c-2.47-.36-4.94-.75-7.38-1.18a6.91,6.91,0,0,1-2.33-.7c-.63-.39-.92-1.08-.42-1.53-8.88-.77-43.43-1.4-52.25-.55a13.46,13.46,0,0,0-.42,4"/><path class="cls-32" d="M88.37,425.84,89,426c.41.1,1,.28,1.83.44l3,.51,4.13.57c6.22.77,15.26,1.6,26.43,2.43,22.35,1.67,53.26,3.31,87.41,4.51s65.09,1.75,87.48,2.18c11.19.2,20.25.38,26.51.56,3.13.09,5.56.2,7.21.28l2.5.18-2.49-.33c-1.64-.17-4.07-.41-7.19-.66-6.25-.51-15.29-1.11-26.48-1.75-22.36-1.28-53.27-2.7-87.42-3.89l-87.43-2.79c-11.19-.4-20.24-.81-26.48-1.26l-4.14-.34-3-.35C90,426.17,89.42,426,89,426Z"/><g class="cls-33"><path class="cls-25" d="M438.75,349.57s5.31,2.49,5.24,4.89-2.68,75.3-3.74,77.31-5.18,6.55-5.18,6.55l-355.5,2.61L64.74,440l-1.2-86.19s8.61-5.72,14.41-5.65,347.93-1.62,347.93-1.62Z"/><path class="cls-34" d="M438.75,349.57s5.31,2.49,5.24,4.89-2.68,75.3-3.74,77.31-5.18,6.55-5.18,6.55l-355.5,2.61L64.74,440l-1.2-86.19s8.61-5.72,14.41-5.65,347.93-1.62,347.93-1.62Z"/><path class="cls-26" d="M444,354.46c-.08,2.4-2.69,75.3-3.75,77.31s-5.18,6.55-5.18,6.55l-7.74.29a33.29,33.29,0,0,1,.7-5.06c-3.56-1.32-5.1-4.52-3.32-6.79-4.38-1.58-7.6-50.93-12-52.54-6-2.22-12.69-5-14.13-9.29a10.18,10.18,0,0,1-.37-3,4,4,0,0,1,.49-2.52,3.44,3.44,0,0,1,3.11-1.22,8.92,8.92,0,0,0,2.26.35c.71-.1.72-.95.15-.95,11.72-1.24,23.91-7.68,36-7.23C441.8,351.29,444,352.89,444,354.46Z"/><path class="cls-27" d="M430.79,434.76c-.3,1.25-.6,2.5-.92,3.75l-9.6.35,5.05-7.92,1.46,2Z"/><path class="cls-28" d="M376.24,361.74a3.07,3.07,0,0,1,1.5,3.16c-.77-1.39-2.84-2.34-5-2.76a32,32,0,0,0-6.65-.32l-8.53.18a14.61,14.61,0,0,0-4.55.58c-1.36.49-2.33,1.58-1.79,2.55-1.65.05-15-3.77-16.39-4.33a6.79,6.79,0,0,0-2.19-.34c-4.63-.22-177.92-.43-182.51-.64a10.75,10.75,0,0,0-4.93.52,5.07,5.07,0,0,0-2.16,2.28c-1.05,1.78-2.11,3.64-1.84,5.57a18,18,0,0,1,.32-7.83,15.71,15.71,0,0,0-5,8.59l1.11-7c-5.11.07-9.89-2.21-15-1.94-2.58.14-30.93.23-33.08-.74-.78-.35-1.32-.88-2-1.26a6.34,6.34,0,0,0-5.77.23c-1.58,1.06-1.68,2.71-1.69,4.21,0,7.06-.27,62.44-.31,69.49a2.34,2.34,0,0,0,.91,2.23,6.26,6.26,0,0,0,2.88.57c13,.46,51.37,1.43,64.53,1.91a228,228,0,0,1-25.72-7c16.59,3.65-42.79,11.25-42.79,11.25L64.75,440l-1.2-86.19s8.6-5.72,14.4-5.65c3.6.05,262.75,3.56,302.78,4a33.9,33.9,0,0,0,5.18,17.67C380.77,368.85,380.74,363.63,376.24,361.74Z"/><path class="cls-29" d="M443.57,353.19c-6.74-.47-13.5-.69-20.22-.66-3.47,0-7.32,6.19-10,7.56A13.46,13.46,0,0,0,404,360c-2.77,1.09-4.39,3.27-4,5.41.46,2.61,3.53,4.76,6.64,6.53,3.38,1.93,5.87,51.49,9.67,53-10.47-3.32-20.18-54.09-31.12-56.51a32.59,32.59,0,0,0-3.74-9.85c-18.54,0-218.28-2.37-236.52-2.4a10.65,10.65,0,0,0-4.89.75c-1.65.92-1.75,2.56-1.71,4,.11,4.12-1.73,6.5-2.84,10.56a40.6,40.6,0,0,0,1.24-13.27q-3.72-.52-7.4-1.17a6.52,6.52,0,0,1-2.31-.7c-.64-.38-.93-1.08-.42-1.53-8.88-.78-43.44-1.4-52.26-.55a13.8,13.8,0,0,0-.42,4l-2.35,75.14s.47,6.45,10.17,7.46l-2.15.08L64.75,440l-1.21-86.19s8.61-5.72,14.41-5.65,347.93-1.62,347.93-1.62l12.87,3.05S442.34,351.25,443.57,353.19Z"/><path class="cls-30" d="M416.28,424.93c-1.11-.35-2.22-.7-3.35-1-3-.92-4.89-49.62-7.93-50.47-1.12-.33-2.26-.64-3.39-.94l-3.07-.82-7.92-16.08,19.28,3.68A13,13,0,0,0,404,360c-2.77,1.09-4.39,3.27-4,5.41.46,2.61,3.53,4.76,6.64,6.53C410,373.84,412.48,423.4,416.28,424.93Z"/><path class="cls-31" d="M445.43,353.33c-7.37-.57-14.75-.83-22.09-.8-3.46,0-7.31,6.2-10,7.56A13.49,13.49,0,0,0,404,360c-2.77,1.09-4.39,3.27-4,5.41.46,2.61,3.53,4.76,6.63,6.53,3.38,1.93,5.88,51.49,9.68,53-10.47-3.33-20.18-54.1-31.12-56.53a32.9,32.9,0,0,0-3.74-9.84c-18.54,0-218.28-2.37-236.53-2.4a10.62,10.62,0,0,0-4.88.75c-1.66.92-1.75,2.56-1.71,4,.11,4.11-1.93,9.56-3,13.63a60.92,60.92,0,0,0,1.43-16.33c-2.47-.36-4.94-.75-7.38-1.18a6.91,6.91,0,0,1-2.33-.7c-.63-.39-.92-1.08-.42-1.53-8.88-.77-43.43-1.4-52.25-.55a13.46,13.46,0,0,0-.42,4"/></g><g class="cls-18"><path class="cls-24" d="M63.54,353.79l27.37-16.05a24.43,24.43,0,0,1,12.23-3.23l280.19-.68a73.68,73.68,0,0,1,28.18,5.46l33.92,14Z"/><path class="cls-26" d="M444,354.46c-.08,2.4-2.69,75.3-3.75,77.31s-5.18,6.55-5.18,6.55l-7.74.29a33.29,33.29,0,0,1,.7-5.06c-3.56-1.32-5.1-4.52-3.32-6.79-4.38-1.58-7.6-50.93-12-52.54-6-2.22-12.69-5-14.13-9.29a10.18,10.18,0,0,1-.37-3,4,4,0,0,1,.49-2.52,3.44,3.44,0,0,1,3.11-1.22,8.92,8.92,0,0,0,2.26.35c.71-.1.72-.95.15-.95,11.72-1.24,23.91-7.68,36-7.23C441.8,351.29,444,352.89,444,354.46Z"/><path class="cls-27" d="M430.79,434.76c-.3,1.25-.6,2.5-.92,3.75l-9.6.35,5.05-7.92,1.46,2Z"/><path class="cls-28" d="M376.24,361.74a3.07,3.07,0,0,1,1.5,3.16c-.77-1.39-2.84-2.34-5-2.76a32,32,0,0,0-6.65-.32l-8.53.18a14.61,14.61,0,0,0-4.55.58c-1.36.49-2.33,1.58-1.79,2.55-1.65.05-15-3.77-16.39-4.33a6.79,6.79,0,0,0-2.19-.34c-4.63-.22-177.92-.43-182.51-.64a10.75,10.75,0,0,0-4.93.52,5.07,5.07,0,0,0-2.16,2.28c-1.05,1.78-2.11,3.64-1.84,5.57a18,18,0,0,1,.32-7.83,15.71,15.71,0,0,0-5,8.59l1.11-7c-5.11.07-9.89-2.21-15-1.94-2.58.14-30.93.23-33.08-.74-.78-.35-1.32-.88-2-1.26a6.34,6.34,0,0,0-5.77.23c-1.58,1.06-1.68,2.71-1.69,4.21,0,7.06-.27,62.44-.31,69.49a2.34,2.34,0,0,0,.91,2.23,6.26,6.26,0,0,0,2.88.57c13,.46-4,6.2-4,6.2L64.75,440l-1.2-86.19s8.6-5.72,14.4-5.65c3.6.05,262.75,3.56,302.78,4a33.9,33.9,0,0,0,5.18,17.67C380.77,368.85,380.74,363.63,376.24,361.74Z"/><path class="cls-29" d="M443.57,353.19c-6.74-.47-13.5-.69-20.22-.66-3.47,0-7.32,6.19-10,7.56A13.46,13.46,0,0,0,404,360c-2.77,1.09-4.39,3.27-4,5.41.46,2.61,3.53,4.76,6.64,6.53,3.38,1.93,5.87,51.49,9.67,53-10.47-3.32-20.18-54.09-31.12-56.51a32.59,32.59,0,0,0-3.74-9.85c-18.54,0-218.28-2.37-236.52-2.4a10.65,10.65,0,0,0-4.89.75c-1.65.92-1.75,2.56-1.71,4,.11,4.12-1.73,6.5-2.84,10.56a40.6,40.6,0,0,0,1.24-13.27q-3.72-.52-7.4-1.17a6.52,6.52,0,0,1-2.31-.7c-.64-.38-.93-1.08-.42-1.53-8.88-.78-43.44-1.4-52.26-.55a13.8,13.8,0,0,0-.42,4l-2.35,75.14s.47,6.45,10.17,7.46l-2.15.08L64.75,440l-1.21-86.19s8.61-5.72,14.41-5.65,347.93-1.62,347.93-1.62l12.87,3.05S442.34,351.25,443.57,353.19Z"/><path class="cls-30" d="M416.28,424.93c-1.11-.35-2.22-.7-3.35-1-3-.92-4.89-49.62-7.93-50.47-1.12-.33-2.26-.64-3.39-.94l-3.07-.82-7.92-16.08,19.28,3.68A13,13,0,0,0,404,360c-2.77,1.09-4.39,3.27-4,5.41.46,2.61,3.53,4.76,6.64,6.53C410,373.84,412.48,423.4,416.28,424.93Z"/><path class="cls-31" d="M445.43,353.33c-7.37-.57-14.75-.83-22.09-.8-3.46,0-7.31,6.2-10,7.56A13.49,13.49,0,0,0,404,360c-2.77,1.09-4.39,3.27-4,5.41.46,2.61,3.53,4.76,6.63,6.53,3.38,1.93,5.88,51.49,9.68,53-10.47-3.33-20.18-54.1-31.12-56.53a32.9,32.9,0,0,0-3.74-9.84c-18.54,0-218.28-2.37-236.53-2.4a10.62,10.62,0,0,0-4.88.75c-1.66.92-1.75,2.56-1.71,4,.11,4.11-1.93,9.56-3,13.63a60.92,60.92,0,0,0,1.43-16.33c-2.47-.36-4.94-.75-7.38-1.18a6.91,6.91,0,0,1-2.33-.7c-.63-.39-.92-1.08-.42-1.53-8.88-.77-43.43-1.4-52.25-.55a13.46,13.46,0,0,0-.42,4"/><g class="cls-33"><path class="cls-26" d="M444,354.46c-.08,2.4-2.69,75.3-3.75,77.31s-5.18,6.55-5.18,6.55l-7.74.29a33.29,33.29,0,0,1,.7-5.06c-3.56-1.32-5.1-4.52-3.32-6.79-4.38-1.58-7.6-50.93-12-52.54-6-2.22-12.69-5-14.13-9.29a10.18,10.18,0,0,1-.37-3,4,4,0,0,1,.49-2.52,3.44,3.44,0,0,1,3.11-1.22,8.92,8.92,0,0,0,2.26.35c.71-.1.72-.95.15-.95,11.72-1.24,23.91-7.68,36-7.23C441.8,351.29,444,352.89,444,354.46Z"/><path class="cls-27" d="M430.79,434.76c-.3,1.25-.6,2.5-.92,3.75l-9.6.35,5.05-7.92,1.46,2Z"/><path class="cls-28" d="M376.24,361.74a3.07,3.07,0,0,1,1.5,3.16c-.77-1.39-2.84-2.34-5-2.76a32,32,0,0,0-6.65-.32l-8.53.18a14.61,14.61,0,0,0-4.55.58c-1.36.49-2.33,1.58-1.79,2.55-1.65.05-15-3.77-16.39-4.33a6.79,6.79,0,0,0-2.19-.34c-4.63-.22-177.92-.43-182.51-.64a10.75,10.75,0,0,0-4.93.52,5.07,5.07,0,0,0-2.16,2.28c-1.05,1.78-2.11,3.64-1.84,5.57a18,18,0,0,1,.32-7.83,15.71,15.71,0,0,0-5,8.59l1.11-7c-5.11.07-9.89-2.21-15-1.94-2.58.14-30.93.23-33.08-.74-.78-.35-1.32-.88-2-1.26a6.34,6.34,0,0,0-5.77.23c-1.58,1.06-1.68,2.71-1.69,4.21,0,7.06-.27,62.44-.31,69.49a2.34,2.34,0,0,0,.91,2.23,6.26,6.26,0,0,0,2.88.57c13,.46-4,6.2-4,6.2L64.75,440l-1.2-86.19s8.6-5.72,14.4-5.65c3.6.05,262.75,3.56,302.78,4a33.9,33.9,0,0,0,5.18,17.67C380.77,368.85,380.74,363.63,376.24,361.74Z"/><path class="cls-29" d="M443.57,353.19c-6.74-.47-13.5-.69-20.22-.66-3.47,0-7.32,6.19-10,7.56A13.46,13.46,0,0,0,404,360c-2.77,1.09-4.39,3.27-4,5.41.46,2.61,3.53,4.76,6.64,6.53,3.38,1.93,5.87,51.49,9.67,53-10.47-3.32-20.18-54.09-31.12-56.51a32.59,32.59,0,0,0-3.74-9.85c-18.54,0-218.28-2.37-236.52-2.4a10.65,10.65,0,0,0-4.89.75c-1.65.92-1.75,2.56-1.71,4,.11,4.12-1.73,6.5-2.84,10.56a40.6,40.6,0,0,0,1.24-13.27q-3.72-.52-7.4-1.17a6.52,6.52,0,0,1-2.31-.7c-.64-.38-.93-1.08-.42-1.53-8.88-.78-43.44-1.4-52.26-.55a13.8,13.8,0,0,0-.42,4l-2.35,75.14s.47,6.45,10.17,7.46l-2.15.08L64.75,440l-1.21-86.19s8.61-5.72,14.41-5.65,347.93-1.62,347.93-1.62l12.87,3.05S442.34,351.25,443.57,353.19Z"/><path class="cls-30" d="M416.28,424.93c-1.11-.35-2.22-.7-3.35-1-3-.92-4.89-49.62-7.93-50.47-1.12-.33-2.26-.64-3.39-.94l-3.07-.82-7.92-16.08,19.28,3.68A13,13,0,0,0,404,360c-2.77,1.09-4.39,3.27-4,5.41.46,2.61,3.53,4.76,6.64,6.53C410,373.84,412.48,423.4,416.28,424.93Z"/><path class="cls-31" d="M445.43,353.33c-7.37-.57-14.75-.83-22.09-.8-3.46,0-7.31,6.2-10,7.56A13.49,13.49,0,0,0,404,360c-2.77,1.09-4.39,3.27-4,5.41.46,2.61,3.53,4.76,6.63,6.53,3.38,1.93,5.88,51.49,9.68,53-10.47-3.33-20.18-54.1-31.12-56.53a32.9,32.9,0,0,0-3.74-9.84c-18.54,0-218.28-2.37-236.53-2.4a10.62,10.62,0,0,0-4.88.75c-1.66.92-1.75,2.56-1.71,4,.11,4.11-1.93,9.56-3,13.63a60.92,60.92,0,0,0,1.43-16.33c-2.47-.36-4.94-.75-7.38-1.18a6.91,6.91,0,0,1-2.33-.7c-.63-.39-.92-1.08-.42-1.53-8.88-.77-43.43-1.4-52.25-.55a13.46,13.46,0,0,0-.42,4"/></g></g><path class="cls-35" d="M91.27,361.61c19.53,1.17,39.18.8,58.74.83s39.16.06,58.74.07q58.44,0,116.88.1l33,.07c11,0,22,.37,33-.19a1,1,0,0,0,0-2c-9.77-.49-19.59-.2-29.37-.19l-29.37.06q-29.37.06-58.74.07-58.44,0-116.88.11c-11,0-22,0-33,.08s-22,.1-33,.76a.14.14,0,0,0,0,.27Z"/><path class="cls-36" d="M63.54,274.42l27.37-16a24.34,24.34,0,0,1,12.23-3.24l280.19-.68a73.68,73.68,0,0,1,28.18,5.46l33.92,14Z"/><path class="cls-25" d="M438.75,270.21s5.31,2.48,5.24,4.88-2.68,75.3-3.74,77.31-5.18,6.55-5.18,6.55l-355.5,2.62-14.83-1-1.2-86.19s8.61-5.71,14.41-5.64,347.93-1.63,347.93-1.63Z"/><path class="cls-37" d="M444,275.09c-.08,2.41-2.69,75.3-3.75,77.31s-5.18,6.55-5.18,6.55l-7.74.29a33,33,0,0,1,.7-5.05c-3.56-1.33-5.1-4.53-3.32-6.79-4.38-1.58-7.6-50.94-12-52.55-6-2.21-12.69-5-14.13-9.29a10.14,10.14,0,0,1-.37-3,4,4,0,0,1,.49-2.51,3.42,3.42,0,0,1,3.11-1.23,8.92,8.92,0,0,0,2.26.35c.71-.1.72-.95.15-.95,11.72-1.24,23.91-7.68,36-7.23C441.8,271.92,444,273.53,444,275.09Z"/><path class="cls-27" d="M430.79,355.39c-.3,1.25-.6,2.51-.92,3.75l-9.6.35,5.05-7.92,1.46,2Z"/><path class="cls-38" d="M376.24,282.37a3.08,3.08,0,0,1,1.5,3.16c-.77-1.39-2.84-2.34-5-2.76a32,32,0,0,0-6.65-.32l-8.53.18a14.61,14.61,0,0,0-4.55.58c-1.36.49-2.33,1.58-1.79,2.55-1.65.05-15-3.77-16.39-4.33a6.79,6.79,0,0,0-2.19-.34c-4.63-.22-177.92-.43-182.51-.64a10.88,10.88,0,0,0-4.93.52,5.12,5.12,0,0,0-2.16,2.28c-1.05,1.79-2.11,3.65-1.84,5.57a18,18,0,0,1,.32-7.83,15.75,15.75,0,0,0-5,8.59l1.11-7c-5.11.07-9.89-2.22-15-1.95-2.58.14-30.93.24-33.08-.74-.78-.34-1.32-.88-2-1.26a6.37,6.37,0,0,0-5.77.23c-1.58,1.06-1.68,2.71-1.69,4.21,0,7.06-.27,62.44-.31,69.49a2.34,2.34,0,0,0,.91,2.23,6.13,6.13,0,0,0,2.88.57c13,.46,51.37,1.43,64.53,1.91a225.94,225.94,0,0,1-25.72-7c16.59,3.65-42.79,11.26-42.79,11.26l-14.81-1-1.2-86.19s8.6-5.71,14.4-5.64c3.6,0,262.75,3.56,302.78,4a33.88,33.88,0,0,0,5.18,17.67C380.77,289.48,380.74,284.26,376.24,282.37Z"/><path class="cls-29" d="M443.57,273.82c-6.74-.47-13.5-.69-20.22-.66-3.47,0-7.32,6.19-10,7.57a13.46,13.46,0,0,0-9.4-.13c-2.77,1.09-4.39,3.28-4,5.41.46,2.61,3.53,4.76,6.64,6.53,3.38,1.93,5.87,51.49,9.67,53-10.47-3.32-20.18-54.09-31.12-56.51a32.59,32.59,0,0,0-3.74-9.85c-18.54,0-218.28-2.37-236.52-2.4-1.72,0-3.59,0-4.89.76-1.65.91-1.75,2.55-1.71,4,.11,4.12-1.73,6.5-2.84,10.56a40.54,40.54,0,0,0,1.24-13.26q-3.72-.54-7.4-1.18A6.72,6.72,0,0,1,127,277c-.64-.39-.93-1.09-.42-1.53-8.88-.78-43.44-1.4-52.26-.55a13.69,13.69,0,0,0-.42,4L71.54,354s.47,6.45,10.17,7.47l-2.15.08-14.81-1-1.21-86.19s8.61-5.71,14.41-5.64,347.93-1.63,347.93-1.63l12.87,3.05S442.34,271.88,443.57,273.82Z"/><path class="cls-30" d="M416.28,345.56c-1.11-.35-2.22-.7-3.35-1-3-.92-4.89-49.62-7.93-50.47-1.12-.33-2.26-.64-3.39-.94l-3.07-.82q-4-8.09-7.92-16.07l19.28,3.67a13,13,0,0,0-5.91.71c-2.77,1.09-4.39,3.28-4,5.41.46,2.61,3.53,4.76,6.64,6.53C410,294.47,412.48,344,416.28,345.56Z"/><path class="cls-31" d="M445.43,274c-7.37-.56-14.75-.83-22.09-.8-3.46,0-7.31,6.2-10,7.57a13.44,13.44,0,0,0-9.39-.13c-2.77,1.09-4.39,3.27-4,5.41.46,2.62,3.53,4.76,6.63,6.53,3.38,1.93,5.88,51.49,9.68,53-10.47-3.33-20.18-54.1-31.12-56.52a33,33,0,0,0-3.74-9.85c-18.54,0-218.28-2.37-236.53-2.4a10.62,10.62,0,0,0-4.88.75c-1.66.92-1.75,2.56-1.71,4,.11,4.12-1.93,9.57-3,13.64a61,61,0,0,0,1.43-16.34c-2.47-.36-4.94-.75-7.38-1.18A6.69,6.69,0,0,1,127,277c-.63-.39-.92-1.07-.42-1.53-8.88-.77-43.43-1.4-52.25-.54a13.39,13.39,0,0,0-.42,4"/><path class="cls-32" d="M88.37,346.47l.62.16c.41.09,1,.27,1.83.43l3,.52,4.13.56c6.22.77,15.26,1.61,26.43,2.44,22.35,1.66,53.26,3.3,87.41,4.5s65.09,1.76,87.48,2.18c11.19.21,20.25.38,26.51.57,3.13.09,5.56.19,7.21.27l2.5.18L333,358c-1.64-.17-4.07-.41-7.19-.66-6.25-.51-15.29-1.11-26.48-1.75-22.36-1.28-53.27-2.7-87.42-3.89l-87.43-2.79c-11.19-.4-20.24-.81-26.48-1.26l-4.14-.34-3-.35c-.81-.1-1.42-.25-1.84-.32Z"/><g class="cls-33"><path class="cls-25" d="M438.75,270.21s5.31,2.48,5.24,4.88-2.68,75.3-3.74,77.31-5.18,6.55-5.18,6.55l-355.5,2.62-14.83-1-1.2-86.19s8.61-5.71,14.41-5.64,347.93-1.63,347.93-1.63Z"/><path class="cls-37" d="M444,275.09c-.08,2.41-2.69,75.3-3.75,77.31s-5.18,6.55-5.18,6.55l-7.74.29a33,33,0,0,1,.7-5.05c-3.56-1.33-5.1-4.53-3.32-6.79-4.38-1.58-7.6-50.94-12-52.55-6-2.21-12.69-5-14.13-9.29a10.14,10.14,0,0,1-.37-3,4,4,0,0,1,.49-2.51,3.42,3.42,0,0,1,3.11-1.23,8.92,8.92,0,0,0,2.26.35c.71-.1.72-.95.15-.95,11.72-1.24,23.91-7.68,36-7.23C441.8,271.92,444,273.53,444,275.09Z"/><path class="cls-27" d="M430.79,355.39c-.3,1.25-.6,2.51-.92,3.75l-9.6.35,5.05-7.92,1.46,2Z"/><path class="cls-38" d="M376.24,282.37a3.08,3.08,0,0,1,1.5,3.16c-.77-1.39-2.84-2.34-5-2.76a32,32,0,0,0-6.65-.32l-8.53.18a14.61,14.61,0,0,0-4.55.58c-1.36.49-2.33,1.58-1.79,2.55-1.65.05-15-3.77-16.39-4.33a6.79,6.79,0,0,0-2.19-.34c-4.63-.22-177.92-.43-182.51-.64a10.88,10.88,0,0,0-4.93.52,5.12,5.12,0,0,0-2.16,2.28c-1.05,1.79-2.11,3.65-1.84,5.57a18,18,0,0,1,.32-7.83,15.75,15.75,0,0,0-5,8.59l1.11-7c-5.11.07-9.89-2.22-15-1.95-2.58.14-30.93.24-33.08-.74-.78-.34-1.32-.88-2-1.26a6.37,6.37,0,0,0-5.77.23c-1.58,1.06-1.68,2.71-1.69,4.21,0,7.06-.27,62.44-.31,69.49a2.34,2.34,0,0,0,.91,2.23,6.13,6.13,0,0,0,2.88.57c13,.46,51.37,1.43,64.53,1.91a225.94,225.94,0,0,1-25.72-7c16.59,3.65-42.79,11.26-42.79,11.26l-14.81-1-1.2-86.19s8.6-5.71,14.4-5.64c3.6,0,262.75,3.56,302.78,4a33.88,33.88,0,0,0,5.18,17.67C380.77,289.48,380.74,284.26,376.24,282.37Z"/><path class="cls-29" d="M443.57,273.82c-6.74-.47-13.5-.69-20.22-.66-3.47,0-7.32,6.19-10,7.57a13.46,13.46,0,0,0-9.4-.13c-2.77,1.09-4.39,3.28-4,5.41.46,2.61,3.53,4.76,6.64,6.53,3.38,1.93,5.87,51.49,9.67,53-10.47-3.32-20.18-54.09-31.12-56.51a32.59,32.59,0,0,0-3.74-9.85c-18.54,0-218.28-2.37-236.52-2.4-1.72,0-3.59,0-4.89.76-1.65.91-1.75,2.55-1.71,4,.11,4.12-1.73,6.5-2.84,10.56a40.54,40.54,0,0,0,1.24-13.26q-3.72-.54-7.4-1.18A6.72,6.72,0,0,1,127,277c-.64-.39-.93-1.09-.42-1.53-8.88-.78-43.44-1.4-52.26-.55a13.69,13.69,0,0,0-.42,4L71.54,354s.47,6.45,10.17,7.47l-2.15.08-14.81-1-1.21-86.19s8.61-5.71,14.41-5.64,347.93-1.63,347.93-1.63l12.87,3.05S442.34,271.88,443.57,273.82Z"/><path class="cls-30" d="M416.28,345.56c-1.11-.35-2.22-.7-3.35-1-3-.92-4.89-49.62-7.93-50.47-1.12-.33-2.26-.64-3.39-.94l-3.07-.82q-4-8.09-7.92-16.07l19.28,3.67a13,13,0,0,0-5.91.71c-2.77,1.09-4.39,3.28-4,5.41.46,2.61,3.53,4.76,6.64,6.53C410,294.47,412.48,344,416.28,345.56Z"/><path class="cls-31" d="M445.43,274c-7.37-.56-14.75-.83-22.09-.8-3.46,0-7.31,6.2-10,7.57a13.44,13.44,0,0,0-9.39-.13c-2.77,1.09-4.39,3.27-4,5.41.46,2.62,3.53,4.76,6.63,6.53,3.38,1.93,5.88,51.49,9.68,53-10.47-3.33-20.18-54.1-31.12-56.52a33,33,0,0,0-3.74-9.85c-18.54,0-218.28-2.37-236.53-2.4a10.62,10.62,0,0,0-4.88.75c-1.66.92-1.75,2.56-1.71,4,.11,4.12-1.93,9.57-3,13.64a61,61,0,0,0,1.43-16.34c-2.47-.36-4.94-.75-7.38-1.18A6.69,6.69,0,0,1,127,277c-.63-.39-.92-1.07-.42-1.53-8.88-.77-43.43-1.4-52.25-.54a13.39,13.39,0,0,0-.42,4"/><path class="cls-32" d="M88.37,346.47l.62.16c.41.09,1,.27,1.83.43l3,.52,4.13.56c6.22.77,15.26,1.61,26.43,2.44,22.35,1.66,53.26,3.3,87.41,4.5s65.09,1.76,87.48,2.18c11.19.21,20.25.38,26.51.57,3.13.09,5.56.19,7.21.27l2.5.18L333,358c-1.64-.17-4.07-.41-7.19-.66-6.25-.51-15.29-1.11-26.48-1.75-22.36-1.28-53.27-2.7-87.42-3.89l-87.43-2.79c-11.19-.4-20.24-.81-26.48-1.26l-4.14-.34-3-.35c-.81-.1-1.42-.25-1.84-.32Z"/></g><g class="cls-18"><path class="cls-36" d="M63.54,274.42l27.37-16a24.34,24.34,0,0,1,12.23-3.24l280.19-.68a73.68,73.68,0,0,1,28.18,5.46l33.92,14Z"/><path class="cls-25" d="M438.75,270.21s5.31,2.48,5.24,4.88-2.68,75.3-3.74,77.31-5.18,6.55-5.18,6.55l-355.5,2.62-14.83-1-1.2-86.19s8.61-5.71,14.41-5.64,347.93-1.63,347.93-1.63Z"/><path class="cls-37" d="M444,275.09c-.08,2.41-2.69,75.3-3.75,77.31s-5.18,6.55-5.18,6.55l-7.74.29a33,33,0,0,1,.7-5.05c-3.56-1.33-5.1-4.53-3.32-6.79-4.38-1.58-7.6-50.94-12-52.55-6-2.21-12.69-5-14.13-9.29a10.14,10.14,0,0,1-.37-3,4,4,0,0,1,.49-2.51,3.42,3.42,0,0,1,3.11-1.23,8.92,8.92,0,0,0,2.26.35c.71-.1.72-.95.15-.95,11.72-1.24,23.91-7.68,36-7.23C441.8,271.92,444,273.53,444,275.09Z"/><path class="cls-27" d="M430.79,355.39c-.3,1.25-.6,2.51-.92,3.75l-9.6.35,5.05-7.92,1.46,2Z"/><path class="cls-38" d="M376.24,282.37a3.08,3.08,0,0,1,1.5,3.16c-.77-1.39-2.84-2.34-5-2.76a32,32,0,0,0-6.65-.32l-8.53.18a14.61,14.61,0,0,0-4.55.58c-1.36.49-2.33,1.58-1.79,2.55-1.65.05-15-3.77-16.39-4.33a6.79,6.79,0,0,0-2.19-.34c-4.63-.22-177.92-.43-182.51-.64a10.88,10.88,0,0,0-4.93.52,5.12,5.12,0,0,0-2.16,2.28c-1.05,1.79-2.11,3.65-1.84,5.57a18,18,0,0,1,.32-7.83,15.75,15.75,0,0,0-5,8.59l1.11-7c-5.11.07-9.89-2.22-15-1.95-2.58.14-30.93.24-33.08-.74-.78-.34-1.32-.88-2-1.26a6.37,6.37,0,0,0-5.77.23c-1.58,1.06-1.68,2.71-1.69,4.21,0,7.06-.27,62.44-.31,69.49a2.34,2.34,0,0,0,.91,2.23,6.13,6.13,0,0,0,2.88.57c13,.46,51.37,1.43,64.53,1.91a225.94,225.94,0,0,1-25.72-7c16.59,3.65-42.79,11.26-42.79,11.26l-14.81-1-1.2-86.19s8.6-5.71,14.4-5.64c3.6,0,262.75,3.56,302.78,4a33.88,33.88,0,0,0,5.18,17.67C380.77,289.48,380.74,284.26,376.24,282.37Z"/><path class="cls-29" d="M443.57,273.82c-6.74-.47-13.5-.69-20.22-.66-3.47,0-7.32,6.19-10,7.57a13.46,13.46,0,0,0-9.4-.13c-2.77,1.09-4.39,3.28-4,5.41.46,2.61,3.53,4.76,6.64,6.53,3.38,1.93,5.87,51.49,9.67,53-10.47-3.32-20.18-54.09-31.12-56.51a32.59,32.59,0,0,0-3.74-9.85c-18.54,0-218.28-2.37-236.52-2.4-1.72,0-3.59,0-4.89.76-1.65.91-1.75,2.55-1.71,4,.11,4.12-1.73,6.5-2.84,10.56a40.54,40.54,0,0,0,1.24-13.26q-3.72-.54-7.4-1.18A6.72,6.72,0,0,1,127,277c-.64-.39-.93-1.09-.42-1.53-8.88-.78-43.44-1.4-52.26-.55a13.69,13.69,0,0,0-.42,4L71.54,354s.47,6.45,10.17,7.47l-2.15.08-14.81-1-1.21-86.19s8.61-5.71,14.41-5.64,347.93-1.63,347.93-1.63l12.87,3.05S442.34,271.88,443.57,273.82Z"/><path class="cls-30" d="M416.28,345.56c-1.11-.35-2.22-.7-3.35-1-3-.92-4.89-49.62-7.93-50.47-1.12-.33-2.26-.64-3.39-.94l-3.07-.82q-4-8.09-7.92-16.07l19.28,3.67a13,13,0,0,0-5.91.71c-2.77,1.09-4.39,3.28-4,5.41.46,2.61,3.53,4.76,6.64,6.53C410,294.47,412.48,344,416.28,345.56Z"/><path class="cls-31" d="M445.43,274c-7.37-.56-14.75-.83-22.09-.8-3.46,0-7.31,6.2-10,7.57a13.44,13.44,0,0,0-9.39-.13c-2.77,1.09-4.39,3.27-4,5.41.46,2.62,3.53,4.76,6.63,6.53,3.38,1.93,5.88,51.49,9.68,53-10.47-3.33-20.18-54.1-31.12-56.52a33,33,0,0,0-3.74-9.85c-18.54,0-218.28-2.37-236.53-2.4a10.62,10.62,0,0,0-4.88.75c-1.66.92-1.75,2.56-1.71,4,.11,4.12-1.93,9.57-3,13.64a61,61,0,0,0,1.43-16.34c-2.47-.36-4.94-.75-7.38-1.18A6.69,6.69,0,0,1,127,277c-.63-.39-.92-1.07-.42-1.53-8.88-.77-43.43-1.4-52.25-.54a13.39,13.39,0,0,0-.42,4"/><path class="cls-32" d="M88.37,346.47l.62.16c.41.09,1,.27,1.83.43l3,.52,4.13.56c6.22.77,15.26,1.61,26.43,2.44,22.35,1.66,53.26,3.3,87.41,4.5s65.09,1.76,87.48,2.18c11.19.21,20.25.38,26.51.57,3.13.09,5.56.19,7.21.27l2.5.18L333,358c-1.64-.17-4.07-.41-7.19-.66-6.25-.51-15.29-1.11-26.48-1.75-22.36-1.28-53.27-2.7-87.42-3.89l-87.43-2.79c-11.19-.4-20.24-.81-26.48-1.26l-4.14-.34-3-.35c-.81-.1-1.42-.25-1.84-.32Z"/><g class="cls-33"><path class="cls-25" d="M438.75,270.21s5.31,2.48,5.24,4.88-2.68,75.3-3.74,77.31-5.18,6.55-5.18,6.55l-355.5,2.62-14.83-1-1.2-86.19s8.61-5.71,14.41-5.64,347.93-1.63,347.93-1.63Z"/><path class="cls-37" d="M444,275.09c-.08,2.41-2.69,75.3-3.75,77.31s-5.18,6.55-5.18,6.55l-7.74.29a33,33,0,0,1,.7-5.05c-3.56-1.33-5.1-4.53-3.32-6.79-4.38-1.58-7.6-50.94-12-52.55-6-2.21-12.69-5-14.13-9.29a10.14,10.14,0,0,1-.37-3,4,4,0,0,1,.49-2.51,3.42,3.42,0,0,1,3.11-1.23,8.92,8.92,0,0,0,2.26.35c.71-.1.72-.95.15-.95,11.72-1.24,23.91-7.68,36-7.23C441.8,271.92,444,273.53,444,275.09Z"/><path class="cls-27" d="M430.79,355.39c-.3,1.25-.6,2.51-.92,3.75l-9.6.35,5.05-7.92,1.46,2Z"/><path class="cls-38" d="M376.24,282.37a3.08,3.08,0,0,1,1.5,3.16c-.77-1.39-2.84-2.34-5-2.76a32,32,0,0,0-6.65-.32l-8.53.18a14.61,14.61,0,0,0-4.55.58c-1.36.49-2.33,1.58-1.79,2.55-1.65.05-15-3.77-16.39-4.33a6.79,6.79,0,0,0-2.19-.34c-4.63-.22-177.92-.43-182.51-.64a10.88,10.88,0,0,0-4.93.52,5.12,5.12,0,0,0-2.16,2.28c-1.05,1.79-2.11,3.65-1.84,5.57a18,18,0,0,1,.32-7.83,15.75,15.75,0,0,0-5,8.59l1.11-7c-5.11.07-9.89-2.22-15-1.95-2.58.14-30.93.24-33.08-.74-.78-.34-1.32-.88-2-1.26a6.37,6.37,0,0,0-5.77.23c-1.58,1.06-1.68,2.71-1.69,4.21,0,7.06-.27,62.44-.31,69.49a2.34,2.34,0,0,0,.91,2.23,6.13,6.13,0,0,0,2.88.57c13,.46,51.37,1.43,64.53,1.91a225.94,225.94,0,0,1-25.72-7c16.59,3.65-42.79,11.26-42.79,11.26l-14.81-1-1.2-86.19s8.6-5.71,14.4-5.64c3.6,0,262.75,3.56,302.78,4a33.88,33.88,0,0,0,5.18,17.67C380.77,289.48,380.74,284.26,376.24,282.37Z"/><path class="cls-29" d="M443.57,273.82c-6.74-.47-13.5-.69-20.22-.66-3.47,0-7.32,6.19-10,7.57a13.46,13.46,0,0,0-9.4-.13c-2.77,1.09-4.39,3.28-4,5.41.46,2.61,3.53,4.76,6.64,6.53,3.38,1.93,5.87,51.49,9.67,53-10.47-3.32-20.18-54.09-31.12-56.51a32.59,32.59,0,0,0-3.74-9.85c-18.54,0-218.28-2.37-236.52-2.4-1.72,0-3.59,0-4.89.76-1.65.91-1.75,2.55-1.71,4,.11,4.12-1.73,6.5-2.84,10.56a40.54,40.54,0,0,0,1.24-13.26q-3.72-.54-7.4-1.18A6.72,6.72,0,0,1,127,277c-.64-.39-.93-1.09-.42-1.53-8.88-.78-43.44-1.4-52.26-.55a13.69,13.69,0,0,0-.42,4L71.54,354s.47,6.45,10.17,7.47l-2.15.08-14.81-1-1.21-86.19s8.61-5.71,14.41-5.64,347.93-1.63,347.93-1.63l12.87,3.05S442.34,271.88,443.57,273.82Z"/><path class="cls-30" d="M416.28,345.56c-1.11-.35-2.22-.7-3.35-1-3-.92-4.89-49.62-7.93-50.47-1.12-.33-2.26-.64-3.39-.94l-3.07-.82q-4-8.09-7.92-16.07l19.28,3.67a13,13,0,0,0-5.91.71c-2.77,1.09-4.39,3.28-4,5.41.46,2.61,3.53,4.76,6.64,6.53C410,294.47,412.48,344,416.28,345.56Z"/><path class="cls-31" d="M445.43,274c-7.37-.56-14.75-.83-22.09-.8-3.46,0-7.31,6.2-10,7.57a13.44,13.44,0,0,0-9.39-.13c-2.77,1.09-4.39,3.27-4,5.41.46,2.62,3.53,4.76,6.63,6.53,3.38,1.93,5.88,51.49,9.68,53-10.47-3.33-20.18-54.1-31.12-56.52a33,33,0,0,0-3.74-9.85c-18.54,0-218.28-2.37-236.53-2.4a10.62,10.62,0,0,0-4.88.75c-1.66.92-1.75,2.56-1.71,4,.11,4.12-1.93,9.57-3,13.64a61,61,0,0,0,1.43-16.34c-2.47-.36-4.94-.75-7.38-1.18A6.69,6.69,0,0,1,127,277c-.63-.39-.92-1.07-.42-1.53-8.88-.77-43.43-1.4-52.25-.54a13.39,13.39,0,0,0-.42,4"/><path class="cls-32" d="M88.37,346.47l.62.16c.41.09,1,.27,1.83.43l3,.52,4.13.56c6.22.77,15.26,1.61,26.43,2.44,22.35,1.66,53.26,3.3,87.41,4.5s65.09,1.76,87.48,2.18c11.19.21,20.25.38,26.51.57,3.13.09,5.56.19,7.21.27l2.5.18L333,358c-1.64-.17-4.07-.41-7.19-.66-6.25-.51-15.29-1.11-26.48-1.75-22.36-1.28-53.27-2.7-87.42-3.89l-87.43-2.79c-11.19-.4-20.24-.81-26.48-1.26l-4.14-.34-3-.35c-.81-.1-1.42-.25-1.84-.32Z"/></g></g><path class="cls-39" d="M108.93,256.86s-22.19,1.69-24.31,4l-3.93-.77,2-5.25Z"/><path class="cls-40" d="M83.56,215.73l24.73,0h3.45c1.19,0,2.38,0,3.57,0,.44,0,.52-.63.09-.67-1.05-.08-2.12,0-3.18,0H83.66c-.46,0-.56.71-.1.71Z"/><path class="cls-4" d="M36.57,215.51c.77,0,1.52.1,2.29.1l2.29,0,4.6,0,9.2,0,18.26,0,10.35,0c.47,0,.57-.73.1-.73l-18.41,0-18.27,0-5.12,0-2.62,0c-.88,0-1.75.06-2.63.11-.17,0-.2.25,0,.26Z"/><path class="cls-8" d="M42.47,214.62c1.22.15,2.39.28,3.62.33l3.62.1c2.46,0,4.92.07,7.37.08l14.49.08c9.7,0,19.41,0,29.11.06,5.49,0,11,.06,16.49,0a.88.88,0,0,0,0-1.75c-9.7-.09-19.41,0-29.11,0s-19.4.06-29.1.11c-2.75,0-5.5,0-8.25.07l-4,.1c-.7,0-1.41,0-2.12.09s-1.41.18-2.12.26a.22.22,0,0,0,0,.43Z"/><path class="cls-12" d="M108.93,256.86V208.08s-22.17-1.74-31.42-2c0,0-72.51-.86-77.13,0v48.79l78,2Z"/><path class="cls-41" d="M64.25,256.49.38,254.84V206.05c1.17-.21,6.68-.32,14.27-.36a54.16,54.16,0,0,1,8.59,2.7c-.52-.07-.8.69-.54,1.13a2.13,2.13,0,0,0,1.32.76l12.72,3.66c.72.21,1.48,36.5,2.23,36.36,1-.18,1.75-37,2.65-37.46,3.15-1.59,6.84,36.87,10.37,36.76,1.5,0,3-36.63,4.47-36.66s3.21.59,3.72,2c.26.75.15,37.65.38,38.41A5.28,5.28,0,0,0,63.3,256Z"/><polygon class="cls-42" points="64.25 256.49 0.38 254.84 5.15 260.09 80.98 260.86 82.72 256.86 64.25 256.49"/><path class="cls-43" d="M108.93,208.08v48.78H82.71V206.3C92.28,206.87,108.93,208.08,108.93,208.08Z"/><path class="cls-44" d="M.35,206.22a25.13,25.13,0,0,0,4,.3c1.31,0,2.62.09,3.94.12,2.68.06,5.37.11,8.05.15l16.11.23q16.09.21,32.2.4l9,.1c3,0,6,.11,9,.09a.68.68,0,0,0,0-1.35c-5.36-.16-10.74-.11-16.1-.17L50.5,206q-16.09-.14-32.21-.23c-3,0-6,0-9,0-1.48,0-3,0-4.44,0A27.79,27.79,0,0,0,.35,206c-.14,0-.13.23,0,.26Z"/><path class="cls-45" d="M82.7,206.76a6.52,6.52,0,0,0,1.28.46c.42.07.84.12,1.27.16.92.09,21.25.18,22.17.26,1.81.15-31.21.29-29.4.43s3.61.29,5.41.45l2.77.24c.89.08,21.29.31,22.17.2a.78.78,0,0,0,.21-1.53c-.84-.27-21.25-.23-22.12-.3l-2.77-.21-5.55-.37c-1.84-.11,11.73-.2,9.88-.26-.88,0-1.76,0-2.65,0a12.71,12.71,0,0,0-1.38,0,6.43,6.43,0,0,0-1.29.33c-.08,0-.07.13,0,.16Z"/><path class="cls-44" d="M8.46,209.29a35.37,35.37,0,0,0,6.66.4.19.19,0,0,0,0-.37c-2.22,0-4.44,0-6.65-.13-.05,0-.07.09,0,.1Z"/><rect class="cls-46" x="5.15" y="260.09" width="75.54" height="131.66"/><path class="cls-47" d="M75.41,260.09C68.24,265,59.31,271,58.29,271.72a12.25,12.25,0,0,1-1.64,1c-2.26,1.08-4.92.59-7.36.07,0-.49.06-1,.1-1.49l-7.3,0c-3.25,0-6.82.15-9.23,2.34a17.11,17.11,0,0,1-7.77-8.52c-4.38.16-8.48-2.09-12-4.64l-.65-.47Z"/><path class="cls-48" d="M47.33,391.78c-14-.39-28.14,0-42.18,0V260.09h3a8.63,8.63,0,0,0,3.44,2.78,3.87,3.87,0,0,1,1,.53,3.93,3.93,0,0,1,.74,1A20.85,20.85,0,0,0,17,269l.46.13c1.94-.14,3.73,1.07,5,2.5s2.33,3.13,3.74,4.46c.74.7,1.58,1.3,2.27,2,2.33,2.52,4.06,5.74,5.9,8.63-1.88.26-2.73,2.44-3.21,4.27q-2.66,10.13-5.32,20.25c1.52,2.59,5,4.59,4.37,7.54a6.36,6.36,0,0,1-.77,1.8l-4.78,8.57a3.06,3.06,0,0,1,1.48,4.11l2.67-.55a6.43,6.43,0,0,1-.6,2.73c2.05-.11,3.43,2,4.36,3.84L36,346.11a4.73,4.73,0,0,1,.69,2.19,4.56,4.56,0,0,1-.94,2.3A69.17,69.17,0,0,1,28,360.39C33.61,365.34,31.56,376,37.9,380l2.91-.38c-1.06,2,.52,4.29,2.17,5.79C45.15,387.4,45.9,389.35,47.33,391.78Z"/><path class="cls-4" d="M7.24,294.64c.09,3,.18,94.14.28,97.11H5.15V260.09H7.82C6.54,271.53,6.89,283.12,7.24,294.64Z"/><polygon class="cls-49" points="104.02 257.33 104.02 395.17 80.69 397.04 80.69 258.32 104.02 257.33"/><g class="cls-6"><path class="cls-7" d="M80.69,391.75a3.38,3.38,0,0,0,.09-.88c0-.58.06-1.43.09-2.53.06-2.2.11-93.57.15-97.51.08-7.87.14-18.74.14-30.74-1.86,0-.52,0-.93,0h0v4.41c0,1.47,0,2.91,0,4.32,0,2.83,0,5.56,0,8.16,0,5.2.07,9.89.1,13.82s.09,95.31.15,97.51c0,1.1.06,2,.09,2.53a3.38,3.38,0,0,0,.09.88,3.6,3.6,0,0,0,.1-.88c0-.58,0-1.43.08-2.53.06-2.2.11-93.57.15-97.51s.06-8.62.1-13.82c0-2.6,0-5.33,0-8.16v-8.73h0c-.42,0,.92,0-.93,0,0,12,0,22.87.13,30.74,0,3.94.09,95.31.15,97.51,0,1.1.06,2,.09,2.53A3.38,3.38,0,0,0,80.69,391.75Z"/></g><polygon class="cls-50" points="1.44 391.75 80.69 391.75 82.71 396.04 1.44 396.04 1.44 391.75"/><path class="cls-51" d="M82.71,396H50.48l0-.06c-1.09-1.62-2.19-2.8-3.11-4.23H80.69Z"/><polygon class="cls-52" points="82.71 396.04 80.69 391.75 104.56 391.02 115.49 394.1 82.71 396.04"/><rect class="cls-53" x="1.44" y="396.04" width="81.28" height="45.55"/><path class="cls-54" d="M82.73,396v45.55H58.83c-1.73-4.47-4.66-40.86-6.39-45.33a1.52,1.52,0,0,1-2-.22Z"/><path class="cls-8" d="M7.67,259.68c2.24,4.61,4.64,9.17,7.33,13.54a15.35,15.35,0,0,0,2.42,3.25.11.11,0,0,0,.16-.16,43,43,0,0,1-4.06-6.26c-1.28-2.18-2.51-4.38-3.66-6.63-.66-1.29-1.3-2.59-1.92-3.89-.09-.18-.35,0-.27.15Z"/><path class="cls-8" d="M18.39,278.2s0,0,0,0,0,0,0,0Z"/><path class="cls-8" d="M64,285.34s0,0,0,0a0,0,0,0,0,0,0Z"/><rect class="cls-55" x="1.44" y="391.75" width="3.71" height="49.84"/><path class="cls-4" d="M.81,392.57c0,5.3-.06,38.81-.07,44.11,0,1.51,0,3,0,4.53a.31.31,0,0,0,.61,0c0-2.66,0-33.54,0-36.2s0-5.27,0-7.91l0-4.53a.25.25,0,0,0-.49,0Z"/><path class="cls-40" d="M47.88,392.93l24.74,0h3.44c1.19,0,2.39,0,3.57-.06a.33.33,0,0,0,0-.66c-1.06-.08-2.12-.05-3.19-.05H54.9l-7,0a.36.36,0,0,0,0,.71Z"/><path class="cls-4" d="M.86,392.7c.77,0,1.53.1,2.3.11l2.3,0c1.54,0,3.07,0,4.6,0l9.2,0,18.27,0H47.88a.36.36,0,0,0,0-.72l-18.4,0q-9.14,0-18.27.05l-5.11,0-2.62,0c-.87,0-1.74.07-2.62.11a.13.13,0,0,0,0,.26Z"/><path class="cls-56" d="M5.29,441.08c9.89.07,19.78.06,29.67.08s19.78,0,29.67,0l8.37,0h4.11c1.41,0,2.84.06,4.26-.07a.34.34,0,0,0,0-.68c-1.27-.12-2.54-.07-3.81-.07H66.45c-4.91,0-9.83,0-14.75,0L22,440.5c-5.58,0-11.16,0-16.74.06a.26.26,0,0,0,0,.52Z"/><path class="cls-56" d="M5.05,396.22a18,18,0,0,0-.12,2.43c0,.88,0,1.75,0,2.62,0,1.72,0,31.67,0,33.39a.2.2,0,0,0,.4,0c0-1.72,0-31.67,0-33.39v-2.55a17.37,17.37,0,0,0-.12-2.5.05.05,0,0,0-.1,0Z"/><path class="cls-56" d="M4.52,396.52a64.65,64.65,0,0,0,7,.22l7,0,13.86,0c2.61,0,5.24.06,7.85,0a.37.37,0,0,0,0-.74c-2.32-.07-4.64,0-7,0l-7,0-13.85.05a76.33,76.33,0,0,0-7.86.22.1.1,0,0,0,0,.2Z"/><polygon class="cls-49" points="111.43 392.96 111.43 436.58 82.72 441.59 82.71 396.04 111.43 392.96"/><path class="cls-44" d="M.34,205.93c-.19.16-.19.3-.22.53a6.66,6.66,0,0,0-.11.78c0,.51,0,1,0,1.53,0,1.09,0,2.18.06,3.26s.05,38.21.05,39.27c0,.54,0,1.07,0,1.6a4,4,0,0,0,.14,1.63.45.45,0,0,0,.76,0,3.88,3.88,0,0,0,.07-1.63l-.06-1.53C1,250.28,1,213.12.94,212s0-2.13-.09-3.19c0-.53,0-1.07-.07-1.6a5.69,5.69,0,0,0-.12-.72c-.06-.24-.05-.43-.26-.59a0,0,0,0,0-.06,0Z"/><g class="cls-57"><path class="cls-44" d="M.86,254.8q6.36.22,12.72.38l17.46.48,19.17.51,17.83.47,13.47.35,1.2,0c.21,0,.21-.32,0-.32L70,256.33l-17.47-.49-19.17-.52-17.83-.48-13.47-.35-1.2,0a.17.17,0,0,0,0,.34Z"/></g><path class="cls-8" d="M43.24,296.79c-1.27-1.26-2.51-2.57-3.74-3.89-.58-.63-1.16-1.27-1.72-1.92s-1.2-1.34-1.75-2c-1.11-1.41-2.15-2.85-3.14-4.34S31,281.55,30,280a11.64,11.64,0,0,0-1.48-2.07c-.63-.66-1.36-1.2-2-1.81a35.43,35.43,0,0,1-3.39-4,8.77,8.77,0,0,0-3.76-2.86,5.51,5.51,0,0,0-1.12-.26,4.74,4.74,0,0,1-.93-.06.9.9,0,0,1-.28-.08,3.47,3.47,0,0,1-.32-.34c-.35-.34-.68-.69-1-1.05a18.77,18.77,0,0,1-1.79-2.36c-.49-.77-.84-1.67-1.7-2.11-.4-.2-.82-.35-1.21-.57a8.24,8.24,0,0,1-3-2.81c-.1-.15-.35,0-.25.15a8.6,8.6,0,0,0,3.5,3.13,10.8,10.8,0,0,1,1,.48,2.83,2.83,0,0,1,.92,1.08,21,21,0,0,0,1.45,2.17,22.83,22.83,0,0,0,1.67,2,2,2,0,0,0,.67.61,1.56,1.56,0,0,0,.67.12A6.23,6.23,0,0,1,22,271.41c1.25,1.23,2.18,2.72,3.33,4s2.81,2.34,3.86,3.87c.5.72.89,1.5,1.35,2.25s.94,1.53,1.44,2.28c1,1.45,2,2.86,3,4.23,1.22,1.57,2.47,3.11,3.81,4.57a45.7,45.7,0,0,0,4.4,4.18,0,0,0,0,0,0,0Z"/><g class="cls-58"><path class="cls-44" d="M5.62,261.48q12.72.07,25.44.12l25.35,0q12.18,0,24.34,0c2.83,0-9.77,0-7,.06l6.12.05c1.3,0,2.62.07,3.92,0a1.77,1.77,0,0,0,.79-.15l-.45.12h.08a.89.89,0,0,0,0-1.78h-.08l.45.12a3.34,3.34,0,0,0-1.45-.2h-2l-5.79,0c-3.25,0,8.93,0,5.68-.05-7.17,0-14.35,0-21.52,0l-25.35.05q-12.67,0-25.35.11H5.62a.74.74,0,0,0,0,1.47Z"/></g><path class="cls-8" d="M6.61,391.82c1.22.14,2.39.28,3.62.32s2.42.08,3.63.1c2.45.06,4.91.07,7.37.08l14.49.08c9.7.06,19.4.06,29.1.07,5.5,0,11,.06,16.49,0a.88.88,0,0,0,0-1.75c-9.7-.09-19.4,0-29.1,0s-19.41.06-29.11.12c-2.75,0-5.5,0-8.24.07-1.34,0-2.67.05-4,.1-.71,0-1.42,0-2.13.08s-1.41.18-2.12.27a.22.22,0,0,0,0,.43Z"/><path class="cls-59" d="M40.56,391.5,35,387a41.21,41.21,0,0,0,3.84-24.81c4.4-4.86,9-9.86,15-12.43a2.66,2.66,0,0,0,1.39-1,2.61,2.61,0,0,0,.19-1.47l-.3-4.4a8.11,8.11,0,0,0,6.31-8c.86,3.4,1.46,5.32,4.29,7.62a3.14,3.14,0,0,1,1.07,1.25,3.1,3.1,0,0,1-.26,2.14,66.92,66.92,0,0,0-2.7,9.74,5,5,0,0,0-.08,2.21c.51,2,2.92,2.56,4.5,3.83,2.92,2.34,2.77,6.74,2.36,10.46l.62,5.52c-.13,2.6.15,4.5.82,5.1a1.37,1.37,0,0,1,.22,1.54c-.13.27-.39.47-.54.73a2.11,2.11,0,0,0,.13,1.78l1.56,4"/><path class="cls-8" d="M62.37,333.82a5.11,5.11,0,0,0,.07,5.91,12.86,12.86,0,0,0,2.46,2.75,6.88,6.88,0,0,1,1.22,1.13c.47.65.15,1.45-.08,2.14a58.94,58.94,0,0,0-2.23,8.16,10.4,10.4,0,0,0-.39,3.91A3.7,3.7,0,0,0,64.91,360c.79.6,1.68,1,2.5,1.57a5.85,5.85,0,0,1,2.07,2.29,12.08,12.08,0,0,1,.8,6.33,15.75,15.75,0,0,0-.19,2.15c0,.56.11,1.11.16,1.66.12,1.19.3,2.39.36,3.58s0,2.15.09,3.23a4.79,4.79,0,0,0,.92,2.42c.44.61-.14,1-.43,1.48a2.37,2.37,0,0,0-.08,1.9,33.39,33.39,0,0,0,1.83,4.52c.29.61,1.28.18,1.08-.46-.41-1.37-1-2.68-1.48-4a3.47,3.47,0,0,1-.26-.81,1,1,0,0,1,.34-.83,2.09,2.09,0,0,0,.46-1.52c-.07-.8-.72-1.23-.94-2a11.23,11.23,0,0,1-.27-3.27,21.28,21.28,0,0,0-.3-3.28,15.28,15.28,0,0,1-.33-3.08c.35-3.94.31-8.66-3.42-11-1.72-1.09-4-1.86-3.76-4.33a25.46,25.46,0,0,1,1-4.2c.39-1.36.78-2.71,1.23-4.05.24-.75.51-1.49.78-2.22a4,4,0,0,0,.37-2c-.21-1.3-1.54-2-2.45-2.81-2-1.74-4.08-4.62-2.58-7.34,0,0,0-.09-.06-.05Z"/><path class="cls-40" d="M427.56,215.73l-24.74,0h-3.44c-1.19,0-2.38,0-3.58,0-.43,0-.51-.63-.09-.67,1.05-.08,2.12,0,3.18,0h28.57c.46,0,.55.71.1.71Z"/><path class="cls-4" d="M474.54,215.51c-.76,0-1.51.1-2.28.1l-2.3,0-4.6,0-9.19,0-18.27,0-10.34,0c-.47,0-.57-.73-.1-.73l18.4,0,18.28,0,5.11,0,2.63,0c.87,0,1.75.06,2.63.11.17,0,.2.25,0,.26Z"/><path class="cls-8" d="M468.65,214.19c-1.22-.14-2.39-.28-3.62-.32s-2.42-.08-3.63-.11c-2.45,0-4.91-.06-7.37-.08l-14.49-.08c-9.7,0-19.4,0-29.1-.06-5.5,0-11-.06-16.49,0a.88.88,0,0,0,0,1.75c9.7.09,19.41,0,29.11,0s19.4-.07,29.1-.12c2.75,0,5.5,0,8.24-.07,1.34,0,2.67,0,4-.1.71,0,1.42,0,2.13-.08s1.41-.18,2.12-.27a.22.22,0,0,0,0-.43Z"/><path class="cls-39" d="M384.35,256.86s13.37,1.69,15.49,4l3.93-.77-2-5.25Z"/><path class="cls-12" d="M384.35,256.86V208.08s13.36-1.74,22.6-2c0,0,72.51-.86,77.13,0v48.79l-78,2Z"/><path class="cls-41" d="M420.21,256.49l63.87-1.65V206.05c-1.16-.21-6.68-.32-14.26-.36a53.84,53.84,0,0,0-8.59,2.7c.52-.07.8.69.53,1.13a2.11,2.11,0,0,1-1.31.76c-4.24,1.22-24.44,39.43-28,39.32-1.51,0-8.34,3-8.58,3.76-.39,1.23-1.61,2-2.74,2.6Z"/><polygon class="cls-42" points="420.21 256.49 484.08 254.84 479.32 260.09 403.49 260.86 401.75 256.86 420.21 256.49"/><path class="cls-60" d="M384.35,208.08v48.78h17.4V206.3C392.18,206.87,384.35,208.08,384.35,208.08Z"/><path class="cls-44" d="M484.12,206.22a25.22,25.22,0,0,1-4,.3c-1.31,0-2.63.09-3.94.12-2.69.06-5.37.11-8.06.15L452,207q-16.11.21-32.21.4l-9,.1c-3,0-6,.11-9,.09a.68.68,0,0,1,0-1.35c5.36-.16,10.73-.11,16.1-.17L434,206q16.11-.14,32.21-.23c3,0,6,0,9,0,1.48,0,3,0,4.44,0a27.79,27.79,0,0,1,4.47.23.14.14,0,0,1,0,.26Z"/><path class="cls-60" d="M401.76,206.76a6.3,6.3,0,0,1-1.28.46c-.42.07-.84.12-1.26.16-.93.09-12.43.18-13.36.26-1.81.15,22.39.29,20.59.43s-3.61.29-5.42.45l-2.77.24c-.88.08-12.47.31-13.35.2a.78.78,0,0,1-.21-1.53c.85-.27,12.43-.23,13.31-.3l2.77-.21,5.54-.37c1.85-.11-11.73-.2-9.88-.26.89,0,1.77,0,2.65,0a12.84,12.84,0,0,1,1.39,0,6.34,6.34,0,0,1,1.28.33c.09,0,.08.13,0,.16Z"/><path class="cls-44" d="M476,209.29a35.37,35.37,0,0,1-6.66.4.19.19,0,0,1,0-.37c2.22,0,4.43,0,6.64-.13.06,0,.07.09,0,.1Z"/><rect class="cls-61" x="403.77" y="260.09" width="75.54" height="131.66" transform="translate(883.09 651.84) rotate(-180)"/><path class="cls-62" d="M411.16,260.09c7.16,4.86,16.1,10.91,17.11,11.63a13,13,0,0,0,1.65,1c2.26,1.08,4.92.59,7.36.07,0-.49-.06-1-.1-1.49l7.3,0c3.24,0,6.82.15,9.23,2.34a17.11,17.11,0,0,0,7.77-8.52c4.38.16,8.48-2.09,12-4.64l.65-.47Z"/><path class="cls-63" d="M437.13,391.78c14-.39,28.14,0,42.19,0V260.09h-3a8.59,8.59,0,0,1-3.45,2.78,4,4,0,0,0-1,.53,3.71,3.71,0,0,0-.74,1,20.6,20.6,0,0,1-3.65,4.61l-.46.13c-1.93-.14-3.72,1.07-5,2.5s-2.33,3.13-3.73,4.46c-.74.7-1.58,1.3-2.27,2-2.33,2.52-4.07,5.74-5.9,8.63,1.88.26,2.72,2.44,3.21,4.27l5.31,20.25c-1.52,2.59-5,4.59-4.36,7.54a6.36,6.36,0,0,0,.77,1.8l4.77,8.57a3.08,3.08,0,0,0-1.48,4.11l-2.67-.55a6.44,6.44,0,0,0,.61,2.73c-2.06-.11-3.43,2-4.36,3.84l-3.43,6.77a4.72,4.72,0,0,0-.68,2.19,4.56,4.56,0,0,0,.94,2.3,68.4,68.4,0,0,0,7.76,9.79c-5.62,4.95-3.57,15.62-9.9,19.62l-2.91-.38c1.06,2-.52,4.29-2.17,5.79C439.32,387.4,438.56,389.35,437.13,391.78Z"/><path class="cls-4" d="M477.23,294.64c-.1,3-.19,94.14-.28,97.11h2.37V260.09h-2.68C477.93,271.53,477.58,283.12,477.23,294.64Z"/><polygon class="cls-64" points="389.26 257.33 389.26 395.17 403.77 397.04 403.77 258.32 389.26 257.33"/><g class="cls-6"><path class="cls-7" d="M403.78,391.75a2.67,2.67,0,0,1-.1-.88c0-.58-.06-1.43-.09-2.53,0-2.2-.1-93.57-.14-97.51-.09-7.87-.14-18.74-.14-30.74,1.86,0,.52,0,.93,0h0v4.41c0,1.47,0,2.91,0,4.32,0,2.83,0,5.56,0,8.16,0,5.2-.07,9.89-.1,13.82s-.09,95.31-.14,97.51c0,1.1-.06,2-.09,2.53a2.67,2.67,0,0,1-.1.88,3.38,3.38,0,0,1-.09-.88c0-.58-.06-1.43-.09-2.53,0-2.2-.1-93.57-.14-97.51s-.07-8.62-.1-13.82c0-2.6,0-5.33,0-8.16,0-1.41,0-2.85,0-4.32v-4.41h0c.41,0-.93,0,.93,0,0,12-.05,22.87-.14,30.74,0,3.94-.09,95.31-.14,97.51,0,1.1-.06,2-.09,2.53A3.38,3.38,0,0,1,403.78,391.75Z"/></g><polygon class="cls-50" points="483.02 391.75 403.77 391.75 401.75 396.04 483.02 396.04 483.02 391.75"/><path class="cls-51" d="M401.75,396H434L434,396c1.09-1.62,2.19-2.8,3.1-4.23H403.77Z"/><polygon class="cls-52" points="401.75 396.04 403.77 391.75 388.73 391.02 377.79 394.1 401.75 396.04"/><rect class="cls-65" x="401.74" y="396.04" width="81.28" height="45.55"/><path class="cls-66" d="M401.74,396v45.55h23.89c1.73-4.47,4.67-40.86,6.4-45.33a1.51,1.51,0,0,0,2-.22Z"/><path class="cls-8" d="M476.79,259.68c-2.23,4.61-4.64,9.17-7.32,13.54a16.07,16.07,0,0,1-2.42,3.25.11.11,0,0,1-.16-.16,44.7,44.7,0,0,0,4.06-6.26c1.28-2.18,2.5-4.38,3.65-6.63.66-1.29,1.3-2.59,1.93-3.89.08-.18.35,0,.26.15Z"/><path class="cls-8" d="M466.08,278.2s0,0,0,0Z"/><path class="cls-8" d="M420.43,285.34a0,0,0,0,1,0,0s0,0,0,0Z"/><rect class="cls-55" x="479.32" y="391.75" width="3.71" height="49.84" transform="translate(962.34 833.34) rotate(-180)"/><path class="cls-4" d="M483.66,392.57c0,5.3.06,38.81.07,44.11,0,1.51,0,3,0,4.53a.31.31,0,0,1-.62,0c-.05-2.66,0-33.54,0-36.2s0-5.27,0-7.91l0-4.53a.25.25,0,0,1,.5,0Z"/><path class="cls-40" d="M436.58,392.93l-24.73,0H408.4c-1.19,0-2.38,0-3.57-.06a.33.33,0,0,1,0-.66c1.06-.08,2.13-.05,3.19-.05h21.55l7,0a.36.36,0,0,1,0,.71Z"/><path class="cls-4" d="M483.6,392.7c-.77,0-1.53.1-2.3.11l-2.3,0c-1.53,0-3.06,0-4.6,0l-9.2,0-18.27,0H436.58a.36.36,0,0,1,0-.72l18.4,0q9.13,0,18.27.05l5.11,0,2.62,0c.88,0,1.75.07,2.62.11a.13.13,0,0,1,0,.26Z"/><path class="cls-56" d="M479.41,396.22a15.22,15.22,0,0,1,.12,2.43c0,.88,0,1.75,0,2.62,0,1.72.05,31.67,0,33.39a.2.2,0,0,1-.39,0c0-1.72,0-31.67,0-33.39l0-2.55a16,16,0,0,1,.12-2.5,0,0,0,0,1,.09,0Z"/><path class="cls-56" d="M479.94,396.52a64.57,64.57,0,0,1-7,.22l-7,0-13.85,0c-2.62,0-5.24.06-7.86,0a.37.37,0,0,1,0-.74c2.32-.07,4.64,0,7,0l7,0,13.86.05a76.06,76.06,0,0,1,7.85.22.1.1,0,0,1,0,.2Z"/><polygon class="cls-67" points="381.85 392.96 381.85 436.58 401.74 441.59 401.75 396.04 381.85 392.96"/><path class="cls-44" d="M484.13,205.93c.18.16.18.3.22.53a6.65,6.65,0,0,1,.1.78c0,.51,0,1,0,1.53,0,1.09,0,2.18-.07,3.26s0,38.21-.05,39.27c0,.54,0,1.07,0,1.6a3.85,3.85,0,0,1-.14,1.63.44.44,0,0,1-.75,0,3.87,3.87,0,0,1-.08-1.63c0-.51,0-1,.07-1.53,0-1.09.08-38.25.1-39.34s.05-2.13.09-3.19c0-.53,0-1.07.07-1.6,0-.25.08-.48.13-.72s.05-.43.26-.59a0,0,0,0,1,.06,0Z"/><g class="cls-57"><path class="cls-44" d="M483.61,254.8q-6.36.22-12.72.38l-17.46.48-19.17.51-17.84.47L403,257l-1.21,0c-.21,0-.21-.32,0-.32l12.72-.37,17.46-.49,19.17-.52,17.84-.48,13.46-.35,1.21,0a.17.17,0,0,1,0,.34Z"/></g><path class="cls-8" d="M441.23,296.79c1.27-1.26,2.51-2.57,3.73-3.89.59-.63,1.16-1.27,1.73-1.92s1.19-1.34,1.75-2c1.1-1.41,2.15-2.85,3.14-4.34s1.92-3.05,2.86-4.59a12.22,12.22,0,0,1,1.49-2.07c.62-.66,1.35-1.2,2-1.81a35.35,35.35,0,0,0,3.38-4,8.86,8.86,0,0,1,3.77-2.86,5.36,5.36,0,0,1,1.12-.26,4.79,4.79,0,0,0,.93-.06.77.77,0,0,0,.27-.08,3.55,3.55,0,0,0,.33-.34c.34-.34.68-.69,1-1.05a17.79,17.79,0,0,0,1.78-2.36,5.11,5.11,0,0,1,1.7-2.11c.4-.2.82-.35,1.22-.57a8.73,8.73,0,0,0,1.15-.75,8.42,8.42,0,0,0,1.89-2.06c.11-.15.36,0,.26.15a8.66,8.66,0,0,1-3.5,3.13,10.8,10.8,0,0,0-1,.48,2.83,2.83,0,0,0-.92,1.08,21,21,0,0,1-1.45,2.17,22.83,22.83,0,0,1-1.67,2,2.15,2.15,0,0,1-.67.61,1.6,1.6,0,0,1-.68.12,6.25,6.25,0,0,0-4.35,2.08c-1.24,1.23-2.17,2.72-3.32,4s-2.81,2.34-3.87,3.87c-.5.72-.89,1.5-1.34,2.25s-.94,1.53-1.44,2.28q-1.44,2.18-3,4.23c-1.22,1.57-2.46,3.11-3.81,4.57a45.59,45.59,0,0,1-4.39,4.18,0,0,0,0,1,0,0Z"/><g class="cls-58"><path class="cls-44" d="M478.84,261.48q-12.72.07-25.44.12l-25.35,0q-12.17,0-24.34,0c-2.82,0,9.78,0,7,.06l-6.12.05c-1.3,0-2.62.07-3.91,0a1.74,1.74,0,0,1-.79-.15l.45.12h-.09a.89.89,0,0,1,0-1.78h.09l-.45.12a3.32,3.32,0,0,1,1.44-.2h2l5.8,0c3.25,0-8.93,0-5.68-.05,7.17,0,14.34,0,21.51,0l25.35.05q12.68,0,25.35.11h3.19a.74.74,0,0,1,0,1.47Z"/></g><path class="cls-8" d="M477.85,391.39c-1.21-.15-2.39-.28-3.62-.33s-2.41-.08-3.62-.1c-2.46,0-4.91-.07-7.37-.08l-14.49-.08c-9.7-.06-19.4-.05-29.11-.06-5.49,0-11-.06-16.48,0a.88.88,0,0,0,0,1.75c9.7.09,19.4,0,29.1,0s19.4-.06,29.11-.12c2.74,0,5.49,0,8.24-.06,1.33,0,2.67-.06,4-.11.7,0,1.41,0,2.12-.08s1.41-.18,2.12-.26a.22.22,0,0,0,0-.43Z"/><path class="cls-68" d="M443.91,391.5l5.56-4.52a41.14,41.14,0,0,1-3.84-24.81c-4.4-4.86-9-9.86-15-12.43a2.69,2.69,0,0,1-1.4-1,2.52,2.52,0,0,1-.18-1.47l.3-4.4a8.1,8.1,0,0,1-6.31-8c-.86,3.4-1.47,5.32-4.29,7.62a2.36,2.36,0,0,0-.82,3.39,65.68,65.68,0,0,1,2.7,9.74,5.17,5.17,0,0,1,.09,2.21c-.52,2-2.93,2.56-4.5,3.83-2.92,2.34-2.78,6.74-2.37,10.46l-.61,5.52c.13,2.6-.16,4.5-.82,5.1a1.38,1.38,0,0,0-.23,1.54c.13.27.4.47.55.73a2.15,2.15,0,0,1-.14,1.78l-1.56,4"/><path class="cls-8" d="M422,333.87c1.32,2.39-.18,5.11-2,6.79a23.47,23.47,0,0,0-2.59,2.28c-.84,1.07-.41,2.28,0,3.43a79.72,79.72,0,0,1,2.43,8c.32,1.26.89,2.81.14,4a5.72,5.72,0,0,1-2.21,1.77,12.47,12.47,0,0,0-2.36,1.58,6.91,6.91,0,0,0-1.61,2.39,14.4,14.4,0,0,0-.77,6.25,14.55,14.55,0,0,1,.11,2c-.05.52-.13,1-.2,1.54-.15,1.22-.35,2.44-.44,3.66-.07,1,.05,2-.08,3a5,5,0,0,1-.31,1.33c-.15.36-.48.59-.64.94a2.08,2.08,0,0,0-.06,1.57,2.25,2.25,0,0,0,.46.74,1,1,0,0,1,.14,1c-.45,1.54-1.19,3-1.66,4.52-.19.63.79,1.07,1.08.46.63-1.31,1.13-2.66,1.65-4a3.55,3.55,0,0,0,.33-1.69,1.86,1.86,0,0,0-.27-.79c-.16-.25-.43-.44-.52-.73-.13-.47.18-.67.41-1a3.45,3.45,0,0,0,.47-1.1,12,12,0,0,0,.28-3.22,33.71,33.71,0,0,1,.24-3.48,16.67,16.67,0,0,0,.24-3.3,18,18,0,0,1,.1-6.47,6.43,6.43,0,0,1,1.41-2.76,10.32,10.32,0,0,1,2.47-1.77A6.7,6.7,0,0,0,420.5,359,3.91,3.91,0,0,0,421,356a55.51,55.51,0,0,0-1.92-8.23c-.23-.74-.49-1.47-.73-2.21s-.42-1.56.25-2.23a30.87,30.87,0,0,0,2.89-2.83c1.48-1.91,2.21-4.59.6-6.66,0,0-.09,0-.07.05Z"/></g></g></g></svg>