<svg xmlns="http://www.w3.org/2000/svg" viewBox="0 0 14.66 13.84"><defs><style>.cls-1{fill:#07382f;}.cls-2{fill:#fff;}</style></defs><title>Asset 31</title><g id="Layer_2" data-name="Layer 2"><g id="Layer_2-2" data-name="Layer 2"><path class="cls-1" d="M9.06,10.89l-.77-.07L7.21,10.7v-.1c0-.72,0-1.3.06-1.73s.05-.58.06-.87,0-.56,0-.85l-.87.06L6.66,5.6c.36,0,2-.17,2.4-.18Zm0-7A.82.82,0,0,1,9,4.29a1,1,0,0,1-.21.3,1.21,1.21,0,0,1-.33.2,1.09,1.09,0,0,1-.4.07,1,1,0,0,1-.4-.07,1.21,1.21,0,0,1-.33-.2,1,1,0,0,1-.21-.3A.81.81,0,0,1,7,3.91a.77.77,0,0,1,.08-.37.9.9,0,0,1,.21-.3A1,1,0,0,1,7.61,3,1,1,0,0,1,8,3a1.09,1.09,0,0,1,.4.07,1,1,0,0,1,.33.2.9.9,0,0,1,.21.3A.78.78,0,0,1,9,3.91Z"/><path class="cls-1" d="M8,13.84a6.69,6.69,0,1,1,6.69-6.69A6.69,6.69,0,0,1,8,13.84ZM8,2a5.12,5.12,0,1,0,5.12,5.12A5.12,5.12,0,0,0,8,2Z"/><path class="cls-2" d="M7.78,10.43,7,10.36l-1.08-.12v-.1c0-.72,0-1.3.06-1.73l.06-.87,0-.85-.86.06.16-1.61c.36,0,2-.17,2.4-.19Zm0-7a1,1,0,0,1-.08.38,1.05,1.05,0,0,1-.22.3,1.08,1.08,0,0,1-.33.2,1,1,0,0,1-.39.07,1.1,1.1,0,0,1-.41-.07A1.16,1.16,0,0,1,6,4.13a1.05,1.05,0,0,1-.22-.3,1,1,0,0,1-.08-.38.91.91,0,0,1,.08-.37A.84.84,0,0,1,6,2.78a.83.83,0,0,1,.32-.2,1.11,1.11,0,0,1,.41-.08,1,1,0,0,1,.39.08.79.79,0,0,1,.33.2.84.84,0,0,1,.22.3A.91.91,0,0,1,7.75,3.45Z"/><path class="cls-2" d="M6.69,13.37a6.69,6.69,0,1,1,6.68-6.68A6.69,6.69,0,0,1,6.69,13.37Zm0-11.8a5.12,5.12,0,1,0,5.12,5.12A5.12,5.12,0,0,0,6.69,1.57Z"/></g></g></svg>